<svg width="16" height="16" viewBox="0 0 16 16" fill="none" xmlns="http://www.w3.org/2000/svg">
<path d="M8.5 5L8.5 2.5L14 2L14 14L8.5 13" stroke="white" stroke-width="2" stroke-linecap="round" stroke-linejoin="round"/>
<path d="M4 9L10 9" stroke="white" stroke-width="2" stroke-linecap="round"/>
<path d="M5.70711 6.70711C6.09763 6.31658 6.09763 5.68342 5.70711 5.29289C5.31658 4.90237 4.68342 4.90237 4.29289 5.29289L5.70711 6.70711ZM2 9L1.29289 8.29289C0.902369 8.68342 0.902369 9.31658 1.29289 9.70711L2 9ZM4.29289 12.7071C4.68342 13.0976 5.31658 13.0976 5.70711 12.7071C6.09763 12.3166 6.09763 11.6834 5.70711 11.2929L4.29289 12.7071ZM4.29289 5.29289L1.29289 8.29289L2.70711 9.70711L5.70711 6.70711L4.29289 5.29289ZM1.29289 9.70711L4.29289 12.7071L5.70711 11.2929L2.70711 8.29289L1.29289 9.70711Z" fill="white"/>
</svg>
