<svg width="16" height="16" viewBox="0 0 16 16" fill="none" xmlns="http://www.w3.org/2000/svg">
<path d="M14.2929 11.7071C14.6834 12.0976 15.3166 12.0976 15.7071 11.7071C16.0976 11.3166 16.0976 10.6834 15.7071 10.2929L14.2929 11.7071ZM8 4L8.70711 3.29289C8.31658 2.90237 7.68342 2.90237 7.29289 3.29289L8 4ZM0.292893 10.2929C-0.0976314 10.6834 -0.0976315 11.3166 0.292893 11.7071C0.683417 12.0976 1.31658 12.0976 1.70711 11.7071L0.292893 10.2929ZM15.7071 10.2929L8.70711 3.29289L7.29289 4.70711L14.2929 11.7071L15.7071 10.2929ZM7.29289 3.29289L0.292893 10.2929L1.70711 11.7071L8.70711 4.70711L7.29289 3.29289Z" fill="#2C2833"/>
</svg>
