<svg width="16" height="16" viewBox="0 0 16 16" fill="none" xmlns="http://www.w3.org/2000/svg">
<path d="M13 8L13 14L3 14L3 8" stroke="#2C2833" stroke-width="2" stroke-linecap="round" stroke-linejoin="round"/>
<path d="M8 4V10" stroke="#2C2833" stroke-width="2" stroke-linecap="round"/>
<path d="M10.2929 5.70711C10.6834 6.09763 11.3166 6.09763 11.7071 5.70711C12.0976 5.31658 12.0976 4.68342 11.7071 4.29289L10.2929 5.70711ZM8 2L8.70711 1.29289C8.31658 0.902369 7.68342 0.902369 7.29289 1.29289L8 2ZM4.29289 4.29289C3.90237 4.68342 3.90237 5.31658 4.29289 5.70711C4.68342 6.09763 5.31658 6.09763 5.70711 5.70711L4.29289 4.29289ZM11.7071 4.29289L8.70711 1.29289L7.29289 2.70711L10.2929 5.70711L11.7071 4.29289ZM7.29289 1.29289L4.29289 4.29289L5.70711 5.70711L8.70711 2.70711L7.29289 1.29289Z" fill="#2C2833"/>
</svg>
