<svg xmlns="http://www.w3.org/2000/svg" width="80" height="112" fill="none"><rect width="80" height="112" fill="#fff" rx="5"/><path fill="#2C2833" d="M4.5 14.116h2.21V28h2.86V9.8H7.644c-.442 1.222-.936 2.288-3.146 2.288v2.028ZM15.666 13.986c0-1.3.572-1.794 1.482-1.794s1.482.494 1.482 1.794v9.828c0 1.3-.572 1.794-1.482 1.794s-1.482-.494-1.482-1.794v-9.828Zm-2.86 9.646c0 2.912 1.534 4.576 4.342 4.576s4.342-1.664 4.342-4.576v-9.464c0-2.912-1.534-4.576-4.342-4.576s-4.342 1.664-4.342 4.576v9.464Z"/><path fill="#2C2833" fill-rule="evenodd" d="M8.863 39.804a3.137 3.137 0 1 1 6.008 1.266 3.137 3.137 0 1 1-1.538 5.693v3.904h-2.666v-3.904a3.137 3.137 0 1 1-1.538-5.693 3.126 3.126 0 0 1-.266-1.266ZM35.294 49.706a4.706 4.706 0 1 1 9.013 1.899A4.706 4.706 0 1 1 42 60.145V66h-4v-5.855a4.706 4.706 0 1 1-2.307-8.54 4.69 4.69 0 0 1-.399-1.9Z" clip-rule="evenodd"/><path fill="#2C2833" d="M75.5 97.884h-2.21V84h-2.86v18.2h1.925c.442-1.222.936-2.288 3.146-2.288v-2.028ZM64.334 98.014c0 1.3-.572 1.794-1.482 1.794s-1.482-.494-1.482-1.794v-9.828c0-1.3.572-1.794 1.482-1.794s1.482.494 1.482 1.794v9.828Zm2.86-9.646c0-2.912-1.534-4.576-4.342-4.576s-4.342 1.664-4.342 4.576v9.464c0 2.912 1.534 4.576 4.342 4.576s4.342-1.664 4.342-4.576v-9.464Z"/><path fill="#2C2833" fill-rule="evenodd" d="M71.137 72.196a3.137 3.137 0 1 1-6.008-1.266 3.137 3.137 0 1 1 1.538-5.693v-3.904h2.666v3.904a3.137 3.137 0 1 1 1.538 5.693c.171.387.266.816.266 1.266Z" clip-rule="evenodd"/></svg>