<?xml version="1.0" encoding="UTF-8"?><svg xmlns="http://www.w3.org/2000/svg" viewBox="0 0 750 1050"><g id="uuid-3acf8c27-1039-41b8-b391-91c66136a9b6"><rect width="750" height="1049.95" rx="44.82" ry="44.82" style="fill:#fff;"/><rect width="750" height="1049.95" rx="44.82" ry="44.82" style="fill:#fff;"/></g><g id="uuid-46f0d2ab-0602-4018-b523-731fa10a1098"><g><path d="M425.44,587.21c0,9.57,4.15,14.35,12.44,14.35s12.57-4.78,12.57-14.35v-118.23c-8.67,1.47-17.11,4.29-25.01,8.22v110.01Z" style="fill:#282c44;"/><path d="M438.01,420.52h-.25c-8.21,0-12.31,4.78-12.31,14.35v38.51c10.51-7.96,19.13-18.42,25.01-30.54v-7.97c0-9.56-4.15-14.35-12.44-14.35Z" style="fill:#282c44;"/><path d="M252.01,597.62h33.64v-129.75c-44,1.7-82.05,39.54-82.55,85.02-.38,33.89,20.2,62.73,48.9,76.3v-31.57Z" style="fill:#282c44;"/><path d="M492.73,473v114.21c0,26-9.25,42.75-27.74,50.26,44.88-.42,81.4-37.59,81.91-83.86,.41-36.91-22.22-68.56-54.17-80.61Z" style="fill:#282c44;"/><path d="M383.17,587.21v-152.34c0-36.65,18.24-54.97,54.72-54.97,6.59,0,12.58,.61,17.98,1.8-9.81-35.11-41.13-61-78.56-61.43-38.49-.45-73.2,27.01-83.48,63.7h34.09v90.96c1.06,.72,2.14,1.43,3.23,2.1l-1.12,1.63c-.7-.39-1.4-.76-2.11-1.13v120.1h33.64v40.5h-19.58l-24.61,91.64h115.53l-25.15-93.68c-16.39-8.08-24.59-24.36-24.59-48.87Z" style="fill:#282c44;"/></g><g><polygon points="51.75 95.23 71.83 89.85 71.83 53.54 35.77 53.54 35.77 72.78 51.75 72.78 51.75 95.23" style="fill:#282c44;"/><polygon points="71.83 103.31 51.75 108.69 51.75 155.03 35.77 155.03 35.77 174.27 87.81 174.27 87.81 155.03 71.83 155.03 71.83 103.31" style="fill:#282c44;"/></g><g><path d="M110.74,79.43v-1.7c0-4.54,1.95-6.81,5.85-6.81h.12c3.49,0,5.43,1.79,5.83,5.36l19.65-5.26c-2.07-12.91-10.57-19.39-25.53-19.39-17.33,0-25.99,8.7-25.99,26.11v7.08l20.08-5.38Z" style="fill:#282c44;"/><path d="M122.62,89.7v60.39c0,4.54-1.99,6.81-5.97,6.81s-5.91-2.27-5.91-6.81v-57.2l-20.08,5.38v51.82c0,17.37,8.66,26.05,25.99,26.05s26.05-8.68,26.05-26.05V84.32l-20.08,5.38Z" style="fill:#282c44;"/></g><path d="M101.85,229.36c-3.12-.04-6.2,.85-8.91,2.4l-.29-.42c4.73-2.94,7.92-8.24,7.98-14.33,.1-9.37-7.22-17.05-16.35-17.16-9.14-.11-17.21,7.64-17.31,17.02-.07,6.09,3.25,11.36,8.08,14.34l-.22,.33c-2.44-1.35-5.2-2.13-8.08-2.17-9.14-.11-17.21,7.64-17.31,17.02-.1,9.37,7.8,16.81,16.93,16.92,4.61,.05,8.98-1.84,12.2-4.92l-6.28,23.38h23.11l-6.32-23.53c3.29,3.1,7.78,5.03,12.39,5.08,9.13,.11,16.62-7.4,16.73-16.78,.1-9.37-7.22-17.05-16.35-17.16" style="fill:#282c44;"/><g><polygon points="698.25 954.77 678.17 960.15 678.17 996.46 714.23 996.46 714.23 977.22 698.25 977.22 698.25 954.77" style="fill:#282c44;"/><polygon points="678.17 946.69 698.25 941.31 698.25 894.97 714.23 894.97 714.23 875.73 662.19 875.73 662.19 894.97 678.17 894.97 678.17 946.69" style="fill:#282c44;"/></g><g><path d="M639.26,970.57v1.7c0,4.54-1.95,6.81-5.85,6.81h-.12c-3.49,0-5.43-1.79-5.83-5.36l-19.65,5.26c2.07,12.91,10.57,19.39,25.53,19.39,17.33,0,25.99-8.7,25.99-26.11v-7.08l-20.08,5.38Z" style="fill:#282c44;"/><path d="M627.38,960.3v-60.39c0-4.54,1.99-6.81,5.97-6.81s5.91,2.27,5.91,6.81v57.2l20.08-5.38v-51.82c0-17.37-8.66-26.05-25.99-26.05s-26.05,8.68-26.05,26.05v65.77l20.08-5.38Z" style="fill:#282c44;"/></g><path d="M648.15,820.64c3.12,.04,6.2-.85,8.91-2.4l.29,.42c-4.73,2.94-7.92,8.24-7.98,14.33-.1,9.37,7.22,17.05,16.35,17.16,9.14,.11,17.21-7.64,17.31-17.02,.07-6.09-3.25-11.36-8.08-14.34l.22-.33c2.44,1.35,5.2,2.13,8.08,2.17,9.14,.11,17.21-7.64,17.31-17.02,.1-9.37-7.8-16.81-16.93-16.92-4.61-.05-8.98,1.84-12.2,4.92l6.28-23.38h-23.11l6.32,23.53c-3.29-3.1-7.78-5.03-12.39-5.08-9.13-.11-16.62,7.4-16.73,16.78-.1,9.37,7.22,17.05,16.35,17.16" style="fill:#282c44;"/></g></svg>