<svg xmlns="http://www.w3.org/2000/svg" viewBox="0 0 750 1050">
  <defs>
    <clipPath id="a">
      <path style="fill:none" d="M-36-36h822v1122H-36z"/>
    </clipPath>
  </defs>
  <g data-name="Ebene 2">
    <rect width="750" height="1049.95" rx="44.82" style="fill:#fff"/>
    <rect width="750" height="1049.95" rx="44.82" style="fill:#fff"/>
  </g>
  <g data-name="Ebene 1 Kopie 2">
    <g style="clip-path:url(#a)">
      <path d="M91.18 185.7a13.53 13.53 0 0 0-6.85 1.84l-.22-.32a13.1 13.1 0 0 0 6.14-11A12.9 12.9 0 0 0 77.67 163a13.43 13.43 0 0 0-13.31 13.09 12.84 12.84 0 0 0 6.21 11l-.17.25a13.16 13.16 0 0 0-6.21-1.67 13.43 13.43 0 0 0-13.32 13.09 13.13 13.13 0 0 0 13 13 13.42 13.42 0 0 0 9.41-3.76l-4.83 18h17.78l-4.86-18.1a14.39 14.39 0 0 0 9.53 3.91 13.06 13.06 0 0 0 .28-26.11M658.82 864.3a13.53 13.53 0 0 0 6.85-1.84l.22.32a13.1 13.1 0 0 0-6.14 11A12.9 12.9 0 0 0 672.33 887a13.43 13.43 0 0 0 13.31-13.09 12.84 12.84 0 0 0-6.21-11l.17-.25a13.16 13.16 0 0 0 6.21 1.67 13.43 13.43 0 0 0 13.32-13.09 13.13 13.13 0 0 0-13-13 13.42 13.42 0 0 0-9.38 3.79l4.83-18h-17.81l4.86 18.1a14.39 14.39 0 0 0-9.53-3.91 13.06 13.06 0 0 0-.28 26.11" style="fill:#282c44"/>
    </g>
    <path d="M413.8 572.85q0 11 9.57 11t9.67-11v-91a69.12 69.12 0 0 0-19.24 6.33ZM423.47 444.63h-.19q-9.48 0-9.48 11v29.63A65.15 65.15 0 0 0 433 461.8v-6.14q0-11.02-9.53-11.03ZM280.39 580.86h25.88v-99.81c-33.85 1.3-63.11 30.41-63.5 65.4-.29 26.07 15.55 48.25 37.62 58.69ZM465.56 485v87.85q0 30-21.34 38.66c34.52-.33 62.61-28.92 63-64.5.32-28.39-17.09-52.74-41.66-62.01Z" style="fill:#282c44"/>
    <path d="M381.28 572.85V455.66q0-42.27 42.09-42.28a64.18 64.18 0 0 1 13.84 1.38c-7.55-27-31.64-46.92-60.43-47.26-29.61-.34-56.31 20.78-64.22 49h26.23v70c.82.56 1.64 1.1 2.49 1.62l-.86 1.26c-.54-.3-1.08-.59-1.63-.87v92.38h25.88V612h-15.06l-18.93 70.5h88.87l-19.35-72.06q-18.9-9.33-18.92-37.59ZM53.73 85.17l15.45-4.14V53.1H41.44v14.79h12.29v17.28zM69.18 91.38l-15.45 4.14v35.65H41.44v14.79h40.03v-14.79H69.18V91.38zM680.82 958.62l15.45-4.14v-35.65h12.29v-14.79h-40.03v14.79h12.29v39.79zM696.27 964.83l-15.45 4.14v27.93h27.74v-14.79h-12.29v-17.28zM641.75 969.09v-46.45c0-3.5 1.53-5.24 4.59-5.24s4.55 1.74 4.55 5.24v44l15.45-4.14v-39.86q0-20-20-20t-20 20v50.59ZM650.89 977v1.31c0 3.5-1.5 5.24-4.5 5.24h-.09q-4 0-4.48-4.12l-15.12 4.05q2.4 14.91 19.64 14.92 20 0 20-20.09v-5.45ZM99.11 73v-1.3c0-3.5 1.5-5.24 4.5-5.24h.09q4 0 4.48 4.12l15.12-4q-2.4-14.91-19.64-14.92-20 0-20 20.09v5.45ZM108.25 80.91v46.45c0 3.5-1.53 5.24-4.59 5.24s-4.55-1.74-4.55-5.24v-44L83.66 87.5v39.86q0 20 20 20t20-20V76.77Z" style="fill:#282c44"/>
  </g>
</svg>
