<svg xmlns="http://www.w3.org/2000/svg" xmlns:xlink="http://www.w3.org/1999/xlink" viewBox="0 0 750 1050"><defs><style>.cls-1{fill:none;}.cls-2{fill:#fff;}.cls-3{clip-path:url(#clip-path);}.cls-4{fill:#282c44;}</style><clipPath id="clip-path"><rect class="cls-1" x="-36" y="-36" width="822" height="1122"/></clipPath></defs><g id="Ebene_2" data-name="Ebene 2"><rect class="cls-2" width="750" height="1049.95" rx="44.82"/><rect class="cls-2" width="750" height="1049.95" rx="44.82"/></g><g id="Ebene_1_Kopie_2" data-name="Ebene 1 Kopie 2"><g class="cls-3"><path class="cls-4" d="M91.18,185.7a13.53,13.53,0,0,0-6.85,1.84l-.22-.32a13.1,13.1,0,0,0,6.14-11A12.9,12.9,0,0,0,77.67,163a13.43,13.43,0,0,0-13.31,13.09,12.84,12.84,0,0,0,6.21,11l-.17.25a13.16,13.16,0,0,0-6.21-1.67,13.43,13.43,0,0,0-13.32,13.09,13.13,13.13,0,0,0,13,13A13.42,13.42,0,0,0,73.28,208l-4.83,18H86.23l-4.86-18.1a14.39,14.39,0,0,0,9.53,3.91,13.06,13.06,0,0,0,.28-26.11"/><path class="cls-4" d="M658.82,864.3a13.53,13.53,0,0,0,6.85-1.84l.22.32a13.1,13.1,0,0,0-6.14,11A12.9,12.9,0,0,0,672.33,887a13.43,13.43,0,0,0,13.31-13.09,12.84,12.84,0,0,0-6.21-11l.17-.25a13.16,13.16,0,0,0,6.21,1.67,13.43,13.43,0,0,0,13.32-13.09,13.13,13.13,0,0,0-13-13,13.42,13.42,0,0,0-9.38,3.79l4.83-18H663.77l4.86,18.1a14.39,14.39,0,0,0-9.53-3.91,13.06,13.06,0,0,0-.28,26.11"/></g><path class="cls-4" d="M413.8,572.85q0,11,9.57,11t9.67-11v-91a69.12,69.12,0,0,0-19.24,6.33Z"/><path class="cls-4" d="M423.47,444.63h-.19q-9.48,0-9.48,11v29.63A65.15,65.15,0,0,0,433,461.8v-6.14Q433,444.64,423.47,444.63Z"/><path class="cls-4" d="M280.39,580.86h25.88V481.05c-33.85,1.3-63.11,30.41-63.5,65.4-.29,26.07,15.55,48.25,37.62,58.69Z"/><path class="cls-4" d="M465.56,485v87.85q0,30-21.34,38.66c34.52-.33,62.61-28.92,63-64.5C507.54,518.62,490.13,494.27,465.56,485Z"/><path class="cls-4" d="M381.28,572.85V455.66q0-42.27,42.09-42.28a64.18,64.18,0,0,1,13.84,1.38c-7.55-27-31.64-46.92-60.43-47.26-29.61-.34-56.31,20.78-64.22,49h26.23v70c.82.56,1.64,1.1,2.49,1.62l-.86,1.26c-.54-.3-1.08-.59-1.63-.87v92.38h25.88V612H349.61L330.68,682.5h88.87L400.2,610.44Q381.3,601.11,381.28,572.85Z"/><polygon class="cls-4" points="53.73 85.17 69.18 81.03 69.18 53.1 41.44 53.1 41.44 67.89 53.73 67.89 53.73 85.17"/><polygon class="cls-4" points="69.18 91.38 53.73 95.52 53.73 131.17 41.44 131.17 41.44 145.96 81.47 145.96 81.47 131.17 69.18 131.17 69.18 91.38"/><polygon class="cls-4" points="680.82 958.62 696.27 954.48 696.27 918.83 708.56 918.83 708.56 904.04 668.53 904.04 668.53 918.83 680.82 918.83 680.82 958.62"/><polygon class="cls-4" points="696.27 964.83 680.82 968.97 680.82 996.9 708.56 996.9 708.56 982.11 696.27 982.11 696.27 964.83"/><path class="cls-4" d="M641.75,969.09V922.64c0-3.5,1.53-5.24,4.59-5.24s4.55,1.74,4.55,5.24v44l15.45-4.14V922.64q0-20-20-20t-20,20v50.59Z"/><path class="cls-4" d="M650.89,977v1.31c0,3.5-1.5,5.24-4.5,5.24h-.09q-4,0-4.48-4.12l-15.12,4.05q2.4,14.91,19.64,14.92,20,0,20-20.09v-5.45Z"/><path class="cls-4" d="M99.11,73V71.7c0-3.5,1.5-5.24,4.5-5.24h.09q4,0,4.48,4.12l15.12-4q-2.4-14.91-19.64-14.92-20,0-20,20.09v5.45Z"/><path class="cls-4" d="M108.25,80.91v46.45c0,3.5-1.53,5.24-4.59,5.24s-4.55-1.74-4.55-5.24v-44L83.66,87.5v39.86q0,20,20,20t20-20V76.77Z"/></g></svg>