<svg xmlns="http://www.w3.org/2000/svg" viewBox="0 0 750 1050">
  <defs>
    <style>
      .cls-2{fill:#a4203a}
    </style>
  </defs>
  <rect width="750" height="1049.95" rx="44.82" style="fill:#fff" id="Ebene_2" data-name="Ebene 2"/>
  <g id="Ebene_1_Kopie_2" data-name="Ebene 1 Kopie 2">
    <path class="cls-2" d="m77.32 163.13-22.12 31.5 22.12 31.5 22.12-31.5-22.12-31.5zm595.36 723.74 22.12-31.5-22.12-31.5-22.12 31.5 22.12 31.5zM414.55 475.82V593q0 11 9.57 11t9.67-11V475.82q0-11-9.57-11H424q-9.45-.04-9.45 11Zm51.76 21.7v54.96L485.6 525l-19.29-27.48z"/>
    <path class="cls-2" d="M382 593V475.82q0-40.9 39.38-42.24L375 367.5l-48.57 69.16h21.1V601h25.88v31.16h-33.75L375 682.5l34.34-48.91Q382 627 382 593Zm-66.98-125.19h-10.46L264.4 525l50.62 72.08V467.81zM53.73 85.17l15.45-4.14V53.1H41.44v14.79h12.29v17.28zm15.45 6.21-15.45 4.14v35.65H41.44v14.79h40.03v-14.79H69.18V91.38zm611.64 867.24 15.45-4.14v-35.65h12.29v-14.79h-40.03v14.79h12.29v39.79zm15.45 6.21-15.45 4.14v27.93h27.74v-14.79h-12.29v-17.28zM99.11 73v-1.3q0-5.24 4.5-5.24h.09c2.69 0 4.18 1.38 4.48 4.12l15.12-4q-2.4-14.91-19.64-14.92-20 0-20 20.09v5.45Zm9.14 7.91v46.45c0 3.5-1.53 5.24-4.59 5.24s-4.55-1.74-4.55-5.24v-44L83.66 87.5v39.86q0 20 20 20t20-20V76.77Zm533.5 888.18v-46.45c0-3.5 1.53-5.24 4.59-5.24s4.55 1.74 4.55 5.24v44l15.45-4.14v-39.86q0-20-20-20t-20 20v50.59Zm9.14 7.91v1.31q0 5.24-4.5 5.24h-.09c-2.69 0-4.18-1.38-4.48-4.12l-15.12 4.05q2.4 14.91 19.64 14.92 20 0 20-20.09v-5.45Z"/>
  </g>
</svg>
