<svg xmlns="http://www.w3.org/2000/svg" viewBox="0 0 750 1050"><defs><style>.cls-1{fill:#fff;}.cls-2{fill:#a4203a;}</style></defs><g id="Ebene_2" data-name="Ebene 2"><rect class="cls-1" width="750" height="1049.95" rx="44.82"/></g><g id="Ebene_1_Kopie_2" data-name="Ebene 1 Kopie 2"><polygon class="cls-2" points="77.32 163.13 55.2 194.63 77.32 226.13 99.44 194.63 77.32 163.13"/><polygon class="cls-2" points="672.68 886.87 694.8 855.37 672.68 823.87 650.56 855.37 672.68 886.87"/><path class="cls-2" d="M414.55,475.82V593q0,11,9.57,11t9.67-11V475.82q0-11-9.57-11H424Q414.55,464.78,414.55,475.82Z"/><polygon class="cls-2" points="466.31 497.52 466.31 552.48 485.6 525 466.31 497.52"/><path class="cls-2" d="M382,593V475.82q0-40.9,39.38-42.24L375,367.5l-48.57,69.16h21.1V601h25.88v31.16H339.66L375,682.5l34.34-48.91Q382,627,382,593Z"/><polygon class="cls-2" points="315.02 467.81 304.56 467.81 264.4 525 315.02 597.08 315.02 467.81"/><polygon class="cls-2" points="53.73 85.17 69.18 81.03 69.18 53.1 41.44 53.1 41.44 67.89 53.73 67.89 53.73 85.17"/><polygon class="cls-2" points="69.18 91.38 53.73 95.52 53.73 131.17 41.44 131.17 41.44 145.96 81.47 145.96 81.47 131.17 69.18 131.17 69.18 91.38"/><polygon class="cls-2" points="680.82 958.62 696.27 954.48 696.27 918.83 708.56 918.83 708.56 904.04 668.53 904.04 668.53 918.83 680.82 918.83 680.82 958.62"/><polygon class="cls-2" points="696.27 964.83 680.82 968.97 680.82 996.9 708.56 996.9 708.56 982.11 696.27 982.11 696.27 964.83"/><path class="cls-2" d="M99.11,73V71.7q0-5.24,4.5-5.24h.09c2.69,0,4.18,1.38,4.48,4.12l15.12-4q-2.4-14.91-19.64-14.92-20,0-20,20.09v5.45Z"/><path class="cls-2" d="M108.25,80.91v46.45c0,3.5-1.53,5.24-4.59,5.24s-4.55-1.74-4.55-5.24v-44L83.66,87.5v39.86q0,20,20,20t20-20V76.77Z"/><path class="cls-2" d="M641.75,969.09V922.64c0-3.5,1.53-5.24,4.59-5.24s4.55,1.74,4.55,5.24v44l15.45-4.14V922.64q0-20-20-20t-20,20v50.59Z"/><path class="cls-2" d="M650.89,977v1.31q0,5.24-4.5,5.24h-.09c-2.69,0-4.18-1.38-4.48-4.12l-15.12,4.05q2.4,14.91,19.64,14.92,20,0,20-20.09v-5.45Z"/></g></svg>