<?xml version="1.0" encoding="UTF-8"?><svg xmlns="http://www.w3.org/2000/svg" xmlns:xlink="http://www.w3.org/1999/xlink" viewBox="0 0 750 1050"><defs><clipPath id="uuid-4edaeb75-ed79-4721-acf8-0489c66d6454"><rect x="-881.95" y="1182.02" width="749.89" height="1049.95" rx="84.97" ry="84.97" style="fill:none;"/></clipPath><clipPath id="uuid-c812350f-90b7-47c5-bcda-b2add88902d3"><rect x="-1483.61" y="705.36" width="2226.37" height="2128.61" style="fill:none;"/></clipPath></defs><g id="uuid-f64efaa2-7ec6-4073-96cc-ab37bb1e85dc"><rect width="750" height="1049.95" rx="44.82" ry="44.82" style="fill:#fff;"/></g><g id="uuid-aaf64014-5760-4d66-b82e-fb27caacc772"><g><path d="M426.42,461.06v152.34c0,9.57,4.15,14.35,12.44,14.35s12.57-4.78,12.57-14.35v-152.34c0-9.56-4.15-14.35-12.44-14.35h-.25c-8.21,0-12.31,4.78-12.31,14.35Z" style="fill:#a4203a;"/><polygon points="493.7 489.28 493.7 560.72 518.78 525 493.7 489.28" style="fill:#a4203a;"/><path d="M384.14,613.41v-152.34c0-35.44,17.07-53.75,51.19-54.91l-60.32-85.9-63.14,89.9h27.43v213.66h33.64v40.5h-43.88l45.96,65.44,44.65-63.58c-23.67-5.73-35.52-23.31-35.52-52.76Z" style="fill:#a4203a;"/><polygon points="297.02 450.65 283.43 450.65 231.22 525 297.02 618.7 297.02 450.65" style="fill:#a4203a;"/></g><g><polygon points="51.75 95.23 71.83 89.85 71.83 53.54 35.77 53.54 35.77 72.78 51.75 72.78 51.75 95.23" style="fill:#a4203a;"/><polygon points="71.83 103.31 51.75 108.69 51.75 155.03 35.77 155.03 35.77 174.27 87.81 174.27 87.81 155.03 71.83 155.03 71.83 103.31" style="fill:#a4203a;"/></g><g style="clip-path:url(#uuid-4edaeb75-ed79-4721-acf8-0489c66d6454);"><g style="clip-path:url(#uuid-c812350f-90b7-47c5-bcda-b2add88902d3);"><line x1="207.48" y1="2679.65" x2="-892.83" y2="740.68" style="fill:none; stroke:#fff; stroke-width:20px;"/></g></g><g><path d="M110.74,79.43v-1.7c0-4.54,1.95-6.81,5.85-6.81h.12c3.49,0,5.43,1.79,5.83,5.36l19.65-5.26c-2.07-12.91-10.57-19.39-25.53-19.39-17.33,0-25.99,8.7-25.99,26.11v7.08l20.08-5.38Z" style="fill:#a4203a;"/><path d="M122.62,89.7v60.39c0,4.54-1.99,6.81-5.97,6.81s-5.91-2.27-5.91-6.81v-57.2l-20.08,5.38v51.82c0,17.37,8.66,26.05,25.99,26.05s26.05-8.68,26.05-26.05V84.32l-20.08,5.38Z" style="fill:#a4203a;"/></g><polygon points="82.89 196.22 54.13 237.17 82.89 278.12 111.65 237.17 82.89 196.22" style="fill:#a4203a;"/><g><polygon points="698.25 954.77 678.17 960.15 678.17 996.46 714.23 996.46 714.23 977.22 698.25 977.22 698.25 954.77" style="fill:#a4203a;"/><polygon points="678.17 946.69 698.25 941.31 698.25 894.97 714.23 894.97 714.23 875.73 662.19 875.73 662.19 894.97 678.17 894.97 678.17 946.69" style="fill:#a4203a;"/></g><g><path d="M639.26,970.57v1.7c0,4.54-1.95,6.81-5.85,6.81h-.12c-3.49,0-5.43-1.79-5.83-5.36l-19.65,5.26c2.07,12.91,10.57,19.39,25.53,19.39,17.33,0,25.99-8.7,25.99-26.11v-7.08l-20.08,5.38Z" style="fill:#a4203a;"/><path d="M627.38,960.3v-60.39c0-4.54,1.99-6.81,5.97-6.81s5.91,2.27,5.91,6.81v57.2l20.08-5.38v-51.82c0-17.37-8.66-26.05-25.99-26.05s-26.05,8.68-26.05,26.05v65.77l20.08-5.38Z" style="fill:#a4203a;"/></g><polygon points="667.11 853.78 695.87 812.83 667.11 771.88 638.35 812.83 667.11 853.78" style="fill:#a4203a;"/></g></svg>