<svg xmlns="http://www.w3.org/2000/svg" width="80" height="112" fill="none"><rect width="80" height="112" fill="#fff" rx="5"/><path fill="#DC3059" d="M4.5 14.116h2.21V28h2.86V9.8H7.644c-.442 1.222-.936 2.288-3.146 2.288v2.028ZM15.666 13.986c0-1.3.572-1.794 1.482-1.794s1.482.494 1.482 1.794v9.828c0 1.3-.572 1.794-1.482 1.794s-1.482-.494-1.482-1.794v-9.828Zm-2.86 9.646c0 2.912 1.534 4.576 4.342 4.576s4.342-1.664 4.342-4.576v-9.464c0-2.912-1.534-4.576-4.342-4.576s-4.342 1.664-4.342 4.576v9.464ZM12.057 36.667l5.276 7.295-5.39 7.371-5.276-7.295 5.39-7.371ZM40.085 45 48 55.943 39.915 67 32 56.057 40.085 45ZM75.5 97.884h-2.21V84h-2.86v18.2h1.925c.442-1.222.936-2.288 3.146-2.288v-2.028ZM64.334 98.014c0 1.3-.572 1.794-1.482 1.794s-1.482-.494-1.482-1.794v-9.828c0-1.3.572-1.794 1.482-1.794s1.482.494 1.482 1.794v9.828Zm2.86-9.646c0-2.912-1.534-4.576-4.342-4.576s-4.342 1.664-4.342 4.576v9.464c0 2.912 1.534 4.576 4.342 4.576s4.342-1.664 4.342-4.576v-9.464ZM67.943 75.333l-5.276-7.295 5.39-7.371 5.276 7.295-5.39 7.371Z"/></svg>