<svg xmlns="http://www.w3.org/2000/svg" width="80" height="112" fill="none"><rect width="80" height="112" fill="#fff" rx="5"/><path fill="#DC3059" d="M4.5 14.116h2.21V28h2.86V9.8H7.644c-.442 1.222-.936 2.288-3.146 2.288v2.028ZM15.666 13.986c0-1.3.572-1.794 1.482-1.794s1.482.494 1.482 1.794v9.828c0 1.3-.572 1.794-1.482 1.794s-1.482-.494-1.482-1.794v-9.828Zm-2.86 9.646c0 2.912 1.534 4.576 4.342 4.576s4.342-1.664 4.342-4.576v-9.464c0-2.912-1.534-4.576-4.342-4.576s-4.342 1.664-4.342 4.576v9.464ZM17.002 39.107c1.33 1.475 1.33 3.868 0 5.344L12 50l-5.002-5.55c-1.33-1.475-1.33-3.868 0-5.343 1.33-1.476 3.487-1.476 4.817 0l.185.205.185-.205c1.33-1.476 3.487-1.476 4.817 0ZM47.504 48.66c1.995 2.214 1.995 5.802 0 8.016L40 65l-7.504-8.324c-1.995-2.214-1.995-5.802 0-8.016 1.996-2.213 5.23-2.213 7.226 0l.278.308.278-.308c1.995-2.213 5.23-2.213 7.226 0ZM75.5 97.884h-2.21V84h-2.86v18.2h1.925c.442-1.222.936-2.288 3.146-2.288v-2.028ZM64.334 98.014c0 1.3-.572 1.794-1.482 1.794s-1.482-.494-1.482-1.794v-9.828c0-1.3.572-1.794 1.482-1.794s1.482.494 1.482 1.794v9.828Zm2.86-9.646c0-2.912-1.534-4.576-4.342-4.576s-4.342 1.664-4.342 4.576v9.464c0 2.912 1.534 4.576 4.342 4.576s4.342-1.664 4.342-4.576v-9.464ZM62.998 72.893c-1.33-1.475-1.33-3.868 0-5.344L68 62l5.002 5.55c1.33 1.475 1.33 3.868 0 5.343-1.33 1.476-3.486 1.476-4.817 0L68 72.688l-.185.205c-1.33 1.476-3.487 1.476-4.817 0Z"/></svg>