<?xml version="1.0" encoding="UTF-8"?><svg xmlns="http://www.w3.org/2000/svg" viewBox="0 0 750 1050"><g id="uuid-e5655c1f-70e2-4d2e-8741-392e022b2a48"><rect width="750" height="1049.95" rx="44.82" ry="44.82" style="fill:#fff;"/></g><g id="uuid-a8cd9049-af11-493b-aa5d-af0f2c912f39"><g><path d="M464.13,440.46c0-10.15-4.4-15.22-13.2-15.22h-.27c-8.71,0-13.07,5.08-13.07,15.22v161.67c0,7.95,2.71,12.77,8.11,14.49l18.43-29.55v-146.62Z" style="fill:#a4203a;"/><path d="M508.99,335.43c-44.18-27.04-104.9-14.97-133.97,28.83-29.07-43.8-89.81-56.98-133.99-29.94-44.81,27.42-58.25,86.41-29.97,131.75h.06l72.6,116.4v-153.05h-35.7v-42.98h80.57v226.74h35.7v42.98h-34.6l45.33,72.68v1.11l46.59-74.69c-19.24-8.07-28.88-25.77-28.88-53.12v-161.67c0-38.89,19.35-58.34,58.07-58.34s58.2,19.45,58.2,58.34v74.69l29.92-47.98h.02c28.28-45.34,14.87-104.33-29.95-131.75Z" style="fill:#a4203a;"/></g><g><polygon points="51.75 95.23 71.83 89.85 71.83 53.54 35.77 53.54 35.77 72.78 51.75 72.78 51.75 95.23" style="fill:#a4203a;"/><polygon points="71.83 103.31 51.75 108.69 51.75 155.03 35.77 155.03 35.77 174.27 87.81 174.27 87.81 155.03 71.83 155.03 71.83 103.31" style="fill:#a4203a;"/></g><g><path d="M110.74,79.43v-1.7c0-4.54,1.95-6.81,5.85-6.81h.12c3.49,0,5.43,1.79,5.83,5.36l19.65-5.26c-2.07-12.91-10.57-19.39-25.53-19.39-17.33,0-25.99,8.7-25.99,26.11v7.08l20.08-5.38Z" style="fill:#a4203a;"/><path d="M122.62,89.7v60.39c0,4.54-1.99,6.81-5.97,6.81s-5.91-2.27-5.91-6.81v-57.2l-20.08,5.38v51.82c0,17.37,8.66,26.05,25.99,26.05s26.05-8.68,26.05-26.05V84.32l-20.08,5.38Z" style="fill:#a4203a;"/></g><path d="M110.57,204.89c-9.1-5.4-21.6-2.99-27.59,5.76v-.22c-5.99-8.75-18.5-11.16-27.6-5.76-9.23,5.48-12,17.26-6.17,26.32l33.77-20.04-33.75,20.04,33.75,52.49v.22l33.75-52.49-33.75-20.04,33.76,20.04c5.82-9.06,3.06-20.84-6.17-26.32" style="fill:#a4203a;"/><g><polygon points="698.25 954.77 678.17 960.15 678.17 996.46 714.23 996.46 714.23 977.22 698.25 977.22 698.25 954.77" style="fill:#a4203a;"/><polygon points="678.17 946.69 698.25 941.31 698.25 894.97 714.23 894.97 714.23 875.73 662.19 875.73 662.19 894.97 678.17 894.97 678.17 946.69" style="fill:#a4203a;"/></g><g><path d="M639.26,970.57v1.7c0,4.54-1.95,6.81-5.85,6.81h-.12c-3.49,0-5.43-1.79-5.83-5.36l-19.65,5.26c2.07,12.91,10.57,19.39,25.53,19.39,17.33,0,25.99-8.7,25.99-26.11v-7.08l-20.08,5.38Z" style="fill:#a4203a;"/><path d="M627.38,960.3v-60.39c0-4.54,1.99-6.81,5.97-6.81s5.91,2.27,5.91,6.81v57.2l20.08-5.38v-51.82c0-17.37-8.66-26.05-25.99-26.05s-26.05,8.68-26.05,26.05v65.77l20.08-5.38Z" style="fill:#a4203a;"/></g><path d="M639.43,845.11c9.1,5.4,21.6,2.99,27.59-5.76v.22c5.99,8.75,18.5,11.16,27.6,5.76,9.23-5.48,12-17.26,6.17-26.32l-33.77,20.04,33.75-20.04-33.75-52.49v-.22l-33.75,52.49,33.75,20.04-33.76-20.04c-5.82,9.06-3.06,20.84,6.17,26.32" style="fill:#a4203a;"/></g></svg>