<svg xmlns="http://www.w3.org/2000/svg" viewBox="0 0 750 1050">
  <defs>
    <clipPath id="a">
      <path style="fill:none" d="M-36-36h822v1122H-36z"/>
    </clipPath>
  </defs>
  <rect width="750" height="1049.95" rx="44.82" style="fill:#fff" data-name="Ebene 2"/>
  <g data-name="Ebene 1 Kopie 2">
    <g style="clip-path:url(#a)">
      <path d="M98.54 165.5c-7-4.16-16.61-2.3-21.22 4.43v-.17c-4.6-6.73-14.23-8.59-21.23-4.43a14.34 14.34 0 0 0-4.74 20.25l26-15.42-26 15.42 26 40.38v.17l26-40.38-26-15.42 26 15.42a14.35 14.35 0 0 0-4.75-20.25M651.46 884.5c7 4.16 16.61 2.3 21.22-4.43v.17c4.6 6.73 14.23 8.59 21.23 4.43a14.34 14.34 0 0 0 4.74-20.25l-26 15.42 26-15.42-26-40.38v-.17l-26 40.38 26 15.42-26-15.42a14.35 14.35 0 0 0 4.75 20.25" style="fill:#a4203a"/>
    </g>
    <path style="fill:#a4203a" d="m53.73 85.17 15.45-4.14V53.1H41.44v14.79h12.29v17.28zM69.18 91.38l-15.45 4.14v35.65H41.44v14.79h40.03v-14.79H69.18V91.38zM696.27 964.83l-15.45 4.14v27.93h27.74v-14.79h-12.29v-17.28zM680.82 958.62l15.45-4.14v-35.65h12.29v-14.79h-40.03v14.79h12.29v39.79zM99.11 73v-1.3c0-3.5 1.5-5.24 4.5-5.24h.09c2.69 0 4.18 1.38 4.48 4.12l15.12-4q-2.4-14.91-19.64-14.92-20 0-20 20.09v5.45ZM108.25 80.91v46.45c0 3.5-1.53 5.24-4.59 5.24s-4.55-1.74-4.55-5.24v-44L83.66 87.5v39.86q0 20 20 20t20-20V76.77ZM650.89 977v1.31q0 5.24-4.5 5.24h-.09c-2.69 0-4.18-1.38-4.48-4.12l-15.12 4.05q2.4 14.91 19.64 14.92 20 0 20-20.09v-5.45ZM641.75 969.09v-46.45c0-3.5 1.53-5.24 4.59-5.24s4.55 1.74 4.55 5.24v44l15.45-4.14v-39.86q0-20-20-20t-20 20v50.59ZM443.48 460.08q0-11.7-10.14-11.7h-.21q-10 0-10 11.7v124.21q0 9.16 6.23 11.14l14.16-22.7Z"/>
    <path d="M478 379.37c-34-20.78-80.65-11.5-103 22.15-22.34-33.65-69-43.78-103-23-34.43 21.07-44.75 66.39-23 101.23l55.79 89.43V451.59h-27.36v-33h61.91v174.19h27.43v33h-26.59L375 681.65v.85l35.79-57.39q-22.18-9.3-22.19-40.82V460.08q0-44.83 44.61-44.83T478 460.08v57.38l23-36.86c21.69-34.84 11.38-80.16-23-101.23Z" style="fill:#a4203a"/>
  </g>
</svg>
