<svg xmlns="http://www.w3.org/2000/svg" xmlns:xlink="http://www.w3.org/1999/xlink" viewBox="0 0 750 1050"><defs><style>.cls-1{fill:none;}.cls-2{fill:#fff;}.cls-3{clip-path:url(#clip-path);}.cls-4{fill:#a4203a;}</style><clipPath id="clip-path"><rect class="cls-1" x="-36" y="-36" width="822" height="1122"/></clipPath></defs><g id="Ebene_2" data-name="Ebene 2"><rect class="cls-2" width="750" height="1049.95" rx="44.82"/></g><g id="Ebene_1_Kopie_2" data-name="Ebene 1 Kopie 2"><g class="cls-3"><path class="cls-4" d="M98.54,165.5c-7-4.16-16.61-2.3-21.22,4.43v-.17c-4.6-6.73-14.23-8.59-21.23-4.43a14.34,14.34,0,0,0-4.74,20.25l26-15.42-26,15.42,26,40.38v.17l26-40.38-26-15.42,26,15.42a14.35,14.35,0,0,0-4.75-20.25"/><path class="cls-4" d="M651.46,884.5c7,4.16,16.61,2.3,21.22-4.43v.17c4.6,6.73,14.23,8.59,21.23,4.43a14.34,14.34,0,0,0,4.74-20.25l-26,15.42,26-15.42-26-40.38v-.17l-26,40.38,26,15.42-26-15.42a14.35,14.35,0,0,0,4.75,20.25"/></g><polygon class="cls-4" points="53.73 85.17 69.18 81.03 69.18 53.1 41.44 53.1 41.44 67.89 53.73 67.89 53.73 85.17"/><polygon class="cls-4" points="69.18 91.38 53.73 95.52 53.73 131.17 41.44 131.17 41.44 145.96 81.47 145.96 81.47 131.17 69.18 131.17 69.18 91.38"/><polygon class="cls-4" points="696.27 964.83 680.82 968.97 680.82 996.9 708.56 996.9 708.56 982.11 696.27 982.11 696.27 964.83"/><polygon class="cls-4" points="680.82 958.62 696.27 954.48 696.27 918.83 708.56 918.83 708.56 904.04 668.53 904.04 668.53 918.83 680.82 918.83 680.82 958.62"/><path class="cls-4" d="M99.11,73V71.7c0-3.5,1.5-5.24,4.5-5.24h.09c2.69,0,4.18,1.38,4.48,4.12l15.12-4q-2.4-14.91-19.64-14.92-20,0-20,20.09v5.45Z"/><path class="cls-4" d="M108.25,80.91v46.45c0,3.5-1.53,5.24-4.59,5.24s-4.55-1.74-4.55-5.24v-44L83.66,87.5v39.86q0,20,20,20t20-20V76.77Z"/><path class="cls-4" d="M650.89,977v1.31q0,5.24-4.5,5.24h-.09c-2.69,0-4.18-1.38-4.48-4.12l-15.12,4.05q2.4,14.91,19.64,14.92,20,0,20-20.09v-5.45Z"/><path class="cls-4" d="M641.75,969.09V922.64c0-3.5,1.53-5.24,4.59-5.24s4.55,1.74,4.55,5.24v44l15.45-4.14V922.64q0-20-20-20t-20,20v50.59Z"/><path class="cls-4" d="M443.48,460.08q0-11.7-10.14-11.7h-.21q-10,0-10,11.7V584.29q0,9.16,6.23,11.14l14.16-22.7Z"/><path class="cls-4" d="M478,379.37C444,358.59,397.35,367.87,375,401.52c-22.34-33.65-69-43.78-103-23-34.43,21.07-44.75,66.39-23,101.23h0l55.79,89.43V451.59H277.43v-33h61.91V592.78h27.43v33H340.18L375,681.65v.85l35.79-57.39q-22.18-9.3-22.19-40.82V460.08q0-44.83,44.61-44.83T478,460.08v57.38l23-36.86h0C522.69,445.76,512.38,400.44,478,379.37Z"/></g></svg>