<svg xmlns="http://www.w3.org/2000/svg" xmlns:xlink="http://www.w3.org/1999/xlink" viewBox="0 0 750 1050"><defs><style>.cls-1{fill:none;}.cls-2{fill:#fff;}.cls-3{fill:#282c44;}.cls-4{clip-path:url(#clip-path);}</style><clipPath id="clip-path"><rect class="cls-1" x="-36" y="-36" width="822" height="1122"/></clipPath></defs><g id="Ebene_2" data-name="Ebene 2"><rect class="cls-2" width="750" height="1049.95" rx="44.82"/></g><g id="Ebene_1_Kopie_2" data-name="Ebene 1 Kopie 2"><path class="cls-3" d="M288.39,599.92h25.88V466.71h-5.33L270.84,524l0,0c-17.62,26.52-9.73,60.85,17.51,77.54Z"/><path class="cls-3" d="M433,591.91V474.72q0-11-9.57-11h-.2q-9.47,0-9.47,11V591.91q0,11,9.57,11T433,591.91Z"/><path class="cls-3" d="M381.28,591.91V474.72q0-39.42,36.58-42.08l-42.93-64.48v-.66l-45.27,68.06h17.13V599.92h25.87v31.15H345L331.19,682.5h87.49l-13.72-51Q381.28,623.56,381.28,591.91Z"/><path class="cls-3" d="M479.13,524.66l-13.57-20.39v87.64a72,72,0,0,1-.43,8C489.48,582.46,496,550,479.13,524.66Z"/><g class="cls-4"><path class="cls-3" d="M98.12,194.43,80.31,204.65h0L98.1,194.43l-20.8-31.3V163L56.51,194.3h0A10.92,10.92,0,0,0,60.31,210a13.34,13.34,0,0,0,12.47.32L68.56,226H86l-4.16-15.5a13.49,13.49,0,0,0,12.43-.38,10.91,10.91,0,0,0,3.81-15.69"/><path class="cls-3" d="M651.88,855.57l17.81-10.22h0L651.9,855.57l20.8,31.3V887l20.79-31.3h0a10.92,10.92,0,0,0-3.8-15.69,13.34,13.34,0,0,0-12.47-.32L681.44,824H664l4.16,15.5a13.49,13.49,0,0,0-12.43.38,10.91,10.91,0,0,0-3.81,15.69"/></g><polygon class="cls-3" points="53.73 85.17 69.18 81.03 69.18 53.1 41.44 53.1 41.44 67.89 53.73 67.89 53.73 85.17"/><polygon class="cls-3" points="69.18 91.38 53.73 95.52 53.73 131.17 41.44 131.17 41.44 145.96 81.47 145.96 81.47 131.17 69.18 131.17 69.18 91.38"/><polygon class="cls-3" points="680.82 958.62 696.27 954.48 696.27 918.83 708.56 918.83 708.56 904.04 668.53 904.04 668.53 918.83 680.82 918.83 680.82 958.62"/><polygon class="cls-3" points="696.27 964.83 680.82 968.97 680.82 996.9 708.56 996.9 708.56 982.11 696.27 982.11 696.27 964.83"/><path class="cls-3" d="M99.11,73V71.7c0-3.5,1.5-5.24,4.5-5.24h.09c2.69,0,4.18,1.38,4.48,4.12l15.12-4q-2.4-14.91-19.64-14.92-20,0-20,20.09v5.45Z"/><path class="cls-3" d="M108.25,80.91v46.45c0,3.5-1.53,5.24-4.59,5.24s-4.55-1.74-4.55-5.24v-44L83.66,87.5v39.86q0,20,20,20t20-20V76.77Z"/><path class="cls-3" d="M641.75,969.09V922.64c0-3.5,1.53-5.24,4.59-5.24s4.55,1.74,4.55,5.24v44l15.45-4.14V922.64q0-20-20-20t-20,20v50.59Z"/><path class="cls-3" d="M650.89,977v1.31c0,3.5-1.5,5.24-4.5,5.24h-.09c-2.69,0-4.18-1.38-4.48-4.12l-15.12,4.05q2.4,14.91,19.64,14.92,20,0,20-20.09v-5.45Z"/></g></svg>