<?xml version="1.0" encoding="UTF-8"?><svg xmlns="http://www.w3.org/2000/svg" viewBox="0 0 750 1050"><g id="uuid-088a013d-d728-4b4a-87a8-047a728172f3"><rect width="750" height="1049.95" rx="44.82" ry="44.82" style="fill:#fff;"/></g><g id="uuid-5002a01e-c496-4155-9323-ec9be8d728d9"><g><path d="M262.4,622.39h33.64v-173.16h-6.92l-49.53,74.47,.05,.03c-22.91,34.47-12.65,79.1,22.76,100.8v-2.13Z" style="fill:#282c44;"/><path d="M450.45,611.98v-152.34c0-9.56-4.15-14.35-12.44-14.35h-.25c-8.21,0-12.31,4.78-12.31,14.35v152.34c0,9.57,4.15,14.35,12.44,14.35s12.57-4.78,12.57-14.35Z" style="fill:#282c44;"/><path d="M383.16,611.98v-152.34c0-34.16,15.86-52.39,47.56-54.71l-55.81-83.82v-.86l-58.85,88.48h22.26v213.66h33.64v40.5h-35.94l-17.98,66.86h113.73l-17.83-66.35c-20.52-6.85-30.79-23.99-30.79-51.42Z" style="fill:#282c44;"/><path d="M510.37,524.56l-17.64-26.5v113.93c0,3.63-.19,7.08-.55,10.35,31.66-22.63,40.09-64.85,18.19-97.77Z" style="fill:#282c44;"/></g><g><polygon points="51.75 95.23 71.83 89.85 71.83 53.54 35.77 53.54 35.77 72.78 51.75 72.78 51.75 95.23" style="fill:#282c44;"/><polygon points="71.83 103.31 51.75 108.69 51.75 155.03 35.77 155.03 35.77 174.27 87.81 174.27 87.81 155.03 71.83 155.03 71.83 103.31" style="fill:#282c44;"/></g><g><path d="M110.74,79.43v-1.7c0-4.54,1.95-6.81,5.85-6.81h.12c3.49,0,5.43,1.79,5.83,5.36l19.65-5.26c-2.07-12.91-10.57-19.39-25.53-19.39-17.33,0-25.99,8.7-25.99,26.11v7.08l20.08-5.38Z" style="fill:#282c44;"/><path d="M122.62,89.7v60.39c0,4.54-1.99,6.81-5.97,6.81s-5.91-2.27-5.91-6.81v-57.2l-20.08,5.38v51.82c0,17.37,8.66,26.05,25.99,26.05s26.05-8.68,26.05-26.05V84.32l-20.08,5.38Z" style="fill:#282c44;"/></g><path d="M110.02,242.67l-23.15,13.29h0s23.13-13.29,23.13-13.29l-27.04-40.69v-.17l-27.04,40.69h.01c-4.66,7.03-2.45,16.16,4.94,20.4,5.02,2.88,11.19,2.89,16.21,.41l-5.48,20.4h22.72l-5.41-20.15c4.99,2.4,11.2,2.36,16.16-.49,7.39-4.25,9.62-13.38,4.95-20.4" style="fill:#282c44;"/></g></svg>