<svg xmlns="http://www.w3.org/2000/svg" viewBox="0 0 750 1050">
  <defs>
    <clipPath id="clip-path">
      <path style="fill:none" d="M-36-36h822v1122H-36z"/>
    </clipPath>
    <style>
      .cls-3{fill:#282c44}
    </style>
  </defs>
  <rect width="750" height="1049.95" rx="44.82" style="fill:#fff" id="Ebene_2" data-name="Ebene 2"/>
  <g id="Ebene_1_Kopie_2" data-name="Ebene 1 Kopie 2">
    <path class="cls-3" d="M288.39 599.92h25.88V466.71h-5.33L270.84 524c-17.62 26.52-9.73 60.85 17.51 77.54ZM433 591.91V474.72q0-11-9.57-11h-.2q-9.47 0-9.47 11v117.19q0 11 9.57 11t9.67-11Z"/>
    <path class="cls-3" d="M381.28 591.91V474.72q0-39.42 36.58-42.08l-42.93-64.48v-.66l-45.27 68.06h17.13v164.36h25.87v31.15H345l-13.81 51.43h87.49l-13.72-51q-23.68-7.94-23.68-39.59Zm97.85-67.25-13.57-20.39v87.64a72 72 0 0 1-.43 8c24.35-17.45 30.87-49.91 14-75.25Z"/>
    <path class="cls-3" d="m98.12 194.43-17.81 10.22 17.79-10.22-20.8-31.3V163l-20.79 31.3a10.92 10.92 0 0 0 3.8 15.7 13.34 13.34 0 0 0 12.47.32L68.56 226H86l-4.16-15.5a13.49 13.49 0 0 0 12.43-.38 10.91 10.91 0 0 0 3.81-15.69m553.8 661.14 17.81-10.22-17.79 10.22 20.8 31.3v.13l20.79-31.3a10.92 10.92 0 0 0-3.8-15.69 13.34 13.34 0 0 0-12.47-.32l4.22-15.69H664l4.16 15.5a13.49 13.49 0 0 0-12.43.38 10.91 10.91 0 0 0-3.81 15.69" style="clip-path:url(#clip-path)"/>
    <path class="cls-3" d="m53.73 85.17 15.45-4.14V53.1H41.44v14.79h12.29v17.28zm15.45 6.21-15.45 4.14v35.65H41.44v14.79h40.03v-14.79H69.18V91.38zm611.64 867.24 15.45-4.14v-35.65h12.29v-14.79h-40.03v14.79h12.29v39.79zm15.45 6.21-15.45 4.14v27.93h27.74v-14.79h-12.29v-17.28zM99.11 73v-1.3c0-3.5 1.5-5.24 4.5-5.24h.09c2.69 0 4.18 1.38 4.48 4.12l15.12-4q-2.4-14.91-19.64-14.92-20 0-20 20.09v5.45Zm9.14 7.91v46.45c0 3.5-1.53 5.24-4.59 5.24s-4.55-1.74-4.55-5.24v-44L83.66 87.5v39.86q0 20 20 20t20-20V76.77Zm533.5 888.18v-46.45c0-3.5 1.53-5.24 4.59-5.24s4.55 1.74 4.55 5.24v44l15.45-4.14v-39.86q0-20-20-20t-20 20v50.59Zm9.14 7.91v1.31c0 3.5-1.5 5.24-4.5 5.24h-.09c-2.69 0-4.18-1.38-4.48-4.12l-15.12 4.05q2.4 14.91 19.64 14.92 20 0 20-20.09v-5.45Z"/>
  </g>
</svg>
