<?xml version="1.0" encoding="UTF-8"?><svg xmlns="http://www.w3.org/2000/svg" viewBox="0 0 750 1050"><g id="uuid-752a82ff-769b-4b15-9da3-5ebdb120fe65"><rect width="750" height="1049.95" rx="44.82" ry="44.82" style="fill:#fff;"/></g><g id="uuid-bb0d3c77-1609-4b11-a867-fc3edc0e337e"><g><path d="M316.93,466.09v-24.66c0-38.84,19.33-58.27,58-58.27s58.13,19.42,58.13,58.27v25.41c15.78-15.25,25.74-36.79,26-60.78,.52-46.86-36.09-85.27-81.76-85.8-45.67-.53-86.03,38.22-86.55,85.08-.27,24,9.98,45.45,26.17,60.75Z" style="fill:#282c44;"/><path d="M316.93,597.53c0-24.58,12.25-45.62,36.74-63.11,22.97-16.42,34.49-30.14,34.58-41.18v-51.81c0-10.14-4.35-15.21-13.05-15.21h-.27c-8.79,0-13.19,5.07-13.19,15.21v38.08h-44.81v-6.78c-8.65-3.08-17.85-4.82-27.28-4.93-45.67-.53-86.03,38.22-86.55,85.08-.52,46.86,39,84.07,84.67,84.6,10.07,.12,19.92-1.62,29.15-4.9v-35.05Z" style="fill:#282c44;"/><path d="M465.14,467.81c-10.98-.13-21.86,2.03-32.07,6.01v20.36c0,25.03-12.29,46.34-36.87,63.92-22.97,16.42-34.45,30.64-34.45,42.66v13.19h40.08l-.5-1.87c.68,.64,1.38,1.25,2.08,1.87h29.67v17.81c9.61,3.58,19.84,5.61,30.19,5.73,45.67,.53,83.12-37.03,83.63-83.88,.52-46.86-36.09-85.27-81.76-85.8Z" style="fill:#282c44;"/><polygon points="336.95 656.88 317.38 729.75 432.91 729.75 413.35 656.88 336.95 656.88" style="fill:#282c44;"/></g><g><path d="M78.07,88.56v-13.26c0-4.54,1.97-6.81,5.91-6.81h.12c3.9,0,5.85,2.27,5.85,6.81v10.07l20.08-5.38v-4.69c0-17.41-8.68-26.11-26.05-26.11s-25.99,8.71-25.99,26.11v17.07h5.86l14.21-3.81Z" style="fill:#282c44;"/><path d="M93.51,127.59c11.02-7.88,16.52-17.43,16.52-28.64v-5.49l-20.1,5.39c-.25,4.89-5.4,10.93-15.48,18.13-10.97,7.84-16.46,17.27-16.46,28.28v26.59h52.04v-19.24h-31.96v-5.91c0-5.39,5.15-11.76,15.44-19.12Z" style="fill:#282c44;"/></g><path d="M101.85,229.36c-3.12-.04-6.2,.85-8.91,2.4l-.29-.42c4.73-2.94,7.92-8.24,7.98-14.33,.1-9.37-7.22-17.05-16.35-17.16-9.14-.11-17.21,7.64-17.31,17.02-.07,6.09,3.25,11.36,8.08,14.34l-.22,.33c-2.44-1.35-5.2-2.13-8.08-2.17-9.14-.11-17.21,7.64-17.31,17.02-.1,9.37,7.8,16.81,16.93,16.92,4.61,.05,8.98-1.84,12.2-4.92l-6.28,23.38h23.11l-6.32-23.53c3.29,3.1,7.78,5.03,12.39,5.08,9.13,.11,16.62-7.4,16.73-16.78,.1-9.37-7.22-17.05-16.35-17.16" style="fill:#282c44;"/><g><path d="M671.93,960.7v13.26c0,4.54-1.97,6.81-5.91,6.81h-.12c-3.9,0-5.85-2.27-5.85-6.81v-10.07l-20.08,5.38v4.69c0,17.41,8.68,26.11,26.05,26.11s25.99-8.71,25.99-26.11v-17.07h-5.86l-14.21,3.81Z" style="fill:#282c44;"/><path d="M656.49,921.68c-11.02,7.88-16.52,17.43-16.52,28.64v5.49l20.1-5.39c.25-4.89,5.4-10.93,15.48-18.13,10.97-7.84,16.46-17.27,16.46-28.28v-26.59h-52.04v19.24h31.96v5.91c0,5.39-5.15,11.76-15.44,19.12Z" style="fill:#282c44;"/></g><path d="M648.15,819.9c3.12,.04,6.2-.85,8.91-2.4l.29,.42c-4.73,2.94-7.92,8.24-7.98,14.33-.1,9.37,7.22,17.05,16.35,17.16,9.14,.11,17.21-7.64,17.31-17.02,.07-6.09-3.25-11.36-8.08-14.34l.22-.33c2.44,1.35,5.2,2.13,8.08,2.17,9.14,.11,17.21-7.64,17.31-17.02,.1-9.37-7.8-16.81-16.93-16.92-4.61-.05-8.98,1.84-12.2,4.92l6.28-23.38h-23.11l6.32,23.53c-3.29-3.1-7.78-5.03-12.39-5.08-9.13-.11-16.62,7.4-16.73,16.78-.1,9.37,7.22,17.05,16.35,17.16" style="fill:#282c44;"/></g></svg>