<svg xmlns="http://www.w3.org/2000/svg" viewBox="0 0 750 1050">
  <defs>
    <clipPath id="clip-path">
      <path style="fill:none" d="M-36-36h822v1122H-36z"/>
    </clipPath>
    <style>
      .cls-4{fill:#282c44}
    </style>
  </defs>
  <rect width="750" height="1049.95" rx="44.82" style="fill:#fff" id="Ebene_2" data-name="Ebene 2"/>
  <g id="Ebene_1_Kopie_2" data-name="Ebene 1 Kopie 2">
    <path class="cls-4" d="M90.78 185.83a13.53 13.53 0 0 0-6.85 1.84l-.22-.32a13.1 13.1 0 0 0 6.14-11 12.9 12.9 0 0 0-12.58-13.2A13.42 13.42 0 0 0 64 176.22a12.82 12.82 0 0 0 6.21 11l-.17.25a13.15 13.15 0 0 0-6.21-1.66 13.42 13.42 0 0 0-13.32 13.09 13.12 13.12 0 0 0 13 13 13.38 13.38 0 0 0 9.38-3.79l-4.83 18h17.77L81 208a14.29 14.29 0 0 0 9.53 3.91 13.06 13.06 0 0 0 .28-26.1m568.41 678.36a13.53 13.53 0 0 0 6.85-1.84l.22.32a13.1 13.1 0 0 0-6.14 11 12.9 12.9 0 0 0 12.58 13.2A13.42 13.42 0 0 0 686 873.78a12.82 12.82 0 0 0-6.21-11l.17-.25a13.15 13.15 0 0 0 6.21 1.66 13.42 13.42 0 0 0 13.32-13.09 13.12 13.12 0 0 0-13-13 13.38 13.38 0 0 0-9.38 3.79l4.83-18h-17.77L669 842a14.29 14.29 0 0 0-9.53-3.91 13.06 13.06 0 0 0-.28 26.1" style="clip-path:url(#clip-path)"/>
    <path class="cls-4" d="M330.33 479.68v-19q0-44.82 44.62-44.83t44.72 44.83v19.54a65.88 65.88 0 0 0 20-46.75c.4-36.05-27.76-65.6-62.89-66S310.6 396.91 310.2 433a63.16 63.16 0 0 0 20.13 46.68Z"/>
    <path class="cls-4" d="M330.33 580.79q0-28.35 28.26-48.54 26.51-18.94 26.61-31.68v-39.85q0-11.7-10-11.7h-.2q-10.15 0-10.15 11.7V490h-34.52v-5.2a64.91 64.91 0 0 0-21-3.8c-35.13-.4-66.18 29.41-66.58 65.45s30 64.67 65.14 65.08a64.75 64.75 0 0 0 22.42-3.77Zm114-99.79a65.88 65.88 0 0 0-24.66 4.63v15.66q0 28.89-28.37 49.17-26.49 18.94-26.5 32.82v10.14h30.83l-.38-1.44c.52.5 1.06 1 1.6 1.44h22.82v13.7a68.69 68.69 0 0 0 23.22 4.41c35.13.41 63.94-28.48 64.34-64.52s-27.76-65.6-62.9-66.01Zm-98.6 145.45-15.05 56.05h88.87l-15.05-56.05h-58.77zM75 79.48v-10.2Q75 64 79.52 64h.09q4.5 0 4.5 5.24V77l15.45-4.14v-3.58q0-20.08-20-20.09t-20 20.09v13.13H64Zm11.85 30.02q12.7-9.09 12.71-22v-4.26l-15.47 4.14q-.28 5.66-11.9 14-12.66 9-12.66 21.76v20.45h40v-14.84H75v-4.55q0-6.2 11.85-14.7Zm576.3 831q-12.71 9.09-12.71 22v4.22l15.47-4.14q.29-5.65 11.9-14 12.66-9 12.66-21.76v-20.36h-40v14.79H675v4.55q0 6.2-11.85 14.7ZM675 970.52v10.2q0 5.24-4.55 5.24h-.09q-4.5 0-4.5-5.24V973l-15.45 4.14v3.61q0 20.09 20 20.09t20-20.09v-13.16H686Z"/>
  </g>
</svg>
