<svg xmlns="http://www.w3.org/2000/svg" xmlns:xlink="http://www.w3.org/1999/xlink" viewBox="0 0 750 1050"><defs><style>.cls-1{fill:none;}.cls-2{fill:#fff;}.cls-3{clip-path:url(#clip-path);}.cls-4{fill:#282c44;}</style><clipPath id="clip-path"><rect class="cls-1" x="-36" y="-36" width="822" height="1122"/></clipPath></defs><g id="Ebene_2" data-name="Ebene 2"><rect class="cls-2" width="750" height="1049.95" rx="44.82"/></g><g id="Ebene_1_Kopie_2" data-name="Ebene 1 Kopie 2"><g class="cls-3"><path class="cls-4" d="M90.78,185.83a13.53,13.53,0,0,0-6.85,1.84l-.22-.32a13.1,13.1,0,0,0,6.14-11,12.9,12.9,0,0,0-12.58-13.2A13.42,13.42,0,0,0,64,176.22a12.82,12.82,0,0,0,6.21,11l-.17.25a13.15,13.15,0,0,0-6.21-1.66,13.42,13.42,0,0,0-13.32,13.09,13.12,13.12,0,0,0,13,13,13.38,13.38,0,0,0,9.38-3.79l-4.83,18H85.83L81,208a14.29,14.29,0,0,0,9.53,3.91,13.06,13.06,0,0,0,.28-26.1"/><path class="cls-4" d="M659.22,864.17a13.53,13.53,0,0,0,6.85-1.84l.22.32a13.1,13.1,0,0,0-6.14,11,12.9,12.9,0,0,0,12.58,13.2A13.42,13.42,0,0,0,686,873.78a12.82,12.82,0,0,0-6.21-11l.17-.25a13.15,13.15,0,0,0,6.21,1.66,13.42,13.42,0,0,0,13.32-13.09,13.12,13.12,0,0,0-13-13,13.38,13.38,0,0,0-9.38,3.79l4.83-18H664.17L669,842a14.29,14.29,0,0,0-9.53-3.91,13.06,13.06,0,0,0-.28,26.1"/></g><path class="cls-4" d="M330.33,479.68v-19q0-44.82,44.62-44.83t44.72,44.83v19.54a65.88,65.88,0,0,0,20-46.75c.4-36.05-27.76-65.6-62.89-66S310.6,396.91,310.2,433A63.16,63.16,0,0,0,330.33,479.68Z"/><path class="cls-4" d="M330.33,580.79q0-28.35,28.26-48.54,26.51-18.94,26.61-31.68V460.72q0-11.7-10-11.7H375q-10.15,0-10.15,11.7V490H330.33V484.8a64.91,64.91,0,0,0-21-3.8c-35.13-.4-66.18,29.41-66.58,65.45s30,64.67,65.14,65.08a64.75,64.75,0,0,0,22.42-3.77Z"/><path class="cls-4" d="M444.33,481a65.88,65.88,0,0,0-24.66,4.63v15.66q0,28.89-28.37,49.17-26.49,18.94-26.5,32.82v10.14h30.83l-.38-1.44c.52.5,1.06,1,1.6,1.44h22.82v13.7a68.69,68.69,0,0,0,23.22,4.41c35.13.41,63.94-28.48,64.34-64.52S479.47,481.41,444.33,481Z"/><polygon class="cls-4" points="345.73 626.45 330.68 682.5 419.55 682.5 404.5 626.45 345.73 626.45"/><path class="cls-4" d="M75,79.48V69.28Q75,64,79.52,64h.09q4.5,0,4.5,5.24V77l15.45-4.14V69.28q0-20.08-20-20.09t-20,20.09V82.41H64Z"/><path class="cls-4" d="M86.85,109.5q12.7-9.09,12.71-22V83.24L84.09,87.38q-.28,5.66-11.9,14-12.66,9-12.66,21.76v20.45h40V128.75H75V124.2Q75,118,86.85,109.5Z"/><path class="cls-4" d="M663.15,940.5q-12.71,9.09-12.71,22v4.22l15.47-4.14q.29-5.65,11.9-14,12.66-9,12.66-21.76V906.46h-40v14.79H675v4.55Q675,932,663.15,940.5Z"/><path class="cls-4" d="M675,970.52v10.2q0,5.24-4.55,5.24h-.09q-4.5,0-4.5-5.24V973l-15.45,4.14v3.61q0,20.09,20,20.09t20-20.09V967.59H686Z"/></g></svg>