<svg xmlns="http://www.w3.org/2000/svg" width="80" height="112" fill="none"><rect width="80" height="112" fill="#fff" rx="5"/><path fill="#2C2833" d="M13.554 14.272c0 1.95-.624 3.38-2.808 5.694-2.132 2.236-2.86 3.77-2.86 5.798V28h8.268v-2.6h-5.408c-.026-.13-.026-.26-.026-.39 0-.962.468-1.82 2.158-3.64 2.652-2.834 3.536-4.784 3.536-7.202 0-2.912-1.456-4.576-4.264-4.576-2.808 0-4.264 1.664-4.264 4.576v1.768h2.704v-1.95c0-1.3.572-1.794 1.482-1.794s1.482.442 1.482 2.08Z"/><path fill="#2C2833" fill-rule="evenodd" d="M8.863 39.804a3.137 3.137 0 1 1 6.008 1.266 3.137 3.137 0 1 1-1.538 5.693v3.904h-2.666v-3.904a3.137 3.137 0 1 1-1.538-5.693 3.126 3.126 0 0 1-.266-1.266ZM35.294 49.706a4.706 4.706 0 1 1 9.013 1.899A4.706 4.706 0 1 1 42 60.145V66h-4v-5.855a4.706 4.706 0 1 1-2.307-8.54 4.69 4.69 0 0 1-.399-1.9Z" clip-rule="evenodd"/><path fill="#2C2833" d="M66.446 97.728c0-1.95.624-3.38 2.808-5.694 2.132-2.236 2.86-3.77 2.86-5.798V84h-8.268v2.6h5.408c.026.13.026.26.026.39 0 .962-.468 1.82-2.158 3.64-2.652 2.834-3.536 4.784-3.536 7.202 0 2.912 1.456 4.576 4.264 4.576 2.808 0 4.264-1.664 4.264-4.576v-1.768H69.41v1.95c0 1.3-.572 1.794-1.482 1.794s-1.482-.442-1.482-2.08Z"/><path fill="#2C2833" fill-rule="evenodd" d="M71.137 72.196a3.137 3.137 0 1 1-6.008-1.266 3.137 3.137 0 1 1 1.538-5.693v-3.904h2.666v3.904a3.137 3.137 0 1 1 1.538 5.693c.171.387.266.816.266 1.266Z" clip-rule="evenodd"/></svg>