<svg xmlns="http://www.w3.org/2000/svg" viewBox="0 0 750 1050"><defs><style>.cls-1{fill:#fff;}.cls-2{fill:#a4203a;}</style></defs><g id="Ebene_2" data-name="Ebene 2"><rect class="cls-1" width="750" height="1049.95" rx="44.82"/></g><g id="Ebene_1_Kopie_2" data-name="Ebene 1 Kopie 2"><polygon class="cls-2" points="77.32 163 55.2 194.5 77.32 226 99.44 194.5 77.32 163"/><polygon class="cls-2" points="672.68 887 694.8 855.5 672.68 824 650.56 855.5 672.68 887"/><polygon class="cls-2" points="353.06 651.25 375.01 682.5 396.95 651.25 353.06 651.25"/><path class="cls-2" d="M330.33,605.6q0-28.36,28.26-48.55,26.51-18.94,26.61-31.68V485.52q0-11.7-10-11.7H375q-10.15,0-10.15,11.7v29.29H330.33V485.52q0-44.82,44.62-44.82t44.72,44.82V526.1q0,28.88-28.37,49.17-26.49,18.94-26.5,32.81v10.15h54.87v.67L485.6,525,375,367.5,264.4,525l65.93,93.88Z"/><path class="cls-2" d="M75,79.48V69.28Q75,64,79.52,64h.09q4.5,0,4.5,5.24V77l15.45-4.14V69.28q0-20.08-20-20.09t-20,20.09V82.41H64Z"/><path class="cls-2" d="M86.85,109.5q12.7-9.09,12.71-22V83.24L84.09,87.38q-.28,5.66-11.9,14-12.66,9-12.66,21.76v20.45h40V128.75H75V124.2Q75,118,86.85,109.5Z"/><path class="cls-2" d="M663.15,940.5q-12.71,9.09-12.71,22v4.22l15.47-4.15q.29-5.64,11.9-13.94,12.66-9,12.66-21.76V906.46h-40v14.79H675v4.55Q675,932,663.15,940.5Z"/><path class="cls-2" d="M675,970.52v10.2c0,3.5-1.52,5.24-4.55,5.24h-.09c-3,0-4.5-1.74-4.5-5.24V973l-15.45,4.14v3.61q0,20.09,20,20.09t20-20.09V967.59H686Z"/></g></svg>