<svg xmlns="http://www.w3.org/2000/svg" width="80" height="112" fill="none"><rect width="80" height="112" fill="#fff" rx="5"/><path fill="#DC3059" d="M13.554 14.272c0 1.95-.624 3.38-2.808 5.694-2.132 2.236-2.86 3.77-2.86 5.798V28h8.268v-2.6h-5.408c-.026-.13-.026-.26-.026-.39 0-.962.468-1.82 2.158-3.64 2.652-2.834 3.536-4.784 3.536-7.202 0-2.912-1.456-4.576-4.264-4.576-2.808 0-4.264 1.664-4.264 4.576v1.768h2.704v-1.95c0-1.3.572-1.794 1.482-1.794s1.482.442 1.482 2.08ZM12.057 36.667l5.276 7.295-5.39 7.371-5.276-7.295 5.39-7.371ZM40.085 45 48 55.943 39.915 67 32 56.057 40.085 45ZM66.446 97.728c0-1.95.624-3.38 2.808-5.694 2.132-2.236 2.86-3.77 2.86-5.798V84h-8.268v2.6h5.408c.026.13.026.26.026.39 0 .962-.468 1.82-2.158 3.64-2.652 2.834-3.536 4.784-3.536 7.202 0 2.912 1.456 4.576 4.264 4.576 2.808 0 4.264-1.664 4.264-4.576v-1.768H69.41v1.95c0 1.3-.572 1.794-1.482 1.794s-1.482-.442-1.482-2.08ZM67.943 75.333l-5.276-7.295 5.39-7.371 5.276 7.295-5.39 7.371Z"/></svg>