<svg xmlns="http://www.w3.org/2000/svg" viewBox="0 0 750 1050">
  <rect width="750" height="1049.95" rx="44.82" style="fill:#fff" data-name="Ebene 2"/>
  <g data-name="Ebene 1 Kopie 2">
    <path style="fill:#a4203a" d="M77.32 163 55.2 194.5 77.32 226l22.12-31.5L77.32 163zM672.68 887l22.12-31.5-22.12-31.5-22.12 31.5 22.12 31.5zM353.06 651.25l21.95 31.25 21.94-31.25h-43.89zM330.33 605.6q0-28.36 28.26-48.55 26.51-18.94 26.61-31.68v-39.85q0-11.7-10-11.7h-.2q-10.15 0-10.15 11.7v29.29h-34.52v-29.29q0-44.82 44.62-44.82t44.72 44.82v40.58q0 28.88-28.37 49.17-26.49 18.94-26.5 32.81v10.15h54.87v.67L485.6 525 375 367.5 264.4 525l65.93 93.88ZM75 79.48v-10.2Q75 64 79.52 64h.09q4.5 0 4.5 5.24V77l15.45-4.14v-3.58q0-20.08-20-20.09t-20 20.09v13.13H64ZM86.85 109.5q12.7-9.09 12.71-22v-4.26l-15.47 4.14q-.28 5.66-11.9 14-12.66 9-12.66 21.76v20.45h40v-14.84H75v-4.55q0-6.2 11.85-14.7ZM663.15 940.5q-12.71 9.09-12.71 22v4.22l15.47-4.15q.29-5.64 11.9-13.94 12.66-9 12.66-21.76v-20.41h-40v14.79H675v4.55q0 6.2-11.85 14.7ZM675 970.52v10.2c0 3.5-1.52 5.24-4.55 5.24h-.09c-3 0-4.5-1.74-4.5-5.24V973l-15.45 4.14v3.61q0 20.09 20 20.09t20-20.09v-13.16H686Z"/>
  </g>
</svg>
