<?xml version="1.0" encoding="UTF-8"?><svg xmlns="http://www.w3.org/2000/svg" viewBox="0 0 750 1050"><g id="uuid-a4760d49-0a52-48da-bbdb-80ed39551bc7"><rect width="750" height="1049.95" rx="44.82" ry="44.82" style="fill:#fff;"/></g><g id="uuid-3e6b9dbf-216f-46ab-b49f-75da9035e27c"><g><polygon points="346.48 689.12 375.01 729.75 403.54 689.12 346.48 689.12" style="fill:#a4203a;"/><path d="M316.93,629.78c0-24.58,12.25-45.62,36.74-63.11,22.97-16.42,34.49-30.14,34.58-41.18v-51.81c0-10.14-4.35-15.21-13.05-15.21h-.27c-8.79,0-13.19,5.07-13.19,15.21v38.08h-44.81v-38.08c0-38.85,19.33-58.27,58-58.27s58.13,19.42,58.13,58.27v52.75c0,25.03-12.29,46.34-36.87,63.92-22.97,16.42-34.45,30.64-34.45,42.66v13.19h71.32v.88l85.72-122.07-143.77-204.75-143.8,204.75,85.72,122.05v-17.27Z" style="fill:#a4203a;"/></g><g><path d="M78.07,88.56v-13.26c0-4.54,1.97-6.81,5.91-6.81h.12c3.9,0,5.85,2.27,5.85,6.81v10.07l20.08-5.38v-4.69c0-17.41-8.68-26.11-26.05-26.11s-25.99,8.71-25.99,26.11v17.07h5.86l14.21-3.81Z" style="fill:#a4203a;"/><path d="M93.51,127.59c11.02-7.88,16.52-17.43,16.52-28.64v-5.49l-20.1,5.39c-.25,4.89-5.4,10.93-15.48,18.13-10.97,7.84-16.46,17.27-16.46,28.28v26.59h52.04v-19.24h-31.96v-5.91c0-5.39,5.15-11.76,15.44-19.12Z" style="fill:#a4203a;"/></g><polygon points="82.89 196.22 54.13 237.17 82.89 278.12 111.65 237.17 82.89 196.22" style="fill:#a4203a;"/><g><path d="M671.93,960.7v13.26c0,4.54-1.97,6.81-5.91,6.81h-.12c-3.9,0-5.85-2.27-5.85-6.81v-10.07l-20.08,5.38v4.69c0,17.41,8.68,26.11,26.05,26.11s25.99-8.71,25.99-26.11v-17.07h-5.86l-14.21,3.81Z" style="fill:#a4203a;"/><path d="M656.49,921.68c-11.02,7.88-16.52,17.43-16.52,28.64v5.49l20.1-5.39c.25-4.89,5.4-10.93,15.48-18.13,10.97-7.84,16.46-17.27,16.46-28.28v-26.59h-52.04v19.24h31.96v5.91c0,5.39-5.15,11.76-15.44,19.12Z" style="fill:#a4203a;"/></g><polygon points="667.11 853.78 695.87 812.83 667.11 771.88 638.35 812.83 667.11 853.78" style="fill:#a4203a;"/></g></svg>