<?xml version="1.0" encoding="UTF-8"?><svg xmlns="http://www.w3.org/2000/svg" viewBox="0 0 750 1050"><g id="uuid-13731d1c-37f4-4d3f-849a-456c28956731"><rect width="750" height="1049.95" rx="44.82" ry="44.82" style="fill:#fff;"/></g><g id="uuid-7247751a-675a-41f6-a431-39a20b77a4c8"><g><polygon points="407.26 678.03 343.47 678.03 375.02 728.61 375.02 729.71 407.26 678.03" style="fill:#a4203a;"/><path d="M508.83,335.64c-44.13-27.01-104.78-14.95-133.81,28.8-29.04-43.75-89.7-56.91-133.84-29.91-44.76,27.39-58.18,86.31-29.93,131.6h.06l105.62,169.34v-16.79c0-24.58,12.25-45.62,36.74-63.11,22.97-16.42,34.49-30.14,34.58-41.18v-51.81c0-10.14-4.35-15.21-13.05-15.21h-.27c-8.79,0-13.19,5.07-13.19,15.21v38.08h-44.81v-38.08c0-38.84,19.33-58.27,58-58.27s58.13,19.42,58.13,58.27v52.75c0,25.03-12.29,46.34-36.87,63.92-22.97,16.42-34.45,30.64-34.45,42.66v13.19h71.32v1.55l105.66-169.41h.02c28.25-45.29,14.85-104.21-29.91-131.6Z" style="fill:#a4203a;"/></g><g><path d="M78.07,88.56v-13.26c0-4.54,1.97-6.81,5.91-6.81h.12c3.9,0,5.85,2.27,5.85,6.81v10.07l20.08-5.38v-4.69c0-17.41-8.68-26.11-26.05-26.11s-25.99,8.71-25.99,26.11v17.07h5.86l14.21-3.81Z" style="fill:#a4203a;"/><path d="M93.51,127.59c11.02-7.88,16.52-17.43,16.52-28.64v-5.49l-20.1,5.39c-.25,4.89-5.4,10.93-15.48,18.13-10.97,7.84-16.46,17.27-16.46,28.28v26.59h52.04v-19.24h-31.96v-5.91c0-5.39,5.15-11.76,15.44-19.12Z" style="fill:#a4203a;"/></g><path d="M110.57,204.89c-9.1-5.4-21.6-2.99-27.59,5.76v-.22c-5.99-8.75-18.5-11.16-27.6-5.76-9.23,5.48-12,17.26-6.17,26.32l33.77-20.04-33.75,20.04,33.75,52.49v.22l33.75-52.49-33.75-20.04,33.76,20.04c5.82-9.06,3.06-20.84-6.17-26.32" style="fill:#a4203a;"/></g></svg>