<svg xmlns="http://www.w3.org/2000/svg" xmlns:xlink="http://www.w3.org/1999/xlink" viewBox="0 0 750 1050"><defs><style>.cls-1{fill:none;}.cls-2{fill:#fff;}.cls-3{fill:#a4203a;}.cls-4{clip-path:url(#clip-path);}</style><clipPath id="clip-path"><rect class="cls-1" x="-36" y="-36" width="822" height="1122"/></clipPath></defs><g id="Ebene_2" data-name="Ebene 2"><rect class="cls-2" width="750" height="1049.95" rx="44.82"/></g><g id="Ebene_1_Kopie_2" data-name="Ebene 1 Kopie 2"><polygon class="cls-3" points="399.81 642.74 350.75 642.74 375.02 681.65 375.02 682.5 399.81 642.74"/><path class="cls-3" d="M478,379.37C444,358.59,397.35,367.87,375,401.52c-22.34-33.65-69-43.78-103-23-34.43,21.07-44.75,66.39-23,101.23h0L330.33,610V597.09q0-28.35,28.26-48.55,26.51-18.93,26.61-31.67V477q0-11.7-10-11.7H375q-10.15,0-10.15,11.7v29.29H330.33V477q0-44.82,44.62-44.83T419.67,477v40.57q0,28.89-28.37,49.17-26.49,18.94-26.5,32.82v10.14h54.87v1.19L501,480.6h0C522.69,445.76,512.38,400.44,478,379.37Z"/><path class="cls-3" d="M59.53,123.09q0-12.7,12.66-21.76,11.88-8.49,11.92-14.19V69.28q0-5.23-4.5-5.24h-.09Q75,64,75,69.28V82.41H59.53V69.28q0-20.08,20-20.09t20,20.09V87.46q0,12.95-12.71,22Q75,118,75,124.2v4.55H99.56v14.79h-40Z"/><path class="cls-3" d="M690.47,926.91q0,12.72-12.66,21.76-11.88,8.49-11.92,14.19v17.86c0,3.5,1.5,5.24,4.5,5.24h.09c3,0,4.55-1.74,4.55-5.24V967.59h15.44v13.13q0,20.09-20,20.09t-20-20.09V962.54q0-12.94,12.71-22Q675,932,675,925.8v-4.55H650.44V906.46h40Z"/><g class="cls-4"><path class="cls-3" d="M98.54,165.5c-7-4.16-16.61-2.3-21.22,4.43v-.17c-4.6-6.73-14.23-8.59-21.23-4.43a14.34,14.34,0,0,0-4.74,20.25l26-15.42-26,15.42,26,40.38v.17l26-40.38-26-15.42,26,15.42a14.35,14.35,0,0,0-4.75-20.25"/><path class="cls-3" d="M651.46,884.5c7,4.16,16.61,2.3,21.22-4.43v.17c4.6,6.73,14.23,8.59,21.23,4.43a14.34,14.34,0,0,0,4.74-20.25l-26,15.42,26-15.42-26-40.38v-.17l-26,40.38,26,15.42-26-15.42a14.35,14.35,0,0,0,4.75,20.25"/></g><rect class="cls-2" x="10.15" y="79.02" width="134.33" height="10" transform="translate(-19.11 22.87) rotate(-15)"/><rect class="cls-2" x="605.52" y="960.98" width="134.33" height="10" transform="translate(-227.08 207.01) rotate(-15)"/></g></svg>