<svg xmlns="http://www.w3.org/2000/svg" width="80" height="112" fill="none"><rect width="80" height="112" fill="#fff" rx="5"/><path fill="#DC3059" d="M13.554 14.272c0 1.95-.624 3.38-2.808 5.694-2.132 2.236-2.86 3.77-2.86 5.798V28h8.268v-2.6h-5.408c-.026-.13-.026-.26-.026-.39 0-.962.468-1.82 2.158-3.64 2.652-2.834 3.536-4.784 3.536-7.202 0-2.912-1.456-4.576-4.264-4.576-2.808 0-4.264 1.664-4.264 4.576v1.768h2.704v-1.95c0-1.3.572-1.794 1.482-1.794s1.482.442 1.482 2.08ZM17.002 39.107c1.33 1.475 1.33 3.868 0 5.344L12 50l-5.002-5.55c-1.33-1.475-1.33-3.868 0-5.343 1.33-1.476 3.487-1.476 4.817 0l.185.205.185-.205c1.33-1.476 3.487-1.476 4.817 0ZM47.504 48.66c1.995 2.214 1.995 5.802 0 8.016L40 65l-7.504-8.324c-1.995-2.214-1.995-5.802 0-8.016 1.996-2.213 5.23-2.213 7.226 0l.278.308.278-.308c1.995-2.213 5.23-2.213 7.226 0ZM66.446 97.728c0-1.95.624-3.38 2.808-5.694 2.132-2.236 2.86-3.77 2.86-5.798V84h-8.268v2.6h5.408c.026.13.026.26.026.39 0 .962-.468 1.82-2.158 3.64-2.652 2.834-3.536 4.784-3.536 7.202 0 2.912 1.456 4.576 4.264 4.576 2.808 0 4.264-1.664 4.264-4.576v-1.768H69.41v1.95c0 1.3-.572 1.794-1.482 1.794s-1.482-.442-1.482-2.08ZM62.998 72.893c-1.33-1.475-1.33-3.868 0-5.344L68 62l5.002 5.55c1.33 1.475 1.33 3.868 0 5.343-1.33 1.476-3.486 1.476-4.817 0L68 72.688l-.185.205c-1.33 1.476-3.487 1.476-4.817 0Z"/></svg>