<svg xmlns="http://www.w3.org/2000/svg" viewBox="0 0 750 1050">
  <defs>
    <clipPath id="clip-path">
      <path style="fill:none" d="M-36-36h822v1122H-36z"/>
    </clipPath>
    <style>
      .cls-2{fill:#fff}.cls-3{fill:#a4203a}
    </style>
  </defs>
  <rect class="cls-2" width="750" height="1049.95" rx="44.82" id="Ebene_2" data-name="Ebene 2"/>
  <g id="Ebene_1_Kopie_2" data-name="Ebene 1 Kopie 2">
    <path class="cls-3" d="M399.81 642.74h-49.06l24.27 38.91v.85l24.79-39.76zM478 379.37c-34-20.78-80.65-11.5-103 22.15-22.34-33.65-69-43.78-103-23-34.43 21.07-44.75 66.39-23 101.23L330.33 610v-12.91q0-28.35 28.26-48.55 26.51-18.93 26.61-31.67V477q0-11.7-10-11.7h-.2q-10.15 0-10.15 11.7v29.29h-34.52V477q0-44.82 44.62-44.83T419.67 477v40.57q0 28.89-28.37 49.17-26.49 18.94-26.5 32.82v10.14h54.87v1.19L501 480.6c21.69-34.84 11.38-80.16-23-101.23ZM59.53 123.09q0-12.7 12.66-21.76 11.88-8.49 11.92-14.19V69.28q0-5.23-4.5-5.24h-.09Q75 64 75 69.28v13.13H59.53V69.28q0-20.08 20-20.09t20 20.09v18.18q0 12.95-12.71 22Q75 118 75 124.2v4.55h24.56v14.79h-40Zm630.94 803.82q0 12.72-12.66 21.76-11.88 8.49-11.92 14.19v17.86c0 3.5 1.5 5.24 4.5 5.24h.09c3 0 4.55-1.74 4.55-5.24v-13.13h15.44v13.13q0 20.09-20 20.09t-20-20.09v-18.18q0-12.94 12.71-22Q675 932 675 925.8v-4.55h-24.56v-14.79h40Z"/>
    <path class="cls-3" d="M98.54 165.5c-7-4.16-16.61-2.3-21.22 4.43v-.17c-4.6-6.73-14.23-8.59-21.23-4.43a14.34 14.34 0 0 0-4.74 20.25l26-15.42-26 15.42 26 40.38v.17l26-40.38-26-15.42 26 15.42a14.35 14.35 0 0 0-4.75-20.25m552.86 719c7 4.16 16.61 2.3 21.22-4.43v.17c4.6 6.73 14.23 8.59 21.23 4.43a14.34 14.34 0 0 0 4.74-20.25l-26 15.42 26-15.42-26-40.38v-.17l-26 40.38 26 15.42-26-15.42a14.35 14.35 0 0 0 4.75 20.25" style="clip-path:url(#clip-path)"/>
    <path class="cls-2" transform="rotate(-15 77.30244828 84.01243055)" d="M10.15 79.02h134.33v10H10.15z"/>
    <path class="cls-2" transform="rotate(-15 672.65852944 965.92692196)" d="M605.52 960.98h134.33v10H605.52z"/>
  </g>
</svg>
