<?xml version="1.0" encoding="UTF-8"?><svg xmlns="http://www.w3.org/2000/svg" viewBox="0 0 750 1050"><g id="uuid-395bb18b-a0c2-4e73-8390-2705522d6ad2"><rect width="750" height="1049.95" rx="44.82" ry="44.82" style="fill:#fff;"/></g><g id="uuid-c2300078-6a38-4146-9e10-ccf10a9d787a"><g><polygon points="326.55 698.11 318.05 729.75 431.78 729.75 423.28 698.11 326.55 698.11" style="fill:#282c44;"/><path d="M510.37,524.56l-135.46-203.45v-.86l-135.32,203.45,.05,.03c-23.32,35.1-12.29,80.75,24.7,101.98,16.38,9.4,35.22,12.69,53.31,10.4,.86-23.43,13.06-43.59,36.65-60.45,22.97-16.42,34.5-30.14,34.58-41.18v-51.81c0-10.14-4.35-15.21-13.05-15.21h-.27c-8.79,0-13.19,5.07-13.19,15.21v38.08h-44.81v-38.08c0-38.84,19.33-58.27,58-58.27s58.13,19.42,58.13,58.27v52.75c0,25.03-12.29,46.34-36.87,63.92-22.97,16.42-34.45,30.64-34.45,42.66v13.19h49.36l-7.04-26.18c24.96,12.01,56.04,11.8,80.88-2.45,37-21.23,48.13-66.9,24.79-102.01Z" style="fill:#282c44;"/></g><g><path d="M78.07,88.56v-13.26c0-4.54,1.97-6.81,5.91-6.81h.12c3.9,0,5.85,2.27,5.85,6.81v10.07l20.08-5.38v-4.69c0-17.41-8.68-26.11-26.05-26.11s-25.99,8.71-25.99,26.11v17.07h5.86l14.21-3.81Z" style="fill:#282c44;"/><path d="M93.51,127.59c11.02-7.88,16.52-17.43,16.52-28.64v-5.49l-20.1,5.39c-.25,4.89-5.4,10.93-15.48,18.13-10.97,7.84-16.46,17.27-16.46,28.28v26.59h52.04v-19.24h-31.96v-5.91c0-5.39,5.15-11.76,15.44-19.12Z" style="fill:#282c44;"/></g><path d="M110.02,242.67l-23.15,13.29h0s23.13-13.29,23.13-13.29l-27.04-40.69v-.17l-27.04,40.69h.01c-4.66,7.03-2.45,16.16,4.94,20.4,5.02,2.88,11.19,2.89,16.21,.41l-5.48,20.4h22.72l-5.41-20.15c4.99,2.4,11.2,2.36,16.16-.49,7.39-4.25,9.62-13.38,4.95-20.4" style="fill:#282c44;"/></g></svg>