<svg xmlns="http://www.w3.org/2000/svg" width="80" height="112" fill="none"><rect width="80" height="112" fill="#fff" rx="5"/><path fill="#2C2833" d="M13.554 14.272c0 1.95-.624 3.38-2.808 5.694-2.132 2.236-2.86 3.77-2.86 5.798V28h8.268v-2.6h-5.408c-.026-.13-.026-.26-.026-.39 0-.962.468-1.82 2.158-3.64 2.652-2.834 3.536-4.784 3.536-7.202 0-2.912-1.456-4.576-4.264-4.576-2.808 0-4.264 1.664-4.264 4.576v1.768h2.704v-1.95c0-1.3.572-1.794 1.482-1.794s1.482.442 1.482 2.08Z"/><path fill="#2C2833" fill-rule="evenodd" d="M7.553 42.266c-1.182 1.312-1.182 3.439 0 4.75.882.978 2.172 1.227 3.262.747v2.904h2.37v-2.904c1.09.48 2.38.231 3.262-.747 1.182-1.311 1.182-3.438 0-4.75L12 37.333l-4.447 4.933ZM33.33 53.4c-1.773 1.967-1.773 5.157 0 7.124 1.323 1.468 3.258 1.84 4.892 1.12V66h3.556v-4.356c1.634.72 3.57.348 4.892-1.12 1.773-1.967 1.773-5.157 0-7.125L40 46l-6.67 7.4Z" clip-rule="evenodd"/><path fill="#2C2833" d="M66.446 97.728c0-1.95.624-3.38 2.808-5.694 2.132-2.236 2.86-3.77 2.86-5.798V84h-8.268v2.6h5.408c.026.13.026.26.026.39 0 .962-.468 1.82-2.158 3.64-2.652 2.834-3.536 4.784-3.536 7.202 0 2.912 1.456 4.576 4.264 4.576 2.808 0 4.264-1.664 4.264-4.576v-1.768H69.41v1.95c0 1.3-.572 1.794-1.482 1.794s-1.482-.442-1.482-2.08Z"/><path fill="#2C2833" fill-rule="evenodd" d="M72.447 69.734c1.182-1.312 1.182-3.439 0-4.75-.882-.978-2.172-1.227-3.262-.746v-2.905h-2.37v2.904c-1.09-.48-2.38-.231-3.262.747-1.182 1.311-1.182 3.438 0 4.75L68 74.667l4.447-4.933Z" clip-rule="evenodd"/></svg>