<svg xmlns="http://www.w3.org/2000/svg" xmlns:xlink="http://www.w3.org/1999/xlink" viewBox="0 0 750 1050"><defs><style>.cls-1{fill:none;}.cls-2{fill:#fff;}.cls-3{clip-path:url(#clip-path);}.cls-4{fill:#282c44;}</style><clipPath id="clip-path"><rect class="cls-1" x="-36" y="-36" width="822" height="1122"/></clipPath></defs><g id="Ebene_2" data-name="Ebene 2"><rect class="cls-2" width="750" height="1049.95" rx="44.82"/></g><g id="Ebene_1_Kopie_2" data-name="Ebene 1 Kopie 2"><g class="cls-3"><path class="cls-4" d="M97.72,194.56,79.91,204.78h0L97.7,194.56l-20.8-31.3v-.13l-20.79,31.3h0a10.92,10.92,0,0,0,3.8,15.69,13.34,13.34,0,0,0,12.47.31l-4.22,15.7H85.64l-4.16-15.5a13.55,13.55,0,0,0,12.43-.38,10.91,10.91,0,0,0,3.81-15.69"/><path class="cls-4" d="M652.28,855.44l17.81-10.22h0L652.3,855.44l20.8,31.3v.13l20.79-31.3h0a10.92,10.92,0,0,0-3.8-15.69,13.34,13.34,0,0,0-12.47-.31l4.22-15.7H664.36l4.16,15.5a13.55,13.55,0,0,0-12.43.38,10.91,10.91,0,0,0-3.81,15.69"/></g><polygon class="cls-4" points="337.73 658.16 331.19 682.5 418.68 682.5 412.14 658.16 337.73 658.16"/><path class="cls-4" d="M479.13,524.66l-104.2-156.5v-.66L270.84,524l0,0c-17.94,27-9.45,62.12,19,78.44a65.81,65.81,0,0,0,41,8q1-27,28.19-46.49,26.51-18.94,26.61-31.68V492.44q0-11.7-10-11.7h-.21q-10.14,0-10.15,11.7v29.29H330.82V492.44q0-44.82,44.62-44.83t44.72,44.83V533q0,28.89-28.37,49.17Q365.3,601.13,365.29,615v10.14h38L397.85,605c19.2,9.23,43.11,9.08,62.21-1.89C488.52,586.79,497.09,551.66,479.13,524.66Z"/><path class="cls-4" d="M75,79.48V69.28Q75,64,79.52,64h.09q4.5,0,4.5,5.24V77l15.45-4.14V69.28q0-20.08-20-20.09t-20,20.09V82.41H64Z"/><path class="cls-4" d="M86.85,109.5q12.7-9.09,12.71-22V83.24L84.09,87.38q-.28,5.66-11.9,14-12.66,9-12.66,21.76v20.45h40V128.75H75V124.2Q75,118,86.85,109.5Z"/><path class="cls-4" d="M663.15,940.5q-12.71,9.09-12.71,22v4.22l15.47-4.14q.29-5.65,11.9-14,12.66-9,12.66-21.76V906.46h-40v14.79H675v4.55Q675,932,663.15,940.5Z"/><path class="cls-4" d="M675,970.52v10.2c0,3.5-1.52,5.24-4.55,5.24h-.09c-3,0-4.5-1.74-4.5-5.24V973l-15.45,4.14v3.61q0,20.09,20,20.09t20-20.09V967.59H686Z"/></g></svg>