<svg xmlns="http://www.w3.org/2000/svg" viewBox="0 0 750 1050">
  <defs>
    <clipPath id="clip-path">
      <path style="fill:none" d="M-36-36h822v1122H-36z"/>
    </clipPath>
    <style>
      .cls-4{fill:#282c44}
    </style>
  </defs>
  <rect width="750" height="1049.95" rx="44.82" style="fill:#fff" id="Ebene_2" data-name="Ebene 2"/>
  <g id="Ebene_1_Kopie_2" data-name="Ebene 1 Kopie 2">
    <path class="cls-4" d="m97.72 194.56-17.81 10.22 17.79-10.22-20.8-31.3v-.13l-20.79 31.3a10.92 10.92 0 0 0 3.8 15.69 13.34 13.34 0 0 0 12.47.31l-4.22 15.7h17.48l-4.16-15.5a13.55 13.55 0 0 0 12.43-.38 10.91 10.91 0 0 0 3.81-15.69m554.56 660.88 17.81-10.22-17.79 10.22 20.8 31.3v.13l20.79-31.3a10.92 10.92 0 0 0-3.8-15.69 13.34 13.34 0 0 0-12.47-.31l4.22-15.7h-17.48l4.16 15.5a13.55 13.55 0 0 0-12.43.38 10.91 10.91 0 0 0-3.81 15.69" style="clip-path:url(#clip-path)"/>
    <path class="cls-4" d="m337.73 658.16-6.54 24.34h87.49l-6.54-24.34h-74.41zm141.4-133.5-104.2-156.5v-.66L270.84 524c-17.94 27-9.45 62.12 19 78.44a65.81 65.81 0 0 0 41 8q1-27 28.19-46.49 26.51-18.94 26.61-31.68v-39.83q0-11.7-10-11.7h-.21q-10.14 0-10.15 11.7v29.29h-34.46v-29.29q0-44.82 44.62-44.83t44.72 44.83V533q0 28.89-28.37 49.17-26.49 18.96-26.5 32.83v10.14h38L397.85 605c19.2 9.23 43.11 9.08 62.21-1.89 28.46-16.32 37.03-51.45 19.07-78.45ZM75 79.48v-10.2Q75 64 79.52 64h.09q4.5 0 4.5 5.24V77l15.45-4.14v-3.58q0-20.08-20-20.09t-20 20.09v13.13H64Zm11.85 30.02q12.7-9.09 12.71-22v-4.26l-15.47 4.14q-.28 5.66-11.9 14-12.66 9-12.66 21.76v20.45h40v-14.84H75v-4.55q0-6.2 11.85-14.7Zm576.3 831q-12.71 9.09-12.71 22v4.22l15.47-4.14q.29-5.65 11.9-14 12.66-9 12.66-21.76v-20.36h-40v14.79H675v4.55q0 6.2-11.85 14.7ZM675 970.52v10.2c0 3.5-1.52 5.24-4.55 5.24h-.09c-3 0-4.5-1.74-4.5-5.24V973l-15.45 4.14v3.61q0 20.09 20 20.09t20-20.09v-13.16H686Z"/>
  </g>
</svg>
