<svg xmlns="http://www.w3.org/2000/svg" viewBox="0 0 750 1050">
  <defs>
    <clipPath id="a">
      <path style="fill:none" d="M-36-36h822v1122H-36z"/>
    </clipPath>
  </defs>
  <rect width="750" height="1049.95" rx="44.82" style="fill:#fff" data-name="Ebene 2"/>
  <g data-name="Ebene 1 Kopie 2">
    <g style="clip-path:url(#a)">
      <path d="M90.78 185.83a13.53 13.53 0 0 0-6.85 1.84l-.22-.32a13.1 13.1 0 0 0 6.14-11 12.9 12.9 0 0 0-12.58-13.2A13.42 13.42 0 0 0 64 176.22a12.82 12.82 0 0 0 6.21 11l-.17.25a13.15 13.15 0 0 0-6.21-1.66 13.42 13.42 0 0 0-13.32 13.09 13.12 13.12 0 0 0 13 13 13.38 13.38 0 0 0 9.38-3.79l-4.83 18h17.77L81 208a14.29 14.29 0 0 0 9.53 3.91 13.06 13.06 0 0 0 .28-26.1M659.22 864.17a13.53 13.53 0 0 0 6.85-1.84l.22.32a13.1 13.1 0 0 0-6.14 11 12.9 12.9 0 0 0 12.58 13.2A13.42 13.42 0 0 0 686 873.78a12.82 12.82 0 0 0-6.21-11l.17-.25a13.15 13.15 0 0 0 6.21 1.66 13.42 13.42 0 0 0 13.32-13.09 13.12 13.12 0 0 0-13-13 13.38 13.38 0 0 0-9.38 3.79l4.83-18h-17.77L669 842a14.29 14.29 0 0 0-9.53-3.91 13.06 13.06 0 0 0-.28 26.1" style="fill:#282c44"/>
    </g>
    <path d="M330.33 605.66v-29.29h34.16v29.29q.31 11.7 10.56 11.7t10.46-11.7v-34.57q0-9.84-3.32-11.28c-1.24-.56-3.38-.83-6.41-.83h-12.53V526h14.8a10.19 10.19 0 0 0 4.77-.83c1.79-1 2.69-4.62 2.69-10.77v-32.85q-.31-11.7-10.46-11.7t-10.56 11.7v29.29h-34.16v-26a64.91 64.91 0 0 0-21-3.8c-35.13-.4-66.18 29.41-66.58 65.45s30 64.67 65.14 65.08a64.78 64.78 0 0 0 22.46-3.78c0-.73-.02-1.42-.02-2.13ZM444.33 481a65.88 65.88 0 0 0-24.66 4.63v28.94q0 21.12-13.87 28.26 13.86 7.14 13.87 28.26v36.03a69 69 0 0 0 23.25 4.41c35.13.41 63.94-28.48 64.34-64.52s-27.79-65.6-62.93-66.01Z" style="fill:#282c44"/>
    <path d="M330.36 479.71q.92-42.87 44.69-43 44 0 44.6 43.55a65.85 65.85 0 0 0 20-46.77c.4-36.05-27.76-65.6-62.89-66S310.6 396.91 310.2 433a63.16 63.16 0 0 0 20.16 46.71ZM375.05 650.49q-21.75-.06-32.91-10.67l-11.46 42.68h88.86l-11.48-42.79q-11.16 10.77-33.01 10.78ZM74.83 79.51V69.28c.1-3.49 1.67-5.24 4.74-5.24s4.59 1.75 4.68 5.24V77l15.31-4.1v-3.62q0-20.08-20-20.09t-20 20.09v13.13H64ZM99.56 84.08v-.84l-15.67 4.2a2.21 2.21 0 0 1-.89 1.37 4.48 4.48 0 0 1-2.13.37H77.4l-3.12.82v14h5.61a7.79 7.79 0 0 1 2.88.37c1 .43 1.48 2.12 1.48 5.05v15.5q-.14 5.23-4.68 5.24c-3.07 0-4.64-1.75-4.74-5.24v-13.15h-15.3v13.13q0 20 20 20.08t20-20.08v-15.5q0-9.45-6.22-12.66 6.26-3.19 6.25-12.66ZM650.44 965.92v.84l15.67-4.2a2.24 2.24 0 0 1 .85-1.37 4.48 4.48 0 0 1 2.13-.37h3.51l3.12-.84V946h-5.61a7.79 7.79 0 0 1-2.88-.37c-1-.43-1.48-2.12-1.48-5V925.1q.13-5.24 4.68-5.24c3.07 0 4.64 1.75 4.74 5.24v13.13h15.3V925.1q0-20-20-20.08t-20 20.08v15.5q0 9.46 6.22 12.66-6.26 3.2-6.25 12.66ZM675.17 970.49v10.23c-.1 3.5-1.67 5.24-4.74 5.24s-4.59-1.74-4.68-5.24V973l-15.31 4.1v3.61q0 20.09 20 20.09t20-20.09v-13.12H686Z" style="fill:#282c44"/>
  </g>
</svg>
