<?xml version="1.0" encoding="UTF-8"?><svg xmlns="http://www.w3.org/2000/svg" viewBox="0 0 750 1050"><g id="uuid-99798866-fab7-4134-af2c-be49fec88856"><rect width="750" height="1049.95" rx="44.82" ry="44.82" style="fill:#fff;"/></g><g id="uuid-8c7c1347-e969-435c-b2cd-3937fe24bf31"><g><path d="M316.93,629.86v-38.08h44.41v38.08c.27,10.14,4.84,15.21,13.73,15.21s13.32-5.07,13.59-15.21v-44.95c0-8.52-1.44-13.41-4.31-14.67-1.61-.72-4.4-1.08-8.34-1.08h-16.28v-42.93h19.24c2.87,0,4.93-.36,6.19-1.08,2.33-1.35,3.5-6.01,3.5-14v-42.66c-.27-10.14-4.8-15.21-13.59-15.21s-13.46,5.07-13.73,15.21v38.08h-44.41v-33.86c-8.65-3.08-17.85-4.82-27.28-4.93-45.67-.53-86.03,38.22-86.55,85.08-.52,46.86,39,84.07,84.67,84.6,10.09,.12,19.95-1.63,29.2-4.92-.02-.9-.04-1.79-.04-2.71Z" style="fill:#282c44;"/><path d="M465.14,467.81c-10.98-.13-21.86,2.03-32.07,6.01v37.62c0,18.3-6.01,30.55-18.03,36.74,12.02,6.19,18.03,18.44,18.03,36.74v44.95c0,.64-.02,1.26-.03,1.89,9.62,3.59,19.85,5.62,30.22,5.74,45.67,.53,83.12-37.03,83.63-83.88,.52-46.86-36.09-85.27-81.76-85.8Z" style="fill:#282c44;"/><path d="M316.97,466.12c.79-37.16,20.15-55.79,58.1-55.88,38.11,0,57.43,18.88,57.97,56.62,15.79-15.25,25.76-36.8,26.03-60.81,.52-46.86-36.09-85.27-81.76-85.8-45.67-.53-86.03,38.22-86.55,85.08-.27,24.01,10,45.48,26.21,60.79Z" style="fill:#282c44;"/><path d="M375.07,688.13c-18.85-.04-33.1-4.68-42.79-13.87l-14.9,55.49h115.53l-14.93-55.63c-9.66,9.33-23.96,14.01-42.91,14.01Z" style="fill:#282c44;"/></g><g><path d="M77.89,88.61v-13.3c.12-4.54,2.17-6.81,6.15-6.81s5.97,2.27,6.09,6.81v10.02l19.9-5.33v-4.69c0-17.41-8.66-26.11-25.99-26.11-17.37,.04-26.05,8.74-26.05,26.11v17.07h5.86l14.03-3.76Z" style="fill:#282c44;"/><path d="M110.03,94.54v-1.09l-20.37,5.46c-.26,.9-.62,1.5-1.1,1.78-.56,.32-1.49,.48-2.78,.48h-4.57l-4.05,1.09v18.15h7.3c1.77,0,3.01,.16,3.74,.48,1.29,.56,1.93,2.75,1.93,6.57v20.14c-.12,4.54-2.15,6.81-6.09,6.81s-6.03-2.27-6.15-6.81v-17.07h-19.9v17.07c0,17.37,8.68,26.07,26.05,26.11,17.33,0,25.99-8.7,25.99-26.11v-20.14c0-8.2-2.69-13.69-8.08-16.46,5.39-2.77,8.08-8.26,8.08-16.46Z" style="fill:#282c44;"/></g><path d="M101.85,229.36c-3.12-.04-6.2,.85-8.91,2.4l-.29-.42c4.73-2.94,7.92-8.24,7.98-14.33,.1-9.37-7.22-17.05-16.35-17.16-9.14-.11-17.21,7.64-17.31,17.02-.07,6.09,3.25,11.36,8.08,14.34l-.22,.33c-2.44-1.35-5.2-2.13-8.08-2.17-9.14-.11-17.21,7.64-17.31,17.02-.1,9.37,7.8,16.81,16.93,16.92,4.61,.05,8.98-1.84,12.2-4.92l-6.28,23.38h23.11l-6.32-23.53c3.29,3.1,7.78,5.03,12.39,5.08,9.13,.11,16.62-7.4,16.73-16.78,.1-9.37-7.22-17.05-16.35-17.16" style="fill:#282c44;"/><g><path d="M672.11,961.34v13.3c-.12,4.54-2.17,6.81-6.15,6.81s-5.97-2.27-6.09-6.81v-10.02l-19.9,5.33v4.69c0,17.41,8.66,26.11,25.99,26.11,17.37-.04,26.05-8.74,26.05-26.11v-17.07h-5.86l-14.03,3.76Z" style="fill:#282c44;"/><path d="M639.97,955.41v1.09l20.37-5.46c.26-.9,.62-1.5,1.1-1.78,.56-.32,1.49-.48,2.78-.48h4.57l4.05-1.09v-18.15h-7.3c-1.77,0-3.01-.16-3.74-.48-1.29-.56-1.93-2.75-1.93-6.57v-20.14c.12-4.54,2.15-6.81,6.09-6.81s6.03,2.27,6.15,6.81v17.07h19.9v-17.07c0-17.37-8.68-26.07-26.05-26.11-17.33,0-25.99,8.7-25.99,26.11v20.14c0,8.2,2.69,13.69,8.08,16.46-5.39,2.77-8.08,8.26-8.08,16.46Z" style="fill:#282c44;"/></g><path d="M648.15,820.59c3.12,.04,6.2-.85,8.91-2.4l.29,.42c-4.73,2.94-7.92,8.24-7.98,14.33-.1,9.37,7.22,17.05,16.35,17.16,9.14,.11,17.21-7.64,17.31-17.02,.07-6.09-3.25-11.36-8.08-14.34l.22-.33c2.44,1.35,5.2,2.13,8.08,2.17,9.14,.11,17.21-7.64,17.31-17.02,.1-9.37-7.8-16.81-16.93-16.92-4.61-.05-8.98,1.84-12.2,4.92l6.28-23.38h-23.11l6.32,23.53c-3.29-3.1-7.78-5.03-12.39-5.08-9.13-.11-16.62,7.4-16.73,16.78-.1,9.37,7.22,17.05,16.35,17.16" style="fill:#282c44;"/></g></svg>