<svg xmlns="http://www.w3.org/2000/svg" width="80" height="112" fill="none"><rect width="80" height="112" fill="#fff" rx="5"/><path fill="#2C2833" d="M13.398 15.286c0 1.456-.65 1.924-1.716 1.924h-1.118v2.6h.962c1.3 0 1.872.624 1.872 2.314v1.43c0 1.612-.572 2.054-1.482 2.054s-1.482-.494-1.482-1.794v-1.69H7.73v1.508c0 2.912 1.456 4.576 4.264 4.576 2.808 0 4.264-1.664 4.264-4.576v-1.43c0-1.846-.572-3.172-2.002-3.796v-.052c1.378-.572 2.002-1.768 2.002-3.718v-.468c0-2.912-1.456-4.576-4.264-4.576-2.808 0-4.264 1.664-4.264 4.576v.988h2.704v-1.17c0-1.3.572-1.794 1.482-1.794s1.482.442 1.482 2.08v1.014Z"/><path fill="#2C2833" fill-rule="evenodd" d="M8.863 39.804a3.137 3.137 0 1 1 6.008 1.266 3.137 3.137 0 1 1-1.538 5.693v3.904h-2.666v-3.904a3.137 3.137 0 1 1-1.538-5.693 3.126 3.126 0 0 1-.266-1.266ZM35.294 49.706a4.706 4.706 0 1 1 9.013 1.899A4.706 4.706 0 1 1 42 60.145V66h-4v-5.855a4.706 4.706 0 1 1-2.307-8.54 4.69 4.69 0 0 1-.399-1.9Z" clip-rule="evenodd"/><path fill="#2C2833" d="M66.602 96.714c0-1.456.65-1.924 1.716-1.924h1.118v-2.6h-.962c-1.3 0-1.872-.624-1.872-2.314v-1.43c0-1.612.572-2.054 1.482-2.054s1.482.494 1.482 1.794v1.69h2.704v-1.508c0-2.912-1.456-4.576-4.264-4.576-2.808 0-4.264 1.664-4.264 4.576v1.43c0 1.846.572 3.172 2.002 3.796v.052c-1.378.572-2.002 1.768-2.002 3.718v.468c0 2.912 1.456 4.576 4.264 4.576 2.808 0 4.264-1.664 4.264-4.576v-.988h-2.704v1.17c0 1.3-.572 1.794-1.482 1.794s-1.482-.442-1.482-2.08v-1.014Z"/><path fill="#2C2833" fill-rule="evenodd" d="M71.137 72.196a3.137 3.137 0 1 1-6.008-1.266 3.137 3.137 0 1 1 1.538-5.693v-3.904h2.666v3.904a3.137 3.137 0 1 1 1.538 5.693c.171.387.266.816.266 1.266Z" clip-rule="evenodd"/></svg>