<svg xmlns="http://www.w3.org/2000/svg" viewBox="0 0 750 1050">
  <rect width="750" height="1049.95" rx="44.82" style="fill:#fff" data-name="Ebene 2"/>
  <g data-name="Ebene 1 Kopie 2">
    <path style="fill:#a4203a" d="M77.32 163 55.2 194.5 77.32 226l22.12-31.5L77.32 163zM672.68 887l22.12-31.5-22.12-31.5-22.12 31.5 22.12 31.5zM330.33 604.58v-29.3h34.16v29.3q.31 11.7 10.56 11.69t10.46-11.69V570q0-9.82-3.32-11.28a17.42 17.42 0 0 0-6.41-.83h-12.53v-33h14.8a10.19 10.19 0 0 0 4.77-.83q2.69-1.54 2.69-10.76v-32.84q-.31-11.7-10.46-11.7t-10.56 11.7v29.3h-34.16v-29.3q0-44.71 44.72-44.82t44.62 44.82v33q0 21.12-13.87 28.26 13.86 7.14 13.87 28.26v34.58a65.15 65.15 0 0 1-2.1 17.31l68-96.89L375 367.5 264.4 525l68 96.89a65.13 65.13 0 0 1-2.07-17.31ZM375.05 649.4q-17.52 0-28.16-6.94l28.12 40 28-39.92q-10.57 6.85-27.96 6.86ZM74.83 79.51V69.28c.1-3.49 1.67-5.24 4.74-5.24s4.59 1.75 4.68 5.24V77l15.31-4.1v-3.62q0-20.08-20-20.09t-20 20.09v13.13H64ZM99.56 84.08v-.84l-15.67 4.2a2.21 2.21 0 0 1-.89 1.37 4.48 4.48 0 0 1-2.13.37H77.4l-3.12.82v14h5.61a7.79 7.79 0 0 1 2.88.37c1 .43 1.48 2.12 1.48 5.05v15.5q-.14 5.23-4.68 5.24c-3.07 0-4.64-1.75-4.74-5.24v-13.15h-15.3v13.13q0 20 20 20.08t20-20.08v-15.5q0-9.45-6.22-12.66 6.26-3.19 6.25-12.66ZM650.44 965.92v.84l15.67-4.2a2.16 2.16 0 0 1 .84-1.37 4.55 4.55 0 0 1 2.14-.37h3.51l3.12-.83V946h-5.61a7.79 7.79 0 0 1-2.88-.37c-1-.43-1.48-2.12-1.48-5V925.1q.13-5.24 4.68-5.24t4.73 5.24v13.13h15.31V925.1q0-20-20-20.08t-20 20.08v15.5q0 9.45 6.22 12.66-6.26 3.2-6.25 12.66ZM675.16 970.49v10.23Q675 986 670.43 986t-4.68-5.24V973l-15.31 4.1v3.61q0 20.09 20 20.08t20-20.08v-13.12H686Z"/>
  </g>
</svg>
