<svg xmlns="http://www.w3.org/2000/svg" width="80" height="112" fill="none"><rect width="80" height="112" fill="#fff" rx="5"/><path fill="#DC3059" d="M13.398 15.286c0 1.456-.65 1.924-1.716 1.924h-1.118v2.6h.962c1.3 0 1.872.624 1.872 2.314v1.43c0 1.612-.572 2.054-1.482 2.054s-1.482-.494-1.482-1.794v-1.69H7.73v1.508c0 2.912 1.456 4.576 4.264 4.576 2.808 0 4.264-1.664 4.264-4.576v-1.43c0-1.846-.572-3.172-2.002-3.796v-.052c1.378-.572 2.002-1.768 2.002-3.718v-.468c0-2.912-1.456-4.576-4.264-4.576-2.808 0-4.264 1.664-4.264 4.576v.988h2.704v-1.17c0-1.3.572-1.794 1.482-1.794s1.482.442 1.482 2.08v1.014ZM12.057 36.667l5.276 7.295-5.39 7.371-5.276-7.295 5.39-7.371ZM40.085 45 48 55.943 39.915 67 32 56.057 40.085 45ZM66.602 96.714c0-1.456.65-1.924 1.716-1.924h1.118v-2.6h-.962c-1.3 0-1.872-.624-1.872-2.314v-1.43c0-1.612.572-2.054 1.482-2.054s1.482.494 1.482 1.794v1.69h2.704v-1.508c0-2.912-1.456-4.576-4.264-4.576-2.808 0-4.264 1.664-4.264 4.576v1.43c0 1.846.572 3.172 2.002 3.796v.052c-1.378.572-2.002 1.768-2.002 3.718v.468c0 2.912 1.456 4.576 4.264 4.576 2.808 0 4.264-1.664 4.264-4.576v-.988h-2.704v1.17c0 1.3-.572 1.794-1.482 1.794s-1.482-.442-1.482-2.08v-1.014ZM67.943 75.333l-5.276-7.295 5.39-7.371 5.276 7.295-5.39 7.371Z"/></svg>