<?xml version="1.0" encoding="UTF-8"?><svg xmlns="http://www.w3.org/2000/svg" viewBox="0 0 750 1050"><g id="uuid-1c3c9cd1-9394-459a-85e3-b7b73473b8c7"><rect width="750" height="1049.95" rx="44.82" ry="44.82" style="fill:#fff;"/></g><g id="uuid-a2b97d79-5341-4741-b698-b367de599a72"><g><path d="M316.93,628.45v-38.08h44.41v38.08c.27,10.14,4.84,15.21,13.73,15.21s13.32-5.07,13.59-15.21v-44.95c0-8.52-1.44-13.41-4.31-14.67-1.61-.72-4.4-1.08-8.34-1.08h-16.28v-42.93h19.24c2.87,0,4.93-.36,6.19-1.08,2.33-1.35,3.5-6.01,3.5-14v-42.66c-.27-10.14-4.8-15.21-13.59-15.21s-13.46,5.07-13.73,15.21v38.08h-44.41v-38.08c0-38.76,19.38-58.18,58.13-58.27,38.67,0,58,19.43,58,58.27v42.93c0,18.3-6.01,30.55-18.03,36.74,12.02,6.19,18.03,18.44,18.03,36.74v44.95c0,8.41-.91,15.91-2.72,22.5l88.44-125.95-143.77-204.75-143.8,204.75,88.46,125.96c-1.83-6.59-2.74-14.09-2.74-22.51Z" style="fill:#a4203a;"/><path d="M375.07,686.72c-15.18-.03-27.37-3.05-36.61-9.02l36.55,52.05,36.44-51.9c-9.2,5.9-21.32,8.87-36.39,8.87Z" style="fill:#a4203a;"/></g><g><path d="M77.89,88.61v-13.3c.12-4.54,2.17-6.81,6.15-6.81s5.97,2.27,6.09,6.81v10.02l19.9-5.33v-4.69c0-17.41-8.66-26.11-25.99-26.11-17.37,.04-26.05,8.74-26.05,26.11v17.07h5.86l14.03-3.76Z" style="fill:#a4203a;"/><path d="M110.03,94.54v-1.09l-20.37,5.46c-.26,.9-.62,1.5-1.1,1.78-.56,.32-1.49,.48-2.78,.48h-4.57l-4.05,1.09v18.15h7.3c1.77,0,3.01,.16,3.74,.48,1.29,.56,1.93,2.75,1.93,6.57v20.14c-.12,4.54-2.15,6.81-6.09,6.81s-6.03-2.27-6.15-6.81v-17.07h-19.9v17.07c0,17.37,8.68,26.07,26.05,26.11,17.33,0,25.99-8.7,25.99-26.11v-20.14c0-8.2-2.69-13.69-8.08-16.46,5.39-2.77,8.08-8.26,8.08-16.46Z" style="fill:#a4203a;"/></g><polygon points="82.89 196.22 54.13 237.17 82.89 278.12 111.65 237.17 82.89 196.22" style="fill:#a4203a;"/></g></svg>