<?xml version="1.0" encoding="UTF-8"?><svg xmlns="http://www.w3.org/2000/svg" viewBox="0 0 750 1050"><g id="uuid-5c73c29f-4576-42b2-8f68-9538943c144f"><rect width="750" height="1049.95" rx="44.82" ry="44.82" style="fill:#fff;"/></g><g id="uuid-f6b24e8f-76a0-4da3-b2bf-eaf93070549e"><g><path d="M413.23,668.46c-9.39,6.7-22.1,10.06-38.16,10.06-15.46-.04-27.83-3.16-37.12-9.35l37.07,59.44v1.11l38.21-61.26Z" style="fill:#a4203a;"/><path d="M508.83,335.64c-44.13-27.01-104.78-14.95-133.81,28.8-29.04-43.75-89.7-56.91-133.84-29.91-44.76,27.39-58.18,86.31-29.93,131.6h.06l107.28,171.99c-1.09-5.42-1.65-11.37-1.65-17.88v-38.08h44.41v38.08c.27,10.14,4.84,15.21,13.73,15.21s13.32-5.07,13.59-15.21v-44.95c0-8.52-1.44-13.41-4.31-14.67-1.61-.72-4.4-1.08-8.34-1.08h-16.28v-42.93h19.24c2.87,0,4.93-.36,6.19-1.08,2.33-1.35,3.5-6.01,3.5-14v-42.66c-.27-10.14-4.8-15.21-13.59-15.21s-13.46,5.07-13.73,15.21v38.08h-44.41v-38.08c0-38.76,19.38-58.18,58.13-58.27,38.67,0,58,19.42,58,58.27v42.93c0,18.3-6.01,30.55-18.03,36.74,12.02,6.19,18.03,18.44,18.03,36.74v44.95c0,7.2-.67,13.73-2,19.6l107.66-172.61h.02c28.25-45.29,14.85-104.21-29.91-131.6Z" style="fill:#a4203a;"/></g><g><path d="M77.89,88.61v-13.3c.12-4.54,2.17-6.81,6.15-6.81s5.97,2.27,6.09,6.81v10.02l19.9-5.33v-4.69c0-17.41-8.66-26.11-25.99-26.11-17.37,.04-26.05,8.74-26.05,26.11v17.07h5.86l14.03-3.76Z" style="fill:#a4203a;"/><path d="M110.03,94.54v-1.09l-20.37,5.46c-.26,.9-.62,1.5-1.1,1.78-.56,.32-1.49,.48-2.78,.48h-4.57l-4.05,1.09v18.15h7.3c1.77,0,3.01,.16,3.74,.48,1.29,.56,1.93,2.75,1.93,6.57v20.14c-.12,4.54-2.15,6.81-6.09,6.81s-6.03-2.27-6.15-6.81v-17.07h-19.9v17.07c0,17.37,8.68,26.07,26.05,26.11,17.33,0,25.99-8.7,25.99-26.11v-20.14c0-8.2-2.69-13.69-8.08-16.46,5.39-2.77,8.08-8.26,8.08-16.46Z" style="fill:#a4203a;"/></g><path d="M110.57,204.89c-9.1-5.4-21.6-2.99-27.59,5.76v-.22c-5.99-8.75-18.5-11.16-27.6-5.76-9.23,5.48-12,17.26-6.17,26.32l33.77-20.04-33.75,20.04,33.75,52.49v.22l33.75-52.49-33.75-20.04,33.76,20.04c5.82-9.06,3.06-20.84-6.17-26.32" style="fill:#a4203a;"/><g><path d="M672.11,961.34v13.3c-.12,4.54-2.17,6.81-6.15,6.81s-5.97-2.27-6.09-6.81v-10.02l-19.9,5.33v4.69c0,17.41,8.66,26.11,25.99,26.11,17.37-.04,26.05-8.74,26.05-26.11v-17.07h-5.86l-14.03,3.76Z" style="fill:#a4203a;"/><path d="M639.97,955.41v1.09l20.37-5.46c.26-.9,.62-1.5,1.1-1.78,.56-.32,1.49-.48,2.78-.48h4.57l4.05-1.09v-18.15h-7.3c-1.77,0-3.01-.16-3.74-.48-1.29-.56-1.93-2.75-1.93-6.57v-20.14c.12-4.54,2.15-6.81,6.09-6.81s6.03,2.27,6.15,6.81v17.07h19.9v-17.07c0-17.37-8.68-26.07-26.05-26.11-17.33,0-25.99,8.7-25.99,26.11v20.14c0,8.2,2.69,13.69,8.08,16.46-5.39,2.77-8.08,8.26-8.08,16.46Z" style="fill:#a4203a;"/></g><path d="M639.43,845.11c9.1,5.4,21.6,2.99,27.59-5.76v.22c5.99,8.75,18.5,11.16,27.6,5.76,9.23-5.48,12-17.26,6.17-26.32l-33.77,20.04,33.75-20.04-33.75-52.49v-.22l-33.75,52.49,33.75,20.04-33.76-20.04c-5.82,9.06-3.06,20.84,6.17,26.32" style="fill:#a4203a;"/></g></svg>