<svg xmlns="http://www.w3.org/2000/svg" xmlns:xlink="http://www.w3.org/1999/xlink" viewBox="0 0 750 1050"><defs><style>.cls-1{fill:none;}.cls-2{fill:#fff;}.cls-3{fill:#a4203a;}.cls-4{clip-path:url(#clip-path);}</style><clipPath id="clip-path"><rect class="cls-1" x="-36" y="-36" width="822" height="1122"/></clipPath></defs><g id="Ebene_2" data-name="Ebene 2"><rect class="cls-2" width="750" height="1049.95" rx="44.82"/></g><g id="Ebene_1_Kopie_2" data-name="Ebene 1 Kopie 2"><path class="cls-3" d="M404.41,635.38q-10.85,7.73-29.36,7.74-17.83,0-28.55-7.19L375,681.65v.85Z"/><path class="cls-3" d="M478,379.37C444,358.59,397.35,367.87,375,401.52c-22.34-33.65-69-43.78-103-23-34.43,21.07-44.75,66.39-23,101.23h0l82.52,132.3a69.69,69.69,0,0,1-1.27-13.75V569h34.16v29.3Q364.8,610,375.05,610t10.46-11.69V563.72q0-9.83-3.32-11.28a17.42,17.42,0,0,0-6.41-.83H363.25v-33h14.8a10.19,10.19,0,0,0,4.77-.83q2.69-1.54,2.69-10.76V474.18q-.31-11.7-10.46-11.7t-10.56,11.7v29.3H330.33v-29.3q0-44.71,44.72-44.82t44.62,44.82v33q0,21.12-13.87,28.26,13.86,7.14,13.87,28.26V598.3a68.56,68.56,0,0,1-1.54,15.08L501,480.6h0C522.69,445.76,512.38,400.44,478,379.37Z"/><path class="cls-3" d="M74.83,124.9c.1,3.49,1.67,5.24,4.74,5.24s4.59-1.75,4.68-5.24V109.4c0-2.93-.49-4.62-1.48-5.05a7.79,7.79,0,0,0-2.88-.37H74.28V89.18h6.63A4.48,4.48,0,0,0,83,88.81c.81-.47,1.21-2.07,1.21-4.83V69.28Q84.12,64,79.57,64c-3.07,0-4.64,1.75-4.74,5.24V82.41H59.53V69.28q0-20,20-20.09t20,20.09v14.8q0,9.47-6.22,12.66,6.22,3.2,6.22,12.66v15.5q0,20.08-20,20.08t-20-20.08V111.77h15.3Z"/><path class="cls-3" d="M675.17,925.1c-.1-3.49-1.67-5.24-4.74-5.24s-4.59,1.75-4.68,5.24v15.5q0,4.41,1.48,5a7.79,7.79,0,0,0,2.88.37h5.61v14.8h-6.63a4.61,4.61,0,0,0-2.13.37c-.81.47-1.21,2.07-1.21,4.83v14.7c.09,3.5,1.65,5.24,4.68,5.24s4.64-1.74,4.74-5.24V967.59h15.3v13.13q0,20-20,20.09t-20-20.09v-14.8q0-9.45,6.22-12.66-6.23-3.19-6.22-12.66V925.1q0-20.08,20-20.08t20,20.08v13.13h-15.3Z"/><g class="cls-4"><path class="cls-3" d="M98.54,165.5c-7-4.16-16.61-2.3-21.22,4.43v-.17c-4.6-6.73-14.23-8.59-21.23-4.43a14.34,14.34,0,0,0-4.74,20.25l26-15.42-26,15.42,26,40.38v.17l26-40.38-26-15.42,26,15.42a14.35,14.35,0,0,0-4.75-20.25"/><path class="cls-3" d="M651.46,884.5c7,4.16,16.61,2.3,21.22-4.43v.17c4.6,6.73,14.23,8.59,21.23,4.43a14.34,14.34,0,0,0,4.74-20.25l-26,15.42,26-15.42-26-40.38v-.17l-26,40.38,26,15.42-26-15.42a14.35,14.35,0,0,0,4.75,20.25"/></g><rect class="cls-2" x="10.15" y="79.02" width="134.33" height="10" transform="translate(-19.11 22.87) rotate(-15)"/><rect class="cls-2" x="605.52" y="960.98" width="134.33" height="10" transform="translate(-227.08 207.01) rotate(-15)"/></g></svg>