<svg xmlns="http://www.w3.org/2000/svg" viewBox="0 0 750 1050">
  <defs>
    <clipPath id="a">
      <path style="fill:none" d="M-36-36h822v1122H-36z"/>
    </clipPath>
  </defs>
  <rect width="750" height="1049.95" rx="44.82" style="fill:#fff" data-name="Ebene 2"/>
  <g data-name="Ebene 1 Kopie 2">
    <path d="M404.41 635.38q-10.85 7.73-29.36 7.74-17.83 0-28.55-7.19l28.5 45.72v.85ZM478 379.37c-34-20.78-80.65-11.5-103 22.15-22.34-33.65-69-43.78-103-23-34.43 21.07-44.75 66.39-23 101.23l82.52 132.3a69.69 69.69 0 0 1-1.27-13.75V569h34.16v29.3q.39 11.7 10.64 11.7t10.46-11.69v-34.59q0-9.83-3.32-11.28a17.42 17.42 0 0 0-6.41-.83h-12.53v-33h14.8a10.19 10.19 0 0 0 4.77-.83q2.69-1.54 2.69-10.76v-32.84q-.31-11.7-10.46-11.7t-10.56 11.7v29.3h-34.16v-29.3q0-44.71 44.72-44.82t44.62 44.82v33q0 21.12-13.87 28.26 13.86 7.14 13.87 28.26v34.6a68.56 68.56 0 0 1-1.54 15.08L501 480.6c21.69-34.84 11.38-80.16-23-101.23ZM74.83 124.9c.1 3.49 1.67 5.24 4.74 5.24s4.59-1.75 4.68-5.24v-15.5c0-2.93-.49-4.62-1.48-5.05a7.79 7.79 0 0 0-2.88-.37h-5.61v-14.8h6.63a4.48 4.48 0 0 0 2.09-.37c.81-.47 1.21-2.07 1.21-4.83v-14.7Q84.12 64 79.57 64c-3.07 0-4.64 1.75-4.74 5.24v13.17h-15.3V69.28q0-20 20-20.09t20 20.09v14.8q0 9.47-6.22 12.66 6.22 3.2 6.22 12.66v15.5q0 20.08-20 20.08t-20-20.08v-13.13h15.3ZM675.17 925.1c-.1-3.49-1.67-5.24-4.74-5.24s-4.59 1.75-4.68 5.24v15.5q0 4.41 1.48 5a7.79 7.79 0 0 0 2.88.37h5.61v14.8h-6.63a4.61 4.61 0 0 0-2.13.37c-.81.47-1.21 2.07-1.21 4.83v14.7c.09 3.5 1.65 5.24 4.68 5.24s4.64-1.74 4.74-5.24v-13.08h15.3v13.13q0 20-20 20.09t-20-20.09v-14.8q0-9.45 6.22-12.66-6.23-3.19-6.22-12.66v-15.5q0-20.08 20-20.08t20 20.08v13.13h-15.3Z" style="fill:#a4203a"/>
    <g style="clip-path:url(#a)">
      <path d="M98.54 165.5c-7-4.16-16.61-2.3-21.22 4.43v-.17c-4.6-6.73-14.23-8.59-21.23-4.43a14.34 14.34 0 0 0-4.74 20.25l26-15.42-26 15.42 26 40.38v.17l26-40.38-26-15.42 26 15.42a14.35 14.35 0 0 0-4.75-20.25M651.46 884.5c7 4.16 16.61 2.3 21.22-4.43v.17c4.6 6.73 14.23 8.59 21.23 4.43a14.34 14.34 0 0 0 4.74-20.25l-26 15.42 26-15.42-26-40.38v-.17l-26 40.38 26 15.42-26-15.42a14.35 14.35 0 0 0 4.75 20.25" style="fill:#a4203a"/>
    </g>
    <path transform="rotate(-15 77.30244828 84.01243055)" style="fill:#fff" d="M10.15 79.02h134.33v10H10.15z"/>
    <path transform="rotate(-15 672.65852944 965.92692196)" style="fill:#fff" d="M605.52 960.98h134.33v10H605.52z"/>
  </g>
</svg>
