<svg xmlns="http://www.w3.org/2000/svg" width="80" height="112" fill="none"><rect width="80" height="112" fill="#fff" rx="5"/><path fill="#DC3059" d="M13.398 15.286c0 1.456-.65 1.924-1.716 1.924h-1.118v2.6h.962c1.3 0 1.872.624 1.872 2.314v1.43c0 1.612-.572 2.054-1.482 2.054s-1.482-.494-1.482-1.794v-1.69H7.73v1.508c0 2.912 1.456 4.576 4.264 4.576 2.808 0 4.264-1.664 4.264-4.576v-1.43c0-1.846-.572-3.172-2.002-3.796v-.052c1.378-.572 2.002-1.768 2.002-3.718v-.468c0-2.912-1.456-4.576-4.264-4.576-2.808 0-4.264 1.664-4.264 4.576v.988h2.704v-1.17c0-1.3.572-1.794 1.482-1.794s1.482.442 1.482 2.08v1.014ZM17.002 39.107c1.33 1.475 1.33 3.868 0 5.344L12 50l-5.002-5.55c-1.33-1.475-1.33-3.868 0-5.343 1.33-1.476 3.487-1.476 4.817 0l.185.205.185-.205c1.33-1.476 3.487-1.476 4.817 0ZM47.504 48.66c1.995 2.214 1.995 5.802 0 8.016L40 65l-7.504-8.324c-1.995-2.214-1.995-5.802 0-8.016 1.996-2.213 5.23-2.213 7.226 0l.278.308.278-.308c1.995-2.213 5.23-2.213 7.226 0ZM66.602 96.714c0-1.456.65-1.924 1.716-1.924h1.118v-2.6h-.962c-1.3 0-1.872-.624-1.872-2.314v-1.43c0-1.612.572-2.054 1.482-2.054s1.482.494 1.482 1.794v1.69h2.704v-1.508c0-2.912-1.456-4.576-4.264-4.576-2.808 0-4.264 1.664-4.264 4.576v1.43c0 1.846.572 3.172 2.002 3.796v.052c-1.378.572-2.002 1.768-2.002 3.718v.468c0 2.912 1.456 4.576 4.264 4.576 2.808 0 4.264-1.664 4.264-4.576v-.988h-2.704v1.17c0 1.3-.572 1.794-1.482 1.794s-1.482-.442-1.482-2.08v-1.014ZM62.998 72.893c-1.33-1.475-1.33-3.868 0-5.344L68 62l5.002 5.55c1.33 1.475 1.33 3.868 0 5.343-1.33 1.476-3.486 1.476-4.817 0L68 72.688l-.185.205c-1.33 1.476-3.487 1.476-4.817 0Z"/></svg>