<svg xmlns="http://www.w3.org/2000/svg" viewBox="0 0 750 1050">
  <defs>
    <clipPath id="clip-path">
      <path style="fill:none" d="M-36-36h822v1122H-36z"/>
    </clipPath>
    <style>
      .cls-4{fill:#282c44}
    </style>
  </defs>
  <rect width="750" height="1049.95" rx="44.82" style="fill:#fff" id="Ebene_2" data-name="Ebene 2"/>
  <g id="Ebene_1_Kopie_2" data-name="Ebene 1 Kopie 2">
    <path class="cls-4" d="m97.72 194.56-17.81 10.22 17.79-10.22-20.8-31.3v-.13l-20.79 31.3a10.92 10.92 0 0 0 3.8 15.69 13.34 13.34 0 0 0 12.47.31l-4.22 15.7h17.48l-4.16-15.5a13.55 13.55 0 0 0 12.43-.38 10.91 10.91 0 0 0 3.81-15.69m554.56 660.88 17.81-10.22-17.79 10.22 20.8 31.3v.13l20.79-31.3a10.92 10.92 0 0 0-3.8-15.69 13.34 13.34 0 0 0-12.47-.31l4.22-15.7h-17.48l4.16 15.5a13.55 13.55 0 0 0-12.43.38 10.91 10.91 0 0 0-3.81 15.69" style="clip-path:url(#clip-path)"/>
    <path class="cls-4" d="M375.05 654q-22.07-.06-33.24-11l-10.62 39.5h87.49l-10.58-39.36Q397 654 375.05 654Zm104.08-129.34-104.2-156.5v-.66L270.84 524c-17.94 27-9.45 62.12 19 78.44a65.74 65.74 0 0 0 40.47 8.06v-30.68h34.16v29.3q.31 11.7 10.56 11.69t10.46-11.69v-34.56q0-9.82-3.32-11.28a17.42 17.42 0 0 0-6.41-.83h-12.51v-33h14.8a10.12 10.12 0 0 0 4.76-.83q2.7-1.54 2.7-10.77V485q-.31-11.7-10.46-11.7T364.49 485v29.3h-34.16V485q0-44.72 44.72-44.82T419.67 485v33q0 21.12-13.88 28.26 13.88 7.14 13.88 28.26v36.66a66.42 66.42 0 0 0 40.43-8.1c28.42-16.29 36.99-51.42 19.03-78.42ZM74.83 79.51V69.28c.1-3.49 1.67-5.24 4.74-5.24s4.59 1.75 4.68 5.24V77l15.31-4.1v-3.62q0-20.08-20-20.09t-20 20.09v13.13H64Zm24.73 4.57v-.84l-15.67 4.2a2.21 2.21 0 0 1-.89 1.37 4.48 4.48 0 0 1-2.13.37H77.4l-3.12.82v14h5.61a7.79 7.79 0 0 1 2.88.37c1 .43 1.48 2.12 1.48 5.05v15.5q-.14 5.23-4.68 5.24c-3.07 0-4.64-1.75-4.74-5.24v-13.15h-15.3v13.13q0 20 20 20.08t20-20.08v-15.5q0-9.45-6.22-12.66 6.26-3.19 6.25-12.66Zm550.88 881.84v.84l15.67-4.2a2.24 2.24 0 0 1 .85-1.37 4.48 4.48 0 0 1 2.13-.37h3.51l3.12-.84V946h-5.61a7.79 7.79 0 0 1-2.88-.37c-1-.43-1.48-2.12-1.48-5V925.1q.13-5.24 4.68-5.24c3.07 0 4.64 1.75 4.74 5.24v13.13h15.3V925.1q0-20-20-20.08t-20 20.08v15.5q0 9.46 6.22 12.66-6.26 3.2-6.25 12.66Zm24.73 4.57v10.23c-.1 3.5-1.67 5.24-4.74 5.24s-4.59-1.74-4.68-5.24V973l-15.31 4.1v3.61q0 20.09 20 20.09t20-20.09v-13.12H686Z"/>
  </g>
</svg>
