<?xml version="1.0" encoding="UTF-8"?><svg xmlns="http://www.w3.org/2000/svg" viewBox="0 0 750 1050"><g id="uuid-cb9810f7-5018-4072-9c4f-fdb9972299fc"><rect width="750" height="1049.95" rx="44.82" ry="44.82" style="fill:#fff;"/></g><g id="uuid-bb771e1b-5bdd-4f6f-be03-a4f1ad915926"><g><path d="M375.07,692.65c-19.12-.04-33.52-4.81-43.21-14.26l-13.81,51.37h113.73l-13.75-51.17c-9.66,9.37-23.98,14.06-42.96,14.06Z" style="fill:#282c44;"/><path d="M510.37,524.56l-135.46-203.45v-.86l-135.32,203.45,.05,.03c-23.32,35.1-12.29,80.75,24.7,101.98,16.17,9.28,34.74,12.6,52.62,10.48,0-.6-.03-1.19-.03-1.81v-38.08h44.41v38.08c.27,10.14,4.84,15.21,13.73,15.21s13.32-5.07,13.59-15.21v-44.95c0-8.52-1.43-13.41-4.31-14.67-1.61-.72-4.4-1.08-8.34-1.08h-16.28v-42.93h19.24c2.87,0,4.93-.36,6.19-1.08,2.33-1.35,3.5-6.01,3.5-14v-42.66c-.27-10.14-4.8-15.21-13.59-15.21s-13.46,5.07-13.73,15.21v38.08h-44.41v-38.08c0-38.76,19.38-58.18,58.13-58.27,38.67,0,58,19.42,58,58.27v42.93c0,18.3-6.01,30.55-18.03,36.74,12.02,6.19,18.03,18.44,18.03,36.74v44.95c0,.92-.02,1.81-.04,2.71,17.91,2.01,36.53-1.33,52.56-10.52,37-21.23,48.13-66.9,24.79-102.01Z" style="fill:#282c44;"/></g><g><path d="M77.89,88.61v-13.3c.12-4.54,2.17-6.81,6.15-6.81s5.97,2.27,6.09,6.81v10.02l19.9-5.33v-4.69c0-17.41-8.66-26.11-25.99-26.11-17.37,.04-26.05,8.74-26.05,26.11v17.07h5.86l14.03-3.76Z" style="fill:#282c44;"/><path d="M110.03,94.54v-1.09l-20.37,5.46c-.26,.9-.62,1.5-1.1,1.78-.56,.32-1.49,.48-2.78,.48h-4.57l-4.05,1.09v18.15h7.3c1.77,0,3.01,.16,3.74,.48,1.29,.56,1.93,2.75,1.93,6.57v20.14c-.12,4.54-2.15,6.81-6.09,6.81s-6.03-2.27-6.15-6.81v-17.07h-19.9v17.07c0,17.37,8.68,26.07,26.05,26.11,17.33,0,25.99-8.7,25.99-26.11v-20.14c0-8.2-2.69-13.69-8.08-16.46,5.39-2.77,8.08-8.26,8.08-16.46Z" style="fill:#282c44;"/></g><path d="M110.02,242.67l-23.15,13.29h0s23.13-13.29,23.13-13.29l-27.04-40.69v-.17l-27.04,40.69h.01c-4.66,7.03-2.45,16.16,4.94,20.4,5.02,2.88,11.19,2.89,16.21,.41l-5.48,20.4h22.72l-5.41-20.15c4.99,2.4,11.2,2.36,16.16-.49,7.39-4.25,9.62-13.38,4.95-20.4" style="fill:#282c44;"/></g></svg>