<svg xmlns="http://www.w3.org/2000/svg" xmlns:xlink="http://www.w3.org/1999/xlink" viewBox="0 0 750 1050"><defs><style>.cls-1{fill:none;}.cls-2{fill:#fff;}.cls-3{clip-path:url(#clip-path);}.cls-4{fill:#282c44;}</style><clipPath id="clip-path"><rect class="cls-1" x="-36" y="-36" width="822" height="1122"/></clipPath></defs><g id="Ebene_2" data-name="Ebene 2"><rect class="cls-2" width="750" height="1049.95" rx="44.82"/></g><g id="Ebene_1_Kopie_2" data-name="Ebene 1 Kopie 2"><g class="cls-3"><path class="cls-4" d="M97.72,194.56,79.91,204.78h0L97.7,194.56l-20.8-31.3v-.13l-20.79,31.3h0a10.92,10.92,0,0,0,3.8,15.69,13.34,13.34,0,0,0,12.47.31l-4.22,15.7H85.64l-4.16-15.5a13.55,13.55,0,0,0,12.43-.38,10.91,10.91,0,0,0,3.81-15.69"/><path class="cls-4" d="M652.28,855.44l17.81-10.22h0L652.3,855.44l20.8,31.3v.13l20.79-31.3h0a10.92,10.92,0,0,0-3.8-15.69,13.34,13.34,0,0,0-12.47-.31l4.22-15.7H664.36l4.16,15.5a13.55,13.55,0,0,0-12.43.38,10.91,10.91,0,0,0-3.81,15.69"/></g><path class="cls-4" d="M375.05,654q-22.07-.06-33.24-11L331.19,682.5h87.49L408.1,643.14Q397,654,375.05,654Z"/><path class="cls-4" d="M479.13,524.66l-104.2-156.5v-.66L270.84,524l0,0c-17.94,27-9.45,62.12,19,78.44a65.74,65.74,0,0,0,40.47,8.06c0-.46,0-.91,0-1.38v-29.3h34.16v29.3q.31,11.7,10.56,11.69t10.46-11.69V574.56q0-9.82-3.32-11.28a17.42,17.42,0,0,0-6.41-.83H363.25v-33h14.8a10.12,10.12,0,0,0,4.76-.83q2.7-1.54,2.7-10.77V485q-.31-11.7-10.46-11.7T364.49,485v29.3H330.33V485q0-44.72,44.72-44.82T419.67,485v33q0,21.12-13.88,28.26,13.88,7.14,13.88,28.26v34.58c0,.7,0,1.39,0,2.08a66.42,66.42,0,0,0,40.43-8.1C488.52,586.79,497.09,551.66,479.13,524.66Z"/><path class="cls-4" d="M74.83,79.51V69.28c.1-3.49,1.67-5.24,4.74-5.24s4.59,1.75,4.68,5.24V77l15.31-4.1V69.28q0-20.08-20-20.09t-20,20.09V82.41H64Z"/><path class="cls-4" d="M99.56,84.08v-.84l-15.67,4.2A2.21,2.21,0,0,1,83,88.81a4.48,4.48,0,0,1-2.13.37H77.4L74.28,90v14h5.61a7.79,7.79,0,0,1,2.88.37c1,.43,1.48,2.12,1.48,5.05v15.5q-.14,5.23-4.68,5.24c-3.07,0-4.64-1.75-4.74-5.24V111.77H59.53V124.9q0,20,20,20.08t20-20.08V109.4q0-9.45-6.22-12.66Q99.57,93.55,99.56,84.08Z"/><path class="cls-4" d="M650.44,965.92v.84l15.67-4.2a2.24,2.24,0,0,1,.85-1.37,4.48,4.48,0,0,1,2.13-.37h3.51l3.12-.84V946h-5.61a7.79,7.79,0,0,1-2.88-.37c-1-.43-1.48-2.12-1.48-5V925.1q.13-5.24,4.68-5.24c3.07,0,4.64,1.75,4.74,5.24v13.13h15.3V925.1q0-20-20-20.08t-20,20.08v15.5q0,9.46,6.22,12.66Q650.43,956.46,650.44,965.92Z"/><path class="cls-4" d="M675.17,970.49v10.23c-.1,3.5-1.67,5.24-4.74,5.24s-4.59-1.74-4.68-5.24V973l-15.31,4.1v3.61q0,20.09,20,20.09t20-20.09V967.59H686Z"/></g></svg>