<svg xmlns="http://www.w3.org/2000/svg" width="80" height="112" fill="none"><rect width="80" height="112" fill="#fff" rx="5"/><path fill="#2C2833" d="M7.21 24.698h5.46V28h2.86v-3.302h1.352v-2.6H15.53V9.8h-3.12l-5.2 12.298v2.6Zm2.626-2.6 2.782-6.734h.052v6.734H9.836Z"/><path fill="#2C2833" fill-rule="evenodd" d="M8.863 39.804a3.137 3.137 0 1 1 6.008 1.266 3.137 3.137 0 1 1-1.538 5.693v3.904h-2.666v-3.904a3.137 3.137 0 1 1-1.538-5.693 3.126 3.126 0 0 1-.266-1.266ZM35.294 49.706a4.706 4.706 0 1 1 9.013 1.899A4.706 4.706 0 1 1 42 60.145V66h-4v-5.855a4.706 4.706 0 1 1-2.307-8.54 4.69 4.69 0 0 1-.399-1.9Z" clip-rule="evenodd"/><path fill="#2C2833" d="M72.79 87.302h-5.46V84h-2.86v3.302h-1.352v2.6h1.352V102.2h3.12l5.2-12.298v-2.6Zm-2.626 2.6-2.782 6.734h-.052v-6.734h2.834Z"/><path fill="#2C2833" fill-rule="evenodd" d="M71.137 72.196a3.137 3.137 0 1 1-6.008-1.266 3.137 3.137 0 1 1 1.538-5.693v-3.904h2.666v3.904a3.137 3.137 0 1 1 1.538 5.693c.171.387.266.816.266 1.266Z" clip-rule="evenodd"/></svg>