<svg xmlns="http://www.w3.org/2000/svg" xmlns:xlink="http://www.w3.org/1999/xlink" viewBox="0 0 750 1050"><defs><style>.cls-1{fill:none;}.cls-2{fill:#fff;}.cls-3{clip-path:url(#clip-path);}.cls-4{fill:#282c44;}</style><clipPath id="clip-path"><rect class="cls-1" x="-36" y="-37" width="822" height="1122"/></clipPath></defs><g id="Ebene_2" data-name="Ebene 2"><rect class="cls-2" width="750" height="1049.95" rx="44.82"/></g><g id="Ebene_1_Kopie_2" data-name="Ebene 1 Kopie 2"><g class="cls-3"><path class="cls-4" d="M90.78,184.83a13.53,13.53,0,0,0-6.85,1.84l-.22-.32a13.1,13.1,0,0,0,6.14-11,12.9,12.9,0,0,0-12.58-13.2A13.42,13.42,0,0,0,64,175.22a12.82,12.82,0,0,0,6.21,11l-.17.25a13.15,13.15,0,0,0-6.21-1.66,13.42,13.42,0,0,0-13.32,13.09,13.12,13.12,0,0,0,13,13,13.38,13.38,0,0,0,9.38-3.79l-4.83,18H85.83L81,207a14.29,14.29,0,0,0,9.53,3.91,13.06,13.06,0,0,0,.28-26.1"/><path class="cls-4" d="M659.22,863.17a13.53,13.53,0,0,0,6.85-1.84l.22.32a13.1,13.1,0,0,0-6.14,11,12.9,12.9,0,0,0,12.58,13.2A13.42,13.42,0,0,0,686,872.78a12.82,12.82,0,0,0-6.21-11l.17-.25a13.15,13.15,0,0,0,6.21,1.66,13.42,13.42,0,0,0,13.32-13.09,13.12,13.12,0,0,0-13-13,13.38,13.38,0,0,0-9.38,3.79l4.83-18H664.17L669,841a14.29,14.29,0,0,0-9.53-3.91,13.06,13.06,0,0,0-.28,26.1"/></g><polygon class="cls-4" points="360.42 516.13 335.99 578.13 360.42 578.13 360.42 516.13"/><path class="cls-4" d="M301.69,611.15c2.05.22,4.13.36,6.22.38a62.54,62.54,0,0,0,7.51-.38Z"/><path class="cls-4" d="M301,583.1l38-94.5a65.8,65.8,0,0,0-29.68-7.6c-35.13-.4-66.18,29.41-66.58,65.45-.37,33.66,26.12,60.84,58.23,64.63Z"/><path class="cls-4" d="M444.34,481a67.82,67.82,0,0,0-34.28,9.22l-1.09-1.6a65.59,65.59,0,0,0,30.7-55.11c.4-36.05-27.76-65.6-62.89-66S310.6,396.91,310.2,433c-.25,22.72,11.75,42.49,29.45,54.1l13.42-33.34h41.82V578.13h11.28v22.3a70.73,70.73,0,0,0,36.72,11.1c35.13.41,63.94-28.48,64.34-64.52S479.47,481.41,444.34,481Z"/><polygon class="cls-4" points="394.89 611.15 394.89 660.95 360.42 660.95 360.42 611.15 349.84 611.15 330.68 682.5 419.55 682.5 400.39 611.15 394.89 611.15"/><polygon class="cls-4" points="97.98 73.31 97.98 50.68 79.24 50.68 66.77 81.67 97.98 73.31"/><polygon class="cls-4" points="97.98 83.66 82.53 87.8 82.53 106.44 71.59 106.44 78.5 88.88 62.1 93.28 55.91 108.66 55.91 121.23 82.53 121.23 82.53 143.54 97.98 143.54 97.98 121.23 103.04 121.23 103.04 106.44 97.98 106.44 97.98 83.66"/><polygon class="cls-4" points="652.02 966.34 667.47 962.2 667.47 943.57 678.41 943.57 671.5 961.12 687.9 956.72 694.09 941.34 694.09 928.77 667.47 928.77 667.47 906.46 652.02 906.46 652.02 928.77 646.96 928.77 646.96 943.57 652.02 943.57 652.02 966.34"/><polygon class="cls-4" points="652.02 976.69 652.02 999.32 670.76 999.32 683.23 968.33 652.02 976.69"/></g></svg>