<?xml version="1.0" encoding="UTF-8"?><svg xmlns="http://www.w3.org/2000/svg" viewBox="0 0 750 1050"><g id="uuid-26be6815-1400-4f0a-b6f5-76f81e95907b"><rect width="750" height="1049.95" rx="44.82" ry="44.82" style="fill:#fff;"/></g><g id="uuid-78b80002-edbb-44d0-a4d5-688329afb1fb"><g><polygon points="356.04 513.47 324.28 594.07 356.04 594.07 356.04 513.47" style="fill:#282c44;"/><path d="M279.7,637c2.67,.29,5.36,.46,8.08,.49,3.28,.04,6.54-.14,9.76-.49h-17.84Z" style="fill:#282c44;"/><path d="M278.8,600.53l49.43-122.85c-11.74-6.16-24.91-9.72-38.58-9.88-45.67-.53-86.03,38.22-86.55,85.08-.49,43.75,33.95,79.09,75.69,84.01v-36.37Z" style="fill:#282c44;"/><path d="M465.14,467.81c-15.61-.18-31.01,4.23-44.55,11.98l-1.43-2.09c23.64-14.7,39.58-41.2,39.91-71.64,.52-46.86-36.09-85.27-81.76-85.8-45.67-.53-86.03,38.22-86.55,85.08-.33,29.54,15.27,55.23,38.28,70.33l17.44-43.35h54.37v161.75h14.67v28.98c14.16,8.95,30.76,14.23,47.74,14.43,45.67,.53,83.12-37.03,83.63-83.88,.52-46.86-36.09-85.27-81.76-85.8Z" style="fill:#282c44;"/><polygon points="400.85 637 400.85 701.73 356.04 701.73 356.04 637 342.29 637 317.38 729.75 432.91 729.75 408.01 637 400.85 637" style="fill:#282c44;"/></g><g><polygon points="107.98 93.56 87.9 98.94 87.9 123.16 73.67 123.16 82.66 100.34 61.33 106.06 53.29 126.06 53.29 142.4 87.9 142.4 87.9 171.41 107.98 171.41 107.98 142.4 114.55 142.4 114.55 123.16 107.98 123.16 107.98 93.56" style="fill:#282c44;"/><polygon points="107.98 80.1 107.98 50.68 83.62 50.68 67.4 90.97 107.98 80.1" style="fill:#282c44;"/></g><path d="M101.85,229.36c-3.12-.04-6.2,.85-8.91,2.4l-.29-.42c4.73-2.94,7.92-8.24,7.98-14.33,.1-9.37-7.22-17.05-16.35-17.16-9.14-.11-17.21,7.64-17.31,17.02-.07,6.09,3.25,11.36,8.08,14.34l-.22,.33c-2.44-1.35-5.2-2.13-8.08-2.17-9.14-.11-17.21,7.64-17.31,17.02-.1,9.37,7.8,16.81,16.93,16.92,4.61,.05,8.98-1.84,12.2-4.92l-6.28,23.38h23.11l-6.32-23.53c3.29,3.1,7.78,5.03,12.39,5.08,9.13,.11,16.62-7.4,16.73-16.78,.1-9.37-7.22-17.05-16.35-17.16" style="fill:#282c44;"/><g><polygon points="642.02 956.39 662.1 951.01 662.1 926.79 676.33 926.79 667.34 949.61 688.67 943.89 696.71 923.89 696.71 907.55 662.1 907.55 662.1 878.55 642.02 878.55 642.02 907.55 635.45 907.55 635.45 926.79 642.02 926.79 642.02 956.39" style="fill:#282c44;"/><polygon points="642.02 969.85 642.02 999.27 666.38 999.27 682.6 958.98 642.02 969.85" style="fill:#282c44;"/></g><path d="M648.15,820.59c3.12,.04,6.2-.85,8.91-2.4l.29,.42c-4.73,2.94-7.92,8.24-7.98,14.33-.1,9.37,7.22,17.05,16.35,17.16,9.14,.11,17.21-7.64,17.31-17.02,.07-6.09-3.25-11.36-8.08-14.34l.22-.33c2.44,1.35,5.2,2.13,8.08,2.17,9.14,.11,17.21-7.64,17.31-17.02,.1-9.37-7.8-16.81-16.93-16.92-4.61-.05-8.98,1.84-12.2,4.92l6.28-23.38h-23.11l6.32,23.53c-3.29-3.1-7.78-5.03-12.39-5.08-9.13-.11-16.62,7.4-16.73,16.78-.1,9.37,7.22,17.05,16.35,17.16" style="fill:#282c44;"/></g></svg>