<svg xmlns="http://www.w3.org/2000/svg" viewBox="0 0 750 1050">
  <defs>
    <clipPath id="a">
      <path style="fill:none" d="M-36-37h822v1122H-36z"/>
    </clipPath>
  </defs>
  <rect width="750" height="1049.95" rx="44.82" style="fill:#fff" data-name="Ebene 2"/>
  <g data-name="Ebene 1 Kopie 2">
    <g style="clip-path:url(#a)">
      <path d="M90.78 184.83a13.53 13.53 0 0 0-6.85 1.84l-.22-.32a13.1 13.1 0 0 0 6.14-11 12.9 12.9 0 0 0-12.58-13.2A13.42 13.42 0 0 0 64 175.22a12.82 12.82 0 0 0 6.21 11l-.17.25a13.15 13.15 0 0 0-6.21-1.66 13.42 13.42 0 0 0-13.32 13.09 13.12 13.12 0 0 0 13 13 13.38 13.38 0 0 0 9.38-3.79l-4.83 18h17.77L81 207a14.29 14.29 0 0 0 9.53 3.91 13.06 13.06 0 0 0 .28-26.1M659.22 863.17a13.53 13.53 0 0 0 6.85-1.84l.22.32a13.1 13.1 0 0 0-6.14 11 12.9 12.9 0 0 0 12.58 13.2A13.42 13.42 0 0 0 686 872.78a12.82 12.82 0 0 0-6.21-11l.17-.25a13.15 13.15 0 0 0 6.21 1.66 13.42 13.42 0 0 0 13.32-13.09 13.12 13.12 0 0 0-13-13 13.38 13.38 0 0 0-9.38 3.79l4.83-18h-17.77L669 841a14.29 14.29 0 0 0-9.53-3.91 13.06 13.06 0 0 0-.28 26.1" style="fill:#282c44"/>
    </g>
    <path style="fill:#282c44" d="m360.42 516.13-24.43 62h24.43v-62zM301.69 611.15c2.05.22 4.13.36 6.22.38a62.54 62.54 0 0 0 7.51-.38ZM301 583.1l38-94.5a65.8 65.8 0 0 0-29.68-7.6c-35.13-.4-66.18 29.41-66.58 65.45-.37 33.66 26.12 60.84 58.23 64.63Z"/>
    <path d="M444.34 481a67.82 67.82 0 0 0-34.28 9.22l-1.09-1.6a65.59 65.59 0 0 0 30.7-55.11c.4-36.05-27.76-65.6-62.89-66S310.6 396.91 310.2 433c-.25 22.72 11.75 42.49 29.45 54.1l13.42-33.34h41.82v124.37h11.28v22.3a70.73 70.73 0 0 0 36.72 11.1c35.13.41 63.94-28.48 64.34-64.52s-27.76-65.6-62.89-66.01ZM394.89 611.15v49.8h-34.47v-49.8h-10.58l-19.16 71.35h88.87l-19.16-71.35h-5.5zM97.98 73.31V50.68H79.24L66.77 81.67l31.21-8.36zM97.98 83.66 82.53 87.8v18.64H71.59l6.91-17.56-16.4 4.4-6.19 15.38v12.57h26.62v22.31h15.45v-22.31h5.06v-14.79h-5.06V83.66zM652.02 966.34l15.45-4.14v-18.63h10.94l-6.91 17.55 16.4-4.4 6.19-15.38v-12.57h-26.62v-22.31h-15.45v22.31h-5.06v14.8h5.06v22.77zM652.02 976.69v22.63h18.74l12.47-30.99-31.21 8.36z" style="fill:#282c44"/>
  </g>
</svg>
