<svg xmlns="http://www.w3.org/2000/svg" viewBox="0 0 750 1050"><defs><style>.cls-1{fill:#fff;}.cls-2{fill:#a4203a;}</style></defs><g id="Ebene_2" data-name="Ebene 2"><rect class="cls-1" width="750" height="1049.95" rx="44.82"/></g><g id="Ebene_1_Kopie_2" data-name="Ebene 1 Kopie 2"><polygon class="cls-2" points="77.32 163 55.2 194.5 77.32 226 99.44 194.5 77.32 163"/><polygon class="cls-2" points="672.68 887 694.8 855.5 672.68 824 650.56 855.5 672.68 887"/><polygon class="cls-2" points="324 598.4 376.07 469.01 417.89 469.01 417.89 593.43 429.18 593.43 429.18 605.36 485.6 525 375.01 367.5 264.4 525 324 609.87 324 598.4"/><polygon class="cls-2" points="383.42 593.43 383.42 531.43 358.99 593.43 383.42 593.43"/><polygon class="cls-2" points="383.42 626.45 335.65 626.45 375.01 682.5 383.42 670.52 383.42 626.45"/><polygon class="cls-2" points="97.98 83.66 82.53 87.8 82.53 106.44 71.59 106.44 78.5 88.88 62.1 93.28 55.91 108.66 55.91 121.23 82.53 121.23 82.53 143.54 97.98 143.54 97.98 121.23 103.04 121.23 103.04 106.44 97.98 106.44 97.98 83.66"/><polygon class="cls-2" points="97.98 73.31 97.98 50.68 79.24 50.68 66.77 81.67 97.98 73.31"/><polygon class="cls-2" points="652.02 966.34 667.47 962.2 667.47 943.57 678.41 943.57 671.5 961.12 687.9 956.72 694.09 941.34 694.09 928.77 667.47 928.77 667.47 906.46 652.02 906.46 652.02 928.77 646.96 928.77 646.96 943.57 652.02 943.57 652.02 966.34"/><polygon class="cls-2" points="652.02 976.69 652.02 999.32 670.76 999.32 683.23 968.33 652.02 976.69"/></g></svg>