<svg xmlns="http://www.w3.org/2000/svg" viewBox="0 0 750 1050">
  <rect width="750" height="1049.95" rx="44.82" style="fill:#fff" data-name="Ebene 2"/>
  <g data-name="Ebene 1 Kopie 2">
    <path style="fill:#a4203a" d="M77.32 163 55.2 194.5 77.32 226l22.12-31.5L77.32 163zM672.68 887l22.12-31.5-22.12-31.5-22.12 31.5 22.12 31.5zM324 598.4l52.07-129.39h41.82v124.42h11.29v11.93L485.6 525 375.01 367.5 264.4 525l59.6 84.87V598.4z"/>
    <path style="fill:#a4203a" d="M383.42 593.43v-62l-24.43 62h24.43zM383.42 626.45h-47.77l39.36 56.05 8.41-11.98v-44.07zM97.98 83.66 82.53 87.8v18.64H71.59l6.91-17.56-16.4 4.4-6.19 15.38v12.57h26.62v22.31h15.45v-22.31h5.06v-14.79h-5.06V83.66zM97.98 73.31V50.68H79.24L66.77 81.67l31.21-8.36zM652.02 966.34l15.45-4.14v-18.63h10.94l-6.91 17.55 16.4-4.4 6.19-15.38v-12.57h-26.62v-22.31h-15.45v22.31h-5.06v14.8h5.06v22.77zM652.02 976.69v22.63h18.74l12.47-30.99-31.21 8.36z"/>
  </g>
</svg>
