<?xml version="1.0" encoding="UTF-8"?><svg xmlns="http://www.w3.org/2000/svg" viewBox="0 0 750 1050"><g id="uuid-765cdcd2-5eea-4170-852a-e49d54f87064"><rect width="750" height="1049.95" rx="44.82" ry="44.82" style="fill:#fff;"/></g><g id="uuid-636801fd-0c83-4d7e-a462-f4dc4c6ed740"><g><polygon points="308.71 620.42 376.4 452.21 430.76 452.21 430.76 613.96 445.43 613.96 445.43 629.47 518.78 525 375.01 320.25 231.22 525 308.71 635.34 308.71 620.42" style="fill:#a4203a;"/><polygon points="385.95 613.96 385.95 533.35 354.19 613.96 385.95 613.96" style="fill:#a4203a;"/><polygon points="385.95 656.89 323.84 656.89 375.01 729.75 385.95 714.18 385.95 656.89" style="fill:#a4203a;"/></g><g><polygon points="107.98 93.56 87.9 98.94 87.9 123.16 73.67 123.16 82.66 100.34 61.33 106.06 53.29 126.06 53.29 142.4 87.9 142.4 87.9 171.41 107.98 171.41 107.98 142.4 114.55 142.4 114.55 123.16 107.98 123.16 107.98 93.56" style="fill:#a4203a;"/><polygon points="107.98 80.1 107.98 50.68 83.62 50.68 67.4 90.97 107.98 80.1" style="fill:#a4203a;"/></g><polygon points="82.89 196.22 54.13 237.17 82.89 278.12 111.65 237.17 82.89 196.22" style="fill:#a4203a;"/><g><polygon points="642.02 956.39 662.1 951.01 662.1 926.79 676.33 926.79 667.34 949.61 688.67 943.89 696.71 923.89 696.71 907.55 662.1 907.55 662.1 878.55 642.02 878.55 642.02 907.55 635.45 907.55 635.45 926.79 642.02 926.79 642.02 956.39" style="fill:#a4203a;"/><polygon points="642.02 969.85 642.02 999.27 666.38 999.27 682.6 958.98 642.02 969.85" style="fill:#a4203a;"/></g><polygon points="667.11 853.78 695.87 812.83 667.11 771.88 638.35 812.83 667.11 853.78" style="fill:#a4203a;"/></g></svg>