<svg xmlns="http://www.w3.org/2000/svg" width="80" height="112" fill="none"><rect width="80" height="112" fill="#fff" rx="5"/><path fill="#DC3059" d="M7.21 24.698h5.46V28h2.86v-3.302h1.352v-2.6H15.53V9.8h-3.12l-5.2 12.298v2.6Zm2.626-2.6 2.782-6.734h.052v6.734H9.836ZM12.057 36.667l5.276 7.295-5.39 7.371-5.276-7.295 5.39-7.371ZM40.085 45 48 55.943 39.915 67 32 56.057 40.085 45ZM72.79 87.302h-5.46V84h-2.86v3.302h-1.352v2.6h1.352V102.2h3.12l5.2-12.298v-2.6Zm-2.626 2.6-2.782 6.734h-.052v-6.734h2.834ZM67.943 75.333l-5.276-7.295 5.39-7.371 5.276 7.295-5.39 7.371Z"/></svg>