<svg xmlns="http://www.w3.org/2000/svg" viewBox="0 0 750 1050">
  <defs>
    <clipPath id="clip-path">
      <path style="fill:none" d="M-36-36h822v1122H-36z"/>
    </clipPath>
    <style>
      .cls-2{fill:#fff}.cls-3{fill:#a4203a}
    </style>
  </defs>
  <rect class="cls-2" width="750" height="1049.95" rx="44.82" id="Ebene_2" data-name="Ebene 2"/>
  <g id="Ebene_1_Kopie_2" data-name="Ebene 1 Kopie 2">
    <path class="cls-3" d="M383.79 668.43v-40.6h-42.35l33.58 53.82v.85l8.77-14.07zm0-73.63v-62l-24.43 62h24.43z"/>
    <path class="cls-3" d="M478 379.37c-34-20.78-80.65-11.5-103 22.15-22.34-33.65-69-43.78-103-23-34.43 21.07-44.75 66.39-23 101.23l75.3 120.71v-.69l52.06-129.39h41.82V594.8h11.29v.27L501 480.6c21.69-34.84 11.38-80.16-23-101.23ZM98 50.68v55.76h5v14.79h-5v22.31H82.54v-22.31H55.91v-12.57l23.33-58Zm-26.41 55.76h11V78.65ZM652 999.32v-55.75h-5v-14.8h5v-22.31h15.45v22.31h26.62v12.57l-23.33 58Zm26.39-55.75h-10.92v27.78Z"/>
    <path class="cls-3" d="M98.54 165.5c-7-4.16-16.61-2.3-21.22 4.43v-.17c-4.6-6.73-14.23-8.59-21.23-4.43a14.34 14.34 0 0 0-4.74 20.25l26-15.42-26 15.42 26 40.38v.17l26-40.38-26-15.42 26 15.42a14.35 14.35 0 0 0-4.75-20.25m552.86 719c7 4.16 16.61 2.3 21.22-4.43v.17c4.6 6.73 14.23 8.59 21.23 4.43a14.34 14.34 0 0 0 4.74-20.25l-26 15.42 26-15.42-26-40.38v-.17l-26 40.38 26 15.42-26-15.42a14.35 14.35 0 0 0 4.75 20.25" style="clip-path:url(#clip-path)"/>
    <path class="cls-2" transform="rotate(-15 77.30244828 84.01243055)" d="M10.15 79.02h134.33v10H10.15z"/>
    <path class="cls-2" transform="rotate(-15 672.65852944 965.92692196)" d="M605.52 960.98h134.33v10H605.52z"/>
  </g>
</svg>
