<svg xmlns="http://www.w3.org/2000/svg" xmlns:xlink="http://www.w3.org/1999/xlink" viewBox="0 0 750 1050"><defs><style>.cls-1{fill:none;}.cls-2{fill:#fff;}.cls-3{fill:#a4203a;}.cls-4{clip-path:url(#clip-path);}</style><clipPath id="clip-path"><rect class="cls-1" x="-36" y="-36" width="822" height="1122"/></clipPath></defs><g id="Ebene_2" data-name="Ebene 2"><rect class="cls-2" width="750" height="1049.95" rx="44.82"/></g><g id="Ebene_1_Kopie_2" data-name="Ebene 1 Kopie 2"><polygon class="cls-3" points="383.79 668.43 383.79 627.83 341.44 627.83 375.02 681.65 375.02 682.5 383.79 668.43"/><polygon class="cls-3" points="383.79 594.8 383.79 532.8 359.36 594.8 383.79 594.8"/><path class="cls-3" d="M478,379.37C444,358.59,397.35,367.87,375,401.52c-22.34-33.65-69-43.78-103-23-34.43,21.07-44.75,66.39-23,101.23h0l75.3,120.71v-.69l52.06-129.39h41.82V594.8h11.29v.27L501,480.6h0C522.69,445.76,512.38,400.44,478,379.37Z"/><path class="cls-3" d="M98,50.68v55.76H103v14.79H98v22.31H82.54V121.23H55.91V108.66l23.33-58ZM71.59,106.44h11V78.65Z"/><path class="cls-3" d="M652,999.32V943.57H647v-14.8H652V906.46h15.45v22.31h26.62v12.57l-23.33,58Zm26.39-55.75H667.47v27.78Z"/><g class="cls-4"><path class="cls-3" d="M98.54,165.5c-7-4.16-16.61-2.3-21.22,4.43v-.17c-4.6-6.73-14.23-8.59-21.23-4.43a14.34,14.34,0,0,0-4.74,20.25l26-15.42-26,15.42,26,40.38v.17l26-40.38-26-15.42,26,15.42a14.35,14.35,0,0,0-4.75-20.25"/><path class="cls-3" d="M651.46,884.5c7,4.16,16.61,2.3,21.22-4.43v.17c4.6,6.73,14.23,8.59,21.23,4.43a14.34,14.34,0,0,0,4.74-20.25l-26,15.42,26-15.42-26-40.38v-.17l-26,40.38,26,15.42-26-15.42a14.35,14.35,0,0,0,4.75,20.25"/></g><rect class="cls-2" x="10.15" y="79.02" width="134.33" height="10" transform="translate(-19.11 22.87) rotate(-15)"/><rect class="cls-2" x="605.52" y="960.98" width="134.33" height="10" transform="translate(-227.08 207.01) rotate(-15)"/></g></svg>