<?xml version="1.0" encoding="UTF-8"?><svg xmlns="http://www.w3.org/2000/svg" viewBox="0 0 750 1050"><g id="uuid-40ab3ffe-b679-418b-be08-d507d360d583"><rect width="750" height="1049.95" rx="44.82" ry="44.82" style="fill:#fff;"/></g><g id="uuid-7b65a810-47ae-4c69-a4a1-f73f658e9476"><g><polygon points="386.43 711.42 386.43 658.64 331.38 658.64 375.02 728.61 375.02 729.71 386.43 711.42" style="fill:#a4203a;"/><polygon points="386.43 615.71 386.43 535.1 354.67 615.71 386.43 615.71" style="fill:#a4203a;"/><path d="M508.83,335.64c-44.13-27.01-104.78-14.95-133.81,28.8-29.04-43.75-89.7-56.91-133.84-29.91-44.76,27.39-58.18,86.31-29.93,131.6h.06l97.88,156.92v-.89l67.69-168.21h54.37v161.75h14.67v.35l92.82-148.81h.02c28.25-45.29,14.85-104.21-29.91-131.6Z" style="fill:#a4203a;"/></g><g><polygon points="107.98 93.56 87.9 98.94 87.9 123.16 73.67 123.16 82.66 100.34 61.33 106.06 53.29 126.06 53.29 142.4 87.9 142.4 87.9 171.41 107.98 171.41 107.98 142.4 114.55 142.4 114.55 123.16 107.98 123.16 107.98 93.56" style="fill:#a4203a;"/><polygon points="107.98 80.1 107.98 50.68 83.62 50.68 67.4 90.97 107.98 80.1" style="fill:#a4203a;"/></g><path d="M110.57,204.89c-9.1-5.4-21.6-2.99-27.59,5.76v-.22c-5.99-8.75-18.5-11.16-27.6-5.76-9.23,5.48-12,17.26-6.17,26.32l33.77-20.04-33.75,20.04,33.75,52.49v.22l33.75-52.49-33.75-20.04,33.76,20.04c5.82-9.06,3.06-20.84-6.17-26.32" style="fill:#a4203a;"/></g></svg>