<?xml version="1.0" encoding="UTF-8"?><svg xmlns="http://www.w3.org/2000/svg" viewBox="0 0 750 1050"><g id="uuid-9834da5b-75da-4927-ac6c-c2e3c92e0711"><rect width="750" height="1049.95" rx="44.82" ry="44.82" style="fill:#fff;"/></g><g id="uuid-5d1162bb-011d-4a05-8c50-a84f047adb27"><g><polygon points="414.35 706.71 369.54 706.71 369.54 641.99 341.65 641.99 318.05 729.75 431.78 729.75 414.35 664.91 414.35 706.71" style="fill:#282c44;"/><polygon points="369.54 518.45 337.78 599.06 369.54 599.06 369.54 518.45" style="fill:#282c44;"/><path d="M510.37,524.56l-135.46-203.45v-.86l-135.32,203.45,.05,.03c-23.32,35.1-12.29,80.75,24.7,101.98,8.77,5.03,18.26,8.31,27.95,9.92v-30.11l67.69-168.21h54.37v161.75h14.67v37.49c19.11,3.02,39.34-.1,56.56-9.99,37-21.23,48.13-66.9,24.79-102.01Z" style="fill:#282c44;"/></g><g><polygon points="107.98 93.56 87.9 98.94 87.9 123.16 73.67 123.16 82.66 100.34 61.33 106.06 53.29 126.06 53.29 142.4 87.9 142.4 87.9 171.41 107.98 171.41 107.98 142.4 114.55 142.4 114.55 123.16 107.98 123.16 107.98 93.56" style="fill:#282c44;"/><polygon points="107.98 80.1 107.98 50.68 83.62 50.68 67.4 90.97 107.98 80.1" style="fill:#282c44;"/></g><path d="M110.02,242.67l-23.15,13.29h0s23.13-13.29,23.13-13.29l-27.04-40.69v-.17l-27.04,40.69h.01c-4.66,7.03-2.45,16.16,4.94,20.4,5.02,2.88,11.19,2.89,16.21,.41l-5.48,20.4h22.72l-5.41-20.15c4.99,2.4,11.2,2.36,16.16-.49,7.39-4.25,9.62-13.38,4.95-20.4" style="fill:#282c44;"/></g></svg>