<svg xmlns="http://www.w3.org/2000/svg" xmlns:xlink="http://www.w3.org/1999/xlink" viewBox="0 0 750 1050"><defs><style>.cls-1{fill:none;}.cls-2{fill:#fff;}.cls-3{clip-path:url(#clip-path);}.cls-4{fill:#282c44;}</style><clipPath id="clip-path"><rect class="cls-1" x="-36" y="-36" width="822" height="1122"/></clipPath></defs><g id="Ebene_2" data-name="Ebene 2"><rect class="cls-2" width="750" height="1049.95" rx="44.82"/></g><g id="Ebene_1_Kopie_2" data-name="Ebene 1 Kopie 2"><g class="cls-3"><path class="cls-4" d="M97.72,194.56,79.91,204.78h0L97.7,194.56l-20.8-31.3v-.13l-20.79,31.3h0a10.92,10.92,0,0,0,3.8,15.69,13.34,13.34,0,0,0,12.47.31l-4.22,15.7H85.64l-4.16-15.5a13.55,13.55,0,0,0,12.43-.38,10.91,10.91,0,0,0,3.81-15.69"/><path class="cls-4" d="M652.28,855.44l17.81-10.22h0L652.3,855.44l20.8,31.3v.13l20.79-31.3h0a10.92,10.92,0,0,0-3.8-15.69,13.34,13.34,0,0,0-12.47-.31l4.22-15.7H664.36l4.16,15.5a13.55,13.55,0,0,0-12.43.38,10.91,10.91,0,0,0-3.81,15.69"/></g><polygon class="cls-4" points="405.27 664.78 370.8 664.78 370.8 614.99 349.34 614.99 331.19 682.5 418.68 682.5 405.27 632.62 405.27 664.78"/><polygon class="cls-4" points="370.8 519.96 346.37 581.97 370.8 581.97 370.8 519.96"/><path class="cls-4" d="M479.13,524.66l-104.2-156.5v-.66L270.84,524l0,0c-17.94,27-9.45,62.12,19,78.44a64.18,64.18,0,0,0,21.5,7.64V586.94l52.07-129.4h41.82V582h11.28v28.84a66.75,66.75,0,0,0,43.51-7.69C488.52,586.79,497.09,551.66,479.13,524.66Z"/><polygon class="cls-4" points="97.98 83.66 82.53 87.8 82.53 106.44 71.59 106.44 78.5 88.88 62.1 93.28 55.91 108.66 55.91 121.23 82.53 121.23 82.53 143.54 97.98 143.54 97.98 121.23 103.04 121.23 103.04 106.44 97.98 106.44 97.98 83.66"/><polygon class="cls-4" points="97.98 73.31 97.98 50.68 79.24 50.68 66.77 81.67 97.98 73.31"/><polygon class="cls-4" points="652.02 966.34 667.47 962.2 667.47 943.57 678.41 943.57 671.5 961.12 687.9 956.72 694.09 941.34 694.09 928.77 667.47 928.77 667.47 906.46 652.02 906.46 652.02 928.77 646.96 928.77 646.96 943.57 652.02 943.57 652.02 966.34"/><polygon class="cls-4" points="652.02 976.69 652.02 999.32 670.76 999.32 683.23 968.33 652.02 976.69"/></g></svg>