<svg xmlns="http://www.w3.org/2000/svg" viewBox="0 0 750 1050">
  <defs>
    <clipPath id="clip-path">
      <path style="fill:none" d="M-36-36h822v1122H-36z"/>
    </clipPath>
    <style>
      .cls-4{fill:#282c44}
    </style>
  </defs>
  <rect width="750" height="1049.95" rx="44.82" style="fill:#fff" id="Ebene_2" data-name="Ebene 2"/>
  <g id="Ebene_1_Kopie_2" data-name="Ebene 1 Kopie 2">
    <path class="cls-4" d="m97.72 194.56-17.81 10.22 17.79-10.22-20.8-31.3v-.13l-20.79 31.3a10.92 10.92 0 0 0 3.8 15.69 13.34 13.34 0 0 0 12.47.31l-4.22 15.7h17.48l-4.16-15.5a13.55 13.55 0 0 0 12.43-.38 10.91 10.91 0 0 0 3.81-15.69m554.56 660.88 17.81-10.22-17.79 10.22 20.8 31.3v.13l20.79-31.3a10.92 10.92 0 0 0-3.8-15.69 13.34 13.34 0 0 0-12.47-.31l4.22-15.7h-17.48l4.16 15.5a13.55 13.55 0 0 0-12.43.38 10.91 10.91 0 0 0-3.81 15.69" style="clip-path:url(#clip-path)"/>
    <path class="cls-4" d="M405.27 664.78H370.8v-49.79h-21.46l-18.15 67.51h87.49l-13.41-49.88v32.16zM370.8 519.96l-24.43 62.01h24.43v-62.01z"/>
    <path class="cls-4" d="m479.13 524.66-104.2-156.5v-.66L270.84 524c-17.94 27-9.45 62.12 19 78.44a64.18 64.18 0 0 0 21.5 7.64v-23.14l52.07-129.4h41.82V582h11.28v28.84a66.75 66.75 0 0 0 43.51-7.69c28.5-16.36 37.07-51.49 19.11-78.49Zm-381.15-441L82.53 87.8v18.64H71.59l6.91-17.56-16.4 4.4-6.19 15.38v12.57h26.62v22.31h15.45v-22.31h5.06v-14.79h-5.06V83.66zm0-10.35V50.68H79.24L66.77 81.67l31.21-8.36zm554.04 893.03 15.45-4.14v-18.63h10.94l-6.91 17.55 16.4-4.4 6.19-15.38v-12.57h-26.62v-22.31h-15.45v22.31h-5.06v14.8h5.06v22.77zm0 10.35v22.63h18.74l12.47-30.99-31.21 8.36z"/>
  </g>
</svg>
