<svg xmlns="http://www.w3.org/2000/svg" viewBox="0 0 750 1050">
  <defs>
    <clipPath id="clip-path">
      <path style="fill:none" d="M-36-36h822v1122H-36z"/>
    </clipPath>
    <style>
      .cls-4{fill:#282c44}
    </style>
  </defs>
  <rect width="750" height="1049.95" rx="44.82" style="fill:#fff" id="Ebene_2" data-name="Ebene 2"/>
  <g id="Ebene_1_Kopie_2" data-name="Ebene 1 Kopie 2">
    <path class="cls-4" d="M90.78 185.83a13.53 13.53 0 0 0-6.85 1.84l-.22-.32a13.1 13.1 0 0 0 6.14-11 12.9 12.9 0 0 0-12.58-13.2A13.42 13.42 0 0 0 64 176.22a12.82 12.82 0 0 0 6.21 11l-.17.25a13.15 13.15 0 0 0-6.21-1.66 13.42 13.42 0 0 0-13.32 13.09 13.12 13.12 0 0 0 13 13 13.38 13.38 0 0 0 9.38-3.79l-4.83 18h17.77L81 208a14.29 14.29 0 0 0 9.53 3.91 13.06 13.06 0 0 0 .28-26.1m568.41 678.36a13.53 13.53 0 0 0 6.85-1.84l.22.32a13.1 13.1 0 0 0-6.14 11 12.9 12.9 0 0 0 12.58 13.2A13.42 13.42 0 0 0 686 873.78a12.82 12.82 0 0 0-6.21-11l.17-.25a13.15 13.15 0 0 0 6.21 1.66 13.42 13.42 0 0 0 13.32-13.09 13.12 13.12 0 0 0-13-13 13.38 13.38 0 0 0-9.38 3.79l4.83-18h-17.77L669 842a14.29 14.29 0 0 0-9.53-3.91 13.06 13.06 0 0 0-.28 26.1" style="clip-path:url(#clip-path)"/>
    <path class="cls-4" d="M371.85 641.77q-17.69 0-28.35-7l-12.82 47.73h88.87l-14-52.09q-11.16 11.36-33.7 11.36Zm-44.62-44.72V571h34.48v26.09q0 11.7 10.14 11.7t10.25-11.7v-57.7q0-9.52-3.21-10.87c-1.24-.62-3.49-.93-6.73-.93-.83 0-1.69 0-2.59.1q-6.72.31-7.55 6l-.42 10.14h-34.47l2.4-59.33a65.1 65.1 0 0 0-20.18-3.5c-35.13-.4-66.18 29.41-66.58 65.45s30 64.67 65.14 65.08a64.68 64.68 0 0 0 20.18-3 73.23 73.23 0 0 1-.86-11.48Z"/>
    <path class="cls-4" d="M444.34 481a67.82 67.82 0 0 0-34.28 9.22l-1.09-1.6a65.59 65.59 0 0 0 30.7-55.11c.4-36.05-27.76-65.6-62.89-66S310.6 396.91 310.2 433a63.12 63.12 0 0 0 19.55 46.18l1.94-47.81h84.88v33h-51.76L363.15 499q3.21-3.72 17.39-3.73a37 37 0 0 1 3.94.21Q401 497 409.74 508.85q6.83 9.43 6.83 30.54v57.66a76.43 76.43 0 0 1-.47 8.63 69.54 69.54 0 0 0 26.79 5.85c35.13.41 63.94-28.48 64.34-64.52s-27.76-65.6-62.89-66.01ZM75.28 79.39l.67-13.91h23.19v-14.8H61.1l-1.33 32.87 15.51-4.16zm19.96 5.01L59.35 94l-.29 7.08h15.45l.19-4.55c.24-1.7 1.37-2.59 3.38-2.69h1.16a7.46 7.46 0 0 1 3 .42q1.42.6 1.43 4.87v25.83q0 5.25-4.59 5.25t-4.54-5.25v-11.71H59.11v11.69q0 20 20 20t20-20V99.11q0-9.47-3.06-13.69c-.23-.36-.52-.69-.81-1.02Zm559.52 881.2 35.89-9.6.29-7.08h-15.45l-.19 4.55c-.24 1.7-1.37 2.59-3.38 2.69h-1.16a7.5 7.5 0 0 1-3-.42q-1.43-.6-1.43-4.87v-25.81q0-5.25 4.59-5.25t4.54 5.25v11.69h15.45v-11.69q0-20-20-20t-20 20v25.83q0 9.47 3.06 13.69c.21.36.5.69.79 1.02Zm19.96 5.01-.67 13.91h-23.19v14.8h38.04l1.33-32.87-15.51 4.16z"/>
  </g>
</svg>
