<svg xmlns="http://www.w3.org/2000/svg" width="80" height="112" fill="none"><rect width="80" height="112" fill="#fff" rx="5"/><path fill="#2C2833" d="M7.756 22.124v1.508c0 2.912 1.456 4.576 4.264 4.576 2.808 0 4.264-1.664 4.264-4.576v-4.056c0-2.678-1.066-4.16-3.172-4.16-1.144 0-1.95.468-2.47 1.326h-.052l.234-4.342h4.992V9.8h-7.54l-.52 10.556h2.704v-.546c0-1.3.572-1.794 1.482-1.794s1.482.494 1.482 1.794v4.004c0 1.3-.572 1.768-1.482 1.768s-1.482-.468-1.482-1.768v-1.69H7.756Z"/><path fill="#2C2833" fill-rule="evenodd" d="M8.863 39.804a3.137 3.137 0 1 1 6.008 1.266 3.137 3.137 0 1 1-1.538 5.693v3.904h-2.666v-3.904a3.137 3.137 0 1 1-1.538-5.693 3.126 3.126 0 0 1-.266-1.266ZM35.294 49.706a4.706 4.706 0 1 1 9.013 1.899A4.706 4.706 0 1 1 42 60.145V66h-4v-5.855a4.706 4.706 0 1 1-2.307-8.54 4.69 4.69 0 0 1-.399-1.9Z" clip-rule="evenodd"/><path fill="#2C2833" d="M72.244 89.876v-1.508c0-2.912-1.456-4.576-4.264-4.576-2.808 0-4.264 1.664-4.264 4.576v4.056c0 2.678 1.066 4.16 3.172 4.16 1.144 0 1.95-.468 2.47-1.326h.052l-.234 4.342h-4.992v2.6h7.54l.52-10.556H69.54v.546c0 1.3-.572 1.794-1.482 1.794s-1.482-.494-1.482-1.794v-4.004c0-1.3.572-1.768 1.482-1.768s1.482.468 1.482 1.768v1.69h2.704Z"/><path fill="#2C2833" fill-rule="evenodd" d="M71.137 72.196a3.137 3.137 0 1 1-6.008-1.266 3.137 3.137 0 1 1 1.538-5.693v-3.904h2.666v3.904a3.137 3.137 0 1 1 1.538 5.693c.171.387.266.816.266 1.266Z" clip-rule="evenodd"/></svg>