<?xml version="1.0" encoding="UTF-8"?><svg xmlns="http://www.w3.org/2000/svg" viewBox="0 0 750 1050"><g id="uuid-b450a0d5-afd6-4fc9-99f0-fed6b36692d9"><rect width="750" height="1049.95" rx="44.82" ry="44.82" style="fill:#fff;"/></g><g id="uuid-f8bc50d1-ec28-491c-9021-26f11df13c0b"><g><path d="M370.9,676.8c-15.32,0-27.6-3.06-36.85-9.14l-16.68,62.09h115.53l-18.18-67.72c-9.69,9.84-24.29,14.77-43.82,14.77Z" style="fill:#282c44;"/><path d="M312.9,618.67v-33.91h44.81v33.91c0,10.14,4.4,15.21,13.19,15.21s13.32-5.07,13.32-15.21v-74.96c0-8.25-1.39-12.96-4.17-14.13-1.61-.81-4.53-1.21-8.75-1.21-1.08,0-2.2,.05-3.36,.13-5.83,.27-9.11,2.87-9.82,7.81l-.54,13.19h-44.81l3.12-77.13c-8.35-2.86-17.18-4.45-26.24-4.56-45.67-.53-86.03,38.22-86.55,85.08-.52,46.86,39,84.07,84.67,84.6,9.02,.1,17.85-1.3,26.24-3.95-.73-4.6-1.11-9.55-1.11-14.88Z" style="fill:#282c44;"/><path d="M465.14,467.81c-15.61-.18-31.01,4.23-44.55,11.98l-1.43-2.09c23.64-14.7,39.58-41.2,39.91-71.64,.52-46.86-36.09-85.27-81.76-85.8-45.67-.53-86.03,38.22-86.55,85.08-.26,23.62,9.66,44.78,25.41,60.03l2.52-62.15h110.35v42.93h-67.29l-2.15,45.08c2.78-3.23,10.32-4.84,22.61-4.84,1.7,0,3.41,.09,5.11,.27,14.35,1.26,25.3,7.04,32.84,17.36,5.92,8.16,8.88,21.4,8.88,39.7v74.96c0,3.94-.21,7.67-.61,11.22,10.93,4.75,22.79,7.47,34.83,7.61,45.67,.53,83.12-37.03,83.63-83.88,.52-46.86-36.09-85.27-81.76-85.8Z" style="fill:#282c44;"/></g><g><path d="M107.26,94.51l-46.66,12.5-.37,9.21h20.08l.24-5.91c.32-2.21,1.79-3.38,4.4-3.5,.52-.04,1.02-.06,1.51-.06,1.89,0,3.2,.18,3.92,.54,1.25,.52,1.87,2.63,1.87,6.33v33.59c0,4.54-1.99,6.81-5.97,6.81s-5.91-2.27-5.91-6.81v-15.2h-20.08v15.2c0,17.37,8.66,26.05,25.99,26.05s26.05-8.68,26.05-26.05v-33.59c0-8.2-1.33-14.13-3.98-17.79-.34-.47-.71-.9-1.09-1.33Z" style="fill:#282c44;"/><polygon points="81.31 88.01 82.17 69.91 112.32 69.91 112.32 50.68 62.88 50.68 61.15 93.41 81.31 88.01" style="fill:#282c44;"/></g><path d="M101.85,229.36c-3.12-.04-6.2,.85-8.91,2.4l-.29-.42c4.73-2.94,7.92-8.24,7.98-14.33,.1-9.37-7.22-17.05-16.35-17.16-9.14-.11-17.21,7.64-17.31,17.02-.07,6.09,3.25,11.36,8.08,14.34l-.22,.33c-2.44-1.35-5.2-2.13-8.08-2.17-9.14-.11-17.21,7.64-17.31,17.02-.1,9.37,7.8,16.81,16.93,16.92,4.61,.05,8.98-1.84,12.2-4.92l-6.28,23.38h23.11l-6.32-23.53c3.29,3.1,7.78,5.03,12.39,5.08,9.13,.11,16.62-7.4,16.73-16.78,.1-9.37-7.22-17.05-16.35-17.16" style="fill:#282c44;"/><g><path d="M642.74,955.49l46.66-12.5,.37-9.21h-20.08l-.24,5.91c-.32,2.21-1.79,3.38-4.4,3.5-.52,.04-1.02,.06-1.51,.06-1.89,0-3.2-.18-3.92-.54-1.25-.52-1.87-2.63-1.87-6.33v-33.59c0-4.54,1.99-6.81,5.97-6.81s5.91,2.27,5.91,6.81v15.2h20.08v-15.2c0-17.37-8.66-26.05-25.99-26.05s-26.05,8.68-26.05,26.05v33.59c0,8.2,1.33,14.13,3.98,17.79,.34,.47,.71,.9,1.09,1.33Z" style="fill:#282c44;"/><polygon points="668.69 961.99 667.83 980.09 637.68 980.09 637.68 999.32 687.12 999.32 688.85 956.59 668.69 961.99" style="fill:#282c44;"/></g><path d="M648.15,820.64c3.12,.04,6.2-.85,8.91-2.4l.29,.42c-4.73,2.94-7.92,8.24-7.98,14.33-.1,9.37,7.22,17.05,16.35,17.16,9.14,.11,17.21-7.64,17.31-17.02,.07-6.09-3.25-11.36-8.08-14.34l.22-.33c2.44,1.35,5.2,2.13,8.08,2.17,9.14,.11,17.21-7.64,17.31-17.02,.1-9.37-7.8-16.81-16.93-16.92-4.61-.05-8.98,1.84-12.2,4.92l6.28-23.38h-23.11l6.32,23.53c-3.29-3.1-7.78-5.03-12.39-5.08-9.13-.11-16.62,7.4-16.73,16.78-.1,9.37,7.22,17.05,16.35,17.16" style="fill:#282c44;"/></g></svg>