<?xml version="1.0" encoding="UTF-8"?><svg xmlns="http://www.w3.org/2000/svg" viewBox="0 0 750 1050"><g id="uuid-4a88ae1d-dc77-48bd-9660-d8f9946ff60a"><rect width="750" height="1049.95" rx="44.82" ry="44.82" style="fill:#fff;"/></g><g id="uuid-b054d485-8c2c-432f-8aa2-1e971cbddd76"><g><polygon points="402.32 359.14 375.01 320.25 347.7 359.14 402.32 359.14" style="fill:#a4203a;"/><path d="M432.46,402.07h-66.89l-2.15,45.08c2.78-3.23,10.32-4.84,22.61-4.84,1.7,0,3.41,.09,5.11,.27,14.35,1.26,25.3,7.04,32.84,17.36,5.92,8.17,8.88,21.4,8.88,39.7v74.96c0,38.76-19.38,58.13-58.13,58.13s-58-19.38-58-58.13v-33.91h44.81v33.91c0,10.14,4.4,15.21,13.19,15.21s13.32-5.07,13.32-15.21v-74.96c0-8.25-1.39-12.96-4.17-14.13-1.61-.81-4.53-1.21-8.75-1.21-1.08,0-2.2,.05-3.36,.13-5.83,.27-9.11,2.87-9.82,7.81l-.54,13.19h-44.81l4.38-108.22-89.76,127.8,143.8,204.75,143.77-204.75-86.32-122.93Z" style="fill:#a4203a;"/></g><g><path d="M107.26,94.51l-46.66,12.5-.37,9.21h20.08l.24-5.91c.32-2.21,1.79-3.38,4.4-3.5,.52-.04,1.02-.06,1.51-.06,1.89,0,3.2,.18,3.92,.54,1.25,.52,1.87,2.63,1.87,6.33v33.59c0,4.54-1.99,6.81-5.97,6.81s-5.91-2.27-5.91-6.81v-15.2h-20.08v15.2c0,17.37,8.66,26.05,25.99,26.05s26.05-8.68,26.05-26.05v-33.59c0-8.2-1.33-14.13-3.98-17.79-.34-.47-.71-.9-1.09-1.33Z" style="fill:#a4203a;"/><polygon points="81.31 88.01 82.17 69.91 112.32 69.91 112.32 50.68 62.88 50.68 61.15 93.41 81.31 88.01" style="fill:#a4203a;"/></g><polygon points="82.89 196.22 54.13 237.17 82.89 278.12 111.65 237.17 82.89 196.22" style="fill:#a4203a;"/><g><path d="M642.74,955.49l46.66-12.5,.37-9.21h-20.08l-.24,5.91c-.32,2.21-1.79,3.38-4.4,3.5-.52,.04-1.02,.06-1.51,.06-1.89,0-3.2-.18-3.92-.54-1.25-.52-1.87-2.63-1.87-6.33v-33.59c0-4.54,1.99-6.81,5.97-6.81s5.91,2.27,5.91,6.81v15.2h20.08v-15.2c0-17.37-8.66-26.05-25.99-26.05s-26.05,8.68-26.05,26.05v33.59c0,8.2,1.33,14.13,3.98,17.79,.34,.47,.71,.9,1.09,1.33Z" style="fill:#a4203a;"/><polygon points="668.69 961.99 667.83 980.09 637.68 980.09 637.68 999.32 687.12 999.32 688.85 956.59 668.69 961.99" style="fill:#a4203a;"/></g><polygon points="667.11 853.78 695.87 812.83 667.11 771.88 638.35 812.83 667.11 853.78" style="fill:#a4203a;"/></g></svg>