<svg xmlns="http://www.w3.org/2000/svg" width="80" height="112" fill="none"><rect width="80" height="112" fill="#fff" rx="5"/><path fill="#DC3059" d="M7.756 22.124v1.508c0 2.912 1.456 4.576 4.264 4.576 2.808 0 4.264-1.664 4.264-4.576v-4.056c0-2.678-1.066-4.16-3.172-4.16-1.144 0-1.95.468-2.47 1.326h-.052l.234-4.342h4.992V9.8h-7.54l-.52 10.556h2.704v-.546c0-1.3.572-1.794 1.482-1.794s1.482.494 1.482 1.794v4.004c0 1.3-.572 1.768-1.482 1.768s-1.482-.468-1.482-1.768v-1.69H7.756ZM12.057 36.667l5.276 7.295-5.39 7.371-5.276-7.295 5.39-7.371ZM40.085 45 48 55.943 39.915 67 32 56.057 40.085 45ZM72.244 89.876v-1.508c0-2.912-1.456-4.576-4.264-4.576-2.808 0-4.264 1.664-4.264 4.576v4.056c0 2.678 1.066 4.16 3.172 4.16 1.144 0 1.95-.468 2.47-1.326h.052l-.234 4.342h-4.992v2.6h7.54l.52-10.556H69.54v.546c0 1.3-.572 1.794-1.482 1.794s-1.482-.494-1.482-1.794v-4.004c0-1.3.572-1.768 1.482-1.768s1.482.468 1.482 1.768v1.69h2.704ZM67.943 75.333l-5.276-7.295 5.39-7.371 5.276 7.295-5.39 7.371Z"/></svg>