<svg xmlns="http://www.w3.org/2000/svg" viewBox="0 0 750 1050">
  <rect width="750" height="1049.95" rx="44.82" style="fill:#fff" data-name="Ebene 2"/>
  <g data-name="Ebene 1 Kopie 2">
    <path style="fill:#a4203a" d="M77.32 163 55.2 194.5 77.32 226l22.12-31.5L77.32 163zM672.68 887l22.12-31.5-22.12-31.5-22.12 31.5 22.12 31.5zM396.01 397.41l-21-29.91L354 397.41h42.01zM419.2 430.44h-51.45l-1.66 34.67q3.21-3.72 17.39-3.72c1.31 0 2.63.07 3.94.2Q404 463 412.68 475q6.82 9.42 6.83 30.53v57.66q0 44.73-44.72 44.72t-44.62-44.72v-26.13h34.47v26.08q0 11.7 10.15 11.7t10.21-11.7v-57.66c0-6.34-1.07-10-3.21-10.86-1.24-.63-3.49-.94-6.73-.94-.83 0-1.69 0-2.59.11-4.48.2-7 2.21-7.55 6l-.42 10.15h-34.43l3.37-83.25L264.4 525 375 682.5 485.6 525ZM95.24 84.4 59.35 94l-.29 7.08h15.45l.19-4.55c.24-1.7 1.37-2.59 3.38-2.69h1.16a7.46 7.46 0 0 1 3 .42q1.42.6 1.43 4.87v25.83q0 5.25-4.59 5.25t-4.54-5.25v-11.71H59.11v11.69q0 20 20 20t20-20V99.11q0-9.47-3.06-13.69c-.23-.36-.52-.69-.81-1.02ZM75.28 79.39l.67-13.91h23.19v-14.8H61.1l-1.33 32.87 15.51-4.16zM654.76 965.6l35.89-9.6.29-7.08h-15.45l-.19 4.55c-.24 1.7-1.37 2.59-3.38 2.69h-1.16a7.73 7.73 0 0 1-3-.41c-1-.41-1.43-2-1.43-4.88v-25.81c0-3.5 1.53-5.24 4.59-5.24s4.54 1.74 4.54 5.24v11.69h15.45v-11.69q0-20-20-20t-20 20v25.83q0 9.47 3.06 13.69c.21.36.5.69.79 1.02ZM674.72 970.61l-.67 13.91h-23.19v14.8h38.04l1.33-32.87-15.51 4.16z"/>
  </g>
</svg>
