<svg xmlns="http://www.w3.org/2000/svg" viewBox="0 0 750 1050"><defs><style>.cls-1{fill:#fff;}.cls-2{fill:#a4203a;}</style></defs><g id="Ebene_2" data-name="Ebene 2"><rect class="cls-1" width="750" height="1049.95" rx="44.82"/></g><g id="Ebene_1_Kopie_2" data-name="Ebene 1 Kopie 2"><polygon class="cls-2" points="77.32 163 55.2 194.5 77.32 226 99.44 194.5 77.32 163"/><polygon class="cls-2" points="672.68 887 694.8 855.5 672.68 824 650.56 855.5 672.68 887"/><polygon class="cls-2" points="396.01 397.41 375.01 367.5 354 397.41 396.01 397.41"/><path class="cls-2" d="M419.2,430.44H367.75l-1.66,34.67q3.21-3.72,17.39-3.72c1.31,0,2.63.07,3.94.2Q404,463,412.68,475q6.82,9.42,6.83,30.53v57.66q0,44.73-44.72,44.72t-44.62-44.72V537.06h34.47v26.08q0,11.7,10.15,11.7T385,563.14V505.48c0-6.34-1.07-10-3.21-10.86-1.24-.63-3.49-.94-6.73-.94-.83,0-1.69,0-2.59.11-4.48.2-7,2.21-7.55,6l-.42,10.15H330.07l3.37-83.25L264.4,525,375,682.5,485.6,525Z"/><path class="cls-2" d="M95.24,84.4,59.35,94l-.29,7.08H74.51l.19-4.55c.24-1.7,1.37-2.59,3.38-2.69.4,0,.79,0,1.16,0a7.46,7.46,0,0,1,3,.42q1.42.6,1.43,4.87v25.83q0,5.25-4.59,5.25t-4.54-5.25V113.25H59.11v11.69q0,20,20,20t20-20V99.11q0-9.47-3.06-13.69C95.82,85.06,95.53,84.73,95.24,84.4Z"/><polygon class="cls-2" points="75.28 79.39 75.95 65.48 99.14 65.48 99.14 50.68 61.1 50.68 59.77 83.55 75.28 79.39"/><path class="cls-2" d="M654.76,965.6,690.65,956l.29-7.08H675.49l-.19,4.55c-.24,1.7-1.37,2.59-3.38,2.69-.4,0-.79,0-1.16,0a7.73,7.73,0,0,1-3-.41c-1-.41-1.43-2-1.43-4.88V925.06c0-3.5,1.53-5.24,4.59-5.24s4.54,1.74,4.54,5.24v11.69h15.45V925.06q0-20-20-20t-20,20v25.83q0,9.47,3.06,13.69C654.18,964.94,654.47,965.27,654.76,965.6Z"/><polygon class="cls-2" points="674.72 970.61 674.05 984.52 650.86 984.52 650.86 999.32 688.9 999.32 690.23 966.45 674.72 970.61"/></g></svg>