<svg xmlns="http://www.w3.org/2000/svg" xmlns:xlink="http://www.w3.org/1999/xlink" viewBox="0 0 750 1050"><defs><style>.cls-1{fill:none;}.cls-2{fill:#fff;}.cls-3{fill:#a4203a;}.cls-4{clip-path:url(#clip-path);}</style><clipPath id="clip-path"><rect class="cls-1" x="-36" y="-36" width="822" height="1122"/></clipPath></defs><g id="Ebene_2" data-name="Ebene 2"><rect class="cls-2" width="750" height="1049.95" rx="44.82"/></g><g id="Ebene_1_Kopie_2" data-name="Ebene 1 Kopie 2"><path class="cls-3" d="M403,637.62q-10.69,7-28.34,7-16.12,0-26.41-5.85L375,681.65v.85Z"/><path class="cls-3" d="M478,379.37C444,358.59,397.35,367.87,375,401.52c-22.34-33.65-69-43.78-103-23-34.43,21.07-44.75,66.39-23,101.23h0l81.75,131a73.28,73.28,0,0,1-.77-10.92V573.8h34.47v26.08q0,11.7,10.14,11.7t10.25-11.7V542.23q0-9.53-3.21-10.87-1.86-.93-6.73-.93c-.82,0-1.69,0-2.58.1q-6.73.32-7.56,6l-.41,10.15H330l4.55-112.52h84.88v33H367.63L366,501.86q3.21-3.74,17.39-3.73a37,37,0,0,1,3.93.21q16.56,1.44,25.26,13.35,6.84,9.42,6.83,30.54v57.65a70.35,70.35,0,0,1-1.19,13.39L501,480.6h0C522.69,445.76,512.38,400.44,478,379.37Z"/><path class="cls-3" d="M83.69,99.11q0-4.27-1.43-4.87a7.46,7.46,0,0,0-3-.42c-.37,0-.76,0-1.16,0-2,.1-3.14,1-3.38,2.69l-.19,4.55H59.06l2-50.42h38v14.8H76L75.21,81c1-1.12,3.55-1.67,7.79-1.67a17.29,17.29,0,0,1,1.76.09q7.42.65,11.32,6,3.06,4.23,3.06,13.69v25.83q0,20-20,20t-20-20V113.25H74.56v11.69q0,5.25,4.54,5.25t4.59-5.25Z"/><path class="cls-3" d="M666.31,950.89c0,2.85.48,4.47,1.43,4.88a7.73,7.73,0,0,0,3,.41c.37,0,.76,0,1.16,0,2-.1,3.14-1,3.38-2.69l.19-4.55h15.45l-2,50.42h-38V984.53h23.19l.74-15.54q-1.42,1.66-7.79,1.67a17.47,17.47,0,0,1-1.76-.1q-7.43-.64-11.32-6-3.06-4.23-3.06-13.69V925.06q0-20,20-20t20,20v11.69H675.44V925.06c0-3.5-1.51-5.24-4.54-5.24s-4.59,1.74-4.59,5.24Z"/><g class="cls-4"><path class="cls-3" d="M98.54,165.5c-7-4.16-16.61-2.3-21.22,4.43v-.17c-4.6-6.73-14.23-8.59-21.23-4.43a14.34,14.34,0,0,0-4.74,20.25l26-15.42-26,15.42,26,40.38v.17l26-40.38-26-15.42,26,15.42a14.35,14.35,0,0,0-4.75-20.25"/><path class="cls-3" d="M651.46,884.5c7,4.16,16.61,2.3,21.22-4.43v.17c4.6,6.73,14.23,8.59,21.23,4.43a14.34,14.34,0,0,0,4.74-20.25l-26,15.42,26-15.42-26-40.38v-.17l-26,40.38,26,15.42-26-15.42a14.35,14.35,0,0,0,4.75,20.25"/></g><rect class="cls-2" x="10.15" y="79.02" width="134.33" height="10" transform="translate(-19.11 22.87) rotate(-15)"/><rect class="cls-2" x="605.52" y="960.98" width="134.33" height="10" transform="translate(-227.08 207.01) rotate(-15)"/></g></svg>