<svg xmlns="http://www.w3.org/2000/svg" width="80" height="112" fill="none"><rect width="80" height="112" fill="#fff" rx="5"/><path fill="#DC3059" d="M7.756 22.124v1.508c0 2.912 1.456 4.576 4.264 4.576 2.808 0 4.264-1.664 4.264-4.576v-4.056c0-2.678-1.066-4.16-3.172-4.16-1.144 0-1.95.468-2.47 1.326h-.052l.234-4.342h4.992V9.8h-7.54l-.52 10.556h2.704v-.546c0-1.3.572-1.794 1.482-1.794s1.482.494 1.482 1.794v4.004c0 1.3-.572 1.768-1.482 1.768s-1.482-.468-1.482-1.768v-1.69H7.756ZM17.002 39.107c1.33 1.475 1.33 3.868 0 5.344L12 50l-5.002-5.55c-1.33-1.475-1.33-3.868 0-5.343 1.33-1.476 3.487-1.476 4.817 0l.185.205.185-.205c1.33-1.476 3.487-1.476 4.817 0ZM47.504 48.66c1.995 2.214 1.995 5.802 0 8.016L40 65l-7.504-8.324c-1.995-2.214-1.995-5.802 0-8.016 1.996-2.213 5.23-2.213 7.226 0l.278.308.278-.308c1.995-2.213 5.23-2.213 7.226 0ZM72.244 89.876v-1.508c0-2.912-1.456-4.576-4.264-4.576-2.808 0-4.264 1.664-4.264 4.576v4.056c0 2.678 1.066 4.16 3.172 4.16 1.144 0 1.95-.468 2.47-1.326h.052l-.234 4.342h-4.992v2.6h7.54l.52-10.556H69.54v.546c0 1.3-.572 1.794-1.482 1.794s-1.482-.494-1.482-1.794v-4.004c0-1.3.572-1.768 1.482-1.768s1.482.468 1.482 1.768v1.69h2.704ZM62.998 72.893c-1.33-1.475-1.33-3.868 0-5.344L68 62l5.002 5.55c1.33 1.475 1.33 3.868 0 5.343-1.33 1.476-3.486 1.476-4.817 0L68 72.688l-.185.205c-1.33 1.476-3.487 1.476-4.817 0Z"/></svg>