<?xml version="1.0" encoding="UTF-8"?><svg xmlns="http://www.w3.org/2000/svg" viewBox="0 0 750 1050"><g id="uuid-fe6e4ca7-43d1-4d76-bbfc-43c55e083d89"><rect width="750" height="1049.95" rx="44.82" ry="44.82" style="fill:#fff;"/></g><g id="uuid-94f8e735-4345-43b2-92a8-14206cd40c10"><g><path d="M411.41,671.37c-9.26,6.04-21.53,9.08-36.83,9.08-13.98,0-25.42-2.55-34.34-7.61l34.79,55.77v1.11l36.39-58.34Z" style="fill:#a4203a;"/><path d="M508.83,335.64c-44.13-27.01-104.78-14.95-133.81,28.8-29.04-43.75-89.7-56.91-133.84-29.91-44.76,27.39-58.18,86.31-29.93,131.6h.06l106.27,170.37c-.66-4.4-1-9.13-1-14.19v-33.91h44.81v33.91c0,10.14,4.4,15.21,13.19,15.21s13.32-5.07,13.32-15.21v-74.96c0-8.25-1.39-12.96-4.17-14.13-1.61-.81-4.53-1.21-8.75-1.21-1.08,0-2.2,.05-3.36,.13-5.83,.27-9.11,2.87-9.82,7.81l-.54,13.19h-44.81l5.92-146.28h110.35v42.93h-67.29l-2.15,45.08c2.78-3.23,10.32-4.84,22.61-4.84,1.7,0,3.41,.09,5.11,.27,14.35,1.26,25.3,7.04,32.84,17.36,5.92,8.16,8.88,21.4,8.88,39.7v74.96c0,6.32-.52,12.11-1.55,17.4l107.57-172.47h.02c28.25-45.29,14.85-104.21-29.91-131.6Z" style="fill:#a4203a;"/></g><g><path d="M107.26,94.51l-46.66,12.5-.37,9.21h20.08l.24-5.91c.32-2.21,1.79-3.38,4.4-3.5,.52-.04,1.02-.06,1.51-.06,1.89,0,3.2,.18,3.92,.54,1.25,.52,1.87,2.63,1.87,6.33v33.59c0,4.54-1.99,6.81-5.97,6.81s-5.91-2.27-5.91-6.81v-15.2h-20.08v15.2c0,17.37,8.66,26.05,25.99,26.05s26.05-8.68,26.05-26.05v-33.59c0-8.2-1.33-14.13-3.98-17.79-.34-.47-.71-.9-1.09-1.33Z" style="fill:#a4203a;"/><polygon points="81.31 88.01 82.17 69.91 112.32 69.91 112.32 50.68 62.88 50.68 61.15 93.41 81.31 88.01" style="fill:#a4203a;"/></g><path d="M110.57,204.89c-9.1-5.4-21.6-2.99-27.59,5.76v-.22c-5.99-8.75-18.5-11.16-27.6-5.76-9.23,5.48-12,17.26-6.17,26.32l33.77-20.04-33.75,20.04,33.75,52.49v.22l33.75-52.49-33.75-20.04,33.76,20.04c5.82-9.06,3.06-20.84-6.17-26.32" style="fill:#a4203a;"/></g></svg>