<svg xmlns="http://www.w3.org/2000/svg" width="80" height="112" fill="none"><rect width="80" height="112" fill="#fff" rx="5"/><path fill="#2C2833" d="M7.756 22.124v1.508c0 2.912 1.456 4.576 4.264 4.576 2.808 0 4.264-1.664 4.264-4.576v-4.056c0-2.678-1.066-4.16-3.172-4.16-1.144 0-1.95.468-2.47 1.326h-.052l.234-4.342h4.992V9.8h-7.54l-.52 10.556h2.704v-.546c0-1.3.572-1.794 1.482-1.794s1.482.494 1.482 1.794v4.004c0 1.3-.572 1.768-1.482 1.768s-1.482-.468-1.482-1.768v-1.69H7.756Z"/><path fill="#2C2833" fill-rule="evenodd" d="M7.553 42.266c-1.182 1.312-1.182 3.439 0 4.75.882.978 2.172 1.227 3.262.747v2.904h2.37v-2.904c1.09.48 2.38.231 3.262-.747 1.182-1.311 1.182-3.438 0-4.75L12 37.333l-4.447 4.933ZM33.33 53.4c-1.773 1.967-1.773 5.157 0 7.124 1.323 1.468 3.258 1.84 4.892 1.12V66h3.556v-4.356c1.634.72 3.57.348 4.892-1.12 1.773-1.967 1.773-5.157 0-7.125L40 46l-6.67 7.4Z" clip-rule="evenodd"/><path fill="#2C2833" d="M72.244 89.876v-1.508c0-2.912-1.456-4.576-4.264-4.576-2.808 0-4.264 1.664-4.264 4.576v4.056c0 2.678 1.066 4.16 3.172 4.16 1.144 0 1.95-.468 2.47-1.326h.052l-.234 4.342h-4.992v2.6h7.54l.52-10.556H69.54v.546c0 1.3-.572 1.794-1.482 1.794s-1.482-.494-1.482-1.794v-4.004c0-1.3.572-1.768 1.482-1.768s1.482.468 1.482 1.768v1.69h2.704Z"/><path fill="#2C2833" fill-rule="evenodd" d="M72.447 69.734c1.182-1.312 1.182-3.439 0-4.75-.882-.978-2.172-1.227-3.262-.746v-2.905h-2.37v2.904c-1.09-.48-2.38-.231-3.262.747-1.182 1.311-1.182 3.438 0 4.75L68 74.667l4.447-4.933Z" clip-rule="evenodd"/></svg>