<svg xmlns="http://www.w3.org/2000/svg" viewBox="0 0 750 1050">
  <defs>
    <clipPath id="a">
      <path style="fill:none" d="M-36-36h822v1122H-36z"/>
    </clipPath>
  </defs>
  <rect width="750" height="1049.95" rx="44.82" style="fill:#fff" data-name="Ebene 2"/>
  <g data-name="Ebene 1 Kopie 2">
    <g style="clip-path:url(#a)">
      <path d="m97.72 194.56-17.81 10.22 17.79-10.22-20.8-31.3v-.13l-20.79 31.3a10.92 10.92 0 0 0 3.8 15.69 13.34 13.34 0 0 0 12.47.31l-4.22 15.7h17.48l-4.16-15.5a13.55 13.55 0 0 0 12.43-.38 10.91 10.91 0 0 0 3.81-15.69M652.28 855.44l17.81-10.22-17.79 10.22 20.8 31.3v.13l20.79-31.3a10.92 10.92 0 0 0-3.8-15.69 13.34 13.34 0 0 0-12.47-.31l4.22-15.7h-17.48l4.16 15.5a13.55 13.55 0 0 0-12.43.38 10.91 10.91 0 0 0-3.81 15.69" style="fill:#282c44"/>
    </g>
    <path style="fill:#282c44" d="M345.25 412.12h58.95l-29.27-43.96v-.66l-29.68 44.62zM336.44 577.85v-26.09h34.47v26.09q0 11.7 10.14 11.7t10.25-11.7v-57.66q0-9.53-3.21-10.87-1.86-.93-6.73-.93c-.83 0-1.69 0-2.59.1q-6.72.31-7.55 6l-.42 10.14h-34.47l4.27-105.53L270.84 524c-17.94 27-9.45 62.12 19 78.44a66.54 66.54 0 0 0 54.34 4.92q-7.73-10.85-7.74-29.51Z"/>
    <path d="m479.13 524.66-53.36-80.14v.62H374l-1.65 34.68q3.21-3.74 17.39-3.73a37 37 0 0 1 3.93.21q16.56 1.45 25.26 13.35 6.82 9.42 6.83 30.54v57.66q0 21.6-10.44 32.75a66.82 66.82 0 0 0 44.73-7.48c28.47-16.33 37.04-51.46 19.08-78.46ZM381.05 622.57q-20.22 0-31.27-9.2l-18.59 69.13h87.49l-17-63.12a60.44 60.44 0 0 1-20.63 3.19ZM95.24 84.4 59.35 94l-.29 7.08h15.45l.19-4.55c.24-1.7 1.37-2.59 3.38-2.69h1.16a7.46 7.46 0 0 1 3 .42q1.42.6 1.43 4.87v25.83q0 5.25-4.59 5.25t-4.54-5.25v-11.71H59.11v11.69q0 20 20 20t20-20V99.11q0-9.47-3.06-13.69c-.23-.36-.52-.69-.81-1.02ZM75.28 79.39l.67-13.91h23.19v-14.8H61.1l-1.33 32.87 15.51-4.16zM654.76 965.6l35.89-9.6.29-7.08h-15.45l-.18 4.55c-.25 1.7-1.38 2.59-3.39 2.69h-1.16a7.41 7.41 0 0 1-3-.42q-1.44-.6-1.44-4.87v-25.81q0-5.25 4.59-5.25t4.55 5.25v11.69h15.44v-11.69q0-20-20-20t-20 20v25.83q0 9.47 3.06 13.69c.23.36.51.69.8 1.02ZM674.72 970.61l-.67 13.91h-23.19v14.8h38.04l1.33-32.87-15.51 4.16z" style="fill:#282c44"/>
  </g>
</svg>
