<?xml version="1.0" encoding="UTF-8"?><svg xmlns="http://www.w3.org/2000/svg" viewBox="0 0 750 1050"><g id="uuid-dbc13739-b443-4ac3-bc9c-d3b015c5f53b"><rect width="750" height="1049.95" rx="44.82" ry="44.82" style="fill:#fff;"/></g><g id="uuid-ee9d00d4-26c9-4f8a-b80c-f2fa1df9aa9f"><g><polygon points="336.33 378.26 412.96 378.26 374.91 321.11 374.91 320.25 336.33 378.26" style="fill:#282c44;"/><path d="M324.87,593.7v-33.91h44.81v33.91c0,10.14,4.4,15.21,13.19,15.21s13.32-5.07,13.32-15.21v-74.96c0-8.25-1.39-12.96-4.17-14.13-1.61-.81-4.53-1.21-8.75-1.21-1.08,0-2.2,.05-3.36,.13-5.83,.27-9.11,2.87-9.82,7.81l-.54,13.19h-44.81l5.55-137.19-90.69,136.36,.05,.03c-23.32,35.1-12.29,80.75,24.7,101.98,21.71,12.46,47.76,14.18,70.64,6.39-6.74-9.43-10.12-22.21-10.12-38.39Z" style="fill:#282c44;"/><path d="M510.37,524.56l-69.37-104.18v.81h-67.29l-2.15,45.08c2.78-3.23,10.32-4.84,22.61-4.84,1.7,0,3.41,.09,5.11,.27,14.35,1.26,25.3,7.04,32.84,17.36,5.92,8.16,8.88,21.4,8.88,39.7v74.96c0,18.72-4.53,32.9-13.57,42.58,19.57,3.45,40.45,.44,58.15-9.72,37-21.23,48.13-66.9,24.79-102.01Z" style="fill:#282c44;"/><path d="M382.87,651.84c-17.53,0-31.07-4-40.65-11.96l-24.17,89.88h113.73l-22.05-82.06c-7.58,2.76-16.52,4.15-26.86,4.15Z" style="fill:#282c44;"/></g><g><path d="M107.26,94.51l-46.66,12.5-.37,9.21h20.08l.24-5.91c.32-2.21,1.79-3.38,4.4-3.5,.52-.04,1.02-.06,1.51-.06,1.89,0,3.2,.18,3.92,.54,1.25,.52,1.87,2.63,1.87,6.33v33.59c0,4.54-1.99,6.81-5.97,6.81s-5.91-2.27-5.91-6.81v-15.2h-20.08v15.2c0,17.37,8.66,26.05,25.99,26.05s26.05-8.68,26.05-26.05v-33.59c0-8.2-1.33-14.13-3.98-17.79-.34-.47-.71-.9-1.09-1.33Z" style="fill:#282c44;"/><polygon points="81.31 88.01 82.17 69.91 112.32 69.91 112.32 50.68 62.88 50.68 61.15 93.41 81.31 88.01" style="fill:#282c44;"/></g><path d="M110.02,242.67l-23.15,13.29h0s23.13-13.29,23.13-13.29l-27.04-40.69v-.17l-27.04,40.69h.01c-4.66,7.03-2.45,16.16,4.94,20.4,5.02,2.88,11.19,2.89,16.21,.41l-5.48,20.4h22.72l-5.41-20.15c4.99,2.4,11.2,2.36,16.16-.49,7.39-4.25,9.62-13.38,4.95-20.4" style="fill:#282c44;"/></g></svg>