<svg xmlns="http://www.w3.org/2000/svg" xmlns:xlink="http://www.w3.org/1999/xlink" viewBox="0 0 750 1050"><defs><style>.cls-1{fill:none;}.cls-2{fill:#fff;}.cls-3{clip-path:url(#clip-path);}.cls-4{fill:#282c44;}</style><clipPath id="clip-path"><rect class="cls-1" x="-36" y="-36" width="822" height="1122"/></clipPath></defs><g id="Ebene_2" data-name="Ebene 2"><rect class="cls-2" width="750" height="1049.95" rx="44.82"/></g><g id="Ebene_1_Kopie_2" data-name="Ebene 1 Kopie 2"><g class="cls-3"><path class="cls-4" d="M97.72,194.56,79.91,204.78h0L97.7,194.56l-20.8-31.3v-.13l-20.79,31.3h0a10.92,10.92,0,0,0,3.8,15.69,13.34,13.34,0,0,0,12.47.31l-4.22,15.7H85.64l-4.16-15.5a13.55,13.55,0,0,0,12.43-.38,10.91,10.91,0,0,0,3.81-15.69"/><path class="cls-4" d="M652.28,855.44l17.81-10.22h0L652.3,855.44l20.8,31.3v.13l20.79-31.3h0a10.92,10.92,0,0,0-3.8-15.69,13.34,13.34,0,0,0-12.47-.31l4.22-15.7H664.36l4.16,15.5a13.55,13.55,0,0,0-12.43.38,10.91,10.91,0,0,0-3.81,15.69"/></g><polygon class="cls-4" points="345.25 412.12 404.2 412.12 374.93 368.16 374.93 367.5 345.25 412.12"/><path class="cls-4" d="M336.44,577.85V551.76h34.47v26.09q0,11.7,10.14,11.7t10.25-11.7V520.19q0-9.53-3.21-10.87-1.86-.93-6.73-.93c-.83,0-1.69,0-2.59.1q-6.72.31-7.55,6l-.42,10.14H336.33l4.27-105.53L270.84,524l0,0c-17.94,27-9.45,62.12,19,78.44a66.54,66.54,0,0,0,54.34,4.92Q336.45,596.51,336.44,577.85Z"/><path class="cls-4" d="M479.13,524.66l-53.36-80.14v.62H374l-1.65,34.68q3.21-3.74,17.39-3.73a37,37,0,0,1,3.93.21q16.56,1.45,25.26,13.35,6.82,9.42,6.83,30.54v57.66q0,21.6-10.44,32.75a66.82,66.82,0,0,0,44.73-7.48C488.52,586.79,497.09,551.66,479.13,524.66Z"/><path class="cls-4" d="M381.05,622.57q-20.22,0-31.27-9.2L331.19,682.5h87.49l-17-63.12A60.44,60.44,0,0,1,381.05,622.57Z"/><path class="cls-4" d="M95.24,84.4,59.35,94l-.29,7.08H74.51l.19-4.55c.24-1.7,1.37-2.59,3.38-2.69.4,0,.79,0,1.16,0a7.46,7.46,0,0,1,3,.42q1.42.6,1.43,4.87v25.83q0,5.25-4.59,5.25t-4.54-5.25V113.25H59.11v11.69q0,20,20,20t20-20V99.11q0-9.47-3.06-13.69C95.82,85.06,95.53,84.73,95.24,84.4Z"/><polygon class="cls-4" points="75.28 79.39 75.95 65.48 99.14 65.48 99.14 50.68 61.1 50.68 59.77 83.55 75.28 79.39"/><path class="cls-4" d="M654.76,965.6,690.65,956l.29-7.08H675.49l-.18,4.55c-.25,1.7-1.38,2.59-3.39,2.69-.4,0-.79,0-1.16,0a7.41,7.41,0,0,1-3-.42q-1.44-.6-1.44-4.87V925.06q0-5.25,4.59-5.25t4.55,5.25v11.69h15.44V925.06q0-20-20-20t-20,20v25.83q0,9.47,3.06,13.69C654.19,964.94,654.47,965.27,654.76,965.6Z"/><polygon class="cls-4" points="674.72 970.61 674.05 984.52 650.86 984.52 650.86 999.32 688.9 999.32 690.23 966.45 674.72 970.61"/></g></svg>