<svg xmlns="http://www.w3.org/2000/svg" viewBox="0 0 750 1050">
  <defs>
    <clipPath id="a">
      <path style="fill:none" d="M-36-36h822v1122H-36z"/>
    </clipPath>
  </defs>
  <rect width="750" height="1049.95" rx="44.82" style="fill:#fff" data-name="Ebene 2"/>
  <g data-name="Ebene 1 Kopie 2">
    <g style="clip-path:url(#a)">
      <path d="M90.78 185.83a13.53 13.53 0 0 0-6.85 1.84l-.22-.32a13.1 13.1 0 0 0 6.14-11 12.9 12.9 0 0 0-12.58-13.2A13.42 13.42 0 0 0 64 176.22a12.82 12.82 0 0 0 6.21 11l-.17.25a13.15 13.15 0 0 0-6.21-1.66 13.42 13.42 0 0 0-13.32 13.09 13.12 13.12 0 0 0 13 13 13.38 13.38 0 0 0 9.38-3.79l-4.83 18h17.77L81 208a14.29 14.29 0 0 0 9.53 3.91 13.06 13.06 0 0 0 .28-26.1M659.22 864.17a13.53 13.53 0 0 0 6.85-1.84l.22.32a13.1 13.1 0 0 0-6.14 11 12.9 12.9 0 0 0 12.58 13.2A13.42 13.42 0 0 0 686 873.78a12.82 12.82 0 0 0-6.21-11l.17-.25a13.15 13.15 0 0 0 6.21 1.66 13.42 13.42 0 0 0 13.32-13.09 13.12 13.12 0 0 0-13-13 13.38 13.38 0 0 0-9.38 3.79l4.83-18h-17.77L669 842a14.29 14.29 0 0 0-9.53-3.91 13.06 13.06 0 0 0-.28 26.1" style="fill:#282c44"/>
    </g>
    <path d="M373.53 612.42q10.25 0 10.25-11.7v-40.37q0-9.63-3.21-10.87c-1.24-.62-3.49-.93-6.73-.93-.83 0-1.69 0-2.59.1q-7.86.32-7.86 11.7v40.37q0 11.7 10.14 11.7ZM328.92 478.3v-1.8q0-44.82 44.61-44.82t44.72 44.82v5.09a65.77 65.77 0 0 0 21.42-48.08c.4-36.05-27.76-65.6-62.89-66S310.6 396.91 310.2 433a63 63 0 0 0 18.72 45.3ZM373.53 645.44q-19.59 0-30.58-8.63l-12.27 45.69h88.87l-12.86-47.88q-11.17 10.8-33.16 10.82Z" style="fill:#282c44"/>
    <path d="M444.34 481a66.19 66.19 0 0 0-26.09 5.2v19.6h-34.47v-29.3q0-11.7-10.15-11.7h-.2q-10.05 0-10 11.7v44q4.44-4 17.59-4c1.52 0 3.11.07 4.77.2q15.21 1.56 23.8 10.87t8.7 32.82v40.37c0 2-.07 3.91-.21 5.77a69.18 69.18 0 0 0 24.85 5c35.13.41 63.94-28.48 64.34-64.52s-27.8-65.6-62.93-66.01ZM328.92 600.72V484.31a64.58 64.58 0 0 0-19.57-3.31c-35.13-.4-66.18 29.41-66.58 65.45s30 64.67 65.14 65.08a64.36 64.36 0 0 0 21.35-3.42q-.34-3.52-.34-7.39ZM72.75 80.07V69.28q0-5.23 4.5-5.24h.09q4.55 0 4.55 5.24v8.34l15.44-4.14v-4.2q0-20.08-20-20.09t-20 20.09v14.93ZM83.91 87.43 57.3 94.56v30.38q0 20 20 20t20-20v-18.09q0-10.48-3.89-14.7a15.69 15.69 0 0 0-9.5-4.72Zm-2 37.51q0 5.25-4.6 5.25t-4.54-5.25v-18.09q0-5.1 3.52-5.24h1.16a7.46 7.46 0 0 1 3 .42c1 .37 1.44 2 1.44 4.87ZM677.25 969.93v10.79q0 5.24-4.5 5.24h-.09q-4.54 0-4.55-5.24v-8.34l-15.44 4.14v4.2q0 20.09 20 20.09t20-20.09v-14.93ZM666.09 962.57l26.61-7.13v-30.38q0-20-20-20t-20 20v18.09q0 10.49 3.89 14.7a15.69 15.69 0 0 0 9.5 4.72Zm2-37.51q0-5.25 4.6-5.25t4.54 5.25v18.09q0 5.1-3.52 5.24c-.41 0-.79.05-1.16.05a7.46 7.46 0 0 1-3-.42c-1-.37-1.44-2-1.44-4.87Z" style="fill:#282c44"/>
  </g>
</svg>
