<?xml version="1.0" encoding="UTF-8"?><svg xmlns="http://www.w3.org/2000/svg" viewBox="0 0 750 1050"><g id="uuid-cfad7c4b-ccf0-41f1-b259-a6092fdd2999"><rect width="750" height="1049.95" rx="44.82" ry="44.82" style="fill:#fff;"/></g><g id="uuid-fa89d616-5c84-403d-a4da-b591d4757b35"><g><path d="M373.09,638.64c8.88,0,13.32-5.07,13.32-15.21v-52.48c0-8.34-1.39-13.05-4.17-14.13-1.61-.81-4.53-1.21-8.75-1.21-1.08,0-2.2,.05-3.36,.13-6.82,.27-10.23,5.34-10.23,15.21v52.48c0,10.14,4.4,15.21,13.19,15.21Z" style="fill:#282c44;"/><path d="M315.09,464.29v-2.34c0-38.84,19.33-58.27,58-58.27s58.13,19.42,58.13,58.27v6.62c16.84-15.32,27.57-37.6,27.84-62.51,.52-46.86-36.09-85.27-81.76-85.8-45.67-.53-86.03,38.22-86.55,85.08-.26,23.07,9.21,43.79,24.33,58.96Z" style="fill:#282c44;"/><path d="M373.09,681.57c-16.98,0-30.23-3.74-39.76-11.22l-15.96,59.4h115.53l-16.71-62.25c-9.69,9.37-24.05,14.07-43.11,14.07Z" style="fill:#282c44;"/><path d="M465.14,467.81c-11.65-.14-23.18,2.29-33.91,6.75v25.48h-44.81v-38.08c0-10.14-4.4-15.21-13.19-15.21h-.27c-8.7,0-13.05,5.07-13.05,15.21v57.19c3.86-3.5,11.48-5.25,22.88-5.25,1.97,0,4.04,.09,6.19,.27,13.19,1.35,23.5,6.06,30.95,14.13,7.54,8.16,11.3,22.39,11.3,42.66v52.48c0,2.59-.09,5.09-.27,7.51,10.22,4.09,21.18,6.42,32.3,6.55,45.67,.53,83.12-37.03,83.63-83.88,.52-46.86-36.09-85.27-81.76-85.8Z" style="fill:#282c44;"/><path d="M315.09,623.43v-151.33c-8.11-2.69-16.67-4.19-25.44-4.29-45.67-.53-86.03,38.22-86.55,85.08-.52,46.86,39,84.07,84.67,84.6,9.57,.11,18.92-1.47,27.76-4.44-.29-3.06-.44-6.26-.44-9.61Z" style="fill:#282c44;"/></g><g><path d="M78.01,89.34v-14.03c0-4.54,1.95-6.81,5.85-6.81h.12c3.94,0,5.91,2.27,5.91,6.81v10.85l20.08-5.38v-5.47c0-17.41-8.68-26.11-26.05-26.11s-25.99,8.71-25.99,26.11v19.41l20.08-5.38Z" style="fill:#282c44;"/><path d="M92.52,98.91l-34.59,9.27v39.49c0,17.37,8.66,26.05,25.99,26.05s26.05-8.68,26.05-26.05v-23.52c0-9.08-1.69-15.46-5.07-19.12-3.05-3.31-7.19-5.34-12.39-6.13Zm-2.63,48.76c0,4.54-1.99,6.81-5.97,6.81s-5.91-2.27-5.91-6.81v-23.52c0-4.42,1.53-6.69,4.58-6.81,.52-.04,1.03-.06,1.51-.06,1.89,0,3.2,.18,3.92,.54,1.25,.48,1.87,2.59,1.87,6.33v23.52Z" style="fill:#282c44;"/></g><path d="M101.85,229.36c-3.12-.04-6.2,.85-8.91,2.4l-.29-.42c4.73-2.94,7.92-8.24,7.98-14.33,.1-9.37-7.22-17.05-16.35-17.16-9.14-.11-17.21,7.64-17.31,17.02-.07,6.09,3.25,11.36,8.08,14.34l-.22,.33c-2.44-1.35-5.2-2.13-8.08-2.17-9.14-.11-17.21,7.64-17.31,17.02-.1,9.37,7.8,16.81,16.93,16.92,4.61,.05,8.98-1.84,12.2-4.92l-6.28,23.38h23.11l-6.32-23.53c3.29,3.1,7.78,5.03,12.39,5.08,9.13,.11,16.62-7.4,16.73-16.78,.1-9.37-7.22-17.05-16.35-17.16" style="fill:#282c44;"/></g></svg>