<svg xmlns="http://www.w3.org/2000/svg" viewBox="0 0 750 1050"><defs><style>.cls-1{fill:#fff;}.cls-2{fill:#a4203a;}</style></defs><g id="Ebene_2" data-name="Ebene 2"><rect class="cls-1" width="750" height="1049.95" rx="44.82"/></g><g id="Ebene_1_Kopie_2" data-name="Ebene 1 Kopie 2"><polygon class="cls-2" points="77.32 163 55.2 194.5 77.32 226 99.44 194.5 77.32 163"/><polygon class="cls-2" points="672.68 887 694.8 855.5 672.68 824 650.56 855.5 672.68 887"/><path class="cls-2" d="M330.33,607.88V483.67q0-44.82,44.62-44.83t44.72,44.83V513H385.2V483.67q0-11.7-10.15-11.7h-.21q-10,0-10,11.7v44q4.45-4,17.6-4c1.52,0,3.11.07,4.76.21q15.22,1.56,23.81,10.87t8.7,32.81v40.37a71.21,71.21,0,0,1-1,12.48l67-95.36L375,367.5,264.4,525l67,95.33A71.87,71.87,0,0,1,330.33,607.88Z"/><path class="cls-2" d="M375,652.6q-14.47,0-24.25-4.72L375,682.5l24.34-34.66Q389.53,652.6,375,652.6Z"/><path class="cls-2" d="M375.26,555.71c-.83,0-1.69,0-2.59.11q-7.86.3-7.87,11.69v40.37q0,11.7,10.15,11.7t10.25-11.7V567.51q0-9.62-3.21-10.87C380.75,556,378.5,555.71,375.26,555.71Z"/><path class="cls-2" d="M72.75,80.07V69.28q0-5.23,4.5-5.24h.09q4.55,0,4.55,5.24v8.34l15.44-4.14v-4.2q0-20.08-20-20.09t-20,20.09V84.21Z"/><path class="cls-2" d="M83.91,87.43,57.3,94.56v30.38q0,20,20,20t20-20V106.85q0-10.48-3.89-14.7A15.69,15.69,0,0,0,83.91,87.43Zm-2,37.51q0,5.25-4.6,5.25t-4.54-5.25V106.85q0-5.1,3.52-5.24c.41,0,.79,0,1.16,0a7.46,7.46,0,0,1,3,.42c1,.37,1.44,2,1.44,4.87Z"/><path class="cls-2" d="M677.25,969.93v10.79c0,3.5-1.5,5.24-4.5,5.24h-.09c-3,0-4.55-1.74-4.55-5.24v-8.34l-15.44,4.14v4.2q0,20.09,20,20.09t20-20.09V965.79Z"/><path class="cls-2" d="M666.09,962.57l26.61-7.13V925.06q0-20-20-20t-20,20v18.09q0,10.49,3.89,14.7A15.69,15.69,0,0,0,666.09,962.57Zm2-37.51c0-3.5,1.53-5.24,4.6-5.24s4.54,1.74,4.54,5.24v18.09q0,5.1-3.52,5.24c-.41,0-.79.05-1.16.05a7.46,7.46,0,0,1-3-.42c-1-.37-1.44-2-1.44-4.87Z"/></g></svg>