<?xml version="1.0" encoding="UTF-8"?><svg xmlns="http://www.w3.org/2000/svg" viewBox="0 0 750 1050"><g id="uuid-55e1ab0d-f42e-4c06-acfe-2253bf18782c"><rect width="750" height="1049.95" rx="44.82" ry="44.82" style="fill:#fff;"/></g><g id="uuid-feaf4f7b-da73-4c38-bc60-de5e80ef44cf"><g><path d="M316.93,632.75v-161.48c0-38.85,19.33-58.27,58-58.27s58.13,19.42,58.13,58.27v38.08h-44.81v-38.08c0-10.14-4.4-15.21-13.19-15.21h-.27c-8.7,0-13.05,5.07-13.05,15.21v57.19c3.86-3.5,11.48-5.25,22.88-5.25,1.97,0,4.04,.09,6.19,.27,13.19,1.35,23.5,6.06,30.95,14.13,7.54,8.16,11.3,22.38,11.3,42.66v52.48c0,5.85-.45,11.25-1.33,16.22l87.05-123.97-143.77-204.75-143.8,204.75,87.04,123.94c-.88-4.96-1.32-10.35-1.32-16.19Z" style="fill:#a4203a;"/><path d="M374.93,690.88c-12.55,0-23.05-2.05-31.52-6.14l31.6,45,31.64-45.06c-8.52,4.12-19.08,6.2-31.72,6.2Z" style="fill:#a4203a;"/><path d="M375.34,564.93c-1.08,0-2.2,.05-3.36,.13-6.82,.27-10.23,5.34-10.23,15.21v52.48c0,10.14,4.4,15.21,13.19,15.21s13.32-5.07,13.32-15.21v-52.48c0-8.34-1.39-13.05-4.17-14.13-1.61-.81-4.53-1.21-8.75-1.21Z" style="fill:#a4203a;"/></g><g><path d="M78.01,89.34v-14.03c0-4.54,1.95-6.81,5.85-6.81h.12c3.94,0,5.91,2.27,5.91,6.81v10.85l20.08-5.38v-5.47c0-17.41-8.68-26.11-26.05-26.11s-25.99,8.71-25.99,26.11v19.41l20.08-5.38Z" style="fill:#a4203a;"/><path d="M92.52,98.91l-34.59,9.27v39.49c0,17.37,8.66,26.05,25.99,26.05s26.05-8.68,26.05-26.05v-23.52c0-9.08-1.69-15.46-5.07-19.12-3.05-3.31-7.19-5.34-12.39-6.13Zm-2.63,48.76c0,4.54-1.99,6.81-5.97,6.81s-5.91-2.27-5.91-6.81v-23.52c0-4.42,1.53-6.69,4.58-6.81,.52-.04,1.03-.06,1.51-.06,1.89,0,3.2,.18,3.92,.54,1.25,.48,1.87,2.59,1.87,6.33v23.52Z" style="fill:#a4203a;"/></g><polygon points="82.89 196.22 54.13 237.17 82.89 278.12 111.65 237.17 82.89 196.22" style="fill:#a4203a;"/></g></svg>