<svg xmlns="http://www.w3.org/2000/svg" width="80" height="112" fill="none"><rect width="80" height="112" fill="#fff" rx="5"/><path fill="#DC3059" d="M7.704 23.632c0 2.912 1.534 4.576 4.342 4.576s4.342-1.664 4.342-4.576v-3.328c0-2.678-1.066-4.16-3.172-4.16-1.274 0-2.106.546-2.6 1.586h-.052v-3.302c0-1.742.572-2.236 1.586-2.236.91 0 1.482.494 1.482 1.794v.65h2.704v-.468c0-2.912-1.456-4.576-4.264-4.576-2.964 0-4.368 1.664-4.368 4.732v9.308Zm4.342-4.888c.91 0 1.482.494 1.482 1.794v3.276c0 1.3-.572 1.768-1.482 1.768s-1.482-.468-1.482-1.768v-3.276c0-1.3.572-1.794 1.482-1.794ZM17.002 39.107c1.33 1.475 1.33 3.868 0 5.344L12 50l-5.002-5.55c-1.33-1.475-1.33-3.868 0-5.343 1.33-1.476 3.487-1.476 4.817 0l.185.205.185-.205c1.33-1.476 3.487-1.476 4.817 0ZM47.504 48.66c1.995 2.214 1.995 5.802 0 8.016L40 65l-7.504-8.324c-1.995-2.214-1.995-5.802 0-8.016 1.996-2.213 5.23-2.213 7.226 0l.278.308.278-.308c1.995-2.213 5.23-2.213 7.226 0ZM72.296 88.368c0-2.912-1.534-4.576-4.342-4.576s-4.342 1.664-4.342 4.576v3.328c0 2.678 1.066 4.16 3.172 4.16 1.274 0 2.106-.546 2.6-1.586h.052v3.302c0 1.742-.572 2.236-1.586 2.236-.91 0-1.482-.494-1.482-1.794v-.65h-2.704v.468c0 2.912 1.456 4.576 4.264 4.576 2.964 0 4.368-1.664 4.368-4.732v-9.308Zm-4.342 4.888c-.91 0-1.482-.494-1.482-1.794v-3.276c0-1.3.572-1.768 1.482-1.768s1.482.468 1.482 1.768v3.276c0 1.3-.572 1.794-1.482 1.794ZM62.998 72.893c-1.33-1.475-1.33-3.868 0-5.344L68 62l5.002 5.55c1.33 1.475 1.33 3.868 0 5.343-1.33 1.476-3.486 1.476-4.817 0L68 72.688l-.185.205c-1.33 1.476-3.487 1.476-4.817 0Z"/></svg>