<?xml version="1.0" encoding="UTF-8"?><svg xmlns="http://www.w3.org/2000/svg" viewBox="0 0 750 1050"><g id="uuid-3e18d54a-2f3d-4d1d-89b5-a968cd567350"><rect width="750" height="1049.95" rx="44.82" ry="44.82" style="fill:#fff;"/></g><g id="uuid-c6de334a-c4d1-45ae-a9e5-6cd42cfb397c"><g><path d="M389.5,622.31v-52.48c0-8.34-1.39-13.05-4.17-14.13-1.61-.81-4.53-1.21-8.75-1.21-1.08,0-2.2,.05-3.36,.13-6.82,.27-10.23,5.34-10.23,15.21v52.48c0,10.14,4.4,15.21,13.19,15.21s13.32-5.07,13.32-15.21Z" style="fill:#a4203a;"/><path d="M410.44,672.93c-8.92,5-20.33,7.52-34.26,7.52-15.37,0-27.67-3.07-36.93-9.2l35.77,57.36v1.11l35.42-56.79Z" style="fill:#a4203a;"/><path d="M508.83,335.64c-44.13-27.01-104.78-14.95-133.81,28.8-29.04-43.75-89.7-56.91-133.84-29.91-44.76,27.39-58.18,86.31-29.94,131.6h.06l108.5,173.95c-1.08-5.39-1.63-11.3-1.63-17.77v-161.48c0-38.84,19.33-58.27,58-58.27s58.13,19.42,58.13,58.27v38.08h-44.81v-38.08c0-10.14-4.4-15.21-13.19-15.21h-.27c-8.7,0-13.05,5.07-13.05,15.21v57.19c3.86-3.5,11.48-5.25,22.88-5.25,1.97,0,4.04,.09,6.19,.27,13.19,1.35,23.5,6.06,30.95,14.13,7.54,8.16,11.3,22.38,11.3,42.66v52.48c0,4.93-.32,9.55-.95,13.85l105.36-168.92h.02c28.25-45.29,14.85-104.21-29.91-131.6Z" style="fill:#a4203a;"/></g><g><path d="M78.01,89.34v-14.03c0-4.54,1.95-6.81,5.85-6.81h.12c3.94,0,5.91,2.27,5.91,6.81v10.85l20.08-5.38v-5.47c0-17.41-8.68-26.11-26.05-26.11s-25.99,8.71-25.99,26.11v19.41l20.08-5.38Z" style="fill:#a4203a;"/><path d="M92.52,98.91l-34.59,9.27v39.49c0,17.37,8.66,26.05,25.99,26.05s26.05-8.68,26.05-26.05v-23.52c0-9.08-1.69-15.46-5.07-19.12-3.05-3.31-7.19-5.34-12.39-6.13Zm-2.63,48.76c0,4.54-1.99,6.81-5.97,6.81s-5.91-2.27-5.91-6.81v-23.52c0-4.42,1.53-6.69,4.58-6.81,.52-.04,1.03-.06,1.51-.06,1.89,0,3.2,.18,3.92,.54,1.25,.48,1.87,2.59,1.87,6.33v23.52Z" style="fill:#a4203a;"/></g><path d="M110.57,204.89c-9.1-5.4-21.6-2.99-27.59,5.76v-.22c-5.99-8.75-18.5-11.16-27.6-5.76-9.23,5.48-12,17.26-6.17,26.32l33.77-20.04-33.75,20.04,33.75,52.49v.22l33.75-52.49-33.75-20.04,33.76,20.04c5.82-9.06,3.06-20.84-6.17-26.32" style="fill:#a4203a;"/></g></svg>