<svg xmlns="http://www.w3.org/2000/svg" viewBox="0 0 750 1050">
  <defs>
    <clipPath id="a">
      <path style="fill:none" d="M-36-36h822v1122H-36z"/>
    </clipPath>
  </defs>
  <rect width="750" height="1049.95" rx="44.82" style="fill:#fff" data-name="Ebene 2"/>
  <g data-name="Ebene 1 Kopie 2">
    <path d="M386.16 599.88v-40.37c0-6.41-1.08-10-3.21-10.87q-1.87-.93-6.73-.93c-.83 0-1.69 0-2.59.11q-7.87.3-7.87 11.69v40.37q0 11.7 10.15 11.7t10.25-11.7ZM402.26 638.82q-10.29 5.77-26.35 5.78-17.75 0-28.41-7.07l27.5 44.12v.85Z" style="fill:#a4203a"/>
    <path d="M478 379.37c-34-20.78-80.65-11.5-103 22.15-22.34-33.65-69-43.78-103-23-34.43 21.07-44.75 66.39-23 101.23l83.46 133.81a70.56 70.56 0 0 1-1.25-13.68V475.67q0-44.82 44.62-44.83t44.72 44.83V505h-34.39v-29.33q0-11.7-10.15-11.7h-.21q-10 0-10 11.7v44q4.46-4 17.6-4c1.52 0 3.11.07 4.76.21q15.22 1.56 23.81 10.87t8.7 32.81v40.37a74.3 74.3 0 0 1-.73 10.66L501 480.6c21.69-34.84 11.38-80.16-23-101.23ZM97.33 124.94q0 20-20 20t-20-20V69.28q0-20.08 20-20.09t20 20.09v13.13H81.89V69.28q0-5.23-4.55-5.24h-.09q-4.5 0-4.5 5.24V89c1.33-1.2 4-1.81 7.88-1.81.68 0 1.4 0 2.14.1q6.81.69 10.67 4.87t3.89 14.7Zm-24.58 0q0 5.25 4.54 5.25t4.6-5.25v-18.09c0-2.87-.48-4.5-1.44-4.87a7.46 7.46 0 0 0-3-.42h-1.16q-3.52.14-3.52 5.24ZM652.67 925.06q0-20 20-20t20 20v55.66q0 20.09-20 20.08t-20-20.08v-13.13h15.44v13.13q0 5.24 4.55 5.24h.09q4.5 0 4.5-5.24V961q-2 1.8-7.88 1.8c-.68 0-1.4 0-2.14-.09q-6.81-.69-10.67-4.87t-3.89-14.7Zm24.58 0q0-5.25-4.54-5.25t-4.6 5.25v18.09c0 2.87.48 4.5 1.44 4.87a7.69 7.69 0 0 0 3 .41h1.16c2.35-.1 3.52-1.84 3.52-5.24Z" style="fill:#a4203a"/>
    <g style="clip-path:url(#a)">
      <path d="M98.54 165.5c-7-4.16-16.61-2.3-21.22 4.43v-.17c-4.6-6.73-14.23-8.59-21.23-4.43a14.34 14.34 0 0 0-4.74 20.25l26-15.42-26 15.42 26 40.38v.17l26-40.38-26-15.42 26 15.42a14.35 14.35 0 0 0-4.75-20.25M651.46 884.5c7 4.16 16.61 2.3 21.22-4.43v.17c4.6 6.73 14.23 8.59 21.23 4.43a14.34 14.34 0 0 0 4.74-20.25l-26 15.42 26-15.42-26-40.38v-.17l-26 40.38 26 15.42-26-15.42a14.35 14.35 0 0 0 4.75 20.25" style="fill:#a4203a"/>
    </g>
    <path transform="rotate(-15 77.30244828 84.01243055)" style="fill:#fff" d="M10.15 79.02h134.33v10H10.15z"/>
    <path transform="rotate(-15 672.65852944 965.92692196)" style="fill:#fff" d="M605.52 960.98h134.33v10H605.52z"/>
  </g>
</svg>
