<svg xmlns="http://www.w3.org/2000/svg" xmlns:xlink="http://www.w3.org/1999/xlink" viewBox="0 0 750 1050"><defs><style>.cls-1{fill:none;}.cls-2{fill:#fff;}.cls-3{fill:#a4203a;}.cls-4{clip-path:url(#clip-path);}</style><clipPath id="clip-path"><rect class="cls-1" x="-36" y="-36" width="822" height="1122"/></clipPath></defs><g id="Ebene_2" data-name="Ebene 2"><rect class="cls-2" width="750" height="1049.95" rx="44.82"/></g><g id="Ebene_1_Kopie_2" data-name="Ebene 1 Kopie 2"><path class="cls-3" d="M386.16,599.88V559.51c0-6.41-1.08-10-3.21-10.87q-1.87-.93-6.73-.93c-.83,0-1.69,0-2.59.11q-7.87.3-7.87,11.69v40.37q0,11.7,10.15,11.7T386.16,599.88Z"/><path class="cls-3" d="M402.26,638.82q-10.29,5.77-26.35,5.78-17.75,0-28.41-7.07L375,681.65v.85Z"/><path class="cls-3" d="M478,379.37C444,358.59,397.35,367.87,375,401.52c-22.34-33.65-69-43.78-103-23-34.43,21.07-44.75,66.39-23,101.23h0l83.46,133.81a70.56,70.56,0,0,1-1.25-13.68V475.67q0-44.82,44.62-44.83t44.72,44.83V505H386.16V475.67q0-11.7-10.15-11.7h-.21q-10,0-10,11.7v44q4.46-4,17.6-4c1.52,0,3.11.07,4.76.21q15.22,1.56,23.81,10.87t8.7,32.81v40.37a74.3,74.3,0,0,1-.73,10.66L501,480.6h0C522.69,445.76,512.38,400.44,478,379.37Z"/><path class="cls-3" d="M97.33,124.94q0,20-20,20t-20-20V69.28q0-20.08,20-20.09t20,20.09V82.41H81.89V69.28q0-5.23-4.55-5.24h-.09q-4.5,0-4.5,5.24V89c1.33-1.2,4-1.81,7.88-1.81.68,0,1.4,0,2.14.1q6.81.69,10.67,4.87t3.89,14.7Zm-24.58,0q0,5.25,4.54,5.25t4.6-5.25V106.85c0-2.87-.48-4.5-1.44-4.87a7.46,7.46,0,0,0-3-.42c-.37,0-.75,0-1.16,0q-3.52.14-3.52,5.24Z"/><path class="cls-3" d="M652.67,925.06q0-20,20-20t20,20v55.66q0,20.09-20,20.08t-20-20.08V967.59h15.44v13.13q0,5.24,4.55,5.24h.09q4.5,0,4.5-5.24V961q-2,1.8-7.88,1.8c-.68,0-1.4,0-2.14-.09q-6.81-.69-10.67-4.87t-3.89-14.7Zm24.58,0q0-5.25-4.54-5.25t-4.6,5.25v18.09c0,2.87.48,4.5,1.44,4.87a7.69,7.69,0,0,0,3,.41c.37,0,.75,0,1.16,0,2.35-.1,3.52-1.84,3.52-5.24Z"/><g class="cls-4"><path class="cls-3" d="M98.54,165.5c-7-4.16-16.61-2.3-21.22,4.43v-.17c-4.6-6.73-14.23-8.59-21.23-4.43a14.34,14.34,0,0,0-4.74,20.25l26-15.42-26,15.42,26,40.38v.17l26-40.38-26-15.42,26,15.42a14.35,14.35,0,0,0-4.75-20.25"/><path class="cls-3" d="M651.46,884.5c7,4.16,16.61,2.3,21.22-4.43v.17c4.6,6.73,14.23,8.59,21.23,4.43a14.34,14.34,0,0,0,4.74-20.25l-26,15.42,26-15.42-26-40.38v-.17l-26,40.38,26,15.42-26-15.42a14.35,14.35,0,0,0,4.75,20.25"/></g><rect class="cls-2" x="10.15" y="79.02" width="134.33" height="10" transform="translate(-19.11 22.87) rotate(-15)"/><rect class="cls-2" x="605.52" y="960.98" width="134.33" height="10" transform="translate(-227.08 207.01) rotate(-15)"/></g></svg>