<svg xmlns="http://www.w3.org/2000/svg" xmlns:xlink="http://www.w3.org/1999/xlink" viewBox="0 0 750 1050"><defs><style>.cls-1{fill:none;}.cls-2{fill:#fff;}.cls-3{fill:#282c44;}.cls-4{clip-path:url(#clip-path);}</style><clipPath id="clip-path"><rect class="cls-1" x="-36" y="-36" width="822" height="1122"/></clipPath></defs><g id="Ebene_2" data-name="Ebene 2"><rect class="cls-2" width="750" height="1049.95" rx="44.82"/></g><g id="Ebene_1_Kopie_2" data-name="Ebene 1 Kopie 2"><path class="cls-3" d="M375.66,650.27q-21.8,0-32.93-10.68L331.19,682.5h87.49l-11.24-41.8Q396.32,650.27,375.66,650.27Z"/><path class="cls-3" d="M385.91,605.55V565.18c0-6.41-1.08-10-3.21-10.87q-1.87-.93-6.73-.93c-.83,0-1.69,0-2.59.11q-7.87.3-7.87,11.69v40.37q0,11.7,10.15,11.7T385.91,605.55Z"/><path class="cls-3" d="M479.13,524.66l-104.2-156.5v-.66L270.84,524l0,0c-17.94,27-9.45,62.12,19,78.44a65.89,65.89,0,0,0,41.31,8c-.09-1.58-.15-3.2-.15-4.88V481.34q0-44.82,44.62-44.83t44.72,44.83v29.29H385.91V481.34q0-11.7-10.15-11.7h-.21q-10,0-10,11.7v44q4.46-4,17.6-4c1.52,0,3.11.07,4.76.21q15.22,1.54,23.81,10.87t8.7,32.81v40.37c0,2-.07,3.88-.2,5.73a66.44,66.44,0,0,0,39.88-8.16C488.52,586.79,497.09,551.66,479.13,524.66Z"/><path class="cls-3" d="M83.91,87.43,57.3,94.56v30.38q0,20,20,20t20-20V106.85q0-10.48-3.89-14.7A15.69,15.69,0,0,0,83.91,87.43Zm-2,37.51q0,5.25-4.6,5.25t-4.54-5.25V106.85q0-5.1,3.52-5.24c.41,0,.79,0,1.16,0a7.46,7.46,0,0,1,3,.42c1,.37,1.44,2,1.44,4.87Z"/><path class="cls-3" d="M72.75,80.07V69.28q0-5.23,4.5-5.24h.09q4.55,0,4.55,5.24v8.34l15.44-4.14v-4.2q0-20.08-20-20.09t-20,20.09V84.21Z"/><path class="cls-3" d="M677.25,969.93v10.79q0,5.24-4.5,5.24h-.09q-4.54,0-4.55-5.24v-8.34l-15.44,4.14v4.2q0,20.09,20,20.09t20-20.09V965.79Z"/><path class="cls-3" d="M666.09,962.57l26.61-7.13V925.06q0-20-20-20t-20,20v18.09q0,10.49,3.89,14.7A15.69,15.69,0,0,0,666.09,962.57Zm2-37.51q0-5.25,4.6-5.25t4.54,5.25v18.09q0,5.1-3.52,5.24c-.41,0-.79.05-1.16.05a7.46,7.46,0,0,1-3-.42c-1-.37-1.44-2-1.44-4.87Z"/><g class="cls-4"><path class="cls-3" d="M97.72,194.56,79.91,204.78h0L97.7,194.56l-20.8-31.3v-.13l-20.79,31.3h0a10.92,10.92,0,0,0,3.8,15.69,13.34,13.34,0,0,0,12.47.31l-4.22,15.7H85.64l-4.16-15.5a13.55,13.55,0,0,0,12.43-.38,10.91,10.91,0,0,0,3.81-15.69"/><path class="cls-3" d="M652.28,855.44l17.81-10.22h0L652.3,855.44l20.8,31.3v.13l20.79-31.3h0a10.92,10.92,0,0,0-3.8-15.69,13.34,13.34,0,0,0-12.47-.31l4.22-15.7H664.36l4.16,15.5a13.55,13.55,0,0,0-12.43.38,10.91,10.91,0,0,0-3.81,15.69"/></g></g></svg>