<svg xmlns="http://www.w3.org/2000/svg" viewBox="0 0 750 1050">
  <defs>
    <clipPath id="clip-path">
      <path style="fill:none" d="M-36-36h822v1122H-36z"/>
    </clipPath>
    <style>
      .cls-3{fill:#282c44}
    </style>
  </defs>
  <rect width="750" height="1049.95" rx="44.82" style="fill:#fff" id="Ebene_2" data-name="Ebene 2"/>
  <g id="Ebene_1_Kopie_2" data-name="Ebene 1 Kopie 2">
    <path class="cls-3" d="M375.66 650.27q-21.8 0-32.93-10.68l-11.54 42.91h87.49l-11.24-41.8q-11.12 9.57-31.78 9.57Zm10.25-44.72v-40.37c0-6.41-1.08-10-3.21-10.87q-1.87-.93-6.73-.93c-.83 0-1.69 0-2.59.11q-7.87.3-7.87 11.69v40.37q0 11.7 10.15 11.7t10.25-11.7Z"/>
    <path class="cls-3" d="m479.13 524.66-104.2-156.5v-.66L270.84 524c-17.94 27-9.45 62.12 19 78.44a65.89 65.89 0 0 0 41.31 8c-.09-1.58-.15-3.2-.15-4.88V481.34q0-44.82 44.62-44.83t44.72 44.83v29.29h-34.43v-29.29q0-11.7-10.15-11.7h-.21q-10 0-10 11.7v44q4.46-4 17.6-4c1.52 0 3.11.07 4.76.21q15.22 1.54 23.81 10.87t8.7 32.81v40.37c0 2-.07 3.88-.2 5.73a66.44 66.44 0 0 0 39.88-8.16c28.42-16.38 36.99-51.51 19.03-78.51ZM83.91 87.43 57.3 94.56v30.38q0 20 20 20t20-20v-18.09q0-10.48-3.89-14.7a15.69 15.69 0 0 0-9.5-4.72Zm-2 37.51q0 5.25-4.6 5.25t-4.54-5.25v-18.09q0-5.1 3.52-5.24h1.16a7.46 7.46 0 0 1 3 .42c1 .37 1.44 2 1.44 4.87Zm-9.16-44.87V69.28q0-5.23 4.5-5.24h.09q4.55 0 4.55 5.24v8.34l15.44-4.14v-4.2q0-20.08-20-20.09t-20 20.09v14.93Zm604.5 889.86v10.79q0 5.24-4.5 5.24h-.09q-4.54 0-4.55-5.24v-8.34l-15.44 4.14v4.2q0 20.09 20 20.09t20-20.09v-14.93Zm-11.16-7.36 26.61-7.13v-30.38q0-20-20-20t-20 20v18.09q0 10.49 3.89 14.7a15.69 15.69 0 0 0 9.5 4.72Zm2-37.51q0-5.25 4.6-5.25t4.54 5.25v18.09q0 5.1-3.52 5.24c-.41 0-.79.05-1.16.05a7.46 7.46 0 0 1-3-.42c-1-.37-1.44-2-1.44-4.87Z"/>
    <path class="cls-3" d="m97.72 194.56-17.81 10.22 17.79-10.22-20.8-31.3v-.13l-20.79 31.3a10.92 10.92 0 0 0 3.8 15.69 13.34 13.34 0 0 0 12.47.31l-4.22 15.7h17.48l-4.16-15.5a13.55 13.55 0 0 0 12.43-.38 10.91 10.91 0 0 0 3.81-15.69m554.56 660.88 17.81-10.22-17.79 10.22 20.8 31.3v.13l20.79-31.3a10.92 10.92 0 0 0-3.8-15.69 13.34 13.34 0 0 0-12.47-.31l4.22-15.7h-17.48l4.16 15.5a13.55 13.55 0 0 0-12.43.38 10.91 10.91 0 0 0-3.81 15.69" style="clip-path:url(#clip-path)"/>
  </g>
</svg>
