<?xml version="1.0" encoding="UTF-8"?><svg xmlns="http://www.w3.org/2000/svg" viewBox="0 0 750 1050"><g id="uuid-26e84b99-588e-4813-a375-a31a3170c9ae"><rect width="750" height="1049.95" rx="44.82" ry="44.82" style="fill:#fff;"/></g><g id="uuid-87520b5b-015d-4e12-a2c9-9f2548136015"><g><path d="M375.85,687.85c-18.89,0-33.15-4.64-42.81-13.88l-15,55.78h113.73l-14.6-54.33c-9.63,8.29-23.4,12.44-41.32,12.44Z" style="fill:#282c44;"/><path d="M389.18,629.72v-52.48c0-8.34-1.39-13.05-4.17-14.13-1.61-.81-4.53-1.21-8.75-1.21-1.08,0-2.2,.05-3.36,.13-6.82,.27-10.23,5.34-10.23,15.21v52.48c0,10.14,4.4,15.21,13.19,15.21s13.32-5.07,13.32-15.21Z" style="fill:#282c44;"/><path d="M510.37,524.56l-135.46-203.45v-.86l-135.32,203.45,.05,.03c-23.32,35.1-12.29,80.75,24.7,101.98,16.49,9.46,35.49,12.74,53.7,10.35-.12-2.05-.19-4.16-.19-6.33v-161.48c0-38.84,19.33-58.27,58-58.27s58.13,19.42,58.13,58.27v38.08h-44.81v-38.08c0-10.14-4.4-15.21-13.19-15.21h-.27c-8.7,0-13.05,5.07-13.05,15.21v57.19c3.86-3.5,11.48-5.25,22.88-5.25,1.97,0,4.04,.09,6.19,.27,13.19,1.35,23.5,6.06,30.95,14.13,7.54,8.16,11.3,22.39,11.3,42.66v52.48c0,2.57-.09,5.04-.26,7.44,17.69,1.84,36.04-1.53,51.85-10.6,37-21.23,48.13-66.9,24.79-102.01Z" style="fill:#282c44;"/></g><g><path d="M78.01,89.34v-14.03c0-4.54,1.95-6.81,5.85-6.81h.12c3.94,0,5.91,2.27,5.91,6.81v10.85l20.08-5.38v-5.47c0-17.41-8.68-26.11-26.05-26.11s-25.99,8.71-25.99,26.11v19.41l20.08-5.38Z" style="fill:#282c44;"/><path d="M92.52,98.91l-34.59,9.27v39.49c0,17.37,8.66,26.05,25.99,26.05s26.05-8.68,26.05-26.05v-23.52c0-9.08-1.69-15.46-5.07-19.12-3.05-3.31-7.19-5.34-12.39-6.13Zm-2.63,48.76c0,4.54-1.99,6.81-5.97,6.81s-5.91-2.27-5.91-6.81v-23.52c0-4.42,1.53-6.69,4.58-6.81,.52-.04,1.03-.06,1.51-.06,1.89,0,3.2,.18,3.92,.54,1.25,.48,1.87,2.59,1.87,6.33v23.52Z" style="fill:#282c44;"/></g><path d="M110.02,242.67l-23.15,13.29h0s23.13-13.29,23.13-13.29l-27.04-40.69v-.17l-27.04,40.69h.01c-4.66,7.03-2.45,16.16,4.94,20.4,5.02,2.88,11.19,2.89,16.21,.41l-5.48,20.4h22.72l-5.41-20.15c4.99,2.4,11.2,2.36,16.16-.49,7.39-4.25,9.62-13.38,4.95-20.4" style="fill:#282c44;"/><g><path d="M671.99,960.62v14.03c0,4.54-1.95,6.81-5.85,6.81h-.12c-3.94,0-5.91-2.27-5.91-6.81v-10.85l-20.08,5.38v5.47c0,17.41,8.68,26.11,26.05,26.11s25.99-8.71,25.99-26.11v-19.41l-20.08,5.38Z" style="fill:#282c44;"/><path d="M657.48,951.04l34.59-9.27v-39.49c0-17.37-8.66-26.05-25.99-26.05s-26.05,8.68-26.05,26.05v23.52c0,9.08,1.69,15.46,5.07,19.12,3.05,3.31,7.19,5.34,12.39,6.13Zm2.63-48.76c0-4.54,1.99-6.81,5.97-6.81s5.91,2.27,5.91,6.81v23.52c0,4.42-1.53,6.69-4.58,6.81-.52,.04-1.03,.06-1.51,.06-1.89,0-3.2-.18-3.92-.54-1.25-.48-1.87-2.59-1.87-6.33v-23.52Z" style="fill:#282c44;"/></g><path d="M639.98,807.33l23.15-13.29h0s-23.13,13.29-23.13,13.29l27.04,40.69v.17l27.04-40.69h-.01c4.66-7.03,2.45-16.16-4.94-20.4-5.02-2.88-11.19-2.89-16.21-.41l5.48-20.4h-22.72l5.41,20.15c-4.99-2.4-11.2-2.36-16.16,.49-7.39,4.25-9.62,13.38-4.95,20.4" style="fill:#282c44;"/></g></svg>