<svg xmlns="http://www.w3.org/2000/svg" viewBox="0 0 750 1050">
  <defs>
    <clipPath id="clip-path">
      <path style="fill:none" d="M-36-36h822v1122H-36z"/>
    </clipPath>
    <style>
      .cls-4{fill:#282c44}
    </style>
  </defs>
  <rect width="750" height="1049.95" rx="44.82" style="fill:#fff" id="Ebene_2" data-name="Ebene 2"/>
  <g id="Ebene_1_Kopie_2" data-name="Ebene 1 Kopie 2">
    <path class="cls-4" d="M90.78 185.83a13.53 13.53 0 0 0-6.85 1.84l-.22-.32a13.1 13.1 0 0 0 6.14-11 12.9 12.9 0 0 0-12.58-13.2A13.42 13.42 0 0 0 64 176.22a12.82 12.82 0 0 0 6.21 11l-.17.25a13.15 13.15 0 0 0-6.21-1.66 13.42 13.42 0 0 0-13.32 13.09 13.12 13.12 0 0 0 13 13 13.38 13.38 0 0 0 9.38-3.79l-4.83 18h17.77L81 208a14.29 14.29 0 0 0 9.53 3.91 13.06 13.06 0 0 0 .28-26.1m568.41 678.36a13.53 13.53 0 0 0 6.85-1.84l.22.32a13.1 13.1 0 0 0-6.14 11 12.9 12.9 0 0 0 12.58 13.2A13.42 13.42 0 0 0 686 873.78a12.82 12.82 0 0 0-6.21-11l.17-.25a13.15 13.15 0 0 0 6.21 1.66 13.42 13.42 0 0 0 13.32-13.09 13.12 13.12 0 0 0-13-13 13.38 13.38 0 0 0-9.38 3.79l4.83-18h-17.77L669 842a14.29 14.29 0 0 0-9.53-3.91 13.06 13.06 0 0 0-.28 26.1" style="clip-path:url(#clip-path)"/>
    <path class="cls-4" d="m359.66 682.5 38-169.09H343.4v-33h76.14a65.82 65.82 0 0 0 20.13-46.87c.4-36.05-27.76-65.6-62.89-66S310.6 396.91 310.2 433c-.25 23.41 12.49 43.69 31.08 55.14l-.86 1.26a65.73 65.73 0 0 0-31.07-8.4c-35.13-.4-66.18 29.41-66.58 65.45s30 64.67 65.14 65.08a67 67 0 0 0 46.92-18.94l-24.15 89.91Zm35.3 0h24.59l-13.38-49.83-11.21 49.83zM444.34 481a63 63 0 0 0-9.12.57v21.9L412.6 604.05a70 70 0 0 0 30.29 7.48c35.13.41 63.94-28.48 64.34-64.52s-27.76-65.6-62.89-66.01ZM78.24 78.6l16.85-4.52 2.94-13.06V50.68H56.88v14.8h24.31L78.24 78.6zm-2.47 11.01-12.11 53.93h15.81L92.61 85.1l-16.84 4.51zm598.46 870.77 12.11-53.92h-15.82l-13.14 58.44 16.85-4.52zm-2.47 11.02-16.85 4.51-2.94 13.07v10.34h41.15v-14.8h-24.31l2.95-13.12z"/>
  </g>
</svg>
