<svg xmlns="http://www.w3.org/2000/svg" xmlns:xlink="http://www.w3.org/1999/xlink" viewBox="0 0 750 1050"><defs><style>.cls-1{fill:none;}.cls-2{fill:#fff;}.cls-3{clip-path:url(#clip-path);}.cls-4{fill:#282c44;}</style><clipPath id="clip-path"><rect class="cls-1" x="-36" y="-36" width="822" height="1122"/></clipPath></defs><g id="Ebene_2" data-name="Ebene 2"><rect class="cls-2" width="750" height="1049.95" rx="44.82"/></g><g id="Ebene_1_Kopie_2" data-name="Ebene 1 Kopie 2"><g class="cls-3"><path class="cls-4" d="M90.78,185.83a13.53,13.53,0,0,0-6.85,1.84l-.22-.32a13.1,13.1,0,0,0,6.14-11,12.9,12.9,0,0,0-12.58-13.2A13.42,13.42,0,0,0,64,176.22a12.82,12.82,0,0,0,6.21,11l-.17.25a13.15,13.15,0,0,0-6.21-1.66,13.42,13.42,0,0,0-13.32,13.09,13.12,13.12,0,0,0,13,13,13.38,13.38,0,0,0,9.38-3.79l-4.83,18H85.83L81,208a14.29,14.29,0,0,0,9.53,3.91,13.06,13.06,0,0,0,.28-26.1"/><path class="cls-4" d="M659.22,864.17a13.53,13.53,0,0,0,6.85-1.84l.22.32a13.1,13.1,0,0,0-6.14,11,12.9,12.9,0,0,0,12.58,13.2A13.42,13.42,0,0,0,686,873.78a12.82,12.82,0,0,0-6.21-11l.17-.25a13.15,13.15,0,0,0,6.21,1.66,13.42,13.42,0,0,0,13.32-13.09,13.12,13.12,0,0,0-13-13,13.38,13.38,0,0,0-9.38,3.79l4.83-18H664.17L669,842a14.29,14.29,0,0,0-9.53-3.91,13.06,13.06,0,0,0-.28,26.1"/></g><path class="cls-4" d="M359.66,682.5l38-169.09H343.4v-33h76.14a65.82,65.82,0,0,0,20.13-46.87c.4-36.05-27.76-65.6-62.89-66S310.6,396.91,310.2,433c-.25,23.41,12.49,43.69,31.08,55.14l-.86,1.26A65.73,65.73,0,0,0,309.35,481c-35.13-.4-66.18,29.41-66.58,65.45s30,64.67,65.14,65.08a67,67,0,0,0,46.92-18.94L330.68,682.5Z"/><polygon class="cls-4" points="394.96 682.5 419.55 682.5 406.17 632.67 394.96 682.5"/><path class="cls-4" d="M444.34,481a63,63,0,0,0-9.12.57v21.9L412.6,604.05a70,70,0,0,0,30.29,7.48c35.13.41,63.94-28.48,64.34-64.52S479.47,481.41,444.34,481Z"/><polygon class="cls-4" points="78.24 78.6 95.09 74.08 98.03 61.02 98.03 50.68 56.88 50.68 56.88 65.48 81.19 65.48 78.24 78.6"/><polygon class="cls-4" points="75.77 89.61 63.66 143.54 79.47 143.54 92.61 85.1 75.77 89.61"/><polygon class="cls-4" points="674.23 960.38 686.34 906.46 670.52 906.46 657.38 964.9 674.23 960.38"/><polygon class="cls-4" points="671.76 971.4 654.91 975.91 651.97 988.98 651.97 999.32 693.12 999.32 693.12 984.52 668.81 984.52 671.76 971.4"/></g></svg>