<?xml version="1.0" encoding="UTF-8"?><svg xmlns="http://www.w3.org/2000/svg" viewBox="0 0 750 1050"><g id="uuid-5fd86d51-04a3-4db2-bc6e-f2f2ae6e7ec3"><rect width="750" height="1049.95" rx="44.82" ry="44.82" style="fill:#fff;"/></g><g id="uuid-fde815ae-7e50-4546-aedc-6386d76a1af6"><g><path d="M355.06,729.75l49.37-219.82h-70.51v-42.93h98.98c15.88-15.26,25.91-36.86,26.17-60.94,.52-46.86-36.09-85.27-81.76-85.8-45.67-.53-86.03,38.22-86.55,85.08-.34,30.44,16.23,56.79,40.39,71.68l-1.12,1.63c-12.19-6.75-26.02-10.68-40.39-10.84-45.67-.53-86.03,38.22-86.55,85.08-.52,46.86,39,84.07,84.67,84.6,23.05,.27,44.92-9.18,60.99-24.62l-31.4,116.88h37.68Z" style="fill:#282c44;"/><polygon points="400.95 729.75 432.91 729.75 415.52 664.97 400.95 729.75" style="fill:#282c44;"/><path d="M465.14,467.81c-3.97-.05-7.93,.21-11.85,.74v28.47l-29.4,130.75c12.15,6.06,25.64,9.57,39.38,9.73,45.67,.53,83.12-37.03,83.63-83.88,.52-46.86-36.09-85.27-81.76-85.8Z" style="fill:#282c44;"/></g><g><polygon points="81.94 101.3 66.19 171.41 86.76 171.41 103.84 95.43 81.94 101.3" style="fill:#282c44;"/><polygon points="85.16 86.98 107.06 81.11 110.88 64.13 110.88 50.68 57.39 50.68 57.39 69.91 88.99 69.91 85.16 86.98" style="fill:#282c44;"/></g><path d="M101.85,229.36c-3.12-.04-6.2,.85-8.91,2.4l-.29-.42c4.73-2.94,7.92-8.24,7.98-14.33,.1-9.37-7.22-17.05-16.35-17.16-9.14-.11-17.21,7.64-17.31,17.02-.07,6.09,3.25,11.36,8.08,14.34l-.22,.33c-2.44-1.35-5.2-2.13-8.08-2.17-9.14-.11-17.21,7.64-17.31,17.02-.1,9.37,7.8,16.81,16.93,16.92,4.61,.05,8.98-1.84,12.2-4.92l-6.28,23.38h23.11l-6.32-23.53c3.29,3.1,7.78,5.03,12.39,5.08,9.13,.11,16.62-7.4,16.73-16.78,.1-9.37-7.22-17.05-16.35-17.16" style="fill:#282c44;"/></g></svg>