<svg xmlns="http://www.w3.org/2000/svg" viewBox="0 0 750 1050"><defs><style>.cls-1{fill:#fff;}.cls-2{fill:#a4203a;}</style></defs><g id="Ebene_2" data-name="Ebene 2"><rect class="cls-1" width="750" height="1049.95" rx="44.82"/></g><g id="Ebene_1_Kopie_2" data-name="Ebene 1 Kopie 2"><polygon class="cls-2" points="77.32 163 55.2 194.5 77.32 226 99.44 194.5 77.32 163"/><polygon class="cls-2" points="672.68 887 694.8 855.5 672.68 824 650.56 855.5 672.68 887"/><polygon class="cls-2" points="392.96 506.86 338.72 506.86 338.72 473.84 430.54 473.84 430.54 496.93 395.32 653.58 485.6 525 375.01 367.5 264.4 525 358.73 659.31 392.96 506.86"/><polygon class="cls-2" points="374.01 681.08 375.01 682.5 376.01 681.08 374.01 681.08"/><polygon class="cls-2" points="75.77 89.61 63.66 143.54 79.47 143.54 92.61 85.1 75.77 89.61"/><polygon class="cls-2" points="78.24 78.6 95.09 74.08 98.03 61.02 98.03 50.68 56.88 50.68 56.88 65.48 81.19 65.48 78.24 78.6"/><polygon class="cls-2" points="674.23 960.38 686.34 906.46 670.52 906.46 657.38 964.9 674.23 960.38"/><polygon class="cls-2" points="671.76 971.4 654.91 975.91 651.97 988.98 651.97 999.32 693.12 999.32 693.12 984.52 668.81 984.52 671.76 971.4"/></g></svg>