<svg xmlns="http://www.w3.org/2000/svg" viewBox="0 0 750 1050">
  <rect width="750" height="1049.95" rx="44.82" style="fill:#fff" data-name="Ebene 2"/>
  <path d="M77.32 163 55.2 194.5 77.32 226l22.12-31.5L77.32 163zm595.36 724 22.12-31.5-22.12-31.5-22.12 31.5 22.12 31.5zM392.96 506.86h-54.24v-33.02h91.82v23.09l-35.22 156.65L485.6 525 375.01 367.5 264.4 525l94.33 134.31 34.23-152.45zm-18.95 174.22 1 1.42 1-1.42h-2zM75.77 89.61l-12.11 53.93h15.81L92.61 85.1l-16.84 4.51zm2.47-11.01 16.85-4.52 2.94-13.06V50.68H56.88v14.8h24.31L78.24 78.6zm595.99 881.78 12.11-53.92h-15.82l-13.14 58.44 16.85-4.52zm-2.47 11.02-16.85 4.51-2.94 13.07v10.34h41.15v-14.8h-24.31l2.95-13.12z" style="fill:#a4203a" data-name="Ebene 1 Kopie 2"/>
</svg>
