<?xml version="1.0" encoding="UTF-8"?><svg xmlns="http://www.w3.org/2000/svg" viewBox="0 0 750 1050"><g id="uuid-4d9ee67c-83dc-4bf1-b92c-8c64463a667b"><rect width="750" height="1049.95" rx="44.82" ry="44.82" style="fill:#fff;"/></g><g id="uuid-53ce9aba-5f3f-4a0b-8016-b470f902220a"><g><polygon points="398.35 501.42 327.84 501.42 327.84 458.49 447.2 458.49 447.2 488.5 401.41 692.15 518.78 525 375.01 320.25 231.22 525 353.84 699.6 398.35 501.42" style="fill:#a4203a;"/><polygon points="373.72 727.9 375.01 729.75 376.31 727.9 373.72 727.9" style="fill:#a4203a;"/></g><g><polygon points="81.94 101.3 66.19 171.41 86.76 171.41 103.84 95.43 81.94 101.3" style="fill:#a4203a;"/><polygon points="85.16 86.98 107.06 81.11 110.88 64.13 110.88 50.68 57.39 50.68 57.39 69.91 88.99 69.91 85.16 86.98" style="fill:#a4203a;"/></g><polygon points="82.89 196.22 54.13 237.17 82.89 278.12 111.65 237.17 82.89 196.22" style="fill:#a4203a;"/><g><polygon points="668.06 948.65 683.81 878.55 663.24 878.55 646.16 954.52 668.06 948.65" style="fill:#a4203a;"/><polygon points="664.84 962.97 642.94 968.84 639.12 985.83 639.12 999.27 692.61 999.27 692.61 980.04 661.01 980.04 664.84 962.97" style="fill:#a4203a;"/></g><polygon points="667.11 853.78 695.87 812.83 667.11 771.88 638.35 812.83 667.11 853.78" style="fill:#a4203a;"/></g></svg>