<svg xmlns="http://www.w3.org/2000/svg" viewBox="0 0 750 1050">
  <defs>
    <clipPath id="a">
      <path style="fill:none" d="M-36-36h822v1122H-36z"/>
    </clipPath>
  </defs>
  <rect width="750" height="1049.95" rx="44.82" style="fill:#fff" data-name="Ebene 2"/>
  <g data-name="Ebene 1 Kopie 2">
    <path style="fill:#a4203a" d="M375.82 681.21h-1.08l.28.44v.85l.8-1.29zM478 379.37c-34-20.78-80.65-11.5-103 22.15-22.34-33.65-69-43.78-103-23-34.43 21.07-44.75 66.39-23 101.23l106.85 171.3L388.29 507H334v-33h91.82v23.08l-36.5 162.48L501 480.6c21.69-34.84 11.38-80.16-23-101.23ZM56.88 65.48v-14.8H98V61l-18.53 82.54H63.66l17.53-78.06ZM693.12 984.52v14.8H652V989l18.56-82.52h15.82l-17.54 78.06Z"/>
    <g style="clip-path:url(#a)">
      <path d="M98.54 165.5c-7-4.16-16.61-2.3-21.22 4.43v-.17c-4.6-6.73-14.23-8.59-21.23-4.43a14.34 14.34 0 0 0-4.74 20.25l26-15.42-26 15.42 26 40.38v.17l26-40.38-26-15.42 26 15.42a14.35 14.35 0 0 0-4.75-20.25M651.46 884.5c7 4.16 16.61 2.3 21.22-4.43v.17c4.6 6.73 14.23 8.59 21.23 4.43a14.34 14.34 0 0 0 4.74-20.25l-26 15.42 26-15.42-26-40.38v-.17l-26 40.38 26 15.42-26-15.42a14.35 14.35 0 0 0 4.75 20.25" style="fill:#a4203a"/>
    </g>
    <path transform="rotate(-15 77.30244828 84.01243055)" style="fill:#fff" d="M10.15 79.02h134.33v10H10.15z"/>
    <path transform="rotate(-15 672.65852944 965.92692196)" style="fill:#fff" d="M605.52 960.98h134.33v10H605.52z"/>
  </g>
</svg>
