<?xml version="1.0" encoding="UTF-8"?><svg xmlns="http://www.w3.org/2000/svg" viewBox="0 0 750 1050"><g id="uuid-a59f2cc6-2aef-4e98-b4be-05492011132a"><rect width="750" height="1049.95" rx="44.82" ry="44.82" style="fill:#fff;"/></g><g id="uuid-659e5776-8c27-4c2d-a08a-dbe4cc37dbce"><g><polygon points="376.07 728.03 374.66 728.03 375.02 728.61 375.02 729.71 376.07 728.03" style="fill:#a4203a;"/><path d="M508.83,335.64c-44.13-27.01-104.78-14.95-133.81,28.8-29.04-43.75-89.7-56.91-133.84-29.91-44.76,27.39-58.18,86.31-29.94,131.6h.06l138.9,222.69,42.06-187.28h-70.51v-42.93h119.36v30.01l-47.5,211.26,145.11-232.65h.02c28.25-45.29,14.85-104.21-29.91-131.6Z" style="fill:#a4203a;"/></g><g><polygon points="81.94 101.3 66.19 171.41 86.76 171.41 103.84 95.43 81.94 101.3" style="fill:#a4203a;"/><polygon points="85.16 86.98 107.06 81.11 110.88 64.13 110.88 50.68 57.39 50.68 57.39 69.91 88.99 69.91 85.16 86.98" style="fill:#a4203a;"/></g><path d="M110.57,204.89c-9.1-5.4-21.6-2.99-27.59,5.76v-.22c-5.99-8.75-18.5-11.16-27.6-5.76-9.23,5.48-12,17.26-6.17,26.32l33.77-20.04-33.75,20.04,33.75,52.49v.22l33.75-52.49-33.75-20.04,33.76,20.04c5.82-9.06,3.06-20.84-6.17-26.32" style="fill:#a4203a;"/></g></svg>