<svg xmlns="http://www.w3.org/2000/svg" width="80" height="112" fill="none"><rect width="80" height="112" fill="#fff" rx="5"/><path fill="#DC3059" d="M7.704 9.8v2.6h5.694L9.212 28h2.86l4.212-15.704V9.8h-8.58ZM17.002 39.107c1.33 1.475 1.33 3.868 0 5.344L12 50l-5.002-5.55c-1.33-1.475-1.33-3.868 0-5.343 1.33-1.476 3.487-1.476 4.817 0l.185.205.185-.205c1.33-1.476 3.487-1.476 4.817 0ZM47.504 48.66c1.995 2.214 1.995 5.802 0 8.016L40 65l-7.504-8.324c-1.995-2.214-1.995-5.802 0-8.016 1.996-2.213 5.23-2.213 7.226 0l.278.308.278-.308c1.995-2.213 5.23-2.213 7.226 0ZM72.296 102.2v-2.6h-5.694L70.788 84h-2.86l-4.212 15.704v2.496h8.58ZM62.998 72.893c-1.33-1.475-1.33-3.868 0-5.344L68 62l5.002 5.55c1.33 1.475 1.33 3.868 0 5.343-1.33 1.476-3.486 1.476-4.817 0L68 72.688l-.185.205c-1.33 1.476-3.487 1.476-4.817 0Z"/></svg>