<?xml version="1.0" encoding="UTF-8"?><svg xmlns="http://www.w3.org/2000/svg" viewBox="0 0 750 1050"><g id="uuid-7d5a5f6d-5c1d-4909-9941-be0a896666ea"><rect width="750" height="1049.95" rx="44.82" ry="44.82" style="fill:#fff;"/></g><g id="uuid-5cee319e-eaaa-4300-9cc0-457de04b435c"><g><polygon points="394.76 729.75 431.78 729.75 411.62 654.75 394.76 729.75" style="fill:#282c44;"/><path d="M510.37,524.56l-135.46-203.45v-.86l-135.32,203.45,.05,.03c-23.32,35.1-12.29,80.75,24.7,101.98,25.11,14.41,56.03,14.47,81.13,2.05l-27.43,102h30.82l50.26-223.79h-70.51v-42.93h119.36v30.01l-31.6,140.56c22.52,7.03,48.12,5.06,69.2-7.04,37-21.23,48.13-66.9,24.79-102.01Z" style="fill:#282c44;"/></g><g><polygon points="81.94 101.3 66.19 171.41 86.76 171.41 103.84 95.43 81.94 101.3" style="fill:#282c44;"/><polygon points="85.16 86.98 107.06 81.11 110.88 64.13 110.88 50.68 57.39 50.68 57.39 69.91 88.99 69.91 85.16 86.98" style="fill:#282c44;"/></g><path d="M110.02,242.67l-23.15,13.29h0s23.13-13.29,23.13-13.29l-27.04-40.69v-.17l-27.04,40.69h.01c-4.66,7.03-2.45,16.16,4.94,20.4,5.02,2.88,11.19,2.89,16.21,.41l-5.48,20.4h22.72l-5.41-20.15c4.99,2.4,11.2,2.36,16.16-.49,7.39-4.25,9.62-13.38,4.95-20.4" style="fill:#282c44;"/><g><polygon points="668.06 948.65 683.81 878.55 663.24 878.55 646.16 954.52 668.06 948.65" style="fill:#282c44;"/><polygon points="664.84 962.97 642.94 968.84 639.12 985.83 639.12 999.27 692.61 999.27 692.61 980.04 661.01 980.04 664.84 962.97" style="fill:#282c44;"/></g><path d="M639.98,807.33l23.15-13.29h0s-23.13,13.29-23.13,13.29l27.04,40.69v.17l27.04-40.69h-.01c4.66-7.03,2.45-16.16-4.94-20.4-5.02-2.88-11.19-2.89-16.21-.41l5.48-20.4h-22.72l5.41,20.15c-4.99-2.4-11.2-2.36-16.16,.49-7.39,4.25-9.62,13.38-4.95,20.4" style="fill:#282c44;"/></g></svg>