<svg xmlns="http://www.w3.org/2000/svg" viewBox="0 0 750 1050">
  <defs>
    <clipPath id="clip-path">
      <path style="fill:none" d="M-36-36h822v1122H-36z"/>
    </clipPath>
    <style>
      .cls-3{fill:#282c44}
    </style>
  </defs>
  <rect width="750" height="1049.95" rx="44.82" style="fill:#fff" id="Ebene_2" data-name="Ebene 2"/>
  <g id="Ebene_1_Kopie_2" data-name="Ebene 1 Kopie 2">
    <path class="cls-3" d="M390.2 682.5h28.48l-15.51-57.69-12.97 57.69z"/>
    <path class="cls-3" d="m479.13 524.66-104.2-156.5v-.66L270.84 524c-17.94 27-9.45 62.12 19 78.44C309.2 613.55 333 613.6 352.29 604l-21.1 78.46h23.71l38.66-172.15h-54.24v-33h91.82v23.09l-24.31 108.14c17.32 5.41 37 3.89 53.23-5.42 28.46-16.33 37.03-51.46 19.07-78.46ZM78.24 78.6l16.85-4.52 2.94-13.06V50.68H56.88v14.8h24.31L78.24 78.6zm-2.47 11.01-12.11 53.93h15.81L92.61 85.1l-16.84 4.51zm598.46 870.77 12.11-53.92h-15.82l-13.14 58.44 16.85-4.52zm-2.47 11.02-16.85 4.51-2.94 13.07v10.34h41.15v-14.8h-24.31l2.95-13.12z"/>
    <path class="cls-3" d="m97.72 194.56-17.81 10.22 17.79-10.22-20.8-31.3v-.13l-20.79 31.3a10.92 10.92 0 0 0 3.8 15.69 13.34 13.34 0 0 0 12.47.31l-4.22 15.7h17.48l-4.16-15.5a13.55 13.55 0 0 0 12.43-.38 10.91 10.91 0 0 0 3.81-15.69m554.56 660.88 17.81-10.22-17.79 10.22 20.8 31.3v.13l20.79-31.3a10.92 10.92 0 0 0-3.8-15.69 13.34 13.34 0 0 0-12.47-.31l4.22-15.7h-17.48l4.16 15.5a13.55 13.55 0 0 0-12.43.38 10.91 10.91 0 0 0-3.81 15.69" style="clip-path:url(#clip-path)"/>
  </g>
</svg>
