<svg xmlns="http://www.w3.org/2000/svg" xmlns:xlink="http://www.w3.org/1999/xlink" viewBox="0 0 750 1050"><defs><style>.cls-1{fill:none;}.cls-2{fill:#fff;}.cls-3{fill:#282c44;}.cls-4{clip-path:url(#clip-path);}</style><clipPath id="clip-path"><rect class="cls-1" x="-36" y="-36" width="822" height="1122"/></clipPath></defs><g id="Ebene_2" data-name="Ebene 2"><rect class="cls-2" width="750" height="1049.95" rx="44.82"/></g><g id="Ebene_1_Kopie_2" data-name="Ebene 1 Kopie 2"><polygon class="cls-3" points="390.2 682.5 418.68 682.5 403.17 624.81 390.2 682.5"/><path class="cls-3" d="M479.13,524.66l-104.2-156.5v-.66L270.84,524l0,0c-17.94,27-9.45,62.12,19,78.44C309.2,613.55,333,613.6,352.29,604l-21.1,78.46H354.9l38.66-172.15H339.32v-33h91.82v23.09L406.83,608.54c17.32,5.41,37,3.89,53.23-5.42C488.52,586.79,497.09,551.66,479.13,524.66Z"/><polygon class="cls-3" points="78.24 78.6 95.09 74.08 98.03 61.02 98.03 50.68 56.88 50.68 56.88 65.48 81.19 65.48 78.24 78.6"/><polygon class="cls-3" points="75.77 89.61 63.66 143.54 79.47 143.54 92.61 85.1 75.77 89.61"/><polygon class="cls-3" points="674.23 960.38 686.34 906.46 670.52 906.46 657.38 964.9 674.23 960.38"/><polygon class="cls-3" points="671.76 971.4 654.91 975.91 651.97 988.98 651.97 999.32 693.12 999.32 693.12 984.52 668.81 984.52 671.76 971.4"/><g class="cls-4"><path class="cls-3" d="M97.72,194.56,79.91,204.78h0L97.7,194.56l-20.8-31.3v-.13l-20.79,31.3h0a10.92,10.92,0,0,0,3.8,15.69,13.34,13.34,0,0,0,12.47.31l-4.22,15.7H85.64l-4.16-15.5a13.55,13.55,0,0,0,12.43-.38,10.91,10.91,0,0,0,3.81-15.69"/><path class="cls-3" d="M652.28,855.44l17.81-10.22h0L652.3,855.44l20.8,31.3v.13l20.79-31.3h0a10.92,10.92,0,0,0-3.8-15.69,13.34,13.34,0,0,0-12.47-.31l4.22-15.7H664.36l4.16,15.5a13.55,13.55,0,0,0-12.43.38,10.91,10.91,0,0,0-3.81,15.69"/></g></g></svg>