<svg xmlns="http://www.w3.org/2000/svg" viewBox="0 0 750 1050">
  <defs>
    <clipPath id="clip-path">
      <path style="fill:none" d="M-36-36h822v1122H-36z"/>
    </clipPath>
    <style>
      .cls-4{fill:#282c44}
    </style>
  </defs>
  <rect width="750" height="1049.95" rx="44.82" style="fill:#fff" id="Ebene_2" data-name="Ebene 2"/>
  <g id="Ebene_1_Kopie_2" data-name="Ebene 1 Kopie 2">
    <path class="cls-4" d="M90.78 185.83a13.53 13.53 0 0 0-6.85 1.84l-.22-.32a13.1 13.1 0 0 0 6.14-11 12.9 12.9 0 0 0-12.58-13.2A13.42 13.42 0 0 0 64 176.22a12.82 12.82 0 0 0 6.21 11l-.17.25a13.15 13.15 0 0 0-6.21-1.66 13.42 13.42 0 0 0-13.32 13.09 13.12 13.12 0 0 0 13 13 13.38 13.38 0 0 0 9.38-3.79l-4.83 18h17.77L81 208a14.29 14.29 0 0 0 9.53 3.91 13.06 13.06 0 0 0 .28-26.1m568.41 678.36a13.53 13.53 0 0 0 6.85-1.84l.22.32a13.1 13.1 0 0 0-6.14 11 12.9 12.9 0 0 0 12.58 13.2A13.42 13.42 0 0 0 686 873.78a12.82 12.82 0 0 0-6.21-11l.17-.25a13.15 13.15 0 0 0 6.21 1.66 13.42 13.42 0 0 0 13.32-13.09 13.12 13.12 0 0 0-13-13 13.38 13.38 0 0 0-9.38 3.79l4.83-18h-17.77L669 842a14.29 14.29 0 0 0-9.53-3.91 13.06 13.06 0 0 0-.28 26.1" style="clip-path:url(#clip-path)"/>
    <path class="cls-4" d="M388.23 471q-.21-11.7-10.35-11.79t-10.66 11.6l-.29 33.13q-.1 12.1 10.35 12.2t10.66-12Z"/>
    <path class="cls-4" d="m333 482 .1-11.53q.39-44.73 45.11-44.43t44.22 45.21l-.06 6.24a65.88 65.88 0 0 0 17.34-44c.4-36.05-27.76-65.6-62.89-66S310.6 396.91 310.2 433a63.4 63.4 0 0 0 22.8 49Zm111.34-1a65.7 65.7 0 0 0-22.07 3.66l-.17 20q-.19 21.11-14.12 28.13 13.81 7.28 13.62 28.38l-.3 34.27a71.59 71.59 0 0 1-1 12 69 69 0 0 0 22.63 4.17c35.13.41 63.94-28.48 64.34-64.52s-27.8-65.68-62.93-66.09Zm-60.11 68.52q-1.86-.84-6.72-.88c-.9 0-1.83 0-2.79.08q-8.19.24-8.29 11.93l-.3 34.26q.21 11.7 10.46 11.79t10.56-11.6l.3-34.26q.08-9.84-3.22-11.32Zm-7.93 90.31q-20.52-.23-31.54-9.78l-14.08 52.45h88.87L406 632.13q-10.91 7.87-29.7 7.7ZM332 594.62l.29-34.27q.19-21.11 14.12-28.13-13.8-7.28-13.62-28.38l.16-18.06a65.06 65.06 0 0 0-23.6-4.78c-35.13-.4-66.18 29.41-66.58 65.45s30 64.67 65.14 65.08a65 65 0 0 0 24.93-4.73 71.78 71.78 0 0 1-.84-12.18ZM72.61 80.11V69.28Q72.75 64 77.34 64T82 69.28v8.31l15.3-4.11v-4.2q0-20.08-20-20.09t-20 20.09v14.93Zm24.72 4.11v-.38l-16.59 4.44a4.48 4.48 0 0 1-3.45 1.27 6.2 6.2 0 0 1-1-.08l-16.35 4.39a10.51 10.51 0 0 0 3.58 3q-6.23 3.2-6.22 12.66v15.38q0 20 20 20.08t20-20.08v-15.36q0-9.47-6.21-12.66 6.24-3.19 6.24-12.66ZM82 124.9q-.15 5.23-4.69 5.24t-4.73-5.24v-15.36c0-3.49 1.22-5.29 3.66-5.38h1.26a8.28 8.28 0 0 1 3 .37c1 .43 1.49 2.12 1.49 5.05Zm570.67 840.88v.38l16.59-4.44a4.48 4.48 0 0 1 3.45-1.27 6.2 6.2 0 0 1 1 .08l16.36-4.39a10.51 10.51 0 0 0-3.58-3q6.22-3.2 6.22-12.66V925.1q0-20-20-20.08t-20 20.08v15.36q0 9.45 6.21 12.66-6.25 3.2-6.25 12.66ZM668 925.1q.15-5.24 4.69-5.24t4.73 5.24v15.36q0 5.24-3.66 5.38h-1.26a8.28 8.28 0 0 1-3-.37c-1-.43-1.49-2.12-1.49-5Zm9.39 44.79v10.83q-.14 5.24-4.73 5.24t-4.66-5.24v-8.31l-15.3 4.11v4.2q0 20.09 20 20.09t20-20.09v-14.93Z"/>
  </g>
</svg>
