<svg xmlns="http://www.w3.org/2000/svg" xmlns:xlink="http://www.w3.org/1999/xlink" viewBox="0 0 750 1050"><defs><style>.cls-1{fill:none;}.cls-2{fill:#fff;}.cls-3{clip-path:url(#clip-path);}.cls-4{fill:#282c44;}</style><clipPath id="clip-path"><rect class="cls-1" x="-36" y="-36" width="822" height="1122"/></clipPath></defs><g id="Ebene_2" data-name="Ebene 2"><rect class="cls-2" width="750" height="1049.95" rx="44.82"/></g><g id="Ebene_1_Kopie_2" data-name="Ebene 1 Kopie 2"><g class="cls-3"><path class="cls-4" d="M90.78,185.83a13.53,13.53,0,0,0-6.85,1.84l-.22-.32a13.1,13.1,0,0,0,6.14-11,12.9,12.9,0,0,0-12.58-13.2A13.42,13.42,0,0,0,64,176.22a12.82,12.82,0,0,0,6.21,11l-.17.25a13.15,13.15,0,0,0-6.21-1.66,13.42,13.42,0,0,0-13.32,13.09,13.12,13.12,0,0,0,13,13,13.38,13.38,0,0,0,9.38-3.79l-4.83,18H85.83L81,208a14.29,14.29,0,0,0,9.53,3.91,13.06,13.06,0,0,0,.28-26.1"/><path class="cls-4" d="M659.22,864.17a13.53,13.53,0,0,0,6.85-1.84l.22.32a13.1,13.1,0,0,0-6.14,11,12.9,12.9,0,0,0,12.58,13.2A13.42,13.42,0,0,0,686,873.78a12.82,12.82,0,0,0-6.21-11l.17-.25a13.15,13.15,0,0,0,6.21,1.66,13.42,13.42,0,0,0,13.32-13.09,13.12,13.12,0,0,0-13-13,13.38,13.38,0,0,0-9.38,3.79l4.83-18H664.17L669,842a14.29,14.29,0,0,0-9.53-3.91,13.06,13.06,0,0,0-.28,26.1"/></g><path class="cls-4" d="M388.23,471q-.21-11.7-10.35-11.79t-10.66,11.6l-.29,33.13q-.1,12.1,10.35,12.2t10.66-12Z"/><path class="cls-4" d="M333,482l.1-11.53q.39-44.73,45.11-44.43t44.22,45.21l-.06,6.24a65.88,65.88,0,0,0,17.34-44c.4-36.05-27.76-65.6-62.89-66S310.6,396.91,310.2,433A63.4,63.4,0,0,0,333,482Z"/><path class="cls-4" d="M444.34,481a65.7,65.7,0,0,0-22.07,3.66l-.17,20q-.19,21.11-14.12,28.13,13.81,7.28,13.62,28.38l-.3,34.27a71.59,71.59,0,0,1-1,12,69,69,0,0,0,22.63,4.17c35.13.41,63.94-28.48,64.34-64.52S479.47,481.41,444.34,481Z"/><path class="cls-4" d="M384.23,549.52q-1.86-.84-6.72-.88c-.9,0-1.83,0-2.79.08q-8.19.24-8.29,11.93l-.3,34.26q.21,11.7,10.46,11.79t10.56-11.6l.3-34.26Q387.53,551,384.23,549.52Z"/><path class="cls-4" d="M376.3,639.83q-20.52-.23-31.54-9.78L330.68,682.5h88.87L406,632.13Q395.09,640,376.3,639.83Z"/><path class="cls-4" d="M332,594.62l.29-34.27q.19-21.11,14.12-28.13-13.8-7.28-13.62-28.38l.16-18.06A65.06,65.06,0,0,0,309.35,481c-35.13-.4-66.18,29.41-66.58,65.45s30,64.67,65.14,65.08a65,65,0,0,0,24.93-4.73A71.78,71.78,0,0,1,332,594.62Z"/><path class="cls-4" d="M72.61,80.11V69.28Q72.75,64,77.34,64T82,69.28v8.31l15.3-4.11v-4.2q0-20.08-20-20.09t-20,20.09V84.21Z"/><path class="cls-4" d="M97.33,84.22v-.38L80.74,88.28a4.48,4.48,0,0,1-3.45,1.27,6.2,6.2,0,0,1-1-.08L59.94,93.86a10.51,10.51,0,0,0,3.58,3q-6.23,3.2-6.22,12.66V124.9q0,20,20,20.08t20-20.08V109.54q0-9.47-6.21-12.66Q97.33,93.69,97.33,84.22ZM82,124.9q-.15,5.23-4.69,5.24t-4.73-5.24V109.54c0-3.49,1.22-5.29,3.66-5.38.44,0,.85,0,1.26,0a8.28,8.28,0,0,1,3,.37c1,.43,1.49,2.12,1.49,5.05Z"/><path class="cls-4" d="M652.67,965.78v.38l16.59-4.44a4.48,4.48,0,0,1,3.45-1.27,6.2,6.2,0,0,1,1,.08l16.36-4.39a10.51,10.51,0,0,0-3.58-3q6.22-3.2,6.22-12.66V925.1q0-20-20-20.08t-20,20.08v15.36q0,9.45,6.21,12.66Q652.67,956.32,652.67,965.78ZM668,925.1q.15-5.24,4.69-5.24t4.73,5.24v15.36q0,5.24-3.66,5.38c-.44,0-.85,0-1.26,0a8.28,8.28,0,0,1-3-.37c-1-.43-1.49-2.12-1.49-5Z"/><path class="cls-4" d="M677.39,969.89v10.83q-.14,5.24-4.73,5.24T668,980.72v-8.31l-15.3,4.11v4.2q0,20.09,20,20.09t20-20.09V965.79Z"/></g></svg>