<?xml version="1.0" encoding="UTF-8"?><svg xmlns="http://www.w3.org/2000/svg" viewBox="0 0 750 1050"><g id="uuid-234431f0-31fa-413d-a484-e76e05029778"><rect x="0" width="750" height="1049.95" rx="44.82" ry="44.82" style="fill:#fff;"/></g><g id="uuid-90f5b174-3918-4754-96f3-d339f107b34a"><g><path d="M392.2,454.78c-.18-10.14-4.67-15.25-13.46-15.32-8.88-.08-13.5,4.95-13.86,15.09l-.38,43.06c-.09,10.5,4.39,15.78,13.45,15.86,9.15,.08,13.77-5.13,13.86-15.62l.38-43.06Z" style="fill:#282c44;"/><path d="M320.35,469.16l.13-15c.34-38.75,19.88-58.01,58.64-57.76,38.66,.34,57.83,19.93,57.49,58.77l-.07,8.11c13.76-14.96,22.29-35.04,22.53-57.22,.52-46.86-36.09-85.27-81.76-85.8-45.67-.53-86.03,38.22-86.55,85.08-.28,25.64,11.43,48.39,29.58,63.82Z" style="fill:#282c44;"/><path d="M465.14,467.81c-9.78-.11-19.47,1.58-28.68,4.76l-.23,25.94c-.16,18.3-6.28,30.49-18.35,36.58,11.97,6.29,17.87,18.59,17.71,36.89l-.39,44.54c-.05,5.59-.51,10.77-1.35,15.55,9.39,3.4,19.34,5.31,29.42,5.43,45.67,.53,83.12-37.03,83.63-83.88,.52-46.86-36.09-85.27-81.76-85.8Z" style="fill:#282c44;"/><path d="M387,556.88c-1.61-.73-4.52-1.12-8.74-1.15-1.17-.01-2.38,.03-3.63,.1-7.09,.21-10.68,5.38-10.77,15.52l-.39,44.54c.18,10.14,4.71,15.25,13.59,15.33,8.79,.08,13.37-4.95,13.72-15.09l.39-44.54c.07-8.52-1.32-13.42-4.18-14.7Z" style="fill:#282c44;"/><path d="M376.69,674.27c-17.79-.2-31.45-4.44-41-12.71l-18.32,68.19h115.53l-17.58-65.49c-9.49,6.81-22.36,10.15-38.64,10.01Z" style="fill:#282c44;"/><path d="M319.07,615.5l.39-44.54c.16-18.3,6.28-30.49,18.35-36.58-11.97-6.29-17.87-18.59-17.71-36.89l.2-23.48c-9.62-3.88-19.98-6.08-30.65-6.21-45.67-.53-86.03,38.22-86.55,85.08-.52,46.86,39,84.07,84.67,84.6,11.27,.13,22.25-2.07,32.42-6.15-.79-4.87-1.18-10.14-1.13-15.84Z" style="fill:#282c44;"/></g><g><path d="M77.83,89.38v-14.08c.12-4.54,2.17-6.81,6.15-6.81s5.97,2.27,6.09,6.81v10.8l19.9-5.33v-5.47c0-17.41-8.66-26.11-25.99-26.11-17.37,.04-26.05,8.74-26.05,26.11v19.41l19.9-5.33Z" style="fill:#282c44;"/><path d="M109.98,94.72v-.49l-21.57,5.78c-1.02,1.09-2.51,1.65-4.48,1.65-.46,0-.89-.04-1.3-.1l-21.26,5.7c1.23,1.64,2.76,2.96,4.65,3.93-5.39,2.78-8.08,8.26-8.08,16.46v19.96c0,17.37,8.68,26.07,26.05,26.11,17.33,0,25.99-8.7,25.99-26.11v-19.96c0-8.2-2.69-13.69-8.08-16.46,5.39-2.77,8.08-8.26,8.08-16.46Zm-19.9,52.88c-.12,4.54-2.15,6.81-6.09,6.81s-6.03-2.27-6.15-6.81v-19.96c0-4.54,1.59-6.87,4.76-7,.56-.04,1.11-.06,1.63-.06,1.89,0,3.2,.16,3.92,.48,1.29,.56,1.93,2.75,1.93,6.57v19.96Z" style="fill:#282c44;"/></g><path d="M101.85,229.36c-3.12-.04-6.2,.85-8.91,2.4l-.29-.42c4.73-2.94,7.92-8.24,7.98-14.33,.1-9.37-7.22-17.05-16.35-17.16-9.14-.11-17.21,7.64-17.31,17.02-.07,6.09,3.25,11.36,8.08,14.34l-.22,.33c-2.44-1.35-5.2-2.13-8.08-2.17-9.14-.11-17.21,7.64-17.31,17.02-.1,9.37,7.8,16.81,16.93,16.92,4.61,.05,8.98-1.84,12.2-4.92l-6.28,23.38h23.11l-6.32-23.53c3.29,3.1,7.78,5.03,12.39,5.08,9.13,.11,16.62-7.4,16.73-16.78,.1-9.37-7.22-17.05-16.35-17.16" style="fill:#282c44;"/></g></svg>