<svg xmlns="http://www.w3.org/2000/svg" width="80" height="112" fill="none"><rect width="80" height="112" fill="#fff" rx="5"/><path fill="#2C2833" d="M16.466 23.632v-1.43c0-1.742-.52-3.068-1.768-3.77v-.052c1.17-.65 1.768-1.846 1.768-3.64v-.572c0-2.912-1.586-4.576-4.472-4.576s-4.472 1.664-4.472 4.576v.572c0 1.794.572 2.99 1.768 3.64v.052c-1.248.702-1.768 2.028-1.768 3.77v1.43c0 2.912 1.586 4.576 4.472 4.576s4.472-1.664 4.472-4.576Zm-6.084-.078v-1.69c0-1.43.598-2.054 1.612-2.054 1.014 0 1.612.624 1.612 2.054v1.69c-.026 1.612-.702 2.054-1.612 2.054-.91 0-1.612-.442-1.612-2.054Zm0-9.282c0-1.638.702-2.08 1.612-2.08.91 0 1.612.442 1.612 2.08v1.014c0 1.456-.702 1.924-1.612 1.924-.936 0-1.612-.468-1.612-1.924v-1.014Z"/><path fill="#2C2833" fill-rule="evenodd" d="M8.863 39.804a3.137 3.137 0 1 1 6.008 1.266 3.137 3.137 0 1 1-1.538 5.693v3.904h-2.666v-3.904a3.137 3.137 0 1 1-1.538-5.693 3.126 3.126 0 0 1-.266-1.266ZM35.294 49.706a4.706 4.706 0 1 1 9.013 1.899A4.706 4.706 0 1 1 42 60.145V66h-4v-5.855a4.706 4.706 0 1 1-2.307-8.54 4.69 4.69 0 0 1-.399-1.9Z" clip-rule="evenodd"/><path fill="#2C2833" d="M63.534 88.368v1.43c0 1.742.52 3.068 1.768 3.77v.052c-1.17.65-1.768 1.846-1.768 3.64v.572c0 2.912 1.586 4.576 4.472 4.576s4.472-1.664 4.472-4.576v-.572c0-1.794-.572-2.99-1.768-3.64v-.052c1.248-.702 1.768-2.028 1.768-3.77v-1.43c0-2.912-1.586-4.576-4.472-4.576s-4.472 1.664-4.472 4.576Zm6.084.078v1.69c0 1.43-.598 2.054-1.612 2.054-1.014 0-1.612-.624-1.612-2.054v-1.69c.026-1.612.702-2.054 1.612-2.054.91 0 1.612.442 1.612 2.054Zm0 9.282c0 1.638-.702 2.08-1.612 2.08-.91 0-1.612-.442-1.612-2.08v-1.014c0-1.456.702-1.924 1.612-1.924.936 0 1.612.468 1.612 1.924v1.014Z"/><path fill="#2C2833" fill-rule="evenodd" d="M71.137 72.196a3.137 3.137 0 1 1-6.008-1.266 3.137 3.137 0 1 1 1.538-5.693v-3.904h2.666v3.904a3.137 3.137 0 1 1 1.538 5.693c.171.387.266.816.266 1.266Z" clip-rule="evenodd"/></svg>