<?xml version="1.0" encoding="UTF-8"?><svg xmlns="http://www.w3.org/2000/svg" viewBox="0 0 750 1050"><g id="uuid-de325b48-1c33-4195-96de-fcb73ad90103"><rect x="0" width="750" height="1049.95" rx="44.82" ry="44.82" style="fill:#fff;"/></g><g id="uuid-2d4ed759-41a4-4b69-a0cd-ed0821991f9d"><g><path d="M389.48,468.07c-.27-10.14-4.8-15.21-13.59-15.21s-13.46,5.07-13.73,15.21v43.06c0,10.5,4.53,15.74,13.59,15.74s13.73-5.25,13.73-15.74v-43.06Z" style="fill:#a4203a;"/><path d="M317.75,629.42v-44.54c0-18.3,6.01-30.55,18.03-36.74-12.02-6.19-18.03-18.44-18.03-36.74v-43.33c0-38.76,19.38-58.18,58.13-58.27,38.67,0,58,19.43,58,58.27v43.33c0,18.3-6.01,30.55-18.03,36.74,12.02,6.19,18.03,18.44,18.03,36.74v44.54c0,7.05-.65,13.45-1.92,19.22l86.82-123.64-143.77-204.75-143.8,204.75,89.37,127.25c-1.89-6.67-2.83-14.27-2.83-22.82Z" style="fill:#a4203a;"/><path d="M376.42,569.13c-1.17,0-2.38,.05-3.63,.13-7.09,.27-10.63,5.47-10.63,15.61v44.54c.27,10.14,4.84,15.21,13.73,15.21s13.32-5.07,13.59-15.21v-44.54c0-8.52-1.44-13.41-4.31-14.67-1.61-.72-4.53-1.08-8.75-1.08Z" style="fill:#a4203a;"/><path d="M375.88,687.69c-15.31-.04-27.59-3.1-36.85-9.17l35.98,51.23,34.68-49.39c-8.85,4.88-20.11,7.33-33.81,7.33Z" style="fill:#a4203a;"/></g><g><path d="M77.83,89.38v-14.08c.12-4.54,2.17-6.81,6.15-6.81s5.97,2.27,6.09,6.81v10.8l19.9-5.33v-5.47c0-17.41-8.66-26.11-25.99-26.11-17.37,.04-26.05,8.74-26.05,26.11v19.41l19.9-5.33Z" style="fill:#a4203a;"/><path d="M109.98,94.72v-.49l-21.57,5.78c-1.02,1.09-2.51,1.65-4.48,1.65-.46,0-.89-.04-1.3-.1l-21.26,5.7c1.23,1.64,2.76,2.96,4.65,3.93-5.39,2.78-8.08,8.26-8.08,16.46v19.96c0,17.37,8.68,26.07,26.05,26.11,17.33,0,25.99-8.7,25.99-26.11v-19.96c0-8.2-2.69-13.69-8.08-16.46,5.39-2.77,8.08-8.26,8.08-16.46Zm-19.9,52.88c-.12,4.54-2.15,6.81-6.09,6.81s-6.03-2.27-6.15-6.81v-19.96c0-4.54,1.59-6.87,4.76-7,.56-.04,1.11-.06,1.63-.06,1.89,0,3.2,.16,3.92,.48,1.29,.56,1.93,2.75,1.93,6.57v19.96Z" style="fill:#a4203a;"/></g><polygon points="82.89 196.22 54.13 237.17 82.89 278.12 111.65 237.17 82.89 196.22" style="fill:#a4203a;"/><g><path d="M672.17,960.62v14.08c-.12,4.54-2.17,6.81-6.15,6.81s-5.97-2.27-6.09-6.81v-10.8l-19.9,5.33v5.47c0,17.41,8.66,26.11,25.99,26.11,17.37-.04,26.05-8.74,26.05-26.11v-19.41l-19.9,5.33Z" style="fill:#a4203a;"/><path d="M640.02,955.28v.49l21.57-5.78c1.02-1.09,2.51-1.65,4.48-1.65,.46,0,.89,.04,1.3,.1l21.26-5.7c-1.23-1.64-2.76-2.96-4.65-3.93,5.39-2.78,8.08-8.26,8.08-16.46v-19.96c0-17.37-8.68-26.07-26.05-26.11-17.33,0-25.99,8.7-25.99,26.11v19.96c0,8.2,2.69,13.69,8.08,16.46-5.39,2.77-8.08,8.26-8.08,16.46Zm19.9-52.88c.12-4.54,2.15-6.81,6.09-6.81s6.03,2.27,6.15,6.81v19.96c0,4.54-1.59,6.87-4.76,7-.56,.04-1.11,.06-1.63,.06-1.89,0-3.2-.16-3.92-.48-1.29-.56-1.93-2.75-1.93-6.57v-19.96Z" style="fill:#a4203a;"/></g><polygon points="667.11 853.78 695.87 812.83 667.11 771.88 638.35 812.83 667.11 853.78" style="fill:#a4203a;"/></g></svg>