<svg xmlns="http://www.w3.org/2000/svg" viewBox="0 0 750 1050">
  <defs>
    <style>
      .cls-2{fill:#a4203a}
    </style>
  </defs>
  <rect width="750" height="1049.95" rx="44.82" style="fill:#fff" id="Ebene_2" data-name="Ebene 2"/>
  <g id="Ebene_1_Kopie_2" data-name="Ebene 1 Kopie 2">
    <path class="cls-2" d="M77.32 163 55.2 194.5 77.32 226l22.12-31.5L77.32 163zm595.36 724 22.12-31.5-22.12-31.5-22.12 31.5 22.12 31.5zM386.13 481.21q-.3-11.7-10.45-11.7t-10.56 11.7v33.12q0 12.12 10.46 12.12t10.55-12.12Z"/>
    <path class="cls-2" d="M331 605.32v-34.26q0-21.12 13.87-28.26Q331 535.66 331 514.54v-33.33q0-44.71 44.72-44.82t44.61 44.82v33.33q0 21.12-13.87 28.26 13.88 7.14 13.87 28.26v34.26a68.68 68.68 0 0 1-1.47 14.79L485.6 525 375 367.5 264.4 525l68.74 97.88a64.64 64.64 0 0 1-2.14-17.56Z"/>
    <path class="cls-2" d="M376.09 559c-.89 0-1.83 0-2.79.1q-8.18.32-8.18 12v34.26q.31 11.7 10.56 11.7t10.45-11.7v-34.3q0-9.82-3.31-11.28-1.82-.78-6.73-.78Zm-.41 91.15q-17.67 0-28.35-7.06L375 682.5l26.68-38q-10.2 5.64-26 5.65ZM72.61 80.11V69.28Q72.75 64 77.34 64T82 69.28v8.31l15.3-4.11v-4.2q0-20.08-20-20.09t-20 20.09v14.93Zm24.72 4.11v-.38l-16.59 4.44a4.48 4.48 0 0 1-3.45 1.27 6.2 6.2 0 0 1-1-.08l-16.35 4.39a10.51 10.51 0 0 0 3.58 3q-6.23 3.2-6.22 12.66v15.38q0 20 20 20.08t20-20.08v-15.36q0-9.47-6.21-12.66 6.24-3.19 6.24-12.66ZM82 124.9q-.15 5.23-4.69 5.24t-4.73-5.24v-15.36c0-3.49 1.22-5.29 3.66-5.38h1.26a8.28 8.28 0 0 1 3 .37c1 .43 1.49 2.12 1.49 5.05Zm570.67 840.88v.38l16.59-4.44a4.48 4.48 0 0 1 3.45-1.27 6.2 6.2 0 0 1 1 .08l16.36-4.39a10.51 10.51 0 0 0-3.58-3q6.22-3.2 6.22-12.66V925.1q0-20-20-20.08t-20 20.08v15.36q0 9.45 6.21 12.66-6.25 3.2-6.25 12.66ZM668 925.1q.15-5.24 4.69-5.24t4.73 5.24v15.36q0 5.24-3.66 5.38h-1.26a8.28 8.28 0 0 1-3-.37c-1-.43-1.49-2.12-1.49-5Zm9.39 44.79v10.83q-.14 5.24-4.73 5.24t-4.66-5.24v-8.31l-15.3 4.11v4.2q0 20.09 20 20.08t20-20.08v-14.93Z"/>
  </g>
</svg>
