<svg xmlns="http://www.w3.org/2000/svg" viewBox="0 0 750 1050"><defs><style>.cls-1{fill:#fff;}.cls-2{fill:#a4203a;}</style></defs><g id="Ebene_2" data-name="Ebene 2"><rect class="cls-1" width="750" height="1049.95" rx="44.82"/></g><g id="Ebene_1_Kopie_2" data-name="Ebene 1 Kopie 2"><polygon class="cls-2" points="77.32 163 55.2 194.5 77.32 226 99.44 194.5 77.32 163"/><polygon class="cls-2" points="672.68 887 694.8 855.5 672.68 824 650.56 855.5 672.68 887"/><path class="cls-2" d="M386.13,481.21q-.3-11.7-10.45-11.7t-10.56,11.7v33.12q0,12.12,10.46,12.12t10.55-12.12Z"/><path class="cls-2" d="M331,605.32V571.06q0-21.12,13.87-28.26Q331,535.66,331,514.54V481.21q0-44.71,44.72-44.82t44.61,44.82v33.33q0,21.12-13.87,28.26,13.88,7.14,13.87,28.26v34.26a68.68,68.68,0,0,1-1.47,14.79L485.6,525,375,367.5,264.4,525l68.74,97.88A64.64,64.64,0,0,1,331,605.32Z"/><path class="cls-2" d="M376.09,559c-.89,0-1.83,0-2.79.1q-8.18.32-8.18,12v34.26q.31,11.7,10.56,11.7t10.45-11.7V571.06q0-9.82-3.31-11.28Q381,559,376.09,559Z"/><path class="cls-2" d="M375.68,650.15q-17.67,0-28.35-7.06L375,682.5l26.68-38Q391.48,650.14,375.68,650.15Z"/><path class="cls-2" d="M72.61,80.11V69.28Q72.75,64,77.34,64T82,69.28v8.31l15.3-4.11v-4.2q0-20.08-20-20.09t-20,20.09V84.21Z"/><path class="cls-2" d="M97.33,84.22v-.38L80.74,88.28a4.48,4.48,0,0,1-3.45,1.27,6.2,6.2,0,0,1-1-.08L59.94,93.86a10.51,10.51,0,0,0,3.58,3q-6.23,3.2-6.22,12.66V124.9q0,20,20,20.08t20-20.08V109.54q0-9.47-6.21-12.66Q97.33,93.69,97.33,84.22ZM82,124.9q-.15,5.23-4.69,5.24t-4.73-5.24V109.54c0-3.49,1.22-5.29,3.66-5.38.44,0,.85,0,1.26,0a8.28,8.28,0,0,1,3,.37c1,.43,1.49,2.12,1.49,5.05Z"/><path class="cls-2" d="M652.67,965.78v.38l16.59-4.44a4.48,4.48,0,0,1,3.45-1.27,6.2,6.2,0,0,1,1,.08l16.36-4.39a10.51,10.51,0,0,0-3.58-3q6.22-3.2,6.22-12.66V925.1q0-20-20-20.08t-20,20.08v15.36q0,9.45,6.21,12.66Q652.67,956.32,652.67,965.78ZM668,925.1q.15-5.24,4.69-5.24t4.73,5.24v15.36q0,5.24-3.66,5.38c-.44,0-.85,0-1.26,0a8.28,8.28,0,0,1-3-.37c-1-.43-1.49-2.12-1.49-5Z"/><path class="cls-2" d="M677.39,969.89v10.83q-.14,5.24-4.73,5.24T668,980.72v-8.31l-15.3,4.11v4.2q0,20.09,20,20.08t20-20.08V965.79Z"/></g></svg>