<svg xmlns="http://www.w3.org/2000/svg" width="80" height="112" fill="none"><rect width="80" height="112" fill="#fff" rx="5"/><path fill="#DC3059" d="M16.466 23.632v-1.43c0-1.742-.52-3.068-1.768-3.77v-.052c1.17-.65 1.768-1.846 1.768-3.64v-.572c0-2.912-1.586-4.576-4.472-4.576s-4.472 1.664-4.472 4.576v.572c0 1.794.572 2.99 1.768 3.64v.052c-1.248.702-1.768 2.028-1.768 3.77v1.43c0 2.912 1.586 4.576 4.472 4.576s4.472-1.664 4.472-4.576Zm-6.084-.078v-1.69c0-1.43.598-2.054 1.612-2.054 1.014 0 1.612.624 1.612 2.054v1.69c-.026 1.612-.702 2.054-1.612 2.054-.91 0-1.612-.442-1.612-2.054Zm0-9.282c0-1.638.702-2.08 1.612-2.08.91 0 1.612.442 1.612 2.08v1.014c0 1.456-.702 1.924-1.612 1.924-.936 0-1.612-.468-1.612-1.924v-1.014ZM17.002 39.107c1.33 1.475 1.33 3.868 0 5.344L12 50l-5.002-5.55c-1.33-1.475-1.33-3.868 0-5.343 1.33-1.476 3.487-1.476 4.817 0l.185.205.185-.205c1.33-1.476 3.487-1.476 4.817 0ZM47.504 48.66c1.995 2.214 1.995 5.802 0 8.016L40 65l-7.504-8.324c-1.995-2.214-1.995-5.802 0-8.016 1.996-2.213 5.23-2.213 7.226 0l.278.308.278-.308c1.995-2.213 5.23-2.213 7.226 0ZM63.534 88.368v1.43c0 1.742.52 3.068 1.768 3.77v.052c-1.17.65-1.768 1.846-1.768 3.64v.572c0 2.912 1.586 4.576 4.472 4.576s4.472-1.664 4.472-4.576v-.572c0-1.794-.572-2.99-1.768-3.64v-.052c1.248-.702 1.768-2.028 1.768-3.77v-1.43c0-2.912-1.586-4.576-4.472-4.576s-4.472 1.664-4.472 4.576Zm6.084.078v1.69c0 1.43-.598 2.054-1.612 2.054-1.014 0-1.612-.624-1.612-2.054v-1.69c.026-1.612.702-2.054 1.612-2.054.91 0 1.612.442 1.612 2.054Zm0 9.282c0 1.638-.702 2.08-1.612 2.08-.91 0-1.612-.442-1.612-2.08v-1.014c0-1.456.702-1.924 1.612-1.924.936 0 1.612.468 1.612 1.924v1.014ZM62.998 72.893c-1.33-1.475-1.33-3.868 0-5.344L68 62l5.002 5.55c1.33 1.475 1.33 3.868 0 5.343-1.33 1.476-3.486 1.476-4.817 0L68 72.688l-.185.205c-1.33 1.476-3.487 1.476-4.817 0Z"/></svg>