<svg xmlns="http://www.w3.org/2000/svg" xmlns:xlink="http://www.w3.org/1999/xlink" viewBox="0 0 750 1050"><defs><style>.cls-1{fill:none;}.cls-2{fill:#fff;}.cls-3{fill:#a4203a;}.cls-4{clip-path:url(#clip-path);}</style><clipPath id="clip-path"><rect class="cls-1" x="-36" y="-36" width="822" height="1122"/></clipPath></defs><g id="Ebene_2" data-name="Ebene 2"><rect class="cls-2" width="750" height="1049.95" rx="44.82"/></g><g id="Ebene_1_Kopie_2" data-name="Ebene 1 Kopie 2"><path class="cls-3" d="M396.69,647.74a59.52,59.52,0,0,1-20.94,3.32q-13,0-22.21-3.84L375,681.65v.85Z"/><path class="cls-3" d="M478,379.37C444,358.59,397.35,367.87,375,401.52c-22.34-33.65-69-43.78-103-23-34.43,21.07-44.75,66.39-23,101.23h0l82.11,131.64c-.1-1.66-.16-3.38-.16-5.15V572q0-21.12,13.87-28.26Q331,536.57,331,515.46V482.12q0-44.72,44.72-44.82t44.62,44.82v33.34q0,21.1-13.87,28.26,13.86,7.14,13.87,28.26v34.26c0,1.26,0,2.49-.09,3.69L501,480.6h0C522.69,445.76,512.38,400.44,478,379.37Z"/><path class="cls-3" d="M365.19,606.24q.31,11.7,10.56,11.7t10.46-11.7V572q0-9.84-3.32-11.29-1.86-.83-6.72-.83c-.9,0-1.83,0-2.8.11q-8.17.3-8.18,12Z"/><path class="cls-3" d="M375.65,527.36q10.56,0,10.56-12.11V482.12q-.31-11.69-10.46-11.69t-10.56,11.69v33.13Q365.19,527.36,375.65,527.36Z"/><path class="cls-3" d="M57.3,109.54q0-9.47,6.22-12.66-6.23-3.19-6.22-12.66V69.28q0-20,20-20.09t20,20.09V84.22q0,9.45-6.21,12.66,6.21,3.2,6.21,12.66V124.9q0,20.08-20,20.08t-20-20.08ZM72.61,84.12q0,5.43,4.68,5.43T82,84.12V69.28Q81.88,64,77.34,64t-4.73,5.24Zm0,40.78q.14,5.23,4.73,5.24T82,124.9V109.54c0-2.93-.5-4.62-1.49-5.05a8.28,8.28,0,0,0-3-.37c-.41,0-.82,0-1.26,0-2.44.09-3.66,1.89-3.66,5.38Z"/><path class="cls-3" d="M692.7,940.46q0,9.45-6.22,12.66,6.22,3.2,6.22,12.66v14.94q0,20-20,20.08t-20-20.08V965.78q0-9.46,6.21-12.66-6.21-3.2-6.21-12.66V925.1q0-20.08,20-20.08t20,20.08ZM677.39,925.1q-.14-5.24-4.73-5.24T668,925.1v15.36c0,2.93.5,4.62,1.49,5a8.28,8.28,0,0,0,3,.37c.41,0,.82,0,1.26,0q3.66-.15,3.66-5.38Zm0,40.78q0-5.43-4.68-5.43T668,965.88v14.84q.15,5.24,4.69,5.24t4.73-5.24Z"/><g class="cls-4"><path class="cls-3" d="M98.54,165.5c-7-4.16-16.61-2.3-21.22,4.43v-.17c-4.6-6.73-14.23-8.59-21.23-4.43a14.34,14.34,0,0,0-4.74,20.25l26-15.42-26,15.42,26,40.38v.17l26-40.38-26-15.42,26,15.42a14.35,14.35,0,0,0-4.75-20.25"/><path class="cls-3" d="M651.46,884.5c7,4.16,16.61,2.3,21.22-4.43v.17c4.6,6.73,14.23,8.59,21.23,4.43a14.34,14.34,0,0,0,4.74-20.25l-26,15.42,26-15.42-26-40.38v-.17l-26,40.38,26,15.42-26-15.42a14.35,14.35,0,0,0,4.75,20.25"/></g><rect class="cls-2" x="10.15" y="79.02" width="134.33" height="10" transform="translate(-19.11 22.87) rotate(-15)"/><rect class="cls-2" x="605.52" y="960.98" width="134.33" height="10" transform="translate(-227.08 207.01) rotate(-15)"/></g></svg>