<?xml version="1.0" encoding="UTF-8"?><svg xmlns="http://www.w3.org/2000/svg" viewBox="0 0 750 1050"><g id="uuid-3056849f-69f8-4305-a65d-ad2b3bd45c25"><rect x="0" width="750" height="1049.95" rx="44.82" ry="44.82" style="fill:#fff;"/></g><g id="uuid-18a9ebce-472f-496a-b416-b51e9c89af78"><g><path d="M403.2,684.53c-7.65,2.87-16.72,4.31-27.23,4.31-11.26-.03-20.88-1.7-28.87-4.99l27.91,44.75v1.11l28.18-45.18Z" style="fill:#a4203a;"/><path d="M508.83,335.64c-44.13-27.01-104.78-14.95-133.81,28.8-29.04-43.75-89.7-56.91-133.84-29.91-44.76,27.39-58.18,86.31-29.94,131.6h.06l106.74,171.14c-.14-2.17-.21-4.4-.21-6.7v-44.54c0-18.3,6.01-30.55,18.03-36.74-12.02-6.19-18.03-18.44-18.03-36.74v-43.33c0-38.76,19.38-58.18,58.13-58.27,38.67,0,58,19.42,58,58.27v43.33c0,18.3-6.01,30.55-18.03,36.74,12.02,6.19,18.03,18.44,18.03,36.74v44.54c0,1.64-.05,3.23-.12,4.8l104.87-168.13h.02c28.25-45.29,14.85-104.21-29.91-131.6Z" style="fill:#a4203a;"/><path d="M362.25,630.57c.27,10.14,4.84,15.21,13.73,15.21s13.32-5.07,13.59-15.21v-44.54c0-8.52-1.44-13.41-4.31-14.67-1.61-.72-4.53-1.08-8.75-1.08-1.17,0-2.38,.05-3.63,.13-7.09,.27-10.63,5.47-10.63,15.61v44.54Z" style="fill:#a4203a;"/><path d="M375.84,528.03c9.15,0,13.73-5.25,13.73-15.74v-43.06c-.27-10.14-4.8-15.21-13.59-15.21s-13.46,5.07-13.73,15.21v43.06c0,10.5,4.53,15.74,13.59,15.74Z" style="fill:#a4203a;"/></g><g><path d="M77.83,89.38v-14.08c.12-4.54,2.17-6.81,6.15-6.81s5.97,2.27,6.09,6.81v10.8l19.9-5.33v-5.47c0-17.41-8.66-26.11-25.99-26.11-17.37,.04-26.05,8.74-26.05,26.11v19.41l19.9-5.33Z" style="fill:#a4203a;"/><path d="M109.98,94.72v-.49l-21.57,5.78c-1.02,1.09-2.51,1.65-4.48,1.65-.46,0-.89-.04-1.3-.1l-21.26,5.7c1.23,1.64,2.76,2.96,4.65,3.93-5.39,2.78-8.08,8.26-8.08,16.46v19.96c0,17.37,8.68,26.07,26.05,26.11,17.33,0,25.99-8.7,25.99-26.11v-19.96c0-8.2-2.69-13.69-8.08-16.46,5.39-2.77,8.08-8.26,8.08-16.46Zm-19.9,52.88c-.12,4.54-2.15,6.81-6.09,6.81s-6.03-2.27-6.15-6.81v-19.96c0-4.54,1.59-6.87,4.76-7,.56-.04,1.11-.06,1.63-.06,1.89,0,3.2,.16,3.92,.48,1.29,.56,1.93,2.75,1.93,6.57v19.96Z" style="fill:#a4203a;"/></g><path d="M110.57,204.89c-9.1-5.4-21.6-2.99-27.59,5.76v-.22c-5.99-8.75-18.5-11.16-27.6-5.76-9.23,5.48-12,17.26-6.17,26.32l33.77-20.04-33.75,20.04,33.75,52.49v.22l33.75-52.49-33.75-20.04,33.76,20.04c5.82-9.06,3.06-20.84-6.17-26.32" style="fill:#a4203a;"/></g></svg>