<svg xmlns="http://www.w3.org/2000/svg" viewBox="0 0 750 1050">
  <defs>
    <clipPath id="a">
      <path style="fill:none" d="M-36-36h822v1122H-36z"/>
    </clipPath>
  </defs>
  <rect width="750" height="1049.95" rx="44.82" style="fill:#fff" data-name="Ebene 2"/>
  <g data-name="Ebene 1 Kopie 2">
    <path d="M365.2 608.16q.32 11.7 10.56 11.7t10.46-11.7V573.9q0-9.84-3.32-11.29-1.86-.83-6.73-.83c-.89 0-1.82 0-2.79.11q-8.17.3-8.18 12Z" style="fill:#282c44"/>
    <path d="M365.2 608.16q.32 11.7 10.56 11.7t10.46-11.7V573.9q0-9.84-3.32-11.29-1.86-.83-6.73-.83c-.89 0-1.82 0-2.79.11q-8.17.3-8.18 12ZM375.76 653q-22.41 0-33.59-11.31l-11 40.83h87.49L408 642.9Q396.92 653 375.76 653Z" style="fill:#282c44"/>
    <path d="M375.76 653q-22.41 0-33.59-11.31l-11 40.83h87.49L408 642.9Q396.92 653 375.76 653ZM375.66 529.28q10.56 0 10.56-12.11V484q-.32-11.69-10.46-11.69T365.2 484v33.13q0 12.15 10.46 12.15Z" style="fill:#282c44"/>
    <path d="M375.66 529.28q10.56 0 10.56-12.11V484q-.32-11.69-10.46-11.69T365.2 484v33.13q0 12.15 10.46 12.15Z" style="fill:#282c44"/>
    <path d="m479.13 524.66-104.2-156.5v-.66L270.84 524c-17.94 27-9.45 62.12 19 78.44a65.75 65.75 0 0 0 41.2 8V573.9q0-21.12 13.87-28.26-13.86-7.15-13.87-28.26V484q0-44.71 44.72-44.82T420.38 484v33.34q0 21.11-13.88 28.26 13.88 7.14 13.88 28.26v34.26c0 1.06 0 2.11-.07 3.13a66.39 66.39 0 0 0 39.75-8.17c28.46-16.29 37.03-51.42 19.07-78.42Z" style="fill:#282c44"/>
    <path d="m479.13 524.66-104.2-156.5v-.66L270.84 524c-17.94 27-9.45 62.12 19 78.44a65.75 65.75 0 0 0 41.2 8V573.9q0-21.12 13.87-28.26-13.86-7.15-13.87-28.26V484q0-44.71 44.72-44.82T420.38 484v33.34q0 21.11-13.88 28.26 13.88 7.14 13.88 28.26v34.26c0 1.06 0 2.11-.07 3.13a66.39 66.39 0 0 0 39.75-8.17c28.46-16.29 37.03-51.42 19.07-78.42ZM97.33 84.22v-.38l-16.59 4.44a4.48 4.48 0 0 1-3.45 1.27 6.2 6.2 0 0 1-1-.08l-16.35 4.39a10.51 10.51 0 0 0 3.58 3q-6.23 3.2-6.22 12.66v15.38q0 20 20 20.08t20-20.08v-15.36q0-9.47-6.21-12.66 6.24-3.19 6.24-12.66ZM82 124.9q-.15 5.23-4.69 5.24t-4.73-5.24v-15.36c0-3.49 1.22-5.29 3.66-5.38h1.26a8.28 8.28 0 0 1 3 .37c1 .43 1.49 2.12 1.49 5.05ZM72.61 80.11V69.28Q72.75 64 77.34 64T82 69.28v8.31l15.3-4.11v-4.2q0-20.08-20-20.09t-20 20.09v14.93ZM652.67 965.78v.38l16.59-4.44a4.48 4.48 0 0 1 3.45-1.27 6.2 6.2 0 0 1 1 .08l16.36-4.39a10.51 10.51 0 0 0-3.58-3q6.22-3.2 6.22-12.66V925.1q0-20-20-20.08t-20 20.08v15.36q0 9.45 6.21 12.66-6.25 3.2-6.25 12.66ZM668 925.1q.15-5.24 4.69-5.24t4.73 5.24v15.36q0 5.24-3.66 5.38h-1.26a8.28 8.28 0 0 1-3-.37c-1-.43-1.49-2.12-1.49-5ZM677.39 969.89v10.83q-.14 5.24-4.73 5.24t-4.66-5.24v-8.31l-15.3 4.11v4.2q0 20.09 20 20.09t20-20.09v-14.93Z" style="fill:#282c44"/>
    <g style="clip-path:url(#a)">
      <path d="m97.72 194.56-17.81 10.22 17.79-10.22-20.8-31.3v-.13l-20.79 31.3a10.92 10.92 0 0 0 3.8 15.69 13.34 13.34 0 0 0 12.47.31l-4.22 15.7h17.48l-4.16-15.5a13.55 13.55 0 0 0 12.43-.38 10.91 10.91 0 0 0 3.81-15.69M652.28 855.44l17.81-10.22-17.79 10.22 20.8 31.3v.13l20.79-31.3a10.92 10.92 0 0 0-3.8-15.69 13.34 13.34 0 0 0-12.47-.31l4.22-15.7h-17.48l4.16 15.5a13.55 13.55 0 0 0-12.43.38 10.91 10.91 0 0 0-3.81 15.69" style="fill:#282c44"/>
    </g>
  </g>
</svg>
