<?xml version="1.0" encoding="UTF-8"?><svg xmlns="http://www.w3.org/2000/svg" viewBox="0 0 750 1050"><g id="uuid-10694a7d-4e2c-4e51-b78e-d4f73291a635"><rect x="0" width="750" height="1049.95" rx="44.82" ry="44.82" style="fill:#fff;"/></g><g id="uuid-0543eecd-df6e-4b83-bc18-7861a22d1324"><g><g><path d="M362.26,633.11c.27,10.14,4.84,15.21,13.73,15.21s13.32-5.07,13.59-15.21v-44.54c0-8.52-1.44-13.41-4.31-14.67-1.61-.72-4.53-1.08-8.75-1.08-1.17,0-2.38,.05-3.63,.13-7.09,.27-10.63,5.47-10.63,15.61v44.54Z" style="fill:#282c44;"/><path d="M362.26,633.11c.27,10.14,4.84,15.21,13.73,15.21s13.32-5.07,13.59-15.21v-44.54c0-8.52-1.44-13.41-4.31-14.67-1.61-.72-4.53-1.08-8.75-1.08-1.17,0-2.38,.05-3.63,.13-7.09,.27-10.63,5.47-10.63,15.61v44.54Z" style="fill:#282c44;"/></g><g><path d="M375.99,691.38c-19.43-.05-33.98-4.95-43.67-14.71l-14.27,53.08h113.73l-13.84-51.48c-9.64,8.73-23.62,13.11-41.95,13.11Z" style="fill:#282c44;"/><path d="M375.99,691.38c-19.43-.05-33.98-4.95-43.67-14.71l-14.27,53.08h113.73l-13.84-51.48c-9.64,8.73-23.62,13.11-41.95,13.11Z" style="fill:#282c44;"/></g><g><path d="M375.85,530.56c9.15,0,13.73-5.25,13.73-15.74v-43.06c-.27-10.14-4.8-15.21-13.59-15.21s-13.46,5.07-13.73,15.21v43.06c0,10.5,4.53,15.74,13.59,15.74Z" style="fill:#282c44;"/><path d="M375.85,530.56c9.15,0,13.73-5.25,13.73-15.74v-43.06c-.27-10.14-4.8-15.21-13.59-15.21s-13.46,5.07-13.73,15.21v43.06c0,10.5,4.53,15.74,13.59,15.74Z" style="fill:#282c44;"/></g><g><path d="M510.37,524.56l-135.46-203.45v-.86l-135.32,203.45,.05,.03c-23.32,35.1-12.29,80.75,24.7,101.98,16.45,9.44,35.39,12.72,53.56,10.37-.03-.98-.05-1.96-.05-2.97v-44.54c0-18.3,6.01-30.55,18.03-36.74-12.02-6.19-18.03-18.44-18.03-36.74v-43.33c0-38.76,19.38-58.18,58.13-58.27,38.67,0,58,19.42,58,58.27v43.33c0,18.3-6.01,30.55-18.03,36.74,12.02,6.19,18.03,18.44,18.03,36.74v44.54c0,1.39-.03,2.74-.08,4.07,17.63,1.8,35.91-1.58,51.67-10.62,37-21.23,48.13-66.9,24.79-102.01Z" style="fill:#282c44;"/><path d="M510.37,524.56l-135.46-203.45v-.86l-135.32,203.45,.05,.03c-23.32,35.1-12.29,80.75,24.7,101.98,16.45,9.44,35.39,12.72,53.56,10.37-.03-.98-.05-1.96-.05-2.97v-44.54c0-18.3,6.01-30.55,18.03-36.74-12.02-6.19-18.03-18.44-18.03-36.74v-43.33c0-38.76,19.38-58.18,58.13-58.27,38.67,0,58,19.42,58,58.27v43.33c0,18.3-6.01,30.55-18.03,36.74,12.02,6.19,18.03,18.44,18.03,36.74v44.54c0,1.39-.03,2.74-.08,4.07,17.63,1.8,35.91-1.58,51.67-10.62,37-21.23,48.13-66.9,24.79-102.01Z" style="fill:#282c44;"/></g></g><g><path d="M77.83,89.38v-14.08c.12-4.54,2.17-6.81,6.15-6.81s5.97,2.27,6.09,6.81v10.8l19.9-5.33v-5.47c0-17.41-8.66-26.11-25.99-26.11-17.37,.04-26.05,8.74-26.05,26.11v19.41l19.9-5.33Z" style="fill:#282c44;"/><path d="M109.98,94.72v-.49l-21.57,5.78c-1.02,1.09-2.51,1.65-4.48,1.65-.46,0-.89-.04-1.3-.1l-21.26,5.7c1.23,1.64,2.76,2.96,4.65,3.93-5.39,2.78-8.08,8.26-8.08,16.46v19.96c0,17.37,8.68,26.07,26.05,26.11,17.33,0,25.99-8.7,25.99-26.11v-19.96c0-8.2-2.69-13.69-8.08-16.46,5.39-2.77,8.08-8.26,8.08-16.46Zm-19.9,52.88c-.12,4.54-2.15,6.81-6.09,6.81s-6.03-2.27-6.15-6.81v-19.96c0-4.54,1.59-6.87,4.76-7,.56-.04,1.11-.06,1.63-.06,1.89,0,3.2,.16,3.92,.48,1.29,.56,1.93,2.75,1.93,6.57v19.96Z" style="fill:#282c44;"/></g><path d="M110.02,242.67l-23.15,13.29h0s23.13-13.29,23.13-13.29l-27.04-40.69v-.17l-27.04,40.69h.01c-4.66,7.03-2.45,16.16,4.94,20.4,5.02,2.88,11.19,2.89,16.21,.41l-5.48,20.4h22.72l-5.41-20.15c4.99,2.4,11.2,2.36,16.16-.49,7.39-4.25,9.62-13.38,4.95-20.4" style="fill:#282c44;"/><g><path d="M672.17,960.62v14.08c-.12,4.54-2.17,6.81-6.15,6.81s-5.97-2.27-6.09-6.81v-10.8l-19.9,5.33v5.47c0,17.41,8.66,26.11,25.99,26.11,17.37-.04,26.05-8.74,26.05-26.11v-19.41l-19.9,5.33Z" style="fill:#282c44;"/><path d="M640.02,955.28v.49l21.57-5.78c1.02-1.09,2.51-1.65,4.48-1.65,.46,0,.89,.04,1.3,.1l21.26-5.7c-1.23-1.64-2.76-2.96-4.65-3.93,5.39-2.78,8.08-8.26,8.08-16.46v-19.96c0-17.37-8.68-26.07-26.05-26.11-17.33,0-25.99,8.7-25.99,26.11v19.96c0,8.2,2.69,13.69,8.08,16.46-5.39,2.77-8.08,8.26-8.08,16.46Zm19.9-52.88c.12-4.54,2.15-6.81,6.09-6.81s6.03,2.27,6.15,6.81v19.96c0,4.54-1.59,6.87-4.76,7-.56,.04-1.11,.06-1.63,.06-1.89,0-3.2-.16-3.92-.48-1.29-.56-1.93-2.75-1.93-6.57v-19.96Z" style="fill:#282c44;"/></g><path d="M639.98,807.33l23.15-13.29h0s-23.13,13.29-23.13,13.29l27.04,40.69v.17l27.04-40.69h-.01c4.66-7.03,2.45-16.16-4.94-20.4-5.02-2.88-11.19-2.89-16.21-.41l5.48-20.4h-22.72l5.41,20.15c-4.99-2.4-11.2-2.36-16.16,.49-7.39,4.25-9.62,13.38-4.95,20.4" style="fill:#282c44;"/></g></svg>