<svg xmlns="http://www.w3.org/2000/svg" width="80" height="112" fill="none"><rect width="80" height="112" fill="#fff" rx="5"/><path fill="#2C2833" d="M16.466 23.632v-1.43c0-1.742-.52-3.068-1.768-3.77v-.052c1.17-.65 1.768-1.846 1.768-3.64v-.572c0-2.912-1.586-4.576-4.472-4.576s-4.472 1.664-4.472 4.576v.572c0 1.794.572 2.99 1.768 3.64v.052c-1.248.702-1.768 2.028-1.768 3.77v1.43c0 2.912 1.586 4.576 4.472 4.576s4.472-1.664 4.472-4.576Zm-6.084-.078v-1.69c0-1.43.598-2.054 1.612-2.054 1.014 0 1.612.624 1.612 2.054v1.69c-.026 1.612-.702 2.054-1.612 2.054-.91 0-1.612-.442-1.612-2.054Zm0-9.282c0-1.638.702-2.08 1.612-2.08.91 0 1.612.442 1.612 2.08v1.014c0 1.456-.702 1.924-1.612 1.924-.936 0-1.612-.468-1.612-1.924v-1.014Z"/><path fill="#2C2833" fill-rule="evenodd" d="M7.553 42.266c-1.182 1.312-1.182 3.439 0 4.75.882.978 2.172 1.227 3.262.747v2.904h2.37v-2.904c1.09.48 2.38.231 3.261-.747 1.183-1.311 1.183-3.438 0-4.75L12 37.333l-4.447 4.933ZM33.33 53.4c-1.773 1.967-1.773 5.157 0 7.124 1.323 1.468 3.258 1.84 4.892 1.12V66h3.556v-4.356c1.634.72 3.57.348 4.892-1.12 1.773-1.967 1.773-5.157 0-7.125L40 46l-6.67 7.4Z" clip-rule="evenodd"/><path fill="#2C2833" d="M63.534 88.368v1.43c0 1.742.52 3.068 1.768 3.77v.052c-1.17.65-1.768 1.846-1.768 3.64v.572c0 2.912 1.586 4.576 4.472 4.576s4.472-1.664 4.472-4.576v-.572c0-1.794-.572-2.99-1.768-3.64v-.052c1.248-.702 1.768-2.028 1.768-3.77v-1.43c0-2.912-1.586-4.576-4.472-4.576s-4.472 1.664-4.472 4.576Zm6.084.078v1.69c0 1.43-.598 2.054-1.612 2.054-1.014 0-1.612-.624-1.612-2.054v-1.69c.026-1.612.702-2.054 1.612-2.054.91 0 1.612.442 1.612 2.054Zm0 9.282c0 1.638-.702 2.08-1.612 2.08-.91 0-1.612-.442-1.612-2.08v-1.014c0-1.456.702-1.924 1.612-1.924.936 0 1.612.468 1.612 1.924v1.014Z"/><path fill="#2C2833" fill-rule="evenodd" d="M72.447 69.734c1.182-1.312 1.182-3.439 0-4.75-.882-.978-2.172-1.227-3.262-.746v-2.905h-2.37v2.904c-1.09-.48-2.38-.231-3.261.747-1.183 1.311-1.183 3.438 0 4.75L68 74.667l4.447-4.933Z" clip-rule="evenodd"/></svg>