<svg xmlns="http://www.w3.org/2000/svg" xmlns:xlink="http://www.w3.org/1999/xlink" viewBox="0 0 750 1050"><defs><style>.cls-1{fill:none;}.cls-2{fill:#fff;}.cls-3{clip-path:url(#clip-path);}.cls-4{fill:#282c44;}</style><clipPath id="clip-path"><rect class="cls-1" x="-36" y="-36" width="822" height="1122"/></clipPath></defs><g id="Ebene_2" data-name="Ebene 2"><rect class="cls-2" width="750" height="1049.95" rx="44.82"/></g><g id="Ebene_1_Kopie_2" data-name="Ebene 1 Kopie 2"><g class="cls-3"><path class="cls-4" d="M90.78,185.83a13.53,13.53,0,0,0-6.85,1.84l-.22-.32a13.1,13.1,0,0,0,6.14-11,12.9,12.9,0,0,0-12.58-13.2A13.42,13.42,0,0,0,64,176.22a12.82,12.82,0,0,0,6.21,11l-.17.25a13.15,13.15,0,0,0-6.21-1.66,13.42,13.42,0,0,0-13.32,13.09,13.12,13.12,0,0,0,13,13,13.38,13.38,0,0,0,9.38-3.79l-4.83,18H85.83L81,208a14.29,14.29,0,0,0,9.53,3.91,13.06,13.06,0,0,0,.28-26.1"/><path class="cls-4" d="M659.22,864.17a13.53,13.53,0,0,0,6.85-1.84l.22.32a13.1,13.1,0,0,0-6.14,11,12.9,12.9,0,0,0,12.58,13.2A13.42,13.42,0,0,0,686,873.78a12.82,12.82,0,0,0-6.21-11l.17-.25a13.15,13.15,0,0,0,6.21,1.66,13.42,13.42,0,0,0,13.32-13.09,13.12,13.12,0,0,0-13-13,13.38,13.38,0,0,0-9.38,3.79l4.83-18H664.17L669,842a14.29,14.29,0,0,0-9.53-3.91,13.06,13.06,0,0,0-.28,26.1"/></g><path class="cls-4" d="M366.22,469.41v40.38q0,9.52,3.21,10.86c1.17.56,3.35.83,6.52.83.83,0,1.76,0,2.8-.1q7.86-.21,7.86-11.59V469.41q0-11.69-10.14-11.69T366.22,469.41Z"/><path class="cls-4" d="M331.75,481V469.41q0-44.71,44.72-44.82t44.61,44.82v9.44a65.87,65.87,0,0,0,18.59-45.34c.4-36.05-27.76-65.6-62.89-66S310.6,396.91,310.2,433A63.28,63.28,0,0,0,331.75,481Z"/><path class="cls-4" d="M331.75,593.63v-29.4h34.47v29.4q0,11.6,10.15,11.7h.2q10.05,0,10-11.7V549.54q-4.65,4.14-17.9,4.14c-1.39,0-2.87-.07-4.46-.21q-15.21-1.56-23.8-10.87-8.7-9.52-8.7-32.81V485.32a64.86,64.86,0,0,0-22.4-4.32c-35.13-.4-66.18,29.41-66.58,65.45s30,64.67,65.14,65.08a64.89,64.89,0,0,0,25-4.75A70.55,70.55,0,0,1,331.75,593.63Z"/><path class="cls-4" d="M376.37,638.35q-20.3,0-31.35-9.26L330.68,682.5h88.87l-13.9-51.77Q394.81,638.35,376.37,638.35Z"/><path class="cls-4" d="M444.34,481a65.42,65.42,0,0,0-23.26,4.1V593.63a69.61,69.61,0,0,1-1.23,13.57,68.9,68.9,0,0,0,23,4.33c35.13.41,63.94-28.48,64.34-64.52S479.47,481.41,444.34,481Z"/><path class="cls-4" d="M72.75,80.07V69.28q0-5.23,4.59-5.24t4.55,5.24v8.34l15.44-4.14v-4.2q0-20.08-20-20.09t-20,20.09V84.21Z"/><path class="cls-4" d="M81.86,88c-.14,3-1.3,4.53-3.5,4.59-.46,0-.88,0-1.25,0a7.69,7.69,0,0,1-2.92-.37c-.55-.23-.93-.87-1.17-1.89L57.87,94.41a15.19,15.19,0,0,0,3.33,7.66Q65,106.26,71.87,107c.71.06,1.37.09,2,.09q5.94,0,8-1.86v19.76q0,5.25-4.5,5.25h-.1c-3,0-4.54-1.78-4.54-5.25V111.77H57.3v13.17q0,20,20,20t20-20V83.84Z"/><path class="cls-4" d="M668.14,962c.14-3,1.3-4.53,3.5-4.59.46,0,.88,0,1.25,0a7.69,7.69,0,0,1,2.92.37c.55.23.93.87,1.17,1.89l15.15-4.06a15.19,15.19,0,0,0-3.33-7.66q-3.84-4.18-10.67-4.88c-.71-.06-1.37-.09-2-.09q-5.94,0-8,1.86V925.06q0-5.25,4.5-5.25h.1c3,0,4.54,1.78,4.54,5.25v13.17H692.7V925.06q0-20-20-20t-20,20v41.1Z"/><path class="cls-4" d="M677.25,969.93v10.79q0,5.24-4.59,5.24t-4.55-5.24v-8.34l-15.44,4.14v4.2q0,20.09,20,20.09t20-20.09V965.79Z"/></g></svg>