<?xml version="1.0" encoding="UTF-8"?><svg xmlns="http://www.w3.org/2000/svg" viewBox="0 0 750 1050"><g id="uuid-77091b21-efd4-4c86-aa02-f5677b1774b3"><rect x="0" width="750" height="1049.95" rx="44.82" ry="44.82" style="fill:#fff;"/></g><g id="uuid-8f01d907-3030-4ca6-b104-efe234f3db7e"><g><path d="M363.59,452.74v52.48c0,8.26,1.39,12.97,4.17,14.13,1.52,.72,4.35,1.08,8.48,1.08,1.08,0,2.29-.04,3.63-.13,6.82-.18,10.23-5.2,10.23-15.07v-52.48c0-10.14-4.4-15.21-13.19-15.21s-13.32,5.07-13.32,15.21Z" style="fill:#282c44;"/><path d="M318.77,467.78v-15.04c0-38.76,19.38-58.18,58.13-58.27,38.67,0,58,19.42,58,58.27v12.27c14.71-15.12,23.91-35.9,24.16-58.95,.52-46.86-36.09-85.27-81.76-85.8-45.67-.53-86.03,38.22-86.55,85.08-.28,24.89,10.76,47.06,28.01,62.45Z" style="fill:#282c44;"/><path d="M318.77,614.22v-38.22h44.81v38.22c0,10.05,4.4,15.12,13.19,15.21h.27c8.7,0,13.05-5.07,13.05-15.21v-57.33c-4.04,3.59-11.8,5.38-23.28,5.38-1.8,0-3.72-.09-5.79-.27-13.19-1.35-23.51-6.06-30.95-14.13-7.54-8.25-11.3-22.47-11.3-42.66v-31.81c-9.19-3.51-19.02-5.49-29.12-5.61-45.67-.53-86.03,38.22-86.55,85.08-.52,46.86,39,84.07,84.67,84.6,11.29,.13,22.3-2.08,32.48-6.18-.99-5.2-1.49-10.9-1.49-17.09Z" style="fill:#282c44;"/><path d="M376.77,672.36c-17.59,0-31.16-4.02-40.75-12.04l-18.65,69.43h115.53l-18.07-67.3c-9.39,6.6-22.08,9.91-38.07,9.91Z" style="fill:#282c44;"/><path d="M465.14,467.81c-10.33-.12-20.56,1.78-30.23,5.32v141.1c0,6.41-.54,12.28-1.6,17.63,9.54,3.53,19.68,5.51,29.95,5.63,45.67,.53,83.12-37.03,83.63-83.88,.52-46.86-36.09-85.27-81.76-85.8Z" style="fill:#282c44;"/></g><g><path d="M89.86,99.62c-.18,3.88-1.69,5.88-4.55,5.96-.6,.04-1.15,.06-1.63,.06-1.85,0-3.12-.16-3.8-.48-.71-.3-1.21-1.13-1.52-2.45l-19.7,5.28c.8,4.35,2.24,7.67,4.33,9.96,3.34,3.62,7.96,5.73,13.87,6.33,.92,.08,1.79,.12,2.59,.12,5.15,0,8.62-.8,10.43-2.41v25.69c0,4.54-1.95,6.81-5.85,6.81h-.12c-3.94-.04-5.91-2.31-5.91-6.81v-17.13h-20.08v17.13c0,17.37,8.66,26.05,25.99,26.05s26.05-8.68,26.05-26.05v-53.44l-20.12,5.39Z" style="fill:#282c44;"/><path d="M78.01,89.34v-14.03c0-4.54,1.99-6.81,5.97-6.81s5.91,2.27,5.91,6.81v10.85l20.08-5.38v-5.47c0-17.41-8.66-26.11-25.99-26.11-17.37,.04-26.05,8.74-26.05,26.11v19.41l20.08-5.38Z" style="fill:#282c44;"/></g><path d="M101.85,229.36c-3.12-.04-6.2,.85-8.91,2.4l-.29-.42c4.73-2.94,7.92-8.24,7.98-14.33,.1-9.37-7.22-17.05-16.35-17.16-9.14-.11-17.21,7.64-17.31,17.02-.07,6.09,3.25,11.36,8.08,14.34l-.22,.33c-2.44-1.35-5.2-2.13-8.08-2.17-9.14-.11-17.21,7.64-17.31,17.02-.1,9.37,7.8,16.81,16.93,16.92,4.61,.05,8.98-1.84,12.2-4.92l-6.28,23.38h23.11l-6.32-23.53c3.29,3.1,7.78,5.03,12.39,5.08,9.13,.11,16.62-7.4,16.73-16.78,.1-9.37-7.22-17.05-16.35-17.16" style="fill:#282c44;"/><g><path d="M660.14,950.38c.18-3.88,1.69-5.88,4.55-5.96,.6-.04,1.15-.06,1.63-.06,1.85,0,3.12,.16,3.8,.48,.71,.3,1.21,1.13,1.52,2.45l19.7-5.28c-.8-4.35-2.24-7.67-4.33-9.96-3.34-3.62-7.96-5.73-13.87-6.33-.92-.08-1.79-.12-2.59-.12-5.15,0-8.62,.8-10.43,2.41v-25.69c0-4.54,1.95-6.81,5.85-6.81h.12c3.94,.04,5.91,2.31,5.91,6.81v17.13h20.08v-17.13c0-17.37-8.66-26.05-25.99-26.05s-26.05,8.68-26.05,26.05v53.44l20.12-5.39Z" style="fill:#282c44;"/><path d="M671.99,960.66v14.03c0,4.54-1.99,6.81-5.97,6.81s-5.91-2.27-5.91-6.81v-10.85l-20.08,5.38v5.47c0,17.41,8.66,26.11,25.99,26.11,17.37-.04,26.05-8.74,26.05-26.11v-19.41l-20.08,5.38Z" style="fill:#282c44;"/></g><path d="M648.15,820.64c3.12,.04,6.2-.85,8.91-2.4l.29,.42c-4.73,2.94-7.92,8.24-7.98,14.33-.1,9.37,7.22,17.05,16.35,17.16,9.14,.11,17.21-7.64,17.31-17.02,.07-6.09-3.25-11.36-8.08-14.34l.22-.33c2.44,1.35,5.2,2.13,8.08,2.17,9.14,.11,17.21-7.64,17.31-17.02,.1-9.37-7.8-16.81-16.93-16.92-4.61-.05-8.98,1.84-12.2,4.92l6.28-23.38h-23.11l6.32,23.53c-3.29-3.1-7.78-5.03-12.39-5.08-9.13-.11-16.62,7.4-16.73,16.78-.1,9.37,7.22,17.05,16.35,17.16" style="fill:#282c44;"/></g></svg>