<svg xmlns="http://www.w3.org/2000/svg" viewBox="0 0 750 1050"><defs><style>.cls-1{fill:#fff;}.cls-2{fill:#a4203a;}</style></defs><g id="Ebene_2" data-name="Ebene 2"><rect class="cls-1" width="750" height="1049.95" rx="44.82"/></g><g id="Ebene_1_Kopie_2" data-name="Ebene 1 Kopie 2"><polygon class="cls-2" points="77.32 163 55.2 194.5 77.32 226 99.44 194.5 77.32 163"/><polygon class="cls-2" points="672.68 887 694.8 855.5 672.68 824 650.56 855.5 672.68 887"/><path class="cls-2" d="M364.8,485.67V526q0,9.53,3.21,10.87,1.77.83,6.52.82c.83,0,1.76,0,2.8-.1q7.86-.21,7.87-11.59V485.67q0-11.7-10.15-11.7T364.8,485.67Z"/><path class="cls-2" d="M330.33,609.88V580.49H364.8v29.39q0,11.6,10.15,11.7h.21q10,0,10-11.7V565.79q-4.67,4.14-17.91,4.14c-1.38,0-2.87-.07-4.45-.21q-15.22-1.54-23.81-10.87-8.7-9.52-8.7-32.81V485.67q0-44.73,44.72-44.83t44.62,44.83V609.88a75.59,75.59,0,0,1-.63,9.92L485.6,525,375,367.5,264.4,525,331,619.77A75.12,75.12,0,0,1,330.33,609.88Z"/><path class="cls-2" d="M375,654.6q-13,0-22.2-3.8L375,682.5l22.29-31.74Q388,654.58,375,654.6Z"/><path class="cls-2" d="M81.86,88c-.14,3-1.3,4.53-3.5,4.59-.46,0-.88,0-1.25,0a7.69,7.69,0,0,1-2.92-.37c-.55-.23-.93-.87-1.17-1.89L57.87,94.41a15.15,15.15,0,0,0,3.33,7.66Q65,106.26,71.87,107c.71.06,1.37.09,2,.09q5.94,0,8-1.86v19.76q0,5.25-4.5,5.25h-.1c-3,0-4.54-1.78-4.54-5.25V111.77H57.3v13.17q0,20,20,20t20-20V83.84Z"/><path class="cls-2" d="M72.75,80.07V69.28q0-5.23,4.59-5.24t4.55,5.24v8.34l15.44-4.14v-4.2q0-20.08-20-20.09t-20,20.09V84.21Z"/><path class="cls-2" d="M677.25,969.93v10.79c0,3.5-1.53,5.24-4.59,5.24s-4.55-1.74-4.55-5.24v-8.34l-15.44,4.14v4.2q0,20.09,20,20.09t20-20.09V965.79Z"/><path class="cls-2" d="M668.14,962c.14-3,1.3-4.53,3.5-4.58.46,0,.88-.05,1.25-.05a7.69,7.69,0,0,1,2.92.37c.55.23.93.87,1.17,1.89l15.15-4.06a15.19,15.19,0,0,0-3.33-7.66q-3.84-4.18-10.67-4.87c-.71-.07-1.37-.1-2-.1q-5.94,0-8,1.86V925.06c0-3.5,1.5-5.24,4.5-5.24h.1c3,0,4.54,1.77,4.54,5.24v13.17H692.7V925.06q0-20-20-20t-20,20v41.1Z"/></g></svg>