<svg xmlns="http://www.w3.org/2000/svg" viewBox="0 0 750 1050">
  <defs>
    <style>
      .cls-2{fill:#a4203a}
    </style>
  </defs>
  <rect width="750" height="1049.95" rx="44.82" style="fill:#fff" id="Ebene_2" data-name="Ebene 2"/>
  <g id="Ebene_1_Kopie_2" data-name="Ebene 1 Kopie 2">
    <path class="cls-2" d="M77.32 163 55.2 194.5 77.32 226l22.12-31.5L77.32 163zm595.36 724 22.12-31.5-22.12-31.5-22.12 31.5 22.12 31.5zM364.8 485.67V526q0 9.53 3.21 10.87 1.77.83 6.52.82c.83 0 1.76 0 2.8-.1q7.86-.21 7.87-11.59v-40.33q0-11.7-10.15-11.7t-10.25 11.7Z"/>
    <path class="cls-2" d="M330.33 609.88v-29.39h34.47v29.39q0 11.6 10.15 11.7h.21q10 0 10-11.7v-44.09q-4.67 4.14-17.91 4.14c-1.38 0-2.87-.07-4.45-.21q-15.22-1.54-23.81-10.87-8.7-9.52-8.7-32.81v-40.37q0-44.73 44.72-44.83t44.62 44.83v124.21a75.59 75.59 0 0 1-.63 9.92l66.6-94.8L375 367.5 264.4 525l66.6 94.77a75.12 75.12 0 0 1-.67-9.89ZM375 654.6q-13 0-22.2-3.8l22.2 31.7 22.29-31.74Q388 654.58 375 654.6ZM81.86 88c-.14 3-1.3 4.53-3.5 4.59h-1.25a7.69 7.69 0 0 1-2.92-.37c-.55-.23-.93-.87-1.17-1.89l-15.15 4.08a15.15 15.15 0 0 0 3.33 7.66q3.8 4.19 10.67 4.93c.71.06 1.37.09 2 .09q5.94 0 8-1.86v19.76q0 5.25-4.5 5.25h-.1c-3 0-4.54-1.78-4.54-5.25v-13.22H57.3v13.17q0 20 20 20t20-20v-41.1Zm-9.11-7.93V69.28q0-5.23 4.59-5.24t4.55 5.24v8.34l15.44-4.14v-4.2q0-20.08-20-20.09t-20 20.09v14.93Zm604.5 889.86v10.79c0 3.5-1.53 5.24-4.59 5.24s-4.55-1.74-4.55-5.24v-8.34l-15.44 4.14v4.2q0 20.09 20 20.09t20-20.09v-14.93Zm-9.11-7.93c.14-3 1.3-4.53 3.5-4.58.46 0 .88-.05 1.25-.05a7.69 7.69 0 0 1 2.92.37c.55.23.93.87 1.17 1.89l15.15-4.06a15.19 15.19 0 0 0-3.33-7.66q-3.84-4.18-10.67-4.87c-.71-.07-1.37-.1-2-.1q-5.94 0-8 1.86v-19.74c0-3.5 1.5-5.24 4.5-5.24h.1c3 0 4.54 1.77 4.54 5.24v13.17h15.43v-13.17q0-20-20-20t-20 20v41.1Z"/>
  </g>
</svg>
