<svg xmlns="http://www.w3.org/2000/svg" width="80" height="112" fill="none"><rect width="80" height="112" fill="#fff" rx="5"/><path fill="#DC3059" d="M16.284 14.168c0-2.912-1.534-4.576-4.342-4.576S7.6 11.256 7.6 14.168v3.328c0 2.678 1.066 4.16 3.172 4.16 1.274 0 2.106-.546 2.6-1.586h.052v3.302c0 1.742-.572 2.236-1.586 2.236-.91 0-1.482-.494-1.482-1.794v-.65H7.652v.468c0 2.912 1.456 4.576 4.264 4.576 2.964 0 4.368-1.664 4.368-4.732v-9.308Zm-4.342 4.888c-.91 0-1.482-.494-1.482-1.794v-3.276c0-1.3.572-1.768 1.482-1.768s1.482.468 1.482 1.768v3.276c0 1.3-.572 1.794-1.482 1.794ZM12.057 36.667l5.276 7.295-5.39 7.371-5.276-7.295 5.39-7.371ZM40.085 45 48 55.943 39.915 67 32 56.057 40.085 45ZM63.716 97.832c0 2.912 1.534 4.576 4.342 4.576s4.342-1.664 4.342-4.576v-3.328c0-2.678-1.066-4.16-3.172-4.16-1.274 0-2.106.546-2.6 1.586h-.052v-3.302c0-1.742.572-2.236 1.586-2.236.91 0 1.482.494 1.482 1.794v.65h2.704v-.468c0-2.912-1.456-4.576-4.264-4.576-2.964 0-4.368 1.664-4.368 4.732v9.308Zm4.342-4.888c.91 0 1.482.494 1.482 1.794v3.276c0 1.3-.572 1.768-1.482 1.768s-1.482-.468-1.482-1.768v-3.276c0-1.3.572-1.794 1.482-1.794ZM67.943 75.333l-5.276-7.295 5.39-7.371 5.276 7.295-5.39 7.371Z"/></svg>