<?xml version="1.0" encoding="UTF-8"?><svg xmlns="http://www.w3.org/2000/svg" viewBox="0 0 750 1050"><g id="uuid-cc78283d-06cb-4620-a5be-1f358635d0f8"><rect x="0" width="750" height="1049.95" rx="44.82" ry="44.82" style="fill:#fff;"/></g><g id="uuid-956190c0-667e-4618-8de7-2a7916712dbf"><g><path d="M361.74,473.87v52.48c0,8.25,1.39,12.96,4.17,14.13,1.52,.72,4.35,1.08,8.48,1.08,1.08,0,2.29-.04,3.63-.13,6.82-.18,10.23-5.2,10.23-15.07v-52.48c0-10.14-4.4-15.21-13.19-15.21s-13.32,5.07-13.32,15.21Z" style="fill:#a4203a;"/><path d="M316.93,635.35v-38.22h44.81v38.22c0,10.05,4.4,15.12,13.19,15.21h.27c8.7,0,13.05-5.07,13.05-15.21v-57.33c-4.04,3.59-11.8,5.38-23.28,5.38-1.8,0-3.72-.09-5.79-.27-13.19-1.35-23.51-6.06-30.95-14.13-7.54-8.25-11.3-22.47-11.3-42.66v-52.48c0-38.76,19.38-58.18,58.13-58.27,38.67,0,58,19.42,58,58.27v161.48c0,4.57-.28,8.86-.82,12.89l86.53-123.24-143.77-204.75-143.8,204.75,86.53,123.21c-.53-4.02-.81-8.3-.81-12.86Z" style="fill:#a4203a;"/><path d="M374.93,693.48c-11.27,0-20.88-1.66-28.86-4.95l28.94,41.21,28.98-41.27c-8.03,3.33-17.7,5-29.06,5Z" style="fill:#a4203a;"/></g><g><path d="M89.86,99.62c-.18,3.88-1.69,5.88-4.55,5.96-.6,.04-1.15,.06-1.63,.06-1.85,0-3.12-.16-3.8-.48-.71-.3-1.21-1.13-1.52-2.45l-19.7,5.28c.8,4.35,2.24,7.67,4.33,9.96,3.34,3.62,7.96,5.73,13.87,6.33,.92,.08,1.79,.12,2.59,.12,5.15,0,8.62-.8,10.43-2.41v25.69c0,4.54-1.95,6.81-5.85,6.81h-.12c-3.94-.04-5.91-2.31-5.91-6.81v-17.13h-20.08v17.13c0,17.37,8.66,26.05,25.99,26.05s26.05-8.68,26.05-26.05v-53.44l-20.12,5.39Z" style="fill:#a4203a;"/><path d="M78.01,89.34v-14.03c0-4.54,1.99-6.81,5.97-6.81s5.91,2.27,5.91,6.81v10.85l20.08-5.38v-5.47c0-17.41-8.66-26.11-25.99-26.11-17.37,.04-26.05,8.74-26.05,26.11v19.41l20.08-5.38Z" style="fill:#a4203a;"/></g><polygon points="82.89 196.22 54.13 237.17 82.89 278.12 111.65 237.17 82.89 196.22" style="fill:#a4203a;"/></g></svg>