<svg xmlns="http://www.w3.org/2000/svg" viewBox="0 0 750 1050">
  <defs>
    <clipPath id="a">
      <path style="fill:none" d="M-36-36h822v1122H-36z"/>
    </clipPath>
  </defs>
  <g data-name="Ebene 2">
    <rect width="750" height="1049.95" rx="44.82" style="fill:#fff"/>
    <rect width="750" height="1049.95" rx="44.82" style="fill:#fff"/>
  </g>
  <g data-name="Ebene 1 Kopie 2">
    <path d="M375.05 465.51q-10.24 0-10.25 11.7v40.37q0 9.52 3.21 10.87 1.77.82 6.52.83c.83 0 1.76 0 2.8-.11q7.86-.2 7.87-11.59v-40.37q0-11.7-10.15-11.7ZM401.3 640.36q-10.3 5.78-26.3 5.79-15.31 0-25.36-5.27L375 681.65v.85Z" style="fill:#a4203a"/>
    <path d="M478 379.37c-34-20.78-80.65-11.5-103 22.15-22.34-33.65-69-43.78-103-23-34.43 21.07-44.75 66.39-23 101.23l81.83 131.19a75.32 75.32 0 0 1-.58-9.51V572h34.55v29.4q0 11.6 10.15 11.69h.21q10 0 10-11.69v-44.1q-4.67 4.14-17.91 4.14c-1.38 0-2.87-.07-4.45-.21q-15.22-1.54-23.81-10.87-8.7-9.51-8.7-32.81v-40.34q0-44.71 44.72-44.82t44.62 44.82v124.22a74.26 74.26 0 0 1-.73 10.65L501 480.6c21.69-34.84 11.38-80.16-23-101.23ZM57.3 69.28q0-20 20-20.09t20 20.09v55.66q0 20-20 20t-20-20v-13.17h15.45v13.17c0 3.47 1.51 5.21 4.54 5.25h.1q4.5 0 4.5-5.25v-19.76q-2.08 1.86-8 1.86c-.62 0-1.28 0-2-.09q-6.83-.7-10.67-4.88t-3.9-14.7Zm24.59 0q0-5.23-4.55-5.24t-4.59 5.24v18.09q0 4.27 1.44 4.87a7.69 7.69 0 0 0 2.92.37h1.25q3.52-.1 3.53-5.2ZM692.7 980.72q0 20-20 20.09t-20-20.09v-55.66q0-20 20-20t20 20v13.17h-15.45v-13.17c0-3.47-1.51-5.21-4.54-5.24h-.1c-3 0-4.5 1.74-4.5 5.24v19.76q2.08-1.86 8-1.86c.62 0 1.28 0 2 .1q6.82.69 10.67 4.87t3.9 14.7Zm-24.59 0c0 3.5 1.52 5.24 4.55 5.24s4.59-1.74 4.59-5.24v-18.09c0-2.84-.48-4.47-1.44-4.87a7.69 7.69 0 0 0-2.92-.37c-.37 0-.79 0-1.25.05q-3.52.09-3.53 5.19Z" style="fill:#a4203a"/>
    <g style="clip-path:url(#a)">
      <path d="M98.54 165.5c-7-4.16-16.61-2.3-21.22 4.43v-.17c-4.6-6.73-14.23-8.59-21.23-4.43a14.34 14.34 0 0 0-4.74 20.25l26-15.42-26 15.42 26 40.38v.17l26-40.38-26-15.42 26 15.42a14.35 14.35 0 0 0-4.75-20.25M651.46 884.5c7 4.16 16.61 2.3 21.22-4.43v.17c4.6 6.73 14.23 8.59 21.23 4.43a14.34 14.34 0 0 0 4.74-20.25l-26 15.42 26-15.42-26-40.38v-.17l-26 40.38 26 15.42-26-15.42a14.35 14.35 0 0 0 4.75 20.25" style="fill:#a4203a"/>
    </g>
    <path transform="rotate(-15 77.30244828 84.01243055)" style="fill:#fff" d="M10.15 79.02h134.33v10H10.15z"/>
    <path transform="rotate(-15 672.65852944 965.92692196)" style="fill:#fff" d="M605.52 960.98h134.33v10H605.52z"/>
  </g>
</svg>
