<svg xmlns="http://www.w3.org/2000/svg" xmlns:xlink="http://www.w3.org/1999/xlink" viewBox="0 0 750 1050"><defs><style>.cls-1{fill:none;}.cls-2{fill:#fff;}.cls-3{fill:#a4203a;}.cls-4{clip-path:url(#clip-path);}</style><clipPath id="clip-path"><rect class="cls-1" x="-36" y="-36" width="822" height="1122"/></clipPath></defs><g id="Ebene_2" data-name="Ebene 2"><rect class="cls-2" width="750" height="1049.95" rx="44.82"/><rect class="cls-2" width="750" height="1049.95" rx="44.82"/></g><g id="Ebene_1_Kopie_2" data-name="Ebene 1 Kopie 2"><path class="cls-3" d="M375.05,465.51q-10.24,0-10.25,11.7v40.37q0,9.52,3.21,10.87,1.77.82,6.52.83c.83,0,1.76,0,2.8-.11q7.86-.2,7.87-11.59V477.21Q385.2,465.51,375.05,465.51Z"/><path class="cls-3" d="M401.3,640.36Q391,646.14,375,646.15q-15.31,0-25.36-5.27L375,681.65v.85Z"/><path class="cls-3" d="M478,379.37C444,358.59,397.35,367.87,375,401.52c-22.34-33.65-69-43.78-103-23-34.43,21.07-44.75,66.39-23,101.23h0l81.83,131.19a75.32,75.32,0,0,1-.58-9.51V572H364.8v29.4q0,11.6,10.15,11.69h.21q10,0,10-11.69v-44.1q-4.67,4.14-17.91,4.14c-1.38,0-2.87-.07-4.45-.21q-15.22-1.54-23.81-10.87-8.7-9.51-8.7-32.81V477.21q0-44.71,44.72-44.82t44.62,44.82V601.43a74.26,74.26,0,0,1-.73,10.65L501,480.6h0C522.69,445.76,512.38,400.44,478,379.37Z"/><path class="cls-3" d="M57.3,69.28q0-20,20-20.09t20,20.09v55.66q0,20-20,20t-20-20V111.77H72.75v13.17c0,3.47,1.51,5.21,4.54,5.25h.1q4.5,0,4.5-5.25V105.18q-2.08,1.86-8,1.86c-.62,0-1.28,0-2-.09q-6.83-.7-10.67-4.88t-3.9-14.7Zm24.59,0q0-5.23-4.55-5.24t-4.59,5.24V87.37q0,4.27,1.44,4.87a7.69,7.69,0,0,0,2.92.37c.37,0,.79,0,1.25,0q3.52-.1,3.53-5.2Z"/><path class="cls-3" d="M692.7,980.72q0,20-20,20.09t-20-20.09V925.06q0-20,20-20t20,20v13.17H677.25V925.06c0-3.47-1.51-5.21-4.54-5.24h-.1c-3,0-4.5,1.74-4.5,5.24v19.76q2.08-1.86,8-1.86c.62,0,1.28,0,2,.1q6.82.69,10.67,4.87t3.9,14.7Zm-24.59,0c0,3.5,1.52,5.24,4.55,5.24s4.59-1.74,4.59-5.24V962.63c0-2.84-.48-4.47-1.44-4.87a7.69,7.69,0,0,0-2.92-.37c-.37,0-.79,0-1.25.05q-3.52.09-3.53,5.19Z"/><g class="cls-4"><path class="cls-3" d="M98.54,165.5c-7-4.16-16.61-2.3-21.22,4.43v-.17c-4.6-6.73-14.23-8.59-21.23-4.43a14.34,14.34,0,0,0-4.74,20.25l26-15.42-26,15.42,26,40.38v.17l26-40.38-26-15.42,26,15.42a14.35,14.35,0,0,0-4.75-20.25"/><path class="cls-3" d="M651.46,884.5c7,4.16,16.61,2.3,21.22-4.43v.17c4.6,6.73,14.23,8.59,21.23,4.43a14.34,14.34,0,0,0,4.74-20.25l-26,15.42,26-15.42-26-40.38v-.17l-26,40.38,26,15.42-26-15.42a14.35,14.35,0,0,0,4.75,20.25"/></g><rect class="cls-2" x="10.15" y="79.02" width="134.33" height="10" transform="translate(-19.11 22.87) rotate(-15)"/><rect class="cls-2" x="605.52" y="960.98" width="134.33" height="10" transform="translate(-227.08 207.01) rotate(-15)"/></g></svg>