<?xml version="1.0" encoding="UTF-8"?><svg xmlns="http://www.w3.org/2000/svg" viewBox="0 0 750 1050"><g id="uuid-73d3371c-89c0-44ed-aeec-4d0da9c01857"><rect x="0" width="750" height="1049.95" rx="44.82" ry="44.82" style="fill:#fff;"/><rect x="0" width="750" height="1049.95" rx="44.82" ry="44.82" style="fill:#fff;"/></g><g id="uuid-4e664d57-1d08-40c7-bda6-b9f84bdfc679"><g><path d="M375.07,447.63c-8.88,0-13.32,5.07-13.32,15.21v52.48c0,8.26,1.39,12.97,4.17,14.13,1.52,.72,4.35,1.08,8.48,1.08,1.08,0,2.29-.04,3.63-.13,6.82-.18,10.23-5.2,10.23-15.07v-52.48c0-10.14-4.4-15.21-13.19-15.21Z" style="fill:#a4203a;"/><path d="M409.19,674.94c-8.92,5-20.33,7.52-34.25,7.52s-24.25-2.28-32.97-6.84l33.06,53v1.11l34.17-54.78Z" style="fill:#a4203a;"/><path d="M508.83,335.64c-44.13-27.01-104.78-14.95-133.81,28.8-29.04-43.75-89.7-56.91-133.84-29.91-44.76,27.39-58.18,86.31-29.94,131.6h.06l106.37,170.55c-.49-3.88-.75-7.99-.75-12.36v-38.22h44.81v38.22c0,10.05,4.4,15.12,13.19,15.21h.27c8.7,0,13.05-5.07,13.05-15.21v-57.33c-4.04,3.59-11.8,5.38-23.28,5.38-1.8,0-3.72-.09-5.79-.27-13.19-1.35-23.51-6.06-30.95-14.13-7.54-8.25-11.3-22.47-11.3-42.66v-52.48c0-38.76,19.38-58.18,58.13-58.27,38.67,0,58,19.42,58,58.27v161.48c0,4.93-.32,9.54-.94,13.84l106.61-170.92h.02c28.25-45.29,14.85-104.21-29.91-131.6Z" style="fill:#a4203a;"/></g><g><path d="M89.86,99.62c-.18,3.88-1.69,5.88-4.55,5.96-.6,.04-1.15,.06-1.63,.06-1.85,0-3.12-.16-3.8-.48-.71-.3-1.21-1.13-1.52-2.45l-19.7,5.28c.8,4.35,2.24,7.67,4.33,9.96,3.34,3.62,7.96,5.73,13.87,6.33,.92,.08,1.79,.12,2.59,.12,5.15,0,8.62-.8,10.43-2.41v25.69c0,4.54-1.95,6.81-5.85,6.81h-.12c-3.94-.04-5.91-2.31-5.91-6.81v-17.13h-20.08v17.13c0,17.37,8.66,26.05,25.99,26.05s26.05-8.68,26.05-26.05v-53.44l-20.12,5.39Z" style="fill:#a4203a;"/><path d="M78.01,89.34v-14.03c0-4.54,1.99-6.81,5.97-6.81s5.91,2.27,5.91,6.81v10.85l20.08-5.38v-5.47c0-17.41-8.66-26.11-25.99-26.11-17.37,.04-26.05,8.74-26.05,26.11v19.41l20.08-5.38Z" style="fill:#a4203a;"/></g><path d="M110.57,204.89c-9.1-5.4-21.6-2.99-27.59,5.76v-.22c-5.99-8.75-18.5-11.16-27.6-5.76-9.23,5.48-12,17.26-6.17,26.32l33.77-20.04-33.75,20.04,33.75,52.49v.22l33.75-52.49-33.75-20.04,33.76,20.04c5.82-9.06,3.06-20.84-6.17-26.32" style="fill:#a4203a;"/><g><path d="M660.14,950.38c.18-3.88,1.69-5.88,4.55-5.96,.6-.04,1.15-.06,1.63-.06,1.85,0,3.12,.16,3.8,.48,.71,.3,1.21,1.13,1.52,2.45l19.7-5.28c-.8-4.35-2.24-7.67-4.33-9.96-3.34-3.62-7.96-5.73-13.87-6.33-.92-.08-1.79-.12-2.59-.12-5.15,0-8.62,.8-10.43,2.41v-25.69c0-4.54,1.95-6.81,5.85-6.81h.12c3.94,.04,5.91,2.31,5.91,6.81v17.13h20.08v-17.13c0-17.37-8.66-26.05-25.99-26.05s-26.05,8.68-26.05,26.05v53.44l20.12-5.39Z" style="fill:#a4203a;"/><path d="M671.99,960.66v14.03c0,4.54-1.99,6.81-5.97,6.81s-5.91-2.27-5.91-6.81v-10.85l-20.08,5.38v5.47c0,17.41,8.66,26.11,25.99,26.11,17.37-.04,26.05-8.74,26.05-26.11v-19.41l-20.08,5.38Z" style="fill:#a4203a;"/></g><path d="M639.43,845.11c9.1,5.4,21.6,2.99,27.59-5.76v.22c5.99,8.75,18.5,11.16,27.6,5.76,9.23-5.48,12-17.26,6.17-26.32l-33.77,20.04,33.75-20.04-33.75-52.49v-.22l-33.75,52.49,33.75,20.04-33.76-20.04c-5.82,9.06-3.06,20.84,6.17,26.32" style="fill:#a4203a;"/></g></svg>