<svg xmlns="http://www.w3.org/2000/svg" viewBox="0 0 750 1050">
  <defs>
    <clipPath id="a">
      <path style="fill:none" d="M-36-36h822v1122H-36z"/>
    </clipPath>
  </defs>
  <rect width="750" height="1049.95" rx="44.82" style="fill:#fff" data-name="Ebene 2"/>
  <g data-name="Ebene 1 Kopie 2">
    <path d="M72.75 80.07V69.28q0-5.23 4.59-5.24t4.55 5.24v8.34l15.44-4.14v-4.2q0-20.08-20-20.09t-20 20.09v14.93ZM81.86 88c-.14 3-1.3 4.53-3.5 4.59h-1.25a7.69 7.69 0 0 1-2.92-.37c-.55-.23-.93-.87-1.17-1.89l-15.15 4.08a15.19 15.19 0 0 0 3.33 7.66q3.8 4.19 10.67 4.93c.71.06 1.37.09 2 .09q5.94 0 8-1.86v19.76q0 5.25-4.5 5.25h-.1c-3 0-4.54-1.78-4.54-5.25v-13.22H57.3v13.17q0 20 20 20t20-20v-41.1ZM364.8 448.67V489q0 9.52 3.21 10.87 1.77.82 6.52.83c.83 0 1.76 0 2.8-.11q7.86-.19 7.87-11.59v-40.33q0-11.7-10.15-11.7t-10.25 11.7ZM345.52 411.72q10.88-7.82 29.53-7.87 17.67 0 28.33 7l-28.45-42.72v-.66ZM375 617.61q-15 0-24.95-5.07l-18.81 70h87.49l-18.79-69.92q-10.02 4.97-24.94 4.99ZM479.13 524.66l-61.21-91.94a67.16 67.16 0 0 1 1.75 15.95v124.22q0 24.4-13.34 35.48c17.44 5.6 37.36 4.15 53.73-5.25 28.46-16.33 37.03-51.46 19.07-78.46Z" style="fill:#282c44"/>
    <path d="M330.33 572.89v-29.4h34.47v29.4q0 11.6 10.15 11.7h.21q10 0 10-11.7v-44.1q-4.67 4.14-17.91 4.14c-1.38 0-2.87-.07-4.45-.21q-15.22-1.54-23.81-10.87-8.7-9.51-8.7-32.81v-40.37a65.25 65.25 0 0 1 2.1-17.27L270.84 524c-17.94 27-9.45 62.12 19 78.44a66.52 66.52 0 0 0 53.16 5.37q-12.67-11.14-12.67-34.92ZM677.25 969.93v10.79q0 5.24-4.59 5.24t-4.55-5.24v-8.34l-15.44 4.14v4.2q0 20.09 20 20.09t20-20.09v-14.93ZM668.14 962c.14-3 1.3-4.53 3.5-4.59h1.25a7.69 7.69 0 0 1 2.92.37c.55.23.93.87 1.17 1.89l15.15-4.06a15.19 15.19 0 0 0-3.33-7.66q-3.84-4.18-10.67-4.88c-.71-.06-1.37-.09-2-.09q-5.94 0-8 1.86v-19.78q0-5.25 4.5-5.25h.1c3 0 4.54 1.78 4.54 5.25v13.17h15.43v-13.17q0-20-20-20t-20 20v41.1Z" style="fill:#282c44"/>
    <g style="clip-path:url(#a)">
      <path d="m97.72 194.56-17.81 10.22 17.79-10.22-20.8-31.3v-.13l-20.79 31.3a10.92 10.92 0 0 0 3.8 15.69 13.34 13.34 0 0 0 12.47.31l-4.22 15.7h17.48l-4.16-15.5a13.55 13.55 0 0 0 12.43-.38 10.91 10.91 0 0 0 3.81-15.69M652.28 855.44l17.81-10.22-17.79 10.22 20.8 31.3v.13l20.79-31.3a10.92 10.92 0 0 0-3.8-15.69 13.34 13.34 0 0 0-12.47-.31l4.22-15.7h-17.48l4.16 15.5a13.55 13.55 0 0 0-12.43.38 10.91 10.91 0 0 0-3.81 15.69" style="fill:#282c44"/>
    </g>
    <path d="M677.25 969.93v10.79q0 5.24-4.59 5.24t-4.55-5.24v-8.34l-15.44 4.14v4.2q0 20.09 20 20.09t20-20.09v-14.93ZM668.14 962c.14-3 1.3-4.53 3.5-4.59h1.25a7.69 7.69 0 0 1 2.92.37c.55.23.93.87 1.17 1.89l15.15-4.06a15.19 15.19 0 0 0-3.33-7.66q-3.84-4.18-10.67-4.88c-.71-.06-1.37-.09-2-.09q-5.94 0-8 1.86v-19.78q0-5.25 4.5-5.25h.1c3 0 4.54 1.78 4.54 5.25v13.17h15.43v-13.17q0-20-20-20t-20 20v41.1Z" style="fill:#282c44"/>
    <path d="M677.25 969.93v10.79q0 5.24-4.59 5.24t-4.55-5.24v-8.34l-15.44 4.14v4.2q0 20.09 20 20.09t20-20.09v-14.93ZM668.14 962c.14-3 1.3-4.53 3.5-4.59h1.25a7.69 7.69 0 0 1 2.92.37c.55.23.93.87 1.17 1.89l15.15-4.06a15.19 15.19 0 0 0-3.33-7.66q-3.84-4.18-10.67-4.88c-.71-.06-1.37-.09-2-.09q-5.94 0-8 1.86v-19.78q0-5.25 4.5-5.25h.1c3 0 4.54 1.78 4.54 5.25v13.17h15.43v-13.17q0-20-20-20t-20 20v41.1Z" style="fill:#282c44"/>
    <path d="M677.25 969.93v10.79q0 5.24-4.59 5.24t-4.55-5.24v-8.34l-15.44 4.14v4.2q0 20.09 20 20.09t20-20.09v-14.93ZM668.14 962c.14-3 1.3-4.53 3.5-4.59h1.25a7.69 7.69 0 0 1 2.92.37c.55.23.93.87 1.17 1.89l15.15-4.06a15.19 15.19 0 0 0-3.33-7.66q-3.84-4.18-10.67-4.88c-.71-.06-1.37-.09-2-.09q-5.94 0-8 1.86v-19.78q0-5.25 4.5-5.25h.1c3 0 4.54 1.78 4.54 5.25v13.17h15.43v-13.17q0-20-20-20t-20 20v41.1Z" style="fill:#282c44"/>
  </g>
</svg>
