<?xml version="1.0" encoding="UTF-8"?><svg xmlns="http://www.w3.org/2000/svg" viewBox="0 0 750 1050"><g id="uuid-9cdc2305-dd65-4885-b601-43f2960f3bc9"><rect x="0" width="750" height="1049.95" rx="44.82" ry="44.82" style="fill:#fff;"/></g><g id="uuid-f1b07cfd-8288-48a1-896f-99fdfd3ace15"><g><path d="M361.74,425.77v52.48c0,8.26,1.39,12.97,4.17,14.13,1.52,.72,4.35,1.08,8.48,1.08,1.08,0,2.29-.04,3.63-.13,6.82-.18,10.23-5.2,10.23-15.07v-52.48c0-10.14-4.4-15.21-13.19-15.21s-13.32,5.07-13.32,15.21Z" style="fill:#282c44;"/><path d="M336.68,377.73c9.42-6.77,22.21-10.19,38.39-10.23,15.31,0,27.58,3.06,36.82,9.15l-36.98-55.54v-.86l-38.23,57.48Z" style="fill:#282c44;"/><path d="M374.93,645.39c-13,0-23.8-2.2-32.43-6.58l-24.45,90.94h113.73l-24.43-90.9c-8.63,4.35-19.43,6.54-32.42,6.54Z" style="fill:#282c44;"/><path d="M510.37,524.56l-79.58-119.52c1.51,6.16,2.28,13.06,2.28,20.73v161.48c0,21.16-5.79,36.53-17.34,46.13,22.68,7.28,48.56,5.39,69.85-6.83,37-21.23,48.13-66.9,24.79-102.01Z" style="fill:#282c44;"/><path d="M316.93,587.25v-38.22h44.81v38.22c0,10.05,4.4,15.12,13.19,15.21h.27c8.7,0,13.05-5.07,13.05-15.21v-57.33c-4.04,3.59-11.8,5.38-23.28,5.38-1.8,0-3.72-.09-5.79-.27-13.19-1.35-23.51-6.06-30.95-14.13-7.54-8.25-11.3-22.47-11.3-42.66v-52.48c0-8.39,.91-15.88,2.73-22.46l-80.07,120.39,.05,.03c-23.32,35.1-12.29,80.75,24.7,101.98,21.19,12.16,46.52,14.1,69,6.95-10.94-9.65-16.41-24.78-16.41-45.39Z" style="fill:#282c44;"/></g><g><path d="M89.86,99.62c-.18,3.88-1.69,5.88-4.55,5.96-.6,.04-1.15,.06-1.63,.06-1.85,0-3.12-.16-3.8-.48-.71-.3-1.21-1.13-1.52-2.45l-19.7,5.28c.8,4.35,2.24,7.67,4.33,9.96,3.34,3.62,7.96,5.73,13.87,6.33,.92,.08,1.79,.12,2.59,.12,5.15,0,8.62-.8,10.43-2.41v25.69c0,4.54-1.95,6.81-5.85,6.81h-.12c-3.94-.04-5.91-2.31-5.91-6.81v-17.13h-20.08v17.13c0,17.37,8.66,26.05,25.99,26.05s26.05-8.68,26.05-26.05v-53.44l-20.12,5.39Z" style="fill:#282c44;"/><path d="M78.01,89.34v-14.03c0-4.54,1.99-6.81,5.97-6.81s5.91,2.27,5.91,6.81v10.85l20.08-5.38v-5.47c0-17.41-8.66-26.11-25.99-26.11-17.37,.04-26.05,8.74-26.05,26.11v19.41l20.08-5.38Z" style="fill:#282c44;"/></g><path d="M110.02,242.67l-23.15,13.29h0s23.13-13.29,23.13-13.29l-27.04-40.69v-.17l-27.04,40.69h.01c-4.66,7.03-2.45,16.16,4.94,20.4,5.02,2.88,11.19,2.89,16.21,.41l-5.48,20.4h22.72l-5.41-20.15c4.99,2.4,11.2,2.36,16.16-.49,7.39-4.25,9.62-13.38,4.95-20.4" style="fill:#282c44;"/><g><path d="M660.14,950.38c.18-3.88,1.69-5.88,4.55-5.96,.6-.04,1.15-.06,1.63-.06,1.85,0,3.12,.16,3.8,.48,.71,.3,1.21,1.13,1.52,2.45l19.7-5.28c-.8-4.35-2.24-7.67-4.33-9.96-3.34-3.62-7.96-5.73-13.87-6.33-.92-.08-1.79-.12-2.59-.12-5.15,0-8.62,.8-10.43,2.41v-25.69c0-4.54,1.95-6.81,5.85-6.81h.12c3.94,.04,5.91,2.31,5.91,6.81v17.13h20.08v-17.13c0-17.37-8.66-26.05-25.99-26.05s-26.05,8.68-26.05,26.05v53.44l20.12-5.39Z" style="fill:#282c44;"/><path d="M671.99,960.66v14.03c0,4.54-1.99,6.81-5.97,6.81s-5.91-2.27-5.91-6.81v-10.85l-20.08,5.38v5.47c0,17.41,8.66,26.11,25.99,26.11,17.37-.04,26.05-8.74,26.05-26.11v-19.41l-20.08,5.38Z" style="fill:#282c44;"/></g><path d="M639.98,807.33l23.15-13.29h0s-23.13,13.29-23.13,13.29l27.04,40.69v.17l27.04-40.69h-.01c4.66-7.03,2.45-16.16-4.94-20.4-5.02-2.88-11.19-2.89-16.21-.41l5.48-20.4h-22.72l5.41,20.15c-4.99-2.4-11.2-2.36-16.16,.49-7.39,4.25-9.62,13.38-4.95,20.4" style="fill:#282c44;"/><polygon points="225.32 367.29 254.08 326.34 225.32 285.39 196.57 326.34 225.32 367.29" style="fill:#a4203a;"/></g></svg>