<svg xmlns="http://www.w3.org/2000/svg" xmlns:xlink="http://www.w3.org/1999/xlink" viewBox="0 0 750 1050"><defs><style>.cls-1{fill:none;}.cls-2{fill:#fff;}.cls-3{fill:#282c44;}.cls-4{clip-path:url(#clip-path);}</style><clipPath id="clip-path"><rect class="cls-1" x="-36" y="-36" width="822" height="1122"/></clipPath></defs><g id="Ebene_2" data-name="Ebene 2"><rect class="cls-2" width="750" height="1049.95" rx="44.82"/></g><g id="Ebene_1_Kopie_2" data-name="Ebene 1 Kopie 2"><path class="cls-3" d="M72.75,80.07V69.28q0-5.23,4.59-5.24t4.55,5.24v8.34l15.44-4.14v-4.2q0-20.08-20-20.09t-20,20.09V84.21Z"/><path class="cls-3" d="M81.86,88c-.14,3-1.3,4.53-3.5,4.59-.46,0-.88,0-1.25,0a7.69,7.69,0,0,1-2.92-.37c-.55-.23-.93-.87-1.17-1.89L57.87,94.41a15.19,15.19,0,0,0,3.33,7.66Q65,106.26,71.87,107c.71.06,1.37.09,2,.09q5.94,0,8-1.86v19.76q0,5.25-4.5,5.25h-.1c-3,0-4.54-1.78-4.54-5.25V111.77H57.3v13.17q0,20,20,20t20-20V83.84Z"/><path class="cls-3" d="M364.8,448.67V489q0,9.52,3.21,10.87,1.77.82,6.52.83c.83,0,1.76,0,2.8-.11q7.86-.19,7.87-11.59V448.67q0-11.7-10.15-11.7T364.8,448.67Z"/><path class="cls-3" d="M345.52,411.72q10.88-7.82,29.53-7.87,17.67,0,28.33,7l-28.45-42.72v-.66Z"/><path class="cls-3" d="M375,617.61q-15,0-24.95-5.07l-18.81,70h87.49l-18.79-69.92Q389.92,617.59,375,617.61Z"/><path class="cls-3" d="M479.13,524.66l-61.21-91.94a67.16,67.16,0,0,1,1.75,15.95V572.89q0,24.4-13.34,35.48c17.44,5.6,37.36,4.15,53.73-5.25C488.52,586.79,497.09,551.66,479.13,524.66Z"/><path class="cls-3" d="M330.33,572.89v-29.4H364.8v29.4q0,11.6,10.15,11.7h.21q10,0,10-11.7v-44.1q-4.67,4.14-17.91,4.14c-1.38,0-2.87-.07-4.45-.21q-15.22-1.54-23.81-10.87-8.7-9.51-8.7-32.81V448.67a65.25,65.25,0,0,1,2.1-17.27L270.84,524l0,0c-17.94,27-9.45,62.12,19,78.44A66.52,66.52,0,0,0,343,607.81Q330.33,596.67,330.33,572.89Z"/><path class="cls-3" d="M677.25,969.93v10.79q0,5.24-4.59,5.24t-4.55-5.24v-8.34l-15.44,4.14v4.2q0,20.09,20,20.09t20-20.09V965.79Z"/><path class="cls-3" d="M668.14,962c.14-3,1.3-4.53,3.5-4.59.46,0,.88,0,1.25,0a7.69,7.69,0,0,1,2.92.37c.55.23.93.87,1.17,1.89l15.15-4.06a15.19,15.19,0,0,0-3.33-7.66q-3.84-4.18-10.67-4.88c-.71-.06-1.37-.09-2-.09q-5.94,0-8,1.86V925.06q0-5.25,4.5-5.25h.1c3,0,4.54,1.78,4.54,5.25v13.17H692.7V925.06q0-20-20-20t-20,20v41.1Z"/><g class="cls-4"><path class="cls-3" d="M97.72,194.56,79.91,204.78h0L97.7,194.56l-20.8-31.3v-.13l-20.79,31.3h0a10.92,10.92,0,0,0,3.8,15.69,13.34,13.34,0,0,0,12.47.31l-4.22,15.7H85.64l-4.16-15.5a13.55,13.55,0,0,0,12.43-.38,10.91,10.91,0,0,0,3.81-15.69"/><path class="cls-3" d="M652.28,855.44l17.81-10.22h0L652.3,855.44l20.8,31.3v.13l20.79-31.3h0a10.92,10.92,0,0,0-3.8-15.69,13.34,13.34,0,0,0-12.47-.31l4.22-15.7H664.36l4.16,15.5a13.55,13.55,0,0,0-12.43.38,10.91,10.91,0,0,0-3.81,15.69"/></g><path class="cls-3" d="M677.25,969.93v10.79q0,5.24-4.59,5.24t-4.55-5.24v-8.34l-15.44,4.14v4.2q0,20.09,20,20.09t20-20.09V965.79Z"/><path class="cls-3" d="M668.14,962c.14-3,1.3-4.53,3.5-4.59.46,0,.88,0,1.25,0a7.69,7.69,0,0,1,2.92.37c.55.23.93.87,1.17,1.89l15.15-4.06a15.19,15.19,0,0,0-3.33-7.66q-3.84-4.18-10.67-4.88c-.71-.06-1.37-.09-2-.09q-5.94,0-8,1.86V925.06q0-5.25,4.5-5.25h.1c3,0,4.54,1.78,4.54,5.25v13.17H692.7V925.06q0-20-20-20t-20,20v41.1Z"/><path class="cls-3" d="M677.25,969.93v10.79q0,5.24-4.59,5.24t-4.55-5.24v-8.34l-15.44,4.14v4.2q0,20.09,20,20.09t20-20.09V965.79Z"/><path class="cls-3" d="M668.14,962c.14-3,1.3-4.53,3.5-4.59.46,0,.88,0,1.25,0a7.69,7.69,0,0,1,2.92.37c.55.23.93.87,1.17,1.89l15.15-4.06a15.19,15.19,0,0,0-3.33-7.66q-3.84-4.18-10.67-4.88c-.71-.06-1.37-.09-2-.09q-5.94,0-8,1.86V925.06q0-5.25,4.5-5.25h.1c3,0,4.54,1.78,4.54,5.25v13.17H692.7V925.06q0-20-20-20t-20,20v41.1Z"/><path class="cls-3" d="M677.25,969.93v10.79q0,5.24-4.59,5.24t-4.55-5.24v-8.34l-15.44,4.14v4.2q0,20.09,20,20.09t20-20.09V965.79Z"/><path class="cls-3" d="M668.14,962c.14-3,1.3-4.53,3.5-4.59.46,0,.88,0,1.25,0a7.69,7.69,0,0,1,2.92.37c.55.23.93.87,1.17,1.89l15.15-4.06a15.19,15.19,0,0,0-3.33-7.66q-3.84-4.18-10.67-4.88c-.71-.06-1.37-.09-2-.09q-5.94,0-8,1.86V925.06q0-5.25,4.5-5.25h.1c3,0,4.54,1.78,4.54,5.25v13.17H692.7V925.06q0-20-20-20t-20,20v41.1Z"/></g></svg>