<?xml version="1.0" encoding="UTF-8"?><svg xmlns="http://www.w3.org/2000/svg" viewBox="0 0 750 1050"><g id="uuid-2f630160-f87f-4bb1-b012-50603de9bbd2"><rect width="750" height="1049.95" rx="44.82" ry="44.82" style="fill:#fff;"/></g><g id="uuid-fcb089fd-be7b-40a7-867a-516976fa0745"><path d="M399.44,372.06l-17.56,110.88-132.25,35.43c11.11-22.19,34.35-37.66,59.72-37.37,11.05,.13,21.69,3.15,31.07,8.35l.86-1.26c-18.59-11.45-31.33-31.73-31.08-55.14,.4-36.04,31.45-65.85,66.58-65.45,8,.09,15.64,1.7,22.66,4.56Z" style="fill:#282c44;"/><path d="M427.88,470.61l-30.13,8.08,15.64-98.77c16.13,12.01,26.52,31.59,26.28,53.59-.15,13.84-4.5,26.62-11.79,37.1Z" style="fill:#282c44;"/><path d="M379.31,499.14l-29.04,183.36h-19.59l24.15-89.91c-12.37,11.88-29.19,19.15-46.92,18.94-35.13-.41-65.54-29.04-65.14-65.08,.04-3.75,.41-7.42,1.09-11.01l135.45-36.3Z" style="fill:#282c44;"/><path d="M507.23,547.01c-.4,36.04-29.21,64.93-64.34,64.52-17.74-.21-34.98-7.62-47.64-19.55l24.3,90.52h-54.09l29.72-187.61,51.56-13.81c34,1.69,60.88,30.71,60.49,65.93Z" style="fill:#282c44;"/><g><polygon points="81.06 113.87 83.79 93.15 86.34 112.45 105.37 107.35 96.88 53.35 70.83 53.35 60.41 119.4 81.06 113.87" style="fill:#282c44;"/><polygon points="107.4 120.27 88.06 125.45 88.62 129.69 78.97 129.69 79.21 127.82 58.25 133.44 52.86 174.07 73.06 174.07 76.43 148.99 91.21 148.99 94.52 174.07 114.79 174.07 109.06 130.78 107.4 120.27" style="fill:#282c44;"/></g><path d="M101.85,229.36c-3.12-.04-6.2,.85-8.91,2.4l-.29-.42c4.73-2.94,7.92-8.24,7.98-14.33,.1-9.37-7.22-17.05-16.35-17.16-9.14-.11-17.21,7.64-17.31,17.02-.07,6.09,3.25,11.36,8.08,14.34l-.22,.33c-2.44-1.35-5.2-2.13-8.08-2.17-9.14-.11-17.21,7.64-17.31,17.02-.1,9.37,7.8,16.81,16.93,16.92,4.61,.05,8.98-1.84,12.2-4.92l-6.28,23.38h23.11l-6.32-23.53c3.29,3.1,7.78,5.03,12.39,5.08,9.13,.11,16.62-7.4,16.73-16.78,.1-9.37-7.22-17.05-16.35-17.16" style="fill:#282c44;"/><g><polygon points="668.94 936.13 666.21 956.85 663.66 937.55 644.63 942.65 653.12 996.65 679.17 996.65 689.59 930.6 668.94 936.13" style="fill:#282c44;"/><polygon points="642.6 929.73 661.94 924.55 661.38 920.31 671.03 920.31 670.79 922.18 691.75 916.56 697.14 875.93 676.94 875.93 673.57 901.01 658.79 901.01 655.48 875.93 635.21 875.93 640.94 919.22 642.6 929.73" style="fill:#282c44;"/></g><path d="M648.15,820.64c3.12,.04,6.2-.85,8.91-2.4l.29,.42c-4.73,2.94-7.92,8.24-7.98,14.33-.1,9.37,7.22,17.05,16.35,17.16,9.14,.11,17.21-7.64,17.31-17.02,.07-6.09-3.25-11.36-8.08-14.34l.22-.33c2.44,1.35,5.2,2.13,8.08,2.17,9.14,.11,17.21-7.64,17.31-17.02,.1-9.37-7.8-16.81-16.93-16.92-4.61-.05-8.98,1.84-12.2,4.92l6.28-23.38h-23.11l6.32,23.53c-3.29-3.1-7.78-5.03-12.39-5.08-9.13-.11-16.62,7.4-16.73,16.78-.1,9.37,7.22,17.05,16.35,17.16" style="fill:#282c44;"/></g></svg>