<svg xmlns="http://www.w3.org/2000/svg" viewBox="0 0 750 1050">
  <defs>
    <clipPath id="clip-path">
      <path style="fill:none" d="M-36-36h822v1122H-36z"/>
    </clipPath>
    <style>
      .cls-2{fill:#fff}.cls-4{fill:#282c44}
    </style>
  </defs>
  <rect class="cls-2" width="750" height="1049.95" rx="44.82" id="Ebene_2" data-name="Ebene 2"/>
  <g id="Ebene_1_Kopie_2" data-name="Ebene 1 Kopie 2">
    <path class="cls-4" d="M444.34 481a67.82 67.82 0 0 0-34.28 9.22l-1.09-1.6a65.59 65.59 0 0 0 30.7-55.11c.4-36.05-27.76-65.6-62.89-66S310.6 396.91 310.2 433c-.25 23.41 12.49 43.69 31.08 55.14l-.86 1.26a65.73 65.73 0 0 0-31.07-8.4c-35.13-.4-66.18 29.41-66.58 65.45s30 64.67 65.14 65.08a67 67 0 0 0 46.92-18.94l-24.15 89.91h88.87l-24.3-90.5a71.61 71.61 0 0 0 47.64 19.55c35.13.41 63.94-28.48 64.34-64.52s-27.76-65.6-62.89-66M90.75 185.7a13.6 13.6 0 0 0-6.86 1.84l-.22-.32a13.1 13.1 0 0 0 6.14-11A12.9 12.9 0 0 0 77.24 163a13.43 13.43 0 0 0-13.32 13.09 12.84 12.84 0 0 0 6.21 11l-.17.25a13.16 13.16 0 0 0-6.21-1.67 13.43 13.43 0 0 0-13.32 13.09 13.13 13.13 0 0 0 13 13 13.42 13.42 0 0 0 9.41-3.76L68 226h17.79l-4.86-18.1a14.39 14.39 0 0 0 9.53 3.91 13.06 13.06 0 0 0 .29-26.11m568.5 678.6a13.6 13.6 0 0 0 6.86-1.84l.22.32a13.1 13.1 0 0 0-6.14 11A12.9 12.9 0 0 0 672.76 887a13.43 13.43 0 0 0 13.32-13.09 12.84 12.84 0 0 0-6.21-11l.17-.25a13.16 13.16 0 0 0 6.21 1.67 13.43 13.43 0 0 0 13.32-13.09 13.13 13.13 0 0 0-13-13 13.42 13.42 0 0 0-9.38 3.79L682 824h-17.79l4.86 18.1a14.39 14.39 0 0 0-9.53-3.91 13.06 13.06 0 0 0-.29 26.11" style="clip-path:url(#clip-path)"/>
    <path class="cls-4" d="m74.55 99.65 2.1-15.94 1.96 14.85 14.64-3.92-6.53-41.54H66.68l-8.02 50.81 15.89-4.26zm20.27 4.93-14.89 3.98.43 3.26h-7.42l.19-1.43-16.12 4.32-4.16 31.25h15.54l2.6-19.29h11.37l2.55 19.29h15.58l-4.4-33.3-1.27-8.08zm560.36 840.84 14.89-3.98-.43-3.26h7.42l-.19 1.44 16.12-4.33 4.15-31.25h-15.53l-2.6 19.29h-11.37l-2.55-19.29h-15.58l4.4 33.3 1.27 8.08zm20.27 4.93-2.1 15.94-1.96-14.85-14.64 3.92 6.53 41.54h20.04l8.02-50.81-15.89 4.26z"/>
    <path class="cls-2" transform="rotate(-81 386.55084514 501.53570728)" d="M170.53 494.03h432v15h-432z"/>
    <path class="cls-2" transform="rotate(-15 341.4011356 501.52013175)" d="M125.43 494.03h432v15h-432z"/>
  </g>
</svg>
