<svg xmlns="http://www.w3.org/2000/svg" width="80" height="112" fill="none"><rect width="80" height="112" fill="#fff" rx="5"/><path fill="#2C2833" d="M14.09 9.8H9.904L6.992 28h2.626l.494-3.302h3.51L14.116 28h2.886L14.09 9.8Zm-2.262 3.224h.052l1.352 9.204h-2.756l1.352-9.204Z"/><path fill="#2C2833" fill-rule="evenodd" d="M8.863 39.804a3.137 3.137 0 1 1 6.008 1.266 3.137 3.137 0 1 1-1.538 5.693v3.904h-2.666v-3.904a3.137 3.137 0 1 1-1.538-5.693 3.126 3.126 0 0 1-.266-1.266ZM35.294 49.706a4.706 4.706 0 1 1 9.013 1.899A4.706 4.706 0 1 1 42 60.145V66h-4v-5.855a4.706 4.706 0 1 1-2.307-8.54 4.69 4.69 0 0 1-.399-1.9Z" clip-rule="evenodd"/><path fill="#2C2833" d="M65.91 102.2h4.186L73.008 84h-2.626l-.494 3.302h-3.51L65.884 84h-2.886l2.912 18.2Zm2.262-3.224h-.052l-1.352-9.204h2.756l-1.352 9.204Z"/><path fill="#2C2833" fill-rule="evenodd" d="M71.137 72.196a3.137 3.137 0 1 1-6.008-1.266 3.137 3.137 0 1 1 1.538-5.693v-3.904h2.666v3.904a3.137 3.137 0 1 1 1.538 5.693c.171.387.266.816.266 1.266Z" clip-rule="evenodd"/></svg>