<svg xmlns="http://www.w3.org/2000/svg" xmlns:xlink="http://www.w3.org/1999/xlink" viewBox="0 0 750 1050"><defs><style>.cls-1{fill:none;}.cls-2{fill:#fff;}.cls-3{clip-path:url(#clip-path);}.cls-4{fill:#282c44;}</style><clipPath id="clip-path"><rect class="cls-1" x="-36" y="-36" width="822" height="1122"/></clipPath></defs><g id="Ebene_2" data-name="Ebene 2"><rect class="cls-2" width="750" height="1049.95" rx="44.82"/></g><g id="Ebene_1_Kopie_2" data-name="Ebene 1 Kopie 2"><g class="cls-3"><path class="cls-4" d="M444.34,481a67.82,67.82,0,0,0-34.28,9.22l-1.09-1.6a65.59,65.59,0,0,0,30.7-55.11c.4-36.05-27.76-65.6-62.89-66S310.6,396.91,310.2,433c-.25,23.41,12.49,43.69,31.08,55.14l-.86,1.26A65.73,65.73,0,0,0,309.35,481c-35.13-.4-66.18,29.41-66.58,65.45s30,64.67,65.14,65.08a67,67,0,0,0,46.92-18.94L330.68,682.5h88.87L395.25,592a71.61,71.61,0,0,0,47.64,19.55c35.13.41,63.94-28.48,64.34-64.52s-27.76-65.6-62.89-66"/><path class="cls-4" d="M90.75,185.7a13.6,13.6,0,0,0-6.86,1.84l-.22-.32a13.1,13.1,0,0,0,6.14-11A12.9,12.9,0,0,0,77.24,163a13.43,13.43,0,0,0-13.32,13.09,12.84,12.84,0,0,0,6.21,11l-.17.25a13.16,13.16,0,0,0-6.21-1.67,13.43,13.43,0,0,0-13.32,13.09,13.13,13.13,0,0,0,13,13A13.42,13.42,0,0,0,72.84,208L68,226H85.79l-4.86-18.1a14.39,14.39,0,0,0,9.53,3.91,13.06,13.06,0,0,0,.29-26.11"/><path class="cls-4" d="M659.25,864.3a13.6,13.6,0,0,0,6.86-1.84l.22.32a13.1,13.1,0,0,0-6.14,11A12.9,12.9,0,0,0,672.76,887a13.43,13.43,0,0,0,13.32-13.09,12.84,12.84,0,0,0-6.21-11l.17-.25a13.16,13.16,0,0,0,6.21,1.67,13.43,13.43,0,0,0,13.32-13.09,13.13,13.13,0,0,0-13-13,13.42,13.42,0,0,0-9.38,3.79L682,824H664.21l4.86,18.1a14.39,14.39,0,0,0-9.53-3.91,13.06,13.06,0,0,0-.29,26.11"/></g><polygon class="cls-4" points="74.55 99.65 76.65 83.71 78.61 98.56 93.25 94.64 86.72 53.1 66.68 53.1 58.66 103.91 74.55 99.65"/><polygon class="cls-4" points="94.82 104.58 79.93 108.56 80.36 111.82 72.94 111.82 73.13 110.39 57.01 114.71 52.85 145.96 68.39 145.96 70.99 126.67 82.36 126.67 84.91 145.96 100.49 145.96 96.09 112.66 94.82 104.58"/><polygon class="cls-4" points="655.18 945.42 670.07 941.44 669.64 938.18 677.06 938.18 676.87 939.62 692.99 935.29 697.14 904.04 681.61 904.04 679.01 923.33 667.64 923.33 665.09 904.04 649.51 904.04 653.91 937.34 655.18 945.42"/><polygon class="cls-4" points="675.45 950.35 673.35 966.29 671.39 951.44 656.75 955.36 663.28 996.9 683.32 996.9 691.34 946.09 675.45 950.35"/><rect class="cls-2" x="170.53" y="494.03" width="432" height="15" transform="translate(-169.28 804.87) rotate(-81)"/><rect class="cls-2" x="125.43" y="494.03" width="432" height="15" transform="translate(-118.17 105.45) rotate(-15)"/></g></svg>