<svg xmlns="http://www.w3.org/2000/svg" width="80" height="112" fill="none"><rect width="80" height="112" fill="#fff" rx="5"/><path fill="#DC3059" d="M14.09 9.8H9.904L6.992 28h2.626l.494-3.302h3.51L14.116 28h2.886L14.09 9.8Zm-2.262 3.224h.052l1.352 9.204h-2.756l1.352-9.204ZM12.057 36.667l5.276 7.295-5.39 7.371-5.276-7.295 5.39-7.371ZM40.085 45 48 55.943 39.915 67 32 56.057 40.085 45ZM65.91 102.2h4.186L73.008 84h-2.626l-.494 3.302h-3.51L65.884 84h-2.886l2.912 18.2Zm2.262-3.224h-.052l-1.352-9.204h2.756l-1.352 9.204ZM67.943 75.333l-5.276-7.295 5.39-7.371 5.276 7.295-5.39 7.371Z"/></svg>