<?xml version="1.0" encoding="UTF-8"?><svg xmlns="http://www.w3.org/2000/svg" viewBox="0 0 750 1050"><g id="uuid-cdc2c8ca-4a57-4ec2-a2c3-137c4799ea36"><rect width="750" height="1049.95" rx="44.82" ry="44.82" style="fill:#fff;"/></g><g id="uuid-bfbb5ce7-3c66-498a-83c7-3c21cb19fc3c"><g><polygon points="81.06 113.87 83.79 93.15 86.34 112.45 105.37 107.35 96.88 53.35 70.83 53.35 60.41 119.4 81.06 113.87" style="fill:#a4203a;"/><polygon points="107.4 120.27 88.06 125.45 88.62 129.69 78.97 129.69 79.21 127.82 58.25 133.44 52.86 174.07 73.06 174.07 76.43 148.99 91.21 148.99 94.52 174.07 114.79 174.07 109.06 130.78 107.4 120.27" style="fill:#a4203a;"/></g><g><polygon points="371.52 433.52 375.31 325.01 375.01 324.58 281.58 457.62 371.52 433.52" style="fill:#a4203a;"/><polygon points="393.88 351.45 391.2 428.25 438.84 415.48 393.88 351.45" style="fill:#a4203a;"/><polygon points="370.81 453.88 264.13 482.47 231.35 529.14 361.7 714.75 370.81 453.88" style="fill:#a4203a;"/><polygon points="390.49 448.61 380.82 725.42 518.65 529.14 450.76 432.46 390.49 448.61" style="fill:#a4203a;"/></g><polygon points="82.89 196.22 54.13 237.17 82.89 278.12 111.65 237.17 82.89 196.22" style="fill:#a4203a;"/><polygon points="667.11 853.78 695.87 812.83 667.11 771.88 638.35 812.83 667.11 853.78" style="fill:#a4203a;"/><g><polygon points="668.94 936.13 666.21 956.85 663.66 937.55 644.63 942.65 653.12 996.65 679.17 996.65 689.59 930.6 668.94 936.13" style="fill:#a4203a;"/><polygon points="642.6 929.73 661.94 924.55 661.38 920.31 671.03 920.31 670.79 922.18 691.75 916.56 697.14 875.93 676.94 875.93 673.57 901.01 658.79 901.01 655.48 875.93 635.21 875.93 640.94 919.22 642.6 929.73" style="fill:#a4203a;"/></g></g></svg>