<svg xmlns="http://www.w3.org/2000/svg" viewBox="0 0 750 1050"><defs><style>.cls-1{fill:#fff;}.cls-2{fill:#a4203a;}</style></defs><g id="Ebene_2" data-name="Ebene 2"><rect class="cls-1" width="750" height="1049.95" rx="44.82"/></g><g id="Ebene_1_Kopie_2" data-name="Ebene 1 Kopie 2"><polygon class="cls-2" points="375.01 367.75 264.4 525.25 375.01 682.75 485.6 525.25 375.01 367.75"/><polygon class="cls-2" points="76.88 163.25 54.76 194.75 76.88 226.25 99 194.75 76.88 163.25"/><polygon class="cls-2" points="673.12 886.75 695.24 855.25 673.12 823.75 651 855.25 673.12 886.75"/><polygon class="cls-2" points="74.55 99.9 76.65 83.96 78.61 98.81 93.25 94.89 86.72 53.35 66.68 53.35 58.66 104.16 74.55 99.9"/><polygon class="cls-2" points="94.82 104.83 79.93 108.81 80.36 112.07 72.94 112.07 73.13 110.64 57.01 114.95 52.85 146.21 68.39 146.21 70.99 126.92 82.36 126.92 84.91 146.21 100.49 146.21 96.09 112.91 94.82 104.83"/><polygon class="cls-2" points="655.18 945.17 670.07 941.19 669.64 937.93 677.06 937.93 676.87 939.36 692.99 935.04 697.14 903.79 681.61 903.79 679.01 923.08 667.64 923.08 665.09 903.79 649.51 903.79 653.91 937.09 655.18 945.17"/><polygon class="cls-2" points="675.45 950.1 673.35 966.04 671.39 951.19 656.75 955.11 663.28 996.65 683.32 996.65 691.34 945.84 675.45 950.1"/><polygon class="cls-1" points="572.8 413.44 568.92 398.95 387.48 447.57 392.29 309.64 377.3 309.12 372.32 451.63 151.64 510.76 155.53 525.25 371.78 467.31 362.23 740.86 377.21 741.38 386.93 463.25 572.8 413.44"/></g></svg>