<svg xmlns="http://www.w3.org/2000/svg" viewBox="0 0 750 1050">
  <defs>
    <style>
      .cls-1{fill:#fff}
    </style>
  </defs>
  <rect class="cls-1" width="750" height="1049.95" rx="44.82" id="Ebene_2" data-name="Ebene 2"/>
  <g id="Ebene_1_Kopie_2" data-name="Ebene 1 Kopie 2">
    <path d="M375.01 367.75 264.4 525.25l110.61 157.5 110.59-157.5-110.59-157.5zM76.88 163.25l-22.12 31.5 22.12 31.5L99 194.75l-22.12-31.5zm596.24 723.5 22.12-31.5-22.12-31.5-22.12 31.5 22.12 31.5zM74.55 99.9l2.1-15.94 1.96 14.85 14.64-3.92-6.53-41.54H66.68l-8.02 50.81 15.89-4.26zm20.27 4.93-14.89 3.98.43 3.26h-7.42l.19-1.43-16.12 4.31-4.16 31.26h15.54l2.6-19.29h11.37l2.55 19.29h15.58l-4.4-33.3-1.27-8.08zm560.36 840.34 14.89-3.98-.43-3.26h7.42l-.19 1.43 16.12-4.32 4.15-31.25h-15.53l-2.6 19.29h-11.37l-2.55-19.29h-15.58l4.4 33.3 1.27 8.08zm20.27 4.93-2.1 15.94-1.96-14.85-14.64 3.92 6.53 41.54h20.04l8.02-50.81-15.89 4.26z" style="fill:#a4203a"/>
    <path class="cls-1" d="m572.8 413.44-3.88-14.49-181.44 48.62 4.81-137.93-14.99-.52-4.98 142.51-220.68 59.13 3.89 14.49 216.25-57.94-9.55 273.55 14.98.52 9.72-278.13 185.87-49.81z"/>
  </g>
</svg>
