<svg width="80" height="112" viewBox="0 0 80 112" fill="none" xmlns="http://www.w3.org/2000/svg">
<rect width="80" height="112" rx="5" fill="white"/>
<path d="M14.0901 9.79999H9.90405L6.99205 28H9.61805L10.1121 24.698H13.6221L14.1161 28H17.0021L14.0901 9.79999ZM11.8281 13.024H11.8801L13.2321 22.228H10.4761L11.8281 13.024Z" fill="#DC3059"/>
<path d="M17.0024 39.1067C18.3325 40.5824 18.3325 42.9749 17.0023 44.4506L12 50L6.99765 44.4506C5.66745 42.9749 5.66745 40.5824 6.99765 39.1068C8.32785 37.6311 10.4845 37.6311 11.8147 39.1068L12 39.3123L12.1853 39.1067C13.5155 37.6311 15.6722 37.6311 17.0024 39.1067Z" fill="#DC3059"/>
<path d="M47.5035 48.6601C49.4988 50.8736 49.4988 54.4624 47.5035 56.6759L40 65L32.4965 56.6759C30.5012 54.4624 30.5012 50.8736 32.4965 48.6601C34.4918 46.4466 37.7268 46.4466 39.7221 48.6601L40 48.9684L40.2779 48.6601C42.2732 46.4466 45.5082 46.4466 47.5035 48.6601Z" fill="#DC3059"/>
<path d="M65.9099 102.2L70.0959 102.2L73.0079 84L70.3819 84L69.8879 87.302L66.3779 87.302L65.8839 84L62.9979 84L65.9099 102.2ZM68.1719 98.976L68.1199 98.976L66.7679 89.772L69.5239 89.772L68.1719 98.976Z" fill="#DC3059"/>
<path d="M62.9976 72.8932C61.6675 71.4176 61.6675 69.0251 62.9977 67.5494L68 62L73.0024 67.5494C74.3326 69.0251 74.3325 71.4176 73.0024 72.8932C71.6722 74.3689 69.5155 74.3689 68.1853 72.8932L68 72.6877L67.8147 72.8933C66.4845 74.3689 64.3278 74.3689 62.9976 72.8932Z" fill="#DC3059"/>
</svg>
