<?xml version="1.0" encoding="UTF-8"?><svg xmlns="http://www.w3.org/2000/svg" viewBox="0 0 750 1050"><g id="uuid-eded6272-ae01-45f0-ae7d-82f2a921ffbd"><rect y=".02" width="750" height="1049.95" rx="44.82" ry="44.82" style="fill:#fff;"/></g><g id="uuid-657bb956-cfb3-4d8b-8881-f73461e18a94"><g><polygon points="353 543.59 301.63 614.28 239.96 515.41 353 543.59" style="fill:#a4203a;"/><polygon points="373.41 548.67 470.76 572.94 372.97 729.75 372.97 728.65 312.76 632.13 373.41 548.67" style="fill:#a4203a;"/><path d="M504.88,334.55l-56.97,78.4h-.01l-82.54,113.62-140.24-34.97-15.86-25.43,163.71-100.18-163.77,100.18c-28.25-45.29-14.83-104.21,29.94-131.6,44.14-27.01,104.79-14.95,133.84,28.8v1.1c28.61-43.12,87.94-55.46,131.91-29.93Z" style="fill:#a4203a;"/><path d="M536.69,467.28h-.01l-55.06,88.27-95.85-23.89,78.82-108.49,56.04-77.14c33.4,30.08,41.13,81.04,16.06,121.25Z" style="fill:#a4203a;"/></g><path d="M110.57,204.89c-9.1-5.4-21.6-2.99-27.59,5.76v-.22c-5.99-8.75-18.5-11.16-27.6-5.76-9.23,5.48-12,17.26-6.17,26.32l33.77-20.04-33.75,20.04,33.75,52.49v.22l33.75-52.49-33.75-20.04,33.76,20.04c5.82-9.06,3.06-20.84-6.17-26.32" style="fill:#a4203a;"/><g><polygon points="81.06 113.87 83.79 93.15 86.34 112.45 105.37 107.35 96.88 53.35 70.83 53.35 60.41 119.4 81.06 113.87" style="fill:#a4203a;"/><polygon points="107.4 120.27 88.06 125.45 88.62 129.69 78.97 129.69 79.21 127.82 58.25 133.44 52.86 174.07 73.06 174.07 76.43 148.99 91.21 148.99 94.52 174.07 114.79 174.07 109.06 130.78 107.4 120.27" style="fill:#a4203a;"/></g></g></svg>