<svg xmlns="http://www.w3.org/2000/svg" xmlns:xlink="http://www.w3.org/1999/xlink" viewBox="0 0 750 1050"><defs><style>.cls-1{fill:none;}.cls-2{fill:#fff;}.cls-3{clip-path:url(#clip-path);}.cls-4{fill:#a4203a;}</style><clipPath id="clip-path"><rect class="cls-1" x="-36" y="35.7" width="822" height="1050.3"/></clipPath></defs><g id="Ebene_2" data-name="Ebene 2"><rect class="cls-2" y="0.02" width="750" height="1049.95" rx="44.82"/></g><g id="Ebene_1_Kopie_2" data-name="Ebene 1 Kopie 2"><g class="cls-3"><path class="cls-4" d="M475.89,379.37c-33.95-20.78-80.6-11.5-102.93,22.15v-.85C350.62,367,304,357.74,270,378.52c-34.44,21.07-44.76,66.39-23,101.23l126-77.06L247,479.75,373,681.65v.85L498.89,480.6,373,403.54,498.9,480.6c21.73-34.84,11.43-80.16-23-101.23"/></g><g class="cls-3"><path class="cls-4" d="M98.54,165.5c-7-4.16-16.62-2.3-21.22,4.43v-.17c-4.61-6.73-14.23-8.59-21.23-4.43a14.35,14.35,0,0,0-4.75,20.25l26-15.42-26,15.42,26,40.38v.17l26-40.38-26-15.42,26,15.42a14.35,14.35,0,0,0-4.75-20.25"/><path class="cls-4" d="M651.45,884.5c7,4.16,16.62,2.3,21.23-4.43v.17c4.6,6.73,14.22,8.59,21.22,4.43a14.35,14.35,0,0,0,4.75-20.25l-26,15.42,26-15.42-26-40.38v-.17l-26,40.38,26,15.42-26-15.42a14.35,14.35,0,0,0,4.74,20.25"/></g><polygon class="cls-4" points="74.52 99.89 76.65 83.71 78.64 98.79 93.29 94.86 86.72 53.1 66.68 53.1 58.63 104.15 74.52 99.89"/><polygon class="cls-4" points="94.85 104.8 79.96 108.79 80.36 111.82 72.94 111.82 73.1 110.62 56.98 114.94 52.85 145.96 68.39 145.96 70.99 126.67 82.36 126.67 84.91 145.96 100.49 145.96 96.09 112.66 94.85 104.8"/><polygon class="cls-4" points="655.15 945.2 670.04 941.21 669.63 938.18 677.06 938.18 676.9 939.38 693.02 935.05 697.14 904.04 681.6 904.04 679.01 923.33 667.64 923.33 665.09 904.04 649.5 904.04 653.91 937.34 655.15 945.2"/><polygon class="cls-4" points="675.48 950.11 673.35 966.29 671.36 951.21 656.71 955.14 663.28 996.9 683.32 996.9 691.37 945.85 675.48 950.11"/><rect class="cls-2" x="367.5" y="319.9" width="15" height="432" transform="translate(-235.71 770.11) rotate(-76)"/><rect class="cls-2" x="161.26" y="517.5" width="432" height="15" transform="translate(-269.22 521.61) rotate(-54)"/></g></svg>