<svg xmlns="http://www.w3.org/2000/svg" viewBox="0 0 750 1050">
  <defs>
    <clipPath id="clip-path">
      <path style="fill:none" d="M-36 35.7h822V1086H-36z"/>
    </clipPath>
    <style>
      .cls-2{fill:#fff}.cls-3{clip-path:url(#clip-path)}.cls-4{fill:#a4203a}
    </style>
  </defs>
  <rect class="cls-2" y=".02" width="750" height="1049.95" rx="44.82" id="Ebene_2" data-name="Ebene 2"/>
  <g id="Ebene_1_Kopie_2" data-name="Ebene 1 Kopie 2">
    <g class="cls-3">
      <path class="cls-4" d="M475.89 379.37c-33.95-20.78-80.6-11.5-102.93 22.15v-.85C350.62 367 304 357.74 270 378.52c-34.44 21.07-44.76 66.39-23 101.23l126-77.06-126 77.06 126 201.9v.85l125.89-201.9L373 403.54l125.9 77.06c21.73-34.84 11.43-80.16-23-101.23"/>
    </g>
    <g class="cls-3">
      <path class="cls-4" d="M98.54 165.5c-7-4.16-16.62-2.3-21.22 4.43v-.17c-4.61-6.73-14.23-8.59-21.23-4.43a14.35 14.35 0 0 0-4.75 20.25l26-15.42-26 15.42 26 40.38v.17l26-40.38-26-15.42 26 15.42a14.35 14.35 0 0 0-4.75-20.25m552.86 719c7 4.16 16.62 2.3 21.23-4.43v.17c4.6 6.73 14.22 8.59 21.22 4.43a14.35 14.35 0 0 0 4.75-20.25l-26 15.42 26-15.42-26-40.38v-.17l-26 40.38 26 15.42-26-15.42a14.35 14.35 0 0 0 4.74 20.25"/>
    </g>
    <path class="cls-4" d="m74.52 99.89 2.13-16.18 1.99 15.08 14.65-3.93-6.57-41.76H66.68l-8.05 51.05 15.89-4.26zm20.33 4.91-14.89 3.99.4 3.03h-7.42l.16-1.2-16.12 4.32-4.13 31.02h15.54l2.6-19.29h11.37l2.55 19.29h15.58l-4.4-33.3-1.24-7.86zm560.3 840.4 14.89-3.99-.41-3.03h7.43l-.16 1.2 16.12-4.33 4.12-31.01H681.6l-2.59 19.29h-11.37l-2.55-19.29H649.5l4.41 33.3 1.24 7.86zm20.33 4.91-2.13 16.18-1.99-15.08-14.65 3.93 6.57 41.76h20.04l8.05-51.05-15.89 4.26z"/>
    <path class="cls-2" transform="rotate(-76 374.99292518 535.90252106)" d="M367.5 319.9h15v432h-15z"/>
    <path class="cls-2" transform="rotate(-54 377.24863289 524.99200015)" d="M161.26 517.5h432v15h-432z"/>
  </g>
</svg>
