<?xml version="1.0" encoding="UTF-8"?><svg xmlns="http://www.w3.org/2000/svg" viewBox="0 0 750 1050"><g id="uuid-be94c6f3-3696-43c5-bf88-86538c113efb"><rect y=".02" width="750" height="1049.95" rx="44.82" ry="44.82" style="fill:#fff;"/></g><g id="uuid-f31418ee-059f-4171-b44d-dc35913b5911"><g><polygon points="353 543.59 301.63 614.28 239.96 515.41 353 543.59" style="fill:#a4203a;"/><polygon points="373.41 548.67 470.76 572.94 372.97 729.75 372.97 728.65 312.76 632.13 373.41 548.67" style="fill:#a4203a;"/><path d="M504.88,334.55l-56.97,78.4h-.01l-82.54,113.62-140.24-34.97-15.86-25.43,163.71-100.18-163.77,100.18c-28.25-45.29-14.83-104.21,29.94-131.6,44.14-27.01,104.79-14.95,133.84,28.8v1.1c28.61-43.12,87.94-55.46,131.91-29.93Z" style="fill:#a4203a;"/><path d="M536.69,467.28h-.01l-55.06,88.27-95.85-23.89,78.82-108.49,56.04-77.14c33.4,30.08,41.13,81.04,16.06,121.25Z" style="fill:#a4203a;"/></g><path d="M110.57,204.89c-9.1-5.4-21.6-2.99-27.59,5.76v-.22c-5.99-8.75-18.5-11.16-27.6-5.76-9.23,5.48-12,17.26-6.17,26.32l33.77-20.04-33.75,20.04,33.75,52.49v.22l33.75-52.49-33.75-20.04,33.76,20.04c5.82-9.06,3.06-20.84-6.17-26.32" style="fill:#a4203a;"/><g><polygon points="81.06 113.87 83.79 93.15 86.34 112.45 105.37 107.35 96.88 53.35 70.83 53.35 60.41 119.4 81.06 113.87" style="fill:#a4203a;"/><polygon points="107.4 120.27 88.06 125.45 88.62 129.69 78.97 129.69 79.21 127.82 58.25 133.44 52.86 174.07 73.06 174.07 76.43 148.99 91.21 148.99 94.52 174.07 114.79 174.07 109.06 130.78 107.4 120.27" style="fill:#a4203a;"/></g><path d="M639.43,845.11c9.1,5.4,21.6,2.99,27.59-5.76v.22c5.99,8.75,18.5,11.16,27.6,5.76,9.23-5.48,12-17.26,6.17-26.32l-33.77,20.04,33.75-20.04-33.75-52.49v-.22l-33.75,52.49,33.75,20.04-33.76-20.04c-5.82,9.06-3.06,20.84,6.17,26.32" style="fill:#a4203a;"/><g><polygon points="668.94 936.13 666.21 956.85 663.66 937.55 644.63 942.65 653.12 996.65 679.17 996.65 689.59 930.6 668.94 936.13" style="fill:#a4203a;"/><polygon points="642.6 929.73 661.94 924.55 661.38 920.31 671.03 920.31 670.79 922.18 691.75 916.56 697.14 875.93 676.94 875.93 673.57 901.01 658.79 901.01 655.48 875.93 635.21 875.93 640.94 919.22 642.6 929.73" style="fill:#a4203a;"/></g></g></svg>