<?xml version="1.0" encoding="UTF-8"?><svg xmlns="http://www.w3.org/2000/svg" viewBox="0 0 750 1050"><g id="uuid-ce496a6f-c6c8-49ff-8f34-382c5afe5cd9"><rect width="750" height="1049.95" rx="44.82" ry="44.82" style="fill:#fff;"/></g><g id="uuid-77c85903-4820-49c1-8c1b-20ae3bd23af5"><g><polygon points="424.08 395.11 326.17 500.11 265.44 484.96 374.93 320.37 374.93 321.22 424.08 395.11" style="fill:#282c44;"/><polygon points="510.25 524.67 484.32 539.54 347.81 505.5 435.18 411.8 510.25 524.67" style="fill:#282c44;"/><path d="M520.79,548.64l-36.39-9.07,25.99-14.9c5.06,7.62,8.5,15.72,10.4,23.97Z" style="fill:#282c44;"/><path d="M310.96,516.42l-75.06,80.5c-12.05-22.27-11.58-49.96,3.77-73.07l-.05-.04,14.37-21.59,56.98,14.21Z" style="fill:#282c44;"/><path d="M522.43,569.14c-1.56,22.96-14.47,44.71-36.83,57.54-24.83,14.25-55.91,14.46-80.87,2.44l27.08,100.75h-113.74l27.43-102c-25.1,12.42-56.02,12.35-81.13-2.05-6.36-3.65-11.93-8.01-16.7-12.92l84.94-91.08,127.31,31.73-65.4,37.54,65.45-37.53,62.47,15.57Z" style="fill:#282c44;"/></g><g><polygon points="81.06 113.87 83.79 93.15 86.34 112.45 105.37 107.35 96.88 53.35 70.83 53.35 60.41 119.4 81.06 113.87" style="fill:#282c44;"/><polygon points="107.4 120.27 88.06 125.45 88.62 129.69 78.97 129.69 79.21 127.82 58.25 133.44 52.86 174.07 73.06 174.07 76.43 148.99 91.21 148.99 94.52 174.07 114.79 174.07 109.06 130.78 107.4 120.27" style="fill:#282c44;"/></g><path d="M110.02,242.67l-23.15,13.29h0s23.13-13.29,23.13-13.29l-27.04-40.69v-.17l-27.04,40.69h.01c-4.66,7.03-2.45,16.16,4.94,20.4,5.02,2.88,11.19,2.89,16.21,.41l-5.48,20.4h22.72l-5.41-20.15c4.99,2.4,11.2,2.36,16.16-.49,7.39-4.25,9.62-13.38,4.95-20.4" style="fill:#282c44;"/></g></svg>