<svg xmlns="http://www.w3.org/2000/svg" xmlns:xlink="http://www.w3.org/1999/xlink" viewBox="0 0 750 1050"><defs><style>.cls-1{fill:none;}.cls-2{fill:#fff;}.cls-3{clip-path:url(#clip-path);}.cls-4{fill:#282c44;}</style><clipPath id="clip-path"><rect class="cls-1" x="-36" y="-35.88" width="822" height="1122"/></clipPath></defs><g id="Ebene_2" data-name="Ebene 2"><rect class="cls-2" width="750" height="1049.95" rx="44.82"/></g><g id="Ebene_1_Kopie_2" data-name="Ebene 1 Kopie 2"><g class="cls-3"><path class="cls-4" d="M479.13,524.77,390,575.87h0l89-51.1L374.93,368.27v-.65L270.84,524.11l0,0c-17.94,27-9.45,62.11,19,78.44,19.32,11.08,43.1,11.13,62.41,1.58l-21.1,78.46h87.49l-20.83-77.5c19.2,9.24,43.11,9.08,62.21-1.88,28.46-16.33,37-51.46,19.07-78.47"/></g><polygon class="cls-4" points="74.52 99.78 76.65 83.6 78.64 98.67 93.29 94.75 86.72 52.98 66.68 52.98 58.63 104.03 74.52 99.78"/><polygon class="cls-4" points="94.85 104.68 79.96 108.67 80.36 111.71 72.94 111.71 73.1 110.51 56.98 114.83 52.85 145.85 68.39 145.85 70.99 126.55 82.36 126.55 84.91 145.85 100.49 145.85 96.09 112.54 94.85 104.68"/><polygon class="cls-4" points="655.15 945.55 670.04 941.56 669.64 938.52 677.06 938.52 676.9 939.72 693.02 935.4 697.14 904.38 681.6 904.38 679.01 923.68 667.64 923.68 665.09 904.38 649.5 904.38 653.91 937.69 655.15 945.55"/><polygon class="cls-4" points="675.48 950.45 673.35 966.63 671.36 951.56 656.71 955.48 663.28 997.25 683.32 997.25 691.37 946.2 675.48 950.45"/><g class="cls-3"><path class="cls-4" d="M97.48,194.55l-17.8,10.22h0l17.79-10.22-20.79-31.3v-.14l-20.8,31.3h0a10.91,10.91,0,0,0,3.79,15.69,13.36,13.36,0,0,0,12.47.31l-4.21,15.69H85.41l-4.16-15.49a13.55,13.55,0,0,0,12.43-.38,10.92,10.92,0,0,0,3.8-15.69"/><path class="cls-4" d="M652.51,855.68l17.81-10.22h0l-17.79,10.22,20.8,31.3v.14l20.8-31.3h0a10.92,10.92,0,0,0-3.8-15.69,13.34,13.34,0,0,0-12.46-.31l4.21-15.69H664.59l4.16,15.49a13.55,13.55,0,0,0-12.43.38,10.93,10.93,0,0,0-3.81,15.69"/></g><rect class="cls-2" x="376.06" y="309.12" width="15" height="432" transform="translate(-218.76 770.23) rotate(-76)"/><rect class="cls-2" x="136.2" y="493.53" width="432" height="15" transform="translate(-254.43 416.9) rotate(-47)"/></g></svg>