<svg xmlns="http://www.w3.org/2000/svg" width="80" height="112" fill="none"><rect width="80" height="112" fill="#fff" rx="5"/><path fill="#2C2833" d="M14.09 9.8H9.904L6.992 28h2.626l.494-3.302h3.51L14.116 28h2.886L14.09 9.8Zm-2.262 3.224h.052l1.352 9.204h-2.756l1.352-9.204Z"/><path fill="#2C2833" fill-rule="evenodd" d="M7.553 42.266c-1.182 1.312-1.182 3.439 0 4.75.882.978 2.172 1.227 3.262.747v2.904h2.37v-2.904c1.09.48 2.38.231 3.261-.747 1.183-1.311 1.183-3.438 0-4.75L12 37.333l-4.447 4.933ZM33.33 53.4c-1.773 1.967-1.773 5.157 0 7.124 1.323 1.468 3.258 1.84 4.892 1.12V66h3.556v-4.356c1.634.72 3.57.348 4.892-1.12 1.773-1.967 1.773-5.157 0-7.125L40 46l-6.67 7.4Z" clip-rule="evenodd"/><path fill="#2C2833" d="M65.91 102.2h4.186L73.008 84h-2.626l-.494 3.302h-3.51L65.884 84h-2.886l2.912 18.2Zm2.262-3.224h-.052l-1.352-9.204h2.756l-1.352 9.204Z"/><path fill="#2C2833" fill-rule="evenodd" d="M72.447 69.734c1.182-1.312 1.182-3.439 0-4.75-.882-.978-2.172-1.227-3.262-.746v-2.905h-2.37v2.904c-1.09-.48-2.38-.231-3.261.747-1.183 1.311-1.183 3.438 0 4.75L68 74.667l4.447-4.933Z" clip-rule="evenodd"/></svg>