<svg xmlns="http://www.w3.org/2000/svg" viewBox="0 0 750 1050">
  <defs>
    <clipPath id="a">
      <path style="fill:none" d="M-36-35.88h822v1122H-36z"/>
    </clipPath>
  </defs>
  <rect width="750" height="1049.95" rx="44.82" style="fill:#fff" data-name="Ebene 2"/>
  <g data-name="Ebene 1 Kopie 2">
    <g style="clip-path:url(#a)">
      <path d="M479.13 524.77 390 575.87l89-51.1-104.07-156.5v-.65L270.84 524.11c-17.94 27-9.45 62.11 19 78.44 19.32 11.08 43.1 11.13 62.41 1.58l-21.1 78.46h87.49l-20.83-77.5c19.2 9.24 43.11 9.08 62.21-1.88 28.46-16.33 37-51.46 19.07-78.47" style="fill:#282c44"/>
    </g>
    <path style="fill:#282c44" d="m74.52 99.78 2.13-16.18 1.99 15.07 14.65-3.92-6.57-41.77H66.68l-8.05 51.05 15.89-4.25zM94.85 104.68l-14.89 3.99.4 3.04h-7.42l.16-1.2-16.12 4.32-4.13 31.02h15.54l2.6-19.3h11.37l2.55 19.3h15.58l-4.4-33.31-1.24-7.86zM655.15 945.55l14.89-3.99-.4-3.04h7.42l-.16 1.2 16.12-4.32 4.12-31.02H681.6l-2.59 19.3h-11.37l-2.55-19.3H649.5l4.41 33.31 1.24 7.86zM675.48 950.45l-2.13 16.18-1.99-15.07-14.65 3.92 6.57 41.77h20.04l8.05-51.05-15.89 4.25z"/>
    <g style="clip-path:url(#a)">
      <path d="m97.48 194.55-17.8 10.22 17.79-10.22-20.79-31.3v-.14l-20.8 31.3a10.91 10.91 0 0 0 3.79 15.69 13.36 13.36 0 0 0 12.47.31l-4.21 15.69h17.48l-4.16-15.49a13.55 13.55 0 0 0 12.43-.38 10.92 10.92 0 0 0 3.8-15.69M652.51 855.68l17.81-10.22-17.79 10.22 20.8 31.3v.14l20.8-31.3a10.92 10.92 0 0 0-3.8-15.69 13.34 13.34 0 0 0-12.46-.31l4.21-15.69h-17.49l4.16 15.49a13.55 13.55 0 0 0-12.43.38 10.93 10.93 0 0 0-3.81 15.69" style="fill:#282c44"/>
    </g>
    <path transform="rotate(-76 383.54472168 525.11501573)" style="fill:#fff" d="M376.06 309.12h15v432h-15z"/>
    <path transform="rotate(-47 352.18717897 501.02446965)" style="fill:#fff" d="M136.2 493.53h432v15h-432z"/>
  </g>
</svg>
