<?xml version="1.0" encoding="UTF-8"?><svg xmlns="http://www.w3.org/2000/svg" viewBox="0 0 750 1050"><g id="uuid-0007f9a6-b447-4ae9-ba01-f9ead43dca6e"><rect width="750" height="1049.95" rx="44.82" ry="44.82" style="fill:#fff;"/></g><g id="uuid-4da9ff01-1175-4cc3-82f6-3192b7578b0b"><g><polygon points="368.53 641.71 379.8 677.46 183.25 677.46 183.25 641.71 368.53 641.71" style="fill:#282c44;"/><polygon points="566.75 641.71 566.75 677.46 400.25 677.46 388.98 641.71 566.75 641.71" style="fill:#282c44;"/><path d="M349.07,579.96l-49.91-158.25c-48.35,13.47-115.91,51.1-115.91,156.3v37.7h177.09l-11.27-35.75Zm-36.71-23.57c5.38,0,9.75,4.37,9.75,9.75s-4.37,9.75-9.75,9.75-9.75-4.37-9.75-9.75,4.37-9.75,9.75-9.75Zm-62.63,0c5.38,0,9.75,4.37,9.75,9.75s-4.37,9.75-9.75,9.75-9.75-4.37-9.75-9.75,4.36-9.75,9.75-9.75Z" style="fill:#282c44;"/><circle cx="249.72" cy="566.15" r="9.75" style="fill:#282c44;"/><circle cx="312.35" cy="566.15" r="9.75" style="fill:#282c44;"/><circle cx="375" cy="512.03" r="9.75" style="fill:#282c44;"/><path d="M384.75,457.92c0,5.38-4.37,9.75-9.75,9.75s-9.75-4.37-9.75-9.75,4.37-9.75,9.75-9.75,9.75,4.37,9.75,9.75Z" style="fill:#282c44;"/><circle cx="437.65" cy="566.15" r="9.75" style="fill:#282c44;"/><circle cx="500.28" cy="566.15" r="9.75" style="fill:#282c44;"/><path d="M411.73,414.38c.22-1.56,.32-3.17,.32-4.8,0-20.46-16.59-37.05-37.05-37.05s-37.05,16.59-37.05,37.05c0,1.73,.12,3.42,.36,5.08-5.02,.4-11.93,1.18-20.08,2.66l43.82,138.98c2.98-3.9,7.67-6.42,12.95-6.42,8.97,0,16.25,7.28,16.25,16.25,0,5.84-3.08,10.95-7.7,13.82-2.48,1.53-5.42,2.43-8.55,2.43-1.73,0-3.39-.27-4.97-.77l10.75,34.09h185.97v-37.7s0-157.9-155.02-163.63Zm-36.73,107.39c-5.38,0-9.75-4.35-9.75-9.75s4.37-9.75,9.75-9.75,9.75,4.37,9.75,9.75-4.37,9.75-9.75,9.75Zm0-54.11c-5.38,0-9.75-4.37-9.75-9.75s4.37-9.75,9.75-9.75,9.75,4.37,9.75,9.75-4.37,9.75-9.75,9.75Zm62.65,108.23c-5.38,0-9.75-4.37-9.75-9.75s4.37-9.75,9.75-9.75,9.75,4.37,9.75,9.75-4.37,9.75-9.75,9.75Zm62.63,0c-5.38,0-9.75-4.37-9.75-9.75s4.37-9.75,9.75-9.75,9.75,4.37,9.75,9.75-4.36,9.75-9.75,9.75Z" style="fill:#282c44;"/><path d="M384.75,457.92c0,5.38-4.37,9.75-9.75,9.75s-9.75-4.37-9.75-9.75,4.37-9.75,9.75-9.75,9.75,4.37,9.75,9.75Z" style="fill:#fff;"/><circle cx="375" cy="512.03" r="9.75" style="fill:#fff;"/><circle cx="312.35" cy="566.15" r="9.75" style="fill:#fff;"/><circle cx="249.72" cy="566.15" r="9.75" style="fill:#fff;"/><circle cx="437.65" cy="566.15" r="9.75" style="fill:#fff;"/><circle cx="500.28" cy="566.15" r="9.75" style="fill:#fff;"/></g><g><polygon points="104.43 107.69 104.43 53.1 84.35 53.1 84.35 113.07 104.43 107.69" style="fill:#282c44;"/><path d="M84.35,126.53v23.11c0,4.54-1.97,6.81-5.91,6.81s-5.97-2.27-5.97-6.81v-8.2h-20.08v8.2c0,17.37,8.68,26.07,26.05,26.11,17.33,0,25.99-8.7,25.99-26.11v-28.49l-20.08,5.38Z" style="fill:#282c44;"/></g><path d="M101.85,229.36c-3.12-.04-6.2,.85-8.91,2.4l-.29-.42c4.73-2.94,7.92-8.24,7.98-14.33,.1-9.37-7.22-17.05-16.35-17.16-9.14-.11-17.21,7.64-17.31,17.02-.07,6.09,3.25,11.36,8.08,14.34l-.22,.33c-2.44-1.35-5.2-2.13-8.08-2.17-9.14-.11-17.21,7.64-17.31,17.02-.1,9.37,7.8,16.81,16.93,16.92,4.61,.05,8.98-1.84,12.2-4.92l-6.28,23.38h23.11l-6.32-23.53c3.29,3.1,7.78,5.03,12.39,5.08,9.13,.11,16.62-7.4,16.73-16.78,.1-9.37-7.22-17.05-16.35-17.16" style="fill:#282c44;"/></g></svg>