<svg xmlns="http://www.w3.org/2000/svg" width="80" height="112" fill="none"><rect width="80" height="112" fill="#fff" rx="5"/><path fill="#2C2833" d="M8.934 28c.468.052.858.052 1.378.052 2.158 0 4.108-.936 4.108-4.576V9.8h-2.86v13.884c0 1.404-.728 1.742-1.638 1.742-.312 0-.676 0-.988-.026V28Z"/><path fill="#2C2833" fill-rule="evenodd" d="M8.863 39.804a3.137 3.137 0 1 1 6.008 1.266 3.137 3.137 0 1 1-1.538 5.693v3.904h-2.666v-3.904a3.137 3.137 0 1 1-1.538-5.693 3.126 3.126 0 0 1-.266-1.266ZM35.294 49.706a4.706 4.706 0 1 1 9.013 1.899A4.706 4.706 0 1 1 42 60.145V66h-4v-5.855a4.706 4.706 0 1 1-2.307-8.54 4.69 4.69 0 0 1-.399-1.9Z" clip-rule="evenodd"/><path fill="#2C2833" d="M71.066 84c-.468-.052-.858-.052-1.378-.052-2.158 0-4.108.936-4.108 4.576V102.2h2.86V88.316c0-1.404.728-1.742 1.638-1.742.312 0 .676 0 .988.026V84Z"/><path fill="#2C2833" fill-rule="evenodd" d="M71.137 72.196a3.137 3.137 0 1 1-6.008-1.266 3.137 3.137 0 1 1 1.538-5.693v-3.904h2.666v3.904a3.137 3.137 0 1 1 1.538 5.693c.171.387.266.816.266 1.266Z" clip-rule="evenodd"/></svg>