<svg xmlns="http://www.w3.org/2000/svg" xmlns:xlink="http://www.w3.org/1999/xlink" viewBox="0 0 750 1050"><defs><style>.cls-1,.cls-5{fill:none;}.cls-2{fill:#fff;}.cls-3{clip-path:url(#clip-path);}.cls-4{fill:#282c44;}.cls-5{stroke:#282c44;}</style><clipPath id="clip-path"><rect class="cls-1" x="-36" y="-36" width="822" height="1122"/></clipPath></defs><g id="Ebene_2" data-name="Ebene 2"><rect class="cls-2" width="750" height="1049.95" rx="44.82"/></g><g id="Ebene_1_Kopie_2" data-name="Ebene 1 Kopie 2"><g class="cls-3"><path class="cls-4" d="M90.75,185.7a13.6,13.6,0,0,0-6.86,1.84l-.22-.32a13.1,13.1,0,0,0,6.14-11A12.9,12.9,0,0,0,77.24,163a13.43,13.43,0,0,0-13.32,13.09,12.84,12.84,0,0,0,6.21,11l-.17.25a13.16,13.16,0,0,0-6.21-1.67,13.43,13.43,0,0,0-13.32,13.09,13.13,13.13,0,0,0,13,13A13.42,13.42,0,0,0,72.84,208L68,226H85.79l-4.86-18.1a14.39,14.39,0,0,0,9.53,3.91,13.06,13.06,0,0,0,.29-26.11"/><path class="cls-4" d="M659.25,864.3a13.6,13.6,0,0,0,6.86-1.84l.22.32a13.1,13.1,0,0,0-6.14,11A12.9,12.9,0,0,0,672.76,887a13.43,13.43,0,0,0,13.32-13.09,12.84,12.84,0,0,0-6.21-11l.17-.25a13.16,13.16,0,0,0,6.21,1.67,13.43,13.43,0,0,0,13.32-13.09,13.13,13.13,0,0,0-13-13,13.42,13.42,0,0,0-9.38,3.79L682,824H664.21l4.86,18.1a14.39,14.39,0,0,0-9.53-3.91,13.06,13.06,0,0,0-.29,26.11"/></g><line class="cls-5" x1="36" y1="525" x2="714" y2="525"/><rect class="cls-4" x="227.5" y="456" width="295" height="27.5"/><rect class="cls-4" x="227.5" y="566.5" width="295" height="27.5"/><rect class="cls-4" x="227.5" y="408.5" width="295" height="27.5"/><rect class="cls-4" x="227.5" y="614" width="295" height="27.5"/><g class="cls-3"><path class="cls-4" d="M227.5,408.5h295V407s0-126-126-126h-43s-126,0-126,126Z"/><path class="cls-4" d="M522.5,641.5h-295V643s0,126,126,126h43s126,0,126-126Z"/><path class="cls-4" d="M375,305.94a28.5,28.5,0,1,0-28.5-28.5,28.5,28.5,0,0,0,28.5,28.5"/><path class="cls-4" d="M375,744.06a28.5,28.5,0,1,0,28.5,28.5,28.5,28.5,0,0,0-28.5-28.5"/><path class="cls-2" d="M375,322.12a7.5,7.5,0,1,0-7.5-7.5,7.5,7.5,0,0,0,7.5,7.5"/><path class="cls-2" d="M375,727.88a7.5,7.5,0,1,0,7.5,7.5,7.5,7.5,0,0,0-7.5-7.5"/><path class="cls-2" d="M375,363.74a7.5,7.5,0,1,0-7.5-7.5,7.5,7.5,0,0,0,7.5,7.5"/><path class="cls-2" d="M375,686.26a7.5,7.5,0,1,0,7.5,7.5,7.5,7.5,0,0,0-7.5-7.5"/><path class="cls-2" d="M375,410.37a12.5,12.5,0,1,0-12.5-12.5,12.5,12.5,0,0,0,12.5,12.5"/><path class="cls-2" d="M375,639.63a12.5,12.5,0,1,0,12.5,12.5,12.5,12.5,0,0,0-12.5-12.5"/><path class="cls-2" d="M326.81,405.37a7.5,7.5,0,1,0-7.5-7.5,7.5,7.5,0,0,0,7.5,7.5"/><path class="cls-2" d="M423.19,644.63a7.5,7.5,0,1,0,7.5,7.5,7.5,7.5,0,0,0-7.5-7.5"/><path class="cls-2" d="M278.63,405.37a7.5,7.5,0,1,0-7.5-7.5,7.5,7.5,0,0,0,7.5,7.5"/><path class="cls-2" d="M471.37,644.63a7.5,7.5,0,1,0,7.5,7.5,7.5,7.5,0,0,0-7.5-7.5"/><path class="cls-2" d="M423.19,405.37a7.5,7.5,0,1,0-7.5-7.5,7.5,7.5,0,0,0,7.5,7.5"/><path class="cls-2" d="M326.81,644.63a7.5,7.5,0,1,0,7.5,7.5,7.5,7.5,0,0,0-7.5-7.5"/><path class="cls-2" d="M471.37,405.37a7.5,7.5,0,1,0-7.5-7.5,7.5,7.5,0,0,0,7.5,7.5"/><path class="cls-2" d="M278.63,644.63a7.5,7.5,0,1,0,7.5,7.5,7.5,7.5,0,0,0-7.5-7.5"/></g><rect class="cls-2" x="330.46" y="127.16" width="15" height="404.45" transform="translate(-83.41 116.88) rotate(-17.5)"/><rect class="cls-2" x="404.54" y="518.4" width="15" height="404.45" transform="translate(-197.64 157.27) rotate(-17.5)"/><path class="cls-4" d="M77,109.36v18c0,3.5-1.52,5.24-4.55,5.24s-4.59-1.74-4.59-5.24v-6.31H52.39v6.31q0,20,20,20.09t20-20.09V105.22Z"/><polygon class="cls-4" points="92.42 94.86 92.42 53.1 76.98 53.1 76.98 99 92.42 94.86"/><polygon class="cls-4" points="657.58 955.14 657.58 996.9 673.02 996.9 673.02 951 657.58 955.14"/><path class="cls-4" d="M673,940.64v-18c0-3.5,1.52-5.24,4.55-5.24s4.59,1.74,4.59,5.24V929h15.45v-6.31q0-20-20-20.09t-20,20.09v22.14Z"/></g></svg>