<svg xmlns="http://www.w3.org/2000/svg" viewBox="0 0 750 1050">
  <defs>
    <clipPath id="a">
      <path style="fill:none" d="M-36-36h822v1122H-36z"/>
    </clipPath>
  </defs>
  <rect width="750" height="1049.95" rx="44.82" style="fill:#fff" data-name="Ebene 2"/>
  <g data-name="Ebene 1 Kopie 2">
    <g style="clip-path:url(#a)">
      <path d="M90.75 185.7a13.6 13.6 0 0 0-6.86 1.84l-.22-.32a13.1 13.1 0 0 0 6.14-11A12.9 12.9 0 0 0 77.24 163a13.43 13.43 0 0 0-13.32 13.09 12.84 12.84 0 0 0 6.21 11l-.17.25a13.16 13.16 0 0 0-6.21-1.67 13.43 13.43 0 0 0-13.32 13.09 13.13 13.13 0 0 0 13 13 13.42 13.42 0 0 0 9.41-3.76L68 226h17.79l-4.86-18.1a14.39 14.39 0 0 0 9.53 3.91 13.06 13.06 0 0 0 .29-26.11M659.25 864.3a13.6 13.6 0 0 0 6.86-1.84l.22.32a13.1 13.1 0 0 0-6.14 11A12.9 12.9 0 0 0 672.76 887a13.43 13.43 0 0 0 13.32-13.09 12.84 12.84 0 0 0-6.21-11l.17-.25a13.16 13.16 0 0 0 6.21 1.67 13.43 13.43 0 0 0 13.32-13.09 13.13 13.13 0 0 0-13-13 13.42 13.42 0 0 0-9.38 3.79L682 824h-17.79l4.86 18.1a14.39 14.39 0 0 0-9.53-3.91 13.06 13.06 0 0 0-.29 26.11" style="fill:#282c44"/>
    </g>
    <path style="fill:none;stroke:#282c44" d="M36 525h678"/>
    <path style="fill:#282c44" d="M227.5 456h295v27.5h-295zM227.5 566.5h295V594h-295zM227.5 408.5h295V436h-295zM227.5 614h295v27.5h-295z"/>
    <g style="clip-path:url(#a)">
      <path d="M227.5 408.5h295V407s0-126-126-126h-43s-126 0-126 126ZM522.5 641.5h-295v1.5s0 126 126 126h43s126 0 126-126Z" style="fill:#282c44"/>
      <path d="M375 305.94a28.5 28.5 0 1 0-28.5-28.5 28.5 28.5 0 0 0 28.5 28.5M375 744.06a28.5 28.5 0 1 0 28.5 28.5 28.5 28.5 0 0 0-28.5-28.5" style="fill:#282c44"/>
      <path d="M375 322.12a7.5 7.5 0 1 0-7.5-7.5 7.5 7.5 0 0 0 7.5 7.5M375 727.88a7.5 7.5 0 1 0 7.5 7.5 7.5 7.5 0 0 0-7.5-7.5M375 363.74a7.5 7.5 0 1 0-7.5-7.5 7.5 7.5 0 0 0 7.5 7.5M375 686.26a7.5 7.5 0 1 0 7.5 7.5 7.5 7.5 0 0 0-7.5-7.5M375 410.37a12.5 12.5 0 1 0-12.5-12.5 12.5 12.5 0 0 0 12.5 12.5M375 639.63a12.5 12.5 0 1 0 12.5 12.5 12.5 12.5 0 0 0-12.5-12.5M326.81 405.37a7.5 7.5 0 1 0-7.5-7.5 7.5 7.5 0 0 0 7.5 7.5M423.19 644.63a7.5 7.5 0 1 0 7.5 7.5 7.5 7.5 0 0 0-7.5-7.5M278.63 405.37a7.5 7.5 0 1 0-7.5-7.5 7.5 7.5 0 0 0 7.5 7.5M471.37 644.63a7.5 7.5 0 1 0 7.5 7.5 7.5 7.5 0 0 0-7.5-7.5M423.19 405.37a7.5 7.5 0 1 0-7.5-7.5 7.5 7.5 0 0 0 7.5 7.5M326.81 644.63a7.5 7.5 0 1 0 7.5 7.5 7.5 7.5 0 0 0-7.5-7.5M471.37 405.37a7.5 7.5 0 1 0-7.5-7.5 7.5 7.5 0 0 0 7.5 7.5M278.63 644.63a7.5 7.5 0 1 0 7.5 7.5 7.5 7.5 0 0 0-7.5-7.5" style="fill:#fff"/>
    </g>
    <path transform="rotate(-17.5 337.9857768 329.4017359)" style="fill:#fff" d="M330.46 127.16h15v404.45h-15z"/>
    <path transform="rotate(-17.5 412.07979866 720.67884947)" style="fill:#fff" d="M404.54 518.4h15v404.45h-15z"/>
    <path d="M77 109.36v18c0 3.5-1.52 5.24-4.55 5.24s-4.59-1.74-4.59-5.24v-6.31H52.39v6.31q0 20 20 20.09t20-20.09v-22.14ZM92.42 94.86V53.1H76.98V99l15.44-4.14zM657.58 955.14v41.76h15.44V951l-15.44 4.14zM673 940.64v-18c0-3.5 1.52-5.24 4.55-5.24s4.59 1.74 4.59 5.24V929h15.45v-6.31q0-20-20-20.09t-20 20.09v22.14Z" style="fill:#282c44"/>
  </g>
</svg>
