<svg xmlns="http://www.w3.org/2000/svg" viewBox="0 0 750 1050">
  <defs>
    <clipPath id="clip-path">
      <path style="fill:none" d="M-36-36h822v1122H-36z"/>
    </clipPath>
    <style>
      .cls-2{fill:#fff}.cls-3{clip-path:url(#clip-path)}.cls-4{fill:#282c44}
    </style>
  </defs>
  <rect class="cls-2" width="750" height="1049.95" rx="44.82" id="Ebene_2" data-name="Ebene 2"/>
  <g id="Ebene_1_Kopie_2" data-name="Ebene 1 Kopie 2">
    <g class="cls-3">
      <path class="cls-4" d="M90.75 185.7a13.6 13.6 0 0 0-6.86 1.84l-.22-.32a13.1 13.1 0 0 0 6.14-11A12.9 12.9 0 0 0 77.24 163a13.43 13.43 0 0 0-13.32 13.09 12.84 12.84 0 0 0 6.21 11l-.17.25a13.16 13.16 0 0 0-6.21-1.67 13.43 13.43 0 0 0-13.32 13.09 13.13 13.13 0 0 0 13 13 13.42 13.42 0 0 0 9.41-3.76L68 226h17.79l-4.86-18.1a14.39 14.39 0 0 0 9.53 3.91 13.06 13.06 0 0 0 .29-26.11m568.5 678.6a13.6 13.6 0 0 0 6.86-1.84l.22.32a13.1 13.1 0 0 0-6.14 11A12.9 12.9 0 0 0 672.76 887a13.43 13.43 0 0 0 13.32-13.09 12.84 12.84 0 0 0-6.21-11l.17-.25a13.16 13.16 0 0 0 6.21 1.67 13.43 13.43 0 0 0 13.32-13.09 13.13 13.13 0 0 0-13-13 13.42 13.42 0 0 0-9.38 3.79L682 824h-17.79l4.86 18.1a14.39 14.39 0 0 0-9.53-3.91 13.06 13.06 0 0 0-.29 26.11"/>
    </g>
    <path style="stroke:#282c44;fill:none" d="M36 525h678"/>
    <path class="cls-4" d="M227.5 456h295v27.5h-295zm0 110.5h295V594h-295zm0-158h295V436h-295zm0 205.5h295v27.5h-295z"/>
    <g class="cls-3">
      <path class="cls-4" d="M227.5 408.5h295V407s0-126-126-126h-43s-126 0-126 126Zm295 233h-295v1.5s0 126 126 126h43s126 0 126-126Z"/>
      <path class="cls-4" d="M375 305.94a28.5 28.5 0 1 0-28.5-28.5 28.5 28.5 0 0 0 28.5 28.5m0 438.12a28.5 28.5 0 1 0 28.5 28.5 28.5 28.5 0 0 0-28.5-28.5"/>
      <path class="cls-2" d="M375 322.12a7.5 7.5 0 1 0-7.5-7.5 7.5 7.5 0 0 0 7.5 7.5m0 405.76a7.5 7.5 0 1 0 7.5 7.5 7.5 7.5 0 0 0-7.5-7.5m0-364.14a7.5 7.5 0 1 0-7.5-7.5 7.5 7.5 0 0 0 7.5 7.5m0 322.52a7.5 7.5 0 1 0 7.5 7.5 7.5 7.5 0 0 0-7.5-7.5m0-275.89a12.5 12.5 0 1 0-12.5-12.5 12.5 12.5 0 0 0 12.5 12.5m0 229.26a12.5 12.5 0 1 0 12.5 12.5 12.5 12.5 0 0 0-12.5-12.5m-48.19-234.26a7.5 7.5 0 1 0-7.5-7.5 7.5 7.5 0 0 0 7.5 7.5m96.38 239.26a7.5 7.5 0 1 0 7.5 7.5 7.5 7.5 0 0 0-7.5-7.5M278.63 405.37a7.5 7.5 0 1 0-7.5-7.5 7.5 7.5 0 0 0 7.5 7.5m192.74 239.26a7.5 7.5 0 1 0 7.5 7.5 7.5 7.5 0 0 0-7.5-7.5m-48.18-239.26a7.5 7.5 0 1 0-7.5-7.5 7.5 7.5 0 0 0 7.5 7.5m-96.38 239.26a7.5 7.5 0 1 0 7.5 7.5 7.5 7.5 0 0 0-7.5-7.5m144.56-239.26a7.5 7.5 0 1 0-7.5-7.5 7.5 7.5 0 0 0 7.5 7.5M278.63 644.63a7.5 7.5 0 1 0 7.5 7.5 7.5 7.5 0 0 0-7.5-7.5"/>
    </g>
    <path class="cls-2" transform="rotate(-17.5 337.9857768 329.4017359)" d="M330.46 127.16h15v404.45h-15z"/>
    <path class="cls-2" transform="rotate(-17.5 412.07979866 720.67884947)" d="M404.54 518.4h15v404.45h-15z"/>
    <path class="cls-4" d="M77 109.36v18c0 3.5-1.52 5.24-4.55 5.24s-4.59-1.74-4.59-5.24v-6.31H52.39v6.31q0 20 20 20.09t20-20.09v-22.14Zm15.42-14.5V53.1H76.98V99l15.44-4.14zm565.16 860.28v41.76h15.44V951l-15.44 4.14zm15.42-14.5v-18c0-3.5 1.52-5.24 4.55-5.24s4.59 1.74 4.59 5.24V929h15.45v-6.31q0-20-20-20.09t-20 20.09v22.14Z"/>
  </g>
</svg>
