<svg xmlns="http://www.w3.org/2000/svg" viewBox="0 0 750 1050">
  <defs>
    <clipPath id="clip-path">
      <path style="fill:none" d="M-36-36h822v1122H-36z"/>
    </clipPath>
    <style>
      .cls-2{fill:#fff}.cls-4{fill:#a4203a}
    </style>
  </defs>
  <rect class="cls-2" width="750" height="1049.95" rx="44.82" id="Ebene_2" data-name="Ebene 2"/>
  <g id="Ebene_1_Kopie_2" data-name="Ebene 1 Kopie 2">
    <path style="stroke:#282c44;fill:none" d="M36 525h678"/>
    <path class="cls-4" d="M92.42 95.09V53.1H76.98v46.13l15.44-4.14zM77 109.59v17.77c0 3.5-1.52 5.24-4.55 5.24s-4.59-1.74-4.59-5.24v-6.31H52.39v6.31q0 20 20 20.09t20-20.09v-21.91Zm596 830.82v-17.77c0-3.5 1.52-5.24 4.55-5.24s4.59 1.74 4.59 5.24V929h15.45v-6.31q0-20-20-20.09t-20 20.09v21.91Zm-15.42 14.5v41.99h15.44v-46.13l-15.44 4.14zM77.32 163.13l-22.12 31.5 22.12 31.5 22.12-31.5-22.12-31.5zm595.36 723.74 22.12-31.5-22.12-31.5-22.12 31.5 22.12 31.5zM227.5 456h295v27.5h-295zm0 110.5h295V594h-295zm0-166.5h295v36h-295zm0 214h295v36h-295z"/>
    <path class="cls-4" d="M522.73 650a10.77 10.77 0 0 0 0-21.54H227.27a10.77 10.77 0 0 0 0 21.54Zm0-250h-.23c0-87.81-66-159-147.5-159s-147.5 71.19-147.5 159h-.23a10.77 10.77 0 1 0 0 21.54h295.46a10.77 10.77 0 0 0 0-21.54Zm-.23 250h-295c0 87.81 66 159 147.5 159s147.5-71.19 147.5-159" style="clip-path:url(#clip-path)"/>
    <path class="cls-2" d="m375 303.25-22.13 31.5 22.13 31.5 22.13-31.5-22.13-31.5zm0 443.5 22.13-31.5-22.13-31.5-22.13 31.5 22.13 31.5z"/>
    <path class="cls-2" transform="rotate(-76 352.86266476 331.91680773)" d="M345.37 129.69h15v404.45h-15z"/>
    <path class="cls-2" transform="rotate(-76 397.1180683 718.07645193)" d="M389.63 515.86h15v404.45h-15z"/>
  </g>
</svg>
