<?xml version="1.0" encoding="UTF-8"?><svg xmlns="http://www.w3.org/2000/svg" xmlns:xlink="http://www.w3.org/1999/xlink" viewBox="0 0 750 1050"><defs><clipPath id="uuid-629331ef-9bdf-4bee-8210-d58bb9adc424"><rect x=".05" y="1182.02" width="749.89" height="1049.95" rx="84.97" ry="84.97" style="fill:none;"/></clipPath><clipPath id="uuid-9d25d71a-f981-4616-831c-cecb2e3da826"><rect x="-601.61" y="705.36" width="2226.37" height="2128.61" style="fill:none;"/></clipPath><clipPath id="uuid-bb2d768a-7729-41c1-b909-75b1ff3283c2"><rect x="-601.61" y="705.36" width="2226.37" height="2128.61" style="fill:none;"/></clipPath></defs><g id="uuid-9d869389-ee87-4c58-b96c-79c33036580c"><rect width="750" height="1049.95" rx="44.82" ry="44.82" style="fill:#fff;"/></g><g id="uuid-048fe923-9d24-4263-aa7b-b4aa2d5e9dea"><g><polygon points="104.43 107.69 104.43 53.1 84.35 53.1 84.35 113.07 104.43 107.69" style="fill:#a4203a;"/><path d="M84.35,126.53v23.11c0,4.54-1.97,6.81-5.91,6.81s-5.97-2.27-5.97-6.81v-8.2h-20.08v8.2c0,17.37,8.68,26.07,26.05,26.11,17.33,0,25.99-8.7,25.99-26.11v-28.49l-20.08,5.38Z" style="fill:#a4203a;"/></g><g><rect x="183.25" y="646.87" width="383.5" height="35.75" style="fill:#a4203a;"/><g><path d="M354.44,477.57l20.56-29.26,28.77,40.95-.37,.52,158.84,39.6c-18.95-92.67-95.58-162-187.24-162-60.73,0-114.85,30.44-149.98,77.92l129.42,32.27Z" style="fill:#a4203a;"/><path d="M567.05,574.08h-.3c0-8.05-.44-15.98-1.27-23.79l-174.09-43.41-16.39,23.33-23.35-33.23-138.11-34.44c-19.17,32.18-30.29,70.46-30.29,111.54h-.3c-7.73,0-14,6.27-14,14s6.27,14,14,14h.3v18.79h383.5v-18.79h.3c7.73,0,14-6.27,14-14s-6.27-14-14-14Z" style="fill:#a4203a;"/></g></g><g style="clip-path:url(#uuid-629331ef-9bdf-4bee-8210-d58bb9adc424);"><rect x="99.25" y="852.03" width="368.89" height="100.1" style="fill:#282c44;"/><polygon points="447.43 959.32 395.71 852.03 499.15 852.03 447.43 959.32" style="fill:#282c44;"/><polygon points="332.44 1336.42 454.47 959.32 133.85 993.01 332.44 1336.42" style="fill:#282c44;"/><polygon points="122.87 959.32 63.64 852.03 182.09 852.03 122.87 959.32" style="fill:#282c44;"/><rect x="128.92" y="959.32" width="192.97" height="35.96" style="fill:#282c44;"/><g style="clip-path:url(#uuid-9d25d71a-f981-4616-831c-cecb2e3da826);"><line x1="538.47" y1="709.07" x2="-147.72" y2="2830.25" style="fill:none; stroke:#fff; stroke-width:20px;"/></g><g style="clip-path:url(#uuid-bb2d768a-7729-41c1-b909-75b1ff3283c2);"><line x1="1089.48" y1="2679.65" x2="-10.83" y2="740.68" style="fill:none; stroke:#fff; stroke-width:20px;"/></g></g><polygon points="82.89 196.22 54.13 237.17 82.89 278.12 111.65 237.17 82.89 196.22" style="fill:#a4203a;"/><g><polygon points="645.57 942.31 645.57 996.9 665.65 996.9 665.65 936.93 645.57 942.31" style="fill:#a4203a;"/><path d="M665.65,923.47v-23.11c0-4.54,1.97-6.81,5.91-6.81s5.97,2.27,5.97,6.81v8.2h20.08v-8.2c0-17.37-8.68-26.07-26.05-26.11-17.33,0-25.99,8.7-25.99,26.11v28.49l20.08-5.38Z" style="fill:#a4203a;"/></g><polygon points="667.11 853.78 695.87 812.83 667.11 771.88 638.35 812.83 667.11 853.78" style="fill:#a4203a;"/></g></svg>