<svg xmlns="http://www.w3.org/2000/svg" width="80" height="112" fill="none"><rect width="80" height="112" fill="#fff" rx="5"/><path fill="#DC3059" d="M8.934 28c.468.052.858.052 1.378.052 2.158 0 4.108-.936 4.108-4.576V9.8h-2.86v13.884c0 1.404-.728 1.742-1.638 1.742-.312 0-.676 0-.988-.026V28ZM12.057 36.667l5.276 7.295-5.39 7.371-5.276-7.295 5.39-7.371ZM40.085 45 48 55.943 39.915 67 32 56.057 40.085 45ZM71.066 84c-.468-.052-.858-.052-1.378-.052-2.158 0-4.108.936-4.108 4.576V102.2h2.86V88.316c0-1.404.728-1.742 1.638-1.742.312 0 .676 0 .988.026V84ZM67.943 75.333l-5.276-7.295 5.39-7.371 5.276 7.295-5.39 7.371Z"/></svg>