<svg xmlns="http://www.w3.org/2000/svg" viewBox="0 0 750 1050">
  <defs>
    <clipPath id="a">
      <path style="fill:none" d="M-36.12-35.75h822.25v1121.5H-36.12z"/>
    </clipPath>
  </defs>
  <rect width="750" height="1049.95" rx="44.82" style="fill:#fff" data-name="Ebene 2"/>
  <g data-name="Ebene 1 Kopie 2">
    <path style="fill:none;stroke:#282c44" d="M35.88 525.25h678"/>
    <g style="clip-path:url(#a)">
      <path d="M98.42 165.75c-7-4.16-16.62-2.3-21.22 4.43V170c-4.61-6.72-14.2-8.58-21.2-4.42a14.35 14.35 0 0 0-4.75 20.25l26-15.42-26 15.42 26 40.38v.17l26-40.38-26-15.42 26 15.42a14.34 14.34 0 0 0-4.74-20.25M651.58 884.25c7 4.16 16.62 2.3 21.22-4.43v.18c4.61 6.73 14.23 8.59 21.23 4.43a14.35 14.35 0 0 0 4.75-20.25l-26 15.42 26-15.42-26-40.38v-.17l-26 40.38 26 15.42-26-15.42a14.34 14.34 0 0 0 4.74 20.25" style="fill:#a4203a"/>
    </g>
    <path style="fill:#a4203a" d="M92.3 95.34V53.35H76.85v46.13l15.45-4.14zM76.85 109.84v17.77c0 3.5-1.51 5.24-4.54 5.24s-4.6-1.74-4.6-5.24v-6.31H52.27v6.31q0 20 20 20.09t20-20.09V105.7ZM673.15 940.16v-17.77c0-3.5 1.51-5.24 4.54-5.24s4.6 1.74 4.6 5.24v6.31h15.44v-6.31q0-20-20-20.09t-20 20.09v21.91ZM657.7 954.66v41.99h15.45v-46.13l-15.45 4.14zM227.87 456.25h294.5v27.5h-294.5zM227.63 566.25h294.5v27.5h-294.5z"/>
    <g style="clip-path:url(#a)">
      <path d="M227.62 435.91h294.5c0-107.72-137-196.46-147.2-208.37h-.1c-10.16 11.91-147.2 100.65-147.2 208.37M522.38 614.09h-294.5c0 107.72 137 196.46 147.2 208.37h.1c10.16-11.91 147.2-100.65 147.2-208.37" style="fill:#a4203a"/>
    </g>
    <path style="fill:none;stroke:#fff;stroke-linecap:round;stroke-width:4px" d="M247.47 420.54h127.4M502.53 629.46h-127.4M502.48 420.54h-127.4M247.52 629.46h127.4M251.88 400.54h122.99M498.12 649.46H375.13M498.08 400.54h-123M251.92 649.46h123M260.88 380.54h113.99M489.12 669.46H375.13M489.08 380.54h-114M260.92 669.46h114M271.88 360.54h102.99M478.12 689.46H375.13M478.08 360.54h-103M271.92 689.46h103M285.88 340.54h88.99M464.12 709.46h-88.99M464.08 340.54h-89M285.92 709.46h89M302.88 320.54h71.99M447.12 729.46h-71.99M447.08 320.54h-72M302.92 729.46h72M321.88 300.54h52.99M428.12 749.46h-52.99M428.08 300.54h-53M321.92 749.46h53M343.88 280.54h30.99M406.12 769.46h-30.99M406.08 280.54h-31M343.92 769.46h31M367.88 260.54h6.99M382.12 789.46h-6.99M382.08 260.54h-7M367.92 789.46h7"/>
    <path transform="rotate(-26 348.38967868 373.95050037)" style="fill:#fff" d="M146.15 366.43H550.6v15H146.15z"/>
    <path transform="rotate(-26 401.65792563 676.09416267)" style="fill:#fff" d="M199.4 668.57h404.45v15H199.4z"/>
  </g>
</svg>
