<svg xmlns="http://www.w3.org/2000/svg" viewBox="0 0 750 1050">
  <defs>
    <clipPath id="clip-path">
      <path style="fill:none" d="M-36.12-35.75h822.25v1121.5H-36.12z"/>
    </clipPath>
    <style>
      .cls-2{fill:#fff}.cls-4{clip-path:url(#clip-path)}.cls-5{fill:#a4203a}
    </style>
  </defs>
  <rect class="cls-2" width="750" height="1049.95" rx="44.82" id="Ebene_2" data-name="Ebene 2"/>
  <g id="Ebene_1_Kopie_2" data-name="Ebene 1 Kopie 2">
    <path style="stroke:#282c44;fill:none" d="M35.88 525.25h678"/>
    <g class="cls-4">
      <path class="cls-5" d="M98.42 165.75c-7-4.16-16.62-2.3-21.22 4.43V170c-4.61-6.72-14.2-8.58-21.2-4.42a14.35 14.35 0 0 0-4.75 20.25l26-15.42-26 15.42 26 40.38v.17l26-40.38-26-15.42 26 15.42a14.34 14.34 0 0 0-4.74-20.25m553.07 718.5c7 4.16 16.62 2.3 21.22-4.43v.18c4.61 6.73 14.23 8.59 21.23 4.43a14.35 14.35 0 0 0 4.75-20.25l-26 15.42 26-15.42-26-40.38v-.17l-26 40.38 26 15.42-26-15.42a14.34 14.34 0 0 0 4.74 20.25"/>
    </g>
    <path class="cls-5" d="M92.3 95.34V53.35H76.85v46.13l15.45-4.14zm-15.45 14.5v17.77c0 3.5-1.51 5.24-4.54 5.24s-4.6-1.74-4.6-5.24v-6.31H52.27v6.31q0 20 20 20.09t20-20.09V105.7Zm596.3 830.32v-17.77c0-3.5 1.51-5.24 4.54-5.24s4.6 1.74 4.6 5.24v6.31h15.44v-6.31q0-20-20-20.09t-20 20.09v21.91Zm-15.45 14.5v41.99h15.45v-46.13l-15.45 4.14zM227.87 456.25h294.5v27.5h-294.5zm-.24 110h294.5v27.5h-294.5z"/>
    <g class="cls-4">
      <path class="cls-5" d="M227.62 435.91h294.5c0-107.72-137-196.46-147.2-208.37h-.1c-10.16 11.91-147.2 100.65-147.2 208.37m294.76 178.18h-294.5c0 107.72 137 196.46 147.2 208.37h.1c10.16-11.91 147.2-100.65 147.2-208.37"/>
    </g>
    <path d="M247.47 420.54h127.4m127.66 208.92h-127.4m127.35-208.92h-127.4M247.52 629.46h127.4M251.88 400.54h122.99m123.25 248.92H375.13m122.95-248.92h-123M251.92 649.46h123M260.88 380.54h113.99m114.25 288.92H375.13m113.95-288.92h-114M260.92 669.46h114M271.88 360.54h102.99m103.25 328.92H375.13m102.95-328.92h-103M271.92 689.46h103m-89.04-348.92h88.99m89.25 368.92h-88.99m88.95-368.92h-89m-89.16 368.92h89m-72.04-388.92h71.99m72.25 408.92h-71.99m71.95-408.92h-72m-72.16 408.92h72m-53.04-428.92h52.99m53.25 448.92h-52.99m52.95-448.92h-53m-53.16 448.92h53m-31.04-468.92h30.99m31.25 488.92h-30.99m30.95-488.92h-31m-31.16 488.92h31m-7.04-508.92h6.99m7.25 528.92h-6.99m6.95-528.92h-7m-7.16 528.92h7" style="stroke:#fff;stroke-linecap:round;stroke-width:4px;fill:none"/>
    <path class="cls-2" transform="rotate(-26 348.38967868 373.95050037)" d="M146.15 366.43H550.6v15H146.15z"/>
    <path class="cls-2" transform="rotate(-26 401.65792563 676.09416267)" d="M199.4 668.57h404.45v15H199.4z"/>
  </g>
</svg>
