<svg xmlns="http://www.w3.org/2000/svg" xmlns:xlink="http://www.w3.org/1999/xlink" viewBox="0 0 750 1050"><defs><style>.cls-1,.cls-3,.cls-6{fill:none;}.cls-2{fill:#fff;}.cls-3{stroke:#282c44;}.cls-4{clip-path:url(#clip-path);}.cls-5{fill:#a4203a;}.cls-6{stroke:#fff;stroke-linecap:round;stroke-width:4px;}</style><clipPath id="clip-path"><rect class="cls-1" x="-36.12" y="-35.75" width="822.25" height="1121.5"/></clipPath></defs><g id="Ebene_2" data-name="Ebene 2"><rect class="cls-2" width="750" height="1049.95" rx="44.82"/></g><g id="Ebene_1_Kopie_2" data-name="Ebene 1 Kopie 2"><line class="cls-3" x1="35.88" y1="525.25" x2="713.88" y2="525.25"/><g class="cls-4"><path class="cls-5" d="M98.42,165.75c-7-4.16-16.62-2.3-21.22,4.43V170C72.59,163.28,63,161.42,56,165.58a14.35,14.35,0,0,0-4.75,20.25l26-15.42-26,15.42,26,40.38v.17l26-40.38-26-15.42,26,15.42a14.34,14.34,0,0,0-4.74-20.25"/><path class="cls-5" d="M651.58,884.25c7,4.16,16.62,2.3,21.22-4.43V880c4.61,6.73,14.23,8.59,21.23,4.43a14.35,14.35,0,0,0,4.75-20.25l-26,15.42,26-15.42-26-40.38v-.17l-26,40.38,26,15.42-26-15.42a14.34,14.34,0,0,0,4.74,20.25"/></g><polygon class="cls-5" points="92.3 95.34 92.3 53.35 76.85 53.35 76.85 99.48 92.3 95.34"/><path class="cls-5" d="M76.85,109.84v17.77c0,3.5-1.51,5.24-4.54,5.24s-4.6-1.74-4.6-5.24V121.3H52.27v6.31q0,20,20,20.09t20-20.09V105.7Z"/><path class="cls-5" d="M673.15,940.16V922.39c0-3.5,1.51-5.24,4.54-5.24s4.6,1.74,4.6,5.24v6.31h15.44v-6.31q0-20-20-20.09t-20,20.09V944.3Z"/><polygon class="cls-5" points="657.7 954.66 657.7 996.65 673.15 996.65 673.15 950.52 657.7 954.66"/><rect class="cls-5" x="227.87" y="456.25" width="294.5" height="27.5"/><rect class="cls-5" x="227.63" y="566.25" width="294.5" height="27.5"/><g class="cls-4"><path class="cls-5" d="M227.62,435.91h294.5c0-107.72-137-196.46-147.2-208.37h-.1c-10.16,11.91-147.2,100.65-147.2,208.37"/><path class="cls-5" d="M522.38,614.09H227.88c0,107.72,137,196.46,147.2,208.37h.1c10.16-11.91,147.2-100.65,147.2-208.37"/></g><line class="cls-6" x1="247.47" y1="420.54" x2="374.87" y2="420.54"/><line class="cls-6" x1="502.53" y1="629.46" x2="375.13" y2="629.46"/><line class="cls-6" x1="502.48" y1="420.54" x2="375.08" y2="420.54"/><line class="cls-6" x1="247.52" y1="629.46" x2="374.92" y2="629.46"/><line class="cls-6" x1="251.88" y1="400.54" x2="374.87" y2="400.54"/><line class="cls-6" x1="498.12" y1="649.46" x2="375.13" y2="649.46"/><line class="cls-6" x1="498.08" y1="400.54" x2="375.08" y2="400.54"/><line class="cls-6" x1="251.92" y1="649.46" x2="374.92" y2="649.46"/><line class="cls-6" x1="260.88" y1="380.54" x2="374.87" y2="380.54"/><line class="cls-6" x1="489.12" y1="669.46" x2="375.13" y2="669.46"/><line class="cls-6" x1="489.08" y1="380.54" x2="375.08" y2="380.54"/><line class="cls-6" x1="260.92" y1="669.46" x2="374.92" y2="669.46"/><line class="cls-6" x1="271.88" y1="360.54" x2="374.87" y2="360.54"/><line class="cls-6" x1="478.12" y1="689.46" x2="375.13" y2="689.46"/><line class="cls-6" x1="478.08" y1="360.54" x2="375.08" y2="360.54"/><line class="cls-6" x1="271.92" y1="689.46" x2="374.92" y2="689.46"/><line class="cls-6" x1="285.88" y1="340.54" x2="374.87" y2="340.54"/><line class="cls-6" x1="464.12" y1="709.46" x2="375.13" y2="709.46"/><line class="cls-6" x1="464.08" y1="340.54" x2="375.08" y2="340.54"/><line class="cls-6" x1="285.92" y1="709.46" x2="374.92" y2="709.46"/><line class="cls-6" x1="302.88" y1="320.54" x2="374.87" y2="320.54"/><line class="cls-6" x1="447.12" y1="729.46" x2="375.13" y2="729.46"/><line class="cls-6" x1="447.08" y1="320.54" x2="375.08" y2="320.54"/><line class="cls-6" x1="302.92" y1="729.46" x2="374.92" y2="729.46"/><line class="cls-6" x1="321.88" y1="300.54" x2="374.87" y2="300.54"/><line class="cls-6" x1="428.12" y1="749.46" x2="375.13" y2="749.46"/><line class="cls-6" x1="428.08" y1="300.54" x2="375.08" y2="300.54"/><line class="cls-6" x1="321.92" y1="749.46" x2="374.92" y2="749.46"/><line class="cls-6" x1="343.88" y1="280.54" x2="374.87" y2="280.54"/><line class="cls-6" x1="406.12" y1="769.46" x2="375.13" y2="769.46"/><line class="cls-6" x1="406.08" y1="280.54" x2="375.08" y2="280.54"/><line class="cls-6" x1="343.92" y1="769.46" x2="374.92" y2="769.46"/><line class="cls-6" x1="367.88" y1="260.54" x2="374.87" y2="260.54"/><line class="cls-6" x1="382.12" y1="789.46" x2="375.13" y2="789.46"/><line class="cls-6" x1="382.08" y1="260.54" x2="375.08" y2="260.54"/><line class="cls-6" x1="367.92" y1="789.46" x2="374.92" y2="789.46"/><rect class="cls-2" x="146.15" y="366.43" width="404.45" height="15" transform="translate(-128.67 190.57) rotate(-26)"/><rect class="cls-2" x="199.4" y="668.57" width="404.45" height="15" transform="translate(-255.73 244.5) rotate(-26)"/></g></svg>