<?xml version="1.0" encoding="UTF-8"?><svg xmlns="http://www.w3.org/2000/svg" viewBox="0 0 750 1050"><g id="uuid-1d35531f-094c-447f-9d69-c7b7c9a91e53"><rect width="750" height="1049.95" rx="44.82" ry="44.82" style="fill:#fff;"/></g><g id="uuid-13112ef5-6455-4687-b8ed-394e9f111568"><g><rect x="183.57" y="655.79" width="382.85" height="35.75" style="fill:#a4203a;"/><g><path d="M281.08,476.76h93.59c.05,0,.1,0,.14,.01,.01,0,.03-.01,.04,0,.03-.01,.07-.01,.09-.01h90.68l25.45-12.41c-50.43-57.63-108.98-97.25-116.34-105.89h-.13c-12.73,14.92-178.59,122.58-190.66,255.68l57.78-28.18h-26.95c-1.43,0-2.6-1.17-2.6-2.6s1.17-2.6,2.6-2.6h37.61l42.64-20.8h-68.55c-1.43,0-2.6-1.17-2.6-2.6s1.17-2.6,2.6-2.6h79.21l42.65-20.8h-107.56c-1.43,0-2.6-1.17-2.6-2.6s1.17-2.6,2.6-2.6h118.22l42.64-20.8h-26.7s-.07,0-.09-.01c-.01,.01-.03,0-.04,0-.04,.01-.09,.01-.14,.01h-115.69c-1.44,0-2.6-1.16-2.6-2.6s1.16-2.6,2.6-2.6h115.69c.05,0,.1,0,.14,.01,.01,0,.03-.01,.04,0,.03-.01,.07-.01,.09-.01h37.36l42.65-20.8h-80.01s-.07,0-.09-.01c-.01,.01-.03,0-.04,0-.04,.01-.09,.01-.14,.01h-93.59c-1.44,0-2.6-1.16-2.6-2.6s1.16-2.6,2.6-2.6Zm84.5-78h9.09c.05,0,.1,0,.14,.01,.04-.01,.09-.01,.13-.01h9.1c1.44,0,2.6,1.17,2.6,2.6s-1.16,2.6-2.6,2.6h-9.1s-.09,0-.13-.01c-.04,.01-.09,.01-.14,.01h-9.09c-1.44,0-2.6-1.16-2.6-2.6s1.16-2.6,2.6-2.6Zm-31.2,26h40.29c.05,0,.1,0,.14,.01,.04-.01,.09-.01,.13-.01h40.3c1.44,0,2.6,1.17,2.6,2.6s-1.16,2.6-2.6,2.6h-40.3s-.09,0-.13-.01c-.04,.01-.09,.01-.14,.01h-40.29c-1.44,0-2.6-1.16-2.6-2.6s1.16-2.6,2.6-2.6Zm-28.6,26h68.89c.05,0,.1,0,.14,.01,.04-.01,.09-.01,.13-.01h68.9c1.44,0,2.6,1.17,2.6,2.6s-1.16,2.6-2.6,2.6h-68.9s-.09,0-.13-.01c-.04,.01-.09,.01-.14,.01h-68.89c-1.44,0-2.6-1.16-2.6-2.6s1.16-2.6,2.6-2.6Z" style="fill:#a4203a;"/><path d="M566.09,629.34H197.26l35.63-17.38h141.78s.06,0,.09-.01c.01,.01,.03,.01,.05,0,.04,.01,.09,.01,.13,.01h165.62c1.44,0,2.6-1.16,2.6-2.6s-1.16-2.6-2.6-2.6h-165.62s-.09,0-.13,.01c-.03-.01-.04-.01-.05,0-.03-.01-.05-.01-.09-.01H243.55l42.65-20.8h88.47s.06,0,.09-.01c.01,.01,.03,.01,.05,0,.04,.01,.09,.01,.13,.01h159.9c1.44,0,2.6-1.16,2.6-2.6s-1.16-2.6-2.6-2.6h-159.9s-.09,0-.13,.01c-.03-.01-.04-.01-.05,0-.03-.01-.05-.01-.09-.01h-77.81l42.65-20.8h35.15s.05,0,.06-.01h.04s.01,.01,.03,0h.01s.09,.01,.13,.01h148.2c1.44,0,2.6-1.16,2.6-2.6s-1.16-2.6-2.6-2.6h-148.2s-.09,0-.13,.01h-.01s-.03,0-.03,0h-.04s-.04-.01-.06-.01h-24.49l42.64-20.8h116.03c1.43,0,2.6-1.17,2.6-2.6s-1.17-2.6-2.6-2.6h-105.37l42.65-20.8h44.51c1.43,0,2.6-1.17,2.6-2.6s-1.17-2.6-2.6-2.6h-33.85l47.19-23.01c34.38,42.94,62.11,94.34,62.11,149.59Z" style="fill:#a4203a;"/></g></g><g><polygon points="104.43 107.69 104.43 53.1 84.35 53.1 84.35 113.07 104.43 107.69" style="fill:#a4203a;"/><path d="M84.35,126.53v23.11c0,4.54-1.97,6.81-5.91,6.81s-5.97-2.27-5.97-6.81v-8.2h-20.08v8.2c0,17.37,8.68,26.07,26.05,26.11,17.33,0,25.99-8.7,25.99-26.11v-28.49l-20.08,5.38Z" style="fill:#a4203a;"/></g><path d="M110.57,204.89c-9.1-5.4-21.6-2.99-27.59,5.76v-.22c-5.99-8.75-18.5-11.16-27.6-5.76-9.23,5.48-12,17.26-6.17,26.32l33.77-20.04-33.75,20.04,33.75,52.49v.22l33.75-52.49-33.75-20.04,33.76,20.04c5.82-9.06,3.06-20.84-6.17-26.32" style="fill:#a4203a;"/><g><polygon points="645.57 942.31 645.57 996.9 665.65 996.9 665.65 936.93 645.57 942.31" style="fill:#a4203a;"/><path d="M665.65,923.47v-23.11c0-4.54,1.97-6.81,5.91-6.81s5.97,2.27,5.97,6.81v8.2h20.08v-8.2c0-17.37-8.68-26.07-26.05-26.11-17.33,0-25.99,8.7-25.99,26.11v28.49l20.08-5.38Z" style="fill:#a4203a;"/></g></g></svg>