<svg xmlns="http://www.w3.org/2000/svg" width="80" height="112" fill="none"><rect width="80" height="112" fill="#fff" rx="5"/><path fill="#DC3059" d="M5.38 28c.468.052.858.052 1.378.052 2.158 0 4.108-.936 4.108-4.576V9.8h-2.86v13.884c0 1.404-.728 1.742-1.638 1.742-.312 0-.676 0-.988-.026V28ZM15.438 13.986c0-1.3.572-1.794 1.482-1.794s1.482.494 1.482 1.794v9.828c0 1.3-.572 1.794-1.482 1.794s-1.482-.494-1.482-1.794v-9.828Zm-2.86 9.646c0 2.912 1.535 4.576 4.343 4.576s4.341-1.664 4.341-4.576v-9.464c0-2.912-1.534-4.576-4.341-4.576-2.808 0-4.342 1.664-4.342 4.576v9.464ZM29.647 28h2.938l-3.978-10.088L32.585 9.8h-2.86l-3.692 7.878h-.052V9.8h-2.86V28h2.86v-5.59l.884-1.664L29.647 28ZM36.747 12.4h4.94V9.8h-7.8V28h7.8v-2.6h-4.94v-5.33h3.926v-2.6h-3.926V12.4ZM52.351 28c-.286-.676-.312-1.326-.312-2.21v-2.808c0-1.898-.468-3.25-1.898-3.848v-.052c1.274-.598 1.872-1.794 1.872-3.666v-1.43c0-2.808-1.274-4.186-4.238-4.186h-4.316V28h2.86v-7.41h.988c1.3 0 1.872.624 1.872 2.314v2.86c0 1.482.104 1.768.26 2.236h2.912Zm-4.654-15.6c1.014 0 1.456.572 1.456 1.872v1.794c0 1.456-.65 1.924-1.716 1.924h-1.118V12.4h1.378ZM74.62 84c-.468-.052-.858-.052-1.378-.052-2.158 0-4.108.936-4.108 4.576V102.2h2.86V88.316c0-1.404.728-1.742 1.638-1.742.312 0 .676 0 .988.026V84ZM64.561 98.014c0 1.3-.572 1.794-1.482 1.794s-1.482-.494-1.482-1.794v-9.828c0-1.3.572-1.794 1.483-1.794.91 0 1.481.494 1.481 1.794v9.828Zm2.86-9.646c0-2.912-1.534-4.576-4.342-4.576-2.807 0-4.342 1.664-4.342 4.576v9.464c0 2.912 1.535 4.576 4.343 4.576s4.341-1.664 4.341-4.576v-9.464ZM50.353 84h-2.938l3.978 10.088-3.978 8.112h2.86l3.692-7.878h.052v7.878h2.86V84h-2.86v5.59l-.884 1.664L50.353 84ZM43.253 99.6h-4.94v2.6h7.8V84h-7.8v2.6h4.94v5.33h-3.926v2.6h3.926v5.07ZM27.649 84c.286.676.312 1.326.312 2.21v2.808c0 1.898.468 3.25 1.898 3.848v.052c-1.274.598-1.872 1.794-1.872 3.666v1.43c0 2.808 1.274 4.186 4.238 4.186h4.316V84h-2.86v7.41h-.988c-1.3 0-1.872-.624-1.872-2.314v-2.86c0-1.482-.104-1.768-.26-2.236h-2.912Zm4.654 15.6c-1.014 0-1.456-.572-1.456-1.872v-1.794c0-1.456.65-1.924 1.716-1.924h1.118v5.59h-1.378Z"/></svg>