<?xml version="1.0" encoding="UTF-8"?><svg xmlns="http://www.w3.org/2000/svg" viewBox="0 0 750 1050"><g id="uuid-773a0f3a-ebe5-4657-a562-d2910c38b416"><rect width="750" height="1049.95" rx="44.82" ry="44.82" style="fill:#fff;"/></g><g id="uuid-413d3746-002f-4e33-a2ed-f79516309ec7"><g><g><path d="M613.25,467.13c-1.73-6.05-3.79-12.09-6.29-18.08-32.09-77.17-115.53-117.18-186.38-89.37-70.84,27.81-102.26,112.92-70.17,190.09,7.75,18.63,18.51,35.07,31.34,48.94l147.52-57.91c-36.15-28.57-51.41-72.57-34.09-98.51,17.4-26.05,61.07-24.01,97.54,4.55,7.85,6.15,14.73,13.03,20.51,20.3" style="fill:#a4203a;"/><path d="M613.25,467.13c-1.73-6.05-3.79-12.09-6.29-18.08-32.09-77.17-115.53-117.18-186.38-89.37-70.84,27.81-102.26,112.92-70.17,190.09,7.75,18.63,18.51,35.07,31.34,48.94l147.52-57.91c-36.15-28.57-51.41-72.57-34.09-98.51,17.4-26.05,61.07-24.01,97.54,4.55,7.85,6.15,14.73,13.03,20.51,20.3Z" style="fill:none; stroke:#fff; stroke-width:4px;"/><path d="M428.77,581.46c0-80.17-85.47-145.16-190.91-145.16-96.3,0-175.91,54.23-188.98,124.71,2.06-5.46,4.68-10.85,7.89-16.08,24.25-39.39,72.54-54.53,107.87-33.81,35.33,20.72,44.31,69.45,20.06,108.85-.41,.67-.85,1.31-1.28,1.97l199.03,13.62-.08,.6h32.33c9.04-16.88,14.07-35.34,14.07-54.7" style="fill:#335b59;"/><path d="M428.77,581.46c0-80.17-85.47-145.16-190.91-145.16-96.3,0-175.91,54.23-188.98,124.71,2.06-5.46,4.68-10.85,7.89-16.08,24.25-39.39,72.54-54.53,107.87-33.81,35.33,20.72,44.31,69.45,20.06,108.85-.41,.67-.85,1.31-1.28,1.97l199.03,13.62-.08,.6h32.33c9.04-16.88,14.07-35.34,14.07-54.7Z" style="fill:none; stroke:#fff; stroke-width:4px;"/></g><rect x="188.05" y="619.66" width="377.13" height="36.36" style="fill:#335b59;"/><g><path d="M688.64,621.06c.73-5.57,1.14-11.23,1.14-16.99,0-74.24-61.94-134.42-138.35-134.42s-138.35,60.18-138.35,134.42c0,17.92,3.64,35.01,10.19,50.65h159.11c-22.5-35.36-19.69-76.71,6.37-92.53,26.17-15.89,65.88-.03,88.68,35.43,4.91,7.64,8.63,15.56,11.19,23.45" style="fill:#8a9577;"/><path d="M688.64,621.06c.73-5.57,1.14-11.23,1.14-16.99,0-74.24-61.94-134.42-138.35-134.42s-138.35,60.18-138.35,134.42c0,17.92,3.64,35.01,10.19,50.65h159.11c-22.5-35.36-19.69-76.71,6.37-92.53,26.17-15.89,65.88-.03,88.68,35.43,4.91,7.64,8.63,15.56,11.19,23.45Z" style="fill:none; stroke:#fff; stroke-width:4px;"/></g><rect x="181.19" y="637.22" width="418.32" height="39.58" style="fill:#fff;"/><rect x="187.83" y="663.45" width="383.12" height="35.72" style="fill:#282c44;"/><rect x="395.42" y="240.08" width="19.48" height="597.21" transform="translate(-250.39 695.45) rotate(-66.5)" style="fill:#fff;"/></g><g><path d="M62.53,109.99h13.07v5.34c0,2.96,1.3,4.44,3.89,4.44s3.85-1.48,3.85-4.44V52.48h13.07v62.85c0,11.33-5.64,17-16.92,17-11.31-.03-16.96-5.69-16.96-17v-5.34Z" style="fill:#a4203a;"/><path d="M99.55,194.55c0,9.94-5.65,14.93-16.96,14.96-11.28,0-16.92-4.99-16.92-14.96v-41.45c0-9.94,5.64-14.92,16.92-14.92s16.96,4.97,16.96,14.92v41.45Zm-13.07-41.45c0-2.59-1.28-3.9-3.85-3.93h-.08c-2.54,0-3.81,1.31-3.81,3.93v41.45c0,2.59,1.28,3.89,3.85,3.89s3.89-1.3,3.89-3.89v-41.45Z" style="fill:#a4203a;"/><path d="M88.59,250.84l15,34.58h-13.97l-10.09-25.75v25.75h-13.07v-69.17h13.07v25.75l10.09-25.75h13.97l-15,34.58Z" style="fill:#a4203a;"/><path d="M66.45,293.44h30.78v11.03h-17.7v18.02h15.23v11.07h-15.23v18.02h17.7v11.03h-30.78v-69.17Z" style="fill:#a4203a;"/><path d="M66.45,370.62h17.15c10.52,.03,15.78,5.01,15.78,14.96v10.21c0,6.25-2.85,10.31-8.56,12.17l12.6,31.84h-14.25l-8.95-29.76h-.71v29.76h-13.07v-69.17Zm13.07,11.03v18.02h1.57c1.41,0,2.33-.07,2.75-.2,1.65-.58,2.47-1.81,2.47-3.69v-10.21c0-2.62-1.28-3.93-3.85-3.93h-2.94Z" style="fill:#a4203a;"/></g></g></svg>