<?xml version="1.0" encoding="UTF-8"?><svg xmlns="http://www.w3.org/2000/svg" viewBox="0 0 750 1050"><g id="uuid-ee03083d-7006-42f9-83d3-b10f48d6b2fb"><rect width="750" height="1049.95" rx="44.82" ry="44.82" style="fill:#fff;"/></g><g id="uuid-ea217a45-3810-46b8-964e-3f60b8641db2"><g><g><path d="M613.49,467.07c-1.73-6.06-3.8-12.1-6.29-18.1-32.12-77.25-115.65-117.3-186.56-89.46-70.91,27.84-102.36,113.03-70.24,190.28,7.76,18.65,18.53,35.11,31.38,48.99l147.67-57.97c-36.18-28.6-51.47-72.64-34.12-98.61,17.42-26.07,61.13-24.03,97.64,4.55,7.86,6.16,14.74,13.04,20.53,20.32" style="fill:#282c44;"/><path d="M613.49,467.07c-1.73-6.06-3.8-12.1-6.29-18.1-32.12-77.25-115.65-117.3-186.56-89.46-70.91,27.84-102.36,113.03-70.24,190.28,7.76,18.65,18.53,35.11,31.38,48.99l147.67-57.97c-36.18-28.6-51.47-72.64-34.12-98.61,17.42-26.07,61.13-24.03,97.64,4.55,7.86,6.16,14.74,13.04,20.53,20.32Z" style="fill:none; stroke:#fff; stroke-width:4px;"/><path d="M428.83,581.52c0-80.25-85.56-145.3-191.1-145.3-96.4,0-176.08,54.28-189.17,124.83,2.06-5.47,4.68-10.87,7.9-16.09,24.27-39.43,72.61-54.59,107.97-33.84,35.36,20.74,44.35,69.52,20.08,108.96-.41,.67-.85,1.32-1.28,1.97l199.23,13.64-.08,.6h32.36c9.05-16.9,14.08-35.38,14.08-54.75" style="fill:#282c44;"/><path d="M428.83,581.52c0-80.25-85.56-145.3-191.1-145.3-96.4,0-176.08,54.28-189.17,124.83,2.06-5.47,4.68-10.87,7.9-16.09,24.27-39.43,72.61-54.59,107.97-33.84,35.36,20.74,44.35,69.52,20.08,108.96-.41,.67-.85,1.32-1.28,1.97l199.23,13.64-.08,.6h32.36c9.05-16.9,14.08-35.38,14.08-54.75Z" style="fill:none; stroke:#fff; stroke-width:4px;"/></g><rect x="187.87" y="619.75" width="377.51" height="36.4" style="fill:#282c44;"/><g><path d="M688.96,621.16c.73-5.57,1.14-11.24,1.14-17.01,0-74.31-62-134.55-138.48-134.55s-138.49,60.24-138.49,134.55c0,17.94,3.64,35.05,10.2,50.7h159.27c-22.52-35.4-19.71-76.78,6.38-92.63,26.2-15.91,65.94-.03,88.77,35.47,4.92,7.64,8.64,15.57,11.2,23.47" style="fill:#282c44;"/><path d="M688.96,621.16c.73-5.57,1.14-11.24,1.14-17.01,0-74.31-62-134.55-138.48-134.55s-138.49,60.24-138.49,134.55c0,17.94,3.64,35.05,10.2,50.7h159.27c-22.52-35.4-19.71-76.78,6.38-92.63,26.2-15.91,65.94-.03,88.77,35.47,4.92,7.64,8.64,15.57,11.2,23.47Z" style="fill:none; stroke:#fff; stroke-width:4px;"/></g><rect x="181.01" y="637.33" width="418.74" height="39.62" style="fill:#fff;"/><rect x="187.65" y="663.58" width="383.5" height="35.75" style="fill:#282c44;"/><rect x="395.45" y="239.79" width="19.5" height="597.8" transform="translate(-250.39 695.49) rotate(-66.5)" style="fill:#fff;"/></g><g><path d="M62.53,104.33h11.79v4.81c0,2.67,1.17,4,3.5,4s3.47-1.33,3.47-4V52.48h11.79v56.66c0,10.22-5.09,15.32-15.25,15.32-10.19-.02-15.29-5.13-15.29-15.32v-4.81Z" style="fill:#282c44;"/><path d="M95.9,180.56c0,8.97-5.1,13.46-15.29,13.48-10.17,0-15.25-4.49-15.25-13.48v-37.37c0-8.97,5.08-13.45,15.25-13.45s15.29,4.48,15.29,13.45v37.37Zm-11.79-37.37c0-2.34-1.16-3.52-3.47-3.54h-.07c-2.29,0-3.43,1.18-3.43,3.54v37.37c0,2.34,1.16,3.5,3.47,3.5s3.5-1.17,3.5-3.5v-37.37Z" style="fill:#282c44;"/><path d="M86.03,231.32l13.52,31.18h-12.6l-9.09-23.22v23.22h-11.79v-62.36h11.79v23.22l9.09-23.22h12.6l-13.52,31.18Z" style="fill:#282c44;"/><path d="M66.07,269.72h27.75v9.95h-15.96v16.24h13.73v9.98h-13.73v16.24h15.96v9.95h-27.75v-62.36Z" style="fill:#282c44;"/><path d="M66.07,339.3h15.47c9.49,.02,14.23,4.52,14.23,13.48v9.2c0,5.64-2.57,9.3-7.72,10.97l11.36,28.7h-12.85l-8.07-26.83h-.64v26.83h-11.79v-62.36Zm11.79,9.95v16.24h1.42c1.27,0,2.1-.06,2.48-.18,1.49-.52,2.23-1.63,2.23-3.33v-9.2c0-2.36-1.16-3.54-3.47-3.54h-2.65Z" style="fill:#282c44;"/></g><g><path d="M687.47,945.62h-11.79v-4.81c0-2.67-1.17-4-3.5-4s-3.47,1.33-3.47,4v56.66h-11.79v-56.66c0-10.22,5.09-15.32,15.25-15.32,10.19,.02,15.29,5.13,15.29,15.32v4.81Z" style="fill:#282c44;"/><path d="M654.1,869.39c0-8.97,5.1-13.46,15.29-13.48,10.17,0,15.25,4.49,15.25,13.48v37.37c0,8.97-5.08,13.45-15.25,13.45s-15.29-4.48-15.29-13.45v-37.37Zm11.79,37.37c0,2.34,1.16,3.52,3.47,3.54h.07c2.29,0,3.43-1.18,3.43-3.54v-37.37c0-2.34-1.16-3.5-3.47-3.5s-3.5,1.17-3.5,3.5v37.37Z" style="fill:#282c44;"/><path d="M663.97,818.63l-13.52-31.18h12.6l9.09,23.22v-23.22h11.79v62.36h-11.79v-23.22l-9.09,23.22h-12.6l13.52-31.18Z" style="fill:#282c44;"/><path d="M683.93,780.23h-27.75v-9.95h15.96v-16.24h-13.73v-9.98h13.73v-16.24h-15.96v-9.95h27.75v62.36Z" style="fill:#282c44;"/><path d="M683.93,710.65h-15.47c-9.49-.02-14.23-4.52-14.23-13.48v-9.2c0-5.64,2.57-9.3,7.72-10.97l-11.36-28.7h12.85l8.07,26.83h.64v-26.83h11.79v62.36Zm-11.79-9.95v-16.24h-1.42c-1.27,0-2.1,.06-2.48,.18-1.49,.52-2.23,1.63-2.23,3.33v9.2c0,2.36,1.16,3.54,3.47,3.54h2.65Z" style="fill:#282c44;"/></g></g></svg>