<?xml version="1.0" encoding="UTF-8"?><svg xmlns="http://www.w3.org/2000/svg" viewBox="0 0 750 1050"><g id="uuid-c77ffa97-2c14-4ebf-b6c8-d03ebc30b459"><rect width="750" height="1049.95" rx="44.82" ry="44.82" style="fill:#fff;"/></g><g id="uuid-f8284c16-6c4c-4b74-b474-75b8383ba669"><g><g><path d="M613.49,467.07c-1.73-6.06-3.8-12.1-6.29-18.1-32.12-77.25-115.65-117.3-186.56-89.46-70.91,27.84-102.36,113.03-70.24,190.28,7.76,18.65,18.53,35.11,31.38,48.99l147.67-57.97c-36.18-28.6-51.47-72.64-34.12-98.61,17.42-26.07,61.13-24.03,97.64,4.55,7.86,6.16,14.74,13.04,20.53,20.32" style="fill:#282c44;"/><path d="M613.49,467.07c-1.73-6.06-3.8-12.1-6.29-18.1-32.12-77.25-115.65-117.3-186.56-89.46-70.91,27.84-102.36,113.03-70.24,190.28,7.76,18.65,18.53,35.11,31.38,48.99l147.67-57.97c-36.18-28.6-51.47-72.64-34.12-98.61,17.42-26.07,61.13-24.03,97.64,4.55,7.86,6.16,14.74,13.04,20.53,20.32Z" style="fill:none; stroke:#fff; stroke-width:4px;"/><path d="M428.83,581.52c0-80.25-85.56-145.3-191.1-145.3-96.4,0-176.08,54.28-189.17,124.83,2.06-5.47,4.68-10.87,7.9-16.09,24.27-39.43,72.61-54.59,107.97-33.84,35.36,20.74,44.35,69.52,20.08,108.96-.41,.67-.85,1.32-1.28,1.97l199.23,13.64-.08,.6h32.36c9.05-16.9,14.08-35.38,14.08-54.75" style="fill:#282c44;"/><path d="M428.83,581.52c0-80.25-85.56-145.3-191.1-145.3-96.4,0-176.08,54.28-189.17,124.83,2.06-5.47,4.68-10.87,7.9-16.09,24.27-39.43,72.61-54.59,107.97-33.84,35.36,20.74,44.35,69.52,20.08,108.96-.41,.67-.85,1.32-1.28,1.97l199.23,13.64-.08,.6h32.36c9.05-16.9,14.08-35.38,14.08-54.75Z" style="fill:none; stroke:#fff; stroke-width:4px;"/></g><rect x="187.87" y="619.75" width="377.51" height="36.4" style="fill:#282c44;"/><g><path d="M688.96,621.16c.73-5.57,1.14-11.24,1.14-17.01,0-74.31-62-134.55-138.48-134.55s-138.49,60.24-138.49,134.55c0,17.94,3.64,35.05,10.2,50.7h159.27c-22.52-35.4-19.71-76.78,6.38-92.63,26.2-15.91,65.94-.03,88.77,35.47,4.92,7.64,8.64,15.57,11.2,23.47" style="fill:#282c44;"/><path d="M688.96,621.16c.73-5.57,1.14-11.24,1.14-17.01,0-74.31-62-134.55-138.48-134.55s-138.49,60.24-138.49,134.55c0,17.94,3.64,35.05,10.2,50.7h159.27c-22.52-35.4-19.71-76.78,6.38-92.63,26.2-15.91,65.94-.03,88.77,35.47,4.92,7.64,8.64,15.57,11.2,23.47Z" style="fill:none; stroke:#fff; stroke-width:4px;"/></g><rect x="181.01" y="637.33" width="418.74" height="39.62" style="fill:#fff;"/><rect x="187.65" y="663.58" width="383.5" height="35.75" style="fill:#282c44;"/><rect x="395.45" y="239.79" width="19.5" height="597.8" transform="translate(-250.39 695.49) rotate(-66.5)" style="fill:#fff;"/></g><g><path d="M62.53,109.99h13.07v5.34c0,2.96,1.3,4.44,3.89,4.44s3.85-1.48,3.85-4.44V52.48h13.07v62.85c0,11.33-5.64,17-16.92,17-11.31-.03-16.96-5.69-16.96-17v-5.34Z" style="fill:#282c44;"/><path d="M99.55,194.55c0,9.94-5.65,14.93-16.96,14.96-11.28,0-16.92-4.99-16.92-14.96v-41.45c0-9.94,5.64-14.92,16.92-14.92s16.96,4.97,16.96,14.92v41.45Zm-13.07-41.45c0-2.59-1.28-3.9-3.85-3.93h-.08c-2.54,0-3.81,1.31-3.81,3.93v41.45c0,2.59,1.28,3.89,3.85,3.89s3.89-1.3,3.89-3.89v-41.45Z" style="fill:#282c44;"/><path d="M88.59,250.84l15,34.58h-13.97l-10.09-25.75v25.75h-13.07v-69.17h13.07v25.75l10.09-25.75h13.97l-15,34.58Z" style="fill:#282c44;"/><path d="M66.45,293.44h30.78v11.03h-17.7v18.02h15.23v11.07h-15.23v18.02h17.7v11.03h-30.78v-69.17Z" style="fill:#282c44;"/><path d="M66.45,370.62h17.15c10.52,.03,15.78,5.01,15.78,14.96v10.21c0,6.25-2.85,10.31-8.56,12.17l12.6,31.84h-14.25l-8.95-29.76h-.71v29.76h-13.07v-69.17Zm13.07,11.03v18.02h1.57c1.41,0,2.33-.07,2.75-.2,1.65-.58,2.47-1.81,2.47-3.69v-10.21c0-2.62-1.28-3.93-3.85-3.93h-2.94Z" style="fill:#282c44;"/></g></g></svg>