<svg xmlns="http://www.w3.org/2000/svg" viewBox="0 0 750 1050">
  <defs>
    <clipPath id="clip-path">
      <path style="fill:none" d="M-36.35-36h822.71v1122H-36.35z"/>
    </clipPath>
    <style>
      .cls-7{fill:none}.cls-2{fill:#fff}.cls-3{fill:#a4203a}.cls-5{fill:#282c44}.cls-6{clip-path:url(#clip-path)}.cls-7{stroke:#fff;stroke-width:4px}.cls-8{fill:#335b59}.cls-9{fill:#8a9577}
    </style>
  </defs>
  <rect class="cls-2" width="750" height="1049.95" rx="44.82" id="Ebene_2" data-name="Ebene 2"/>
  <g id="Ebene_1_Kopie_2" data-name="Ebene 1 Kopie 2">
    <path class="cls-3" d="M696.33 973.09h-8.13v-3.32c0-1.84-.81-2.76-2.42-2.76s-2.39.92-2.39 2.76v39.09h-8.13v-39.09q0-10.57 10.52-10.57t10.55 10.57Zm-23.02-52.59q0-9.27 10.54-9.3t10.53 9.3v25.78q0 9.29-10.53 9.28t-10.54-9.28Zm8.13 25.78a2.15 2.15 0 0 0 2.39 2.45 2.13 2.13 0 0 0 2.37-2.45V920.5a2.41 2.41 0 1 0-4.81 0Zm-1.32-60.79L670.79 864h8.69l6.28 16v-16h8.13v43h-8.13v-16l-6.28 16h-8.69ZM693.89 859h-19.14v-6.86h11v-11.21h-9.47v-6.88h9.47v-11.21h-11V816h19.14Zm0-48h-10.67q-9.81 0-9.81-9.3v-6.35q0-5.83 5.32-7.57L670.89 768h8.86l5.57 18.51h.44V768h8.13Zm-8.13-6.86v-11.21h-1a6.69 6.69 0 0 0-1.71.13 2.18 2.18 0 0 0-1.53 2.29v6.35a2.13 2.13 0 0 0 2.39 2.44ZM53.67 76.91h8.13v3.32c0 1.84.8 2.76 2.42 2.76s2.39-.92 2.39-2.76V41.14h8.13v39.09q0 10.58-10.52 10.57T53.67 80.23Zm23.02 52.59q0 9.27-10.54 9.3t-10.53-9.3v-25.78q0-9.28 10.53-9.28t10.54 9.28Zm-8.13-25.78a2.15 2.15 0 0 0-2.39-2.45 2.13 2.13 0 0 0-2.37 2.45v25.78a2.41 2.41 0 1 0 4.81 0Zm1.32 60.79L79.21 186h-8.7l-6.27-16v16h-8.13v-43h8.13v16l6.27-16h8.7ZM56.11 191h19.14v6.86h-11v11.21h9.47V216h-9.48v11.21h11V234H56.11Zm0 48h10.67q9.81 0 9.81 9.3v6.35q0 5.84-5.32 7.57L79.11 282h-8.86l-5.57-18.51h-.44V282h-8.13Zm8.13 6.86v11.21h1a6.69 6.69 0 0 0 1.71-.13 2.18 2.18 0 0 0 1.53-2.29v-6.35a2.13 2.13 0 0 0-2.39-2.44Z"/>
    <path style="stroke:#282c44;fill:none" d="M35.65 525h678"/>
    <path class="cls-5" d="M227.6 449.99h295v17h-295zm-.91 132.52h295v17h-295z"/>
    <g class="cls-6">
      <path class="cls-3" d="M554.71 304.83a126.3 126.3 0 0 0-4.84-13.92c-24.7-59.42-89-90.23-143.51-68.81s-78.74 86.94-54 146.36a127.42 127.42 0 0 0 24.14 37.69l113.59-44.6c-27.83-22-39.59-55.88-26.25-75.85s47-18.49 75.11 3.5a95.81 95.81 0 0 1 15.79 15.63"/>
      <path class="cls-7" d="M554.71 304.83a126.3 126.3 0 0 0-4.84-13.92c-24.7-59.42-89-90.23-143.51-68.81s-78.74 86.94-54 146.36a127.42 127.42 0 0 0 24.14 37.69l113.59-44.6c-27.83-22-39.59-55.88-26.25-75.85s47-18.49 75.11 3.5a95.81 95.81 0 0 1 15.76 15.63Z"/>
      <path class="cls-8" d="M412.67 392.87c0-61.73-65.81-111.77-147-111.77-74.15 0-135.44 41.75-145.51 96a71.94 71.94 0 0 1 6.07-12.38c18.67-30.33 55.86-42 83.06-26s34.12 53.48 15.45 83.81c-.32.52-.66 1-1 1.52L377 434.53v.47h24.89a88.72 88.72 0 0 0 10.83-42.12"/>
      <path class="cls-7" d="M412.67 392.87c0-61.73-65.81-111.77-147-111.77-74.15 0-135.44 41.75-145.51 96a71.94 71.94 0 0 1 6.07-12.38c18.67-30.33 55.86-42 83.06-26s34.12 53.48 15.45 83.81c-.32.52-.66 1-1 1.52L377 434.53v.47h24.89a88.72 88.72 0 0 0 10.78-42.13Z"/>
    </g>
    <path class="cls-8" d="M227.32 422.28h290.39v28H227.32z"/>
    <g class="cls-6">
      <path class="cls-9" d="M612.77 423.37a101 101 0 0 0 .87-13.09c0-57.16-47.69-103.5-106.52-103.5s-106.53 46.34-106.53 103.5a100.73 100.73 0 0 0 7.85 39H531c-17.32-27.23-15.16-59.06 4.91-71.25s50.73 0 68.29 27.28a78.32 78.32 0 0 1 8.62 18.06"/>
      <path class="cls-7" d="M612.77 423.37a101 101 0 0 0 .87-13.09c0-57.16-47.69-103.5-106.52-103.5s-106.53 46.34-106.53 103.5a100.73 100.73 0 0 0 7.85 39H531c-17.32-27.23-15.16-59.06 4.91-71.25s50.73 0 68.29 27.28a78.32 78.32 0 0 1 8.57 18.06Z"/>
    </g>
    <path class="cls-2" d="M222.04 435.8h322.11v30.48H222.04z"/>
    <g class="cls-6">
      <path class="cls-3" d="M194.58 744.67a126.3 126.3 0 0 0 4.84 13.92c24.71 59.42 89 90.23 143.51 68.81S421.67 740.46 397 681a127.59 127.59 0 0 0-24.13-37.69L259.23 688c27.84 22 39.59 55.88 26.25 75.85s-47 18.49-75.11-3.5a95.81 95.81 0 0 1-15.79-15.63"/>
      <path class="cls-7" d="M194.58 744.67a126.3 126.3 0 0 0 4.84 13.92c24.71 59.42 89 90.23 143.51 68.81S421.67 740.46 397 681a127.59 127.59 0 0 0-24.13-37.69L259.23 688c27.84 22 39.59 55.88 26.25 75.85s-47 18.49-75.11-3.5a95.81 95.81 0 0 1-15.79-15.68Z"/>
      <path class="cls-8" d="M336.62 656.63c0 61.73 65.81 111.77 147 111.77 74.15 0 135.44-41.75 145.52-96a72.74 72.74 0 0 1-6.08 12.38c-18.67 30.33-55.86 42-83.06 26s-34.11-53.47-15.44-83.78c.31-.52.65-1 1-1.52L372.28 615l.07-.46h-24.9a88.72 88.72 0 0 0-10.83 42.12"/>
      <path class="cls-7" d="M336.62 656.63c0 61.73 65.81 111.77 147 111.77 74.15 0 135.44-41.75 145.52-96a72.74 72.74 0 0 1-6.08 12.38c-18.67 30.33-55.86 42-83.06 26s-34.11-53.47-15.44-83.78c.31-.52.65-1 1-1.52L372.28 615l.07-.46h-24.9a88.72 88.72 0 0 0-10.83 42.09Z"/>
    </g>
    <path class="cls-8" d="M231.59 599.22h290.39v28H231.59z"/>
    <g class="cls-6">
      <path class="cls-9" d="M136.53 626.13a99.23 99.23 0 0 0-.89 13.09c0 57.16 47.7 103.5 106.53 103.5s106.53-46.34 106.53-103.5a100.55 100.55 0 0 0-7.85-39H218.34c17.32 27.23 15.16 59.06-4.91 71.25s-50.73 0-68.29-27.28a77.87 77.87 0 0 1-8.61-18.06"/>
      <path class="cls-7" d="M136.53 626.13a99.23 99.23 0 0 0-.89 13.09c0 57.16 47.7 103.5 106.53 103.5s106.53-46.34 106.53-103.5a100.55 100.55 0 0 0-7.85-39H218.34c17.32 27.23 15.16 59.06-4.91 71.25s-50.73 0-68.29-27.28a77.87 77.87 0 0 1-8.61-18.06Z"/>
    </g>
    <path class="cls-2" d="M205.15 583.22h322.11v30.48H205.15z"/>
    <path class="cls-5" d="M227.15 456h295v27.5h-295zm0 110h295v27.5h-295z"/>
    <path class="cls-2" transform="rotate(-66.5 394.50315452 359.92777157)" d="M386.99 130.01h15v459.85h-15z"/>
    <path class="cls-2" transform="rotate(-66.5 354.81116097 689.5737352)" d="M347.3 459.65h15V919.5h-15z"/>
  </g>
</svg>
