<?xml version="1.0" encoding="UTF-8"?><svg xmlns="http://www.w3.org/2000/svg" viewBox="0 0 750 1050"><g id="uuid-668838af-5353-43d4-99ad-327ec7339b07"><rect width="750" height="1049.95" rx="44.82" ry="44.82" style="fill:#fff;"/></g><g id="uuid-c389145e-5800-43d1-89a8-765234225d84"><g><g><path d="M613.25,467.13c-1.73-6.05-3.79-12.09-6.29-18.08-32.09-77.17-115.53-117.18-186.38-89.37-70.84,27.81-102.26,112.92-70.17,190.09,7.75,18.63,18.51,35.07,31.34,48.94l147.52-57.91c-36.15-28.57-51.41-72.57-34.09-98.51,17.4-26.05,61.07-24.01,97.54,4.55,7.85,6.15,14.73,13.03,20.51,20.3" style="fill:#a4203a;"/><path d="M613.25,467.13c-1.73-6.05-3.79-12.09-6.29-18.08-32.09-77.17-115.53-117.18-186.38-89.37-70.84,27.81-102.26,112.92-70.17,190.09,7.75,18.63,18.51,35.07,31.34,48.94l147.52-57.91c-36.15-28.57-51.41-72.57-34.09-98.51,17.4-26.05,61.07-24.01,97.54,4.55,7.85,6.15,14.73,13.03,20.51,20.3Z" style="fill:none; stroke:#fff; stroke-width:4px;"/><path d="M428.77,581.46c0-80.17-85.47-145.16-190.91-145.16-96.3,0-175.91,54.23-188.98,124.71,2.06-5.46,4.68-10.85,7.89-16.08,24.25-39.39,72.54-54.53,107.87-33.81,35.33,20.72,44.31,69.45,20.06,108.85-.41,.67-.85,1.31-1.28,1.97l199.03,13.62-.08,.6h32.33c9.04-16.88,14.07-35.34,14.07-54.7" style="fill:#335b59;"/><path d="M428.77,581.46c0-80.17-85.47-145.16-190.91-145.16-96.3,0-175.91,54.23-188.98,124.71,2.06-5.46,4.68-10.85,7.89-16.08,24.25-39.39,72.54-54.53,107.87-33.81,35.33,20.72,44.31,69.45,20.06,108.85-.41,.67-.85,1.31-1.28,1.97l199.03,13.62-.08,.6h32.33c9.04-16.88,14.07-35.34,14.07-54.7Z" style="fill:none; stroke:#fff; stroke-width:4px;"/></g><rect x="188.05" y="619.66" width="377.13" height="36.36" style="fill:#335b59;"/><g><path d="M688.64,621.06c.73-5.57,1.14-11.23,1.14-16.99,0-74.24-61.94-134.42-138.35-134.42s-138.35,60.18-138.35,134.42c0,17.92,3.64,35.01,10.19,50.65h159.11c-22.5-35.36-19.69-76.71,6.37-92.53,26.17-15.89,65.88-.03,88.68,35.43,4.91,7.64,8.63,15.56,11.19,23.45" style="fill:#8a9577;"/><path d="M688.64,621.06c.73-5.57,1.14-11.23,1.14-16.99,0-74.24-61.94-134.42-138.35-134.42s-138.35,60.18-138.35,134.42c0,17.92,3.64,35.01,10.19,50.65h159.11c-22.5-35.36-19.69-76.71,6.37-92.53,26.17-15.89,65.88-.03,88.68,35.43,4.91,7.64,8.63,15.56,11.19,23.45Z" style="fill:none; stroke:#fff; stroke-width:4px;"/></g><rect x="181.19" y="637.22" width="418.32" height="39.58" style="fill:#fff;"/><rect x="187.83" y="663.45" width="383.12" height="35.72" style="fill:#282c44;"/><rect x="395.42" y="240.08" width="19.48" height="597.21" transform="translate(-250.39 695.45) rotate(-66.5)" style="fill:#fff;"/></g><g><path d="M62.53,104.33h11.79v4.81c0,2.67,1.17,4,3.5,4s3.47-1.33,3.47-4V52.48h11.79v56.66c0,10.22-5.09,15.32-15.25,15.32-10.19-.02-15.29-5.13-15.29-15.32v-4.81Z" style="fill:#a4203a;"/><path d="M95.9,180.56c0,8.97-5.1,13.46-15.29,13.48-10.17,0-15.25-4.49-15.25-13.48v-37.37c0-8.97,5.08-13.45,15.25-13.45s15.29,4.48,15.29,13.45v37.37Zm-11.79-37.37c0-2.34-1.16-3.52-3.47-3.54h-.07c-2.29,0-3.43,1.18-3.43,3.54v37.37c0,2.34,1.16,3.5,3.47,3.5s3.5-1.17,3.5-3.5v-37.37Z" style="fill:#a4203a;"/><path d="M86.03,231.32l13.52,31.18h-12.6l-9.09-23.22v23.22h-11.79v-62.36h11.79v23.22l9.09-23.22h12.6l-13.52,31.18Z" style="fill:#a4203a;"/><path d="M66.07,269.72h27.75v9.95h-15.96v16.24h13.73v9.98h-13.73v16.24h15.96v9.95h-27.75v-62.36Z" style="fill:#a4203a;"/><path d="M66.07,339.3h15.47c9.49,.02,14.23,4.52,14.23,13.48v9.2c0,5.64-2.57,9.3-7.72,10.97l11.36,28.7h-12.85l-8.07-26.83h-.64v26.83h-11.79v-62.36Zm11.79,9.95v16.24h1.42c1.27,0,2.1-.06,2.48-.18,1.49-.52,2.23-1.63,2.23-3.33v-9.2c0-2.36-1.16-3.54-3.47-3.54h-2.65Z" style="fill:#a4203a;"/></g></g></svg>