<svg xmlns="http://www.w3.org/2000/svg" xmlns:xlink="http://www.w3.org/1999/xlink" viewBox="0 0 750 1050"><defs><style>.cls-1,.cls-3,.cls-6{fill:none;}.cls-2{fill:#fff;}.cls-3{stroke:#282c44;}.cls-4{fill:#282c44;}.cls-5{clip-path:url(#clip-path);}.cls-6{stroke:#fff;stroke-width:4px;}</style><clipPath id="clip-path"><rect class="cls-1" x="-36" y="-36" width="822" height="1122"/></clipPath></defs><g id="Ebene_2" data-name="Ebene 2"><rect class="cls-2" width="750" height="1049.95" rx="44.82"/></g><g id="Ebene_1_Kopie_2" data-name="Ebene 1 Kopie 2"><line class="cls-3" x1="36" y1="525" x2="714" y2="525"/><rect class="cls-4" x="227.96" y="449.99" width="295" height="17"/><rect class="cls-4" x="227.04" y="583.01" width="295" height="17"/><g class="cls-5"><path class="cls-4" d="M555.07,304.83a128.41,128.41,0,0,0-4.84-13.92c-24.71-59.42-89-90.23-143.51-68.81S328,309,352.69,368.46a127.39,127.39,0,0,0,24.13,37.69l113.59-44.6c-27.83-22-39.59-55.88-26.24-75.85s47-18.49,75.1,3.5a95.88,95.88,0,0,1,15.8,15.63"/><path class="cls-6" d="M555.07,304.83a128.41,128.41,0,0,0-4.84-13.92c-24.71-59.42-89-90.23-143.51-68.81S328,309,352.69,368.46a127.39,127.39,0,0,0,24.13,37.69l113.59-44.6c-27.83-22-39.59-55.88-26.24-75.85s47-18.49,75.1,3.5A95.88,95.88,0,0,1,555.07,304.83Z"/><path class="cls-4" d="M413,392.87c0-61.73-65.81-111.77-147-111.77-74.15,0-135.45,41.75-145.52,96a72,72,0,0,1,6.08-12.38c18.67-30.33,55.85-42,83-26s34.12,53.48,15.45,83.81c-.32.52-.65,1-1,1.52l153.25,10.49-.06.46h24.89A88.6,88.6,0,0,0,413,392.87"/><path class="cls-6" d="M413,392.87c0-61.73-65.81-111.77-147-111.77-74.15,0-135.45,41.75-145.52,96a72,72,0,0,1,6.08-12.38c18.67-30.33,55.85-42,83-26s34.12,53.48,15.45,83.81c-.32.52-.65,1-1,1.52l153.25,10.49-.06.46h24.89A88.6,88.6,0,0,0,413,392.87Z"/></g><rect class="cls-4" x="227.67" y="422.28" width="290.39" height="28"/><g class="cls-5"><path class="cls-4" d="M613.12,423.37a101,101,0,0,0,.88-13.09c0-57.16-47.69-103.5-106.53-103.5S401,353.12,401,410.28a100.55,100.55,0,0,0,7.85,39H531.31C514,422.05,516.14,390.22,536.22,378s50.72,0,68.28,27.28a77.91,77.91,0,0,1,8.62,18.06"/><path class="cls-6" d="M613.12,423.37a101,101,0,0,0,.88-13.09c0-57.16-47.69-103.5-106.53-103.5S401,353.12,401,410.28a100.55,100.55,0,0,0,7.85,39H531.31C514,422.05,516.14,390.22,536.22,378s50.72,0,68.28,27.28A77.91,77.91,0,0,1,613.12,423.37Z"/></g><rect class="cls-2" x="222.39" y="435.8" width="322.11" height="30.48"/><g class="cls-5"><path class="cls-4" d="M194.93,745.17a128.41,128.41,0,0,0,4.84,13.92c24.71,59.42,89,90.23,143.51,68.81S422,741,397.31,681.54a127.39,127.39,0,0,0-24.13-37.69l-113.59,44.6c27.83,22,39.59,55.88,26.24,75.85s-47,18.49-75.1-3.5a95.88,95.88,0,0,1-15.8-15.63"/><path class="cls-6" d="M194.93,745.17a128.41,128.41,0,0,0,4.84,13.92c24.71,59.42,89,90.23,143.51,68.81S422,741,397.31,681.54a127.39,127.39,0,0,0-24.13-37.69l-113.59,44.6c27.83,22,39.59,55.88,26.24,75.85s-47,18.49-75.1-3.5A95.88,95.88,0,0,1,194.93,745.17Z"/><path class="cls-4" d="M337,657.13c0,61.73,65.81,111.77,147,111.77,74.15,0,135.45-41.75,145.52-96a72,72,0,0,1-6.08,12.38c-18.67,30.33-55.85,42-83,26s-34.12-53.48-15.45-83.81c.32-.52.65-1,1-1.52L372.64,615.47l.06-.46H347.81A88.6,88.6,0,0,0,337,657.13"/><path class="cls-6" d="M337,657.13c0,61.73,65.81,111.77,147,111.77,74.15,0,135.45-41.75,145.52-96a72,72,0,0,1-6.08,12.38c-18.67,30.33-55.85,42-83,26s-34.12-53.48-15.45-83.81c.32-.52.65-1,1-1.52L372.64,615.47l.06-.46H347.81A88.6,88.6,0,0,0,337,657.13Z"/></g><rect class="cls-4" x="231.94" y="599.72" width="290.39" height="28"/><g class="cls-5"><path class="cls-4" d="M136.88,626.63a101,101,0,0,0-.88,13.09c0,57.16,47.69,103.5,106.53,103.5s106.52-46.34,106.52-103.5a100.55,100.55,0,0,0-7.85-39H218.69C236,628,233.86,659.78,213.78,672s-50.72,0-68.28-27.28a77.91,77.91,0,0,1-8.62-18.06"/><path class="cls-6" d="M136.88,626.63a101,101,0,0,0-.88,13.09c0,57.16,47.69,103.5,106.53,103.5s106.52-46.34,106.52-103.5a100.55,100.55,0,0,0-7.85-39H218.69C236,628,233.86,659.78,213.78,672s-50.72,0-68.28-27.28A77.91,77.91,0,0,1,136.88,626.63Z"/></g><rect class="cls-2" x="205.5" y="583.72" width="322.11" height="30.48"/><rect class="cls-4" x="227.5" y="456" width="295" height="27.5"/><rect class="cls-4" x="227.5" y="566.5" width="295" height="27.5"/><rect class="cls-2" x="387.34" y="130.01" width="15" height="459.85" transform="translate(-92.67 578.51) rotate(-66.5)"/><rect class="cls-2" x="347.66" y="460.15" width="15" height="459.85" transform="translate(-419.3 740.62) rotate(-66.5)"/><path class="cls-4" d="M54,76.91h8.13v3.32c0,1.84.81,2.76,2.42,2.76S67,82.07,67,80.23V41.14h8.13V80.23q0,10.58-10.52,10.57T54,80.23Z"/><path class="cls-4" d="M77.05,129.5q0,9.27-10.55,9.3T56,129.5V103.72q0-9.28,10.52-9.28t10.55,9.28Zm-8.13-25.78a2.16,2.16,0,0,0-2.4-2.45h0a2.13,2.13,0,0,0-2.37,2.45V129.5a2.41,2.41,0,1,0,4.81,0Z"/><path class="cls-4" d="M70.23,164.51,79.56,186H70.87L64.6,170v16H56.47V143H64.6v16l6.27-16h8.69Z"/><path class="cls-4" d="M56.47,191H75.61v6.86h-11v11.21h9.47V216H64.6v11.21h11V234H56.47Z"/><path class="cls-4" d="M56.47,239H67.13Q77,239,77,248.3v6.35q0,5.84-5.32,7.57L79.46,282H70.6L65,263.51H64.6V282H56.47Zm8.13,6.86v11.21h1a6.69,6.69,0,0,0,1.71-.13,2.18,2.18,0,0,0,1.54-2.29V248.3a2.13,2.13,0,0,0-2.39-2.44Z"/><path class="cls-4" d="M696,973.09h-8.13v-3.32c0-1.84-.81-2.76-2.42-2.76s-2.39.92-2.39,2.76v39.09h-8.13V969.77q0-10.57,10.52-10.57T696,969.77Z"/><path class="cls-4" d="M673,920.5q0-9.27,10.55-9.3T694,920.5v25.78q0,9.29-10.52,9.28T673,946.28Zm8.13,25.78a2.16,2.16,0,0,0,2.4,2.45h0a2.13,2.13,0,0,0,2.36-2.45V920.5a2.41,2.41,0,1,0-4.81,0Z"/><path class="cls-4" d="M679.77,885.49,670.44,864h8.69l6.28,16V864h8.13v43h-8.13V891l-6.28,16h-8.69Z"/><path class="cls-4" d="M693.54,859H674.39v-6.86h11V840.93h-9.48v-6.88h9.48V822.84h-11V816h19.15Z"/><path class="cls-4" d="M693.54,811H682.87q-9.82,0-9.82-9.3v-6.35q0-5.83,5.32-7.57L670.54,768h8.86L685,786.49h.44V768h8.13Zm-8.13-6.86V792.93h-1a6.69,6.69,0,0,0-1.71.13,2.18,2.18,0,0,0-1.54,2.29v6.35a2.13,2.13,0,0,0,2.39,2.44Z"/></g></svg>