<svg xmlns="http://www.w3.org/2000/svg" viewBox="0 0 750 1050">
  <defs>
    <clipPath id="a">
      <path style="fill:none" d="M-36-36h822v1122H-36z"/>
    </clipPath>
  </defs>
  <rect width="750" height="1049.95" rx="44.82" style="fill:#fff" data-name="Ebene 2"/>
  <g data-name="Ebene 1 Kopie 2">
    <path style="fill:none;stroke:#282c44" d="M36 525h678"/>
    <path style="fill:#282c44" d="M227.96 449.99h295v17h-295zM227.04 583.01h295v17h-295z"/>
    <g style="clip-path:url(#a)">
      <path d="M555.07 304.83a128.41 128.41 0 0 0-4.84-13.92c-24.71-59.42-89-90.23-143.51-68.81S328 309 352.69 368.46a127.39 127.39 0 0 0 24.13 37.69l113.59-44.6c-27.83-22-39.59-55.88-26.24-75.85s47-18.49 75.1 3.5a95.88 95.88 0 0 1 15.8 15.63" style="fill:#282c44"/>
      <path d="M555.07 304.83a128.41 128.41 0 0 0-4.84-13.92c-24.71-59.42-89-90.23-143.51-68.81S328 309 352.69 368.46a127.39 127.39 0 0 0 24.13 37.69l113.59-44.6c-27.83-22-39.59-55.88-26.24-75.85s47-18.49 75.1 3.5a95.88 95.88 0 0 1 15.8 15.63Z" style="fill:none;stroke:#fff;stroke-width:4px"/>
      <path d="M413 392.87c0-61.73-65.81-111.77-147-111.77-74.15 0-135.45 41.75-145.52 96a72 72 0 0 1 6.08-12.38c18.67-30.33 55.85-42 83-26s34.12 53.48 15.45 83.81c-.32.52-.65 1-1 1.52l153.25 10.49-.06.46h24.89A88.6 88.6 0 0 0 413 392.87" style="fill:#282c44"/>
      <path d="M413 392.87c0-61.73-65.81-111.77-147-111.77-74.15 0-135.45 41.75-145.52 96a72 72 0 0 1 6.08-12.38c18.67-30.33 55.85-42 83-26s34.12 53.48 15.45 83.81c-.32.52-.65 1-1 1.52l153.25 10.49-.06.46h24.89A88.6 88.6 0 0 0 413 392.87Z" style="fill:none;stroke:#fff;stroke-width:4px"/>
    </g>
    <path style="fill:#282c44" d="M227.67 422.28h290.39v28H227.67z"/>
    <g style="clip-path:url(#a)">
      <path d="M613.12 423.37a101 101 0 0 0 .88-13.09c0-57.16-47.69-103.5-106.53-103.5S401 353.12 401 410.28a100.55 100.55 0 0 0 7.85 39h122.46c-17.31-27.23-15.17-59.06 4.91-71.28s50.72 0 68.28 27.28a77.91 77.91 0 0 1 8.62 18.06" style="fill:#282c44"/>
      <path d="M613.12 423.37a101 101 0 0 0 .88-13.09c0-57.16-47.69-103.5-106.53-103.5S401 353.12 401 410.28a100.55 100.55 0 0 0 7.85 39h122.46c-17.31-27.23-15.17-59.06 4.91-71.28s50.72 0 68.28 27.28a77.91 77.91 0 0 1 8.62 18.09Z" style="fill:none;stroke:#fff;stroke-width:4px"/>
    </g>
    <path style="fill:#fff" d="M222.39 435.8H544.5v30.48H222.39z"/>
    <g style="clip-path:url(#a)">
      <path d="M194.93 745.17a128.41 128.41 0 0 0 4.84 13.92c24.71 59.42 89 90.23 143.51 68.81S422 741 397.31 681.54a127.39 127.39 0 0 0-24.13-37.69l-113.59 44.6c27.83 22 39.59 55.88 26.24 75.85s-47 18.49-75.1-3.5a95.88 95.88 0 0 1-15.8-15.63" style="fill:#282c44"/>
      <path d="M194.93 745.17a128.41 128.41 0 0 0 4.84 13.92c24.71 59.42 89 90.23 143.51 68.81S422 741 397.31 681.54a127.39 127.39 0 0 0-24.13-37.69l-113.59 44.6c27.83 22 39.59 55.88 26.24 75.85s-47 18.49-75.1-3.5a95.88 95.88 0 0 1-15.8-15.63Z" style="fill:none;stroke:#fff;stroke-width:4px"/>
      <path d="M337 657.13c0 61.73 65.81 111.77 147 111.77 74.15 0 135.45-41.75 145.52-96a72 72 0 0 1-6.08 12.38c-18.67 30.33-55.85 42-83 26s-34.12-53.48-15.45-83.81c.32-.52.65-1 1-1.52l-153.35-10.48.06-.46h-24.89A88.6 88.6 0 0 0 337 657.13" style="fill:#282c44"/>
      <path d="M337 657.13c0 61.73 65.81 111.77 147 111.77 74.15 0 135.45-41.75 145.52-96a72 72 0 0 1-6.08 12.38c-18.67 30.33-55.85 42-83 26s-34.12-53.48-15.45-83.81c.32-.52.65-1 1-1.52l-153.35-10.48.06-.46h-24.89A88.6 88.6 0 0 0 337 657.13Z" style="fill:none;stroke:#fff;stroke-width:4px"/>
    </g>
    <path style="fill:#282c44" d="M231.94 599.72h290.39v28H231.94z"/>
    <g style="clip-path:url(#a)">
      <path d="M136.88 626.63a101 101 0 0 0-.88 13.09c0 57.16 47.69 103.5 106.53 103.5s106.52-46.34 106.52-103.5a100.55 100.55 0 0 0-7.85-39H218.69C236 628 233.86 659.78 213.78 672s-50.72 0-68.28-27.28a77.91 77.91 0 0 1-8.62-18.06" style="fill:#282c44"/>
      <path d="M136.88 626.63a101 101 0 0 0-.88 13.09c0 57.16 47.69 103.5 106.53 103.5s106.52-46.34 106.52-103.5a100.55 100.55 0 0 0-7.85-39H218.69C236 628 233.86 659.78 213.78 672s-50.72 0-68.28-27.28a77.91 77.91 0 0 1-8.62-18.09Z" style="fill:none;stroke:#fff;stroke-width:4px"/>
    </g>
    <path style="fill:#fff" d="M205.5 583.72h322.11v30.48H205.5z"/>
    <path style="fill:#282c44" d="M227.5 456h295v27.5h-295zM227.5 566.5h295V594h-295z"/>
    <path transform="rotate(-66.5 394.85219507 359.92761995)" style="fill:#fff" d="M387.34 130.01h15v459.85h-15z"/>
    <path transform="rotate(-66.5 355.16661582 690.07939188)" style="fill:#fff" d="M347.66 460.15h15V920h-15z"/>
    <path d="M54 76.91h8.13v3.32c0 1.84.81 2.76 2.42 2.76S67 82.07 67 80.23V41.14h8.13v39.09q0 10.58-10.52 10.57T54 80.23ZM77.05 129.5q0 9.27-10.55 9.3T56 129.5v-25.78q0-9.28 10.52-9.28t10.55 9.28Zm-8.13-25.78a2.16 2.16 0 0 0-2.4-2.45 2.13 2.13 0 0 0-2.37 2.45v25.78a2.41 2.41 0 1 0 4.81 0ZM70.23 164.51 79.56 186h-8.69l-6.27-16v16h-8.13v-43h8.13v16l6.27-16h8.69ZM56.47 191h19.14v6.86h-11v11.21h9.47V216H64.6v11.21h11V234H56.47ZM56.47 239h10.66q9.87 0 9.87 9.3v6.35q0 5.84-5.32 7.57L79.46 282H70.6L65 263.51h-.4V282h-8.13Zm8.13 6.86v11.21h1a6.69 6.69 0 0 0 1.71-.13 2.18 2.18 0 0 0 1.54-2.29v-6.35a2.13 2.13 0 0 0-2.39-2.44ZM696 973.09h-8.13v-3.32c0-1.84-.81-2.76-2.42-2.76s-2.39.92-2.39 2.76v39.09h-8.13v-39.09q0-10.57 10.52-10.57T696 969.77ZM673 920.5q0-9.27 10.55-9.3t10.45 9.3v25.78q0 9.29-10.52 9.28T673 946.28Zm8.13 25.78a2.16 2.16 0 0 0 2.4 2.45 2.13 2.13 0 0 0 2.36-2.45V920.5a2.41 2.41 0 1 0-4.81 0ZM679.77 885.49 670.44 864h8.69l6.28 16v-16h8.13v43h-8.13v-16l-6.28 16h-8.69ZM693.54 859h-19.15v-6.86h11v-11.21h-9.48v-6.88h9.48v-11.21h-11V816h19.15ZM693.54 811h-10.67q-9.82 0-9.82-9.3v-6.35q0-5.83 5.32-7.57L670.54 768h8.86l5.6 18.49h.44V768h8.13Zm-8.13-6.86v-11.21h-1a6.69 6.69 0 0 0-1.71.13 2.18 2.18 0 0 0-1.54 2.29v6.35a2.13 2.13 0 0 0 2.39 2.44Z" style="fill:#282c44"/>
  </g>
</svg>
