<svg xmlns="http://www.w3.org/2000/svg" xmlns:xlink="http://www.w3.org/1999/xlink" viewBox="0 0 750 1050"><defs><style>.cls-1,.cls-4,.cls-7{fill:none;}.cls-2{fill:#fff;}.cls-3{fill:#a4203a;}.cls-4{stroke:#282c44;}.cls-5{fill:#282c44;}.cls-6{clip-path:url(#clip-path);}.cls-7{stroke:#fff;stroke-width:4px;}.cls-8{fill:#335b59;}.cls-9{fill:#8a9577;}</style><clipPath id="clip-path"><rect class="cls-1" x="-36.35" y="-36" width="822.71" height="1122"/></clipPath></defs><g id="Ebene_2" data-name="Ebene 2"><rect class="cls-2" width="750" height="1049.95" rx="44.82"/></g><g id="Ebene_1_Kopie_2" data-name="Ebene 1 Kopie 2"><path class="cls-3" d="M696.33,973.09H688.2v-3.32c0-1.84-.81-2.76-2.42-2.76s-2.39.92-2.39,2.76v39.09h-8.13V969.77q0-10.57,10.52-10.57t10.55,10.57Z"/><path class="cls-3" d="M673.31,920.5q0-9.27,10.54-9.3t10.53,9.3v25.78q0,9.29-10.53,9.28t-10.54-9.28Zm8.13,25.78a2.15,2.15,0,0,0,2.39,2.45h0a2.13,2.13,0,0,0,2.37-2.45V920.5a2.41,2.41,0,1,0-4.81,0Z"/><path class="cls-3" d="M680.12,885.49,670.79,864h8.69l6.28,16V864h8.13v43h-8.13V891l-6.28,16h-8.69Z"/><path class="cls-3" d="M693.89,859H674.75v-6.86h11V840.93h-9.47v-6.88h9.47V822.84h-11V816h19.14Z"/><path class="cls-3" d="M693.89,811H683.22q-9.81,0-9.81-9.3v-6.35q0-5.83,5.32-7.57L670.89,768h8.86l5.57,18.51h.44V768h8.13Zm-8.13-6.86V792.93h-1a6.69,6.69,0,0,0-1.71.13,2.18,2.18,0,0,0-1.53,2.29v6.35a2.13,2.13,0,0,0,2.39,2.44Z"/><path class="cls-3" d="M53.67,76.91H61.8v3.32c0,1.84.8,2.76,2.42,2.76s2.39-.92,2.39-2.76V41.14h8.13V80.23q0,10.58-10.52,10.57T53.67,80.23Z"/><path class="cls-3" d="M76.69,129.5q0,9.27-10.54,9.3t-10.53-9.3V103.72q0-9.28,10.53-9.28t10.54,9.28Zm-8.13-25.78a2.15,2.15,0,0,0-2.39-2.45h0a2.13,2.13,0,0,0-2.37,2.45V129.5a2.41,2.41,0,1,0,4.81,0Z"/><path class="cls-3" d="M69.88,164.51,79.21,186h-8.7l-6.27-16v16H56.11V143h8.13v16l6.27-16h8.7Z"/><path class="cls-3" d="M56.11,191H75.25v6.86h-11v11.21h9.47V216H64.24v11.21h11V234H56.11Z"/><path class="cls-3" d="M56.11,239H66.78q9.81,0,9.81,9.3v6.35q0,5.84-5.32,7.57L79.11,282H70.25l-5.57-18.51h-.44V282H56.11Zm8.13,6.86v11.21h1a6.69,6.69,0,0,0,1.71-.13,2.18,2.18,0,0,0,1.53-2.29V248.3a2.13,2.13,0,0,0-2.39-2.44Z"/><line class="cls-4" x1="35.65" y1="525" x2="713.65" y2="525"/><rect class="cls-5" x="227.6" y="449.99" width="295" height="17"/><rect class="cls-5" x="226.69" y="582.51" width="295" height="17"/><g class="cls-6"><path class="cls-3" d="M554.71,304.83a126.3,126.3,0,0,0-4.84-13.92c-24.7-59.42-89-90.23-143.51-68.81s-78.74,86.94-54,146.36a127.42,127.42,0,0,0,24.14,37.69l113.59-44.6c-27.83-22-39.59-55.88-26.25-75.85s47-18.49,75.11,3.5a95.81,95.81,0,0,1,15.79,15.63"/><path class="cls-7" d="M554.71,304.83a126.3,126.3,0,0,0-4.84-13.92c-24.7-59.42-89-90.23-143.51-68.81s-78.74,86.94-54,146.36a127.42,127.42,0,0,0,24.14,37.69l113.59-44.6c-27.83-22-39.59-55.88-26.25-75.85s47-18.49,75.11,3.5A95.81,95.81,0,0,1,554.71,304.83Z"/><path class="cls-8" d="M412.67,392.87c0-61.73-65.81-111.77-147-111.77-74.15,0-135.44,41.75-145.51,96a71.94,71.94,0,0,1,6.07-12.38c18.67-30.33,55.86-42,83.06-26s34.12,53.48,15.45,83.81c-.32.52-.66,1-1,1.52L377,434.53,377,435h24.89a88.72,88.72,0,0,0,10.83-42.12"/><path class="cls-7" d="M412.67,392.87c0-61.73-65.81-111.77-147-111.77-74.15,0-135.44,41.75-145.51,96a71.94,71.94,0,0,1,6.07-12.38c18.67-30.33,55.86-42,83.06-26s34.12,53.48,15.45,83.81c-.32.52-.66,1-1,1.52L377,434.53,377,435h24.89A88.72,88.72,0,0,0,412.67,392.87Z"/></g><rect class="cls-8" x="227.32" y="422.28" width="290.39" height="28"/><g class="cls-6"><path class="cls-9" d="M612.77,423.37a101,101,0,0,0,.87-13.09c0-57.16-47.69-103.5-106.52-103.5s-106.53,46.34-106.53,103.5a100.73,100.73,0,0,0,7.85,39H531c-17.32-27.23-15.16-59.06,4.91-71.25s50.73,0,68.29,27.28a78.32,78.32,0,0,1,8.62,18.06"/><path class="cls-7" d="M612.77,423.37a101,101,0,0,0,.87-13.09c0-57.16-47.69-103.5-106.52-103.5s-106.53,46.34-106.53,103.5a100.73,100.73,0,0,0,7.85,39H531c-17.32-27.23-15.16-59.06,4.91-71.25s50.73,0,68.29,27.28A78.32,78.32,0,0,1,612.77,423.37Z"/></g><rect class="cls-2" x="222.04" y="435.8" width="322.11" height="30.48"/><g class="cls-6"><path class="cls-3" d="M194.58,744.67a126.3,126.3,0,0,0,4.84,13.92c24.71,59.42,89,90.23,143.51,68.81S421.67,740.46,397,681a127.59,127.59,0,0,0-24.13-37.69L259.23,688c27.84,22,39.59,55.88,26.25,75.85s-47,18.49-75.11-3.5a95.81,95.81,0,0,1-15.79-15.63"/><path class="cls-7" d="M194.58,744.67a126.3,126.3,0,0,0,4.84,13.92c24.71,59.42,89,90.23,143.51,68.81S421.67,740.46,397,681a127.59,127.59,0,0,0-24.13-37.69L259.23,688c27.84,22,39.59,55.88,26.25,75.85s-47,18.49-75.11-3.5A95.81,95.81,0,0,1,194.58,744.67Z"/><path class="cls-8" d="M336.62,656.63c0,61.73,65.81,111.77,147,111.77,74.15,0,135.44-41.75,145.52-96a72.74,72.74,0,0,1-6.08,12.38c-18.67,30.33-55.86,42-83.06,26S505.89,657.31,524.56,627c.31-.52.65-1,1-1.52L372.28,615l.07-.46h-24.9a88.72,88.72,0,0,0-10.83,42.12"/><path class="cls-7" d="M336.62,656.63c0,61.73,65.81,111.77,147,111.77,74.15,0,135.44-41.75,145.52-96a72.74,72.74,0,0,1-6.08,12.38c-18.67,30.33-55.86,42-83.06,26S505.89,657.31,524.56,627c.31-.52.65-1,1-1.52L372.28,615l.07-.46h-24.9A88.72,88.72,0,0,0,336.62,656.63Z"/></g><rect class="cls-8" x="231.59" y="599.22" width="290.39" height="28"/><g class="cls-6"><path class="cls-9" d="M136.53,626.13a99.23,99.23,0,0,0-.89,13.09c0,57.16,47.7,103.5,106.53,103.5S348.7,696.38,348.7,639.22a100.55,100.55,0,0,0-7.85-39H218.34c17.32,27.23,15.16,59.06-4.91,71.25s-50.73,0-68.29-27.28a77.87,77.87,0,0,1-8.61-18.06"/><path class="cls-7" d="M136.53,626.13a99.23,99.23,0,0,0-.89,13.09c0,57.16,47.7,103.5,106.53,103.5S348.7,696.38,348.7,639.22a100.55,100.55,0,0,0-7.85-39H218.34c17.32,27.23,15.16,59.06-4.91,71.25s-50.73,0-68.29-27.28A77.87,77.87,0,0,1,136.53,626.13Z"/></g><rect class="cls-2" x="205.15" y="583.22" width="322.11" height="30.48"/><rect class="cls-5" x="227.15" y="456" width="295" height="27.5"/><rect class="cls-5" x="227.15" y="566" width="295" height="27.5"/><rect class="cls-2" x="386.99" y="130.01" width="15" height="459.85" transform="translate(-92.88 578.19) rotate(-66.5)"/><rect class="cls-2" x="347.3" y="459.65" width="15" height="459.85" transform="translate(-419.05 739.99) rotate(-66.5)"/></g></svg>