<svg xmlns="http://www.w3.org/2000/svg" xmlns:xlink="http://www.w3.org/1999/xlink" viewBox="0 0 750 1050"><defs><style>.cls-1,.cls-3,.cls-6,.cls-8{fill:none;}.cls-2{fill:#fff;}.cls-3{stroke:#282c44;}.cls-4{fill:#282c44;}.cls-5{clip-path:url(#clip-path);}.cls-6,.cls-8{stroke:#fff;}.cls-6{stroke-width:7px;}.cls-7{fill:#181716;}.cls-8{stroke-width:5px;}</style><clipPath id="clip-path"><rect class="cls-1" x="-36" y="-36" width="822" height="1122"/></clipPath></defs><g id="Ebene_2" data-name="Ebene 2"><rect class="cls-2" width="750" height="1049.95" rx="44.82"/></g><g id="Ebene_1_Kopie_2" data-name="Ebene 1 Kopie 2"><line class="cls-3" x1="36" y1="525" x2="714" y2="525"/><path class="cls-4" d="M697.61,929H682.16v-6.31c0-3.5-1.53-5.24-4.59-5.24s-4.55,1.74-4.55,5.24V996.9H657.58V922.64q0-20.08,20-20.09t20,20.09Z"/><polygon class="cls-4" points="92.42 94.86 92.42 53.1 76.98 53.1 76.98 99 92.42 94.86"/><path class="cls-4" d="M77,109.36v18c0,3.5-1.52,5.24-4.55,5.24s-4.59-1.74-4.59-5.24v-6.31H52.39v6.31q0,20,20,20.09t20-20.09V105.22Z"/><rect class="cls-2" x="597.66" y="943.02" width="134.33" height="10" transform="translate(-222.7 204.36) rotate(-15)"/><g class="cls-5"><path class="cls-4" d="M97.68,194.43,79.87,204.65h0l17.79-10.22-20.79-31.3V163l-20.8,31.3h0A10.91,10.91,0,0,0,59.87,210a13.34,13.34,0,0,0,12.47.32L68.13,226H85.61l-4.17-15.5a13.49,13.49,0,0,0,12.43-.38,10.91,10.91,0,0,0,3.81-15.69"/><path class="cls-4" d="M652.32,855.57l17.81-10.22h0l-17.79,10.22,20.79,31.3V887l20.8-31.3h0A10.91,10.91,0,0,0,690.13,840a13.34,13.34,0,0,0-12.47-.32L681.87,824H664.39l4.17,15.5a13.49,13.49,0,0,0-12.43.38,10.91,10.91,0,0,0-3.81,15.69"/></g><rect class="cls-4" x="227.5" y="456" width="295" height="27.5"/><rect class="cls-4" x="227.5" y="566.5" width="295" height="27.5"/><g class="cls-5"><path class="cls-4" d="M227.5,436h295C522.5,311.74,375,211,375,211S227.5,311.74,227.5,436"/><path class="cls-4" d="M522.5,614h-295C227.5,738.26,375,839,375,839S522.5,738.26,522.5,614"/><path class="cls-6" d="M266,440.21H487.5v-3.5c0-128.43-109-234-110.08-235.06L375,199.34l-2.42,2.31c-1.1,1-110.08,106.63-110.08,235.06v3.5Z"/><path class="cls-6" d="M484,609.79H262.5v3.5c0,128.43,109,234,110.08,235.06l2.42,2.31,2.42-2.31c1.1-1.05,110.08-106.63,110.08-235.06v-3.5Z"/><path class="cls-6" d="M328.37,440.21h96.75v-3.5c0-123.88-46.47-226-46.94-227L375,202.85l-3.18,6.88c-.47,1-46.95,103.1-46.95,227v3.5Z"/><path class="cls-6" d="M421.63,609.79H324.88v3.5c0,123.88,46.47,226,46.94,227l3.18,6.88,3.18-6.88c.47-1,46.95-103.1,46.95-227v-3.5Z"/><path class="cls-7" d="M375,174.09l-19.71,49.84s6.53,5.75,19.71,5.75,19.71-5.75,19.71-5.75Z"/><path class="cls-8" d="M375,174.09l-19.71,49.84s6.53,5.75,19.71,5.75,19.71-5.75,19.71-5.75Z"/><path class="cls-7" d="M375,875.91l19.71-49.83s-6.53-5.76-19.71-5.76-19.71,5.76-19.71,5.76Z"/><path class="cls-8" d="M375,875.91l19.71-49.83s-6.53-5.76-19.71-5.76-19.71,5.76-19.71,5.76Z"/></g><rect class="cls-2" x="150.09" y="311.61" width="404.45" height="15" transform="translate(-47.84 62.54) rotate(-9.5)"/><rect class="cls-2" x="195.46" y="723.39" width="404.45" height="15" transform="translate(-115.19 75.67) rotate(-9.5)"/></g></svg>