<svg xmlns="http://www.w3.org/2000/svg" viewBox="0 0 750 1050">
  <defs>
    <clipPath id="a">
      <path style="fill:none" d="M-36-36h822v1122H-36z"/>
    </clipPath>
  </defs>
  <rect width="750" height="1049.95" rx="44.82" style="fill:#fff" data-name="Ebene 2"/>
  <g data-name="Ebene 1 Kopie 2">
    <path style="fill:none;stroke:#282c44" d="M36 525h678"/>
    <path d="M697.61 929h-15.45v-6.31c0-3.5-1.53-5.24-4.59-5.24s-4.55 1.74-4.55 5.24v74.21h-15.44v-74.26q0-20.08 20-20.09t20 20.09ZM92.42 94.86V53.1H76.98V99l15.44-4.14zM77 109.36v18c0 3.5-1.52 5.24-4.55 5.24s-4.59-1.74-4.59-5.24v-6.31H52.39v6.31q0 20 20 20.09t20-20.09v-22.14Z" style="fill:#282c44"/>
    <path transform="rotate(-15 664.78415524 947.96722045)" style="fill:#fff" d="M597.66 943.02h134.33v10H597.66z"/>
    <g style="clip-path:url(#a)">
      <path d="m97.68 194.43-17.81 10.22 17.79-10.22-20.79-31.3V163l-20.8 31.3a10.91 10.91 0 0 0 3.8 15.7 13.34 13.34 0 0 0 12.47.32L68.13 226h17.48l-4.17-15.5a13.49 13.49 0 0 0 12.43-.38 10.91 10.91 0 0 0 3.81-15.69M652.32 855.57l17.81-10.22-17.79 10.22 20.79 31.3v.13l20.8-31.3a10.91 10.91 0 0 0-3.8-15.7 13.34 13.34 0 0 0-12.47-.32l4.21-15.68h-17.48l4.17 15.5a13.49 13.49 0 0 0-12.43.38 10.91 10.91 0 0 0-3.81 15.69" style="fill:#282c44"/>
    </g>
    <path style="fill:#282c44" d="M227.5 456h295v27.5h-295zM227.5 566.5h295V594h-295z"/>
    <g style="clip-path:url(#a)">
      <path d="M227.5 436h295c0-124.26-147.5-225-147.5-225S227.5 311.74 227.5 436M522.5 614h-295c0 124.26 147.5 225 147.5 225s147.5-100.74 147.5-225" style="fill:#282c44"/>
      <path d="M266 440.21h221.5v-3.5c0-128.43-109-234-110.08-235.06l-2.42-2.31-2.42 2.31c-1.1 1-110.08 106.63-110.08 235.06v3.5ZM484 609.79H262.5v3.5c0 128.43 109 234 110.08 235.06l2.42 2.31 2.42-2.31c1.1-1.05 110.08-106.63 110.08-235.06v-3.5Z" style="fill:none;stroke:#fff;stroke-width:7px"/>
      <path d="M328.37 440.21h96.75v-3.5c0-123.88-46.47-226-46.94-227l-3.18-6.86-3.18 6.88c-.47 1-46.95 103.1-46.95 227v3.5ZM421.63 609.79h-96.75v3.5c0 123.88 46.47 226 46.94 227l3.18 6.88 3.18-6.88c.47-1 46.95-103.1 46.95-227v-3.5Z" style="fill:none;stroke:#fff;stroke-width:7px"/>
      <path d="m375 174.09-19.71 49.84s6.53 5.75 19.71 5.75 19.71-5.75 19.71-5.75Z" style="fill:#181716"/>
      <path d="m375 174.09-19.71 49.84s6.53 5.75 19.71 5.75 19.71-5.75 19.71-5.75Z" style="fill:none;stroke:#fff;stroke-width:5px"/>
      <path d="m375 875.91 19.71-49.83s-6.53-5.76-19.71-5.76-19.71 5.76-19.71 5.76Z" style="fill:#181716"/>
      <path d="m375 875.91 19.71-49.83s-6.53-5.76-19.71-5.76-19.71 5.76-19.71 5.76Z" style="fill:none;stroke:#fff;stroke-width:5px"/>
    </g>
    <path transform="rotate(-9.5 352.40263998 319.13816592)" style="fill:#fff" d="M150.09 311.61h404.45v15H150.09z"/>
    <path transform="rotate(-9.5 397.73493552 730.96907258)" style="fill:#fff" d="M195.46 723.39h404.45v15H195.46z"/>
  </g>
</svg>
