<?xml version="1.0" encoding="UTF-8"?><svg xmlns="http://www.w3.org/2000/svg" viewBox="0 0 750 1050"><g id="uuid-4365b4b5-24f7-4914-b142-a5cb12fcdf48"><rect width="750" height="1049.95" rx="44.82" ry="44.82" style="fill:#fff;"/></g><g id="uuid-b6ca44f1-052b-479d-9da3-d2b9dd1f338a"><g><rect x="183.25" y="685.95" width="383.5" height="35.75" style="fill:#282c44;"/><path d="M312.57,419.06c-27,25.45-58.03,59.15-82.94,98.44l28.65-4.8c16.18-36.22,35.97-68.05,54.29-93.64Z" style="fill:#282c44;"/><path d="M269.04,510.9l54.25-9.09c10.47-47.68,23.31-86.27,32.32-110.37-.03-.01-.07-.03-.09-.04-2.25-.91-4.34-1.98-6.19-3.17l-.57-.38c-.12-.08-.22-.16-.31-.21-12.82,15.21-28.85,35.87-44.85,60.74-12,18.64-23.97,39.65-34.55,62.52Z" style="fill:#282c44;"/><path d="M385.06,394.11c-3.2,.57-6.58,.87-10.06,.87s-6.86-.3-10.06-.87l-.58-.1c-8.66,23.11-21.1,60.2-31.41,106.2l80.95-13.55c-9.59-39.73-20.46-71.85-28.26-92.65l-.57,.1Z" style="fill:#282c44;"/><path d="M394.38,391.44c7.93,21.23,18.84,53.69,28.5,93.7l41.42-6.93c-21.35-38.38-45.11-69.64-62.75-90.57-.08,.05-.17,.12-.26,.18l-.57,.38c-1.27,.83-3.37,2.04-6.27,3.21-.03,.01-.04,.01-.06,.03Z" style="fill:#282c44;"/><path d="M488.92,474.1c-17.15-21.02-35.07-39.57-51.51-55.05,11.96,16.7,24.54,36.08,36.35,57.59l15.16-2.54Z" style="fill:#282c44;"/><path d="M249.42,533.95l-32.68,5.47c-19.92,36.75-33.49,77.56-33.49,120.52h40.95c.14-44.82,10.32-87.49,25.22-126Z" style="fill:#282c44;"/><path d="M233.3,659.95h71.99c.07-49.57,5.82-96.45,13.78-137.66l-59.24,9.92c-15.59,38.86-26.39,82.17-26.53,127.74Z" style="fill:#282c44;"/><path d="M418.25,505.7l-89.61,14.99c-8.19,41.5-14.17,88.97-14.25,139.26h121.21c-.08-56.43-7.62-109.36-17.36-154.25Z" style="fill:#282c44;"/><path d="M516.7,659.95c-.19-60.12-18.95-116.35-42.77-163.57l-46.71,7.81c9.82,45.37,17.41,98.81,17.49,155.75h71.99Z" style="fill:#282c44;"/><path d="M525.8,659.95h40.95c0-62.67-28.87-120.74-64.21-168.35l-19.28,3.22c23.78,47.79,42.34,104.48,42.54,165.13Z" style="fill:#282c44;"/><path d="M357.91,385.36s.04,.01,.05,.03c2.48,1.01,5.23,1.79,8.14,2.31l.62,.1,.56,.1c4.94,.77,10.57,.77,15.5-.01l.51-.09,.64-.1c2.85-.51,5.58-1.27,8.09-2.3,.03-.01,.05-.03,.08-.03,1.75-.73,3.13-1.44,4.12-2.03,.16-.09,.31-.18,.46-.27l-.85-2.13-9.39-23.74-11.43-28.9-11.43,28.9-9.4,23.76-.83,2.11c.14,.09,.3,.18,.45,.27,1,.6,2.38,1.33,4.11,2.02Z" style="fill:#282c44;"/><path d="M401.51,387.6s.03,.04,.04,.05c.01,0,.01-.01,.01-.01-.01-.01-.04-.03-.05-.04Z" style="fill:#282c44;"/></g><g><polygon points="104.43 107.69 104.43 53.1 84.35 53.1 84.35 113.07 104.43 107.69" style="fill:#282c44;"/><path d="M84.35,126.53v23.11c0,4.54-1.97,6.81-5.91,6.81s-5.97-2.27-5.97-6.81v-8.2h-20.08v8.2c0,17.37,8.68,26.07,26.05,26.11,17.33,0,25.99-8.7,25.99-26.11v-28.49l-20.08,5.38Z" style="fill:#282c44;"/></g><path d="M110.02,242.67l-23.15,13.29h0s23.13-13.29,23.13-13.29l-27.04-40.69v-.17l-27.04,40.69h.01c-4.66,7.03-2.45,16.16,4.94,20.4,5.02,2.88,11.19,2.89,16.21,.41l-5.48,20.4h22.72l-5.41-20.15c4.99,2.4,11.2,2.36,16.16-.49,7.39-4.25,9.62-13.38,4.95-20.4" style="fill:#282c44;"/><path d="M110.02,242.67l-23.15,13.29h0s23.13-13.29,23.13-13.29l-27.04-40.69v-.17l-27.04,40.69h.01c-4.66,7.03-2.45,16.16,4.94,20.4,5.02,2.88,11.19,2.89,16.21,.41l-5.48,20.4h22.72l-5.41-20.15c4.99,2.4,11.2,2.36,16.16-.49,7.39-4.25,9.62-13.38,4.95-20.4" style="fill:#282c44;"/><g><polygon points="645.57 942.31 645.57 996.9 665.65 996.9 665.65 936.93 645.57 942.31" style="fill:#282c44;"/><path d="M665.65,923.47v-23.11c0-4.54,1.97-6.81,5.91-6.81s5.97,2.27,5.97,6.81v8.2h20.08v-8.2c0-17.37-8.68-26.07-26.05-26.11-17.33,0-25.99,8.7-25.99,26.11v28.49l20.08-5.38Z" style="fill:#282c44;"/></g><path d="M639.98,807.33l23.15-13.29h0s-23.13,13.29-23.13,13.29l27.04,40.69v.17l27.04-40.69h-.01c4.66-7.03,2.45-16.16-4.94-20.4-5.02-2.88-11.19-2.89-16.21-.41l5.48-20.4h-22.72l5.41,20.15c-4.99-2.4-11.2-2.36-16.16,.49-7.39,4.25-9.62,13.38-4.95,20.4" style="fill:#282c44;"/></g></svg>