<svg xmlns="http://www.w3.org/2000/svg" viewBox="0 0 750 1050">
  <defs>
    <clipPath id="clip-path">
      <path style="fill:none" d="M-36-36h822v1122H-36z"/>
    </clipPath>
    <style>
      .cls-6,.cls-8{fill:none}.cls-2{fill:#fff}.cls-4{fill:#282c44}.cls-5{clip-path:url(#clip-path)}.cls-6,.cls-8{stroke:#fff}.cls-6{stroke-width:7px}.cls-7{fill:#181716}.cls-8{stroke-width:5px}
    </style>
  </defs>
  <rect class="cls-2" width="750" height="1049.95" rx="44.82" id="Ebene_2" data-name="Ebene 2"/>
  <g id="Ebene_1_Kopie_2" data-name="Ebene 1 Kopie 2">
    <path style="stroke:#282c44;fill:none" d="M36 525h678"/>
    <path class="cls-4" d="M697.61 929h-15.45v-6.31c0-3.5-1.53-5.24-4.59-5.24s-4.55 1.74-4.55 5.24v74.21h-15.44v-74.26q0-20.08 20-20.09t20 20.09ZM92.42 94.86V53.1H76.98V99l15.44-4.14zM77 109.36v18c0 3.5-1.52 5.24-4.55 5.24s-4.59-1.74-4.59-5.24v-6.31H52.39v6.31q0 20 20 20.09t20-20.09v-22.14Z"/>
    <path class="cls-2" transform="rotate(-15 664.78415524 947.96722045)" d="M597.66 943.02h134.33v10H597.66z"/>
    <g class="cls-5">
      <path class="cls-4" d="m97.68 194.43-17.81 10.22 17.79-10.22-20.79-31.3V163l-20.8 31.3a10.91 10.91 0 0 0 3.8 15.7 13.34 13.34 0 0 0 12.47.32L68.13 226h17.48l-4.17-15.5a13.49 13.49 0 0 0 12.43-.38 10.91 10.91 0 0 0 3.81-15.69m554.64 661.14 17.81-10.22-17.79 10.22 20.79 31.3v.13l20.8-31.3a10.91 10.91 0 0 0-3.8-15.7 13.34 13.34 0 0 0-12.47-.32l4.21-15.68h-17.48l4.17 15.5a13.49 13.49 0 0 0-12.43.38 10.91 10.91 0 0 0-3.81 15.69"/>
    </g>
    <path class="cls-4" d="M227.5 456h295v27.5h-295zm0 110.5h295V594h-295z"/>
    <g class="cls-5">
      <path class="cls-4" d="M227.5 436h295c0-124.26-147.5-225-147.5-225S227.5 311.74 227.5 436m295 178h-295c0 124.26 147.5 225 147.5 225s147.5-100.74 147.5-225"/>
      <path class="cls-6" d="M266 440.21h221.5v-3.5c0-128.43-109-234-110.08-235.06l-2.42-2.31-2.42 2.31c-1.1 1-110.08 106.63-110.08 235.06v3.5Zm218 169.58H262.5v3.5c0 128.43 109 234 110.08 235.06l2.42 2.31 2.42-2.31c1.1-1.05 110.08-106.63 110.08-235.06v-3.5Z"/>
      <path class="cls-6" d="M328.37 440.21h96.75v-3.5c0-123.88-46.47-226-46.94-227l-3.18-6.86-3.18 6.88c-.47 1-46.95 103.1-46.95 227v3.5Zm93.26 169.58h-96.75v3.5c0 123.88 46.47 226 46.94 227l3.18 6.88 3.18-6.88c.47-1 46.95-103.1 46.95-227v-3.5Z"/>
      <path class="cls-7" d="m375 174.09-19.71 49.84s6.53 5.75 19.71 5.75 19.71-5.75 19.71-5.75Z"/>
      <path class="cls-8" d="m375 174.09-19.71 49.84s6.53 5.75 19.71 5.75 19.71-5.75 19.71-5.75Z"/>
      <path class="cls-7" d="m375 875.91 19.71-49.83s-6.53-5.76-19.71-5.76-19.71 5.76-19.71 5.76Z"/>
      <path class="cls-8" d="m375 875.91 19.71-49.83s-6.53-5.76-19.71-5.76-19.71 5.76-19.71 5.76Z"/>
    </g>
    <path class="cls-2" transform="rotate(-9.5 352.40263998 319.13816592)" d="M150.09 311.61h404.45v15H150.09z"/>
    <path class="cls-2" transform="rotate(-9.5 397.73493552 730.96907258)" d="M195.46 723.39h404.45v15H195.46z"/>
  </g>
</svg>
