<?xml version="1.0" encoding="UTF-8"?><svg xmlns="http://www.w3.org/2000/svg" viewBox="0 0 750 1050"><g id="uuid-45160d85-2cbe-458a-a8e8-8b9542b46048"><rect width="750" height="1049.95" rx="44.82" ry="44.82" style="fill:#fff;"/></g><g id="uuid-d62627b4-556a-455a-af39-09da9bcc9786"><g><path d="M411.98,680.3H182.61v-35.24c-14.9-20.25-23.7-45.27-23.7-72.33,0-30.52,11.19-58.43,29.69-79.86l223.38,187.43Z" style="fill:#282c44;"/><path d="M591.09,572.72c0,27.83-9.31,53.51-24.99,74.05v33.53h-123.8l-42.6-35.75-12.75-10.7-36.4-30.55-147.99-124.18c21.24-17.86,48.63-28.6,78.55-28.6,37.74,0,71.49,17.11,93.9,43.99,22.4-26.88,56.15-43.99,93.89-43.99,67.5,0,122.2,54.72,122.2,122.2Z" style="fill:#282c44;"/><polygon points="443.41 706.68 486.01 742.43 182.4 742.43 182.4 706.68 443.41 706.68" style="fill:#282c44;"/><polygon points="565.9 706.68 565.9 742.43 516.34 742.43 473.74 706.68 565.9 706.68" style="fill:#282c44;"/><path d="M449.25,382c0-4.61-3.63-8.34-8.11-8.36h0s-57.77,0-57.77,0v-57.7h-.01c0-.07,.01-.14,.01-.21,0-4.5-3.74-8.15-8.36-8.15s-8.36,3.65-8.36,8.15c0,.07,0,.14,.01,.21h-.01v57.7h-57.52c-.07,.01-.14,0-.21,0-4.5,0-8.15,3.74-8.15,8.36s3.65,8.36,8.15,8.36c.07,0,.14,0,.21-.01h0s57.52,.01,57.52,.01v57.6h0c.02,4.48,3.75,8.11,8.36,8.11s8.34-3.63,8.36-8.11h0v-57.6h57.77c4.49-.02,8.11-3.76,8.11-8.36Z" style="fill:#282c44;"/></g><g><polygon points="58.17 133.75 58.17 174.09 78.25 174.09 78.25 128.37 58.17 133.75" style="fill:#282c44;"/><polygon points="93.26 110.89 115.21 53.37 93.75 53.37 78.25 101.31 78.25 53.37 58.17 53.37 58.17 120.29 93.26 110.89" style="fill:#282c44;"/><polygon points="78.96 128.18 93.75 174.09 115.21 174.09 95.96 123.62 78.96 128.18" style="fill:#282c44;"/></g><path d="M101.85,229.36c-3.12-.04-6.2,.85-8.91,2.4l-.29-.42c4.73-2.94,7.92-8.24,7.98-14.33,.1-9.37-7.22-17.05-16.35-17.16-9.14-.11-17.21,7.64-17.31,17.02-.07,6.09,3.25,11.36,8.08,14.34l-.22,.33c-2.44-1.35-5.2-2.13-8.08-2.17-9.14-.11-17.21,7.64-17.31,17.02-.1,9.37,7.8,16.81,16.93,16.92,4.61,.05,8.98-1.84,12.2-4.92l-6.28,23.38h23.11l-6.32-23.53c3.29,3.1,7.78,5.03,12.39,5.08,9.13,.11,16.62-7.4,16.73-16.78,.1-9.37-7.22-17.05-16.35-17.16" style="fill:#282c44;"/></g></svg>