<svg xmlns="http://www.w3.org/2000/svg" xmlns:xlink="http://www.w3.org/1999/xlink" viewBox="0 0 750 1050"><defs><style>.cls-1,.cls-5{fill:none;}.cls-2{fill:#fff;}.cls-3{clip-path:url(#clip-path);}.cls-4{fill:#282c44;}.cls-5{stroke:#282c44;}</style><clipPath id="clip-path"><rect class="cls-1" x="-36" y="-36" width="822" height="1122"/></clipPath></defs><g id="Ebene_2" data-name="Ebene 2"><rect class="cls-2" width="750" height="1049.95" rx="44.82"/></g><g id="Ebene_1_Kopie_2" data-name="Ebene 1 Kopie 2"><g class="cls-3"><path class="cls-4" d="M90.75,185.7a13.6,13.6,0,0,0-6.86,1.84l-.22-.32a13.1,13.1,0,0,0,6.14-11A12.9,12.9,0,0,0,77.24,163a13.43,13.43,0,0,0-13.32,13.09,12.84,12.84,0,0,0,6.21,11l-.17.25a13.16,13.16,0,0,0-6.21-1.67,13.43,13.43,0,0,0-13.32,13.09,13.13,13.13,0,0,0,13,13A13.42,13.42,0,0,0,72.84,208L68,226H85.79l-4.86-18.1a14.39,14.39,0,0,0,9.53,3.91,13.06,13.06,0,0,0,.29-26.11"/><path class="cls-4" d="M659.25,864.3a13.6,13.6,0,0,0,6.86-1.84l.22.32a13.1,13.1,0,0,0-6.14,11A12.9,12.9,0,0,0,672.76,887a13.43,13.43,0,0,0,13.32-13.09,12.84,12.84,0,0,0-6.21-11l.17-.25a13.16,13.16,0,0,0,6.21,1.67,13.43,13.43,0,0,0,13.32-13.09,13.13,13.13,0,0,0-13-13,13.42,13.42,0,0,0-9.38,3.79L682,824H664.21l4.86,18.1a14.39,14.39,0,0,0-9.53-3.91,13.06,13.06,0,0,0-.29,26.11"/></g><line class="cls-5" x1="36" y1="525" x2="714" y2="525"/><polygon class="cls-4" points="72.95 110.43 84.4 145.96 100.91 145.96 86.02 106.93 72.95 110.43"/><polygon class="cls-4" points="84.13 97.09 100.91 53.1 84.4 53.1 72.48 89.97 72.48 53.1 57.03 53.1 57.03 104.35 84.13 97.09"/><polygon class="cls-4" points="57.03 114.7 57.03 145.96 72.48 145.96 72.48 110.56 57.03 114.7"/><polygon class="cls-4" points="692.97 935.3 692.97 904.04 677.52 904.04 677.52 939.44 692.97 935.3"/><polygon class="cls-4" points="665.88 952.91 649.09 996.9 665.6 996.9 677.52 960.02 677.52 996.9 692.97 996.9 692.97 945.65 665.88 952.91"/><polygon class="cls-4" points="677.04 939.57 665.6 904.04 649.09 904.04 663.98 943.07 677.04 939.57"/><g class="cls-3"><path class="cls-4" d="M303.43,447a94,94,0,1,0-94-94,94,94,0,0,0,94,94"/><path class="cls-4" d="M446.57,603a94,94,0,1,0,94,94,94,94,0,0,0-94-94"/><path class="cls-4" d="M447.88,447a94,94,0,1,0-94-94,94,94,0,0,0,94,94"/><path class="cls-4" d="M302.12,603a94,94,0,1,0,94,94,94,94,0,0,0-94-94"/></g><rect class="cls-4" x="227.5" y="456" width="295" height="27.5"/><rect class="cls-4" x="227.5" y="566.5" width="295" height="27.5"/><g class="cls-3"><path class="cls-4" d="M374.34,786.77a6.27,6.27,0,1,0,6.44,6.27,6.35,6.35,0,0,0-6.44-6.27"/><path class="cls-4" d="M374.34,888.46a6.27,6.27,0,1,0,6.44,6.27,6.35,6.35,0,0,0-6.44-6.27"/></g><rect class="cls-4" x="367.91" y="793.01" width="12.87" height="101.55"/><g class="cls-3"><path class="cls-4" d="M375.66,263.23a6.27,6.27,0,1,0-6.44-6.27,6.35,6.35,0,0,0,6.44,6.27"/><path class="cls-4" d="M375.66,161.54a6.27,6.27,0,1,0-6.44-6.27,6.35,6.35,0,0,0,6.44,6.27"/></g><rect class="cls-4" x="369.22" y="155.43" width="12.87" height="101.55"/><g class="cls-3"><path class="cls-4" d="M432.77,206.25a6.27,6.27,0,1,0-6.27,6.43,6.35,6.35,0,0,0,6.27-6.43"/><path class="cls-4" d="M331.08,206.25a6.27,6.27,0,1,0-6.27,6.43,6.35,6.35,0,0,0,6.27-6.43"/></g><rect class="cls-4" x="324.98" y="199.81" width="101.55" height="12.87"/><g class="cls-3"><path class="cls-4" d="M317.23,843.75a6.27,6.27,0,1,0,6.27-6.43,6.35,6.35,0,0,0-6.27,6.43"/><path class="cls-4" d="M418.92,843.75a6.27,6.27,0,1,0,6.27-6.43,6.35,6.35,0,0,0-6.27,6.43"/></g><rect class="cls-4" x="323.47" y="837.32" width="101.55" height="12.87"/><rect class="cls-2" x="227.66" y="435.71" width="295" height="14"/><rect class="cls-2" x="227.34" y="600.29" width="295" height="14"/><rect class="cls-4" x="227.66" y="408.21" width="295" height="27.5"/><rect class="cls-4" x="227.34" y="614.29" width="295" height="27.5"/><rect class="cls-2" x="314.79" y="141.27" width="15" height="432" transform="translate(-158.56 374.51) rotate(-50)"/><rect class="cls-2" x="420.21" y="476.73" width="15" height="432" transform="translate(-377.88 575.1) rotate(-50)"/></g></svg>