<svg xmlns="http://www.w3.org/2000/svg" viewBox="0 0 750 1050">
  <defs>
    <clipPath id="clip-path">
      <path style="fill:none" d="M-36-36h822v1122H-36z"/>
    </clipPath>
    <style>
      .cls-2{fill:#fff}.cls-3{clip-path:url(#clip-path)}.cls-4{fill:#282c44}
    </style>
  </defs>
  <rect class="cls-2" width="750" height="1049.95" rx="44.82" id="Ebene_2" data-name="Ebene 2"/>
  <g id="Ebene_1_Kopie_2" data-name="Ebene 1 Kopie 2">
    <g class="cls-3">
      <path class="cls-4" d="M90.75 185.7a13.6 13.6 0 0 0-6.86 1.84l-.22-.32a13.1 13.1 0 0 0 6.14-11A12.9 12.9 0 0 0 77.24 163a13.43 13.43 0 0 0-13.32 13.09 12.84 12.84 0 0 0 6.21 11l-.17.25a13.16 13.16 0 0 0-6.21-1.67 13.43 13.43 0 0 0-13.32 13.09 13.13 13.13 0 0 0 13 13 13.42 13.42 0 0 0 9.41-3.76L68 226h17.79l-4.86-18.1a14.39 14.39 0 0 0 9.53 3.91 13.06 13.06 0 0 0 .29-26.11m568.5 678.6a13.6 13.6 0 0 0 6.86-1.84l.22.32a13.1 13.1 0 0 0-6.14 11A12.9 12.9 0 0 0 672.76 887a13.43 13.43 0 0 0 13.32-13.09 12.84 12.84 0 0 0-6.21-11l.17-.25a13.16 13.16 0 0 0 6.21 1.67 13.43 13.43 0 0 0 13.32-13.09 13.13 13.13 0 0 0-13-13 13.42 13.42 0 0 0-9.38 3.79L682 824h-17.79l4.86 18.1a14.39 14.39 0 0 0-9.53-3.91 13.06 13.06 0 0 0-.29 26.11"/>
    </g>
    <path style="stroke:#282c44;fill:none" d="M36 525h678"/>
    <path class="cls-4" d="m72.95 110.43 11.45 35.53h16.51l-14.89-39.03-13.07 3.5zm11.18-13.34 16.78-43.99H84.4L72.48 89.97V53.1H57.03v51.25l27.1-7.26zm-27.1 17.61v31.26h15.45v-35.4l-15.45 4.14zm635.94 820.6v-31.26h-15.45v35.4l15.45-4.14zm-27.09 17.61-16.79 43.99h16.51l11.92-36.88v36.88h15.45v-51.25l-27.09 7.26zm11.16-13.34-11.44-35.53h-16.51l14.89 39.03 13.06-3.5z"/>
    <g class="cls-3">
      <path class="cls-4" d="M303.43 447a94 94 0 1 0-94-94 94 94 0 0 0 94 94m143.14 156a94 94 0 1 0 94 94 94 94 0 0 0-94-94"/>
      <path class="cls-4" d="M447.88 447a94 94 0 1 0-94-94 94 94 0 0 0 94 94M302.12 603a94 94 0 1 0 94 94 94 94 0 0 0-94-94"/>
    </g>
    <path class="cls-4" d="M227.5 456h295v27.5h-295zm0 110.5h295V594h-295z"/>
    <g class="cls-3">
      <path class="cls-4" d="M374.34 786.77a6.27 6.27 0 1 0 6.44 6.27 6.35 6.35 0 0 0-6.44-6.27m0 101.69a6.27 6.27 0 1 0 6.44 6.27 6.35 6.35 0 0 0-6.44-6.27"/>
    </g>
    <path class="cls-4" d="M367.91 793.01h12.87v101.55h-12.87z"/>
    <g class="cls-3">
      <path class="cls-4" d="M375.66 263.23a6.27 6.27 0 1 0-6.44-6.27 6.35 6.35 0 0 0 6.44 6.27m0-101.69a6.27 6.27 0 1 0-6.44-6.27 6.35 6.35 0 0 0 6.44 6.27"/>
    </g>
    <path class="cls-4" d="M369.22 155.43h12.87v101.55h-12.87z"/>
    <g class="cls-3">
      <path class="cls-4" d="M432.77 206.25a6.27 6.27 0 1 0-6.27 6.43 6.35 6.35 0 0 0 6.27-6.43m-101.69 0a6.27 6.27 0 1 0-6.27 6.43 6.35 6.35 0 0 0 6.27-6.43"/>
    </g>
    <path class="cls-4" d="M324.98 199.81h101.55v12.87H324.98z"/>
    <g class="cls-3">
      <path class="cls-4" d="M317.23 843.75a6.27 6.27 0 1 0 6.27-6.43 6.35 6.35 0 0 0-6.27 6.43m101.69 0a6.27 6.27 0 1 0 6.27-6.43 6.35 6.35 0 0 0-6.27 6.43"/>
    </g>
    <path class="cls-4" d="M323.47 837.32h101.55v12.87H323.47z"/>
    <path class="cls-2" d="M227.66 435.71h295v14h-295zm-.32 164.58h295v14h-295z"/>
    <path class="cls-4" d="M227.66 408.21h295v27.5h-295zm-.32 206.08h295v27.5h-295z"/>
    <path class="cls-2" transform="rotate(-50 322.2896434 357.27150866)" d="M314.79 141.27h15v432h-15z"/>
    <path class="cls-2" transform="rotate(-50 427.712965 692.73313756)" d="M420.21 476.73h15v432h-15z"/>
  </g>
</svg>
