<svg xmlns="http://www.w3.org/2000/svg" viewBox="0 0 750 1050">
  <defs>
    <clipPath id="clip-path">
      <path style="fill:none" d="M-35.54-35.5h822V1086h-822z"/>
    </clipPath>
    <style>
      .cls-2{fill:#fff}.cls-4{fill:#a4203a}
    </style>
  </defs>
  <rect class="cls-2" width="750" height="1049.95" rx="44.82" id="Ebene_2" data-name="Ebene 2"/>
  <g id="Ebene_1_Kopie_2" data-name="Ebene 1 Kopie 2">
    <path style="stroke:#282c44;fill:none" d="M36.46 525.5h678"/>
    <path class="cls-4" d="M374.21 394.31h148.63v42.15H374.21z"/>
    <path class="cls-4" d="m410.12 353.23-35.91-83.24v166.47l35.91-83.23zm119.53-65.75-4.86 73.73-4.05 73.68-57.41-33.4-57.85-32.64 62.26-40.33 61.91-41.04z"/>
    <path class="cls-4" d="m434.56 280.87 20.58 60.92 21.13 60.56-51-4.37-51.06-3.6 30.42-56.54 29.93-56.97zM228.07 614.04H376.7v42.15H228.07z"/>
    <path class="cls-4" d="m340.8 697.27 35.9 83.24V614.04l-35.9 83.23zm-119.54 65.75 4.86-73.73 4.06-73.68 57.4 33.4 57.85 32.64-62.26 40.33-61.91 41.04z"/>
    <path class="cls-4" d="m316.36 769.63-20.59-60.92-21.13-60.56 51 4.37 51.06 3.6-30.41 56.54-29.93 56.97zm-88.18-375.32h146.04v42.15H228.18z"/>
    <path class="cls-4" d="m338.94 353.23 35.27-83.24v166.47l-35.27-83.23zm-117.45-65.75 4.77 73.73 3.99 73.68 56.4-33.4 56.84-32.64-61.18-40.33-60.82-41.04z"/>
    <path class="cls-4" d="m314.92 280.87-20.23 60.92-20.76 60.56 50.11-4.37 50.17-3.6-29.88-56.54-29.41-56.97zm61.78 333.17h146.04v42.15H376.7z"/>
    <path class="cls-4" d="m411.98 697.27-35.28 83.24V614.04l35.28 83.23zm117.45 65.75-4.77-73.73-3.99-73.68-56.41 33.4-56.83 32.64 61.17 40.33 60.83 41.04z"/>
    <path class="cls-4" d="m436 769.63 20.22-60.92 20.76-60.56-50.11 4.37-50.17 3.6 29.88 56.54L436 769.63zM227.96 456.5h295V484h-295zm0 110h295V594h-295z"/>
    <path class="cls-4" d="M373.07 235.21a23.38 23.38 0 1 0 23.14 23.37 23.25 23.25 0 0 0-23.14-23.37m4.77 580.08a23.38 23.38 0 1 0-23.13-23.37 23.25 23.25 0 0 0 23.13 23.37" style="clip-path:url(#clip-path)"/>
    <path class="cls-2" transform="rotate(-69.99 362.80930414 387.80220182)" d="M355.31 171.7h15v432.2h-15z"/>
    <path class="cls-2" transform="rotate(-69.99 388.0988422 662.69238032)" d="M380.6 446.6h15v432.2h-15z"/>
    <path class="cls-4" d="M77.34 163.5 55.22 195l22.12 31.5L99.46 195l-22.12-31.5zM673.58 887l22.12-31.5-22.12-31.5-22.12 31.5 22.12 31.5z"/>
    <path class="cls-2" d="m373.07 351.49-22.13 31.5 22.13 31.5 22.13-31.5-22.13-31.5zm4.77 347.52 22.14-31.5-22.14-31.5-22.13 31.5 22.13 31.5z"/>
    <path class="cls-4" d="M57.49 115.2v31.03h15.44v-35.17l-15.44 4.14zm26.99-17.59 16.89-44.24H84.86L72.93 90.24V53.37H57.49v51.48l26.99-7.24zm-11 13.3 11.38 35.32h16.51l-14.82-38.82-13.07 3.5zm603.95 828.68-11.37-35.32h-16.52l14.82 38.82 13.07-3.5zm16-4.29v-31.03h-15.45v35.17l15.45-4.14zm-27 17.59-16.89 44.24h16.52l11.92-36.87v36.87h15.45v-51.48l-27 7.24z"/>
  </g>
</svg>
