<svg xmlns="http://www.w3.org/2000/svg" width="80" height="112" fill="none"><rect width="80" height="112" fill="#fff" rx="5"/><path fill="#DC3059" d="M14.183 28h2.938l-3.978-10.088L17.121 9.8h-2.86l-3.692 7.878h-.052V9.8h-2.86V28h2.86v-5.59l.884-1.664L14.183 28ZM12.057 36.667l5.276 7.295-5.39 7.371-5.276-7.295 5.39-7.371ZM40.085 45 48 55.943 39.915 67 32 56.057 40.085 45ZM65.817 84h-2.938l3.978 10.088-3.978 8.112h2.86l3.692-7.878h.052v7.878h2.86V84h-2.86v5.59l-.884 1.664L65.817 84ZM67.943 75.333l-5.276-7.295 5.39-7.371 5.276 7.295-5.39 7.371Z"/></svg>