<svg xmlns="http://www.w3.org/2000/svg" xmlns:xlink="http://www.w3.org/1999/xlink" viewBox="0 0 750 1050"><defs><style>.cls-1,.cls-3{fill:none;}.cls-2{fill:#fff;}.cls-3{stroke:#282c44;}.cls-4{fill:#a4203a;}.cls-5{clip-path:url(#clip-path);}</style><clipPath id="clip-path"><rect class="cls-1" x="-35.54" y="-35.5" width="822" height="1121.5"/></clipPath></defs><g id="Ebene_2" data-name="Ebene 2"><rect class="cls-2" width="750" height="1049.95" rx="44.82"/></g><g id="Ebene_1_Kopie_2" data-name="Ebene 1 Kopie 2"><line class="cls-3" x1="36.46" y1="525.5" x2="714.46" y2="525.5"/><rect class="cls-4" x="374.21" y="394.31" width="148.63" height="42.15"/><polygon class="cls-4" points="410.12 353.23 374.21 269.99 374.21 436.46 410.12 353.23"/><polygon class="cls-4" points="529.65 287.48 524.79 361.21 520.74 434.89 463.33 401.49 405.48 368.85 467.74 328.52 529.65 287.48"/><polygon class="cls-4" points="434.56 280.87 455.14 341.79 476.27 402.35 425.27 397.98 374.21 394.38 404.63 337.84 434.56 280.87"/><rect class="cls-4" x="228.07" y="614.04" width="148.63" height="42.15"/><polygon class="cls-4" points="340.8 697.27 376.7 780.51 376.7 614.04 340.8 697.27"/><polygon class="cls-4" points="221.26 763.02 226.12 689.29 230.18 615.61 287.58 649.01 345.43 681.65 283.17 721.98 221.26 763.02"/><polygon class="cls-4" points="316.36 769.63 295.77 708.71 274.64 648.15 325.64 652.52 376.7 656.12 346.29 712.66 316.36 769.63"/><rect class="cls-4" x="228.18" y="394.31" width="146.04" height="42.15"/><polygon class="cls-4" points="338.94 353.23 374.21 269.99 374.21 436.46 338.94 353.23"/><polygon class="cls-4" points="221.49 287.48 226.26 361.21 230.25 434.89 286.65 401.49 343.49 368.85 282.31 328.52 221.49 287.48"/><polygon class="cls-4" points="314.92 280.87 294.69 341.79 273.93 402.35 324.04 397.98 374.21 394.38 344.33 337.84 314.92 280.87"/><rect class="cls-4" x="376.7" y="614.04" width="146.04" height="42.15"/><polygon class="cls-4" points="411.98 697.27 376.7 780.51 376.7 614.04 411.98 697.27"/><polygon class="cls-4" points="529.43 763.02 524.66 689.29 520.67 615.61 464.26 649.01 407.43 681.65 468.6 721.98 529.43 763.02"/><polygon class="cls-4" points="436 769.63 456.22 708.71 476.98 648.15 426.87 652.52 376.7 656.12 406.58 712.66 436 769.63"/><rect class="cls-4" x="227.96" y="456.5" width="295" height="27.5"/><rect class="cls-4" x="227.96" y="566.5" width="295" height="27.5"/><g class="cls-5"><path class="cls-4" d="M373.07,235.21a23.38,23.38,0,1,0,23.14,23.37,23.25,23.25,0,0,0-23.14-23.37"/><path class="cls-4" d="M377.84,815.29a23.38,23.38,0,1,0-23.13-23.37,23.25,23.25,0,0,0,23.13,23.37"/></g><rect class="cls-2" x="355.31" y="171.7" width="15" height="432.2" transform="translate(-125.73 596.01) rotate(-69.99)"/><rect class="cls-2" x="380.6" y="446.6" width="15" height="432.2" transform="translate(-367.39 800.6) rotate(-69.99)"/><polygon class="cls-4" points="77.34 163.5 55.22 195 77.34 226.5 99.46 195 77.34 163.5"/><polygon class="cls-4" points="673.58 887 695.7 855.5 673.58 824 651.46 855.5 673.58 887"/><polygon class="cls-2" points="373.07 351.49 350.94 382.99 373.07 414.49 395.2 382.99 373.07 351.49"/><polygon class="cls-2" points="377.84 699.01 399.98 667.51 377.84 636.01 355.71 667.51 377.84 699.01"/><polygon class="cls-4" points="57.49 115.2 57.49 146.23 72.93 146.23 72.93 111.06 57.49 115.2"/><polygon class="cls-4" points="84.48 97.61 101.37 53.37 84.86 53.37 72.93 90.24 72.93 53.37 57.49 53.37 57.49 104.85 84.48 97.61"/><polygon class="cls-4" points="73.48 110.91 84.86 146.23 101.37 146.23 86.55 107.41 73.48 110.91"/><polygon class="cls-4" points="677.43 939.59 666.06 904.27 649.54 904.27 664.36 943.09 677.43 939.59"/><polygon class="cls-4" points="693.43 935.3 693.43 904.27 677.98 904.27 677.98 939.44 693.43 935.3"/><polygon class="cls-4" points="666.43 952.89 649.54 997.13 666.06 997.13 677.98 960.26 677.98 997.13 693.43 997.13 693.43 945.65 666.43 952.89"/></g></svg>