<?xml version="1.0" encoding="UTF-8"?><svg xmlns="http://www.w3.org/2000/svg" viewBox="0 0 750 1050"><g id="uuid-a55c1a0a-7d71-468a-8495-8308fe486305"><rect width="750" height="1049.95" rx="44.82" ry="44.82" style="fill:#fff;"/></g><g id="uuid-19b7012c-52c3-4996-8c64-422cc7461811"><g><rect x="183.1" y="628.36" width="383.5" height="35.75" style="fill:#a4203a;"/><g><polygon points="560.83 602.31 566.45 602.31 566.45 550.59 568.99 504.48 575.31 408.63 494.83 461.98 476.61 473.78 451.69 400.04 412.77 474.1 411.95 475.64 373.24 385.89 373.24 385.89 373.24 385.89 373.24 385.89 335.2 475.64 334.39 474.1 296.15 400.04 271.67 473.78 253.77 461.98 174.69 408.63 178.22 463.12 560.83 602.31" style="fill:#a4203a;"/><polygon points="179.59 484.37 180.9 504.48 183.39 550.59 183.39 602.31 373.24 602.31 503.79 602.31 179.59 484.37" style="fill:#a4203a;"/></g><polygon points="371.75 491.85 342.98 532.8 371.75 573.75 400.52 532.8 371.75 491.85" style="fill:#fff;"/></g><g><polygon points="58.17 133.75 58.17 174.09 78.25 174.09 78.25 128.37 58.17 133.75" style="fill:#a4203a;"/><polygon points="93.26 110.89 115.21 53.37 93.75 53.37 78.25 101.31 78.25 53.37 58.17 53.37 58.17 120.29 93.26 110.89" style="fill:#a4203a;"/><polygon points="78.96 128.18 93.75 174.09 115.21 174.09 95.96 123.62 78.96 128.18" style="fill:#a4203a;"/></g><polygon points="82.89 196.22 54.13 237.17 82.89 278.12 111.65 237.17 82.89 196.22" style="fill:#a4203a;"/><g><polygon points="691.83 916.25 691.83 875.91 671.75 875.91 671.75 921.63 691.83 916.25" style="fill:#a4203a;"/><polygon points="656.74 939.11 634.79 996.63 656.25 996.63 671.75 948.69 671.75 996.63 691.83 996.63 691.83 929.71 656.74 939.11" style="fill:#a4203a;"/><polygon points="671.04 921.82 656.25 875.91 634.79 875.91 654.04 926.38 671.04 921.82" style="fill:#a4203a;"/></g><polygon points="667.11 853.78 695.87 812.83 667.11 771.88 638.35 812.83 667.11 853.78" style="fill:#a4203a;"/></g></svg>