<?xml version="1.0" encoding="UTF-8"?><svg xmlns="http://www.w3.org/2000/svg" viewBox="0 0 750 1050"><g id="uuid-e44cfd1d-3472-40d5-96e3-e634ce4c943c"><rect width="750" height="1049.95" rx="44.82" ry="44.82" style="fill:#fff;"/></g><g id="uuid-b01223f0-7c34-4f26-a040-889554775535"><g><path d="M311.17,447.95c-5.07-1.43-10.27-2.57-15.57-3.42-6.98-1.1-14.13-1.68-21.41-1.68-75.27,0-136.5,61.24-136.5,136.5,0,17.61,3.35,34.45,9.45,49.92l30.65-8.22c-5.71-12.75-8.91-26.83-8.91-41.7,0-58.06,47.23-105.3,105.3-105.3,3.56,0,7.07,.18,10.53,.55,5.29,.53,10.45,1.48,15.46,2.81,5.08,1.33,10,3.04,14.72,5.1,3.02-10.54,6.73-20.41,11.1-29.42-4.81-2-9.75-3.71-14.82-5.14Zm37.86,239.32c-.44-.39-.88-.81-1.33-1.22-.43-.4-.86-.82-1.29-1.23-.38-.38-.74-.74-1.1-1.12-.36-.38-.73-.77-1.09-1.16-.36-.39-.73-.79-1.09-1.2-.35-.4-.71-.81-1.08-1.22-.7-.83-1.42-1.69-2.12-2.57-.35-.44-.7-.9-1.05-1.35-.35-.46-.7-.92-1.05-1.39-.69-.94-1.37-1.9-2.04-2.87-.38-.53-.74-1.08-1.11-1.64-.35-.52-.7-1.05-1.04-1.59-.4-.62-.81-1.26-1.2-1.91-2.73,1.85-5.52,3.56-8.41,5.14-1.68,.92-3.39,1.79-5.12,2.61-4.74,2.29-9.65,4.2-14.69,5.71-1.65,.51-3.33,.96-5,1.38-26.01,6.37-52,2.05-73.85-9.7-14.9-8.01-27.87-19.47-37.61-33.34l-32.01,8.57c7.29,12.71,16.59,24.14,27.44,33.86,13.1,11.74,28.48,21,45.38,27,.3,.1,.59,.21,.88,.31h89.43c.29-.09,.58-.19,.87-.31,1.44-.49,2.86-1.03,4.28-1.59,5.2-2.04,10.24-4.39,15.11-7.05,4.86-2.64,9.53-5.56,14.01-8.75-1.39-1.03-2.76-2.16-4.12-3.37Z" style="fill:#a4203a;"/><path d="M476.9,443.28c-7.06,.06-14.09,.74-21.01,1.99-5.2,.94-10.35,2.18-15.39,3.74-4.99,1.52-9.91,3.35-14.69,5.45,4.06,8.57,7.53,17.9,10.39,27.82,4.76-2.01,9.68-3.68,14.77-4.97,5.03-1.29,10.19-2.21,15.48-2.73,3.46-.35,6.98-.53,10.53-.53,35.18,0,66.38,17.34,85.51,43.93l30.28-8.11c-22.45-38.81-63.11-67.09-115.87-66.59Zm-37.92,265.04c-.36-.09-.73-.19-1.09-.31-3.12-.92-6.21-1.95-9.27-3.09-5.19-1.95-10.26-4.21-15.14-6.81-4.85-2.56-9.53-5.43-14-8.62,.7-.56,1.4-1.14,2.11-1.75,.29-.25,.57-.49,.86-.75,.48-.44,.97-.9,1.46-1.36,.25-.22,.48-.47,.73-.7,1.39-1.36,2.76-2.82,4.11-4.38,.62-.71,1.23-1.44,1.86-2.2,.31-.4,.65-.81,.97-1.23,.32-.42,.65-.83,.96-1.25,.32-.42,.64-.84,.95-1.27,.32-.43,.64-.87,.95-1.31s.62-.88,.94-1.34c.73-1.04,1.43-2.12,2.13-3.21,.38-.58,.74-1.17,1.1-1.77,2.66,1.78,5.41,3.44,8.24,4.98,1.75,.96,3.54,1.86,5.36,2.72,4.73,2.24,9.65,4.12,14.73,5.63,9.53,2.86,19.62,4.38,30.06,4.38,18.15,0,35.23-4.61,50.15-12.73,32.81-17.85,55.15-52.65,55.15-92.57,0-15.66-3.44-30.54-9.61-43.91l28.85-7.73c20.75,50.83,12.87,113.39-34.84,154.14-2.56,2.2-5.24,4.32-8.02,6.37-12.15,8.94-25.83,15.55-40.25,19.8-.35,.1-.71,.21-1.07,.31h-78.36Z" style="fill:#a4203a;"/><path d="M328.67,660.17c-8.32-15.57-14.57-34.1-18.49-54.41l-15.07,4.04c4.73,23.91,12.43,45.14,22.24,62.11h6.67c2.89-1.57,5.68-3.29,8.41-5.14-1.29-2.12-2.55-4.32-3.77-6.62Zm122.3-182.86c-2.95-10.15-6.46-19.63-10.46-28.3-15.74-34.03-38.99-55.56-64.92-55.56s-48.7,21.09-64.42,54.5c-4.22,8.98-7.93,18.86-11,29.46-6.63,22.76-10.39,48.85-10.39,76.6,0,12.54,.77,24.75,2.22,36.45l15.2-4.07c-1.2-10.5-1.82-21.35-1.82-32.38,0-25.48,3.29-49.88,9.5-71.5,3.02-10.54,6.73-20.41,11.1-29.42,.87-1.78,1.76-3.54,2.68-5.25,13.17-24.65,30.26-38.78,46.92-38.78s33.73,14.13,46.9,38.78c1.14,2.16,2.26,4.37,3.33,6.63,4.06,8.57,7.53,17.9,10.39,27.82,5.88,20.32,9.15,43.13,9.54,66.98l15.5-4.15c-.7-24.45-4.34-47.46-10.27-67.8Zm-5.6,92.24c-1.85,34.44-9.82,66.17-22.88,90.62-1.26,2.35-2.55,4.61-3.89,6.77-.36,.6-.73,1.18-1.11,1.77-.7,1.09-1.4,2.17-2.13,3.21-.31,.46-.62,.9-.94,1.34-.31,.44-.62,.88-.95,1.31-.31,.43-.62,.86-.95,1.27-.31,.42-.64,.83-.96,1.25-.32,.43-.66,.83-.97,1.23-.62,.75-1.23,1.48-1.86,2.2-1.35,1.56-2.72,3.02-4.11,4.38-.25,.23-.48,.48-.73,.7-.48,.47-.97,.92-1.46,1.36-.29,.26-.57,.51-.86,.75-.7,.61-1.4,1.2-2.11,1.75-7.73,6.17-15.87,9.46-23.89,9.46-7.53,0-15.12-2.89-22.42-8.32h-.01c-1.39-1.03-2.76-2.16-4.12-3.37-.44-.39-.88-.81-1.33-1.22-.43-.4-.86-.82-1.29-1.23-.38-.38-.74-.74-1.1-1.12-.36-.38-.73-.77-1.09-1.16-.36-.39-.73-.79-1.09-1.2-.35-.4-.71-.81-1.08-1.22-.7-.83-1.42-1.69-2.12-2.57-.35-.44-.7-.9-1.05-1.35-.35-.46-.7-.92-1.05-1.39-.69-.94-1.37-1.9-2.04-2.87-.38-.53-.74-1.08-1.11-1.64-.35-.52-.7-1.05-1.04-1.59-.4-.62-.81-1.26-1.2-1.91-1.29-2.12-2.55-4.32-3.77-6.62-8.32-15.57-14.57-34.1-18.49-54.41l-15.07,4.04c4.73,23.91,12.43,45.14,22.24,62.11,.51,.88,1.03,1.76,1.55,2.61,6.04,9.97,12.84,18.36,20.23,24.84,3.9,3.43,7.96,6.33,12.15,8.63,.18,.12,.38,.22,.57,.31h47.46c.2-.1,.39-.21,.59-.31,4.71-2.59,9.24-5.91,13.57-9.91,6.8-6.28,13.09-14.2,18.72-23.46,.55-.9,1.08-1.79,1.61-2.72,15.56-26.94,25.79-64.53,27.37-106.61l-15.81,4.24Z" style="fill:#fff;"/><path d="M328.67,660.17c-8.32-15.57-14.57-34.1-18.49-54.41l-15.07,4.04c4.73,23.91,12.43,45.14,22.24,62.11h6.67c2.89-1.57,5.68-3.29,8.41-5.14-1.29-2.12-2.55-4.32-3.77-6.62Zm137.79-185.59c-2.96-10.43-6.5-20.24-10.56-29.31-18.38-41.29-47.27-67.42-80.31-67.42s-61.58,25.82-79.99,66.68c-4.19,9.28-7.84,19.34-10.88,30.07-6.76,23.74-10.53,50.66-10.53,79.4,0,13.99,.9,27.56,2.59,40.53l15.24-4.08,15.2-4.07c-1.2-10.5-1.82-21.35-1.82-32.38,0-25.48,3.29-49.88,9.5-71.5,3.02-10.54,6.73-20.41,11.1-29.42,.87-1.78,1.76-3.54,2.68-5.25,13.17-24.65,30.26-38.78,46.92-38.78s33.73,14.13,46.9,38.78c1.14,2.16,2.26,4.37,3.33,6.63,4.06,8.57,7.53,17.9,10.39,27.82,5.88,20.32,9.15,43.13,9.54,66.98l15.5-4.15,15.48-4.15c-.96-23.87-4.55-46.27-10.27-66.38Zm-5.28,90.73l-15.81,4.24c-1.85,34.44-9.82,66.17-22.88,90.62-1.26,2.35-2.55,4.61-3.89,6.77-.36,.6-.73,1.18-1.11,1.77-.7,1.09-1.4,2.17-2.13,3.21-.31,.46-.62,.9-.94,1.34-.31,.44-.62,.88-.95,1.31-.31,.43-.62,.86-.95,1.27-.31,.42-.64,.83-.96,1.25-.32,.43-.66,.83-.97,1.23-.62,.75-1.23,1.48-1.86,2.2-1.35,1.56-2.72,3.02-4.11,4.38-.25,.23-.48,.48-.73,.7-.48,.47-.97,.92-1.46,1.36-.29,.26-.57,.51-.86,.75-.7,.61-1.4,1.2-2.11,1.75-7.73,6.17-15.87,9.46-23.89,9.46-7.53,0-15.12-2.89-22.42-8.32h-.01c-1.39-1.03-2.76-2.16-4.12-3.37-.44-.39-.88-.81-1.33-1.22-.43-.4-.86-.82-1.29-1.23-.38-.38-.74-.74-1.1-1.12-.36-.38-.73-.77-1.09-1.16-.36-.39-.73-.79-1.09-1.2-.35-.4-.71-.81-1.08-1.22-.7-.83-1.42-1.69-2.12-2.57-.35-.44-.7-.9-1.05-1.35-.35-.46-.7-.92-1.05-1.39-.69-.94-1.37-1.9-2.04-2.87-.38-.53-.74-1.08-1.11-1.64-.35-.52-.7-1.05-1.04-1.59-.4-.62-.81-1.26-1.2-1.91-1.29-2.12-2.55-4.32-3.77-6.62-8.32-15.57-14.57-34.1-18.49-54.41l-15.07,4.04-15.13,4.06c4.37,21.72,11.1,41.37,19.68,58.06,1.46,2.86,2.98,5.63,4.55,8.32,5.92,10.09,12.57,18.89,19.81,26.18,.53,.53,1.07,1.07,1.61,1.59,.1,.1,.21,.21,.32,.31h99.24c.12-.09,.22-.19,.32-.31,1.04-.99,2.08-2.03,3.09-3.09,6.66-6.98,12.81-15.26,18.3-24.65,1.59-2.69,3.11-5.47,4.58-8.35,15.09-29.39,24.47-67.91,25.39-110.82l-15.72,4.21Z" style="fill:#a4203a;"/><rect x="183.18" y="671.93" width="383.5" height="36.4" style="fill:#a4203a;"/><polygon points="517.35 708.33 566.68 708.33 566.68 708.01 518.41 708.01 437.89 708.01 425.53 708.01 399.91 708.01 351.29 708.01 325.64 708.01 319.75 708.01 228.57 708.01 183.33 708.01 183.33 708.33 229.45 708.33 318.88 708.33 325.96 708.33 351.86 708.33 399.32 708.33 425.2 708.33 438.98 708.33 517.35 708.33" style="fill:#fff;"/><rect x="183.33" y="733.18" width="383.5" height="23.31" style="fill:#fff;"/><rect x="183.33" y="733.18" width="383.5" height="36.4" style="fill:#a4203a;"/><path d="M375.58,359.72c21.9,0,39.65-17.75,39.65-39.65s-17.75-39.65-39.65-39.65-39.65,17.75-39.65,39.65,17.75,39.65,39.65,39.65h0Z" style="fill:#a4203a;"/></g><g><polygon points="58.17 133.75 58.17 174.09 78.25 174.09 78.25 128.37 58.17 133.75" style="fill:#a4203a;"/><polygon points="93.26 110.89 115.21 53.37 93.75 53.37 78.25 101.31 78.25 53.37 58.17 53.37 58.17 120.29 93.26 110.89" style="fill:#a4203a;"/><polygon points="78.96 128.18 93.75 174.09 115.21 174.09 95.96 123.62 78.96 128.18" style="fill:#a4203a;"/></g><path d="M110.57,204.89c-9.1-5.4-21.6-2.99-27.59,5.76v-.22c-5.99-8.75-18.5-11.16-27.6-5.76-9.23,5.48-12,17.26-6.17,26.32l33.77-20.04-33.75,20.04,33.75,52.49v.22l33.75-52.49-33.75-20.04,33.76,20.04c5.82-9.06,3.06-20.84-6.17-26.32" style="fill:#a4203a;"/><g><polygon points="691.83 916.25 691.83 875.91 671.75 875.91 671.75 921.63 691.83 916.25" style="fill:#a4203a;"/><polygon points="656.74 939.11 634.79 996.63 656.25 996.63 671.75 948.69 671.75 996.63 691.83 996.63 691.83 929.71 656.74 939.11" style="fill:#a4203a;"/><polygon points="671.04 921.82 656.25 875.91 634.79 875.91 654.04 926.38 671.04 921.82" style="fill:#a4203a;"/></g><path d="M639.43,845.11c9.1,5.4,21.6,2.99,27.59-5.76v.22c5.99,8.75,18.5,11.16,27.6,5.76,9.23-5.48,12-17.26,6.17-26.32l-33.77,20.04,33.75-20.04-33.75-52.49v-.22l-33.75,52.49,33.75,20.04-33.76-20.04c-5.82,9.06-3.06,20.84,6.17,26.32" style="fill:#a4203a;"/></g></svg>