<svg xmlns="http://www.w3.org/2000/svg" xmlns:xlink="http://www.w3.org/1999/xlink" viewBox="0 0 750 1050"><defs><style>.cls-1,.cls-3,.cls-5{fill:none;}.cls-2{fill:#fff;}.cls-3{stroke:#282c44;}.cls-4{clip-path:url(#clip-path);}.cls-5{stroke:#a4203a;stroke-width:24px;}.cls-6{fill:#a4203a;}</style><clipPath id="clip-path"><rect class="cls-1" x="-36" y="-36" width="822" height="1122"/></clipPath></defs><g id="Ebene_2" data-name="Ebene 2"><rect class="cls-2" width="750" height="1049.95" rx="44.82"/></g><g id="Ebene_1_Kopie_2" data-name="Ebene 1 Kopie 2"><line class="cls-3" x1="36" y1="525" x2="714" y2="525"/><g class="cls-4"><circle class="cls-5" cx="297.39" cy="336.95" r="93"/><circle class="cls-5" cx="452.61" cy="713.05" r="93"/><circle class="cls-5" cx="453.39" cy="336.95" r="93"/><circle class="cls-5" cx="296.61" cy="713.05" r="93"/><path class="cls-2" d="M375.39,441c36.45,0,66-55.29,66-123.5S411.84,194,375.39,194s-66,55.3-66,123.5,29.54,123.5,66,123.5"/><ellipse class="cls-5" cx="375.39" cy="317.45" rx="66" ry="123.5"/><path class="cls-2" d="M374.61,609.05c-36.45,0-66,55.29-66,123.5s29.55,123.5,66,123.5,66-55.3,66-123.5-29.54-123.5-66-123.5"/><ellipse class="cls-5" cx="374.61" cy="732.55" rx="66" ry="123.5"/></g><rect class="cls-6" x="227.39" y="408.16" width="295" height="28"/><rect class="cls-6" x="227.61" y="613.84" width="295" height="28"/><rect class="cls-2" x="227.5" y="435.92" width="295" height="37.29"/><rect class="cls-2" x="227.5" y="576.79" width="295" height="37.29"/><rect class="cls-6" x="227.5" y="455.28" width="295" height="28"/><rect class="cls-6" x="227.5" y="566.72" width="295" height="28"/><g class="cls-4"><path class="cls-6" d="M375.39,168a30.5,30.5,0,1,0-30.5-30.5,30.5,30.5,0,0,0,30.5,30.5"/><path class="cls-6" d="M374.61,882a30.5,30.5,0,1,0,30.5,30.5,30.51,30.51,0,0,0-30.5-30.5"/></g><rect class="cls-2" x="169.87" y="325.72" width="432" height="15" transform="translate(-73.09 111.22) rotate(-15)"/><rect class="cls-2" x="148.13" y="709.28" width="432" height="15" transform="translate(-173.1 118.66) rotate(-15)"/><g class="cls-4"><path class="cls-6" d="M98.54,165.5c-7-4.16-16.61-2.3-21.22,4.43v-.17c-4.6-6.73-14.23-8.59-21.23-4.43a14.34,14.34,0,0,0-4.74,20.25l26-15.42-26,15.42,26,40.38v.17l26-40.38-26-15.42,26,15.42a14.35,14.35,0,0,0-4.75-20.25"/><path class="cls-6" d="M651.46,884.5c7,4.16,16.61,2.3,21.22-4.43v.17c4.6,6.73,14.23,8.59,21.23,4.43a14.34,14.34,0,0,0,4.74-20.25l-26,15.42,26-15.42-26-40.38v-.17l-26,40.38,26,15.42-26-15.42a14.35,14.35,0,0,0,4.75,20.25"/></g><polygon class="cls-6" points="84.03 97.34 100.91 53.1 84.4 53.1 72.48 89.97 72.48 53.1 57.03 53.1 57.03 104.58 84.03 97.34"/><polygon class="cls-6" points="73.02 110.64 84.4 145.96 100.91 145.96 86.1 107.14 73.02 110.64"/><polygon class="cls-6" points="57.03 114.93 57.03 145.96 72.48 145.96 72.48 110.79 57.03 114.93"/><polygon class="cls-6" points="692.97 935.07 692.97 904.04 677.52 904.04 677.52 939.21 692.97 935.07"/><polygon class="cls-6" points="676.98 939.36 665.6 904.04 649.09 904.04 663.9 942.86 676.98 939.36"/><polygon class="cls-6" points="665.97 952.66 649.09 996.9 665.6 996.9 677.52 960.02 677.52 996.9 692.97 996.9 692.97 945.42 665.97 952.66"/></g></svg>