<svg xmlns="http://www.w3.org/2000/svg" viewBox="0 0 750 1050">
  <defs>
    <clipPath id="a">
      <path style="fill:none" d="M-36-36h822v1122H-36z"/>
    </clipPath>
  </defs>
  <rect width="750" height="1049.95" rx="44.82" style="fill:#fff" data-name="Ebene 2"/>
  <g data-name="Ebene 1 Kopie 2">
    <path style="fill:none;stroke:#282c44" d="M36 525h678"/>
    <g style="clip-path:url(#a)">
      <circle cx="297.39" cy="336.95" r="93" style="fill:none;stroke:#a4203a;stroke-width:24px"/>
      <circle cx="452.61" cy="713.05" r="93" style="fill:none;stroke:#a4203a;stroke-width:24px"/>
      <circle cx="453.39" cy="336.95" r="93" style="fill:none;stroke:#a4203a;stroke-width:24px"/>
      <circle cx="296.61" cy="713.05" r="93" style="fill:none;stroke:#a4203a;stroke-width:24px"/>
      <path d="M375.39 441c36.45 0 66-55.29 66-123.5s-29.55-123.5-66-123.5-66 55.3-66 123.5 29.54 123.5 66 123.5" style="fill:#fff"/>
      <ellipse cx="375.39" cy="317.45" rx="66" ry="123.5" style="fill:none;stroke:#a4203a;stroke-width:24px"/>
      <path d="M374.61 609.05c-36.45 0-66 55.29-66 123.5s29.55 123.5 66 123.5 66-55.3 66-123.5-29.54-123.5-66-123.5" style="fill:#fff"/>
      <ellipse cx="374.61" cy="732.55" rx="66" ry="123.5" style="fill:none;stroke:#a4203a;stroke-width:24px"/>
    </g>
    <path style="fill:#a4203a" d="M227.39 408.16h295v28h-295zM227.61 613.84h295v28h-295z"/>
    <path style="fill:#fff" d="M227.5 435.92h295v37.29h-295zM227.5 576.79h295v37.29h-295z"/>
    <path style="fill:#a4203a" d="M227.5 455.28h295v28h-295zM227.5 566.72h295v28h-295z"/>
    <g style="clip-path:url(#a)">
      <path d="M375.39 168a30.5 30.5 0 1 0-30.5-30.5 30.5 30.5 0 0 0 30.5 30.5M374.61 882a30.5 30.5 0 1 0 30.5 30.5 30.51 30.51 0 0 0-30.5-30.5" style="fill:#a4203a"/>
    </g>
    <path transform="rotate(-15 385.8548862 333.19683405)" style="fill:#fff" d="M169.87 325.72h432v15h-432z"/>
    <path transform="rotate(-15 364.1060915 716.74251846)" style="fill:#fff" d="M148.13 709.28h432v15h-432z"/>
    <g style="clip-path:url(#a)">
      <path d="M98.54 165.5c-7-4.16-16.61-2.3-21.22 4.43v-.17c-4.6-6.73-14.23-8.59-21.23-4.43a14.34 14.34 0 0 0-4.74 20.25l26-15.42-26 15.42 26 40.38v.17l26-40.38-26-15.42 26 15.42a14.35 14.35 0 0 0-4.75-20.25M651.46 884.5c7 4.16 16.61 2.3 21.22-4.43v.17c4.6 6.73 14.23 8.59 21.23 4.43a14.34 14.34 0 0 0 4.74-20.25l-26 15.42 26-15.42-26-40.38v-.17l-26 40.38 26 15.42-26-15.42a14.35 14.35 0 0 0 4.75 20.25" style="fill:#a4203a"/>
    </g>
    <path style="fill:#a4203a" d="m84.03 97.34 16.88-44.24H84.4L72.48 89.97V53.1H57.03v51.48l27-7.24zM73.02 110.64l11.38 35.32h16.51L86.1 107.14l-13.08 3.5zM57.03 114.93v31.03h15.45v-35.17l-15.45 4.14zM692.97 935.07v-31.03h-15.45v35.17l15.45-4.14zM676.98 939.36l-11.38-35.32h-16.51l14.81 38.82 13.08-3.5zM665.97 952.66l-16.88 44.24h16.51l11.92-36.88v36.88h15.45v-51.48l-27 7.24z"/>
  </g>
</svg>
