<svg xmlns="http://www.w3.org/2000/svg" viewBox="0 0 750 1050">
  <defs>
    <clipPath id="clip-path">
      <path style="fill:none" d="M-36-36h822v1122H-36z"/>
    </clipPath>
    <style>
      .cls-5{fill:none}.cls-2{fill:#fff}.cls-4{clip-path:url(#clip-path)}.cls-5{stroke:#a4203a;stroke-width:24px}.cls-6{fill:#a4203a}
    </style>
  </defs>
  <rect class="cls-2" width="750" height="1049.95" rx="44.82" id="Ebene_2" data-name="Ebene 2"/>
  <g id="Ebene_1_Kopie_2" data-name="Ebene 1 Kopie 2">
    <path style="stroke:#282c44;fill:none" d="M36 525h678"/>
    <g class="cls-4">
      <circle class="cls-5" cx="297.39" cy="336.95" r="93"/>
      <circle class="cls-5" cx="452.61" cy="713.05" r="93"/>
      <circle class="cls-5" cx="453.39" cy="336.95" r="93"/>
      <circle class="cls-5" cx="296.61" cy="713.05" r="93"/>
      <path class="cls-2" d="M375.39 441c36.45 0 66-55.29 66-123.5s-29.55-123.5-66-123.5-66 55.3-66 123.5 29.54 123.5 66 123.5"/>
      <ellipse class="cls-5" cx="375.39" cy="317.45" rx="66" ry="123.5"/>
      <path class="cls-2" d="M374.61 609.05c-36.45 0-66 55.29-66 123.5s29.55 123.5 66 123.5 66-55.3 66-123.5-29.54-123.5-66-123.5"/>
      <ellipse class="cls-5" cx="374.61" cy="732.55" rx="66" ry="123.5"/>
    </g>
    <path class="cls-6" d="M227.39 408.16h295v28h-295zm.22 205.68h295v28h-295z"/>
    <path class="cls-2" d="M227.5 435.92h295v37.29h-295zm0 140.87h295v37.29h-295z"/>
    <path class="cls-6" d="M227.5 455.28h295v28h-295zm0 111.44h295v28h-295z"/>
    <g class="cls-4">
      <path class="cls-6" d="M375.39 168a30.5 30.5 0 1 0-30.5-30.5 30.5 30.5 0 0 0 30.5 30.5m-.78 714a30.5 30.5 0 1 0 30.5 30.5 30.51 30.51 0 0 0-30.5-30.5"/>
    </g>
    <path class="cls-2" transform="rotate(-15 385.8548862 333.19683405)" d="M169.87 325.72h432v15h-432z"/>
    <path class="cls-2" transform="rotate(-15 364.1060915 716.74251846)" d="M148.13 709.28h432v15h-432z"/>
    <g class="cls-4">
      <path class="cls-6" d="M98.54 165.5c-7-4.16-16.61-2.3-21.22 4.43v-.17c-4.6-6.73-14.23-8.59-21.23-4.43a14.34 14.34 0 0 0-4.74 20.25l26-15.42-26 15.42 26 40.38v.17l26-40.38-26-15.42 26 15.42a14.35 14.35 0 0 0-4.75-20.25m552.86 719c7 4.16 16.61 2.3 21.22-4.43v.17c4.6 6.73 14.23 8.59 21.23 4.43a14.34 14.34 0 0 0 4.74-20.25l-26 15.42 26-15.42-26-40.38v-.17l-26 40.38 26 15.42-26-15.42a14.35 14.35 0 0 0 4.75 20.25"/>
    </g>
    <path class="cls-6" d="m84.03 97.34 16.88-44.24H84.4L72.48 89.97V53.1H57.03v51.48l27-7.24zm-11.01 13.3 11.38 35.32h16.51L86.1 107.14l-13.08 3.5zm-15.99 4.29v31.03h15.45v-35.17l-15.45 4.14zm635.94 820.14v-31.03h-15.45v35.17l15.45-4.14zm-15.99 4.29-11.38-35.32h-16.51l14.81 38.82 13.08-3.5zm-11.01 13.3-16.88 44.24h16.51l11.92-36.88v36.88h15.45v-51.48l-27 7.24z"/>
  </g>
</svg>
