<svg xmlns="http://www.w3.org/2000/svg" viewBox="0 0 750 1050">
  <defs>
    <clipPath id="clip-path">
      <path style="fill:none" d="M-36-35.88h822v1122H-36z"/>
    </clipPath>
    <style>
      .cls-2{fill:#fff}.cls-4{fill:#282c44}
    </style>
  </defs>
  <rect class="cls-2" width="750" height="1049.95" rx="44.82" id="Ebene_2" data-name="Ebene 2"/>
  <g id="Ebene_1_Kopie_2" data-name="Ebene 1 Kopie 2">
    <path style="stroke:#282c44;fill:none" d="M36 525.12h678"/>
    <path class="cls-4" d="M57.03 114.81v31.04h15.45v-35.17l-15.45 4.13zm27-17.58 16.88-44.25H84.4L72.48 89.86V52.98H57.03v51.48l27-7.23zm-11.01 13.3 11.38 35.32h16.51L86.1 107.03l-13.08 3.5zM676.98 939.7l-11.38-35.32h-16.51l14.81 38.82 13.08-3.5zm15.99-4.28v-31.04h-15.45v35.17l15.45-4.13zm-27 17.58-16.88 44.25h16.51l11.92-36.88v36.88h15.45v-51.48l-27 7.23zM227 456.11h295v27.5H227zm1 110.51h295v27.5H228zm133.4-309.5h27.5v162h-27.5zm-.3 374h27.5v162h-27.5z"/>
    <path class="cls-4" d="M334.65 289.61h81v27.5h-81zm-.3 443.51h81v27.5h-81zm169.8-448.34h18v134.33h-18zm-276.3 346.34h18v134.33h-18zM227 284.07h18V418.4h-18zm278 347.76h18v134.33h-18z"/>
    <path class="cls-4" d="M493.98 303.36h28.17v18h-28.17zM227.85 728.87h28.17v18h-28.17zm-.77-426.22h28.17v18h-28.17zm267.67 426.93h28.17v18h-28.17zm-267.6-377.63h295v84.17h-295zm.7 262.16h295v84.17h-295z"/>
    <g style="clip-path:url(#clip-path)">
      <path class="cls-4" d="M375.15 380a29 29 0 1 0-29-29 29 29 0 0 0 29 29m-.3 290.24a29 29 0 1 0 29 29 29 29 0 0 0-29-29"/>
      <path class="cls-2" d="M444.69 394c22.37 0 40.5-18.81 40.5-42s-18.13-42-40.5-42-40.5 18.8-40.5 42 18.13 42 40.5 42M305.31 656.19c-22.37 0-40.5 18.81-40.5 42s18.13 42 40.5 42 40.5-18.8 40.5-42-18.13-42-40.5-42m.3-262.19c22.37 0 40.5-18.81 40.5-42s-18.13-42-40.5-42-40.5 18.8-40.5 42 18.13 42 40.5 42m138.78 262.19c-22.37 0-40.5 18.81-40.5 42s18.13 42 40.5 42 40.5-18.8 40.5-42-18.13-42-40.5-42"/>
      <path class="cls-4" d="M502.27 369.24a17 17 0 1 1 17.09-17 17 17 0 0 1-17.09 17M247.73 681a17 17 0 1 1-17.09 17 17 17 0 0 1 17.09-17m.27-312.75a17 17 0 1 0-17.08-17 17 17 0 0 0 17.08 17M502 682a17 17 0 1 0 17.08 17A17 17 0 0 0 502 682M97.49 194.55l-17.81 10.22 17.78-10.22-20.79-31.3v-.14l-20.8 31.3a10.91 10.91 0 0 0 3.8 15.69 13.34 13.34 0 0 0 12.46.31l-4.21 15.69h17.49l-4.16-15.49a13.55 13.55 0 0 0 12.43-.38 10.93 10.93 0 0 0 3.81-15.69m555.02 661.14 17.81-10.22-17.78 10.22L673.33 887v.14l20.8-31.3a10.91 10.91 0 0 0-3.8-15.69 13.34 13.34 0 0 0-12.46-.31l4.21-15.69h-17.49l4.16 15.49a13.55 13.55 0 0 0-12.43.38 10.93 10.93 0 0 0-3.81 15.69"/>
    </g>
    <path class="cls-2" transform="rotate(-9.75 369.80323309 403.90679928)" d="M153.85 396.46h432v15h-432z"/>
    <path class="cls-2" transform="rotate(-9.75 380.13532151 646.24135085)" d="M164.15 638.77h432v15h-432z"/>
  </g>
</svg>
