<svg xmlns="http://www.w3.org/2000/svg" xmlns:xlink="http://www.w3.org/1999/xlink" viewBox="0 0 750 1050"><defs><style>.cls-1,.cls-3{fill:none;}.cls-2{fill:#fff;}.cls-3{stroke:#282c44;}.cls-4{fill:#282c44;}.cls-5{clip-path:url(#clip-path);}</style><clipPath id="clip-path"><rect class="cls-1" x="-36" y="-35.88" width="822" height="1122"/></clipPath></defs><g id="Ebene_2" data-name="Ebene 2"><rect class="cls-2" width="750" height="1049.95" rx="44.82"/></g><g id="Ebene_1_Kopie_2" data-name="Ebene 1 Kopie 2"><line class="cls-3" x1="36" y1="525.12" x2="714" y2="525.12"/><polygon class="cls-4" points="57.03 114.81 57.03 145.85 72.48 145.85 72.48 110.68 57.03 114.81"/><polygon class="cls-4" points="84.03 97.23 100.91 52.98 84.4 52.98 72.48 89.86 72.48 52.98 57.03 52.98 57.03 104.46 84.03 97.23"/><polygon class="cls-4" points="73.02 110.53 84.4 145.85 100.91 145.85 86.1 107.03 73.02 110.53"/><polygon class="cls-4" points="676.98 939.7 665.6 904.38 649.09 904.38 663.9 943.2 676.98 939.7"/><polygon class="cls-4" points="692.97 935.42 692.97 904.38 677.52 904.38 677.52 939.55 692.97 935.42"/><polygon class="cls-4" points="665.97 953 649.09 997.25 665.6 997.25 677.52 960.37 677.52 997.25 692.97 997.25 692.97 945.77 665.97 953"/><rect class="cls-4" x="227" y="456.11" width="295" height="27.5"/><rect class="cls-4" x="228" y="566.62" width="295" height="27.5"/><rect class="cls-4" x="361.4" y="257.12" width="27.5" height="162"/><rect class="cls-4" x="361.1" y="631.12" width="27.5" height="162"/><rect class="cls-4" x="334.65" y="289.61" width="81" height="27.5"/><rect class="cls-4" x="334.35" y="733.12" width="81" height="27.5"/><rect class="cls-4" x="504.15" y="284.78" width="18" height="134.33"/><rect class="cls-4" x="227.85" y="631.12" width="18" height="134.33"/><rect class="cls-4" x="227" y="284.07" width="18" height="134.33"/><rect class="cls-4" x="505" y="631.83" width="18" height="134.33"/><rect class="cls-4" x="493.98" y="303.36" width="28.17" height="18"/><rect class="cls-4" x="227.85" y="728.87" width="28.17" height="18"/><rect class="cls-4" x="227.08" y="302.65" width="28.17" height="18"/><rect class="cls-4" x="494.75" y="729.58" width="28.17" height="18"/><rect class="cls-4" x="227.15" y="351.95" width="295" height="84.17"/><rect class="cls-4" x="227.85" y="614.11" width="295" height="84.17"/><g class="cls-5"><path class="cls-4" d="M375.15,380a29,29,0,1,0-29-29,29,29,0,0,0,29,29"/><path class="cls-4" d="M374.85,670.24a29,29,0,1,0,29,29,29,29,0,0,0-29-29"/><path class="cls-2" d="M444.69,394c22.37,0,40.5-18.81,40.5-42s-18.13-42-40.5-42-40.5,18.8-40.5,42,18.13,42,40.5,42"/><path class="cls-2" d="M305.31,656.19c-22.37,0-40.5,18.81-40.5,42s18.13,42,40.5,42,40.5-18.8,40.5-42-18.13-42-40.5-42"/><path class="cls-2" d="M305.61,394c22.37,0,40.5-18.81,40.5-42s-18.13-42-40.5-42-40.5,18.8-40.5,42,18.13,42,40.5,42"/><path class="cls-2" d="M444.39,656.19c-22.37,0-40.5,18.81-40.5,42s18.13,42,40.5,42,40.5-18.8,40.5-42-18.13-42-40.5-42"/><path class="cls-4" d="M502.27,369.24a17,17,0,1,1,17.09-17,17,17,0,0,1-17.09,17"/><path class="cls-4" d="M247.73,681a17,17,0,1,1-17.09,17,17,17,0,0,1,17.09-17"/><path class="cls-4" d="M248,368.25a17,17,0,1,0-17.08-17,17,17,0,0,0,17.08,17"/><path class="cls-4" d="M502,682a17,17,0,1,0,17.08,17A17,17,0,0,0,502,682"/><path class="cls-4" d="M97.49,194.55,79.68,204.77h0l17.78-10.22-20.79-31.3v-.14l-20.8,31.3h0a10.91,10.91,0,0,0,3.8,15.69,13.34,13.34,0,0,0,12.46.31l-4.21,15.69H85.41l-4.16-15.49a13.55,13.55,0,0,0,12.43-.38,10.93,10.93,0,0,0,3.81-15.69"/><path class="cls-4" d="M652.51,855.68l17.81-10.22h0l-17.78,10.22L673.33,887v.14l20.8-31.3h0a10.91,10.91,0,0,0-3.8-15.69,13.34,13.34,0,0,0-12.46-.31l4.21-15.69H664.59l4.16,15.49a13.55,13.55,0,0,0-12.43.38,10.93,10.93,0,0,0-3.81,15.69"/></g><rect class="cls-2" x="153.85" y="396.46" width="432" height="15" transform="translate(-63.06 68.46) rotate(-9.75)"/><rect class="cls-2" x="164.15" y="638.77" width="432" height="15" transform="translate(-103.95 73.71) rotate(-9.75)"/></g></svg>