<?xml version="1.0" encoding="UTF-8"?><svg xmlns="http://www.w3.org/2000/svg" viewBox="0 0 750 1050"><g id="uuid-fecc15c5-9795-4eb1-9ffa-028a43c7ad39"><rect width="750" height="1049.95" rx="44.82" ry="44.82" style="fill:#fff;"/></g><g id="uuid-3158d4f0-18fd-4318-b9f9-19f9f8e945a6"><g><rect x="183.15" y="636.47" width="383.5" height="35.75" style="fill:#282c44;"/><path d="M566.85,437.9h0v-24.16h-23.4v24.16h-13.22v23.4h13.22v18.18c-.81-.1-1.61-.14-2.44-.14-12.13,0-22,9.69-22.19,21.72h-.01v.38c-.05,12.65-4.26,24.28-11.28,33.51l35.93-6.17,23.4-4.02v-63.46h0v-23.4Z" style="fill:#282c44;"/><path d="M183.35,590.64l18.64-3.2h4.56v-.78l151.32-26,35.75-6.15,43.87-7.53c-14.44-9.74-24-26.62-24-45.81v-.12h-.03c.01-.43,.03-.86,.03-1.3,0-14.38-8.05-26.89-19.88-33.26v-10.73h34.77v-35.75h-34.77v-42.24h-35.75v42.24h-34.77v35.75h34.77v10.73c-11.83,6.37-19.88,18.88-19.88,33.26,0,.44,.02,.87,.03,1.3h-.03v.12c0,30.15-23.57,54.6-52.65,54.6s-52.65-24.45-52.65-54.6v-.12h-.05c.01-.31,.05-.61,.05-.91,0-12.21-9.94-22.1-22.21-22.1-1.34,0-2.65,.14-3.93,.37v-18.03h13.32v-23.4h-13.32v-24.16h-23.4v174.63h.19v3.2Z" style="fill:#282c44;"/><polygon points="393.62 574.3 357.87 580.45 183.35 610.44 183.35 610.48 566.85 610.48 566.85 588.38 566.85 544.54 543.45 548.56 393.62 574.3" style="fill:#282c44;"/></g><g><polygon points="58.17 133.75 58.17 174.09 78.25 174.09 78.25 128.37 58.17 133.75" style="fill:#282c44;"/><polygon points="93.26 110.89 115.21 53.37 93.75 53.37 78.25 101.31 78.25 53.37 58.17 53.37 58.17 120.29 93.26 110.89" style="fill:#282c44;"/><polygon points="78.96 128.18 93.75 174.09 115.21 174.09 95.96 123.62 78.96 128.18" style="fill:#282c44;"/></g><path d="M110.02,242.67l-23.15,13.29h0s23.13-13.29,23.13-13.29l-27.04-40.69v-.17l-27.04,40.69h.01c-4.66,7.03-2.45,16.16,4.94,20.4,5.02,2.88,11.19,2.89,16.21,.41l-5.48,20.4h22.72l-5.41-20.15c4.99,2.4,11.2,2.36,16.16-.49,7.39-4.25,9.62-13.38,4.95-20.4" style="fill:#282c44;"/></g></svg>