<svg xmlns="http://www.w3.org/2000/svg" viewBox="0 0 750 1050">
  <defs>
    <clipPath id="a">
      <path style="fill:none" d="M-36-35.88h822v1122H-36z"/>
    </clipPath>
  </defs>
  <rect width="750" height="1049.95" rx="44.82" style="fill:#fff" data-name="Ebene 2"/>
  <g data-name="Ebene 1 Kopie 2">
    <path style="fill:none;stroke:#282c44" d="M36 525.12h678"/>
    <path style="fill:#282c44" d="M57.03 114.81v31.04h15.45v-35.17l-15.45 4.13zM84.03 97.23l16.88-44.25H84.4L72.48 89.86V52.98H57.03v51.48l27-7.23zM73.02 110.53l11.38 35.32h16.51L86.1 107.03l-13.08 3.5zM676.98 939.7l-11.38-35.32h-16.51l14.81 38.82 13.08-3.5zM692.97 935.42v-31.04h-15.45v35.17l15.45-4.13zM665.97 953l-16.88 44.25h16.51l11.92-36.88v36.88h15.45v-51.48l-27 7.23zM227 456.11h295v27.5H227zM228 566.62h295v27.5H228zM361.4 257.12h27.5v162h-27.5zM361.1 631.12h27.5v162h-27.5z"/>
    <path style="fill:#282c44" d="M334.65 289.61h81v27.5h-81zM334.35 733.12h81v27.5h-81zM504.15 284.78h18v134.33h-18zM227.85 631.12h18v134.33h-18zM227 284.07h18V418.4h-18zM505 631.83h18v134.33h-18z"/>
    <path style="fill:#282c44" d="M493.98 303.36h28.17v18h-28.17zM227.85 728.87h28.17v18h-28.17zM227.08 302.65h28.17v18h-28.17zM494.75 729.58h28.17v18h-28.17zM227.15 351.95h295v84.17h-295zM227.85 614.11h295v84.17h-295z"/>
    <g style="clip-path:url(#a)">
      <path d="M375.15 380a29 29 0 1 0-29-29 29 29 0 0 0 29 29M374.85 670.24a29 29 0 1 0 29 29 29 29 0 0 0-29-29" style="fill:#282c44"/>
      <path d="M444.69 394c22.37 0 40.5-18.81 40.5-42s-18.13-42-40.5-42-40.5 18.8-40.5 42 18.13 42 40.5 42M305.31 656.19c-22.37 0-40.5 18.81-40.5 42s18.13 42 40.5 42 40.5-18.8 40.5-42-18.13-42-40.5-42M305.61 394c22.37 0 40.5-18.81 40.5-42s-18.13-42-40.5-42-40.5 18.8-40.5 42 18.13 42 40.5 42M444.39 656.19c-22.37 0-40.5 18.81-40.5 42s18.13 42 40.5 42 40.5-18.8 40.5-42-18.13-42-40.5-42" style="fill:#fff"/>
      <path d="M502.27 369.24a17 17 0 1 1 17.09-17 17 17 0 0 1-17.09 17M247.73 681a17 17 0 1 1-17.09 17 17 17 0 0 1 17.09-17M248 368.25a17 17 0 1 0-17.08-17 17 17 0 0 0 17.08 17M502 682a17 17 0 1 0 17.08 17A17 17 0 0 0 502 682M97.49 194.55l-17.81 10.22 17.78-10.22-20.79-31.3v-.14l-20.8 31.3a10.91 10.91 0 0 0 3.8 15.69 13.34 13.34 0 0 0 12.46.31l-4.21 15.69h17.49l-4.16-15.49a13.55 13.55 0 0 0 12.43-.38 10.93 10.93 0 0 0 3.81-15.69M652.51 855.68l17.81-10.22-17.78 10.22L673.33 887v.14l20.8-31.3a10.91 10.91 0 0 0-3.8-15.69 13.34 13.34 0 0 0-12.46-.31l4.21-15.69h-17.49l4.16 15.49a13.55 13.55 0 0 0-12.43.38 10.93 10.93 0 0 0-3.81 15.69" style="fill:#282c44"/>
    </g>
    <path transform="rotate(-9.75 369.80323309 403.90679928)" style="fill:#fff" d="M153.85 396.46h432v15h-432z"/>
    <path transform="rotate(-9.75 380.13532151 646.24135085)" style="fill:#fff" d="M164.15 638.77h432v15h-432z"/>
  </g>
</svg>
