<svg xmlns="http://www.w3.org/2000/svg" viewBox="0 0 750 1050">
  <defs>
    <clipPath id="a">
      <path style="fill:none" d="M-36-35.75h822v1121.5H-36z"/>
    </clipPath>
  </defs>
  <rect width="750" height="1049.95" rx="44.82" style="fill:#fff" data-name="Ebene 2"/>
  <g data-name="Ebene 1 Kopie 2">
    <path style="fill:#282c44" d="m326.71 305.32 3.09 55.5 2.84 55.17 16.76-3.93 16.9-3.22-19.84-51.56-19.75-51.96zM423.29 744.68l-3.09-55.5-2.84-55.18-16.76 3.94-16.9 3.22 19.84 51.56 19.75 51.96zM420.43 305.32l-3.09 55.5-2.85 55.17-16.75-3.93-16.91-3.22 19.85-51.56 19.75-51.96zM329.57 744.68l3.09-55.5 2.85-55.18 16.75 3.94 16.91 3.22-19.85 51.56-19.75 51.96z"/>
    <g style="clip-path:url(#a)">
      <path d="M90.75 186a13.6 13.6 0 0 0-6.86 1.84l-.22-.32a13.1 13.1 0 0 0 6.14-11 12.9 12.9 0 0 0-12.57-13.2 13.43 13.43 0 0 0-13.32 13.09 12.84 12.84 0 0 0 6.21 11l-.17.25a13.16 13.16 0 0 0-6.21-1.66 13.43 13.43 0 0 0-13.32 13 13.13 13.13 0 0 0 13 13 13.42 13.42 0 0 0 9.38-3.79l-4.83 18h17.81l-4.86-18.1a14.39 14.39 0 0 0 9.53 3.91 13.06 13.06 0 0 0 .29-26.02M659.25 864.05a13.6 13.6 0 0 0 6.86-1.84l.22.32a13.1 13.1 0 0 0-6.14 11 12.9 12.9 0 0 0 12.57 13.2 13.43 13.43 0 0 0 13.32-13.09 12.84 12.84 0 0 0-6.21-11l.17-.25a13.16 13.16 0 0 0 6.21 1.67A13.43 13.43 0 0 0 699.57 851a13.13 13.13 0 0 0-13-13 13.42 13.42 0 0 0-9.38 3.79l4.83-18h-17.81l4.86 18.1a14.39 14.39 0 0 0-9.53-3.91 13.06 13.06 0 0 0-.29 26.11" style="fill:#282c44"/>
    </g>
    <path style="fill:none;stroke:#282c44" d="M36 525.25h678"/>
    <path d="M71.55 100.71V72c0-3.5 1.5-5.24 4.5-5.24h.09q4.55 0 4.55 5.24v26.26l15.44-4.14V72q0-20-20-20t-20 20v32.9ZM96.13 127.61v-23.14l-15.44 4.14v19c0 3.5-1.53 5.24-4.59 5.24s-4.55-1.74-4.55-5.24v-16.55L56.1 115.2v12.41q0 18.71 15.91 19.86c.1 5.59 2.21 9.44 6.36 11.55q4.63 2.4 17.76 2.41v-12.8c-9.49-.07-14.27-.51-14.33-1.35q14.34-1.82 14.33-19.67ZM653.87 922.39v23.14l15.44-4.14v-19c0-3.5 1.53-5.24 4.59-5.24s4.55 1.74 4.55 5.24v16.55l15.45-4.14v-12.41q0-18.71-15.91-19.86c-.1-5.59-2.21-9.44-6.36-11.55q-4.64-2.4-17.76-2.41v12.8c9.49.07 14.27.51 14.33 1.35q-14.34 1.81-14.33 19.67ZM678.45 949.29v28.76c0 3.5-1.5 5.24-4.5 5.24h-.09q-4.54 0-4.55-5.24v-26.31l-15.44 4.14v22.17q0 20 20 20t20-20v-32.9ZM278 455.75h194v28H278zM278 566.25h194v28H278zM473.05 298.14l-39.26 56.6-31.78 45.09-10.5-54.65-17.02-91-.07.38-.07-.38-17.03 91-10.5 54.65-31.78-45.09-39.26-56.6 1.51 68.87.76 53.33v15.91h192.73v-15.91l.77-53.33 1.5-68.87zM276.95 751.86l39.26-56.6 31.78-45.09 10.5 54.65 17.02 91 .07-.37.07.37 17.03-91 10.5-54.65 31.78 45.09 39.26 56.6-1.51-68.87-.76-53.33v-15.91H279.22v15.91l-.77 53.33-1.5 68.87z" style="fill:#282c44"/>
    <g style="clip-path:url(#a)">
      <path d="M374.71 421.33a12.17 12.17 0 1 0-12.17-12.17 12.17 12.17 0 0 0 12.17 12.17M375.29 628.67a12.17 12.17 0 1 0 12.17 12.17 12.17 12.17 0 0 0-12.17-12.17M318 424.75a8.76 8.76 0 1 0-8.8-8.75 8.75 8.75 0 0 0 8.76 8.75M432 625.25a8.76 8.76 0 1 0 8.8 8.75 8.75 8.75 0 0 0-8.76-8.75M429.18 424.75a8.76 8.76 0 1 0-8.75-8.75 8.75 8.75 0 0 0 8.75 8.75M320.82 625.25a8.76 8.76 0 1 0 8.75 8.75 8.75 8.75 0 0 0-8.75-8.75" style="fill:#fff"/>
    </g>
    <path transform="rotate(-8 396.07746136 338.74792113)" style="fill:#fff" d="M193.78 331.15h404.45v15H193.78z"/>
    <path transform="rotate(-8 354.06372181 711.45733708)" style="fill:#fff" d="M151.77 703.85h404.45v15H151.77z"/>
  </g>
</svg>
