<svg xmlns="http://www.w3.org/2000/svg" xmlns:xlink="http://www.w3.org/1999/xlink" viewBox="0 0 750 1050"><defs><style>.cls-1,.cls-5{fill:none;}.cls-2{fill:#fff;}.cls-3{fill:#282c44;}.cls-4{clip-path:url(#clip-path);}.cls-5{stroke:#282c44;}</style><clipPath id="clip-path"><rect class="cls-1" x="-36" y="-35.75" width="822" height="1121.5"/></clipPath></defs><g id="Ebene_2" data-name="Ebene 2"><rect class="cls-2" width="750" height="1049.95" rx="44.82"/></g><g id="Ebene_1_Kopie_2" data-name="Ebene 1 Kopie 2"><polygon class="cls-3" points="326.71 305.32 329.8 360.82 332.64 415.99 349.4 412.06 366.3 408.84 346.46 357.28 326.71 305.32"/><polygon class="cls-3" points="423.29 744.68 420.2 689.18 417.36 634 400.6 637.94 383.7 641.16 403.54 692.72 423.29 744.68"/><polygon class="cls-3" points="420.43 305.32 417.34 360.82 414.49 415.99 397.74 412.06 380.83 408.84 400.68 357.28 420.43 305.32"/><polygon class="cls-3" points="329.57 744.68 332.66 689.18 335.51 634 352.26 637.94 369.17 641.16 349.32 692.72 329.57 744.68"/><g class="cls-4"><path class="cls-3" d="M90.75,186a13.6,13.6,0,0,0-6.86,1.84l-.22-.32a13.1,13.1,0,0,0,6.14-11,12.9,12.9,0,0,0-12.57-13.2,13.43,13.43,0,0,0-13.32,13.09,12.84,12.84,0,0,0,6.21,11l-.17.25A13.16,13.16,0,0,0,63.75,186,13.43,13.43,0,0,0,50.43,199a13.13,13.13,0,0,0,13,13,13.42,13.42,0,0,0,9.38-3.79l-4.83,18H85.79l-4.86-18.1a14.39,14.39,0,0,0,9.53,3.91A13.06,13.06,0,0,0,90.75,186"/><path class="cls-3" d="M659.25,864.05a13.6,13.6,0,0,0,6.86-1.84l.22.32a13.1,13.1,0,0,0-6.14,11,12.9,12.9,0,0,0,12.57,13.2,13.43,13.43,0,0,0,13.32-13.09,12.84,12.84,0,0,0-6.21-11l.17-.25a13.16,13.16,0,0,0,6.21,1.67A13.43,13.43,0,0,0,699.57,851a13.13,13.13,0,0,0-13-13,13.42,13.42,0,0,0-9.38,3.79l4.83-18H664.21l4.86,18.1a14.39,14.39,0,0,0-9.53-3.91,13.06,13.06,0,0,0-.29,26.11"/></g><line class="cls-5" x1="36" y1="525.25" x2="714" y2="525.25"/><path class="cls-3" d="M71.55,100.71V72c0-3.5,1.5-5.24,4.5-5.24h.09q4.55,0,4.55,5.24V98.26l15.44-4.14V72q0-20-20-20t-20,20v32.9Z"/><path class="cls-3" d="M96.13,127.61V104.47l-15.44,4.14v19c0,3.5-1.53,5.24-4.59,5.24s-4.55-1.74-4.55-5.24V111.06L56.1,115.2v12.41q0,18.71,15.91,19.86c.1,5.59,2.21,9.44,6.36,11.55q4.63,2.4,17.76,2.41v-12.8c-9.49-.07-14.27-.51-14.33-1.35Q96.14,145.46,96.13,127.61Z"/><path class="cls-3" d="M653.87,922.39v23.14l15.44-4.14v-19c0-3.5,1.53-5.24,4.59-5.24s4.55,1.74,4.55,5.24v16.55l15.45-4.14V922.39q0-18.71-15.91-19.86c-.1-5.59-2.21-9.44-6.36-11.55q-4.64-2.4-17.76-2.41v12.8c9.49.07,14.27.51,14.33,1.35Q653.86,904.53,653.87,922.39Z"/><path class="cls-3" d="M678.45,949.29v28.76c0,3.5-1.5,5.24-4.5,5.24h-.09q-4.54,0-4.55-5.24V951.74l-15.44,4.14v22.17q0,20,20,20t20-20v-32.9Z"/><rect class="cls-3" x="278" y="455.75" width="194" height="28"/><rect class="cls-3" x="278" y="566.25" width="194" height="28"/><polygon class="cls-3" points="473.05 298.14 433.79 354.74 402.01 399.83 391.51 345.18 374.49 254.18 374.42 254.56 374.35 254.18 357.32 345.18 346.82 399.83 315.04 354.74 275.78 298.14 277.29 367.01 278.05 420.34 278.05 436.25 374.12 436.25 374.71 436.25 470.78 436.25 470.78 420.34 471.55 367.01 473.05 298.14"/><polygon class="cls-3" points="276.95 751.86 316.21 695.26 347.99 650.17 358.49 704.82 375.51 795.82 375.58 795.45 375.65 795.82 392.68 704.82 403.18 650.17 434.96 695.26 474.22 751.86 472.71 682.99 471.95 629.66 471.95 613.75 375.88 613.75 375.29 613.75 279.22 613.75 279.22 629.66 278.45 682.99 276.95 751.86"/><g class="cls-4"><path class="cls-2" d="M374.71,421.33a12.17,12.17,0,1,0-12.17-12.17,12.17,12.17,0,0,0,12.17,12.17"/><path class="cls-2" d="M375.29,628.67a12.17,12.17,0,1,0,12.17,12.17,12.17,12.17,0,0,0-12.17-12.17"/><path class="cls-2" d="M318,424.75A8.76,8.76,0,1,0,309.2,416a8.75,8.75,0,0,0,8.76,8.75"/><path class="cls-2" d="M432,625.25A8.76,8.76,0,1,0,440.8,634a8.75,8.75,0,0,0-8.76-8.75"/><path class="cls-2" d="M429.18,424.75a8.76,8.76,0,1,0-8.75-8.75,8.75,8.75,0,0,0,8.75,8.75"/><path class="cls-2" d="M320.82,625.25a8.76,8.76,0,1,0,8.75,8.75,8.75,8.75,0,0,0-8.75-8.75"/></g><rect class="cls-2" x="193.78" y="331.15" width="404.45" height="15" transform="translate(-43.29 58.42) rotate(-8)"/><rect class="cls-2" x="151.77" y="703.85" width="404.45" height="15" transform="translate(-95.57 56.2) rotate(-8)"/></g></svg>