<?xml version="1.0" encoding="UTF-8"?><svg xmlns="http://www.w3.org/2000/svg" viewBox="0 0 750 1050"><g id="uuid-44f59e42-e4b4-42de-896f-238ee3e86f73"><rect width="750" height="1049.95" rx="44.82" ry="44.82" style="fill:#fff;"/></g><g id="uuid-e5f9e803-6e36-4c42-b93b-bb7364d83987"><g><polygon points="329.64 486.07 315.53 488.05 312.98 442.26 329.64 486.07" style="fill:#282c44;"/><polygon points="434.82 442.26 433.19 471.51 423.16 472.93 434.82 442.26" style="fill:#282c44;"/><rect x="249.66" y="637.82" width="252.2" height="36.4" style="fill:#282c44;"/><polygon points="287.72 491.96 248.19 497.51 246.77 432.93 287.72 491.96" style="fill:#282c44;"/><polygon points="394.04 477.02 354.93 482.51 374.9 375.78 375.01 376.27 375.1 375.78 394.04 477.02" style="fill:#282c44;"/><path d="M465.99,486.6l-13.81,19.9-22.63,32.11,1.25-24.21,1.29-23.05-16.84,2.37-6.11,16.08-5.94,15.42-5.58-29.02-46.51,6.53-5.06,26.3-7.4-19.23-1.92-5.04-20.11,2.82,.38,6.82,1.07,20.83-17.86-25.34-51.58,7.24,.12,5.32,.99,69.33v20.68h250.55v-20.68l.99-69.33,.9-40.94-36.17,5.08Zm-164.39,110.92c-6.29,0-11.39-5.1-11.39-11.37s5.1-11.39,11.39-11.39,11.37,5.1,11.37,11.39-5.1,11.37-11.37,11.37Zm73.77-4.45c-8.57,0-15.55-6.81-15.81-15.31-.01-.17-.01-.34-.01-.51,0-2.83,.74-5.49,2.05-7.79,2.72-4.8,7.86-8.02,13.77-8.02,4.71,0,8.94,2.05,11.83,5.32,2.48,2.79,3.99,6.46,3.99,10.49,0,.36-.01,.73-.04,1.08-.55,8.23-7.41,14.74-15.78,14.74Zm70.81,4.45c-6.29,0-11.37-5.1-11.37-11.37s5.08-11.39,11.37-11.39,11.37,5.1,11.37,11.39-5.1,11.37-11.37,11.37Z" style="fill:#282c44;"/><polygon points="503.23 432.93 502.59 461.76 481.14 464.78 503.23 432.93" style="fill:#282c44;"/></g><g><path d="M108.42,150.07v-29.78l-20.08,5.38v24.4c0,4.54-1.99,6.81-5.97,6.81s-5.91-2.27-5.91-6.81v-21.22l-20.08,5.38v15.84c0,16.2,6.89,24.8,20.68,25.81,.12,7.28,2.87,12.28,8.26,15.01,4.02,2.09,11.72,3.14,23.1,3.14v-16.64c-12.34-.08-18.55-.66-18.63-1.75,12.42-1.57,18.63-10.09,18.63-25.57Z" style="fill:#282c44;"/><path d="M76.45,115.4v-37.68c0-4.54,1.95-6.81,5.85-6.81h.12c3.94,.04,5.91,2.31,5.91,6.81v34.5l20.08-5.38v-29.12c0-17.37-8.68-26.05-26.05-26.05s-25.99,8.68-25.99,26.05v43.07l20.08-5.38Z" style="fill:#282c44;"/></g><path d="M101.85,229.36c-3.12-.04-6.2,.85-8.91,2.4l-.29-.42c4.73-2.94,7.92-8.24,7.98-14.33,.1-9.37-7.22-17.05-16.35-17.16-9.14-.11-17.21,7.64-17.31,17.02-.07,6.09,3.25,11.36,8.08,14.34l-.22,.33c-2.44-1.35-5.2-2.13-8.08-2.17-9.14-.11-17.21,7.64-17.31,17.02-.1,9.37,7.8,16.81,16.93,16.92,4.61,.05,8.98-1.84,12.2-4.92l-6.28,23.38h23.11l-6.32-23.53c3.29,3.1,7.78,5.03,12.39,5.08,9.13,.11,16.62-7.4,16.73-16.78,.1-9.37-7.22-17.05-16.35-17.16" style="fill:#282c44;"/></g></svg>