<svg xmlns="http://www.w3.org/2000/svg" viewBox="0 0 750 1050">
  <rect width="750" height="1049.95" rx="44.82" style="fill:#fff" data-name="Ebene 2"/>
  <g data-name="Ebene 1 Kopie 2">
    <path style="fill:none;stroke:#282c44" d="M36 525h678"/>
    <path d="M96.13 127.36v-22.91l-15.44 4.14v18.77c0 3.5-1.53 5.24-4.59 5.24s-4.55-1.74-4.55-5.24V111l-15.45 4.18v12.18q0 18.71 15.91 19.86c.1 5.59 2.21 9.44 6.36 11.55q4.63 2.4 17.76 2.41v-12.8c-9.49-.07-14.27-.51-14.33-1.35q14.34-1.8 14.33-19.67Zm-24.58-26.67v-29q0-5.24 4.5-5.24h.09q4.55 0 4.55 5.24v26.55l15.44-4.14V71.7q0-20-20-20t-20 20v33.13Zm582.32 821.95v22.91l15.44-4.14v-18.77c0-3.5 1.53-5.24 4.59-5.24s4.55 1.74 4.55 5.24V939l15.45-4.14v-12.22q0-18.71-15.91-19.86c-.1-5.59-2.21-9.44-6.36-11.55q-4.64-2.4-17.76-2.41v12.8c9.49.07 14.27.51 14.33 1.35q-14.34 1.81-14.33 19.67Zm24.58 26.67v29q0 5.24-4.5 5.24h-.09q-4.54 0-4.55-5.24v-26.55l-15.44 4.14v22.4q0 20 20 20t20-20v-33.13ZM77.32 163.13l-22.12 31.5 22.12 31.5 22.12-31.5-22.12-31.5zm595.36 723.74 22.12-31.5-22.12-31.5-22.12 31.5 22.12 31.5zM278 455.5h194v28H278zm0 111h194v28H278zm194.73-170.97-141-65.73-5 10-21.43 42.07-4.17-5.84-29.46-41.88 4.35 51 1.85 22.85h-.06v28h194v-28h-.06ZM374.81 422l-22.12-31.5 22.12-31.5 22.12 31.5Zm99.2-42.42 3.87-45.41-25.01 35.55 21.14 9.86zm-40.57-18.92-10.61-20.84L374.81 243l-36.38 73.36 95.01 44.3zM277.27 654.47l141 65.73 5-10 21.43-42.07 4.1 5.87 29.46 41.88-4.35-51-1.78-22.88h.06v-28h-194v28h.06ZM375.19 628l22.12 31.5-22.12 31.5-22.12-31.5Zm-58.63 61.34 10.61 20.84L375.19 807l36.38-73.36-95.01-44.3zm-40.57-18.92-3.87 45.41 25.01-35.55-21.14-9.86z" style="fill:#a4203a"/>
  </g>
</svg>
