<?xml version="1.0" encoding="UTF-8"?><svg xmlns="http://www.w3.org/2000/svg" xmlns:xlink="http://www.w3.org/1999/xlink" viewBox="0 0 750 1050"><defs><clipPath id="uuid-ff07bc27-6350-4975-b6c2-a68d3e9a8bf2"><rect x="882.05" y="1182.02" width="749.89" height="1049.95" rx="84.97" ry="84.97" style="fill:none;"/></clipPath><clipPath id="uuid-07e63886-275a-4966-a86c-a2d87a7a9f5d"><rect x="280.39" y="705.36" width="2226.37" height="2128.61" style="fill:none;"/></clipPath></defs><g id="uuid-80aa309b-4306-4839-b3b9-72b1653a7b91"><rect width="750" height="1049.95" rx="44.82" ry="44.82" style="fill:#fff;"/></g><g id="uuid-e7ec3a40-1a9c-42d5-aee7-d48608e84980"><g><path d="M108.42,150.07v-29.78l-20.08,5.38v24.4c0,4.54-1.99,6.81-5.97,6.81s-5.91-2.27-5.91-6.81v-21.22l-20.08,5.38v15.84c0,16.2,6.89,24.8,20.68,25.81,.12,7.28,2.87,12.28,8.26,15.01,4.02,2.09,11.72,3.14,23.1,3.14v-16.64c-12.34-.08-18.55-.66-18.63-1.75,12.42-1.57,18.63-10.09,18.63-25.57Z" style="fill:#a4203a;"/><path d="M76.45,115.4v-37.68c0-4.54,1.95-6.81,5.85-6.81h.12c3.94,.04,5.91,2.31,5.91,6.81v34.5l20.08-5.38v-29.12c0-17.37-8.68-26.05-26.05-26.05s-25.99,8.68-25.99,26.05v43.07l20.08-5.38Z" style="fill:#a4203a;"/></g><g><rect x="249.15" y="644.93" width="252.2" height="36.4" style="fill:#a4203a;"/><g><path d="M502.29,566.97l-183.25-85.45-6.46,13.03-27.85,54.69-5.42-7.59-38.31-54.44,5.65,66.33,2.32,29.65h-.08v36.4h0s0,0,0,0h252.2v-36.4h-.08l1.27-16.21Zm-127.29,34.41l-28.76-40.95,28.76-40.95,28.75,40.95-28.75,40.95Z" style="fill:#a4203a;"/><polygon points="503.96 546.23 508.99 487.2 476.48 533.41 503.96 546.23" style="fill:#a4203a;"/><polygon points="451.22 521.64 437.42 494.54 375 368.67 327.71 464.04 451.22 521.64" style="fill:#a4203a;"/></g></g><g style="clip-path:url(#uuid-ff07bc27-6350-4975-b6c2-a68d3e9a8bf2);"><g style="clip-path:url(#uuid-07e63886-275a-4966-a86c-a2d87a7a9f5d);"><line x1="1420.47" y1="709.07" x2="734.28" y2="2830.25" style="fill:none; stroke:#fff; stroke-width:20px;"/></g></g><polygon points="82.89 196.22 54.13 237.17 82.89 278.12 111.65 237.17 82.89 196.22" style="fill:#a4203a;"/><g><path d="M641.58,899.93v29.78l20.08-5.38v-24.4c0-4.54,1.99-6.81,5.97-6.81s5.91,2.27,5.91,6.81v21.22l20.08-5.38v-15.84c0-16.2-6.89-24.8-20.68-25.81-.12-7.28-2.87-12.28-8.26-15.01-4.02-2.09-11.72-3.14-23.1-3.14v16.64c12.34,.08,18.55,.66,18.63,1.75-12.42,1.57-18.63,10.09-18.63,25.57Z" style="fill:#a4203a;"/><path d="M673.55,934.6v37.68c0,4.54-1.95,6.81-5.85,6.81h-.12c-3.94-.04-5.91-2.31-5.91-6.81v-34.5l-20.08,5.38v29.12c0,17.37,8.68,26.05,26.05,26.05s25.99-8.68,25.99-26.05v-43.07l-20.08,5.38Z" style="fill:#a4203a;"/></g><polygon points="667.11 853.78 695.87 812.83 667.11 771.88 638.35 812.83 667.11 853.78" style="fill:#a4203a;"/></g></svg>