<svg xmlns="http://www.w3.org/2000/svg" viewBox="0 0 750 1050"><defs><style>.cls-1{fill:#fff;}.cls-2{fill:none;stroke:#282c44;}.cls-3{fill:#a4203a;}</style></defs><g id="Ebene_2" data-name="Ebene 2"><rect class="cls-1" width="750" height="1049.95" rx="44.82"/></g><g id="Ebene_1_Kopie_2" data-name="Ebene 1 Kopie 2"><line class="cls-2" x1="36" y1="525" x2="714" y2="525"/><path class="cls-3" d="M96.13,127.36V104.45l-15.44,4.14v18.77c0,3.5-1.53,5.24-4.59,5.24s-4.55-1.74-4.55-5.24V111L56.1,115.18v12.18q0,18.71,15.91,19.86c.1,5.59,2.21,9.44,6.36,11.55q4.63,2.4,17.76,2.41v-12.8c-9.49-.07-14.27-.51-14.33-1.35Q96.14,145.23,96.13,127.36Z"/><path class="cls-3" d="M71.55,100.69v-29q0-5.24,4.5-5.24h.09q4.55,0,4.55,5.24V98.24L96.13,94.1V71.7q0-20-20-20t-20,20v33.13Z"/><path class="cls-3" d="M653.87,922.64v22.91l15.44-4.14V922.64c0-3.5,1.53-5.24,4.59-5.24s4.55,1.74,4.55,5.24V939l15.45-4.14V922.64q0-18.71-15.91-19.86c-.1-5.59-2.21-9.44-6.36-11.55q-4.64-2.4-17.76-2.41v12.8c9.49.07,14.27.51,14.33,1.35Q653.86,904.78,653.87,922.64Z"/><path class="cls-3" d="M678.45,949.31v29q0,5.24-4.5,5.24h-.09q-4.54,0-4.55-5.24V951.76l-15.44,4.14v22.4q0,20,20,20t20-20V945.17Z"/><polygon class="cls-3" points="77.32 163.13 55.2 194.63 77.32 226.13 99.44 194.63 77.32 163.13"/><polygon class="cls-3" points="672.68 886.87 694.8 855.37 672.68 823.87 650.56 855.37 672.68 886.87"/><rect class="cls-3" x="278" y="455.5" width="194" height="28"/><rect class="cls-3" x="278" y="566.5" width="194" height="28"/><path class="cls-3" d="M472.73,395.53l-141-65.73-5,10-21.43,42.07-4.17-5.84-29.46-41.88,4.35,51L277.87,408h-.06v28h194V408h-.06ZM374.81,422l-22.12-31.5L374.81,359l22.12,31.5Z"/><polygon class="cls-3" points="474.01 379.58 477.88 334.17 452.87 369.72 474.01 379.58"/><polygon class="cls-3" points="433.44 360.66 422.83 339.82 374.81 243 338.43 316.36 433.44 360.66"/><path class="cls-3" d="M277.27,654.47l141,65.73,5-10,21.43-42.07L448.8,674l29.46,41.88-4.35-51L472.13,642h.06V614h-194v28h.06ZM375.19,628l22.12,31.5L375.19,691l-22.12-31.5Z"/><polygon class="cls-3" points="316.56 689.34 327.17 710.18 375.19 807 411.57 733.64 316.56 689.34"/><polygon class="cls-3" points="275.99 670.42 272.12 715.83 297.13 680.28 275.99 670.42"/></g></svg>