<svg xmlns="http://www.w3.org/2000/svg" width="80" height="112" fill="none"><rect width="80" height="112" fill="#fff" rx="5"/><path fill="#DC3059" d="M7.652 23.632c0 2.912 1.534 4.576 4.342 4.576.754 0 1.43-.13 2.002-.338.39.78 1.196 1.248 2.47 1.248h.39V26.57h-.26c-.468 0-.676-.052-.806-.39.364-.676.546-1.534.546-2.548v-9.464c0-2.912-1.534-4.576-4.342-4.576s-4.342 1.664-4.342 4.576v9.464Zm2.86-9.646c0-1.3.572-1.794 1.482-1.794s1.482.494 1.482 1.794v9.828c0 1.3-.572 1.794-1.482 1.794s-1.482-.494-1.482-1.794v-9.828ZM12.057 36.667l5.276 7.295-5.39 7.371-5.276-7.295 5.39-7.371ZM40.085 45 48 55.943 39.915 67 32 56.057 40.085 45ZM72.348 88.368c0-2.912-1.534-4.576-4.342-4.576-.754 0-1.43.13-2.002.338-.39-.78-1.196-1.248-2.47-1.248h-.39v2.548h.26c.468 0 .676.052.806.39-.364.676-.546 1.534-.546 2.548v9.464c0 2.912 1.534 4.576 4.342 4.576s4.342-1.664 4.342-4.576v-9.464Zm-2.86 9.646c0 1.3-.572 1.794-1.482 1.794s-1.482-.494-1.482-1.794v-9.828c0-1.3.572-1.794 1.482-1.794s1.482.494 1.482 1.794v9.828ZM67.943 75.333l-5.276-7.295 5.39-7.371 5.276 7.295-5.39 7.371Z"/></svg>