<?xml version="1.0" encoding="UTF-8"?><svg xmlns="http://www.w3.org/2000/svg" viewBox="0 0 750 1050"><g id="uuid-e7ff3673-602f-42c0-a90d-05a1625a2fe1"><rect width="750" height="1049.95" rx="44.82" ry="44.82" style="fill:#fff;"/></g><g id="uuid-8bc6d2b8-4d8a-4f2c-a7ea-8ee315ce7802"><g><rect x="249.04" y="689.28" width="252.2" height="36.4" style="fill:#a4203a;"/><polygon points="336.11 618.12 335.99 618.12 336.02 617.91 336.11 618.12" style="fill:#a4203a;"/><polygon points="416.18 618.12 414.27 618.12 415.68 614.65 416.18 618.12" style="fill:#a4203a;"/><polygon points="416.18 618.12 414.27 618.12 415.68 614.65 416.18 618.12" style="fill:#a4203a;"/><polygon points="336.11 618.12 335.99 618.12 336.02 617.91 336.11 618.12" style="fill:#a4203a;"/><path d="M380.43,364.66l7.05,50.65-25.79,21.64,10.04-72.05c-9.36-1.81-16.43-10.13-16.43-20.11,0-11.3,9.07-20.48,20.25-20.48s20.27,9.18,20.27,20.48c0,9.61-6.55,17.67-15.38,19.86Z" style="fill:#a4203a;"/><path d="M287.76,498.97l-40.39,33.89-.07-4.68-2.29-114.71c-.14,.01-.3,.01-.44,.01-11.19,0-20.25-9.16-20.25-20.48s9.06-20.48,20.25-20.48,20.25,9.16,20.25,20.48c0,8.36-4.95,15.56-12.06,18.73l35,87.23Z" style="fill:#a4203a;"/><path d="M525.68,393.01c0,11.31-9.06,20.48-20.25,20.48-.13,0-.26,0-.39-.01l-2.17,115.54-1.6,114.73v21.18H249.06v-20.48l-1.3-86.45,47.63-39.98,.14,.35,40.48,99.54-.03,.21h.12l-.09-.21,16.95-118.47,4.69-33.67,32.99-27.68,8.54,61.35,16.48,115.21-1.42,3.47h1.91l-.49-3.47,38.95-95.45,43.16-107.22c-7.41-3.04-12.62-10.39-12.62-18.97,0-11.31,9.06-20.48,20.25-20.48s20.25,9.16,20.25,20.48Z" style="fill:#a4203a;"/></g><g><path d="M108.42,150.07v-29.78l-20.08,5.38v24.4c0,4.54-1.99,6.81-5.97,6.81s-5.91-2.27-5.91-6.81v-21.22l-20.08,5.38v15.84c0,16.2,6.89,24.8,20.68,25.81,.12,7.28,2.87,12.28,8.26,15.01,4.02,2.09,11.72,3.14,23.1,3.14v-16.64c-12.34-.08-18.55-.66-18.63-1.75,12.42-1.57,18.63-10.09,18.63-25.57Z" style="fill:#a4203a;"/><path d="M76.45,115.4v-37.68c0-4.54,1.95-6.81,5.85-6.81h.12c3.94,.04,5.91,2.31,5.91,6.81v34.5l20.08-5.38v-29.12c0-17.37-8.68-26.05-26.05-26.05s-25.99,8.68-25.99,26.05v43.07l20.08-5.38Z" style="fill:#a4203a;"/></g><path d="M110.57,204.89c-9.1-5.4-21.6-2.99-27.59,5.76v-.22c-5.99-8.75-18.5-11.16-27.6-5.76-9.23,5.48-12,17.26-6.17,26.32l33.77-20.04-33.75,20.04,33.75,52.49v.22l33.75-52.49-33.75-20.04,33.76,20.04c5.82-9.06,3.06-20.84-6.17-26.32" style="fill:#a4203a;"/><g><path d="M641.58,899.93v29.78l20.08-5.38v-24.4c0-4.54,1.99-6.81,5.97-6.81s5.91,2.27,5.91,6.81v21.22l20.08-5.38v-15.84c0-16.2-6.89-24.8-20.68-25.81-.12-7.28-2.87-12.28-8.26-15.01-4.02-2.09-11.72-3.14-23.1-3.14v16.64c12.34,.08,18.55,.66,18.63,1.75-12.42,1.57-18.63,10.09-18.63,25.57Z" style="fill:#a4203a;"/><path d="M673.55,934.6v37.68c0,4.54-1.95,6.81-5.85,6.81h-.12c-3.94-.04-5.91-2.31-5.91-6.81v-34.5l-20.08,5.38v29.12c0,17.37,8.68,26.05,26.05,26.05s25.99-8.68,25.99-26.05v-43.07l-20.08,5.38Z" style="fill:#a4203a;"/></g><path d="M639.43,845.11c9.1,5.4,21.6,2.99,27.59-5.76v.22c5.99,8.75,18.5,11.16,27.6,5.76,9.23-5.48,12-17.26,6.17-26.32l-33.77,20.04,33.75-20.04-33.75-52.49v-.22l-33.75,52.49,33.75,20.04-33.76-20.04c-5.82,9.06-3.06,20.84,6.17,26.32" style="fill:#a4203a;"/></g></svg>