<svg xmlns="http://www.w3.org/2000/svg" xmlns:xlink="http://www.w3.org/1999/xlink" viewBox="0 0 750 1050"><defs><style>.cls-1,.cls-3{fill:none;}.cls-2{fill:#fff;}.cls-3{stroke:#282c44;}.cls-4{fill:#a4203a;}.cls-5{clip-path:url(#clip-path);}</style><clipPath id="clip-path"><rect class="cls-1" x="-36" y="-35.75" width="822" height="1121.5"/></clipPath></defs><g id="Ebene_2" data-name="Ebene 2"><rect class="cls-2" width="750" height="1049.95" rx="44.82"/></g><g id="Ebene_1_Kopie_2" data-name="Ebene 1 Kopie 2"><line class="cls-3" x1="36" y1="525.25" x2="714" y2="525.25"/><rect class="cls-4" x="278" y="455.75" width="194" height="28"/><rect class="cls-4" x="278" y="566.25" width="194" height="28"/><rect class="cls-4" x="278.02" y="401.01" width="194" height="36"/><rect class="cls-4" x="277.98" y="612.98" width="194" height="36"/><g class="cls-5"><path class="cls-4" d="M98.54,165.75c-7-4.16-16.61-2.3-21.22,4.43V170c-4.6-6.73-14.23-8.59-21.23-4.43a14.34,14.34,0,0,0-4.74,20.25l26-15.42-26,15.42,26,40.38v.17l26-40.38-26-15.42,26,15.42a14.35,14.35,0,0,0-4.75-20.25"/><path class="cls-4" d="M651.46,884.25c7,4.15,16.61,2.3,21.22-4.43V880c4.6,6.73,14.23,8.58,21.23,4.43a14.34,14.34,0,0,0,4.74-20.25l-26,15.42,26-15.42-26-40.38v-.17l-26,40.38,26,15.42-26-15.42a14.35,14.35,0,0,0,4.75,20.25"/></g><path class="cls-4" d="M71.55,100.94V72c0-3.5,1.5-5.24,4.5-5.24h.09q4.55,0,4.55,5.24V98.49l15.44-4.14V72q0-20-20-20t-20,20v33.13Z"/><path class="cls-4" d="M96.13,127.61V104.7l-15.44,4.14v18.77c0,3.5-1.53,5.24-4.59,5.24s-4.55-1.74-4.55-5.24V111.29L56.1,115.43v12.18q0,18.71,15.91,19.86c.1,5.59,2.21,9.44,6.36,11.55q4.63,2.4,17.76,2.41v-12.8c-9.49-.07-14.27-.51-14.33-1.35Q96.14,145.46,96.13,127.61Z"/><path class="cls-4" d="M653.87,922.39V945.3l15.44-4.14V922.39c0-3.5,1.53-5.24,4.59-5.24s4.55,1.74,4.55,5.24v16.32l15.45-4.14V922.39q0-18.71-15.91-19.86c-.1-5.59-2.21-9.44-6.36-11.55q-4.64-2.4-17.76-2.41v12.8c9.49.07,14.27.51,14.33,1.35Q653.86,904.53,653.87,922.39Z"/><path class="cls-4" d="M678.45,949.06v29q0,5.24-4.5,5.24h-.09q-4.54,0-4.55-5.24V951.51l-15.44,4.14v22.4q0,20,20,20t20-20V944.92Z"/><polygon class="cls-4" points="375.73 182.08 357.95 309.72 339.81 436.5 375.73 435.65 411.65 436.5 393.51 309.72 375.73 182.08"/><polygon class="cls-4" points="374.27 867.92 392.05 740.28 410.19 613.5 374.27 614.35 338.35 613.5 356.49 740.28 374.27 867.92"/><polygon class="cls-4" points="475.22 227.85 436.15 324.92 396.84 421.25 434.46 428.2 471.8 436.5 473.25 332.47 475.22 227.85"/><polygon class="cls-4" points="274.78 822.15 313.85 725.08 353.16 628.75 315.54 621.79 278.2 613.5 276.75 717.53 274.78 822.15"/><polygon class="cls-4" points="274.57 226.56 313.77 324.28 353.21 421.25 315.6 428.2 278.25 436.5 276.67 331.83 274.57 226.56"/><polygon class="cls-4" points="475.43 823.44 436.23 725.72 396.79 628.75 434.4 621.8 471.75 613.5 473.33 718.17 475.43 823.44"/><g class="cls-5"><path class="cls-4" d="M375.31,206.51a15.75,15.75,0,1,0-15.58-15.75,15.67,15.67,0,0,0,15.58,15.75"/><path class="cls-4" d="M374.69,843.49a15.75,15.75,0,1,0,15.58,15.75,15.67,15.67,0,0,0-15.58-15.75"/><path class="cls-4" d="M274.57,243.6A15.75,15.75,0,1,0,259,227.85a15.66,15.66,0,0,0,15.58,15.75"/><path class="cls-4" d="M475.43,806.4A15.75,15.75,0,1,0,491,822.15a15.66,15.66,0,0,0-15.58-15.75"/><path class="cls-4" d="M475.22,243.6a15.75,15.75,0,1,0-15.58-15.75,15.66,15.66,0,0,0,15.58,15.75"/><path class="cls-4" d="M274.78,806.4a15.75,15.75,0,1,0,15.58,15.75,15.66,15.66,0,0,0-15.58-15.75"/></g><rect class="cls-2" x="119.58" y="288.34" width="432" height="15" transform="translate(-111.65 284.92) rotate(-40)"/><rect class="cls-2" x="198.42" y="746.66" width="432" height="15" transform="translate(-387.81 442.82) rotate(-40)"/></g></svg>