<svg xmlns="http://www.w3.org/2000/svg" viewBox="0 0 750 1050">
  <defs>
    <clipPath id="clip-path">
      <path style="fill:none" d="M-36-35.75h822v1121.5H-36z"/>
    </clipPath>
    <style>
      .cls-2{fill:#fff}.cls-4{fill:#a4203a}.cls-5{clip-path:url(#clip-path)}
    </style>
  </defs>
  <rect class="cls-2" width="750" height="1049.95" rx="44.82" id="Ebene_2" data-name="Ebene 2"/>
  <g id="Ebene_1_Kopie_2" data-name="Ebene 1 Kopie 2">
    <path style="stroke:#282c44;fill:none" d="M36 525.25h678"/>
    <path class="cls-4" d="M278 455.75h194v28H278zm0 110.5h194v28H278zm.02-165.24h194v36h-194zm-.04 211.97h194v36h-194z"/>
    <g class="cls-5">
      <path class="cls-4" d="M98.54 165.75c-7-4.16-16.61-2.3-21.22 4.43V170c-4.6-6.73-14.23-8.59-21.23-4.43a14.34 14.34 0 0 0-4.74 20.25l26-15.42-26 15.42 26 40.38v.17l26-40.38-26-15.42 26 15.42a14.35 14.35 0 0 0-4.75-20.25m552.86 718.51c7 4.15 16.61 2.3 21.22-4.43v.18c4.6 6.73 14.23 8.58 21.23 4.43a14.34 14.34 0 0 0 4.74-20.25l-26 15.42 26-15.42-26-40.38v-.17l-26 40.38 26 15.42-26-15.42a14.35 14.35 0 0 0 4.75 20.25"/>
    </g>
    <path class="cls-4" d="M71.55 100.94V72c0-3.5 1.5-5.24 4.5-5.24h.09q4.55 0 4.55 5.24v26.49l15.44-4.14V72q0-20-20-20t-20 20v33.13Zm24.58 26.67V104.7l-15.44 4.14v18.77c0 3.5-1.53 5.24-4.59 5.24s-4.55-1.74-4.55-5.24v-16.32l-15.45 4.14v12.18q0 18.71 15.91 19.86c.1 5.59 2.21 9.44 6.36 11.55q4.63 2.4 17.76 2.41v-12.8c-9.49-.07-14.27-.51-14.33-1.35q14.34-1.82 14.33-19.67Zm557.74 794.78v22.91l15.44-4.14v-18.77c0-3.5 1.53-5.24 4.59-5.24s4.55 1.74 4.55 5.24v16.32l15.45-4.14v-12.18q0-18.71-15.91-19.86c-.1-5.59-2.21-9.44-6.36-11.55q-4.64-2.4-17.76-2.41v12.8c9.49.07 14.27.51 14.33 1.35q-14.34 1.81-14.33 19.67Zm24.58 26.67v29q0 5.24-4.5 5.24h-.09q-4.54 0-4.55-5.24v-26.55l-15.44 4.14v22.4q0 20 20 20t20-20v-33.13ZM375.73 182.08l-17.78 127.64-18.14 126.78 35.92-.85 35.92.85-18.14-126.78-17.78-127.64zm-1.46 685.84 17.78-127.64 18.14-126.78-35.92.85-35.92-.85 18.14 126.78 17.78 127.64z"/>
    <path class="cls-4" d="m475.22 227.85-39.07 97.07-39.31 96.33 37.62 6.95 37.34 8.3 1.45-104.03 1.97-104.62zm-200.44 594.3 39.07-97.07 39.31-96.33-37.62-6.96-37.34-8.29-1.45 104.03-1.97 104.62zm-.21-595.59 39.2 97.72 39.44 96.97-37.61 6.95-37.35 8.3-1.58-104.67-2.1-105.27zm200.86 596.88-39.2-97.72-39.44-96.97 37.61-6.95 37.35-8.3 1.58 104.67 2.1 105.27z"/>
    <g class="cls-5">
      <path class="cls-4" d="M375.31 206.51a15.75 15.75 0 1 0-15.58-15.75 15.67 15.67 0 0 0 15.58 15.75m-.62 636.98a15.75 15.75 0 1 0 15.58 15.75 15.67 15.67 0 0 0-15.58-15.75M274.57 243.6A15.75 15.75 0 1 0 259 227.85a15.66 15.66 0 0 0 15.58 15.75m200.85 562.8A15.75 15.75 0 1 0 491 822.15a15.66 15.66 0 0 0-15.58-15.75m-.2-562.8a15.75 15.75 0 1 0-15.58-15.75 15.66 15.66 0 0 0 15.58 15.75M274.78 806.4a15.75 15.75 0 1 0 15.58 15.75 15.66 15.66 0 0 0-15.58-15.75"/>
    </g>
    <path class="cls-2" transform="rotate(-40 335.58063318 295.83792694)" d="M119.58 288.34h432v15h-432z"/>
    <path class="cls-2" transform="rotate(-40 414.41397544 754.15960902)" d="M198.42 746.66h432v15h-432z"/>
  </g>
</svg>
