<svg xmlns="http://www.w3.org/2000/svg" xmlns:xlink="http://www.w3.org/1999/xlink" viewBox="0 0 750 1050"><defs><style>.cls-1,.cls-4,.cls-5,.cls-6{fill:none;}.cls-2{fill:#fff;}.cls-3{clip-path:url(#clip-path);}.cls-4,.cls-5,.cls-6{stroke:#282c44;}.cls-4{stroke-width:7.13px;}.cls-5{stroke-width:9px;}.cls-7{fill:#282c44;}</style><clipPath id="clip-path"><rect class="cls-1" x="-36" y="-35.68" width="822" height="1121.37"/></clipPath></defs><g id="Ebene_2" data-name="Ebene 2"><rect class="cls-2" width="750" height="1049.95" rx="44.82"/></g><g id="Ebene_1_Kopie_2" data-name="Ebene 1 Kopie 2"><g class="cls-3"><path class="cls-2" d="M295.06,431.85s18.27-14.69,15.85-28.4-24.61-21.27-24.61-21.27-18.27,14.68-15.85,28.4,24.61,21.27,24.61,21.27"/><path class="cls-4" d="M295.06,431.85s18.27-14.69,15.85-28.4-24.61-21.27-24.61-21.27-18.27,14.68-15.85,28.4S295.06,431.85,295.06,431.85Z"/><path class="cls-2" d="M454.94,618.15s-18.27,14.69-15.85,28.4,24.61,21.27,24.61,21.27,18.27-14.68,15.85-28.4-24.61-21.27-24.61-21.27"/><path class="cls-4" d="M454.94,618.15s-18.27,14.69-15.85,28.4,24.61,21.27,24.61,21.27,18.27-14.68,15.85-28.4S454.94,618.15,454.94,618.15Z"/><path class="cls-2" d="M452.6,432.36s-18.27-14.68-15.86-28.4,24.61-21.27,24.61-21.27,18.27,14.69,15.86,28.4-24.61,21.27-24.61,21.27"/><path class="cls-4" d="M452.6,432.36s-18.27-14.68-15.86-28.4,24.61-21.27,24.61-21.27,18.27,14.69,15.86,28.4S452.6,432.36,452.6,432.36Z"/><path class="cls-2" d="M297.4,617.64s18.27,14.69,15.86,28.4-24.61,21.27-24.61,21.27-18.27-14.69-15.86-28.4,24.61-21.27,24.61-21.27"/><path class="cls-4" d="M297.4,617.64s18.27,14.69,15.86,28.4-24.61,21.27-24.61,21.27-18.27-14.69-15.86-28.4S297.4,617.64,297.4,617.64Z"/><path class="cls-2" d="M326.6,430.53s23.09-18.82,20-36.46-31.24-27.44-31.24-27.44-23.08,18.82-20,36.47,31.23,27.43,31.23,27.43"/><path class="cls-5" d="M326.6,430.53s23.09-18.82,20-36.46-31.24-27.44-31.24-27.44-23.08,18.82-20,36.47S326.6,430.53,326.6,430.53Z"/><path class="cls-2" d="M423.4,619.47s-23.09,18.82-20,36.46,31.24,27.44,31.24,27.44,23.08-18.82,20-36.47-31.23-27.43-31.23-27.43"/><path class="cls-5" d="M423.4,619.47s-23.09,18.82-20,36.46,31.24,27.44,31.24,27.44,23.08-18.82,20-36.47S423.4,619.47,423.4,619.47Z"/><path class="cls-2" d="M420.42,431.05s-23.09-18.82-20-36.47,31.24-27.43,31.24-27.43,23.08,18.82,20,36.46-31.23,27.44-31.23,27.44"/><path class="cls-5" d="M420.42,431.05s-23.09-18.82-20-36.47,31.24-27.43,31.24-27.43,23.08,18.82,20,36.46S420.42,431.05,420.42,431.05Z"/><path class="cls-2" d="M329.58,619s23.09,18.82,20,36.47-31.24,27.43-31.24,27.43-23.08-18.82-20-36.46S329.58,619,329.58,619"/><path class="cls-5" d="M329.58,619s23.09,18.82,20,36.47-31.24,27.43-31.24,27.43-23.08-18.82-20-36.46S329.58,619,329.58,619Z"/><path class="cls-2" d="M354.37,430.15s22.36-22.95,18.35-45.69-32.87-36.65-32.87-36.65-22.35,22.95-18.34,45.68,32.86,36.66,32.86,36.66"/><path class="cls-5" d="M354.37,430.15s22.36-22.95,18.35-45.69-32.87-36.65-32.87-36.65-22.35,22.95-18.34,45.68S354.37,430.15,354.37,430.15Z"/><path class="cls-2" d="M395.63,619.85s-22.36,22.95-18.35,45.69,32.87,36.65,32.87,36.65,22.35-23,18.34-45.68-32.86-36.66-32.86-36.66"/><path class="cls-5" d="M395.63,619.85s-22.36,22.95-18.35,45.69,32.87,36.65,32.87,36.65,22.35-23,18.34-45.68S395.63,619.85,395.63,619.85Z"/><path class="cls-2" d="M392.65,430.66s-22.36-23-18.35-45.68,32.87-36.66,32.87-36.66,22.35,22.95,18.34,45.69-32.86,36.65-32.86,36.65"/><path class="cls-5" d="M392.65,430.66s-22.36-23-18.35-45.68,32.87-36.66,32.87-36.66,22.35,22.95,18.34,45.69S392.65,430.66,392.65,430.66Z"/><path class="cls-2" d="M357.35,619.34S379.71,642.29,375.7,665s-32.87,36.66-32.87,36.66S320.48,678.73,324.49,656s32.86-36.65,32.86-36.65"/><path class="cls-5" d="M357.35,619.34S379.71,642.29,375.7,665s-32.87,36.66-32.87,36.66S320.48,678.73,324.49,656,357.35,619.34,357.35,619.34Z"/></g><line class="cls-6" x1="36" y1="525.31" x2="714" y2="525.31"/><path class="cls-7" d="M71.55,100.77V72q0-5.24,4.5-5.24h.09q4.55,0,4.55,5.24V98.32l15.44-4.14V72q0-20-20-20t-20,20v32.9Z"/><path class="cls-7" d="M96.13,127.68V104.54l-15.44,4.14v19q0,5.23-4.59,5.24c-3,0-4.55-1.75-4.55-5.24V111.12L56.1,115.26v12.42q0,18.69,15.91,19.85c.1,5.6,2.21,9.45,6.36,11.55q4.63,2.41,17.76,2.41v-12.8q-14.23-.09-14.33-1.34Q96.14,145.53,96.13,127.68Z"/><path class="cls-7" d="M678.45,949.23V978q0,5.24-4.5,5.24h-.09q-4.54,0-4.55-5.24V951.68l-15.44,4.14V978q0,20,20,20t20-20v-32.9Z"/><path class="cls-7" d="M653.87,922.32v23.14l15.44-4.14v-19q0-5.24,4.59-5.24c3,0,4.55,1.75,4.55,5.24v16.56l15.45-4.14V922.32q0-18.69-15.91-19.85c-.1-5.6-2.21-9.45-6.36-11.55q-4.64-2.42-17.76-2.41v12.8q14.24.09,14.33,1.34Q653.86,904.47,653.87,922.32Z"/><rect class="cls-7" x="278" y="455.68" width="194" height="28"/><rect class="cls-7" x="278" y="566.32" width="194" height="28"/><rect class="cls-7" x="277.78" y="425.09" width="194" height="11.23"/><rect class="cls-7" x="278.22" y="613.68" width="194" height="11.23"/><g class="cls-3"><path class="cls-7" d="M97.68,194.75,79.87,205h0l17.79-10.22-20.79-31.3v-.14l-20.8,31.3h0a10.91,10.91,0,0,0,3.79,15.69,13.36,13.36,0,0,0,12.47.31l-4.21,15.69H85.61l-4.17-15.49a13.55,13.55,0,0,0,12.43-.38,10.91,10.91,0,0,0,3.81-15.69"/><path class="cls-7" d="M652.32,855.25,670.13,845h0l-17.79,10.22,20.79,31.3v.14l20.8-31.3h0a10.91,10.91,0,0,0-3.79-15.69,13.36,13.36,0,0,0-12.47-.31l4.21-15.69H664.39l4.17,15.49a13.55,13.55,0,0,0-12.43.38,10.91,10.91,0,0,0-3.81,15.69"/><path class="cls-2" d="M374.78,430.22s26-23.74,26-53-26-53-26-53-26,23.74-26,53,26,53,26,53"/><path class="cls-5" d="M374.78,430.22s26-23.74,26-53-26-53-26-53-26,23.74-26,53S374.78,430.22,374.78,430.22Z"/><path class="cls-2" d="M375.22,619.78s-26,23.74-26,53,26,53,26,53,26-23.74,26-53-26-53-26-53"/><path class="cls-5" d="M375.22,619.78s-26,23.74-26,53,26,53,26,53,26-23.74,26-53S375.22,619.78,375.22,619.78Z"/></g><rect class="cls-2" x="149.14" y="398.8" width="404.45" height="15" transform="translate(-76.8 81.94) rotate(-12)"/><rect class="cls-2" x="196.41" y="636.2" width="404.45" height="15" transform="translate(-125.13 96.96) rotate(-12)"/></g></svg>