<?xml version="1.0" encoding="UTF-8"?><svg xmlns="http://www.w3.org/2000/svg" viewBox="0 0 750 1050"><g id="uuid-6ed6bd30-cd4c-4c40-b87c-d30211a93886"><rect width="750" height="1049.95" rx="44.82" ry="44.82" style="fill:#fff;"/></g><g id="uuid-8383a213-545f-42fb-b8fa-c67332de9597"><g><path d="M303.89,548.34s-.06,.07-.09,.11h0s.06-.07,.1-.11Z" style="fill:#fff;"/><path d="M303.79,548.45h0s.06-.07,.09-.11c-.04,.04-.07,.07-.1,.11Z" style="fill:#282c44;"/><path d="M449.98,517.38c-.75,.55-1.49,1.13-2.18,1.72-.1-.4-.23-.79-.37-1.18l2.55-.54Z" style="fill:#fff;"/><path d="M453,560.44l.06,.05,.15-.05h-.21Zm-5.57-42.52c.14,.39,.27,.78,.37,1.18,.69-.59,1.43-1.17,2.18-1.72l-2.55,.54Z" style="fill:#282c44;"/><path d="M513.96,539.08c-1.29,7.31-6.02,13.34-11.62,18.11v13.88H250.14v-8.72l4.24-.9,6.68-1.43h.01l7.2-1.52,6.36-1.35,3.16-.68,4.64-.99h.01l2.93-.62,4.12-.87,3.63-.78,8.29-1.76c3.65,2.08,7.19,3.77,10.13,5.02h1.29c2.14-1.99,4.68-4.54,7.23-7.46-.42-.42-.83-.83-1.25-1.25l2.83-.61,4.06-.86,4.76-1.01,2.37-.51c1.09,.92,2.17,1.81,3.25,2.63,4.81,3.74,9.31,6.55,12.34,8.29,1.74-2.08,4.09-5.06,6.58-8.68-1.33-1.92-2.65-3.95-3.95-6.1l6.12-1.3,2.78-.6,3.33-.7c.7,1.05,1.39,2.07,2.08,3.04,1.29,1.85,2.59,3.58,3.82,5.17,2.68,3.42,5.13,6.23,7.06,8.28,1.4-1.51,3.09-3.41,4.94-5.65,1.23-1.51,2.55-3.17,3.89-4.98,1.23-1.65,2.48-3.42,3.74-5.3,1.43-2.16,2.87-4.46,4.25-6.89l7.54-1.61h.01l3.83-.82,3.42-.71c-.73,1.59-1.48,3.15-2.26,4.65-3.11,6.08-6.6,11.53-10,16.2,1.95,2.73,3.76,4.99,5.17,6.67,3.02-1.74,7.51-4.55,12.32-8.28,1.48-1.14,3-2.39,4.51-3.72,1.47-1.27,2.94-2.64,4.37-4.08,4.81-4.86,9.2-10.57,11.96-16.99l6.79-1.44h.01l6.49-1.38c-2.98,11.71-10.23,21.54-18.1,29.21,2.28,2.61,4.54,4.93,6.53,6.8h3.48c4.88-2.17,11.05-5.43,16.63-9.54,1.27-.92,2.51-1.9,3.69-2.93,1.26-1.07,2.47-2.2,3.58-3.37,3.76-3.93,6.54-8.33,7.38-13.1,.58-3.3,.23-6.75-.77-10.21,.9-.77,1.86-1.52,2.83-2.24l2.47-.52,5.72-1.22c1.61,5.25,2.24,10.73,1.27,16.21-1.5,8.44-6.51,15.56-12.68,21.36,1.56,2.01,3.2,3.89,4.78,5.55h12.96c7.87-4.39,16.41-11.04,17.81-18.99,1.6-9.06-6.03-19.64-12.61-26.57l5.24-1.12,5.17-1.1c6.57,7.9,13.33,19.14,11.34,30.39Z" style="fill:#282c44;"/><path d="M449.98,517.38c-.75,.55-1.49,1.13-2.18,1.72-.1-.4-.23-.79-.37-1.18l2.55-.54Z" style="fill:#fff;"/><path d="M447.43,517.92c.14,.39,.27,.78,.37,1.18,.69-.59,1.43-1.17,2.18-1.72l-2.55,.54Z" style="fill:#282c44;"/><path d="M374.42,535.93s.01,.07,.03,.09c.01-.03,.03-.06,.04-.1h-.07Z" style="fill:#282c44;"/><path d="M374.42,535.93s.01,.07,.03,.09c.01-.03,.03-.06,.04-.1h-.07Z" style="fill:#282c44;"/><rect x="250.43" y="596.24" width="252.2" height="36.4" style="fill:#282c44;"/><path d="M374.45,536.02s-.03-.05-.03-.09h.07s-.03,.07-.04,.09Z" style="fill:#fff;"/><path d="M471.36,495.38l-6.28,1.34-6.4,1.36c-3.37-4.13-6.86-7.68-9.66-10.23-1.14,.47-2.41,1.01-3.73,1.64,1.17,3.5,2.11,7.14,2.69,10.87l-5.73,1.21-5.73,1.22c-.36-2.59-.95-5.14-1.7-7.62-.57-1.92-1.25-3.81-2-5.65-.74-1.85-1.56-3.63-2.42-5.36-4.41-8.87-10.01-16.16-13.35-20.14-1.61,.94-3.64,2.16-5.91,3.68,2.89,8.19,4.76,17.12,4.76,26.51,0,.27,0,.56-.01,.83-.03,3.26-.29,6.45-.74,9.58-.13,.94-.29,1.87-.45,2.81l-1.66,.35-4.58,.98-2.69,.57-3.64,.78c1.31-5.11,2.08-10.44,2.08-15.9,0-6.62-1.13-13.03-2.96-19.08-.61-2.02-1.3-3.99-2.05-5.92-.74-1.91-1.55-3.78-2.4-5.59-6.4-13.68-15.42-24.48-20.53-30-5.3,5.71-14.78,17.09-21.22,31.47-.83,1.86-1.61,3.77-2.33,5.73-.73,1.99-1.39,4.03-1.96,6.11-1.52,5.53-2.44,11.32-2.44,17.28,0,9.28,2.21,18.14,5.46,26.17l-5.8,1.24-2.21,.47-3.61,.77c-2.91-7.68-4.98-16.05-5.43-24.88-.06-1.25-.1-2.5-.1-3.76,0-8.91,1.68-17.39,4.32-25.22-3.42-2.43-6.51-4.33-8.78-5.63-3.34,3.98-8.93,11.26-13.34,20.12-.87,1.73-1.69,3.51-2.43,5.36-.74,1.83-1.42,3.72-1.99,5.64-1.95,6.41-2.81,13.21-1.63,19.89,.86,4.88,2.76,9.43,5.27,13.61l-5.99,1.27h-.01l-5.95,1.26c-2.24-4.37-3.94-9.09-4.82-14.12-1.68-9.54-.23-18.99,2.65-27.59-1.33-.61-2.59-1.16-3.73-1.63-4.85,4.42-11.87,11.9-16.59,20.18-.78,1.36-1.49,2.77-2.13,4.17-.69,1.51-1.27,3.03-1.74,4.56-1.12,3.64-1.53,7.28-.92,10.75,.53,3.05,1.86,5.95,3.73,8.67l-6.11,1.3-5.97,1.27c-1.49-2.87-2.6-5.94-3.17-9.2-1.17-6.62-.01-13.22,2.38-19.41-2.74-1.47-5.34-2.65-7.48-3.51-6.8,6.1-18.95,19.66-16.98,30.82,.38,2.14,1.27,4.2,2.54,6.12l-4.8,1.03-4.71,1c-1.01-2.05-1.77-4.24-2.17-6.54-3.58-20.29,21.22-40.5,22.27-41.34l1.99-1.6,2.42,.82c.48,.17,5.16,1.79,10.96,4.85,8.15-14.11,20.76-24.52,21.59-25.19l2.53-2.07,3.09,1.07c.42,.14,3.34,1.18,7.5,3.09,7.44-14.87,17.52-25.38,18.25-26.12l2.94-3.02,3.8,1.83c.56,.27,5.54,2.7,12.04,7.11,10.26-21.53,25.9-36.01,26.87-36.89l3.95-3.6,3.94,3.6c.96,.87,16.07,14.86,26.31,35.76,5.12-3.26,8.83-5.08,9.31-5.32l3.8-1.83,2.94,3.02c.73,.75,10.82,11.25,18.25,26.13,4.16-1.91,7.08-2.95,7.5-3.09l3.09-1.08,2.53,2.07c.7,.57,9.72,8.03,17.45,18.77Z" style="fill:#282c44;"/><path d="M303.89,548.34s-.06,.07-.09,.11h0s.06-.07,.1-.11Z" style="fill:#fff;"/></g><g><path d="M108.42,150.07v-29.78l-20.08,5.38v24.4c0,4.54-1.99,6.81-5.97,6.81s-5.91-2.27-5.91-6.81v-21.22l-20.08,5.38v15.84c0,16.2,6.89,24.8,20.68,25.81,.12,7.28,2.87,12.28,8.26,15.01,4.02,2.09,11.72,3.14,23.1,3.14v-16.64c-12.34-.08-18.55-.66-18.63-1.75,12.42-1.57,18.63-10.09,18.63-25.57Z" style="fill:#282c44;"/><path d="M76.45,115.4v-37.68c0-4.54,1.95-6.81,5.85-6.81h.12c3.94,.04,5.91,2.31,5.91,6.81v34.5l20.08-5.38v-29.12c0-17.37-8.68-26.05-26.05-26.05s-25.99,8.68-25.99,26.05v43.07l20.08-5.38Z" style="fill:#282c44;"/></g><path d="M110.02,242.67l-23.15,13.29h0s23.13-13.29,23.13-13.29l-27.04-40.69v-.17l-27.04,40.69h.01c-4.66,7.03-2.45,16.16,4.94,20.4,5.02,2.88,11.19,2.89,16.21,.41l-5.48,20.4h22.72l-5.41-20.15c4.99,2.4,11.2,2.36,16.16-.49,7.39-4.25,9.62-13.38,4.95-20.4" style="fill:#282c44;"/></g></svg>