<svg xmlns="http://www.w3.org/2000/svg" viewBox="0 0 750 1050">
  <defs>
    <clipPath id="clip-path">
      <path style="fill:none" d="M-36-35.68h822v1121.37H-36z"/>
    </clipPath>
    <style>
      .cls-4,.cls-5{fill:none}.cls-2{fill:#fff}.cls-3{clip-path:url(#clip-path)}.cls-4,.cls-5{stroke:#282c44}.cls-4{stroke-width:7.13px}.cls-5{stroke-width:9px}.cls-7{fill:#282c44}
    </style>
  </defs>
  <rect class="cls-2" width="750" height="1049.95" rx="44.82" id="Ebene_2" data-name="Ebene 2"/>
  <g id="Ebene_1_Kopie_2" data-name="Ebene 1 Kopie 2">
    <g class="cls-3">
      <path class="cls-2" d="M295.06 431.85s18.27-14.69 15.85-28.4-24.61-21.27-24.61-21.27-18.27 14.68-15.85 28.4 24.61 21.27 24.61 21.27"/>
      <path class="cls-4" d="M295.06 431.85s18.27-14.69 15.85-28.4-24.61-21.27-24.61-21.27-18.27 14.68-15.85 28.4 24.61 21.27 24.61 21.27Z"/>
      <path class="cls-2" d="M454.94 618.15s-18.27 14.69-15.85 28.4 24.61 21.27 24.61 21.27 18.27-14.68 15.85-28.4-24.61-21.27-24.61-21.27"/>
      <path class="cls-4" d="M454.94 618.15s-18.27 14.69-15.85 28.4 24.61 21.27 24.61 21.27 18.27-14.68 15.85-28.4-24.61-21.27-24.61-21.27Z"/>
      <path class="cls-2" d="M452.6 432.36s-18.27-14.68-15.86-28.4 24.61-21.27 24.61-21.27 18.27 14.69 15.86 28.4-24.61 21.27-24.61 21.27"/>
      <path class="cls-4" d="M452.6 432.36s-18.27-14.68-15.86-28.4 24.61-21.27 24.61-21.27 18.27 14.69 15.86 28.4-24.61 21.27-24.61 21.27Z"/>
      <path class="cls-2" d="M297.4 617.64s18.27 14.69 15.86 28.4-24.61 21.27-24.61 21.27-18.27-14.69-15.86-28.4 24.61-21.27 24.61-21.27"/>
      <path class="cls-4" d="M297.4 617.64s18.27 14.69 15.86 28.4-24.61 21.27-24.61 21.27-18.27-14.69-15.86-28.4 24.61-21.27 24.61-21.27Z"/>
      <path class="cls-2" d="M326.6 430.53s23.09-18.82 20-36.46-31.24-27.44-31.24-27.44-23.08 18.82-20 36.47 31.23 27.43 31.23 27.43"/>
      <path class="cls-5" d="M326.6 430.53s23.09-18.82 20-36.46-31.24-27.44-31.24-27.44-23.08 18.82-20 36.47 31.24 27.43 31.24 27.43Z"/>
      <path class="cls-2" d="M423.4 619.47s-23.09 18.82-20 36.46 31.24 27.44 31.24 27.44 23.08-18.82 20-36.47-31.23-27.43-31.23-27.43"/>
      <path class="cls-5" d="M423.4 619.47s-23.09 18.82-20 36.46 31.24 27.44 31.24 27.44 23.08-18.82 20-36.47-31.24-27.43-31.24-27.43Z"/>
      <path class="cls-2" d="M420.42 431.05s-23.09-18.82-20-36.47 31.24-27.43 31.24-27.43 23.08 18.82 20 36.46-31.23 27.44-31.23 27.44"/>
      <path class="cls-5" d="M420.42 431.05s-23.09-18.82-20-36.47 31.24-27.43 31.24-27.43 23.08 18.82 20 36.46-31.24 27.44-31.24 27.44Z"/>
      <path class="cls-2" d="M329.58 619s23.09 18.82 20 36.47-31.24 27.43-31.24 27.43-23.08-18.82-20-36.46S329.58 619 329.58 619"/>
      <path class="cls-5" d="M329.58 619s23.09 18.82 20 36.47-31.24 27.43-31.24 27.43-23.08-18.82-20-36.46S329.58 619 329.58 619Z"/>
      <path class="cls-2" d="M354.37 430.15s22.36-22.95 18.35-45.69-32.87-36.65-32.87-36.65-22.35 22.95-18.34 45.68 32.86 36.66 32.86 36.66"/>
      <path class="cls-5" d="M354.37 430.15s22.36-22.95 18.35-45.69-32.87-36.65-32.87-36.65-22.35 22.95-18.34 45.68 32.86 36.66 32.86 36.66Z"/>
      <path class="cls-2" d="M395.63 619.85s-22.36 22.95-18.35 45.69 32.87 36.65 32.87 36.65 22.35-23 18.34-45.68-32.86-36.66-32.86-36.66"/>
      <path class="cls-5" d="M395.63 619.85s-22.36 22.95-18.35 45.69 32.87 36.65 32.87 36.65 22.35-23 18.34-45.68-32.86-36.66-32.86-36.66Z"/>
      <path class="cls-2" d="M392.65 430.66s-22.36-23-18.35-45.68 32.87-36.66 32.87-36.66 22.35 22.95 18.34 45.69-32.86 36.65-32.86 36.65"/>
      <path class="cls-5" d="M392.65 430.66s-22.36-23-18.35-45.68 32.87-36.66 32.87-36.66 22.35 22.95 18.34 45.69-32.86 36.65-32.86 36.65Z"/>
      <path class="cls-2" d="M357.35 619.34s22.36 22.95 18.35 45.66-32.87 36.66-32.87 36.66-22.35-22.93-18.34-45.66 32.86-36.65 32.86-36.65"/>
      <path class="cls-5" d="M357.35 619.34s22.36 22.95 18.35 45.66-32.87 36.66-32.87 36.66-22.35-22.93-18.34-45.66 32.86-36.66 32.86-36.66Z"/>
    </g>
    <path style="stroke:#282c44;fill:none" d="M36 525.31h678"/>
    <path class="cls-7" d="M71.55 100.77V72q0-5.24 4.5-5.24h.09q4.55 0 4.55 5.24v26.32l15.44-4.14V72q0-20-20-20t-20 20v32.9Zm24.58 26.91v-23.14l-15.44 4.14v19q0 5.23-4.59 5.24c-3 0-4.55-1.75-4.55-5.24v-16.56l-15.45 4.14v12.42q0 18.69 15.91 19.85c.1 5.6 2.21 9.45 6.36 11.55q4.63 2.41 17.76 2.41v-12.8q-14.23-.09-14.33-1.34 14.34-1.82 14.33-19.67Zm582.32 821.55V978q0 5.24-4.5 5.24h-.09q-4.54 0-4.55-5.24v-26.32l-15.44 4.14V978q0 20 20 20t20-20v-32.9Zm-24.58-26.91v23.14l15.44-4.14v-19q0-5.24 4.59-5.24c3 0 4.55 1.75 4.55 5.24v16.56l15.45-4.14v-12.42q0-18.69-15.91-19.85c-.1-5.6-2.21-9.45-6.36-11.55q-4.64-2.42-17.76-2.41v12.8q14.24.09 14.33 1.34-14.34 1.82-14.33 19.67ZM278 455.68h194v28H278zm0 110.64h194v28H278zm-.22-141.23h194v11.23h-194zm.44 188.59h194v11.23h-194z"/>
    <g class="cls-3">
      <path class="cls-7" d="M97.68 194.75 79.87 205l17.79-10.22-20.79-31.3v-.14l-20.8 31.3a10.91 10.91 0 0 0 3.79 15.69 13.36 13.36 0 0 0 12.47.31l-4.21 15.69h17.49l-4.17-15.49a13.55 13.55 0 0 0 12.43-.38 10.91 10.91 0 0 0 3.81-15.69m554.64 660.48L670.13 845l-17.79 10.22 20.79 31.3v.14l20.8-31.3a10.91 10.91 0 0 0-3.79-15.69 13.36 13.36 0 0 0-12.47-.31l4.21-15.69h-17.49l4.17 15.49a13.55 13.55 0 0 0-12.43.38 10.91 10.91 0 0 0-3.81 15.69"/>
      <path class="cls-2" d="M374.78 430.22s26-23.74 26-53-26-53-26-53-26 23.74-26 53 26 53 26 53"/>
      <path class="cls-5" d="M374.78 430.22s26-23.74 26-53-26-53-26-53-26 23.74-26 53 26 53 26 53Z"/>
      <path class="cls-2" d="M375.22 619.78s-26 23.74-26 53 26 53 26 53 26-23.74 26-53-26-53-26-53"/>
      <path class="cls-5" d="M375.22 619.78s-26 23.74-26 53 26 53 26 53 26-23.74 26-53-26-53-26-53Z"/>
    </g>
    <path class="cls-2" transform="rotate(-12 351.40351169 406.32159504)" d="M149.14 398.8h404.45v15H149.14z"/>
    <path class="cls-2" transform="rotate(-12 398.69138874 643.74621208)" d="M196.41 636.2h404.45v15H196.41z"/>
  </g>
</svg>
