<svg xmlns="http://www.w3.org/2000/svg" width="80" height="112" fill="none"><rect width="80" height="112" fill="#fff" rx="5"/><path fill="#2C2833" d="M7.652 23.632c0 2.912 1.534 4.576 4.342 4.576.754 0 1.43-.13 2.002-.338.39.78 1.196 1.248 2.47 1.248h.39V26.57h-.26c-.468 0-.676-.052-.806-.39.364-.676.546-1.534.546-2.548v-9.464c0-2.912-1.534-4.576-4.342-4.576s-4.342 1.664-4.342 4.576v9.464Zm2.86-9.646c0-1.3.572-1.794 1.482-1.794s1.482.494 1.482 1.794v9.828c0 1.3-.572 1.794-1.482 1.794s-1.482-.494-1.482-1.794v-9.828Z"/><path fill="#2C2833" fill-rule="evenodd" d="M7.553 42.266c-1.182 1.312-1.182 3.439 0 4.75.882.978 2.172 1.227 3.262.747v2.904h2.37v-2.904c1.09.48 2.38.231 3.261-.747 1.183-1.311 1.183-3.438 0-4.75L12 37.333l-4.447 4.933ZM33.33 53.4c-1.773 1.967-1.773 5.157 0 7.124 1.323 1.468 3.258 1.84 4.892 1.12V66h3.556v-4.356c1.634.72 3.57.348 4.892-1.12 1.773-1.967 1.773-5.157 0-7.125L40 46l-6.67 7.4Z" clip-rule="evenodd"/><path fill="#2C2833" d="M72.348 88.368c0-2.912-1.534-4.576-4.342-4.576-.754 0-1.43.13-2.002.338-.39-.78-1.196-1.248-2.47-1.248h-.39v2.548h.26c.468 0 .676.052.806.39-.364.676-.546 1.534-.546 2.548v9.464c0 2.912 1.534 4.576 4.342 4.576s4.342-1.664 4.342-4.576v-9.464Zm-2.86 9.646c0 1.3-.572 1.794-1.482 1.794s-1.482-.494-1.482-1.794v-9.828c0-1.3.572-1.794 1.482-1.794s1.482.494 1.482 1.794v9.828Z"/><path fill="#2C2833" fill-rule="evenodd" d="M72.447 69.734c1.182-1.312 1.182-3.439 0-4.75-.882-.978-2.172-1.227-3.262-.746v-2.905h-2.37v2.904c-1.09-.48-2.38-.231-3.261.747-1.183 1.311-1.183 3.438 0 4.75L68 74.667l4.447-4.933Z" clip-rule="evenodd"/></svg>