<svg xmlns="http://www.w3.org/2000/svg" viewBox="0 0 750 1050">
  <defs>
    <clipPath id="a">
      <rect x=".05" y=".02" width="749.89" height="1049.95" rx="84.97" style="fill:none"/>
    </clipPath>
    <clipPath id="b">
      <path style="fill:none" d="M-190.12-48.85h1289.99V1184.5H-190.12z"/>
    </clipPath>
  </defs>
  <rect width="750" height="1049.95" rx="44.82" style="fill:#fff" data-name="Ebene 2"/>
  <g style="clip-path:url(#a)" data-name="Ebene 1 Kopie 2">
    <g style="clip-path:url(#b)">
      <rect x="35.98" y="36.13" width="678" height="978" rx="12" style="fill:#335b59"/>
    </g>
    <path style="fill:#282c44" d="M97.1 891.13v68.46h49v-68.46h-49zM215.98 36.13h213.74v58H215.98z"/>
    <path style="fill:#282c44" d="m179.22 847.13-66.23 38.24 36.26 62.8 29.97-101.04zM417.72 98.29l-29.97-62.16h59.93l-29.96 62.16z"/>
    <g style="clip-path:url(#b)">
      <path style="fill:none;stroke:#fff;stroke-width:14px" d="M470.46-46.7 72.87 1182.34"/>
    </g>
    <path style="fill:#282c44" d="M643.97 852.13 434.74 485.26l-116.02 97.36 325.25 269.51zM352.99 339.89l-22.51 66.43 59.55-6.78-37.04-59.65zM229.66 98.29l-34.32-62.16h68.64l-34.32 62.16zM350.11 307.2l67.61-208.91-177.62 18.67L350.11 307.2z"/>
    <path style="fill:#282c44" d="M233.17 98.29h111.81v20.84H233.17z"/>
    <g style="clip-path:url(#b)">
      <rect x="94.98" y="100.13" width="560" height="863.45" rx="12" style="fill:none;stroke:#fff;stroke-width:12px"/>
    </g>
    <path style="fill:#282c44" d="m717.4 452.51 16.14-56.38-74.57 51.25 58.43 5.13z"/>
    <path style="fill:none;stroke:#fff;stroke-width:14px" d="m894.69 1071.19-990.6-829.05"/>
    <path style="fill:#282c44" d="m136.61 427.75 201.84 171.1 62.62-158.97-264.46-12.13z"/>
    <g style="clip-path:url(#b)">
      <path style="fill:none;stroke:#fff;stroke-width:14px" d="M789.73 1095.08 152.19-28.39M-189.66 399.54l1289.09 82.82M839.56 301.48l-1002.82 814.21"/>
      <path d="M375 675.13a143 143 0 1 0-143-143 143 143 0 0 0 143 143" style="fill:#8a9577"/>
      <circle cx="374.98" cy="532.13" r="143" style="fill:none;stroke:#fff;stroke-width:12px"/>
      <path d="M408.13 499 375 532.13a23.44 23.44 0 0 1-33.15 33.15l-33.15 33.16A70.33 70.33 0 0 0 408.13 499m33.15-33.15a70.33 70.33 0 1 0-99.46 99.46L375 532.13A23.45 23.45 0 0 1 408.13 499Z" style="fill:#fff"/>
    </g>
    <path style="fill:#fff" d="M713.98 331.13h72v594.23h-72zM-35.12-35.85h821.09v71.98H-35.12z"/>
  </g>
</svg>
