<svg xmlns="http://www.w3.org/2000/svg" xmlns:xlink="http://www.w3.org/1999/xlink" viewBox="0 0 750 1050"><defs><style>.cls-1,.cls-7,.cls-8{fill:none;}.cls-2{fill:#fff;}.cls-3{clip-path:url(#clip-path);}.cls-4{clip-path:url(#clip-path-2);}.cls-5{fill:#335b59;}.cls-6{fill:#282c44;}.cls-7,.cls-8{stroke:#fff;}.cls-7{stroke-width:14px;}.cls-8{stroke-width:12px;}.cls-9{fill:#8a9577;}</style><clipPath id="clip-path"><rect class="cls-1" x="0.05" y="0.02" width="749.89" height="1049.95" rx="84.97"/></clipPath><clipPath id="clip-path-2"><rect class="cls-1" x="-190.12" y="-48.85" width="1289.99" height="1233.35"/></clipPath></defs><g id="Ebene_2" data-name="Ebene 2"><rect class="cls-2" width="750" height="1049.95" rx="44.82"/></g><g id="Ebene_1_Kopie_2" data-name="Ebene 1 Kopie 2"><g class="cls-3"><g class="cls-4"><rect class="cls-5" x="35.98" y="36.13" width="678" height="978" rx="12"/></g><polygon class="cls-6" points="97.1 891.13 97.1 891.13 97.1 959.59 146.1 959.59 146.1 891.13 97.1 891.13"/><rect class="cls-6" x="215.98" y="36.13" width="213.74" height="58"/><polygon class="cls-6" points="179.22 847.13 179.22 847.13 112.99 885.37 149.25 948.17 179.22 847.13"/><polygon class="cls-6" points="417.72 98.29 387.75 36.13 447.68 36.13 417.72 98.29"/><g class="cls-4"><line class="cls-7" x1="470.46" y1="-46.7" x2="72.87" y2="1182.34"/></g><polygon class="cls-6" points="643.97 852.13 434.74 485.26 318.72 582.62 643.97 852.13"/><polygon class="cls-6" points="352.99 339.89 330.48 406.32 390.03 399.54 352.99 339.89"/><polygon class="cls-6" points="229.66 98.29 195.34 36.13 263.98 36.13 229.66 98.29"/><polygon class="cls-6" points="350.11 307.2 417.72 98.29 240.1 116.96 350.11 307.2"/><rect class="cls-6" x="233.17" y="98.29" width="111.81" height="20.84"/><g class="cls-4"><rect class="cls-8" x="94.98" y="100.13" width="560" height="863.45" rx="12"/></g><polygon class="cls-6" points="717.4 452.51 733.54 396.13 658.97 447.38 717.4 452.51"/><line class="cls-7" x1="894.69" y1="1071.19" x2="-95.91" y2="242.14"/><polygon class="cls-6" points="136.61 427.75 338.45 598.85 401.07 439.88 136.61 427.75"/><g class="cls-4"><line class="cls-7" x1="789.73" y1="1095.08" x2="152.19" y2="-28.39"/><line class="cls-7" x1="-189.66" y1="399.54" x2="1099.43" y2="482.36"/><line class="cls-7" x1="839.56" y1="301.48" x2="-163.26" y2="1115.69"/><path class="cls-9" d="M375,675.13a143,143,0,1,0-143-143,143,143,0,0,0,143,143"/><circle class="cls-8" cx="374.98" cy="532.13" r="143"/><path class="cls-2" d="M408.13,499,375,532.13a23.44,23.44,0,0,1-33.15,33.15l-33.15,33.16A70.33,70.33,0,0,0,408.13,499m33.15-33.15a70.33,70.33,0,1,0-99.46,99.46L375,532.13A23.45,23.45,0,0,1,408.13,499Z"/></g><rect class="cls-2" x="713.98" y="331.13" width="72" height="594.23"/><rect class="cls-2" x="-35.12" y="-35.85" width="821.09" height="71.98"/></g></g></svg>