<svg width="80" height="112" viewBox="0 0 80 112" fill="none" xmlns="http://www.w3.org/2000/svg">
<g clip-path="url(#clip0_551_39043)">
<rect width="80" height="112" rx="5" fill="white"/>
<path fill-rule="evenodd" clip-rule="evenodd" d="M21.3483 -6.71023L19.3194 1.71112L11.0472 -7.90229L11.347 -9.1363C11.3813 -9.28033 11.4437 -9.41614 11.5305 -9.53595C11.6173 -9.65577 11.7269 -9.75722 11.8528 -9.83451C11.9788 -9.9118 12.1187 -9.9634 12.2646 -9.98636C12.4105 -10.0093 12.5595 -10.0032 12.703 -9.9683L20.5186 -8.07358C20.6624 -8.03872 20.7979 -7.9758 20.9174 -7.88841C21.0369 -7.80102 21.138 -7.69088 21.2151 -7.56427C21.2921 -7.43766 21.3436 -7.29707 21.3664 -7.15053C21.3893 -7.004 21.3831 -6.85438 21.3483 -6.71023ZM8.53168 2.71091L10.2747 -4.54284L18.5365 5.06707V5.13699C18.4654 5.42765 18.2826 5.67831 18.0278 5.8342C17.7731 5.99009 17.4672 6.03855 17.1769 5.96899L9.36134 4.07427C9.21758 4.03941 9.08208 3.97649 8.96257 3.8891C8.84307 3.80171 8.7419 3.69156 8.66486 3.56495C8.58781 3.43835 8.53639 3.29776 8.51354 3.15122C8.49069 3.00468 8.49685 2.85506 8.53168 2.71091Z" fill="#DC3059"/>
<path fill-rule="evenodd" clip-rule="evenodd" d="M23.2103 20.8483L14.7889 18.8194L24.4023 10.5472L25.6363 10.847C25.7804 10.8814 25.9162 10.9437 26.036 11.0305C26.1558 11.1173 26.2573 11.2269 26.3345 11.3528C26.4118 11.4788 26.4634 11.6187 26.4864 11.7646C26.5094 11.9105 26.5032 12.0595 26.4683 12.203L24.5736 20.0186C24.5388 20.1624 24.4758 20.2979 24.3884 20.4174C24.3011 20.5369 24.1909 20.6381 24.0643 20.7151C23.9377 20.7921 23.7971 20.8436 23.6506 20.8664C23.504 20.8893 23.3544 20.8831 23.2103 20.8483ZM13.7891 8.03168L21.0429 9.77468L11.433 18.0365L11.363 18.0365C11.0724 17.9654 10.8217 17.7826 10.6658 17.5278C10.5099 17.2731 10.4615 16.9672 10.5311 16.6769L12.4258 8.86135C12.4606 8.71759 12.5236 8.58209 12.6109 8.46258C12.6983 8.34308 12.8085 8.24191 12.9351 8.16487C13.0617 8.08782 13.2023 8.0364 13.3488 8.01355C13.4954 7.9907 13.645 7.99686 13.7891 8.03168Z" fill="#DC3059"/>
<path fill-rule="evenodd" clip-rule="evenodd" d="M-3.46833 22.7103L-1.43948 14.2889L6.83276 23.9023L6.53297 25.1363C6.4986 25.2804 6.43622 25.4162 6.34942 25.536C6.26262 25.6558 6.15309 25.7573 6.02712 25.8346C5.90115 25.9118 5.76121 25.9634 5.61531 25.9864C5.46942 26.0094 5.32044 26.0032 5.17692 25.9683L-2.63866 24.0736C-2.78242 24.0388 -2.91792 23.9758 -3.03743 23.8885C-3.15693 23.8011 -3.2581 23.6909 -3.33515 23.5643C-3.41219 23.4377 -3.46361 23.2971 -3.48646 23.1506C-3.50931 23.004 -3.50315 22.8544 -3.46833 22.7103ZM9.34827 13.2891L7.60527 20.5429L-0.656513 10.933L-0.656513 10.8631C-0.585475 10.5724 -0.402613 10.3217 -0.147875 10.1658C0.106863 10.01 0.412772 9.9615 0.703022 10.0311L8.5186 11.9258C8.66236 11.9606 8.79787 12.0236 8.91737 12.111C9.03688 12.1983 9.13804 12.3085 9.21509 12.4351C9.29213 12.5617 9.34355 12.7023 9.3664 12.8488C9.38925 12.9954 9.38309 13.145 9.34827 13.2891Z" fill="#DC3059"/>
<path fill-rule="evenodd" clip-rule="evenodd" d="M-5.21023 -4.9683L3.21111 -2.93946L-6.4023 5.33278L-7.63631 5.03299C-7.78034 4.99862 -7.91615 4.93625 -8.03596 4.84944C-8.15577 4.76264 -8.25723 4.65312 -8.33452 4.52714C-8.41181 4.40117 -8.46341 4.26123 -8.48637 4.11534C-8.50933 3.96944 -8.50319 3.82046 -8.46831 3.67694L-6.57359 -4.13864C-6.53873 -4.2824 -6.47581 -4.4179 -6.38842 -4.53741C-6.30103 -4.65691 -6.19088 -4.75808 -6.06428 -4.83512C-5.93767 -4.91217 -5.79708 -4.96359 -5.65054 -4.98644C-5.504 -5.00929 -5.35439 -5.00313 -5.21023 -4.9683ZM4.21091 7.84829L-3.04285 6.1053L6.56707 -2.15649L6.63698 -2.15649C6.92765 -2.08545 7.1783 -1.90259 7.33419 -1.64785C7.49009 -1.39312 7.53854 -1.08721 7.46898 -0.796957L5.57426 7.01862C5.5394 7.16238 5.47648 7.29789 5.38909 7.41739C5.3017 7.5369 5.19156 7.63806 5.06495 7.71511C4.93834 7.79215 4.79775 7.84357 4.65122 7.86642C4.50468 7.88927 4.35506 7.88311 4.21091 7.84829Z" fill="#DC3059"/>
<path fill-rule="evenodd" clip-rule="evenodd" d="M21.3483 25.2898L19.3194 33.7111L11.0472 24.0977L11.347 22.8637C11.3813 22.7197 11.4437 22.5838 11.5305 22.464C11.6173 22.3442 11.7269 22.2428 11.8528 22.1655C11.9788 22.0882 12.1187 22.0366 12.2646 22.0136C12.4105 21.9907 12.5595 21.9968 12.703 22.0317L20.5186 23.9264C20.6624 23.9613 20.7979 24.0242 20.9174 24.1116C21.0369 24.199 21.138 24.3091 21.2151 24.4357C21.2921 24.5623 21.3436 24.7029 21.3664 24.8495C21.3893 24.996 21.3831 25.1456 21.3483 25.2898ZM8.53168 34.7109L10.2747 27.4571L18.5365 37.0671V37.137C18.4654 37.4276 18.2826 37.6783 18.0278 37.8342C17.7731 37.9901 17.4672 38.0385 17.1769 37.969L9.36134 36.0743C9.21758 36.0394 9.08208 35.9765 8.96257 35.8891C8.84307 35.8017 8.7419 35.6915 8.66486 35.5649C8.58781 35.4383 8.53639 35.2977 8.51354 35.1512C8.49069 35.0047 8.49685 34.8551 8.53168 34.7109Z" fill="#6528C9"/>
<path fill-rule="evenodd" clip-rule="evenodd" d="M23.2103 52.8483L14.7889 50.8194L24.4023 42.5472L25.6363 42.847C25.7804 42.8813 25.9162 42.9437 26.036 43.0305C26.1558 43.1173 26.2573 43.2268 26.3345 43.3528C26.4118 43.4788 26.4634 43.6187 26.4864 43.7646C26.5094 43.9105 26.5032 44.0595 26.4683 44.203L24.5736 52.0186C24.5388 52.1624 24.4758 52.2979 24.3884 52.4174C24.3011 52.5369 24.1909 52.638 24.0643 52.7151C23.9377 52.7921 23.7971 52.8435 23.6506 52.8664C23.504 52.8892 23.3544 52.8831 23.2103 52.8483ZM13.7891 40.0317L21.0429 41.7747L11.433 50.0364L11.363 50.0364C11.0724 49.9654 10.8217 49.7826 10.6658 49.5278C10.5099 49.2731 10.4615 48.9672 10.5311 48.6769L12.4258 40.8613C12.4606 40.7176 12.5236 40.5821 12.6109 40.4626C12.6983 40.3431 12.8085 40.2419 12.9351 40.1649C13.0617 40.0878 13.2023 40.0364 13.3488 40.0135C13.4954 39.9907 13.645 39.9968 13.7891 40.0317Z" fill="#6528C9"/>
<path fill-rule="evenodd" clip-rule="evenodd" d="M-3.46833 54.7103L-1.43948 46.2889L6.83276 55.9023L6.53297 57.1363C6.4986 57.2804 6.43622 57.4162 6.34942 57.536C6.26262 57.6558 6.15309 57.7573 6.02712 57.8345C5.90115 57.9118 5.76121 57.9634 5.61531 57.9864C5.46942 58.0093 5.32044 58.0032 5.17692 57.9683L-2.63866 56.0736C-2.78242 56.0388 -2.91792 55.9758 -3.03743 55.8884C-3.15693 55.801 -3.2581 55.6909 -3.33515 55.5643C-3.41219 55.4377 -3.46361 55.2971 -3.48646 55.1506C-3.50931 55.004 -3.50315 54.8544 -3.46833 54.7103ZM9.34827 45.2891L7.60527 52.5429L-0.656513 42.933L-0.656513 42.863C-0.585475 42.5724 -0.402613 42.3217 -0.147875 42.1658C0.106863 42.0099 0.412772 41.9615 0.703022 42.031L8.5186 43.9258C8.66236 43.9606 8.79787 44.0235 8.91737 44.1109C9.03688 44.1983 9.13804 44.3085 9.21509 44.4351C9.29213 44.5617 9.34355 44.7023 9.3664 44.8488C9.38925 44.9953 9.38309 45.145 9.34827 45.2891Z" fill="#6528C9"/>
<path fill-rule="evenodd" clip-rule="evenodd" d="M-5.21023 27.0317L3.21111 29.0605L-6.4023 37.3328L-7.63631 37.033C-7.78034 36.9986 -7.91615 36.9362 -8.03596 36.8494C-8.15577 36.7626 -8.25723 36.6531 -8.33452 36.5271C-8.41181 36.4012 -8.46341 36.2612 -8.48637 36.1153C-8.50933 35.9694 -8.50319 35.8204 -8.46831 35.6769L-6.57359 27.8613C-6.53873 27.7176 -6.47581 27.5821 -6.38842 27.4626C-6.30103 27.3431 -6.19088 27.2419 -6.06428 27.1649C-5.93767 27.0878 -5.79708 27.0364 -5.65054 27.0135C-5.504 26.9907 -5.35439 26.9969 -5.21023 27.0317ZM4.21091 39.8483L-3.04285 38.1053L6.56707 29.8435L6.63698 29.8435C6.92764 29.9145 7.1783 30.0974 7.33419 30.3521C7.49009 30.6069 7.53854 30.9128 7.46898 31.203L5.57426 39.0186C5.5394 39.1624 5.47648 39.2979 5.38909 39.4174C5.3017 39.5369 5.19156 39.638 5.06495 39.7151C4.93834 39.7921 4.79775 39.8436 4.65122 39.8664C4.50468 39.8893 4.35506 39.8831 4.21091 39.8483Z" fill="#6528C9"/>
<path fill-rule="evenodd" clip-rule="evenodd" d="M21.3483 57.2897L19.3194 65.7111L11.0472 56.0977L11.347 54.8637C11.3813 54.7196 11.4437 54.5838 11.5305 54.464C11.6173 54.3442 11.7269 54.2427 11.8528 54.1655C11.9788 54.0882 12.1187 54.0366 12.2646 54.0136C12.4105 53.9907 12.5595 53.9968 12.703 54.0317L20.5186 55.9264C20.6624 55.9612 20.7979 56.0242 20.9174 56.1116C21.0369 56.199 21.138 56.3091 21.2151 56.4357C21.2921 56.5623 21.3436 56.7029 21.3664 56.8494C21.3893 56.996 21.3831 57.1456 21.3483 57.2897ZM8.53168 66.7109L10.2747 59.4571L18.5365 69.067V69.137C18.4654 69.4276 18.2826 69.6783 18.0278 69.8342C17.7731 69.9901 17.4672 70.0385 17.1769 69.969L9.36134 68.0742C9.21758 68.0394 9.08208 67.9765 8.96257 67.8891C8.84307 67.8017 8.7419 67.6915 8.66486 67.5649C8.58781 67.4383 8.53639 67.2977 8.51354 67.1512C8.49069 67.0047 8.49685 66.855 8.53168 66.7109Z" fill="#DC3059"/>
<path fill-rule="evenodd" clip-rule="evenodd" d="M23.2103 84.8482L14.7889 82.8194L24.4023 74.5472L25.6363 74.847C25.7804 74.8813 25.9162 74.9437 26.036 75.0305C26.1558 75.1173 26.2573 75.2268 26.3345 75.3528C26.4118 75.4788 26.4634 75.6187 26.4864 75.7646C26.5094 75.9105 26.5032 76.0595 26.4683 76.203L24.5736 84.0186C24.5388 84.1623 24.4758 84.2978 24.3884 84.4174C24.3011 84.5369 24.1909 84.638 24.0643 84.7151C23.9377 84.7921 23.7971 84.8435 23.6506 84.8664C23.504 84.8892 23.3544 84.8831 23.2103 84.8482ZM13.7891 72.0317L21.0429 73.7746L11.433 82.0364L11.363 82.0364C11.0724 81.9654 10.8217 81.7825 10.6658 81.5278C10.5099 81.2731 10.4615 80.9671 10.5311 80.6769L12.4258 72.8613C12.4606 72.7176 12.5236 72.5821 12.6109 72.4626C12.6983 72.343 12.8085 72.2419 12.9351 72.1648C13.0617 72.0878 13.2023 72.0364 13.3488 72.0135C13.4954 71.9907 13.645 71.9968 13.7891 72.0317Z" fill="#DC3059"/>
<path fill-rule="evenodd" clip-rule="evenodd" d="M-3.46833 86.7102L-1.43948 78.2889L6.83276 87.9023L6.53297 89.1363C6.4986 89.2803 6.43622 89.4162 6.34942 89.536C6.26262 89.6558 6.15309 89.7572 6.02712 89.8345C5.90115 89.9118 5.76121 89.9634 5.61531 89.9864C5.46942 90.0093 5.32044 90.0032 5.17692 89.9683L-2.63866 88.0736C-2.78242 88.0387 -2.91792 87.9758 -3.03743 87.8884C-3.15693 87.801 -3.2581 87.6909 -3.33515 87.5643C-3.41219 87.4377 -3.46361 87.2971 -3.48646 87.1505C-3.50931 87.004 -3.50315 86.8544 -3.46833 86.7102ZM9.34827 77.2891L7.60527 84.5429L-0.656513 74.9329L-0.656513 74.863C-0.585475 74.5724 -0.402613 74.3217 -0.147875 74.1658C0.106863 74.0099 0.412772 73.9615 0.703022 74.031L8.5186 75.9257C8.66236 75.9606 8.79787 76.0235 8.91737 76.1109C9.03688 76.1983 9.13804 76.3085 9.21509 76.4351C9.29213 76.5617 9.34355 76.7023 9.3664 76.8488C9.38925 76.9953 9.38309 77.145 9.34827 77.2891Z" fill="#DC3059"/>
<path fill-rule="evenodd" clip-rule="evenodd" d="M-5.21023 59.0317L3.21111 61.0605L-6.4023 69.3328L-7.63631 69.033C-7.78034 68.9986 -7.91615 68.9362 -8.03596 68.8494C-8.15577 68.7626 -8.25723 68.6531 -8.33452 68.5271C-8.41181 68.4011 -8.46341 68.2612 -8.48637 68.1153C-8.50933 67.9694 -8.50319 67.8204 -8.46831 67.6769L-6.57359 59.8613C-6.53873 59.7176 -6.47581 59.5821 -6.38842 59.4626C-6.30103 59.3431 -6.19088 59.2419 -6.06428 59.1648C-5.93767 59.0878 -5.79708 59.0364 -5.65054 59.0135C-5.504 58.9907 -5.35439 58.9968 -5.21023 59.0317ZM4.21091 71.8483L-3.04285 70.1053L6.56707 61.8435L6.63698 61.8435C6.92765 61.9145 7.1783 62.0974 7.33419 62.3521C7.49009 62.6069 7.53854 62.9128 7.46898 63.203L5.57426 71.0186C5.5394 71.1624 5.47648 71.2979 5.38909 71.4174C5.3017 71.5369 5.19156 71.638 5.06495 71.7151C4.93834 71.7921 4.79775 71.8435 4.65122 71.8664C4.50468 71.8892 4.35506 71.8831 4.21091 71.8483Z" fill="#DC3059"/>
<path fill-rule="evenodd" clip-rule="evenodd" d="M21.3483 89.2897L19.3194 97.7111L11.0472 88.0977L11.347 86.8637C11.3813 86.7196 11.4437 86.5838 11.5305 86.464C11.6173 86.3442 11.7269 86.2427 11.8528 86.1654C11.9788 86.0882 12.1187 86.0366 12.2646 86.0136C12.4105 85.9906 12.5595 85.9968 12.703 86.0317L20.5186 87.9264C20.6624 87.9612 20.7979 88.0242 20.9174 88.1115C21.0369 88.1989 21.138 88.3091 21.2151 88.4357C21.2921 88.5623 21.3436 88.7029 21.3664 88.8494C21.3893 88.996 21.3831 89.1456 21.3483 89.2897ZM8.53168 98.7109L10.2747 91.4571L18.5365 101.067V101.137C18.4654 101.428 18.2826 101.678 18.0278 101.834C17.7731 101.99 17.4672 102.039 17.1769 101.969L9.36134 100.074C9.21758 100.039 9.08208 99.9764 8.96257 99.889C8.84307 99.8017 8.7419 99.6915 8.66486 99.5649C8.58781 99.4383 8.53639 99.2977 8.51354 99.1512C8.49069 99.0046 8.49685 98.855 8.53168 98.7109Z" fill="#6528C9"/>
<path fill-rule="evenodd" clip-rule="evenodd" d="M23.2103 116.848L14.7889 114.819L24.4023 106.547L25.6363 106.847C25.7804 106.881 25.9162 106.944 26.036 107.03C26.1558 107.117 26.2573 107.227 26.3345 107.353C26.4118 107.479 26.4634 107.619 26.4864 107.765C26.5094 107.91 26.5032 108.059 26.4683 108.203L24.5736 116.019C24.5388 116.162 24.4758 116.298 24.3884 116.417C24.3011 116.537 24.1909 116.638 24.0643 116.715C23.9377 116.792 23.7971 116.844 23.6506 116.866C23.504 116.889 23.3544 116.883 23.2103 116.848ZM13.7891 104.032L21.0429 105.775L11.433 114.036L11.363 114.036C11.0724 113.965 10.8217 113.783 10.6658 113.528C10.5099 113.273 10.4615 112.967 10.5311 112.677L12.4258 104.861C12.4606 104.718 12.5236 104.582 12.6109 104.463C12.6983 104.343 12.8085 104.242 12.9351 104.165C13.0617 104.088 13.2023 104.036 13.3488 104.014C13.4954 103.991 13.645 103.997 13.7891 104.032Z" fill="#6528C9"/>
<path fill-rule="evenodd" clip-rule="evenodd" d="M-3.46833 118.71L-1.43948 110.289L6.83276 119.902L6.53297 121.136C6.4986 121.28 6.43622 121.416 6.34942 121.536C6.26262 121.656 6.15309 121.757 6.02712 121.835C5.90115 121.912 5.76121 121.963 5.61531 121.986C5.46942 122.009 5.32044 122.003 5.17692 121.968L-2.63866 120.074C-2.78242 120.039 -2.91792 119.976 -3.03743 119.888C-3.15693 119.801 -3.2581 119.691 -3.33515 119.564C-3.41219 119.438 -3.46361 119.297 -3.48646 119.151C-3.50931 119.004 -3.50315 118.854 -3.46833 118.71ZM9.34827 109.289L7.60527 116.543L-0.656513 106.933L-0.656513 106.863C-0.585475 106.572 -0.402613 106.322 -0.147875 106.166C0.106863 106.01 0.412772 105.961 0.703022 106.031L8.5186 107.926C8.66236 107.961 8.79787 108.024 8.91737 108.111C9.03688 108.198 9.13804 108.308 9.21509 108.435C9.29213 108.562 9.34355 108.702 9.3664 108.849C9.38925 108.995 9.38309 109.145 9.34827 109.289Z" fill="#6528C9"/>
<path fill-rule="evenodd" clip-rule="evenodd" d="M-5.21023 91.0317L3.21111 93.0605L-6.4023 101.333L-7.63631 101.033C-7.78034 100.999 -7.91615 100.936 -8.03596 100.849C-8.15577 100.763 -8.25723 100.653 -8.33452 100.527C-8.41181 100.401 -8.46341 100.261 -8.48637 100.115C-8.50933 99.9694 -8.50319 99.8204 -8.46831 99.6769L-6.57359 91.8613C-6.53873 91.7176 -6.47581 91.5821 -6.38842 91.4625C-6.30103 91.343 -6.19088 91.2419 -6.06428 91.1648C-5.93767 91.0878 -5.79708 91.0364 -5.65054 91.0135C-5.504 90.9907 -5.35439 90.9968 -5.21023 91.0317ZM4.21091 103.848L-3.04285 102.105L6.56707 93.8435L6.63698 93.8435C6.92764 93.9145 7.1783 94.0974 7.33419 94.3521C7.49009 94.6068 7.53854 94.9127 7.46898 95.203L5.57426 103.019C5.5394 103.162 5.47648 103.298 5.38909 103.417C5.3017 103.537 5.19156 103.638 5.06495 103.715C4.93834 103.792 4.79775 103.844 4.65122 103.866C4.50468 103.889 4.35506 103.883 4.21091 103.848Z" fill="#6528C9"/>
<path fill-rule="evenodd" clip-rule="evenodd" d="M52.3483 -6.71023L50.3194 1.71112L42.0472 -7.90229L42.347 -9.1363C42.3813 -9.28033 42.4437 -9.41614 42.5305 -9.53595C42.6173 -9.65577 42.7268 -9.75722 42.8528 -9.83451C42.9788 -9.9118 43.1187 -9.9634 43.2646 -9.98636C43.4105 -10.0093 43.5595 -10.0032 43.703 -9.9683L51.5186 -8.07358C51.6624 -8.03872 51.7979 -7.9758 51.9174 -7.88841C52.0369 -7.80102 52.138 -7.69088 52.2151 -7.56427C52.2921 -7.43766 52.3435 -7.29707 52.3664 -7.15053C52.3892 -7.004 52.3831 -6.85438 52.3483 -6.71023ZM39.5317 2.71091L41.2747 -4.54284L49.5364 5.06707V5.13699C49.4654 5.42765 49.2825 5.67831 49.0278 5.8342C48.7731 5.99009 48.4672 6.03855 48.1769 5.96899L40.3613 4.07427C40.2176 4.03941 40.0821 3.97649 39.9626 3.8891C39.8431 3.80171 39.7419 3.69156 39.6648 3.56496C39.5878 3.43835 39.5364 3.29776 39.5135 3.15122C39.4907 3.00468 39.4968 2.85507 39.5317 2.71091Z" fill="#6528C9"/>
<path fill-rule="evenodd" clip-rule="evenodd" d="M54.2103 20.8483L45.7889 18.8194L55.4023 10.5472L56.6363 10.847C56.7804 10.8814 56.9162 10.9437 57.036 11.0305C57.1558 11.1173 57.2572 11.2269 57.3345 11.3528C57.4118 11.4788 57.4634 11.6187 57.4864 11.7646C57.5093 11.9105 57.5032 12.0595 57.4683 12.203L55.5736 20.0186C55.5387 20.1624 55.4758 20.2979 55.3884 20.4174C55.301 20.5369 55.1909 20.6381 55.0643 20.7151C54.9377 20.7921 54.7971 20.8436 54.6506 20.8664C54.504 20.8893 54.3544 20.8831 54.2103 20.8483ZM44.7891 8.03168L52.0429 9.77468L42.4329 18.0365L42.363 18.0365C42.0724 17.9654 41.8217 17.7826 41.6658 17.5278C41.5099 17.2731 41.4615 16.9672 41.531 16.6769L43.4258 8.86135C43.4606 8.71759 43.5235 8.58209 43.6109 8.46258C43.6983 8.34308 43.8085 8.24191 43.9351 8.16487C44.0617 8.08782 44.2023 8.0364 44.3488 8.01355C44.4953 7.9907 44.645 7.99686 44.7891 8.03168Z" fill="#6528C9"/>
<path fill-rule="evenodd" clip-rule="evenodd" d="M27.5317 22.7103L29.5605 14.2889L37.8327 23.9023L37.533 25.1363C37.4986 25.2804 37.4362 25.4162 37.3494 25.536C37.2626 25.6558 37.1531 25.7573 37.0271 25.8346C36.9011 25.9118 36.7612 25.9634 36.6153 25.9864C36.4694 26.0094 36.3204 26.0032 36.1769 25.9683L28.3613 24.0736C28.2176 24.0388 28.0821 23.9758 27.9626 23.8885C27.8431 23.8011 27.7419 23.6909 27.6648 23.5643C27.5878 23.4377 27.5364 23.2971 27.5135 23.1506C27.4907 23.004 27.4968 22.8544 27.5317 22.7103ZM40.3483 13.2891L38.6053 20.5429L30.3435 10.933L30.3435 10.8631C30.4145 10.5724 30.5974 10.3217 30.8521 10.1658C31.1068 10.01 31.4128 9.9615 31.703 10.0311L39.5186 11.9258C39.6623 11.9606 39.7979 12.0236 39.9174 12.111C40.0369 12.1983 40.138 12.3085 40.2151 12.4351C40.2921 12.5617 40.3435 12.7023 40.3664 12.8488C40.3892 12.9954 40.3831 13.145 40.3483 13.2891Z" fill="#6528C9"/>
<path fill-rule="evenodd" clip-rule="evenodd" d="M25.7897 -4.9683L34.2111 -2.93946L24.5977 5.33278L23.3637 5.03299C23.2196 4.99862 23.0838 4.93625 22.964 4.84944C22.8442 4.76264 22.7428 4.65312 22.6655 4.52714C22.5882 4.40117 22.5366 4.26123 22.5136 4.11534C22.4907 3.96944 22.4968 3.82046 22.5317 3.67694L24.4264 -4.13864C24.4613 -4.2824 24.5242 -4.4179 24.6116 -4.53741C24.699 -4.65691 24.8091 -4.75808 24.9357 -4.83512C25.0623 -4.91217 25.2029 -4.96359 25.3494 -4.98644C25.496 -5.00929 25.6456 -5.00313 25.7897 -4.9683ZM35.2109 7.84829L27.9571 6.1053L37.5671 -2.15649L37.637 -2.15649C37.9276 -2.08545 38.1783 -1.90259 38.3342 -1.64785C38.4901 -1.39312 38.5385 -1.08721 38.469 -0.796957L36.5742 7.01862C36.5394 7.16238 36.4765 7.29789 36.3891 7.41739C36.3017 7.5369 36.1915 7.63806 36.0649 7.71511C35.9383 7.79215 35.7977 7.84357 35.6512 7.86642C35.5047 7.88927 35.355 7.88311 35.2109 7.84829Z" fill="#6528C9"/>
<path fill-rule="evenodd" clip-rule="evenodd" d="M52.3483 25.2898L50.3194 33.7111L42.0472 24.0977L42.347 22.8637C42.3813 22.7197 42.4437 22.5838 42.5305 22.464C42.6173 22.3442 42.7268 22.2428 42.8528 22.1655C42.9788 22.0882 43.1187 22.0366 43.2646 22.0136C43.4105 21.9907 43.5595 21.9968 43.703 22.0317L51.5186 23.9264C51.6624 23.9613 51.7979 24.0242 51.9174 24.1116C52.0369 24.199 52.138 24.3091 52.2151 24.4357C52.2921 24.5623 52.3435 24.7029 52.3664 24.8495C52.3892 24.996 52.3831 25.1456 52.3483 25.2898ZM39.5317 34.7109L41.2747 27.4571L49.5364 37.0671V37.137C49.4654 37.4276 49.2825 37.6783 49.0278 37.8342C48.7731 37.9901 48.4672 38.0385 48.1769 37.969L40.3613 36.0743C40.2176 36.0394 40.0821 35.9765 39.9626 35.8891C39.8431 35.8017 39.7419 35.6915 39.6648 35.5649C39.5878 35.4383 39.5364 35.2977 39.5135 35.1512C39.4907 35.0047 39.4968 34.855 39.5317 34.7109Z" fill="#DC3059"/>
<path fill-rule="evenodd" clip-rule="evenodd" d="M54.2103 52.8483L45.7889 50.8194L55.4023 42.5472L56.6363 42.847C56.7804 42.8813 56.9162 42.9437 57.036 43.0305C57.1558 43.1173 57.2572 43.2268 57.3345 43.3528C57.4118 43.4788 57.4634 43.6187 57.4864 43.7646C57.5093 43.9105 57.5032 44.0595 57.4683 44.203L55.5736 52.0186C55.5387 52.1624 55.4758 52.2979 55.3884 52.4174C55.301 52.5369 55.1909 52.638 55.0643 52.7151C54.9377 52.7921 54.7971 52.8435 54.6506 52.8664C54.504 52.8892 54.3544 52.8831 54.2103 52.8483ZM44.7891 40.0317L52.0429 41.7747L42.4329 50.0364L42.363 50.0364C42.0724 49.9654 41.8217 49.7826 41.6658 49.5278C41.5099 49.2731 41.4615 48.9672 41.531 48.6769L43.4258 40.8613C43.4606 40.7176 43.5235 40.5821 43.6109 40.4626C43.6983 40.3431 43.8085 40.2419 43.9351 40.1649C44.0617 40.0878 44.2023 40.0364 44.3488 40.0135C44.4953 39.9907 44.645 39.9968 44.7891 40.0317Z" fill="#DC3059"/>
<path fill-rule="evenodd" clip-rule="evenodd" d="M27.5317 54.7103L29.5605 46.2889L37.8327 55.9023L37.533 57.1363C37.4986 57.2804 37.4362 57.4162 37.3494 57.536C37.2626 57.6558 37.1531 57.7573 37.0271 57.8345C36.9011 57.9118 36.7612 57.9634 36.6153 57.9864C36.4694 58.0093 36.3204 58.0032 36.1769 57.9683L28.3613 56.0736C28.2176 56.0388 28.0821 55.9758 27.9626 55.8884C27.8431 55.801 27.7419 55.6909 27.6648 55.5643C27.5878 55.4377 27.5364 55.2971 27.5135 55.1506C27.4907 55.004 27.4968 54.8544 27.5317 54.7103ZM40.3483 45.2891L38.6053 52.5429L30.3435 42.933L30.3435 42.863C30.4145 42.5724 30.5974 42.3217 30.8521 42.1658C31.1068 42.0099 31.4128 41.9615 31.703 42.031L39.5186 43.9258C39.6623 43.9606 39.7979 44.0235 39.9174 44.1109C40.0369 44.1983 40.138 44.3085 40.2151 44.4351C40.2921 44.5617 40.3435 44.7023 40.3664 44.8488C40.3892 44.9953 40.3831 45.145 40.3483 45.2891Z" fill="#DC3059"/>
<path fill-rule="evenodd" clip-rule="evenodd" d="M25.7897 27.0317L34.2111 29.0605L24.5977 37.3328L23.3637 37.033C23.2196 36.9986 23.0838 36.9362 22.964 36.8494C22.8442 36.7626 22.7428 36.6531 22.6655 36.5271C22.5882 36.4012 22.5366 36.2612 22.5136 36.1153C22.4907 35.9694 22.4968 35.8204 22.5317 35.6769L24.4264 27.8613C24.4613 27.7176 24.5242 27.5821 24.6116 27.4626C24.699 27.3431 24.8091 27.2419 24.9357 27.1649C25.0623 27.0878 25.2029 27.0364 25.3494 27.0135C25.496 26.9907 25.6456 26.9969 25.7897 27.0317ZM35.2109 39.8483L27.9571 38.1053L37.5671 29.8435L37.637 29.8435C37.9276 29.9145 38.1783 30.0974 38.3342 30.3521C38.4901 30.6069 38.5385 30.9128 38.469 31.203L36.5742 39.0186C36.5394 39.1624 36.4765 39.2979 36.3891 39.4174C36.3017 39.5369 36.1915 39.638 36.0649 39.7151C35.9383 39.7921 35.7977 39.8436 35.6512 39.8664C35.5047 39.8893 35.355 39.8831 35.2109 39.8483Z" fill="#DC3059"/>
<path fill-rule="evenodd" clip-rule="evenodd" d="M52.3483 57.2897L50.3194 65.7111L42.0472 56.0977L42.347 54.8637C42.3813 54.7196 42.4437 54.5838 42.5305 54.464C42.6173 54.3442 42.7268 54.2427 42.8528 54.1655C42.9788 54.0882 43.1187 54.0366 43.2646 54.0136C43.4105 53.9907 43.5595 53.9968 43.703 54.0317L51.5186 55.9264C51.6624 55.9612 51.7979 56.0242 51.9174 56.1116C52.0369 56.199 52.138 56.3091 52.2151 56.4357C52.2921 56.5623 52.3435 56.7029 52.3664 56.8494C52.3892 56.996 52.3831 57.1456 52.3483 57.2897ZM39.5317 66.7109L41.2747 59.4571L49.5364 69.067V69.137C49.4654 69.4276 49.2825 69.6783 49.0278 69.8342C48.7731 69.9901 48.4672 70.0385 48.1769 69.969L40.3613 68.0742C40.2176 68.0394 40.0821 67.9765 39.9626 67.8891C39.8431 67.8017 39.7419 67.6915 39.6648 67.5649C39.5878 67.4383 39.5364 67.2977 39.5135 67.1512C39.4907 67.0047 39.4968 66.855 39.5317 66.7109Z" fill="#6528C9"/>
<path fill-rule="evenodd" clip-rule="evenodd" d="M54.2103 84.8482L45.7889 82.8194L55.4023 74.5472L56.6363 74.847C56.7804 74.8813 56.9162 74.9437 57.036 75.0305C57.1558 75.1173 57.2572 75.2268 57.3345 75.3528C57.4118 75.4788 57.4634 75.6187 57.4864 75.7646C57.5093 75.9105 57.5032 76.0595 57.4683 76.203L55.5736 84.0186C55.5387 84.1623 55.4758 84.2978 55.3884 84.4174C55.301 84.5369 55.1909 84.638 55.0643 84.7151C54.9377 84.7921 54.7971 84.8435 54.6506 84.8664C54.504 84.8892 54.3544 84.8831 54.2103 84.8482ZM44.7891 72.0317L52.0429 73.7746L42.4329 82.0364L42.363 82.0364C42.0724 81.9654 41.8217 81.7825 41.6658 81.5278C41.5099 81.2731 41.4615 80.9671 41.531 80.6769L43.4258 72.8613C43.4606 72.7176 43.5235 72.5821 43.6109 72.4626C43.6983 72.343 43.8085 72.2419 43.9351 72.1648C44.0617 72.0878 44.2023 72.0364 44.3488 72.0135C44.4953 71.9907 44.645 71.9968 44.7891 72.0317Z" fill="#6528C9"/>
<path fill-rule="evenodd" clip-rule="evenodd" d="M27.5317 86.7102L29.5605 78.2889L37.8327 87.9023L37.533 89.1363C37.4986 89.2803 37.4362 89.4162 37.3494 89.536C37.2626 89.6558 37.1531 89.7572 37.0271 89.8345C36.9011 89.9118 36.7612 89.9634 36.6153 89.9864C36.4694 90.0093 36.3204 90.0032 36.1769 89.9683L28.3613 88.0736C28.2176 88.0387 28.0821 87.9758 27.9626 87.8884C27.8431 87.801 27.7419 87.6909 27.6648 87.5643C27.5878 87.4377 27.5364 87.2971 27.5135 87.1505C27.4907 87.004 27.4968 86.8544 27.5317 86.7102ZM40.3483 77.2891L38.6053 84.5429L30.3435 74.9329L30.3435 74.863C30.4145 74.5724 30.5974 74.3217 30.8521 74.1658C31.1068 74.0099 31.4128 73.9615 31.703 74.031L39.5186 75.9257C39.6623 75.9606 39.7979 76.0235 39.9174 76.1109C40.0369 76.1983 40.138 76.3085 40.2151 76.4351C40.2921 76.5617 40.3435 76.7023 40.3664 76.8488C40.3892 76.9953 40.3831 77.1449 40.3483 77.2891Z" fill="#6528C9"/>
<path fill-rule="evenodd" clip-rule="evenodd" d="M25.7897 59.0317L34.2111 61.0605L24.5977 69.3328L23.3637 69.033C23.2196 68.9986 23.0838 68.9362 22.964 68.8494C22.8442 68.7626 22.7428 68.6531 22.6655 68.5271C22.5882 68.4011 22.5366 68.2612 22.5136 68.1153C22.4907 67.9694 22.4968 67.8204 22.5317 67.6769L24.4264 59.8613C24.4613 59.7176 24.5242 59.5821 24.6116 59.4626C24.699 59.3431 24.8091 59.2419 24.9357 59.1648C25.0623 59.0878 25.2029 59.0364 25.3494 59.0135C25.496 58.9907 25.6456 58.9968 25.7897 59.0317ZM35.2109 71.8483L27.9571 70.1053L37.5671 61.8435L37.637 61.8435C37.9276 61.9145 38.1783 62.0974 38.3342 62.3521C38.4901 62.6069 38.5385 62.9128 38.469 63.203L36.5742 71.0186C36.5394 71.1624 36.4765 71.2979 36.3891 71.4174C36.3017 71.5369 36.1915 71.638 36.0649 71.7151C35.9383 71.7921 35.7977 71.8435 35.6512 71.8664C35.5047 71.8892 35.355 71.8831 35.2109 71.8483Z" fill="#6528C9"/>
<path fill-rule="evenodd" clip-rule="evenodd" d="M52.3483 89.2897L50.3194 97.7111L42.0472 88.0977L42.347 86.8637C42.3813 86.7196 42.4437 86.5838 42.5305 86.464C42.6173 86.3442 42.7268 86.2427 42.8528 86.1654C42.9788 86.0882 43.1187 86.0366 43.2646 86.0136C43.4105 85.9906 43.5595 85.9968 43.703 86.0317L51.5186 87.9264C51.6624 87.9612 51.7979 88.0242 51.9174 88.1115C52.0369 88.1989 52.138 88.3091 52.2151 88.4357C52.2921 88.5623 52.3435 88.7029 52.3664 88.8494C52.3892 88.996 52.3831 89.1456 52.3483 89.2897ZM39.5317 98.7109L41.2747 91.4571L49.5364 101.067V101.137C49.4654 101.428 49.2825 101.678 49.0278 101.834C48.7731 101.99 48.4672 102.039 48.1769 101.969L40.3613 100.074C40.2176 100.039 40.0821 99.9764 39.9626 99.889C39.8431 99.8017 39.7419 99.6915 39.6648 99.5649C39.5878 99.4383 39.5364 99.2977 39.5135 99.1512C39.4907 99.0046 39.4968 98.855 39.5317 98.7109Z" fill="#DC3059"/>
<path fill-rule="evenodd" clip-rule="evenodd" d="M54.2103 116.848L45.7889 114.819L55.4023 106.547L56.6363 106.847C56.7804 106.881 56.9162 106.944 57.036 107.03C57.1558 107.117 57.2572 107.227 57.3345 107.353C57.4118 107.479 57.4634 107.619 57.4864 107.765C57.5093 107.91 57.5032 108.059 57.4683 108.203L55.5736 116.019C55.5387 116.162 55.4758 116.298 55.3884 116.417C55.301 116.537 55.1909 116.638 55.0643 116.715C54.9377 116.792 54.7971 116.844 54.6506 116.866C54.504 116.889 54.3544 116.883 54.2103 116.848ZM44.7891 104.032L52.0429 105.775L42.4329 114.036L42.363 114.036C42.0724 113.965 41.8217 113.783 41.6658 113.528C41.5099 113.273 41.4615 112.967 41.531 112.677L43.4258 104.861C43.4606 104.718 43.5235 104.582 43.6109 104.463C43.6983 104.343 43.8085 104.242 43.9351 104.165C44.0617 104.088 44.2023 104.036 44.3488 104.014C44.4953 103.991 44.645 103.997 44.7891 104.032Z" fill="#DC3059"/>
<path fill-rule="evenodd" clip-rule="evenodd" d="M27.5317 118.71L29.5605 110.289L37.8327 119.902L37.533 121.136C37.4986 121.28 37.4362 121.416 37.3494 121.536C37.2626 121.656 37.1531 121.757 37.0271 121.835C36.9011 121.912 36.7612 121.963 36.6153 121.986C36.4694 122.009 36.3204 122.003 36.1769 121.968L28.3613 120.074C28.2176 120.039 28.0821 119.976 27.9626 119.888C27.8431 119.801 27.7419 119.691 27.6648 119.564C27.5878 119.438 27.5364 119.297 27.5135 119.151C27.4907 119.004 27.4968 118.854 27.5317 118.71ZM40.3483 109.289L38.6053 116.543L30.3435 106.933L30.3435 106.863C30.4145 106.572 30.5974 106.322 30.8521 106.166C31.1068 106.01 31.4128 105.961 31.703 106.031L39.5186 107.926C39.6623 107.961 39.7979 108.024 39.9174 108.111C40.0369 108.198 40.138 108.308 40.2151 108.435C40.2921 108.562 40.3435 108.702 40.3664 108.849C40.3892 108.995 40.3831 109.145 40.3483 109.289Z" fill="#DC3059"/>
<path fill-rule="evenodd" clip-rule="evenodd" d="M25.7897 91.0317L34.2111 93.0605L24.5977 101.333L23.3637 101.033C23.2196 100.999 23.0838 100.936 22.964 100.849C22.8442 100.763 22.7428 100.653 22.6655 100.527C22.5882 100.401 22.5366 100.261 22.5136 100.115C22.4907 99.9694 22.4968 99.8204 22.5317 99.6769L24.4264 91.8613C24.4613 91.7176 24.5242 91.5821 24.6116 91.4625C24.699 91.343 24.8091 91.2419 24.9357 91.1648C25.0623 91.0878 25.2029 91.0364 25.3494 91.0135C25.496 90.9907 25.6456 90.9968 25.7897 91.0317ZM35.2109 103.848L27.9571 102.105L37.5671 93.8435L37.637 93.8435C37.9276 93.9145 38.1783 94.0974 38.3342 94.3521C38.4901 94.6068 38.5385 94.9127 38.469 95.203L36.5742 103.019C36.5394 103.162 36.4765 103.298 36.3891 103.417C36.3017 103.537 36.1915 103.638 36.0649 103.715C35.9383 103.792 35.7977 103.844 35.6512 103.866C35.5047 103.889 35.355 103.883 35.2109 103.848Z" fill="#DC3059"/>
<path fill-rule="evenodd" clip-rule="evenodd" d="M83.3482 -6.71023L81.3194 1.71112L73.0472 -7.90229L73.3469 -9.1363C73.3813 -9.28033 73.4437 -9.41614 73.5305 -9.53595C73.6173 -9.65577 73.7268 -9.75722 73.8528 -9.83451C73.9788 -9.9118 74.1187 -9.9634 74.2646 -9.98636C74.4105 -10.0093 74.5595 -10.0032 74.703 -9.9683L82.5186 -8.07358C82.6623 -8.03872 82.7978 -7.9758 82.9173 -7.88841C83.0368 -7.80102 83.138 -7.69088 83.2151 -7.56427C83.2921 -7.43766 83.3435 -7.29707 83.3664 -7.15053C83.3892 -7.004 83.3831 -6.85438 83.3482 -6.71023ZM70.5316 2.71091L72.2746 -4.54284L80.5364 5.06707V5.13699C80.4654 5.42765 80.2825 5.67831 80.0278 5.8342C79.7731 5.99009 79.4671 6.03855 79.1769 5.96899L71.3613 4.07427C71.2176 4.03941 71.082 3.97649 70.9625 3.8891C70.843 3.80171 70.7419 3.69156 70.6648 3.56495C70.5878 3.43835 70.5364 3.29776 70.5135 3.15122C70.4907 3.00468 70.4968 2.85506 70.5316 2.71091Z" fill="#DC3059"/>
<path fill-rule="evenodd" clip-rule="evenodd" d="M85.2102 20.8483L76.7889 18.8194L86.4023 10.5472L87.6363 10.847C87.7803 10.8814 87.9161 10.9437 88.036 11.0305C88.1558 11.1173 88.2572 11.2269 88.3345 11.3528C88.4118 11.4788 88.4634 11.6187 88.4864 11.7646C88.5093 11.9105 88.5032 12.0595 88.4683 12.203L86.5736 20.0186C86.5387 20.1624 86.4758 20.2979 86.3884 20.4174C86.301 20.5369 86.1909 20.6381 86.0643 20.7151C85.9377 20.7921 85.7971 20.8436 85.6505 20.8664C85.504 20.8893 85.3544 20.8831 85.2102 20.8483ZM75.7891 8.03168L83.0428 9.77468L73.4329 18.0365L73.363 18.0365C73.0724 17.9654 72.8217 17.7826 72.6658 17.5278C72.5099 17.2731 72.4615 16.9672 72.531 16.6769L74.4257 8.86135C74.4606 8.71759 74.5235 8.58209 74.6109 8.46258C74.6983 8.34308 74.8084 8.24191 74.9351 8.16487C75.0617 8.08782 75.2022 8.0364 75.3488 8.01355C75.4953 7.9907 75.6449 7.99686 75.7891 8.03168Z" fill="#DC3059"/>
<path fill-rule="evenodd" clip-rule="evenodd" d="M58.5316 22.7103L60.5605 14.2889L68.8327 23.9023L68.5329 25.1363C68.4986 25.2804 68.4362 25.4162 68.3494 25.536C68.2626 25.6558 68.1531 25.7573 68.0271 25.8346C67.9011 25.9118 67.7612 25.9634 67.6153 25.9864C67.4694 26.0094 67.3204 26.0032 67.1769 25.9683L59.3613 24.0736C59.2175 24.0388 59.082 23.9758 58.9625 23.8885C58.843 23.8011 58.7419 23.6909 58.6648 23.5643C58.5878 23.4377 58.5364 23.2971 58.5135 23.1506C58.4907 23.004 58.4968 22.8544 58.5316 22.7103ZM71.3482 13.2891L69.6052 20.5429L61.3435 10.933L61.3435 10.8631C61.4145 10.5724 61.5974 10.3217 61.8521 10.1658C62.1068 10.01 62.4127 9.9615 62.703 10.0311L70.5186 11.9258C70.6623 11.9606 70.7978 12.0236 70.9173 12.111C71.0368 12.1983 71.138 12.3085 71.2151 12.4351C71.2921 12.5617 71.3435 12.7023 71.3664 12.8488C71.3892 12.9954 71.3831 13.145 71.3482 13.2891Z" fill="#DC3059"/>
<path fill-rule="evenodd" clip-rule="evenodd" d="M56.7897 -4.9683L65.2111 -2.93946L55.5977 5.33278L54.3637 5.03299C54.2196 4.99862 54.0838 4.93625 53.964 4.84944C53.8442 4.76264 53.7427 4.65312 53.6654 4.52714C53.5882 4.40117 53.5366 4.26123 53.5136 4.11534C53.4906 3.96944 53.4968 3.82046 53.5317 3.67694L55.4264 -4.13864C55.4612 -4.2824 55.5242 -4.4179 55.6116 -4.53741C55.6989 -4.65691 55.8091 -4.75808 55.9357 -4.83512C56.0623 -4.91217 56.2029 -4.96359 56.3494 -4.98644C56.496 -5.00929 56.6456 -5.00313 56.7897 -4.9683ZM66.2109 7.84829L58.9571 6.1053L68.567 -2.15649L68.637 -2.15649C68.9276 -2.08545 69.1783 -1.90259 69.3342 -1.64785C69.4901 -1.39312 69.5385 -1.08721 69.4689 -0.796957L67.5742 7.01862C67.5394 7.16238 67.4764 7.29789 67.3891 7.41739C67.3017 7.5369 67.1915 7.63806 67.0649 7.71511C66.9383 7.79215 66.7977 7.84357 66.6512 7.86642C66.5046 7.88927 66.355 7.88311 66.2109 7.84829Z" fill="#DC3059"/>
<path fill-rule="evenodd" clip-rule="evenodd" d="M83.3482 25.2898L81.3194 33.7111L73.0472 24.0977L73.3469 22.8637C73.3813 22.7197 73.4437 22.5838 73.5305 22.464C73.6173 22.3442 73.7268 22.2428 73.8528 22.1655C73.9788 22.0882 74.1187 22.0366 74.2646 22.0136C74.4105 21.9907 74.5595 21.9968 74.703 22.0317L82.5186 23.9264C82.6623 23.9613 82.7978 24.0242 82.9173 24.1116C83.0368 24.199 83.138 24.3091 83.2151 24.4357C83.2921 24.5623 83.3435 24.7029 83.3664 24.8495C83.3892 24.996 83.3831 25.1456 83.3482 25.2898ZM70.5316 34.7109L72.2746 27.4571L80.5364 37.0671V37.137C80.4654 37.4276 80.2825 37.6783 80.0278 37.8342C79.7731 37.9901 79.4671 38.0385 79.1769 37.969L71.3613 36.0743C71.2176 36.0394 71.082 35.9765 70.9625 35.8891C70.843 35.8017 70.7419 35.6915 70.6648 35.5649C70.5878 35.4383 70.5364 35.2977 70.5135 35.1512C70.4907 35.0047 70.4968 34.8551 70.5316 34.7109Z" fill="#6528C9"/>
<path fill-rule="evenodd" clip-rule="evenodd" d="M85.2102 52.8483L76.7889 50.8194L86.4023 42.5472L87.6363 42.847C87.7803 42.8813 87.9161 42.9437 88.036 43.0305C88.1558 43.1173 88.2572 43.2268 88.3345 43.3528C88.4118 43.4788 88.4634 43.6187 88.4864 43.7646C88.5093 43.9105 88.5032 44.0595 88.4683 44.203L86.5736 52.0186C86.5387 52.1624 86.4758 52.2979 86.3884 52.4174C86.301 52.5369 86.1909 52.638 86.0643 52.7151C85.9377 52.7921 85.7971 52.8435 85.6505 52.8664C85.504 52.8892 85.3544 52.8831 85.2102 52.8483ZM75.7891 40.0317L83.0428 41.7747L73.4329 50.0364L73.363 50.0364C73.0724 49.9654 72.8217 49.7826 72.6658 49.5278C72.5099 49.2731 72.4615 48.9672 72.531 48.6769L74.4257 40.8613C74.4606 40.7176 74.5235 40.5821 74.6109 40.4626C74.6983 40.3431 74.8084 40.2419 74.9351 40.1649C75.0617 40.0878 75.2022 40.0364 75.3488 40.0135C75.4953 39.9907 75.6449 39.9968 75.7891 40.0317Z" fill="#6528C9"/>
<path fill-rule="evenodd" clip-rule="evenodd" d="M58.5316 54.7103L60.5605 46.2889L68.8327 55.9023L68.5329 57.1363C68.4986 57.2804 68.4362 57.4162 68.3494 57.536C68.2626 57.6558 68.1531 57.7573 68.0271 57.8345C67.9011 57.9118 67.7612 57.9634 67.6153 57.9864C67.4694 58.0093 67.3204 58.0032 67.1769 57.9683L59.3613 56.0736C59.2175 56.0388 59.082 55.9758 58.9625 55.8884C58.843 55.801 58.7419 55.6909 58.6648 55.5643C58.5878 55.4377 58.5364 55.2971 58.5135 55.1506C58.4907 55.004 58.4968 54.8544 58.5316 54.7103ZM71.3482 45.2891L69.6052 52.5429L61.3435 42.933L61.3435 42.863C61.4145 42.5724 61.5974 42.3217 61.8521 42.1658C62.1068 42.0099 62.4127 41.9615 62.703 42.031L70.5186 43.9258C70.6623 43.9606 70.7978 44.0235 70.9173 44.1109C71.0368 44.1983 71.138 44.3085 71.2151 44.4351C71.2921 44.5617 71.3435 44.7023 71.3664 44.8488C71.3892 44.9953 71.3831 45.145 71.3482 45.2891Z" fill="#6528C9"/>
<path fill-rule="evenodd" clip-rule="evenodd" d="M56.7897 27.0317L65.2111 29.0605L55.5977 37.3328L54.3637 37.033C54.2196 36.9986 54.0838 36.9362 53.964 36.8494C53.8442 36.7626 53.7427 36.6531 53.6654 36.5271C53.5882 36.4012 53.5366 36.2612 53.5136 36.1153C53.4906 35.9694 53.4968 35.8204 53.5317 35.6769L55.4264 27.8613C55.4612 27.7176 55.5242 27.5821 55.6116 27.4626C55.6989 27.3431 55.8091 27.2419 55.9357 27.1649C56.0623 27.0878 56.2029 27.0364 56.3494 27.0135C56.496 26.9907 56.6456 26.9969 56.7897 27.0317ZM66.2109 39.8483L58.9571 38.1053L68.567 29.8435L68.637 29.8435C68.9276 29.9145 69.1783 30.0974 69.3342 30.3521C69.4901 30.6069 69.5385 30.9128 69.4689 31.203L67.5742 39.0186C67.5394 39.1624 67.4764 39.2979 67.3891 39.4174C67.3017 39.5369 67.1915 39.638 67.0649 39.7151C66.9383 39.7921 66.7977 39.8436 66.6512 39.8664C66.5046 39.8893 66.355 39.8831 66.2109 39.8483Z" fill="#6528C9"/>
<path fill-rule="evenodd" clip-rule="evenodd" d="M83.3482 57.2897L81.3194 65.7111L73.0472 56.0977L73.3469 54.8637C73.3813 54.7196 73.4437 54.5838 73.5305 54.464C73.6173 54.3442 73.7268 54.2427 73.8528 54.1655C73.9788 54.0882 74.1187 54.0366 74.2646 54.0136C74.4105 53.9907 74.5595 53.9968 74.703 54.0317L82.5186 55.9264C82.6623 55.9612 82.7978 56.0242 82.9173 56.1116C83.0368 56.199 83.138 56.3091 83.2151 56.4357C83.2921 56.5623 83.3435 56.7029 83.3664 56.8494C83.3892 56.996 83.3831 57.1456 83.3482 57.2897ZM70.5316 66.7109L72.2746 59.4571L80.5364 69.067V69.137C80.4654 69.4276 80.2825 69.6783 80.0278 69.8342C79.7731 69.9901 79.4671 70.0385 79.1769 69.969L71.3613 68.0742C71.2176 68.0394 71.082 67.9765 70.9625 67.8891C70.843 67.8017 70.7419 67.6915 70.6648 67.5649C70.5878 67.4383 70.5364 67.2977 70.5135 67.1512C70.4907 67.0047 70.4968 66.855 70.5316 66.7109Z" fill="#DC3059"/>
<path fill-rule="evenodd" clip-rule="evenodd" d="M85.2102 84.8482L76.7889 82.8194L86.4023 74.5472L87.6363 74.847C87.7803 74.8813 87.9161 74.9437 88.036 75.0305C88.1558 75.1173 88.2572 75.2268 88.3345 75.3528C88.4118 75.4788 88.4634 75.6187 88.4864 75.7646C88.5093 75.9105 88.5032 76.0595 88.4683 76.203L86.5736 84.0186C86.5387 84.1623 86.4758 84.2978 86.3884 84.4174C86.301 84.5369 86.1909 84.638 86.0643 84.7151C85.9377 84.7921 85.7971 84.8435 85.6505 84.8664C85.504 84.8892 85.3544 84.8831 85.2102 84.8482ZM75.7891 72.0317L83.0428 73.7746L73.4329 82.0364L73.363 82.0364C73.0724 81.9654 72.8217 81.7825 72.6658 81.5278C72.5099 81.2731 72.4615 80.9671 72.531 80.6769L74.4257 72.8613C74.4606 72.7176 74.5235 72.5821 74.6109 72.4626C74.6983 72.343 74.8084 72.2419 74.9351 72.1648C75.0617 72.0878 75.2022 72.0364 75.3488 72.0135C75.4953 71.9907 75.6449 71.9968 75.7891 72.0317Z" fill="#DC3059"/>
<path fill-rule="evenodd" clip-rule="evenodd" d="M58.5316 86.7102L60.5605 78.2889L68.8327 87.9023L68.5329 89.1363C68.4986 89.2803 68.4362 89.4162 68.3494 89.536C68.2626 89.6558 68.1531 89.7572 68.0271 89.8345C67.9011 89.9118 67.7612 89.9634 67.6153 89.9864C67.4694 90.0093 67.3204 90.0032 67.1769 89.9683L59.3613 88.0736C59.2175 88.0387 59.082 87.9758 58.9625 87.8884C58.843 87.801 58.7419 87.6909 58.6648 87.5643C58.5878 87.4377 58.5364 87.2971 58.5135 87.1505C58.4907 87.004 58.4968 86.8544 58.5316 86.7102ZM71.3482 77.2891L69.6052 84.5429L61.3435 74.9329L61.3435 74.863C61.4145 74.5724 61.5974 74.3217 61.8521 74.1658C62.1068 74.0099 62.4127 73.9615 62.703 74.031L70.5186 75.9257C70.6623 75.9606 70.7978 76.0235 70.9173 76.1109C71.0368 76.1983 71.138 76.3085 71.2151 76.4351C71.2921 76.5617 71.3435 76.7023 71.3664 76.8488C71.3892 76.9953 71.3831 77.145 71.3482 77.2891Z" fill="#DC3059"/>
<path fill-rule="evenodd" clip-rule="evenodd" d="M56.7897 59.0317L65.2111 61.0605L55.5977 69.3328L54.3637 69.033C54.2196 68.9986 54.0838 68.9362 53.964 68.8494C53.8442 68.7626 53.7427 68.6531 53.6654 68.5271C53.5882 68.4011 53.5366 68.2612 53.5136 68.1153C53.4906 67.9694 53.4968 67.8204 53.5317 67.6769L55.4264 59.8613C55.4612 59.7176 55.5242 59.5821 55.6116 59.4626C55.6989 59.3431 55.8091 59.2419 55.9357 59.1648C56.0623 59.0878 56.2029 59.0364 56.3494 59.0135C56.496 58.9907 56.6456 58.9968 56.7897 59.0317ZM66.2109 71.8483L58.9571 70.1053L68.567 61.8435L68.637 61.8435C68.9276 61.9145 69.1783 62.0974 69.3342 62.3521C69.4901 62.6069 69.5385 62.9128 69.4689 63.203L67.5742 71.0186C67.5394 71.1624 67.4764 71.2979 67.3891 71.4174C67.3017 71.5369 67.1915 71.638 67.0649 71.7151C66.9383 71.7921 66.7977 71.8435 66.6512 71.8664C66.5046 71.8892 66.355 71.8831 66.2109 71.8483Z" fill="#DC3059"/>
<path fill-rule="evenodd" clip-rule="evenodd" d="M83.3482 89.2897L81.3194 97.7111L73.0472 88.0977L73.3469 86.8637C73.3813 86.7196 73.4437 86.5838 73.5305 86.464C73.6173 86.3442 73.7268 86.2427 73.8528 86.1654C73.9788 86.0882 74.1187 86.0366 74.2646 86.0136C74.4105 85.9906 74.5595 85.9968 74.703 86.0317L82.5186 87.9264C82.6623 87.9612 82.7978 88.0242 82.9173 88.1115C83.0368 88.1989 83.138 88.3091 83.2151 88.4357C83.2921 88.5623 83.3435 88.7029 83.3664 88.8494C83.3892 88.996 83.3831 89.1456 83.3482 89.2897ZM70.5316 98.7109L72.2746 91.4571L80.5364 101.067V101.137C80.4654 101.428 80.2825 101.678 80.0278 101.834C79.7731 101.99 79.4671 102.039 79.1769 101.969L71.3613 100.074C71.2176 100.039 71.082 99.9764 70.9625 99.889C70.843 99.8017 70.7419 99.6915 70.6648 99.5649C70.5878 99.4383 70.5364 99.2977 70.5135 99.1512C70.4907 99.0046 70.4968 98.855 70.5316 98.7109Z" fill="#6528C9"/>
<path fill-rule="evenodd" clip-rule="evenodd" d="M85.2102 116.848L76.7889 114.819L86.4023 106.547L87.6363 106.847C87.7803 106.881 87.9161 106.944 88.036 107.03C88.1558 107.117 88.2572 107.227 88.3345 107.353C88.4118 107.479 88.4634 107.619 88.4864 107.765C88.5093 107.91 88.5032 108.059 88.4683 108.203L86.5736 116.019C86.5387 116.162 86.4758 116.298 86.3884 116.417C86.301 116.537 86.1909 116.638 86.0643 116.715C85.9377 116.792 85.7971 116.844 85.6505 116.866C85.504 116.889 85.3544 116.883 85.2102 116.848ZM75.7891 104.032L83.0428 105.775L73.4329 114.036L73.363 114.036C73.0724 113.965 72.8217 113.783 72.6658 113.528C72.5099 113.273 72.4615 112.967 72.531 112.677L74.4257 104.861C74.4606 104.718 74.5235 104.582 74.6109 104.463C74.6983 104.343 74.8084 104.242 74.9351 104.165C75.0617 104.088 75.2022 104.036 75.3488 104.014C75.4953 103.991 75.6449 103.997 75.7891 104.032Z" fill="#6528C9"/>
<path fill-rule="evenodd" clip-rule="evenodd" d="M58.5316 118.71L60.5605 110.289L68.8327 119.902L68.5329 121.136C68.4986 121.28 68.4362 121.416 68.3494 121.536C68.2626 121.656 68.1531 121.757 68.0271 121.835C67.9011 121.912 67.7612 121.963 67.6153 121.986C67.4694 122.009 67.3204 122.003 67.1769 121.968L59.3613 120.074C59.2175 120.039 59.082 119.976 58.9625 119.888C58.843 119.801 58.7419 119.691 58.6648 119.564C58.5878 119.438 58.5364 119.297 58.5135 119.151C58.4907 119.004 58.4968 118.854 58.5316 118.71ZM71.3482 109.289L69.6052 116.543L61.3435 106.933L61.3435 106.863C61.4145 106.572 61.5974 106.322 61.8521 106.166C62.1068 106.01 62.4127 105.961 62.703 106.031L70.5186 107.926C70.6623 107.961 70.7978 108.024 70.9173 108.111C71.0368 108.198 71.138 108.308 71.2151 108.435C71.2921 108.562 71.3435 108.702 71.3664 108.849C71.3892 108.995 71.3831 109.145 71.3482 109.289Z" fill="#6528C9"/>
<path fill-rule="evenodd" clip-rule="evenodd" d="M56.7897 91.0317L65.2111 93.0605L55.5977 101.333L54.3637 101.033C54.2196 100.999 54.0838 100.936 53.964 100.849C53.8442 100.763 53.7427 100.653 53.6654 100.527C53.5882 100.401 53.5366 100.261 53.5136 100.115C53.4906 99.9694 53.4968 99.8204 53.5317 99.6769L55.4264 91.8613C55.4612 91.7176 55.5242 91.5821 55.6116 91.4625C55.6989 91.343 55.8091 91.2419 55.9357 91.1648C56.0623 91.0878 56.2029 91.0364 56.3494 91.0135C56.496 90.9907 56.6456 90.9968 56.7897 91.0317ZM66.2109 103.848L58.9571 102.105L68.567 93.8435L68.637 93.8435C68.9276 93.9145 69.1783 94.0974 69.3342 94.3521C69.4901 94.6068 69.5385 94.9127 69.4689 95.203L67.5742 103.019C67.5394 103.162 67.4764 103.298 67.3891 103.417C67.3017 103.537 67.1915 103.638 67.0649 103.715C66.9383 103.792 66.7977 103.844 66.6512 103.866C66.5046 103.889 66.355 103.883 66.2109 103.848Z" fill="#6528C9"/>
</g>
<defs>
<clipPath id="clip0_551_39043">
<rect width="80" height="112" rx="5" fill="white"/>
</clipPath>
</defs>
</svg>
