<?xml version="1.0" encoding="UTF-8"?><svg xmlns="http://www.w3.org/2000/svg" xmlns:xlink="http://www.w3.org/1999/xlink" viewBox="0 0 750 1050"><defs><clipPath id="uuid-33291d14-03d3-40e1-9561-6eb3dd6f6d40"><rect x=".05" y=".02" width="749.89" height="1049.95" rx="84.97" ry="84.97" style="fill:none;"/></clipPath><clipPath id="uuid-2e17ad9f-f544-4531-a845-3eb4c1cbc3b0"><rect x="-190.12" y="-48.85" width="1289.99" height="1233.35" style="fill:none;"/></clipPath><clipPath id="uuid-fef3614f-67ec-48b1-892d-6d2524a6c488"><rect x="-601.61" y="-476.64" width="2226.37" height="2128.61" style="fill:none;"/></clipPath><clipPath id="uuid-60cc9f1c-75b3-439b-826c-fb12a0615bc7"><rect x="-601.61" y="-476.64" width="2226.37" height="2128.61" style="fill:none;"/></clipPath></defs><g id="uuid-9dabaa8a-d786-4318-b61c-beb733a768bc"><rect width="750" height="1049.95" rx="44.82" ry="44.82" style="fill:#fff;"/></g><g id="uuid-33c1bcfa-b377-43d4-ab7e-8e70b59b472f"><g style="clip-path:url(#uuid-33291d14-03d3-40e1-9561-6eb3dd6f6d40);"><g style="clip-path:url(#uuid-2e17ad9f-f544-4531-a845-3eb4c1cbc3b0);"><rect x="35.98" y="36.13" width="678" height="978" rx="12" ry="12" style="fill:#335b59;"/></g><polygon points="331.78 173.62 291.14 293.55 398.64 281.29 331.78 173.62" style="fill:#282c44;"/><polygon points="332.44 154.42 454.47 -222.68 133.85 -188.99 332.44 154.42" style="fill:#282c44;"/><polygon points="-57.06 337.08 312.15 650.06 426.71 359.26 -57.06 337.08" style="fill:#282c44;"/><polygon points="858.85 1101.95 470.82 421.57 255.64 602.12 858.85 1101.95" style="fill:#282c44;"/><g style="clip-path:url(#uuid-fef3614f-67ec-48b1-892d-6d2524a6c488);"><line x1="538.47" y1="-472.93" x2="-147.72" y2="1648.25" style="fill:none; stroke:#fff; stroke-width:20px;"/></g><line x1="1270.64" y1="1456.42" x2="-439.03" y2="25.59" style="fill:none; stroke:#fff; stroke-width:20px;"/><g style="clip-path:url(#uuid-60cc9f1c-75b3-439b-826c-fb12a0615bc7);"><line x1="1089.48" y1="1497.65" x2="-10.83" y2="-441.32" style="fill:none; stroke:#fff; stroke-width:20px;"/><line x1="-600.83" y1="297.22" x2="1623.98" y2="440.16" style="fill:none; stroke:#fff; stroke-width:20px;"/><line x1="1175.49" y1="127.98" x2="-555.27" y2="1533.23" style="fill:none; stroke:#fff; stroke-width:20px;"/><path d="M373.67,772.86c136.3,0,246.8-110.5,246.8-246.8s-110.5-246.8-246.8-246.8-246.8,110.5-246.8,246.8,110.5,246.8,246.8,246.8" style="fill:#8a9577;"/><circle cx="373.67" cy="526.06" r="246.8" style="fill:none; stroke:#fff; stroke-width:20px;"/><path d="M430.89,468.84l-57.22,57.22c15.8,15.8,15.8,41.42,0,57.22-15.8,15.8-41.42,15.8-57.22,0l-57.22,57.22c47.4,47.4,124.26,47.4,171.66,0,47.4-47.4,47.4-124.26,0-171.66m57.22-57.22c-47.4-47.4-124.26-47.4-171.66,0-47.4,47.4-47.4,124.26,0,171.66l57.22-57.22c-15.8-15.8-15.8-41.42,0-57.22,15.8-15.8,41.42-15.8,57.22,0l57.22-57.22Z" style="fill:#fff;"/></g><rect x="-36" y="143" width="72" height="800.19" style="fill:#fff;"/><rect x="714" y="210.09" width="72" height="800.19" style="fill:#fff;"/><rect x="-35.12" y="-35.85" width="821.09" height="71.98" style="fill:#fff;"/></g></g></svg>