<svg width="16" height="16" viewBox="0 0 16 16" fill="none" xmlns="http://www.w3.org/2000/svg">
<path d="M5.29289 14.2929C4.90237 14.6834 4.90237 15.3166 5.29289 15.7071C5.68342 16.0976 6.31658 16.0976 6.70711 15.7071L5.29289 14.2929ZM13 8L13.7071 8.70711C14.0976 8.31658 14.0976 7.68342 13.7071 7.29289L13 8ZM6.70711 0.292893C6.31658 -0.0976311 5.68342 -0.0976311 5.29289 0.292893C4.90237 0.683418 4.90237 1.31658 5.29289 1.70711L6.70711 0.292893ZM6.70711 15.7071L13.7071 8.70711L12.2929 7.29289L5.29289 14.2929L6.70711 15.7071ZM13.7071 7.29289L6.70711 0.292893L5.29289 1.70711L12.2929 8.70711L13.7071 7.29289Z" fill="white"/>
</svg>
