<svg width="24" height="25" viewBox="0 0 24 25" fill="none" xmlns="http://www.w3.org/2000/svg">
<path fill-rule="evenodd" clip-rule="evenodd" d="M9.56052 5.31467C9.36074 5.5391 9.20812 5.81076 9.12301 6.11791L6.28461 16.3618V7.31467C6.28461 6.2101 7.18004 5.31467 8.28461 5.31467H9.56052Z" fill="#2C2833"/>
<path fill-rule="evenodd" clip-rule="evenodd" d="M5.70818 6.473C5.54423 6.75891 5.45094 7.09206 5.45157 7.44979L5.46882 17.2389L3.40507 9.12222C3.13288 8.05172 3.78005 6.96325 4.85056 6.69106L5.70818 6.473Z" fill="#2C2833"/>
<path d="M15.3428 9.01096L15.3428 3.01096" stroke="#2C2833" stroke-width="2" stroke-linecap="round"/>
<path fill-rule="evenodd" clip-rule="evenodd" d="M17.3428 9.00313C17.3429 10.1077 16.4474 11.0066 15.3428 11.0109C14.2383 11.0152 13.3428 10.1233 13.3428 9.01875L13.3428 5.34245L12.321 5.06864C11.254 4.78276 10.1574 5.41593 9.87147 6.48286L6.83348 17.8208C6.54759 18.8877 7.18076 19.9844 8.24769 20.2703L15.2423 22.1445C16.3092 22.4304 17.4059 21.7972 17.6918 20.7303L20.7298 9.39234C21.0157 8.32541 20.3825 7.22873 19.3156 6.94285L17.3428 6.41425L17.3428 9.00313Z" fill="#2C2833"/>
<path d="M16.968 4.04674C17.3578 4.4365 17.9909 4.43527 18.3822 4.04399C18.7735 3.6527 18.7748 3.01954 18.385 2.62978L16.968 4.04674ZM15.3428 1.00455L16.0513 0.296071C15.6616 -0.0936931 15.0284 -0.0924615 14.6371 0.298822L15.3428 1.00455ZM12.2943 2.64162C11.903 3.03291 11.9018 3.66607 12.2915 4.05583C12.6813 4.4456 13.3144 4.44437 13.7057 4.05308L12.2943 2.64162ZM18.385 2.62978L16.0513 0.296071L14.6343 1.71303L16.968 4.04674L18.385 2.62978ZM14.6371 0.298822L12.2943 2.64162L13.7057 4.05308L16.0486 1.71028L14.6371 0.298822Z" fill="#2C2833"/>
</svg>
