<svg width="18" height="16" viewBox="0 0 18 16" fill="none" xmlns="http://www.w3.org/2000/svg">
<mask id="path-1-outside-1_518_37520" maskUnits="userSpaceOnUse" x="-0.460571" y="3" width="18" height="6" fill="black">
<rect fill="white" x="-0.460571" y="3" width="18" height="6"/>
<path d="M3.89981 4.3753L1.64993 7.18765C1.38803 7.51503 1.62112 8 2.04037 8H13.3194C13.6232 8 13.9105 7.86191 14.1003 7.6247L16.3502 4.81235C16.6121 4.48497 16.379 4 15.9597 4H4.68068C4.3769 4 4.08958 4.13809 3.89981 4.3753Z"/>
</mask>
<path d="M3.89981 4.3753L1.64993 7.18765C1.38803 7.51503 1.62112 8 2.04037 8H13.3194C13.6232 8 13.9105 7.86191 14.1003 7.6247L16.3502 4.81235C16.6121 4.48497 16.379 4 15.9597 4H4.68068C4.3769 4 4.08958 4.13809 3.89981 4.3753Z" fill="#2C2833"/>
<path d="M3.89981 4.3753L4.68068 5L4.68068 5L3.89981 4.3753ZM1.64993 7.18765L2.4308 7.81235L2.4308 7.81235L1.64993 7.18765ZM14.1003 7.6247L14.8812 8.24939L14.8812 8.24939L14.1003 7.6247ZM16.3502 4.81235L17.131 5.43704L17.131 5.43704L16.3502 4.81235ZM3.11894 3.75061L0.869064 6.56296L2.4308 7.81235L4.68068 5L3.11894 3.75061ZM0.869064 6.56296C0.0833445 7.54511 0.782615 9 2.04037 9V7C2.45962 7 2.69271 7.48496 2.4308 7.81235L0.869064 6.56296ZM2.04037 9H13.3194V7H2.04037V9ZM13.3194 9C13.927 9 14.5016 8.72382 14.8812 8.24939L13.3194 7L13.3194 7V9ZM14.8812 8.24939L17.131 5.43704L15.5693 4.18765L13.3194 7L14.8812 8.24939ZM17.131 5.43704C17.9168 4.45489 17.2175 3 15.9597 3V5C15.5405 5 15.3074 4.51504 15.5693 4.18765L17.131 5.43704ZM15.9597 3H4.68068V5H15.9597V3ZM4.68068 3C4.07311 3 3.49849 3.27618 3.11894 3.75061L4.68068 5L4.68068 5V3Z" fill="#2C2833" mask="url(#path-1-outside-1_518_37520)"/>
<path d="M3 11.6667C3 11.1144 2.55228 10.6667 2 10.6667C1.44772 10.6667 1 11.1144 1 11.6667H3ZM16.793 9.93612L16 9.32687L16 9.32687L16.793 9.93612ZM15.0395 12.2185L14.2465 11.6092L14.2465 11.6092L15.0395 12.2185ZM18 8C18 7.44772 17.5523 7 17 7C16.4477 7 16 7.44772 16 8H18ZM13.4535 12H3V14H13.4535V12ZM3 12V11.6667H1V12H3ZM16 9.32687L14.2465 11.6092L15.8324 12.8277L17.586 10.5454L16 9.32687ZM18 9.32687V8H16V9.32687H18ZM17.586 10.5454C17.8545 10.1959 18 9.76756 18 9.32687H16L16 9.32687L17.586 10.5454ZM13.4535 14C14.3855 14 15.2646 13.5668 15.8324 12.8277L14.2465 11.6092C14.0572 11.8556 13.7642 12 13.4535 12V14ZM3 12L3 12H1C1 13.1046 1.89543 14 3 14V12Z" fill="#2C2833"/>
</svg>
