<svg width="17" height="16" viewBox="0 0 17 16" fill="none" xmlns="http://www.w3.org/2000/svg">
<path d="M15.793 9.93612L15 9.32687V9.32687L15.793 9.93612ZM14.0395 12.2185L13.2465 11.6092L13.2465 11.6092L14.0395 12.2185ZM17 8C17 7.44772 16.5523 7 16 7C15.4477 7 15 7.44772 15 8H17ZM2 10C2 9.44772 1.55228 9 1 9C0.447715 9 0 9.44772 0 10H2ZM12.4535 12H2V14H12.4535V12ZM15 9.32687L13.2465 11.6092L14.8324 12.8277L16.586 10.5454L15 9.32687ZM17 9.32687V8H15V9.32687H17ZM2 12V11.5H0V12H2ZM2 11.5V10H0V11.5H2ZM16.586 10.5454C16.8545 10.1959 17 9.76756 17 9.32687H15V9.32687L16.586 10.5454ZM12.4535 14C13.3855 14 14.2646 13.5668 14.8324 12.8277L13.2465 11.6092C13.0572 11.8556 12.7642 12 12.4535 12V14ZM2 12H2H0C0 13.1046 0.89543 14 2 14V12Z" fill="#2C2833"/>
<path d="M2.47302 2.52523L0.195158 6.12523C-0.308935 6.92191 0.222034 8 1.1185 8H13.6036C13.9733 8 14.3191 7.80333 14.527 7.47477L16.8048 3.87477C17.3089 3.07809 16.778 2 15.8815 2H3.39636C3.02665 2 2.68091 2.19667 2.47302 2.52523Z" fill="#2C2833"/>
</svg>
