<svg width="18" height="16" viewBox="0 0 18 16" fill="none" xmlns="http://www.w3.org/2000/svg">
<mask id="path-1-outside-1_518_37520" maskUnits="userSpaceOnUse" x="0" y="3" width="18" height="6" fill="black">
<rect fill="white" y="3" width="18" height="6"/>
<path d="M3.89976 4.3753L1.64988 7.18765C1.38797 7.51503 1.62106 8 2.04031 8H13.3194C13.6232 8 13.9105 7.86191 14.1002 7.6247L16.3501 4.81235C16.612 4.48497 16.3789 4 15.9597 4H4.68062C4.37684 4 4.08953 4.13809 3.89976 4.3753Z"/>
</mask>
<path d="M3.89976 4.3753L1.64988 7.18765C1.38797 7.51503 1.62106 8 2.04031 8H13.3194C13.6232 8 13.9105 7.86191 14.1002 7.6247L16.3501 4.81235C16.612 4.48497 16.3789 4 15.9597 4H4.68062C4.37684 4 4.08953 4.13809 3.89976 4.3753Z" fill="#2C2833"/>
<path d="M1.64988 7.18765L2.43075 7.81235L1.64988 7.18765ZM3.89976 4.3753L4.68062 5L4.68063 5L3.89976 4.3753ZM16.3501 4.81235L17.131 5.43704L17.131 5.43704L16.3501 4.81235ZM14.1002 7.6247L14.8811 8.24939L14.8811 8.24939L14.1002 7.6247ZM2.43075 7.81235L4.68062 5L3.11889 3.75061L0.869009 6.56296L2.43075 7.81235ZM4.68062 5H15.9597V3H4.68062V5ZM15.5693 4.18765L13.3194 7L14.8811 8.24939L17.131 5.43704L15.5693 4.18765ZM13.3194 7H2.04031V9H13.3194V7ZM13.3194 7L13.3194 7V9C13.9269 9 14.5016 8.72382 14.8811 8.24939L13.3194 7ZM15.9597 5C15.5404 5 15.3073 4.51504 15.5693 4.18765L17.131 5.43704C17.9167 4.45489 17.2174 3 15.9597 3V5ZM4.68063 5L4.68062 5V3C4.07306 3 3.49843 3.27618 3.11889 3.75061L4.68063 5ZM0.869009 6.56296C0.0832898 7.54511 0.78256 9 2.04031 9V7C2.45956 7 2.69266 7.48496 2.43075 7.81235L0.869009 6.56296Z" fill="#2C2833" mask="url(#path-1-outside-1_518_37520)"/>
<path d="M3 11.6667C3 11.1144 2.55228 10.6667 2 10.6667C1.44772 10.6667 1 11.1144 1 11.6667H3ZM16.793 9.93612L16 9.32687L16 9.32687L16.793 9.93612ZM15.0395 12.2185L14.2465 11.6092L14.2465 11.6092L15.0395 12.2185ZM18 8C18 7.44772 17.5523 7 17 7C16.4477 7 16 7.44772 16 8H18ZM13.4535 12H3V14H13.4535V12ZM3 12V11.6667H1V12H3ZM16 9.32687L14.2465 11.6092L15.8324 12.8277L17.586 10.5454L16 9.32687ZM18 9.32687V8H16V9.32687H18ZM17.586 10.5454C17.8545 10.1959 18 9.76756 18 9.32687H16L16 9.32687L17.586 10.5454ZM13.4535 14C14.3855 14 15.2646 13.5668 15.8324 12.8277L14.2465 11.6092C14.0572 11.8556 13.7642 12 13.4535 12V14ZM3 12L3 12H1C1 13.1046 1.89543 14 3 14V12Z" fill="#2C2833"/>
</svg>
