<svg width="16" height="16" viewBox="0 0 16 16" fill="none" xmlns="http://www.w3.org/2000/svg">
<path d="M10.4034 4.91069C10.2605 4.37722 9.71215 4.06064 9.17868 4.20358C8.64521 4.34653 8.32863 4.89486 8.47157 5.42833L10.4034 4.91069ZM10.5356 9.26759L9.56965 9.52641C9.71259 10.0599 10.2609 10.3765 10.7944 10.2335L10.5356 9.26759ZM14.8925 9.13544C15.4259 8.99249 15.7425 8.44416 15.5996 7.91069C15.4566 7.37722 14.9083 7.06064 14.3748 7.20358L14.8925 9.13544ZM8.47157 5.42833L9.56965 9.52641L11.5015 9.00877L10.4034 4.91069L8.47157 5.42833ZM10.7944 10.2335L14.8925 9.13544L14.3748 7.20358L10.2768 8.30166L10.7944 10.2335Z" fill="#2C2833"/>
<path d="M1.69632 7.22872C1.16285 7.08577 0.614516 7.40236 0.471574 7.93582C0.328632 8.46929 0.645215 9.01763 1.17868 9.16057L1.69632 7.22872ZM5.53558 9.29272L5.27676 10.2586C5.81022 10.4016 6.35856 10.085 6.5015 9.55154L5.53558 9.29272ZM7.59958 5.45346C7.74252 4.91999 7.42594 4.37166 6.89247 4.22871C6.359 4.08577 5.81067 4.40236 5.66773 4.93582L7.59958 5.45346ZM1.17868 9.16057L5.27676 10.2586L5.7944 8.32679L1.69632 7.22872L1.17868 9.16057ZM6.5015 9.55154L7.59958 5.45346L5.66773 4.93582L4.56965 9.0339L6.5015 9.55154Z" fill="#2C2833"/>
<path d="M13 13L3 13" stroke="#2C2833" stroke-width="2" stroke-linecap="round"/>
<path d="M10.5355 9.26759L14.0355 3.20542" stroke="#2C2833" stroke-width="2" stroke-linecap="round"/>
<path d="M5.53552 9.29272L2.03552 3.23055" stroke="#2C2833" stroke-width="2" stroke-linecap="round"/>
</svg>
