<svg width="16" height="18" viewBox="0 0 16 18" fill="none" xmlns="http://www.w3.org/2000/svg">
<path d="M1.9221 12.4978L2.88802 12.7566L1.9221 12.4978ZM4.48529 2.93185L3.51937 2.67303L4.48529 2.93185ZM6.67596 2.48356L12.4049 4.01862L12.9225 2.08677L7.1936 0.551712L6.67596 2.48356ZM13.112 5.24337L10.5488 14.8093L12.4806 15.327L15.0438 5.76101L13.112 5.24337ZM9.32405 15.5164L3.59513 13.9814L3.0775 15.9132L8.80641 17.4483L9.32405 15.5164ZM2.88802 12.7566L5.45122 3.19067L3.51937 2.67303L0.956173 12.239L2.88802 12.7566ZM3.59513 13.9814C3.06167 13.8384 2.74508 13.2901 2.88802 12.7566L0.956173 12.239C0.527347 13.8394 1.4771 15.4844 3.0775 15.9132L3.59513 13.9814ZM10.5488 14.8093C10.4059 15.3428 9.85752 15.6594 9.32405 15.5164L8.80641 17.4483C10.4068 17.8771 12.0518 16.9274 12.4806 15.327L10.5488 14.8093ZM12.4049 4.01862C12.9383 4.16156 13.2549 4.7099 13.112 5.24337L15.0438 5.76101C15.4727 4.16061 14.5229 2.5156 12.9225 2.08677L12.4049 4.01862ZM7.1936 0.551712C5.5932 0.122887 3.94819 1.07264 3.51937 2.67303L5.45122 3.19067C5.59416 2.65721 6.1425 2.34062 6.67596 2.48356L7.1936 0.551712Z" fill="#2C2833"/>
<path d="M8.41965 5.06744H10.0875V10.4227C10.0875 10.9414 9.97207 11.389 9.74116 11.7656C9.5138 12.1386 9.20296 12.4263 8.80864 12.6288C8.41432 12.8313 7.96849 12.9325 7.47115 12.9325C6.96315 12.9325 6.51021 12.8473 6.11234 12.6768C5.71802 12.5027 5.40718 12.238 5.17982 11.8828C4.95602 11.524 4.84412 11.0693 4.84412 10.5187H6.52797C6.52797 10.9236 6.61146 11.2025 6.77842 11.3553C6.94894 11.508 7.17985 11.5844 7.47115 11.5844C7.66298 11.5844 7.82994 11.54 7.97204 11.4512C8.11414 11.3588 8.22426 11.2274 8.30242 11.0569C8.38057 10.8828 8.41965 10.6714 8.41965 10.4227V5.06744Z" fill="#2C2833"/>
</svg>
