<svg width="24" height="27" viewBox="0 0 24 27" fill="none" xmlns="http://www.w3.org/2000/svg">
<path d="M12.3383 17L12.3383 23" stroke="#2C2833" stroke-width="2" stroke-linecap="round"/>
<path fill-rule="evenodd" clip-rule="evenodd" d="M12.321 3.51765C11.254 3.23177 10.1574 3.86493 9.87147 4.93186L6.83348 16.2698C6.54759 17.3367 7.18076 18.4334 8.24769 18.7193L10.3383 19.2795L10.3383 17.0078C10.3383 15.9033 11.2337 15.0044 12.3383 15C13.4428 14.9957 14.3383 15.8876 14.3383 16.9922L14.3383 20.3513L15.2423 20.5935C16.3092 20.8794 17.4059 20.2462 17.6918 19.1793L20.7298 7.84134C21.0157 6.77441 20.3825 5.67774 19.3156 5.39185L12.321 3.51765Z" fill="#2C2833"/>
<path d="M10.7131 21.9642C10.3233 21.5745 9.69015 21.5757 9.29886 21.967C8.90757 22.3583 8.90633 22.9914 9.29609 23.3812L10.7131 21.9642ZM12.3383 25.0064L11.6298 25.7149C12.0195 26.1046 12.6527 26.1034 13.044 25.7121L12.3383 25.0064ZM15.3868 23.3693C15.7781 22.978 15.7793 22.3449 15.3896 21.9551C14.9998 21.5654 14.3667 21.5666 13.9754 21.9579L15.3868 23.3693ZM9.29609 23.3812L11.6298 25.7149L13.0467 24.2979L10.7131 21.9642L9.29609 23.3812ZM13.044 25.7121L15.3868 23.3693L13.9754 21.9579L11.6325 24.3007L13.044 25.7121Z" fill="#2C2833"/>
</svg>
