<svg width="24" height="26" viewBox="0 0 24 26" fill="none" xmlns="http://www.w3.org/2000/svg">
<path fill-rule="evenodd" clip-rule="evenodd" d="M9.56052 4.31467C9.36074 4.5391 9.20812 4.81076 9.12301 5.11791L6.28461 15.3618V6.31467C6.28461 5.2101 7.18004 4.31467 8.28461 4.31467H9.56052Z" fill="#2C2833"/>
<path fill-rule="evenodd" clip-rule="evenodd" d="M5.70818 5.473C5.54423 5.75891 5.45094 6.09206 5.45157 6.44979L5.46882 16.2389L3.40507 8.12222C3.13288 7.05172 3.78005 5.96325 4.85056 5.69106L5.70818 5.473Z" fill="#2C2833"/>
<path d="M16.104 22.9421C18.1867 22.8633 19.8113 21.1111 19.7325 19.0283" stroke="#2C2833" stroke-width="2" stroke-linecap="round"/>
<path d="M16.7897 22.3648C17.1651 21.9598 17.1412 21.3271 16.7362 20.9516C16.3312 20.5762 15.6985 20.6001 15.323 21.0051L16.7897 22.3648ZM14.8468 22.9896L14.1135 22.3097C13.738 22.7147 13.7619 23.3474 14.1669 23.7229L14.8468 22.9896ZM15.4715 24.9324C15.8765 25.3079 16.5092 25.284 16.8847 24.879C17.2602 24.474 17.2363 23.8413 16.8313 23.4658L15.4715 24.9324ZM15.323 21.0051L14.1135 22.3097L15.5801 23.6694L16.7897 22.3648L15.323 21.0051ZM14.1669 23.7229L15.4715 24.9324L16.8313 23.4658L15.5267 22.2562L14.1669 23.7229Z" fill="#2C2833"/>
<path d="M15.8187 15.3996C13.7359 15.4784 12.1114 17.2306 12.1901 19.3134" stroke="#2C2833" stroke-width="2" stroke-linecap="round"/>
<path d="M15.133 15.9769C14.7575 16.3819 14.7814 17.0146 15.1864 17.3901C15.5914 17.7656 16.2241 17.7416 16.5996 17.3366L15.133 15.9769ZM17.0758 15.3522L17.8091 16.032C18.1846 15.627 18.1607 14.9943 17.7557 14.6188L17.0758 15.3522ZM16.4511 13.4093C16.0461 13.0338 15.4134 13.0577 15.0379 13.4627C14.6624 13.8677 14.6863 14.5005 15.0913 14.8759L16.4511 13.4093ZM16.5996 17.3366L17.8091 16.032L16.3425 14.6723L15.133 15.9769L16.5996 17.3366ZM17.7557 14.6188L16.4511 13.4093L15.0913 14.8759L16.3959 16.0855L17.7557 14.6188Z" fill="#2C2833"/>
<path fill-rule="evenodd" clip-rule="evenodd" d="M12.321 4.06864C11.254 3.78276 10.1574 4.41593 9.87147 5.48286L6.83348 16.8208C6.54759 17.8877 7.18076 18.9844 8.24769 19.2703L9.01594 19.4762C9.00537 19.3188 9 19.16 9 19C9 15.134 12.134 12 16 12C17.2794 12 18.4786 12.3432 19.5106 12.9426L20.7298 8.39234C21.0157 7.32541 20.3825 6.22873 19.3156 5.94285L12.321 4.06864Z" fill="#2C2833"/>
</svg>
