<svg width="16" height="16" viewBox="0 0 16 16" fill="none" xmlns="http://www.w3.org/2000/svg">
<path d="M1.70711 5.29289C1.31658 4.90237 0.683417 4.90237 0.292893 5.29289C-0.0976311 5.68342 -0.0976311 6.31658 0.292893 6.70711L1.70711 5.29289ZM8 13L7.29289 13.7071C7.68342 14.0976 8.31658 14.0976 8.70711 13.7071L8 13ZM15.7071 6.70711C16.0976 6.31658 16.0976 5.68342 15.7071 5.29289C15.3166 4.90237 14.6834 4.90237 14.2929 5.29289L15.7071 6.70711ZM0.292893 6.70711L7.29289 13.7071L8.70711 12.2929L1.70711 5.29289L0.292893 6.70711ZM8.70711 13.7071L15.7071 6.70711L14.2929 5.29289L7.29289 12.2929L8.70711 13.7071Z" fill="#2C2833"/>
</svg>
