<svg xmlns="http://www.w3.org/2000/svg" width="24" height="24" fill="none"><g clip-path="url(#a)"><rect width="24" height="24" fill="#fff" rx="6"/><path fill="#986DF2" stroke="#6528C9" d="M15.5 18.5H1A4.5 4.5 0 0 1-3.5 14v-4A4.5 4.5 0 0 1 1 5.5h14.5A4.5 4.5 0 0 1 20 10v4a4.5 4.5 0 0 1-4.5 4.5Z"/><rect width="3" height="3" x="9" y="10" fill="#6528C9" rx="1.5"/><path stroke="#6528C9" d="M16 14s-1 1-3 1-3-1-3-1"/><rect width="3" height="3" x="14" y="10" fill="#6528C9" rx="1.5"/></g><defs><clipPath id="a"><rect width="24" height="24" fill="#fff" rx="6"/></clipPath></defs></svg>