<svg width="40" height="56" viewBox="0 0 40 56" fill="none" xmlns="http://www.w3.org/2000/svg">
<g clip-path="url(#clip0_814_60300)">
<rect width="40" height="56" rx="5" fill="#DC3059"/>
<path fill-rule="evenodd" clip-rule="evenodd" d="M16.5234 -10.6071L13.9729 -0.0202723L3.57349 -12.1057L3.95038 -13.657C3.99358 -13.8381 4.072 -14.0088 4.18112 -14.1595C4.29024 -14.3101 4.42793 -14.4376 4.58629 -14.5348C4.74466 -14.632 4.92059 -14.6968 5.10399 -14.7257C5.2874 -14.7546 5.47469 -14.7468 5.65512 -14.703L15.4804 -12.3211C15.6611 -12.2772 15.8315 -12.1981 15.9817 -12.0883C16.1319 -11.9784 16.2591 -11.8399 16.356 -11.6808C16.4528 -11.5216 16.5175 -11.3449 16.5462 -11.1606C16.5749 -10.9764 16.5672 -10.7883 16.5234 -10.6071ZM0.411131 1.23656L2.60232 -7.88246L12.9885 4.19859V4.28648C12.8992 4.65189 12.6693 4.967 12.3491 5.16298C12.0289 5.35895 11.6443 5.41987 11.2794 5.33242L1.45414 2.95049C1.27341 2.90666 1.10306 2.82756 0.952829 2.7177C0.802595 2.60784 0.675416 2.46937 0.578559 2.31021C0.481702 2.15104 0.417063 1.97431 0.388335 1.79009C0.359607 1.60587 0.367354 1.41777 0.411131 1.23656Z" fill="white"/>
<path fill-rule="evenodd" clip-rule="evenodd" d="M18.8643 24.0378L8.27747 21.4872L20.3629 11.0879L21.9142 11.4647C22.0953 11.5079 22.266 11.5864 22.4167 11.6955C22.5673 11.8046 22.6948 11.9423 22.792 12.1007C22.8892 12.259 22.954 12.4349 22.9829 12.6184C23.0118 12.8018 23.004 12.9891 22.9602 13.1695L20.5783 22.9948C20.5344 23.1755 20.4553 23.3459 20.3455 23.4961C20.2356 23.6463 20.0971 23.7735 19.938 23.8704C19.7788 23.9672 19.6021 24.0319 19.4178 24.0606C19.2336 24.0893 19.0455 24.0816 18.8643 24.0378ZM7.02065 7.92554L16.1397 10.1167L4.05861 20.503L3.97072 20.503C3.60532 20.4137 3.2902 20.1838 3.09423 19.8636C2.89825 19.5433 2.83733 19.1587 2.92478 18.7938L5.30671 8.96854C5.35054 8.78782 5.42964 8.61747 5.5395 8.46723C5.64936 8.317 5.78783 8.18982 5.94699 8.09296C6.10616 7.99611 6.2829 7.93147 6.46712 7.90274C6.65133 7.87401 6.83943 7.88176 7.02065 7.92554Z" fill="white"/>
<path fill-rule="evenodd" clip-rule="evenodd" d="M16.5234 29.6214L13.9729 40.2082L3.57349 28.1228L3.95038 26.5715C3.99358 26.3904 4.072 26.2197 4.18112 26.0691C4.29024 25.9184 4.42793 25.7909 4.58629 25.6937C4.74466 25.5966 4.92059 25.5317 5.10399 25.5028C5.2874 25.474 5.47469 25.4817 5.65512 25.5255L15.4804 27.9075C15.6611 27.9513 15.8315 28.0304 15.9817 28.1403C16.1319 28.2501 16.2591 28.3886 16.356 28.5477C16.4528 28.7069 16.5175 28.8836 16.5462 29.0679C16.5749 29.2521 16.5672 29.4402 16.5234 29.6214ZM0.411131 41.4651L2.60232 32.3461L12.9885 44.4271V44.515C12.8992 44.8804 12.6693 45.1955 12.3491 45.3915C12.0289 45.5875 11.6443 45.6484 11.2794 45.5609L1.45414 43.179C1.27341 43.1352 1.10306 43.0561 0.952829 42.9462C0.802595 42.8364 0.675416 42.6979 0.578559 42.5387C0.481702 42.3796 0.417063 42.2028 0.388335 42.0186C0.359607 41.8344 0.367354 41.6463 0.411131 41.4651Z" fill="white"/>
<path fill-rule="evenodd" clip-rule="evenodd" d="M18.8643 64.2663L8.27747 61.7158L20.3629 51.3163L21.9142 51.6932C22.0953 51.7364 22.266 51.8148 22.4167 51.924C22.5673 52.0331 22.6948 52.1708 22.792 52.3291C22.8892 52.4875 22.954 52.6634 22.9829 52.8468C23.0118 53.0302 23.004 53.2175 22.9602 53.398L20.5783 63.2233C20.5344 63.404 20.4553 63.5744 20.3455 63.7246C20.2356 63.8748 20.0971 64.002 19.938 64.0989C19.7788 64.1957 19.6021 64.2604 19.4178 64.2891C19.2336 64.3178 19.0455 64.3101 18.8643 64.2663ZM7.02065 48.1541L16.1397 50.3453L4.05861 60.7315L3.97072 60.7315C3.60532 60.6422 3.2902 60.4123 3.09423 60.0921C2.89825 59.7719 2.83733 59.3873 2.92478 59.0224L5.30671 49.1971C5.35054 49.0163 5.42964 48.846 5.5395 48.6958C5.64936 48.5455 5.78783 48.4183 5.94699 48.3215C6.10616 48.2246 6.2829 48.16 6.46712 48.1313C6.65133 48.1025 6.83943 48.1103 7.02065 48.1541Z" fill="white"/>
<path fill-rule="evenodd" clip-rule="evenodd" d="M23.3251 26.3785L25.8757 15.7917L36.275 27.8771L35.8981 29.4284C35.8549 29.6095 35.7765 29.7802 35.6674 29.9308C35.5583 30.0814 35.4206 30.209 35.2622 30.3062C35.1039 30.4033 34.9279 30.4682 34.7445 30.4971C34.5611 30.5259 34.3738 30.5182 34.1934 30.4743L24.3681 28.0924C24.1874 28.0486 24.017 27.9695 23.8668 27.8596C23.7166 27.7498 23.5894 27.6113 23.4925 27.4521C23.3957 27.293 23.331 27.1162 23.3023 26.932C23.2736 26.7478 23.2813 26.5597 23.3251 26.3785ZM39.4376 14.5348L37.2464 23.6538L26.8602 11.5728L26.8602 11.4849C26.9495 11.1195 27.1794 10.8044 27.4996 10.6084C27.8199 10.4124 28.2044 10.3515 28.5693 10.4389L38.3946 12.8209C38.5753 12.8647 38.7457 12.9438 38.8959 13.0537C39.0462 13.1635 39.1733 13.302 39.2702 13.4611C39.3671 13.6203 39.4317 13.797 39.4604 13.9813C39.4891 14.1655 39.4814 14.3536 39.4376 14.5348Z" fill="white"/>
<path fill-rule="evenodd" clip-rule="evenodd" d="M21.1357 -8.41731L31.7225 -5.86677L19.6371 4.53259L18.0858 4.1557C17.9047 4.11249 17.734 4.03408 17.5833 3.92496C17.4327 3.81584 17.3052 3.67815 17.208 3.51978C17.1108 3.36142 17.046 3.18549 17.0171 3.00208C16.9882 2.81868 16.996 2.63139 17.0398 2.45096L19.4217 -7.37431C19.4656 -7.55503 19.5447 -7.72538 19.6545 -7.87562C19.7644 -8.02585 19.9029 -8.15303 20.062 -8.24989C20.2212 -8.34674 20.3979 -8.41138 20.5821 -8.44011C20.7664 -8.46884 20.9545 -8.46109 21.1357 -8.41731ZM32.9794 7.69495L23.8603 5.50376L35.9414 -4.88245L36.0293 -4.88245C36.3947 -4.79315 36.7098 -4.56327 36.9058 -4.24302C37.1018 -3.92278 37.1627 -3.53821 37.0752 -3.17333L34.6933 6.65194C34.6495 6.83267 34.5704 7.00302 34.4605 7.15325C34.3506 7.30348 34.2122 7.43066 34.053 7.52752C33.8938 7.62438 33.7171 7.68902 33.5329 7.71774C33.3487 7.74647 33.1606 7.73872 32.9794 7.69495Z" fill="white"/>
<path fill-rule="evenodd" clip-rule="evenodd" d="M23.3251 66.607L25.8757 56.0202L36.275 68.1056L35.8981 69.6569C35.8549 69.838 35.7765 70.0087 35.6674 70.1593C35.5583 70.31 35.4206 70.4375 35.2622 70.5347C35.1039 70.6318 34.9279 70.6967 34.7445 70.7256C34.5611 70.7544 34.3738 70.7467 34.1934 70.7029L24.3681 68.3209C24.1874 68.2771 24.017 68.198 23.8668 68.0881C23.7166 67.9783 23.5894 67.8398 23.4925 67.6807C23.3957 67.5215 23.331 67.3448 23.3023 67.1605C23.2736 66.9763 23.2813 66.7882 23.3251 66.607ZM39.4376 54.7633L37.2464 63.8823L26.8602 51.8013L26.8602 51.7134C26.9495 51.348 27.1794 51.0329 27.4996 50.8369C27.8199 50.6409 28.2044 50.58 28.5693 50.6675L38.3946 53.0494C38.5753 53.0932 38.7457 53.1723 38.8959 53.2822C39.0462 53.392 39.1733 53.5305 39.2702 53.6897C39.3671 53.8488 39.4317 54.0256 39.4604 54.2098C39.4891 54.394 39.4814 54.5821 39.4376 54.7633Z" fill="white"/>
<path fill-rule="evenodd" clip-rule="evenodd" d="M21.1357 31.8112L31.7225 34.3618L19.6371 44.7611L18.0858 44.3843C17.9047 44.3411 17.734 44.2626 17.5833 44.1535C17.4327 44.0444 17.3052 43.9067 17.208 43.7483C17.1108 43.59 17.046 43.4141 17.0171 43.2306C16.9882 43.0472 16.996 42.8599 17.0398 42.6795L19.4217 32.8542C19.4656 32.6735 19.5447 32.5031 19.6545 32.3529C19.7644 32.2027 19.9029 32.0755 20.062 31.9786C20.2212 31.8818 20.3979 31.8171 20.5821 31.7884C20.7664 31.7597 20.9545 31.7674 21.1357 31.8112ZM32.9794 47.9235L23.8603 45.7323L35.9414 35.346L36.0293 35.346C36.3947 35.4353 36.7098 35.6652 36.9058 35.9854C37.1018 36.3057 37.1627 36.6903 37.0752 37.0551L34.6933 46.8805C34.6495 47.0612 34.5704 47.2315 34.4605 47.3818C34.3506 47.532 34.2122 47.6592 34.053 47.756C33.8938 47.8529 33.7171 47.9175 33.5329 47.9463C33.3487 47.975 33.1606 47.9672 32.9794 47.9235Z" fill="white"/>
</g>
<defs>
<clipPath id="clip0_814_60300">
<rect width="40" height="56" rx="5" fill="white"/>
</clipPath>
</defs>
</svg>
