<svg width="40" height="56" viewBox="0 0 40 56" fill="none" xmlns="http://www.w3.org/2000/svg">
<rect width="40" height="56" rx="5" fill="#DC3059"/>
<path fill-rule="evenodd" clip-rule="evenodd" d="M32.0842 19.1178L28.2584 34.998L12.6593 16.8699L13.2246 14.5429C13.2894 14.2713 13.4071 14.0152 13.5707 13.7893C13.7344 13.5634 13.941 13.3721 14.1785 13.2263C14.4161 13.0806 14.6799 12.9833 14.9551 12.94C15.2302 12.8967 15.5111 12.9082 15.7817 12.974L30.5197 16.5469C30.7908 16.6127 31.0463 16.7313 31.2716 16.8961C31.497 17.0609 31.6877 17.2686 31.833 17.5073C31.9783 17.7461 32.0753 18.0112 32.1184 18.2875C32.1615 18.5638 32.1498 18.846 32.0842 19.1178ZM7.91577 36.8833L11.2026 23.2048L26.7819 41.3263V41.4581C26.6479 42.0063 26.3031 42.4789 25.8227 42.7729C25.3424 43.0669 24.7655 43.1582 24.2182 43.0271L9.48028 39.4542C9.20919 39.3884 8.95367 39.2698 8.72832 39.105C8.50297 38.9402 8.3122 38.7325 8.16691 38.4937C8.02162 38.255 7.92467 37.9899 7.88157 37.7136C7.83848 37.4372 7.8501 37.1551 7.91577 36.8833Z" fill="white"/>
</svg>
