<svg width="40" height="56" viewBox="0 0 40 56" fill="none" xmlns="http://www.w3.org/2000/svg">
<rect width="40" height="56" rx="5" fill="white"/>
<rect width="40" height="56" rx="5" fill="white"/>
<path d="M21.5537 13.772C21.5537 15.722 20.9297 17.152 18.7457 19.466C16.6137 21.702 15.8857 23.236 15.8857 25.264V27.5H24.1537V24.9H18.7457C18.7197 24.77 18.7197 24.64 18.7197 24.51C18.7197 23.548 19.1877 22.69 20.8777 20.87C23.5297 18.036 24.4137 16.086 24.4137 13.668C24.4137 10.756 22.9577 9.09204 20.1497 9.09204C17.3417 9.09204 15.8857 10.756 15.8857 13.668V15.436H18.5897V13.486C18.5897 12.186 19.1617 11.692 20.0717 11.692C20.9817 11.692 21.5537 12.134 21.5537 13.772Z" fill="#DC3059"/>
<path d="M20.0566 33.1666L25.3333 40.4622L19.9433 47.8333L14.6666 40.5378L20.0566 33.1666Z" fill="#DC3059"/>
</svg>
