<svg width="40" height="56" viewBox="0 0 40 56" fill="none" xmlns="http://www.w3.org/2000/svg">
<rect width="40" height="56" rx="5" fill="white"/>
<rect width="40" height="56" rx="5" fill="white"/>
<path d="M15.7037 23.132C15.7037 26.044 17.2377 27.708 20.0457 27.708C22.8537 27.708 24.3877 26.044 24.3877 23.132V19.804C24.3877 17.126 23.3217 15.644 21.2157 15.644C19.9417 15.644 19.1097 16.19 18.6157 17.23H18.5637V13.928C18.5637 12.186 19.1357 11.692 20.1497 11.692C21.0597 11.692 21.6317 12.186 21.6317 13.486V14.136H24.3357V13.668C24.3357 10.756 22.8797 9.09204 20.0717 9.09204C17.1077 9.09204 15.7037 10.756 15.7037 13.824V23.132ZM20.0457 18.244C20.9557 18.244 21.5277 18.738 21.5277 20.038V23.314C21.5277 24.614 20.9557 25.082 20.0457 25.082C19.1357 25.082 18.5637 24.614 18.5637 23.314V20.038C18.5637 18.738 19.1357 18.244 20.0457 18.244Z" fill="#DC3059"/>
<path d="M20.0566 33.1666L25.3333 40.4622L19.9433 47.8333L14.6666 40.5378L20.0566 33.1666Z" fill="#DC3059"/>
</svg>
