<svg width="40" height="56" viewBox="0 0 40 56" fill="none" xmlns="http://www.w3.org/2000/svg">
<rect width="40" height="56" rx="5" fill="white"/>
<rect width="40" height="56" rx="5" fill="white"/>
<path d="M24.2837 13.668C24.2837 10.756 22.7497 9.09204 19.9417 9.09204C17.1337 9.09204 15.5997 10.756 15.5997 13.668V16.996C15.5997 19.674 16.6657 21.156 18.7717 21.156C20.0457 21.156 20.8777 20.61 21.3717 19.57H21.4237V22.872C21.4237 24.614 20.8517 25.108 19.8377 25.108C18.9277 25.108 18.3557 24.614 18.3557 23.314V22.664H15.6517V23.132C15.6517 26.044 17.1077 27.708 19.9157 27.708C22.8797 27.708 24.2837 26.044 24.2837 22.976V13.668ZM19.9417 18.556C19.0317 18.556 18.4597 18.062 18.4597 16.762V13.486C18.4597 12.186 19.0317 11.718 19.9417 11.718C20.8517 11.718 21.4237 12.186 21.4237 13.486V16.762C21.4237 18.062 20.8517 18.556 19.9417 18.556Z" fill="#DC3059"/>
<path d="M20.0566 33.1666L25.3333 40.4622L19.9433 47.8333L14.6666 40.5378L20.0566 33.1666Z" fill="#DC3059"/>
</svg>
