<svg width="40" height="56" viewBox="0 0 40 56" fill="none" xmlns="http://www.w3.org/2000/svg">
<rect width="40" height="56" rx="5" fill="white"/>
<path d="M29.1 52C29.152 51.532 29.152 51.142 29.152 50.622C29.152 48.464 28.216 46.514 24.576 46.514L10.9 46.514L10.9 49.374L24.784 49.374C26.188 49.374 26.526 50.102 26.526 51.012C26.526 51.324 26.526 51.688 26.5 52L29.1 52Z" fill="#2C2833"/>
<path d="M15.086 41.9417C13.786 41.9417 13.292 41.3697 13.292 40.4597C13.292 39.5497 13.786 38.9777 15.086 38.9777L24.914 38.9777C26.214 38.9777 26.708 39.5497 26.708 40.4597C26.708 41.3697 26.214 41.9417 24.914 41.9417L15.086 41.9417ZM24.732 44.8017C27.644 44.8017 29.308 43.2677 29.308 40.4597C29.308 37.6517 27.644 36.1177 24.732 36.1177L15.268 36.1177C12.356 36.1177 10.692 37.6517 10.692 40.4597C10.692 43.2677 12.356 44.8017 15.268 44.8017L24.732 44.8017Z" fill="#2C2833"/>
<path d="M29.1 27.7331L29.1 24.7951L19.012 28.7731L10.9 24.7951L10.9 27.6551L18.778 31.3471L18.778 31.3991L10.9 31.3991L10.9 34.2591L29.1 34.2591L29.1 31.3991L23.51 31.3991L21.846 30.5151L29.1 27.7331Z" fill="#2C2833"/>
<path d="M13.5 20.6334L13.5 15.6934L10.9 15.6934L10.9 23.4934L29.1 23.4934L29.1 15.6934L26.5 15.6934L26.5 20.6334L21.17 20.6334L21.17 16.7074L18.57 16.7074L18.57 20.6334L13.5 20.6334Z" fill="#2C2833"/>
<path d="M29.1 5.02917C28.424 5.31517 27.774 5.34117 26.89 5.34117L24.082 5.34117C22.184 5.34117 20.832 5.80917 20.234 7.23917L20.182 7.23917C19.584 5.96517 18.388 5.36717 16.516 5.36717L15.086 5.36717C12.278 5.36717 10.9 6.64117 10.9 9.60517L10.9 13.9212L29.1 13.9212L29.1 11.0612L21.69 11.0612L21.69 10.0732C21.69 8.77317 22.314 8.20117 24.004 8.20117L26.864 8.20117C28.346 8.20117 28.632 8.09717 29.1 7.94117L29.1 5.02917ZM13.5 9.68317C13.5 8.66917 14.072 8.22717 15.372 8.22717L17.166 8.22717C18.622 8.22717 19.09 8.87717 19.09 9.94317L19.09 11.0612L13.5 11.0612L13.5 9.68317Z" fill="#2C2833"/>
</svg>
