<svg width="283" height="338" viewBox="0 0 283 338" fill="none" xmlns="http://www.w3.org/2000/svg">
<g filter="url(#filter0_d_135_36724)">
<path d="M28.496 179.32C27.344 179.32 26.48 180.184 26.48 181.336V206.2C26.48 206.968 25.424 206.968 25.328 206.296L21.968 181.144C21.872 180.088 21.008 179.32 19.952 179.32H6.416C5.264 179.32 4.4 180.184 4.4 181.336V244.984C4.4 246.136 5.264 247 6.416 247H15.824C16.88 247 17.84 246.136 17.84 244.984V218.296C17.84 217.624 18.8 217.528 18.896 218.2L22.544 245.272C22.736 246.232 23.6 247 24.656 247H37.904C38.96 247 39.92 246.136 39.92 244.984V181.336C39.92 180.184 38.96 179.32 37.904 179.32H28.496ZM68.9023 178.648H53.1583C47.6863 178.648 44.6143 182.296 44.6143 187.864V238.36C44.6143 243.832 47.6863 247.48 53.1583 247.48H68.9023C74.3743 247.48 77.5423 243.832 77.5423 238.36V187.864C77.5423 182.296 74.3743 178.648 68.9023 178.648ZM62.5663 233.752C62.5663 235.096 62.0863 235.672 61.0303 235.672C59.9743 235.672 59.4943 235.096 59.4943 233.752V192.472C59.4943 191.128 59.9743 190.456 61.0303 190.456C62.0863 190.456 62.5663 191.128 62.5663 192.472V233.752ZM123.826 178.648H108.658C103.186 178.648 100.114 182.392 100.114 187.864V238.36C100.114 243.928 103.186 247.576 108.658 247.576H123.826C129.298 247.576 132.466 243.928 132.466 238.36V217.432C132.466 216.28 131.506 215.416 130.354 215.416H120.178C119.026 215.416 118.066 216.28 118.066 217.432V233.752C118.066 235.096 117.586 235.768 116.53 235.768C115.474 235.768 114.994 235.096 114.994 233.752V192.472C114.994 191.128 115.474 190.552 116.53 190.552C117.586 190.552 118.066 191.224 118.066 192.472V209.08C118.066 210.232 119.026 211.192 120.178 211.192H130.354C131.506 211.192 132.466 210.232 132.466 209.08V187.864C132.466 182.392 129.298 178.648 123.826 178.648ZM160.096 178.648H145.504C140.032 178.648 136.96 182.392 136.96 187.864V244.984C136.96 246.04 137.824 247 138.976 247H149.152C150.304 247 151.264 246.04 151.264 244.984V226.168C151.264 224.824 151.744 224.152 152.8 224.152C153.856 224.152 154.336 224.824 154.336 226.168V244.984C154.336 246.04 155.296 247 156.448 247H166.624C167.776 247 168.736 246.04 168.736 244.984V187.864C168.736 182.392 165.664 178.648 160.096 178.648ZM152.8 211.48C151.744 211.48 151.264 210.808 151.264 209.56V192.472C151.264 191.128 151.744 190.552 152.8 190.552C153.856 190.552 154.336 191.224 154.336 192.472V209.56C154.336 210.904 153.856 211.48 152.8 211.48ZM206.261 245.848C205.781 244.696 205.301 243.256 205.301 241.144V223.96C205.301 221.464 204.629 219.352 203.477 217.816C202.517 216.376 201.077 215.416 199.349 214.936C199.061 214.936 199.061 214.552 199.349 214.456C200.885 213.976 202.325 213.016 203.477 211.768C204.725 210.232 205.589 208.216 205.589 206.104V187.864C205.589 183.16 201.749 179.224 196.949 179.224H175.541C174.389 179.224 173.525 180.184 173.525 181.336V244.984C173.525 246.04 174.389 247 175.541 247H185.717C186.869 247 187.829 246.04 187.829 244.984V222.328C187.829 220.984 188.309 220.408 189.365 220.408C189.653 220.408 189.845 220.408 189.941 220.504C190.613 220.696 190.901 221.272 190.901 222.328V241.336C190.901 242.68 191.093 244.216 191.381 245.464C191.669 246.328 192.533 247 193.493 247H205.493C205.973 247 206.357 246.616 206.357 246.136C206.357 246.04 206.261 245.944 206.261 245.848ZM190.901 206.872C190.901 208.216 190.421 208.888 189.365 208.888C188.309 208.888 187.829 208.216 187.829 206.872V192.184C187.829 190.84 188.309 190.264 189.365 190.264C190.421 190.264 190.901 190.936 190.901 192.184V206.872ZM233.987 179.32H212.291C211.139 179.32 210.275 180.28 210.275 181.432V245.08C210.275 246.04 210.947 246.904 212.003 247.096H233.987C239.459 247.096 242.627 243.352 242.627 237.88V188.536C242.627 183.064 239.459 179.32 233.987 179.32ZM227.651 233.272C227.651 234.616 227.171 235.288 226.115 235.288C225.059 235.288 224.579 234.616 224.579 233.272V193.144C224.579 191.8 225.059 191.224 226.115 191.224C227.171 191.224 227.651 191.896 227.651 193.144V233.272ZM255.178 178.648C249.706 178.648 246.634 182.392 246.634 187.864V202.072C246.634 205.048 247.498 207.448 249.13 209.08L263.242 222.232C263.626 222.616 264.01 223.096 264.01 223.864V233.752C264.01 235.096 263.53 235.768 262.474 235.768C261.418 235.768 260.938 235.096 260.938 233.752V223.768C260.938 222.616 259.978 221.752 258.826 221.752H248.65C247.498 221.752 246.634 222.616 246.634 223.768V238.36C246.634 243.928 249.706 247.576 255.178 247.576H269.77C275.338 247.576 278.41 243.928 278.41 238.36V221.08C278.41 218.104 277.546 215.704 275.914 214.072L261.418 200.632C261.13 200.344 260.938 199.672 260.938 199.384V192.472C260.938 191.128 261.418 190.552 262.474 190.552C263.53 190.552 264.01 191.128 264.01 192.472V199.576C264.01 200.728 264.97 201.592 266.122 201.592H276.298C277.45 201.592 278.41 200.728 278.41 199.576V187.864C278.41 182.392 275.242 178.648 269.77 178.648H255.178ZM28.496 257.32C27.344 257.32 26.48 258.184 26.48 259.336V284.2C26.48 284.968 25.424 284.968 25.328 284.296L21.968 259.144C21.872 258.088 21.008 257.32 19.952 257.32H6.416C5.264 257.32 4.4 258.184 4.4 259.336V322.984C4.4 324.136 5.264 325 6.416 325H15.824C16.88 325 17.84 324.136 17.84 322.984V296.296C17.84 295.624 18.8 295.528 18.896 296.2L22.544 323.272C22.736 324.232 23.6 325 24.656 325H37.904C38.96 325 39.92 324.136 39.92 322.984V259.336C39.92 258.184 38.96 257.32 37.904 257.32H28.496ZM66.2143 312.904H59.1103V297.832H65.7343C65.9263 297.832 66.1183 297.736 66.3103 297.736C67.1743 297.448 67.7502 296.68 67.7502 295.72V287.464C67.7502 286.6 67.1743 285.832 66.3103 285.544C66.1183 285.448 65.9263 285.448 65.7343 285.448H59.1103V269.608H66.0223C67.1743 269.608 68.0383 268.744 68.0383 267.592V259.336C68.0383 258.184 67.1743 257.224 66.0223 257.224H46.8223C45.6703 257.224 44.8063 258.184 44.8063 259.336V322.984C44.8063 324.04 45.6703 325 46.8223 325H66.2143C67.3663 325 68.2303 324.04 68.2303 322.984V315.016C68.2303 313.864 67.3663 312.904 66.2143 312.904ZM93.308 312.904H86.204V297.832H92.828C93.02 297.832 93.212 297.736 93.404 297.736C94.268 297.448 94.844 296.68 94.844 295.72V287.464C94.844 286.6 94.268 285.832 93.404 285.544C93.212 285.448 93.02 285.448 92.828 285.448H86.204V269.608H93.116C94.268 269.608 95.132 268.744 95.132 267.592V259.336C95.132 258.184 94.268 257.224 93.116 257.224H73.916C72.764 257.224 71.9 258.184 71.9 259.336V322.984C71.9 324.04 72.764 325 73.916 325H93.308C94.46 325 95.324 324.04 95.324 322.984V315.016C95.324 313.864 94.46 312.904 93.308 312.904ZM122.706 257.32H101.01C99.8578 257.32 98.9938 258.28 98.9938 259.432V323.08C98.9938 324.04 99.6658 324.904 100.722 325.096H122.706C128.178 325.096 131.346 321.352 131.346 315.88V266.536C131.346 261.064 128.178 257.32 122.706 257.32ZM116.37 311.272C116.37 312.616 115.89 313.288 114.834 313.288C113.778 313.288 113.298 312.616 113.298 311.272V271.144C113.298 269.8 113.778 269.224 114.834 269.224C115.89 269.224 116.37 269.896 116.37 271.144V311.272ZM157.433 312.904H150.329V297.832H156.953C157.145 297.832 157.337 297.736 157.529 297.736C158.393 297.448 158.969 296.68 158.969 295.72V287.464C158.969 286.6 158.393 285.832 157.529 285.544C157.337 285.448 157.145 285.448 156.953 285.448H150.329V269.608H157.241C158.393 269.608 159.257 268.744 159.257 267.592V259.336C159.257 258.184 158.393 257.224 157.241 257.224H138.041C136.889 257.224 136.025 258.184 136.025 259.336V322.984C136.025 324.04 136.889 325 138.041 325H157.433C158.585 325 159.449 324.04 159.449 322.984V315.016C159.449 313.864 158.585 312.904 157.433 312.904ZM186.831 257.32H165.135C163.983 257.32 163.119 258.28 163.119 259.432V323.08C163.119 324.04 163.791 324.904 164.847 325.096H186.831C192.303 325.096 195.471 321.352 195.471 315.88V266.536C195.471 261.064 192.303 257.32 186.831 257.32ZM180.495 311.272C180.495 312.616 180.015 313.288 178.959 313.288C177.903 313.288 177.423 312.616 177.423 311.272V271.144C177.423 269.8 177.903 269.224 178.959 269.224C180.015 269.224 180.495 269.896 180.495 271.144V311.272Z" fill="#2C2833"/>
</g>
<g filter="url(#filter1_d_135_36724)">
<path fill-rule="evenodd" clip-rule="evenodd" d="M201.573 33.8414L182.552 112.792L105 22.6658L107.811 11.0969C108.133 9.74662 108.718 8.47339 109.531 7.35015C110.345 6.22692 111.372 5.27575 112.553 4.55117C113.734 3.82658 115.046 3.34281 116.414 3.12758C117.781 2.91234 119.178 2.96988 120.524 3.2969L193.795 21.0599C195.142 21.3867 196.413 21.9766 197.533 22.7959C198.653 23.6152 199.602 24.6478 200.324 25.8347C201.047 27.0217 201.529 28.3397 201.743 29.7135C201.957 31.0873 201.899 32.4899 201.573 33.8414ZM81.4171 122.165L97.7577 54.1606L175.212 144.254V144.909C174.546 147.634 172.832 149.984 170.444 151.445C168.055 152.907 165.187 153.361 162.466 152.709L89.1952 134.946C87.8475 134.619 86.5771 134.029 85.4568 133.21C84.3364 132.391 83.388 131.358 82.6657 130.171C81.9434 128.984 81.4613 127.666 81.2471 126.293C81.0329 124.919 81.0906 123.516 81.4171 122.165Z" fill="#2C2833"/>
</g>
<defs>
<filter id="filter0_d_135_36724" x="0.400024" y="175.648" width="282.01" height="154.448" filterUnits="userSpaceOnUse" color-interpolation-filters="sRGB">
<feFlood flood-opacity="0" result="BackgroundImageFix"/>
<feColorMatrix in="SourceAlpha" type="matrix" values="0 0 0 0 0 0 0 0 0 0 0 0 0 0 0 0 0 0 127 0" result="hardAlpha"/>
<feOffset dy="1"/>
<feGaussianBlur stdDeviation="2"/>
<feComposite in2="hardAlpha" operator="out"/>
<feColorMatrix type="matrix" values="0 0 0 0 0 0 0 0 0 0 0 0 0 0 0 0 0 0 0.25 0"/>
<feBlend mode="normal" in2="BackgroundImageFix" result="effect1_dropShadow_135_36724"/>
<feBlend mode="normal" in="SourceGraphic" in2="effect1_dropShadow_135_36724" result="shape"/>
</filter>
<filter id="filter1_d_135_36724" x="77.1204" y="0" width="128.749" height="158" filterUnits="userSpaceOnUse" color-interpolation-filters="sRGB">
<feFlood flood-opacity="0" result="BackgroundImageFix"/>
<feColorMatrix in="SourceAlpha" type="matrix" values="0 0 0 0 0 0 0 0 0 0 0 0 0 0 0 0 0 0 127 0" result="hardAlpha"/>
<feOffset dy="1"/>
<feGaussianBlur stdDeviation="2"/>
<feComposite in2="hardAlpha" operator="out"/>
<feColorMatrix type="matrix" values="0 0 0 0 0 0 0 0 0 0 0 0 0 0 0 0 0 0 0.25 0"/>
<feBlend mode="normal" in2="BackgroundImageFix" result="effect1_dropShadow_135_36724"/>
<feBlend mode="normal" in="SourceGraphic" in2="effect1_dropShadow_135_36724" result="shape"/>
</filter>
</defs>
</svg>
