<svg width="16" height="16" viewBox="0 0 16 16" fill="none" xmlns="http://www.w3.org/2000/svg">
<path d="M11.7071 1.70711C12.0976 1.31658 12.0976 0.683418 11.7071 0.292893C11.3166 -0.0976311 10.6834 -0.0976311 10.2929 0.292893L11.7071 1.70711ZM4 8L3.29289 7.29289C2.90237 7.68342 2.90237 8.31658 3.29289 8.70711L4 8ZM10.2929 15.7071C10.6834 16.0976 11.3166 16.0976 11.7071 15.7071C12.0976 15.3166 12.0976 14.6834 11.7071 14.2929L10.2929 15.7071ZM10.2929 0.292893L3.29289 7.29289L4.70711 8.70711L11.7071 1.70711L10.2929 0.292893ZM3.29289 8.70711L10.2929 15.7071L11.7071 14.2929L4.70711 7.29289L3.29289 8.70711Z" fill="white"/>
</svg>
