<svg width="16" height="18" viewBox="0 0 16 18" fill="none" xmlns="http://www.w3.org/2000/svg">
<path d="M3.33631 14.9473L3.0775 15.9132L3.33631 14.9473ZM9.06523 16.4824L9.32405 15.5164L9.06523 16.4824ZM12.6637 3.0527L12.4049 4.01862L12.6637 3.0527ZM6.93478 1.51764L7.1936 0.551712L6.93478 1.51764ZM6.67596 2.48356L12.4049 4.01862L12.9225 2.08677L7.1936 0.551712L6.67596 2.48356ZM13.112 5.24337L10.5488 14.8093L12.4806 15.327L15.0438 5.76101L13.112 5.24337ZM9.32405 15.5164L3.59513 13.9814L3.0775 15.9132L8.80641 17.4483L9.32405 15.5164ZM2.88802 12.7566L5.45122 3.19067L3.51937 2.67303L0.956173 12.239L2.88802 12.7566ZM3.59513 13.9814C3.06167 13.8384 2.74508 13.2901 2.88802 12.7566L0.956173 12.239C0.527347 13.8394 1.4771 15.4844 3.0775 15.9132L3.59513 13.9814ZM10.5488 14.8093C10.4059 15.3428 9.85752 15.6594 9.32405 15.5164L8.80641 17.4483C10.4068 17.8771 12.0518 16.9274 12.4806 15.327L10.5488 14.8093ZM12.4049 4.01862C12.9383 4.16156 13.2549 4.7099 13.112 5.24337L15.0438 5.76101C15.4727 4.16061 14.5229 2.5156 12.9225 2.08677L12.4049 4.01862ZM7.1936 0.551712C5.5932 0.122887 3.94819 1.07264 3.51937 2.67303L5.45122 3.19067C5.59416 2.65721 6.1425 2.34062 6.67596 2.48356L7.1936 0.551712Z" fill="white"/>
</svg>
