<svg width="24" height="24" viewBox="0 0 24 24" fill="none" xmlns="http://www.w3.org/2000/svg">
<path fill-rule="evenodd" clip-rule="evenodd" d="M12.4087 3.51764C11.3418 3.23175 10.2451 3.86492 9.95923 4.93185L6.92123 16.2698C6.63535 17.3367 7.26852 18.4334 8.33545 18.7193L15.3301 20.5935C16.397 20.8794 17.4937 20.2462 17.7796 19.1793L20.8176 7.84133C21.1034 6.7744 20.4703 5.67773 19.4033 5.39184L12.4087 3.51764ZM12.3081 9.03772C11.9176 8.64719 11.2844 8.64719 10.8939 9.03772C10.5034 9.42824 10.5034 10.0614 10.8939 10.4519L12.4351 11.9931L10.8939 13.5343C10.5034 13.9248 10.5034 14.558 10.8939 14.9485C11.2844 15.339 11.9176 15.339 12.3081 14.9485L13.8493 13.4073L15.3905 14.9485C15.781 15.339 16.4141 15.339 16.8047 14.9485C17.1952 14.558 17.1952 13.9248 16.8047 13.5343L15.2635 11.9931L16.8047 10.4519C17.1952 10.0614 17.1952 9.42824 16.8047 9.03772C16.4141 8.64719 15.781 8.64719 15.3905 9.03772L13.8493 10.5789L12.3081 9.03772Z" fill="white"/>
<path fill-rule="evenodd" clip-rule="evenodd" d="M9.64829 3.76367C9.44851 3.9881 9.29589 4.25977 9.21078 4.56691L6.37238 14.8108V5.76367C6.37238 4.6591 7.26781 3.76367 8.37238 3.76367H9.64829Z" fill="white"/>
<path fill-rule="evenodd" clip-rule="evenodd" d="M5.79595 4.92201C5.632 5.20792 5.53871 5.54107 5.53934 5.8988L5.55659 15.6879L3.49284 7.57123C3.22065 6.50072 3.86782 5.41225 4.93833 5.14007L5.79595 4.92201Z" fill="white"/>
</svg>
