<svg width="16" height="16" viewBox="0 0 16 16" fill="none" xmlns="http://www.w3.org/2000/svg">
<mask id="path-1-inside-1_1031_72487" fill="white">
<path fill-rule="evenodd" clip-rule="evenodd" d="M8 3.08063C8 2.24212 7.03007 1.77595 6.3753 2.29976L3.27391 4.78087C3.0966 4.92272 2.87629 5 2.64922 5H1C0.447715 5 0 5.44772 0 6V10C0 10.5523 0.447715 11 1 11H2.64922C2.87629 11 3.0966 11.0773 3.27391 11.2191L6.37531 13.7002C7.03007 14.2241 8 13.7579 8 12.9194V3.08063Z"/>
</mask>
<path d="M6.37531 13.7002L5.12591 15.262L6.37531 13.7002ZM3.27391 11.2191L2.02452 12.7809L3.27391 11.2191ZM3.27391 4.78087L4.5233 6.34261L3.27391 4.78087ZM4.5233 6.34261L7.62469 3.8615L5.12591 0.738022L2.02452 3.21913L4.5233 6.34261ZM1 7H2.64922V3H1V7ZM2 10V6H-2V10H2ZM2.64922 9H1V13H2.64922V9ZM7.6247 12.1385L4.5233 9.6574L2.02452 12.7809L5.12591 15.262L7.6247 12.1385ZM6 3.08063V12.9194H10V3.08063H6ZM5.12591 15.262C7.0902 16.8334 10 15.4349 10 12.9194H6C6 12.0809 6.96993 11.6147 7.6247 12.1385L5.12591 15.262ZM2.64922 13C2.42215 13 2.20184 12.9227 2.02452 12.7809L4.5233 9.6574C3.99137 9.23185 3.33043 9 2.64922 9V13ZM-2 10C-2 11.6569 -0.656855 13 1 13V9C1.55228 9 2 9.44772 2 10H-2ZM1 3C-0.656854 3 -2 4.34315 -2 6H2C2 6.55229 1.55229 7 1 7V3ZM7.62469 3.8615C6.96993 4.38531 6 3.91914 6 3.08063H10C10 0.565108 7.0902 -0.83341 5.12591 0.738022L7.62469 3.8615ZM2.02452 3.21913C2.20184 3.07728 2.42215 3 2.64922 3V7C3.33043 7 3.99137 6.76816 4.5233 6.34261L2.02452 3.21913Z" fill="white" mask="url(#path-1-inside-1_1031_72487)"/>
<path d="M11 3C13.3545 3.84159 15 5.76359 15 8C15 10.2364 13.3545 12.1584 11 13" stroke="white" stroke-width="2" stroke-linecap="round"/>
<path d="M10.0232 6C10.9061 6.33664 11.5232 7.10543 11.5232 8C11.5232 8.89457 10.9061 9.66336 10.0232 10" stroke="white" stroke-width="2" stroke-linecap="round"/>
</svg>
